<?xml version="1.0" encoding="UTF-8"?>
<!DOCTYPE xmeml>
<xmeml version="4">
	<sequence id="sequence-1" TL.SQAudioVisibleBase="0" TL.SQVideoVisibleBase="0" TL.SQVisibleBaseTime="0" TL.SQAVDividerPosition="0.425076454878" TL.SQHideShyTracks="0" TL.SQHeaderWidth="236" TL.SQDataTrackViewControlState="0" Monitor.ProgramZoomOut="21168000000" Monitor.ProgramZoomIn="0" TL.SQTimePerPixel="0.0013888888888888889" MZ.EditLine="0" MZ.Sequence.PreviewFrameSizeHeight="1080" MZ.Sequence.PreviewFrameSizeWidth="1920" MZ.Sequence.AudioTimeDisplayFormat="200" MZ.Sequence.PreviewRenderingClassID="1297106761" MZ.Sequence.PreviewRenderingPresetCodec="1297107278" MZ.Sequence.PreviewRenderingPresetPath="EncoderPresets\SequencePreview\cc7991f5-c236-4db1-957e-2c71f924e81c\I-Frame Only MPEG.epr" MZ.Sequence.PreviewUseMaxRenderQuality="false" MZ.Sequence.PreviewUseMaxBitDepth="false" MZ.Sequence.EditingModeGUID="cc7991f5-c236-4db1-957e-2c71f924e81c" MZ.Sequence.VideoTimeDisplayFormat="100" MZ.WorkOutPoint="662674824000000" MZ.WorkInPoint="628890696000000" explodedTracks="true">
		<uuid>e40da824-849f-4c30-86be-1dbdfcb194e8</uuid>
		<duration>30376</duration>
		<rate>
			<timebase>24</timebase>
			<ntsc>FALSE</ntsc>
		</rate>
		<name>REEL 05 FOR DI</name>
		<media>
			<video>
				<format>
					<samplecharacteristics>
						<rate>
							<timebase>24</timebase>
							<ntsc>FALSE</ntsc>
						</rate>
						<codec>
							<name>Apple ProRes 422</name>
							<appspecificdata>
								<appname>Final Cut Pro</appname>
								<appmanufacturer>Apple Inc.</appmanufacturer>
								<appversion>7.0</appversion>
								<data>
									<qtcodec>
										<codecname>Apple ProRes 422</codecname>
										<codectypename>Apple ProRes 422</codectypename>
										<codectypecode>apcn</codectypecode>
										<codecvendorcode>appl</codecvendorcode>
										<spatialquality>1024</spatialquality>
										<temporalquality>0</temporalquality>
										<keyframerate>0</keyframerate>
										<datarate>0</datarate>
									</qtcodec>
								</data>
							</appspecificdata>
						</codec>
						<width>1920</width>
						<height>1080</height>
						<anamorphic>FALSE</anamorphic>
						<pixelaspectratio>square</pixelaspectratio>
						<fielddominance>none</fielddominance>
						<colordepth>24</colordepth>
					</samplecharacteristics>
				</format>
				<track TL.SQTrackShy="0" TL.SQTrackExpandedHeight="34" TL.SQTrackExpanded="0" MZ.TrackTargeted="1">
					<clipitem id="clipitem-1">
						<masterclipid>masterclip-1</masterclipid>
						<name>Graphic</name>
						<enabled>TRUE</enabled>
						<duration>1036800</duration>
						<rate>
							<timebase>24</timebase>
							<ntsc>FALSE</ntsc>
						</rate>
						<start>0</start>
						<end>72</end>
						<in>86400</in>
						<out>86472</out>
						<pproTicksIn>914457600000000</pproTicksIn>
						<pproTicksOut>915219648000000</pproTicksOut>
						<alphatype>straight</alphatype>
						<pixelaspectratio>square</pixelaspectratio>
						<anamorphic>FALSE</anamorphic>
						<file id="file-1">
							<name>Graphic</name>
							<mediaSource>GraphicAndType</mediaSource>
							<rate>
								<timebase>30</timebase>
								<ntsc>TRUE</ntsc>
							</rate>
							<timecode>
								<rate>
									<timebase>30</timebase>
									<ntsc>TRUE</ntsc>
								</rate>
								<string>00;00;00;00</string>
								<frame>0</frame>
								<displayformat>DF</displayformat>
							</timecode>
							<media>
								<video>
									<samplecharacteristics>
										<rate>
											<timebase>30</timebase>
											<ntsc>TRUE</ntsc>
										</rate>
										<width>1920</width>
										<height>1080</height>
										<anamorphic>FALSE</anamorphic>
										<pixelaspectratio>square</pixelaspectratio>
										<fielddominance>none</fielddominance>
									</samplecharacteristics>
								</video>
							</media>
						</file>
						<filter>
							<effect>
								<name>REEL 05</name>
								<effectid>GraphicAndType</effectid>
								<effectcategory>graphic</effectcategory>
								<effecttype>filter</effecttype>
								<mediatype>video</mediatype>
								<pproBypass>false</pproBypass>
								<parameter authoringApp="PremierePro">
									<parameterid>1</parameterid>
									<name>Source Text</name>
									<hash>4235c8a0-7f29-56ca-74cf-3eb1000000d0</hash>
									<value>uAAAAAAAAABEMyIRDAAAAAAABgAIAAQABgAAAAwAAAAIAAwACAAEAAgAAAAUAAAAJAAAAIT///+I////jP///wEAAAAEAAAABgAAAFRhaG9tYQAAAQAAAAwAAAAIAAwABAAIAAgAAABQAAAANAAAADAACAAAAAAAAAAAAAAAAAAAAAAAAAAAAAAAAAAAAAAAAAAAAAAAAAAAAAAAAAAEADAAAAAEAAAA+P////z///8EAAQABAAAAAcAAABSRUVMIDA1AA==</value>
								</parameter>
								<parameter authoringApp="PremierePro">
									<parameterid>2</parameterid>
									<name>Transform</name>
									<IsTimeVarying>false</IsTimeVarying>
									<ParameterControlType>11</ParameterControlType>
									<LowerBound>false</LowerBound>
									<UpperBound>false</UpperBound>
									<value>-91445760000000000,false,0,0,0,0,0,0</value>
								</parameter>
								<parameter authoringApp="PremierePro">
									<parameterid>3</parameterid>
									<name>Position</name>
									<IsTimeVarying>false</IsTimeVarying>
									<value>-91445760000000000,0.379486083984375:0.497589111328125,0,0,0,0,0,0,5,4,0,0,0,0</value>
								</parameter>
								<parameter authoringApp="PremierePro">
									<parameterid>4</parameterid>
									<name>Scale</name>
									<IsTimeVarying>false</IsTimeVarying>
									<ParameterControlType>2</ParameterControlType>
									<LowerBound>0</LowerBound>
									<UpperBound>4000</UpperBound>
									<value>-91445760000000000,100.,0,0,0,0,0,0</value>
								</parameter>
								<parameter authoringApp="PremierePro">
									<parameterid>5</parameterid>
									<name>Horizontal Scale</name>
									<IsTimeVarying>false</IsTimeVarying>
									<ParameterControlType>2</ParameterControlType>
									<LowerBound>0</LowerBound>
									<UpperBound>4000</UpperBound>
									<value>-91445760000000000,100.,0,0,0,0,0,0</value>
								</parameter>
								<parameter authoringApp="PremierePro">
									<parameterid>6</parameterid>
									<name> </name>
									<IsTimeVarying>false</IsTimeVarying>
									<ParameterControlType>4</ParameterControlType>
									<LowerBound>false</LowerBound>
									<UpperBound>true</UpperBound>
									<value>-91445760000000000,true,0,0,0,0,0,0</value>
								</parameter>
								<parameter authoringApp="PremierePro">
									<parameterid>7</parameterid>
									<name>Rotation</name>
									<IsTimeVarying>false</IsTimeVarying>
									<ParameterControlType>3</ParameterControlType>
									<LowerBound>-32768</LowerBound>
									<UpperBound>32767</UpperBound>
									<value>-91445760000000000,0.,0,0,0,0,0,0</value>
								</parameter>
								<parameter authoringApp="PremierePro">
									<parameterid>8</parameterid>
									<name>Opacity</name>
									<IsTimeVarying>false</IsTimeVarying>
									<ParameterControlType>2</ParameterControlType>
									<LowerBound>0</LowerBound>
									<UpperBound>100</UpperBound>
									<value>-91445760000000000,100.,0,0,0,0,0,0</value>
								</parameter>
								<parameter authoringApp="PremierePro">
									<parameterid>9</parameterid>
									<name>Anchor Point</name>
									<IsTimeVarying>false</IsTimeVarying>
									<value>-91445760000000000,0:0,0,0,0,0,0,0,5,4,0,0,0,0</value>
								</parameter>
								<parameter authoringApp="PremierePro">
									<parameterid>10</parameterid>
									<name></name>
									<IsTimeVarying>false</IsTimeVarying>
									<ParameterControlType>12</ParameterControlType>
									<LowerBound>false</LowerBound>
									<UpperBound>false</UpperBound>
									<value>-91445760000000000,false,0,0,0,0,0,0</value>
								</parameter>
								<parameter authoringApp="PremierePro">
									<parameterid>11</parameterid>
									<name> </name>
									<IsTimeVarying>false</IsTimeVarying>
									<ParameterControlType>8</ParameterControlType>
									<LowerBound>0</LowerBound>
									<UpperBound>32768</UpperBound>
									<value>-91445760000000000,0.,0,0,0,0,0,0</value>
								</parameter>
								<parameter authoringApp="PremierePro">
									<parameterid>12</parameterid>
									<name> </name>
									<IsTimeVarying>false</IsTimeVarying>
									<ParameterControlType>8</ParameterControlType>
									<LowerBound>0</LowerBound>
									<UpperBound>32768</UpperBound>
									<value>-91445760000000000,0.,0,0,0,0,0,0</value>
								</parameter>
								<parameter authoringApp="PremierePro">
									<parameterid>13</parameterid>
									<name>start</name>
									<IsTimeVarying>false</IsTimeVarying>
									<ParameterControlType>8</ParameterControlType>
									<LowerBound>-100</LowerBound>
									<UpperBound>1000000000</UpperBound>
									<value>-91445760000000000,7.,0,0,0,0,0,0</value>
								</parameter>
								<parameter authoringApp="PremierePro">
									<parameterid>14</parameterid>
									<name>end</name>
									<IsTimeVarying>false</IsTimeVarying>
									<ParameterControlType>8</ParameterControlType>
									<LowerBound>-100</LowerBound>
									<UpperBound>1000000000</UpperBound>
									<value>-91445760000000000,7.,0,0,0,0,0,0</value>
								</parameter>
								<parameter authoringApp="PremierePro">
									<parameterid>15</parameterid>
									<name> </name>
									<IsTimeVarying>false</IsTimeVarying>
									<ParameterControlType>4</ParameterControlType>
									<LowerBound>false</LowerBound>
									<UpperBound>true</UpperBound>
									<value>-91445760000000000,false,0,0,0,0,0,0</value>
								</parameter>
								<parameter authoringApp="PremierePro">
									<parameterid>16</parameterid>
									<name> </name>
									<IsTimeVarying>false</IsTimeVarying>
									<ParameterControlType>4</ParameterControlType>
									<LowerBound>false</LowerBound>
									<UpperBound>true</UpperBound>
									<value>-91445760000000000,false,0,0,0,0,0,0</value>
								</parameter>
								<parameter authoringApp="PremierePro">
									<parameterid>17</parameterid>
									<name> </name>
									<IsTimeVarying>false</IsTimeVarying>
									<ParameterControlType>4</ParameterControlType>
									<LowerBound>false</LowerBound>
									<UpperBound>true</UpperBound>
									<value>-91445760000000000,false,0,0,0,0,0,0</value>
								</parameter>
								<parameter authoringApp="PremierePro">
									<parameterid>18</parameterid>
									<name> </name>
									<IsTimeVarying>false</IsTimeVarying>
									<ParameterControlType>4</ParameterControlType>
									<LowerBound>false</LowerBound>
									<UpperBound>true</UpperBound>
									<value>-91445760000000000,false,0,0,0,0,0,0</value>
								</parameter>
								<parameter authoringApp="PremierePro">
									<parameterid>19</parameterid>
									<name>Parent Width</name>
									<IsTimeVarying>false</IsTimeVarying>
									<ParameterControlType>2</ParameterControlType>
									<LowerBound>0</LowerBound>
									<UpperBound>20000</UpperBound>
									<value>-91445760000000000,0.,0,0,0,0,0,0</value>
								</parameter>
								<parameter authoringApp="PremierePro">
									<parameterid>20</parameterid>
									<name>Parent Height</name>
									<IsTimeVarying>false</IsTimeVarying>
									<ParameterControlType>2</ParameterControlType>
									<LowerBound>0</LowerBound>
									<UpperBound>20000</UpperBound>
									<value>-91445760000000000,0.,0,0,0,0,0,0</value>
								</parameter>
								<parameter authoringApp="PremierePro">
									<parameterid>21</parameterid>
									<name>Parent Rotation</name>
									<IsTimeVarying>false</IsTimeVarying>
									<ParameterControlType>3</ParameterControlType>
									<LowerBound>-32768</LowerBound>
									<UpperBound>32767</UpperBound>
									<value>-91445760000000000,0.,0,0,0,0,0,0</value>
								</parameter>
							</effect>
						</filter>
						<logginginfo>
							<description></description>
							<scene></scene>
							<shottake></shottake>
							<lognote></lognote>
							<good></good>
							<originalvideofilename></originalvideofilename>
							<originalaudiofilename></originalaudiofilename>
						</logginginfo>
						<colorinfo>
							<lut></lut>
							<lut1></lut1>
							<asc_sop></asc_sop>
							<asc_sat></asc_sat>
							<lut2></lut2>
						</colorinfo>
						<labels>
						</labels>
					</clipitem>
					<clipitem id="clipitem-2">
						<masterclipid>masterclip-1</masterclipid>
						<name>Graphic</name>
						<enabled>TRUE</enabled>
						<duration>1036800</duration>
						<rate>
							<timebase>24</timebase>
							<ntsc>FALSE</ntsc>
						</rate>
						<start>72</start>
						<end>73</end>
						<in>86472</in>
						<out>86473</out>
						<pproTicksIn>915219648000000</pproTicksIn>
						<pproTicksOut>915230232000000</pproTicksOut>
						<alphatype>straight</alphatype>
						<file id="file-1"/>
						<filter>
							<effect>
								<name></name>
								<effectid>GraphicAndType</effectid>
								<effectcategory>graphic</effectcategory>
								<effecttype>filter</effecttype>
								<mediatype>video</mediatype>
								<pproBypass>false</pproBypass>
								<parameter authoringApp="PremierePro">
									<parameterid>1</parameterid>
									<name>Source Text</name>
									<hash>2f2e6d16-ff3d-3a1c-8ced-8541000000d4</hash>
									<value>vAAAAAAAAABEMyIRDAAAAAAABgAKAAQABgAAABwAAAAAABYADAAAAAQAAAAAAAAAAAAAAAAACAAWAAAAFAAAACwAAACE////iP///4z///8BAAAABAAAAAYAAABUYWhvbWEAAAgADAAEAAgACAAAAAgAAAA8AAAAAAAAAAAAAAAwAAgAAAAAAAAAAAAAAAAAAAAAAAAAAAAAAAAAAAAAAAAAAAAAAAAAAAAAAAAABAAwAAAABAAAAPj////8////BAAEAAQAAAA=</value>
								</parameter>
								<parameter authoringApp="PremierePro">
									<parameterid>2</parameterid>
									<name>Transform</name>
									<IsTimeVarying>false</IsTimeVarying>
									<ParameterControlType>11</ParameterControlType>
									<LowerBound>false</LowerBound>
									<UpperBound>false</UpperBound>
									<value>-91445760000000000,false,0,0,0,0,0,0</value>
								</parameter>
								<parameter authoringApp="PremierePro">
									<parameterid>3</parameterid>
									<name>Position</name>
									<IsTimeVarying>false</IsTimeVarying>
									<value>-91445760000000000,0.70364582538604736:0.46851852536201477,0,0,0,0,0,0,5,4,0,0,0,0</value>
								</parameter>
								<parameter authoringApp="PremierePro">
									<parameterid>4</parameterid>
									<name>Scale</name>
									<IsTimeVarying>false</IsTimeVarying>
									<ParameterControlType>2</ParameterControlType>
									<LowerBound>0</LowerBound>
									<UpperBound>4000</UpperBound>
									<value>-91445760000000000,100.,0,0,0,0,0,0</value>
								</parameter>
								<parameter authoringApp="PremierePro">
									<parameterid>5</parameterid>
									<name>Horizontal Scale</name>
									<IsTimeVarying>false</IsTimeVarying>
									<ParameterControlType>2</ParameterControlType>
									<LowerBound>0</LowerBound>
									<UpperBound>4000</UpperBound>
									<value>-91445760000000000,100.,0,0,0,0,0,0</value>
								</parameter>
								<parameter authoringApp="PremierePro">
									<parameterid>6</parameterid>
									<name> </name>
									<IsTimeVarying>false</IsTimeVarying>
									<ParameterControlType>4</ParameterControlType>
									<LowerBound>false</LowerBound>
									<UpperBound>true</UpperBound>
									<value>-91445760000000000,true,0,0,0,0,0,0</value>
								</parameter>
								<parameter authoringApp="PremierePro">
									<parameterid>7</parameterid>
									<name>Rotation</name>
									<IsTimeVarying>false</IsTimeVarying>
									<ParameterControlType>3</ParameterControlType>
									<LowerBound>-32768</LowerBound>
									<UpperBound>32767</UpperBound>
									<value>-91445760000000000,0.,0,0,0,0,0,0</value>
								</parameter>
								<parameter authoringApp="PremierePro">
									<parameterid>8</parameterid>
									<name>Opacity</name>
									<IsTimeVarying>false</IsTimeVarying>
									<ParameterControlType>2</ParameterControlType>
									<LowerBound>0</LowerBound>
									<UpperBound>100</UpperBound>
									<value>-91445760000000000,100.,0,0,0,0,0,0</value>
								</parameter>
								<parameter authoringApp="PremierePro">
									<parameterid>9</parameterid>
									<name>Anchor Point</name>
									<IsTimeVarying>false</IsTimeVarying>
									<value>-91445760000000000,0:0,0,0,0,0,0,0,5,4,0,0,0,0</value>
								</parameter>
								<parameter authoringApp="PremierePro">
									<parameterid>10</parameterid>
									<name></name>
									<IsTimeVarying>false</IsTimeVarying>
									<ParameterControlType>12</ParameterControlType>
									<LowerBound>false</LowerBound>
									<UpperBound>false</UpperBound>
									<value>-91445760000000000,false,0,0,0,0,0,0</value>
								</parameter>
								<parameter authoringApp="PremierePro">
									<parameterid>11</parameterid>
									<name> </name>
									<IsTimeVarying>false</IsTimeVarying>
									<ParameterControlType>8</ParameterControlType>
									<LowerBound>0</LowerBound>
									<UpperBound>32768</UpperBound>
									<value>-91445760000000000,0.,0,0,0,0,0,0</value>
								</parameter>
								<parameter authoringApp="PremierePro">
									<parameterid>12</parameterid>
									<name> </name>
									<IsTimeVarying>false</IsTimeVarying>
									<ParameterControlType>8</ParameterControlType>
									<LowerBound>0</LowerBound>
									<UpperBound>32768</UpperBound>
									<value>-91445760000000000,0.,0,0,0,0,0,0</value>
								</parameter>
								<parameter authoringApp="PremierePro">
									<parameterid>13</parameterid>
									<name>start</name>
									<IsTimeVarying>false</IsTimeVarying>
									<ParameterControlType>8</ParameterControlType>
									<LowerBound>-100</LowerBound>
									<UpperBound>1000000000</UpperBound>
									<value>-91445760000000000,0.,0,0,0,0,0,0</value>
								</parameter>
								<parameter authoringApp="PremierePro">
									<parameterid>14</parameterid>
									<name>end</name>
									<IsTimeVarying>false</IsTimeVarying>
									<ParameterControlType>8</ParameterControlType>
									<LowerBound>-100</LowerBound>
									<UpperBound>1000000000</UpperBound>
									<value>-91445760000000000,0.,0,0,0,0,0,0</value>
								</parameter>
								<parameter authoringApp="PremierePro">
									<parameterid>15</parameterid>
									<name> </name>
									<IsTimeVarying>false</IsTimeVarying>
									<ParameterControlType>4</ParameterControlType>
									<LowerBound>false</LowerBound>
									<UpperBound>true</UpperBound>
									<value>-91445760000000000,false,0,0,0,0,0,0</value>
								</parameter>
								<parameter authoringApp="PremierePro">
									<parameterid>16</parameterid>
									<name> </name>
									<IsTimeVarying>false</IsTimeVarying>
									<ParameterControlType>4</ParameterControlType>
									<LowerBound>false</LowerBound>
									<UpperBound>true</UpperBound>
									<value>-91445760000000000,false,0,0,0,0,0,0</value>
								</parameter>
								<parameter authoringApp="PremierePro">
									<parameterid>17</parameterid>
									<name> </name>
									<IsTimeVarying>false</IsTimeVarying>
									<ParameterControlType>4</ParameterControlType>
									<LowerBound>false</LowerBound>
									<UpperBound>true</UpperBound>
									<value>-91445760000000000,false,0,0,0,0,0,0</value>
								</parameter>
								<parameter authoringApp="PremierePro">
									<parameterid>18</parameterid>
									<name> </name>
									<IsTimeVarying>false</IsTimeVarying>
									<ParameterControlType>4</ParameterControlType>
									<LowerBound>false</LowerBound>
									<UpperBound>true</UpperBound>
									<value>-91445760000000000,false,0,0,0,0,0,0</value>
								</parameter>
								<parameter authoringApp="PremierePro">
									<parameterid>19</parameterid>
									<name>Parent Width</name>
									<IsTimeVarying>false</IsTimeVarying>
									<ParameterControlType>2</ParameterControlType>
									<LowerBound>0</LowerBound>
									<UpperBound>20000</UpperBound>
									<value>-91445760000000000,0.,0,0,0,0,0,0</value>
								</parameter>
								<parameter authoringApp="PremierePro">
									<parameterid>20</parameterid>
									<name>Parent Height</name>
									<IsTimeVarying>false</IsTimeVarying>
									<ParameterControlType>2</ParameterControlType>
									<LowerBound>0</LowerBound>
									<UpperBound>20000</UpperBound>
									<value>-91445760000000000,0.,0,0,0,0,0,0</value>
								</parameter>
								<parameter authoringApp="PremierePro">
									<parameterid>21</parameterid>
									<name>Parent Rotation</name>
									<IsTimeVarying>false</IsTimeVarying>
									<ParameterControlType>3</ParameterControlType>
									<LowerBound>-32768</LowerBound>
									<UpperBound>32767</UpperBound>
									<value>-91445760000000000,0.,0,0,0,0,0,0</value>
								</parameter>
							</effect>
						</filter>
						<filter>
							<effect>
								<name>BEEP</name>
								<effectid>GraphicAndType</effectid>
								<effectcategory>graphic</effectcategory>
								<effecttype>filter</effecttype>
								<mediatype>video</mediatype>
								<pproBypass>false</pproBypass>
								<parameter authoringApp="PremierePro">
									<parameterid>1</parameterid>
									<name>Source Text</name>
									<hash>0c799f11-534c-3970-224a-1386000000d0</hash>
									<value>uAAAAAAAAABEMyIRDAAAAAAABgAIAAQABgAAAAwAAAAIAAwACAAEAAgAAAAUAAAAJAAAAIT///+I////jP///wEAAAAEAAAABgAAAFRhaG9tYQAAAQAAAAwAAAAIAAwABAAIAAgAAABQAAAANAAAADAACAAAAAAAAAAAAAAAAAAAAAAAAAAAAAAAAAAAAAAAAAAAAAAAAAAAAAAAAAAEADAAAAAEAAAA+P////z///8EAAQABAAAAAQAAABCRUVQAAAAAA==</value>
								</parameter>
								<parameter authoringApp="PremierePro">
									<parameterid>2</parameterid>
									<name>Transform</name>
									<IsTimeVarying>false</IsTimeVarying>
									<ParameterControlType>11</ParameterControlType>
									<LowerBound>false</LowerBound>
									<UpperBound>false</UpperBound>
									<value>-91445760000000000,false,0,0,0,0,0,0</value>
								</parameter>
								<parameter authoringApp="PremierePro">
									<parameterid>3</parameterid>
									<name>Position</name>
									<IsTimeVarying>false</IsTimeVarying>
									<value>-91445760000000000,0.37948718667030334:0.49202734231948853,0,0,0,0,0,0,5,4,0,0,0,0</value>
								</parameter>
								<parameter authoringApp="PremierePro">
									<parameterid>4</parameterid>
									<name>Scale</name>
									<IsTimeVarying>false</IsTimeVarying>
									<ParameterControlType>2</ParameterControlType>
									<LowerBound>0</LowerBound>
									<UpperBound>4000</UpperBound>
									<value>-91445760000000000,100.,0,0,0,0,0,0</value>
								</parameter>
								<parameter authoringApp="PremierePro">
									<parameterid>5</parameterid>
									<name>Horizontal Scale</name>
									<IsTimeVarying>false</IsTimeVarying>
									<ParameterControlType>2</ParameterControlType>
									<LowerBound>0</LowerBound>
									<UpperBound>4000</UpperBound>
									<value>-91445760000000000,100.,0,0,0,0,0,0</value>
								</parameter>
								<parameter authoringApp="PremierePro">
									<parameterid>6</parameterid>
									<name> </name>
									<IsTimeVarying>false</IsTimeVarying>
									<ParameterControlType>4</ParameterControlType>
									<LowerBound>false</LowerBound>
									<UpperBound>true</UpperBound>
									<value>-91445760000000000,true,0,0,0,0,0,0</value>
								</parameter>
								<parameter authoringApp="PremierePro">
									<parameterid>7</parameterid>
									<name>Rotation</name>
									<IsTimeVarying>false</IsTimeVarying>
									<ParameterControlType>3</ParameterControlType>
									<LowerBound>-32768</LowerBound>
									<UpperBound>32767</UpperBound>
									<value>-91445760000000000,0.,0,0,0,0,0,0</value>
								</parameter>
								<parameter authoringApp="PremierePro">
									<parameterid>8</parameterid>
									<name>Opacity</name>
									<IsTimeVarying>false</IsTimeVarying>
									<ParameterControlType>2</ParameterControlType>
									<LowerBound>0</LowerBound>
									<UpperBound>100</UpperBound>
									<value>-91445760000000000,100.,0,0,0,0,0,0</value>
								</parameter>
								<parameter authoringApp="PremierePro">
									<parameterid>9</parameterid>
									<name>Anchor Point</name>
									<IsTimeVarying>false</IsTimeVarying>
									<value>-91445760000000000,0:0,0,0,0,0,0,0,5,4,0,0,0,0</value>
								</parameter>
								<parameter authoringApp="PremierePro">
									<parameterid>10</parameterid>
									<name></name>
									<IsTimeVarying>false</IsTimeVarying>
									<ParameterControlType>12</ParameterControlType>
									<LowerBound>false</LowerBound>
									<UpperBound>false</UpperBound>
									<value>-91445760000000000,false,0,0,0,0,0,0</value>
								</parameter>
								<parameter authoringApp="PremierePro">
									<parameterid>11</parameterid>
									<name> </name>
									<IsTimeVarying>false</IsTimeVarying>
									<ParameterControlType>8</ParameterControlType>
									<LowerBound>0</LowerBound>
									<UpperBound>32768</UpperBound>
									<value>-91445760000000000,0.,0,0,0,0,0,0</value>
								</parameter>
								<parameter authoringApp="PremierePro">
									<parameterid>12</parameterid>
									<name> </name>
									<IsTimeVarying>false</IsTimeVarying>
									<ParameterControlType>8</ParameterControlType>
									<LowerBound>0</LowerBound>
									<UpperBound>32768</UpperBound>
									<value>-91445760000000000,0.,0,0,0,0,0,0</value>
								</parameter>
								<parameter authoringApp="PremierePro">
									<parameterid>13</parameterid>
									<name>start</name>
									<IsTimeVarying>false</IsTimeVarying>
									<ParameterControlType>8</ParameterControlType>
									<LowerBound>-100</LowerBound>
									<UpperBound>1000000000</UpperBound>
									<value>-91445760000000000,4.,0,0,0,0,0,0</value>
								</parameter>
								<parameter authoringApp="PremierePro">
									<parameterid>14</parameterid>
									<name>end</name>
									<IsTimeVarying>false</IsTimeVarying>
									<ParameterControlType>8</ParameterControlType>
									<LowerBound>-100</LowerBound>
									<UpperBound>1000000000</UpperBound>
									<value>-91445760000000000,4.,0,0,0,0,0,0</value>
								</parameter>
								<parameter authoringApp="PremierePro">
									<parameterid>15</parameterid>
									<name> </name>
									<IsTimeVarying>false</IsTimeVarying>
									<ParameterControlType>4</ParameterControlType>
									<LowerBound>false</LowerBound>
									<UpperBound>true</UpperBound>
									<value>-91445760000000000,false,0,0,0,0,0,0</value>
								</parameter>
								<parameter authoringApp="PremierePro">
									<parameterid>16</parameterid>
									<name> </name>
									<IsTimeVarying>false</IsTimeVarying>
									<ParameterControlType>4</ParameterControlType>
									<LowerBound>false</LowerBound>
									<UpperBound>true</UpperBound>
									<value>-91445760000000000,false,0,0,0,0,0,0</value>
								</parameter>
								<parameter authoringApp="PremierePro">
									<parameterid>17</parameterid>
									<name> </name>
									<IsTimeVarying>false</IsTimeVarying>
									<ParameterControlType>4</ParameterControlType>
									<LowerBound>false</LowerBound>
									<UpperBound>true</UpperBound>
									<value>-91445760000000000,false,0,0,0,0,0,0</value>
								</parameter>
								<parameter authoringApp="PremierePro">
									<parameterid>18</parameterid>
									<name> </name>
									<IsTimeVarying>false</IsTimeVarying>
									<ParameterControlType>4</ParameterControlType>
									<LowerBound>false</LowerBound>
									<UpperBound>true</UpperBound>
									<value>-91445760000000000,false,0,0,0,0,0,0</value>
								</parameter>
								<parameter authoringApp="PremierePro">
									<parameterid>19</parameterid>
									<name>Parent Width</name>
									<IsTimeVarying>false</IsTimeVarying>
									<ParameterControlType>2</ParameterControlType>
									<LowerBound>0</LowerBound>
									<UpperBound>20000</UpperBound>
									<value>-91445760000000000,0.,0,0,0,0,0,0</value>
								</parameter>
								<parameter authoringApp="PremierePro">
									<parameterid>20</parameterid>
									<name>Parent Height</name>
									<IsTimeVarying>false</IsTimeVarying>
									<ParameterControlType>2</ParameterControlType>
									<LowerBound>0</LowerBound>
									<UpperBound>20000</UpperBound>
									<value>-91445760000000000,0.,0,0,0,0,0,0</value>
								</parameter>
								<parameter authoringApp="PremierePro">
									<parameterid>21</parameterid>
									<name>Parent Rotation</name>
									<IsTimeVarying>false</IsTimeVarying>
									<ParameterControlType>3</ParameterControlType>
									<LowerBound>-32768</LowerBound>
									<UpperBound>32767</UpperBound>
									<value>-91445760000000000,0.,0,0,0,0,0,0</value>
								</parameter>
							</effect>
						</filter>
						<logginginfo>
							<description></description>
							<scene></scene>
							<shottake></shottake>
							<lognote></lognote>
							<good></good>
							<originalvideofilename></originalvideofilename>
							<originalaudiofilename></originalaudiofilename>
						</logginginfo>
						<colorinfo>
							<lut></lut>
							<lut1></lut1>
							<asc_sop></asc_sop>
							<asc_sat></asc_sat>
							<lut2></lut2>
						</colorinfo>
						<labels>
						</labels>
					</clipitem>
					<clipitem id="clipitem-3">
						<masterclipid>masterclip-1</masterclipid>
						<name>Graphic</name>
						<enabled>TRUE</enabled>
						<duration>1036800</duration>
						<rate>
							<timebase>24</timebase>
							<ntsc>FALSE</ntsc>
						</rate>
						<start>73</start>
						<end>120</end>
						<in>86473</in>
						<out>86520</out>
						<pproTicksIn>915230232000000</pproTicksIn>
						<pproTicksOut>915727680000000</pproTicksOut>
						<alphatype>straight</alphatype>
						<file id="file-1"/>
						<filter>
							<effect>
								<name>REEL 05</name>
								<effectid>GraphicAndType</effectid>
								<effectcategory>graphic</effectcategory>
								<effecttype>filter</effecttype>
								<mediatype>video</mediatype>
								<pproBypass>false</pproBypass>
								<parameter authoringApp="PremierePro">
									<parameterid>1</parameterid>
									<name>Source Text</name>
									<hash>4235c8a0-7f29-56ca-74cf-3eb1000000d0</hash>
								</parameter>
								<parameter authoringApp="PremierePro">
									<parameterid>2</parameterid>
									<name>Transform</name>
									<IsTimeVarying>false</IsTimeVarying>
									<ParameterControlType>11</ParameterControlType>
									<LowerBound>false</LowerBound>
									<UpperBound>false</UpperBound>
									<value>-91445760000000000,false,0,0,0,0,0,0</value>
								</parameter>
								<parameter authoringApp="PremierePro">
									<parameterid>3</parameterid>
									<name>Position</name>
									<IsTimeVarying>false</IsTimeVarying>
									<value>-91445760000000000,0.37948718667030334:0.49202734231948853,0,0,0,0,0,0,5,4,0,0,0,0</value>
								</parameter>
								<parameter authoringApp="PremierePro">
									<parameterid>4</parameterid>
									<name>Scale</name>
									<IsTimeVarying>false</IsTimeVarying>
									<ParameterControlType>2</ParameterControlType>
									<LowerBound>0</LowerBound>
									<UpperBound>4000</UpperBound>
									<value>-91445760000000000,100.,0,0,0,0,0,0</value>
								</parameter>
								<parameter authoringApp="PremierePro">
									<parameterid>5</parameterid>
									<name>Horizontal Scale</name>
									<IsTimeVarying>false</IsTimeVarying>
									<ParameterControlType>2</ParameterControlType>
									<LowerBound>0</LowerBound>
									<UpperBound>4000</UpperBound>
									<value>-91445760000000000,100.,0,0,0,0,0,0</value>
								</parameter>
								<parameter authoringApp="PremierePro">
									<parameterid>6</parameterid>
									<name> </name>
									<IsTimeVarying>false</IsTimeVarying>
									<ParameterControlType>4</ParameterControlType>
									<LowerBound>false</LowerBound>
									<UpperBound>true</UpperBound>
									<value>-91445760000000000,true,0,0,0,0,0,0</value>
								</parameter>
								<parameter authoringApp="PremierePro">
									<parameterid>7</parameterid>
									<name>Rotation</name>
									<IsTimeVarying>false</IsTimeVarying>
									<ParameterControlType>3</ParameterControlType>
									<LowerBound>-32768</LowerBound>
									<UpperBound>32767</UpperBound>
									<value>-91445760000000000,0.,0,0,0,0,0,0</value>
								</parameter>
								<parameter authoringApp="PremierePro">
									<parameterid>8</parameterid>
									<name>Opacity</name>
									<IsTimeVarying>false</IsTimeVarying>
									<ParameterControlType>2</ParameterControlType>
									<LowerBound>0</LowerBound>
									<UpperBound>100</UpperBound>
									<value>-91445760000000000,100.,0,0,0,0,0,0</value>
								</parameter>
								<parameter authoringApp="PremierePro">
									<parameterid>9</parameterid>
									<name>Anchor Point</name>
									<IsTimeVarying>false</IsTimeVarying>
									<value>-91445760000000000,0:0,0,0,0,0,0,0,5,4,0,0,0,0</value>
								</parameter>
								<parameter authoringApp="PremierePro">
									<parameterid>10</parameterid>
									<name></name>
									<IsTimeVarying>false</IsTimeVarying>
									<ParameterControlType>12</ParameterControlType>
									<LowerBound>false</LowerBound>
									<UpperBound>false</UpperBound>
									<value>-91445760000000000,false,0,0,0,0,0,0</value>
								</parameter>
								<parameter authoringApp="PremierePro">
									<parameterid>11</parameterid>
									<name> </name>
									<IsTimeVarying>false</IsTimeVarying>
									<ParameterControlType>8</ParameterControlType>
									<LowerBound>0</LowerBound>
									<UpperBound>32768</UpperBound>
									<value>-91445760000000000,0.,0,0,0,0,0,0</value>
								</parameter>
								<parameter authoringApp="PremierePro">
									<parameterid>12</parameterid>
									<name> </name>
									<IsTimeVarying>false</IsTimeVarying>
									<ParameterControlType>8</ParameterControlType>
									<LowerBound>0</LowerBound>
									<UpperBound>32768</UpperBound>
									<value>-91445760000000000,0.,0,0,0,0,0,0</value>
								</parameter>
								<parameter authoringApp="PremierePro">
									<parameterid>13</parameterid>
									<name>start</name>
									<IsTimeVarying>false</IsTimeVarying>
									<ParameterControlType>8</ParameterControlType>
									<LowerBound>-100</LowerBound>
									<UpperBound>1000000000</UpperBound>
									<value>-91445760000000000,7.,0,0,0,0,0,0</value>
								</parameter>
								<parameter authoringApp="PremierePro">
									<parameterid>14</parameterid>
									<name>end</name>
									<IsTimeVarying>false</IsTimeVarying>
									<ParameterControlType>8</ParameterControlType>
									<LowerBound>-100</LowerBound>
									<UpperBound>1000000000</UpperBound>
									<value>-91445760000000000,7.,0,0,0,0,0,0</value>
								</parameter>
								<parameter authoringApp="PremierePro">
									<parameterid>15</parameterid>
									<name> </name>
									<IsTimeVarying>false</IsTimeVarying>
									<ParameterControlType>4</ParameterControlType>
									<LowerBound>false</LowerBound>
									<UpperBound>true</UpperBound>
									<value>-91445760000000000,false,0,0,0,0,0,0</value>
								</parameter>
								<parameter authoringApp="PremierePro">
									<parameterid>16</parameterid>
									<name> </name>
									<IsTimeVarying>false</IsTimeVarying>
									<ParameterControlType>4</ParameterControlType>
									<LowerBound>false</LowerBound>
									<UpperBound>true</UpperBound>
									<value>-91445760000000000,false,0,0,0,0,0,0</value>
								</parameter>
								<parameter authoringApp="PremierePro">
									<parameterid>17</parameterid>
									<name> </name>
									<IsTimeVarying>false</IsTimeVarying>
									<ParameterControlType>4</ParameterControlType>
									<LowerBound>false</LowerBound>
									<UpperBound>true</UpperBound>
									<value>-91445760000000000,false,0,0,0,0,0,0</value>
								</parameter>
								<parameter authoringApp="PremierePro">
									<parameterid>18</parameterid>
									<name> </name>
									<IsTimeVarying>false</IsTimeVarying>
									<ParameterControlType>4</ParameterControlType>
									<LowerBound>false</LowerBound>
									<UpperBound>true</UpperBound>
									<value>-91445760000000000,false,0,0,0,0,0,0</value>
								</parameter>
								<parameter authoringApp="PremierePro">
									<parameterid>19</parameterid>
									<name>Parent Width</name>
									<IsTimeVarying>false</IsTimeVarying>
									<ParameterControlType>2</ParameterControlType>
									<LowerBound>0</LowerBound>
									<UpperBound>20000</UpperBound>
									<value>-91445760000000000,0.,0,0,0,0,0,0</value>
								</parameter>
								<parameter authoringApp="PremierePro">
									<parameterid>20</parameterid>
									<name>Parent Height</name>
									<IsTimeVarying>false</IsTimeVarying>
									<ParameterControlType>2</ParameterControlType>
									<LowerBound>0</LowerBound>
									<UpperBound>20000</UpperBound>
									<value>-91445760000000000,0.,0,0,0,0,0,0</value>
								</parameter>
								<parameter authoringApp="PremierePro">
									<parameterid>21</parameterid>
									<name>Parent Rotation</name>
									<IsTimeVarying>false</IsTimeVarying>
									<ParameterControlType>3</ParameterControlType>
									<LowerBound>-32768</LowerBound>
									<UpperBound>32767</UpperBound>
									<value>-91445760000000000,0.,0,0,0,0,0,0</value>
								</parameter>
							</effect>
						</filter>
						<logginginfo>
							<description></description>
							<scene></scene>
							<shottake></shottake>
							<lognote></lognote>
							<good></good>
							<originalvideofilename></originalvideofilename>
							<originalaudiofilename></originalaudiofilename>
						</logginginfo>
						<colorinfo>
							<lut></lut>
							<lut1></lut1>
							<asc_sop></asc_sop>
							<asc_sat></asc_sat>
							<lut2></lut2>
						</colorinfo>
						<labels>
						</labels>
					</clipitem>
					<clipitem id="clipitem-4">
						<masterclipid>masterclip-2</masterclipid>
						<name>A006_06191610_C132.mp4</name>
						<enabled>TRUE</enabled>
						<duration>1193</duration>
						<rate>
							<timebase>24</timebase>
							<ntsc>FALSE</ntsc>
						</rate>
						<start>120</start>
						<end>595</end>
						<in>203</in>
						<out>678</out>
						<pproTicksIn>2148552000000</pproTicksIn>
						<pproTicksOut>7175952000000</pproTicksOut>
						<alphatype>none</alphatype>
						<pixelaspectratio>square</pixelaspectratio>
						<anamorphic>FALSE</anamorphic>
						<file id="file-2">
							<name>A006_06191610_C132.mp4</name>
							<pathurl>file://localhost/F%3a/bengaluru%20scenes/scene%2037A/A006_06191610_C132.mp4</pathurl>
							<rate>
								<timebase>24</timebase>
								<ntsc>FALSE</ntsc>
							</rate>
							<duration>1193</duration>
							<timecode>
								<rate>
									<timebase>24</timebase>
									<ntsc>FALSE</ntsc>
								</rate>
								<string>16:10:29:14</string>
								<frame>1397510</frame>
								<displayformat>NDF</displayformat>
							</timecode>
							<media>
								<video>
									<samplecharacteristics>
										<rate>
											<timebase>24</timebase>
											<ntsc>FALSE</ntsc>
										</rate>
										<width>1920</width>
										<height>1080</height>
										<anamorphic>FALSE</anamorphic>
										<pixelaspectratio>square</pixelaspectratio>
										<fielddominance>none</fielddominance>
									</samplecharacteristics>
								</video>
								<audio>
									<samplecharacteristics>
										<depth>16</depth>
										<samplerate>48000</samplerate>
									</samplecharacteristics>
									<channelcount>2</channelcount>
								</audio>
							</media>
						</file>
						<logginginfo>
							<description></description>
							<scene></scene>
							<shottake></shottake>
							<lognote></lognote>
							<good></good>
							<originalvideofilename></originalvideofilename>
							<originalaudiofilename></originalaudiofilename>
						</logginginfo>
						<colorinfo>
							<lut></lut>
							<lut1></lut1>
							<asc_sop></asc_sop>
							<asc_sat></asc_sat>
							<lut2></lut2>
						</colorinfo>
						<labels>
							<label2>Iris</label2>
						</labels>
					</clipitem>
					<clipitem id="clipitem-5">
						<masterclipid>masterclip-3</masterclipid>
						<name>A006_06191704_C135.mp4</name>
						<enabled>TRUE</enabled>
						<duration>726</duration>
						<rate>
							<timebase>24</timebase>
							<ntsc>FALSE</ntsc>
						</rate>
						<start>595</start>
						<end>944</end>
						<in>116</in>
						<out>465</out>
						<pproTicksIn>1227744000000</pproTicksIn>
						<pproTicksOut>4921560000000</pproTicksOut>
						<alphatype>none</alphatype>
						<pixelaspectratio>square</pixelaspectratio>
						<anamorphic>FALSE</anamorphic>
						<file id="file-3">
							<name>A006_06191704_C135.mp4</name>
							<pathurl>file://localhost/F%3a/bengaluru%20scenes/scene%2037A/A006_06191704_C135.mp4</pathurl>
							<rate>
								<timebase>24</timebase>
								<ntsc>FALSE</ntsc>
							</rate>
							<duration>726</duration>
							<timecode>
								<rate>
									<timebase>24</timebase>
									<ntsc>FALSE</ntsc>
								</rate>
								<string>17:04:26:17</string>
								<frame>1475201</frame>
								<displayformat>NDF</displayformat>
							</timecode>
							<media>
								<video>
									<samplecharacteristics>
										<rate>
											<timebase>24</timebase>
											<ntsc>FALSE</ntsc>
										</rate>
										<width>1920</width>
										<height>1080</height>
										<anamorphic>FALSE</anamorphic>
										<pixelaspectratio>square</pixelaspectratio>
										<fielddominance>none</fielddominance>
									</samplecharacteristics>
								</video>
								<audio>
									<samplecharacteristics>
										<depth>16</depth>
										<samplerate>48000</samplerate>
									</samplecharacteristics>
									<channelcount>2</channelcount>
								</audio>
							</media>
						</file>
						<link>
							<linkclipref>clipitem-5</linkclipref>
							<mediatype>video</mediatype>
							<trackindex>1</trackindex>
							<clipindex>5</clipindex>
						</link>
						<link>
							<linkclipref>clipitem-477</linkclipref>
							<mediatype>audio</mediatype>
							<trackindex>1</trackindex>
							<clipindex>1</clipindex>
							<groupindex>1</groupindex>
						</link>
						<link>
							<linkclipref>clipitem-641</linkclipref>
							<mediatype>audio</mediatype>
							<trackindex>2</trackindex>
							<clipindex>1</clipindex>
							<groupindex>1</groupindex>
						</link>
						<logginginfo>
							<description></description>
							<scene></scene>
							<shottake></shottake>
							<lognote></lognote>
							<good></good>
							<originalvideofilename></originalvideofilename>
							<originalaudiofilename></originalaudiofilename>
						</logginginfo>
						<colorinfo>
							<lut></lut>
							<lut1></lut1>
							<asc_sop></asc_sop>
							<asc_sat></asc_sat>
							<lut2></lut2>
						</colorinfo>
						<labels>
							<label2>Iris</label2>
						</labels>
					</clipitem>
					<clipitem id="clipitem-6">
						<masterclipid>masterclip-4</masterclipid>
						<name>A006_06191747_C158.mp4</name>
						<enabled>TRUE</enabled>
						<duration>1267</duration>
						<rate>
							<timebase>24</timebase>
							<ntsc>FALSE</ntsc>
						</rate>
						<start>944</start>
						<end>1013</end>
						<in>128</in>
						<out>197</out>
						<pproTicksIn>1354752000000</pproTicksIn>
						<pproTicksOut>2085048000000</pproTicksOut>
						<alphatype>none</alphatype>
						<pixelaspectratio>square</pixelaspectratio>
						<anamorphic>FALSE</anamorphic>
						<file id="file-4">
							<name>A006_06191747_C158.mp4</name>
							<pathurl>file://localhost/F%3a/bengaluru%20scenes/scene%2037A/A006_06191747_C158.mp4</pathurl>
							<rate>
								<timebase>24</timebase>
								<ntsc>FALSE</ntsc>
							</rate>
							<duration>1267</duration>
							<timecode>
								<rate>
									<timebase>24</timebase>
									<ntsc>FALSE</ntsc>
								</rate>
								<string>17:47:08:23</string>
								<frame>1536695</frame>
								<displayformat>NDF</displayformat>
							</timecode>
							<media>
								<video>
									<samplecharacteristics>
										<rate>
											<timebase>24</timebase>
											<ntsc>FALSE</ntsc>
										</rate>
										<width>1920</width>
										<height>1080</height>
										<anamorphic>FALSE</anamorphic>
										<pixelaspectratio>square</pixelaspectratio>
										<fielddominance>none</fielddominance>
									</samplecharacteristics>
								</video>
								<audio>
									<samplecharacteristics>
										<depth>16</depth>
										<samplerate>48000</samplerate>
									</samplecharacteristics>
									<channelcount>2</channelcount>
								</audio>
							</media>
						</file>
						<logginginfo>
							<description></description>
							<scene></scene>
							<shottake></shottake>
							<lognote></lognote>
							<good></good>
							<originalvideofilename></originalvideofilename>
							<originalaudiofilename></originalaudiofilename>
						</logginginfo>
						<colorinfo>
							<lut></lut>
							<lut1></lut1>
							<asc_sop></asc_sop>
							<asc_sat></asc_sat>
							<lut2></lut2>
						</colorinfo>
						<labels>
							<label2>Iris</label2>
						</labels>
					</clipitem>
					<clipitem id="clipitem-7">
						<masterclipid>masterclip-5</masterclipid>
						<name>A006_06191722_C144.mp4</name>
						<enabled>TRUE</enabled>
						<duration>1210</duration>
						<rate>
							<timebase>24</timebase>
							<ntsc>FALSE</ntsc>
						</rate>
						<start>1013</start>
						<end>1202</end>
						<in>78</in>
						<out>266</out>
						<pproTicksIn>1629936000000</pproTicksIn>
						<pproTicksOut>5628922443056</pproTicksOut>
						<alphatype>none</alphatype>
						<pixelaspectratio>square</pixelaspectratio>
						<anamorphic>FALSE</anamorphic>
						<file id="file-5">
							<name>A006_06191722_C144.mp4</name>
							<pathurl>file://localhost/F%3a/bengaluru%20scenes/scene%2037A/A006_06191722_C144.mp4</pathurl>
							<rate>
								<timebase>24</timebase>
								<ntsc>FALSE</ntsc>
							</rate>
							<duration>2419</duration>
							<timecode>
								<rate>
									<timebase>24</timebase>
									<ntsc>FALSE</ntsc>
								</rate>
								<string>17:22:41:06</string>
								<frame>1501470</frame>
								<displayformat>NDF</displayformat>
							</timecode>
							<media>
								<video>
									<samplecharacteristics>
										<rate>
											<timebase>24</timebase>
											<ntsc>FALSE</ntsc>
										</rate>
										<width>1920</width>
										<height>1080</height>
										<anamorphic>FALSE</anamorphic>
										<pixelaspectratio>square</pixelaspectratio>
										<fielddominance>none</fielddominance>
									</samplecharacteristics>
								</video>
								<audio>
									<samplecharacteristics>
										<depth>16</depth>
										<samplerate>48000</samplerate>
									</samplecharacteristics>
									<channelcount>2</channelcount>
								</audio>
							</media>
						</file>
						<filter>
							<effect>
								<name>Time Remap</name>
								<effectid>timeremap</effectid>
								<effectcategory>motion</effectcategory>
								<effecttype>motion</effecttype>
								<mediatype>video</mediatype>
								<parameter authoringApp="PremierePro">
									<parameterid>variablespeed</parameterid>
									<name>variablespeed</name>
									<valuemin>0</valuemin>
									<valuemax>1</valuemax>
									<value>0</value>
								</parameter>
								<parameter authoringApp="PremierePro">
									<parameterid>speed</parameterid>
									<name>speed</name>
									<valuemin>-100000</valuemin>
									<valuemax>100000</valuemax>
									<value>199.912</value>
								</parameter>
								<parameter authoringApp="PremierePro">
									<parameterid>reverse</parameterid>
									<name>reverse</name>
									<value>FALSE</value>
								</parameter>
								<parameter authoringApp="PremierePro">
									<parameterid>frameblending</parameterid>
									<name>frameblending</name>
									<value>FALSE</value>
								</parameter>
								<parameter authoringApp="PremierePro">
									<parameterid>graphdict</parameterid>
									<name>graphdict</name>
									<valuemin>0</valuemin>
									<valuemax>2418</valuemax>
									<value>0</value>
									<keyframe>
										<when>0</when>
										<value>0</value>
										<speedvirtualkf>TRUE</speedvirtualkf>
										<speedkfstart>TRUE</speedkfstart>
									</keyframe>
									<keyframe>
										<when>78</when>
										<value>155</value>
										<speedvirtualkf>TRUE</speedvirtualkf>
										<speedkfin>TRUE</speedkfin>
									</keyframe>
									<keyframe>
										<when>266</when>
										<value>531</value>
										<speedvirtualkf>TRUE</speedvirtualkf>
										<speedkfout>TRUE</speedkfout>
									</keyframe>
									<keyframe>
										<when>1210</when>
										<value>2418</value>
										<speedvirtualkf>TRUE</speedvirtualkf>
										<speedkfend>TRUE</speedkfend>
									</keyframe>
									<interpolation>
										<name>FCPCurve</name>
									</interpolation>
								</parameter>
							</effect>
						</filter>
						<logginginfo>
							<description></description>
							<scene></scene>
							<shottake></shottake>
							<lognote></lognote>
							<good></good>
							<originalvideofilename></originalvideofilename>
							<originalaudiofilename></originalaudiofilename>
						</logginginfo>
						<colorinfo>
							<lut></lut>
							<lut1></lut1>
							<asc_sop></asc_sop>
							<asc_sat></asc_sat>
							<lut2></lut2>
						</colorinfo>
						<labels>
							<label2>Iris</label2>
						</labels>
					</clipitem>
					<clipitem id="clipitem-8">
						<masterclipid>masterclip-4</masterclipid>
						<name>A006_06191747_C158.mp4</name>
						<enabled>TRUE</enabled>
						<duration>1267</duration>
						<rate>
							<timebase>24</timebase>
							<ntsc>FALSE</ntsc>
						</rate>
						<start>1202</start>
						<end>1282</end>
						<in>345</in>
						<out>425</out>
						<pproTicksIn>3651480000000</pproTicksIn>
						<pproTicksOut>4498200000000</pproTicksOut>
						<alphatype>none</alphatype>
						<file id="file-4"/>
						<logginginfo>
							<description></description>
							<scene></scene>
							<shottake></shottake>
							<lognote></lognote>
							<good></good>
							<originalvideofilename></originalvideofilename>
							<originalaudiofilename></originalaudiofilename>
						</logginginfo>
						<colorinfo>
							<lut></lut>
							<lut1></lut1>
							<asc_sop></asc_sop>
							<asc_sat></asc_sat>
							<lut2></lut2>
						</colorinfo>
						<labels>
							<label2>Iris</label2>
						</labels>
					</clipitem>
					<clipitem id="clipitem-9">
						<masterclipid>masterclip-6</masterclipid>
						<name>A006_06191829_C181.mp4</name>
						<enabled>TRUE</enabled>
						<duration>214</duration>
						<rate>
							<timebase>24</timebase>
							<ntsc>FALSE</ntsc>
						</rate>
						<start>1282</start>
						<end>1319</end>
						<in>87</in>
						<out>124</out>
						<pproTicksIn>920808000000</pproTicksIn>
						<pproTicksOut>1312416000000</pproTicksOut>
						<alphatype>none</alphatype>
						<pixelaspectratio>square</pixelaspectratio>
						<anamorphic>FALSE</anamorphic>
						<file id="file-6">
							<name>A006_06191829_C181.mp4</name>
							<pathurl>file://localhost/F%3a/bengaluru%20scenes/scene%2037A/A006_06191829_C181.mp4</pathurl>
							<rate>
								<timebase>24</timebase>
								<ntsc>FALSE</ntsc>
							</rate>
							<duration>214</duration>
							<timecode>
								<rate>
									<timebase>24</timebase>
									<ntsc>FALSE</ntsc>
								</rate>
								<string>18:29:52:19</string>
								<frame>1598227</frame>
								<displayformat>NDF</displayformat>
							</timecode>
							<media>
								<video>
									<samplecharacteristics>
										<rate>
											<timebase>24</timebase>
											<ntsc>FALSE</ntsc>
										</rate>
										<width>1920</width>
										<height>1080</height>
										<anamorphic>FALSE</anamorphic>
										<pixelaspectratio>square</pixelaspectratio>
										<fielddominance>none</fielddominance>
									</samplecharacteristics>
								</video>
								<audio>
									<samplecharacteristics>
										<depth>16</depth>
										<samplerate>48000</samplerate>
									</samplecharacteristics>
									<channelcount>2</channelcount>
								</audio>
							</media>
						</file>
						<logginginfo>
							<description></description>
							<scene></scene>
							<shottake></shottake>
							<lognote></lognote>
							<good></good>
							<originalvideofilename></originalvideofilename>
							<originalaudiofilename></originalaudiofilename>
						</logginginfo>
						<colorinfo>
							<lut></lut>
							<lut1></lut1>
							<asc_sop></asc_sop>
							<asc_sat></asc_sat>
							<lut2></lut2>
						</colorinfo>
						<labels>
							<label2>Iris</label2>
						</labels>
					</clipitem>
					<clipitem id="clipitem-10">
						<masterclipid>masterclip-4</masterclipid>
						<name>A006_06191747_C158.mp4</name>
						<enabled>TRUE</enabled>
						<duration>1267</duration>
						<rate>
							<timebase>24</timebase>
							<ntsc>FALSE</ntsc>
						</rate>
						<start>1319</start>
						<end>1352</end>
						<in>469</in>
						<out>502</out>
						<pproTicksIn>4963896000000</pproTicksIn>
						<pproTicksOut>5313168000000</pproTicksOut>
						<alphatype>none</alphatype>
						<file id="file-4"/>
						<logginginfo>
							<description></description>
							<scene></scene>
							<shottake></shottake>
							<lognote></lognote>
							<good></good>
							<originalvideofilename></originalvideofilename>
							<originalaudiofilename></originalaudiofilename>
						</logginginfo>
						<colorinfo>
							<lut></lut>
							<lut1></lut1>
							<asc_sop></asc_sop>
							<asc_sat></asc_sat>
							<lut2></lut2>
						</colorinfo>
						<labels>
							<label2>Iris</label2>
						</labels>
					</clipitem>
					<clipitem id="clipitem-11">
						<masterclipid>masterclip-7</masterclipid>
						<name>A006_06191814_C171.mp4</name>
						<enabled>TRUE</enabled>
						<duration>2110</duration>
						<rate>
							<timebase>24</timebase>
							<ntsc>FALSE</ntsc>
						</rate>
						<start>1352</start>
						<end>1402</end>
						<in>312</in>
						<out>362</out>
						<pproTicksIn>1651104000000</pproTicksIn>
						<pproTicksOut>1915704000000</pproTicksOut>
						<alphatype>none</alphatype>
						<pixelaspectratio>square</pixelaspectratio>
						<anamorphic>FALSE</anamorphic>
						<file id="file-7">
							<name>A006_06191814_C171.mp4</name>
							<pathurl>file://localhost/F%3a/bengaluru%20scenes/scene%2037A/A006_06191814_C171.mp4</pathurl>
							<rate>
								<timebase>24</timebase>
								<ntsc>FALSE</ntsc>
							</rate>
							<duration>1055</duration>
							<timecode>
								<rate>
									<timebase>24</timebase>
									<ntsc>FALSE</ntsc>
								</rate>
								<string>18:14:59:23</string>
								<frame>1576799</frame>
								<displayformat>NDF</displayformat>
							</timecode>
							<media>
								<video>
									<samplecharacteristics>
										<rate>
											<timebase>24</timebase>
											<ntsc>FALSE</ntsc>
										</rate>
										<width>1920</width>
										<height>1080</height>
										<anamorphic>FALSE</anamorphic>
										<pixelaspectratio>square</pixelaspectratio>
										<fielddominance>none</fielddominance>
									</samplecharacteristics>
								</video>
								<audio>
									<samplecharacteristics>
										<depth>16</depth>
										<samplerate>48000</samplerate>
									</samplecharacteristics>
									<channelcount>2</channelcount>
								</audio>
							</media>
						</file>
						<filter>
							<effect>
								<name>Time Remap</name>
								<effectid>timeremap</effectid>
								<effectcategory>motion</effectcategory>
								<effecttype>motion</effecttype>
								<mediatype>video</mediatype>
								<parameter authoringApp="PremierePro">
									<parameterid>variablespeed</parameterid>
									<name>variablespeed</name>
									<valuemin>0</valuemin>
									<valuemax>1</valuemax>
									<value>0</value>
								</parameter>
								<parameter authoringApp="PremierePro">
									<parameterid>speed</parameterid>
									<name>speed</name>
									<valuemin>-100000</valuemin>
									<valuemax>100000</valuemax>
									<value>50</value>
								</parameter>
								<parameter authoringApp="PremierePro">
									<parameterid>reverse</parameterid>
									<name>reverse</name>
									<value>FALSE</value>
								</parameter>
								<parameter authoringApp="PremierePro">
									<parameterid>frameblending</parameterid>
									<name>frameblending</name>
									<value>FALSE</value>
								</parameter>
								<parameter authoringApp="PremierePro">
									<parameterid>graphdict</parameterid>
									<name>graphdict</name>
									<valuemin>0</valuemin>
									<valuemax>1055</valuemax>
									<value>0</value>
									<keyframe>
										<when>0</when>
										<value>0</value>
										<speedvirtualkf>TRUE</speedvirtualkf>
										<speedkfstart>TRUE</speedkfstart>
									</keyframe>
									<keyframe>
										<when>312</when>
										<value>156</value>
										<speedvirtualkf>TRUE</speedvirtualkf>
										<speedkfin>TRUE</speedkfin>
									</keyframe>
									<keyframe>
										<when>362</when>
										<value>181</value>
										<speedvirtualkf>TRUE</speedvirtualkf>
										<speedkfout>TRUE</speedkfout>
									</keyframe>
									<keyframe>
										<when>2110</when>
										<value>1055</value>
										<speedvirtualkf>TRUE</speedvirtualkf>
										<speedkfend>TRUE</speedkfend>
									</keyframe>
									<interpolation>
										<name>FCPCurve</name>
									</interpolation>
								</parameter>
							</effect>
						</filter>
						<logginginfo>
							<description></description>
							<scene></scene>
							<shottake></shottake>
							<lognote></lognote>
							<good></good>
							<originalvideofilename></originalvideofilename>
							<originalaudiofilename></originalaudiofilename>
						</logginginfo>
						<colorinfo>
							<lut></lut>
							<lut1></lut1>
							<asc_sop></asc_sop>
							<asc_sat></asc_sat>
							<lut2></lut2>
						</colorinfo>
						<labels>
							<label2>Iris</label2>
						</labels>
					</clipitem>
					<clipitem id="clipitem-12">
						<masterclipid>masterclip-5</masterclipid>
						<name>A006_06191722_C144.mp4</name>
						<enabled>TRUE</enabled>
						<duration>1210</duration>
						<rate>
							<timebase>24</timebase>
							<ntsc>FALSE</ntsc>
						</rate>
						<start>1402</start>
						<end>1493</end>
						<in>617</in>
						<out>707</out>
						<pproTicksIn>13034452893198</pproTicksIn>
						<pproTicksOut>14959890810231</pproTicksOut>
						<alphatype>none</alphatype>
						<file id="file-5"/>
						<filter>
							<effect>
								<name>Time Remap</name>
								<effectid>timeremap</effectid>
								<effectcategory>motion</effectcategory>
								<effecttype>motion</effecttype>
								<mediatype>video</mediatype>
								<parameter authoringApp="PremierePro">
									<parameterid>variablespeed</parameterid>
									<name>variablespeed</name>
									<valuemin>0</valuemin>
									<valuemax>1</valuemax>
									<value>0</value>
								</parameter>
								<parameter authoringApp="PremierePro">
									<parameterid>speed</parameterid>
									<name>speed</name>
									<valuemin>-100000</valuemin>
									<valuemax>100000</valuemax>
									<value>199.912</value>
								</parameter>
								<parameter authoringApp="PremierePro">
									<parameterid>reverse</parameterid>
									<name>reverse</name>
									<value>FALSE</value>
								</parameter>
								<parameter authoringApp="PremierePro">
									<parameterid>frameblending</parameterid>
									<name>frameblending</name>
									<value>FALSE</value>
								</parameter>
								<parameter authoringApp="PremierePro">
									<parameterid>graphdict</parameterid>
									<name>graphdict</name>
									<valuemin>0</valuemin>
									<valuemax>2418</valuemax>
									<value>0</value>
									<keyframe>
										<when>0</when>
										<value>0</value>
										<speedvirtualkf>TRUE</speedvirtualkf>
										<speedkfstart>TRUE</speedkfstart>
									</keyframe>
									<keyframe>
										<when>617</when>
										<value>1233</value>
										<speedvirtualkf>TRUE</speedvirtualkf>
										<speedkfin>TRUE</speedkfin>
									</keyframe>
									<keyframe>
										<when>707</when>
										<value>1413</value>
										<speedvirtualkf>TRUE</speedvirtualkf>
										<speedkfout>TRUE</speedkfout>
									</keyframe>
									<keyframe>
										<when>1210</when>
										<value>2418</value>
										<speedvirtualkf>TRUE</speedvirtualkf>
										<speedkfend>TRUE</speedkfend>
									</keyframe>
									<interpolation>
										<name>FCPCurve</name>
									</interpolation>
								</parameter>
							</effect>
						</filter>
						<logginginfo>
							<description></description>
							<scene></scene>
							<shottake></shottake>
							<lognote></lognote>
							<good></good>
							<originalvideofilename></originalvideofilename>
							<originalaudiofilename></originalaudiofilename>
						</logginginfo>
						<colorinfo>
							<lut></lut>
							<lut1></lut1>
							<asc_sop></asc_sop>
							<asc_sat></asc_sat>
							<lut2></lut2>
						</colorinfo>
						<labels>
							<label2>Iris</label2>
						</labels>
					</clipitem>
					<clipitem id="clipitem-13">
						<masterclipid>masterclip-5</masterclipid>
						<name>A006_06191722_C144.mp4</name>
						<enabled>TRUE</enabled>
						<duration>1210</duration>
						<rate>
							<timebase>24</timebase>
							<ntsc>FALSE</ntsc>
						</rate>
						<start>1493</start>
						<end>1527</end>
						<in>708</in>
						<out>741</out>
						<pproTicksIn>14959890810231</pproTicksIn>
						<pproTicksOut>15679285196817</pproTicksOut>
						<alphatype>none</alphatype>
						<file id="file-5"/>
						<filter>
							<effect>
								<name>Time Remap</name>
								<effectid>timeremap</effectid>
								<effectcategory>motion</effectcategory>
								<effecttype>motion</effecttype>
								<mediatype>video</mediatype>
								<parameter authoringApp="PremierePro">
									<parameterid>variablespeed</parameterid>
									<name>variablespeed</name>
									<valuemin>0</valuemin>
									<valuemax>1</valuemax>
									<value>0</value>
								</parameter>
								<parameter authoringApp="PremierePro">
									<parameterid>speed</parameterid>
									<name>speed</name>
									<valuemin>-100000</valuemin>
									<valuemax>100000</valuemax>
									<value>199.912</value>
								</parameter>
								<parameter authoringApp="PremierePro">
									<parameterid>reverse</parameterid>
									<name>reverse</name>
									<value>FALSE</value>
								</parameter>
								<parameter authoringApp="PremierePro">
									<parameterid>frameblending</parameterid>
									<name>frameblending</name>
									<value>FALSE</value>
								</parameter>
								<parameter authoringApp="PremierePro">
									<parameterid>graphdict</parameterid>
									<name>graphdict</name>
									<valuemin>0</valuemin>
									<valuemax>2418</valuemax>
									<value>0</value>
									<keyframe>
										<when>0</when>
										<value>0</value>
										<speedvirtualkf>TRUE</speedvirtualkf>
										<speedkfstart>TRUE</speedkfstart>
									</keyframe>
									<keyframe>
										<when>708</when>
										<value>1415</value>
										<speedvirtualkf>TRUE</speedvirtualkf>
										<speedkfin>TRUE</speedkfin>
									</keyframe>
									<keyframe>
										<when>741</when>
										<value>1481</value>
										<speedvirtualkf>TRUE</speedvirtualkf>
										<speedkfout>TRUE</speedkfout>
									</keyframe>
									<keyframe>
										<when>1210</when>
										<value>2418</value>
										<speedvirtualkf>TRUE</speedvirtualkf>
										<speedkfend>TRUE</speedkfend>
									</keyframe>
									<interpolation>
										<name>FCPCurve</name>
									</interpolation>
								</parameter>
							</effect>
						</filter>
						<logginginfo>
							<description></description>
							<scene></scene>
							<shottake></shottake>
							<lognote></lognote>
							<good></good>
							<originalvideofilename></originalvideofilename>
							<originalaudiofilename></originalaudiofilename>
						</logginginfo>
						<colorinfo>
							<lut></lut>
							<lut1></lut1>
							<asc_sop></asc_sop>
							<asc_sat></asc_sat>
							<lut2></lut2>
						</colorinfo>
						<labels>
							<label2>Iris</label2>
						</labels>
					</clipitem>
					<clipitem id="clipitem-14">
						<masterclipid>masterclip-7</masterclipid>
						<name>A006_06191814_C171.mp4</name>
						<enabled>TRUE</enabled>
						<duration>2110</duration>
						<rate>
							<timebase>24</timebase>
							<ntsc>FALSE</ntsc>
						</rate>
						<start>1527</start>
						<end>1570</end>
						<in>182</in>
						<out>224</out>
						<pproTicksIn>959968800000</pproTicksIn>
						<pproTicksOut>1187524800000</pproTicksOut>
						<alphatype>none</alphatype>
						<file id="file-7"/>
						<filter>
							<effect>
								<name>Time Remap</name>
								<effectid>timeremap</effectid>
								<effectcategory>motion</effectcategory>
								<effecttype>motion</effecttype>
								<mediatype>video</mediatype>
								<parameter authoringApp="PremierePro">
									<parameterid>variablespeed</parameterid>
									<name>variablespeed</name>
									<valuemin>0</valuemin>
									<valuemax>1</valuemax>
									<value>0</value>
								</parameter>
								<parameter authoringApp="PremierePro">
									<parameterid>speed</parameterid>
									<name>speed</name>
									<valuemin>-100000</valuemin>
									<valuemax>100000</valuemax>
									<value>50</value>
								</parameter>
								<parameter authoringApp="PremierePro">
									<parameterid>reverse</parameterid>
									<name>reverse</name>
									<value>FALSE</value>
								</parameter>
								<parameter authoringApp="PremierePro">
									<parameterid>frameblending</parameterid>
									<name>frameblending</name>
									<value>FALSE</value>
								</parameter>
								<parameter authoringApp="PremierePro">
									<parameterid>graphdict</parameterid>
									<name>graphdict</name>
									<valuemin>0</valuemin>
									<valuemax>1055</valuemax>
									<value>0</value>
									<keyframe>
										<when>0</when>
										<value>0</value>
										<speedvirtualkf>TRUE</speedvirtualkf>
										<speedkfstart>TRUE</speedkfstart>
									</keyframe>
									<keyframe>
										<when>182</when>
										<value>91</value>
										<speedvirtualkf>TRUE</speedvirtualkf>
										<speedkfin>TRUE</speedkfin>
									</keyframe>
									<keyframe>
										<when>224</when>
										<value>112</value>
										<speedvirtualkf>TRUE</speedvirtualkf>
										<speedkfout>TRUE</speedkfout>
									</keyframe>
									<keyframe>
										<when>2110</when>
										<value>1055</value>
										<speedvirtualkf>TRUE</speedvirtualkf>
										<speedkfend>TRUE</speedkfend>
									</keyframe>
									<interpolation>
										<name>FCPCurve</name>
									</interpolation>
								</parameter>
							</effect>
						</filter>
						<logginginfo>
							<description></description>
							<scene></scene>
							<shottake></shottake>
							<lognote></lognote>
							<good></good>
							<originalvideofilename></originalvideofilename>
							<originalaudiofilename></originalaudiofilename>
						</logginginfo>
						<colorinfo>
							<lut></lut>
							<lut1></lut1>
							<asc_sop></asc_sop>
							<asc_sat></asc_sat>
							<lut2></lut2>
						</colorinfo>
						<labels>
							<label2>Iris</label2>
						</labels>
					</clipitem>
					<clipitem id="clipitem-15">
						<masterclipid>masterclip-5</masterclipid>
						<name>A006_06191722_C144.mp4</name>
						<enabled>TRUE</enabled>
						<duration>1210</duration>
						<rate>
							<timebase>24</timebase>
							<ntsc>FALSE</ntsc>
						</rate>
						<start>1570</start>
						<end>1687</end>
						<in>858</in>
						<out>974</out>
						<pproTicksIn>18133689574567</pproTicksIn>
						<pproTicksOut>20609252610762</pproTicksOut>
						<alphatype>none</alphatype>
						<file id="file-5"/>
						<filter>
							<effect>
								<name>Time Remap</name>
								<effectid>timeremap</effectid>
								<effectcategory>motion</effectcategory>
								<effecttype>motion</effecttype>
								<mediatype>video</mediatype>
								<parameter authoringApp="PremierePro">
									<parameterid>variablespeed</parameterid>
									<name>variablespeed</name>
									<valuemin>0</valuemin>
									<valuemax>1</valuemax>
									<value>0</value>
								</parameter>
								<parameter authoringApp="PremierePro">
									<parameterid>speed</parameterid>
									<name>speed</name>
									<valuemin>-100000</valuemin>
									<valuemax>100000</valuemax>
									<value>199.912</value>
								</parameter>
								<parameter authoringApp="PremierePro">
									<parameterid>reverse</parameterid>
									<name>reverse</name>
									<value>FALSE</value>
								</parameter>
								<parameter authoringApp="PremierePro">
									<parameterid>frameblending</parameterid>
									<name>frameblending</name>
									<value>FALSE</value>
								</parameter>
								<parameter authoringApp="PremierePro">
									<parameterid>graphdict</parameterid>
									<name>graphdict</name>
									<valuemin>0</valuemin>
									<valuemax>2418</valuemax>
									<value>0</value>
									<keyframe>
										<when>0</when>
										<value>0</value>
										<speedvirtualkf>TRUE</speedvirtualkf>
										<speedkfstart>TRUE</speedkfstart>
									</keyframe>
									<keyframe>
										<when>858</when>
										<value>1715</value>
										<speedvirtualkf>TRUE</speedvirtualkf>
										<speedkfin>TRUE</speedkfin>
									</keyframe>
									<keyframe>
										<when>974</when>
										<value>1947</value>
										<speedvirtualkf>TRUE</speedvirtualkf>
										<speedkfout>TRUE</speedkfout>
									</keyframe>
									<keyframe>
										<when>1210</when>
										<value>2418</value>
										<speedvirtualkf>TRUE</speedvirtualkf>
										<speedkfend>TRUE</speedkfend>
									</keyframe>
									<interpolation>
										<name>FCPCurve</name>
									</interpolation>
								</parameter>
							</effect>
						</filter>
						<logginginfo>
							<description></description>
							<scene></scene>
							<shottake></shottake>
							<lognote></lognote>
							<good></good>
							<originalvideofilename></originalvideofilename>
							<originalaudiofilename></originalaudiofilename>
						</logginginfo>
						<colorinfo>
							<lut></lut>
							<lut1></lut1>
							<asc_sop></asc_sop>
							<asc_sat></asc_sat>
							<lut2></lut2>
						</colorinfo>
						<labels>
							<label2>Iris</label2>
						</labels>
					</clipitem>
					<clipitem id="clipitem-16">
						<masterclipid>masterclip-8</masterclipid>
						<name>A006_06191824_C179.mp4</name>
						<enabled>TRUE</enabled>
						<duration>926</duration>
						<rate>
							<timebase>24</timebase>
							<ntsc>FALSE</ntsc>
						</rate>
						<start>1687</start>
						<end>1834</end>
						<in>637</in>
						<out>784</out>
						<pproTicksIn>6742008000000</pproTicksIn>
						<pproTicksOut>8297856000000</pproTicksOut>
						<alphatype>none</alphatype>
						<pixelaspectratio>square</pixelaspectratio>
						<anamorphic>FALSE</anamorphic>
						<file id="file-8">
							<name>A006_06191824_C179.mp4</name>
							<pathurl>file://localhost/F%3a/bengaluru%20scenes/scene%2037A/A006_06191824_C179.mp4</pathurl>
							<rate>
								<timebase>24</timebase>
								<ntsc>FALSE</ntsc>
							</rate>
							<duration>926</duration>
							<timecode>
								<rate>
									<timebase>24</timebase>
									<ntsc>FALSE</ntsc>
								</rate>
								<string>18:24:01:15</string>
								<frame>1589799</frame>
								<displayformat>NDF</displayformat>
							</timecode>
							<media>
								<video>
									<samplecharacteristics>
										<rate>
											<timebase>24</timebase>
											<ntsc>FALSE</ntsc>
										</rate>
										<width>1920</width>
										<height>1080</height>
										<anamorphic>FALSE</anamorphic>
										<pixelaspectratio>square</pixelaspectratio>
										<fielddominance>none</fielddominance>
									</samplecharacteristics>
								</video>
								<audio>
									<samplecharacteristics>
										<depth>16</depth>
										<samplerate>48000</samplerate>
									</samplecharacteristics>
									<channelcount>2</channelcount>
								</audio>
							</media>
						</file>
						<logginginfo>
							<description></description>
							<scene></scene>
							<shottake></shottake>
							<lognote></lognote>
							<good></good>
							<originalvideofilename></originalvideofilename>
							<originalaudiofilename></originalaudiofilename>
						</logginginfo>
						<colorinfo>
							<lut></lut>
							<lut1></lut1>
							<asc_sop></asc_sop>
							<asc_sat></asc_sat>
							<lut2></lut2>
						</colorinfo>
						<labels>
							<label2>Iris</label2>
						</labels>
					</clipitem>
					<clipitem id="clipitem-17">
						<masterclipid>masterclip-6</masterclipid>
						<name>A006_06191829_C181.mp4</name>
						<enabled>TRUE</enabled>
						<duration>214</duration>
						<rate>
							<timebase>24</timebase>
							<ntsc>FALSE</ntsc>
						</rate>
						<start>1834</start>
						<end>1868</end>
						<in>170</in>
						<out>204</out>
						<pproTicksIn>1799280000000</pproTicksIn>
						<pproTicksOut>2159136000000</pproTicksOut>
						<alphatype>none</alphatype>
						<file id="file-6"/>
						<logginginfo>
							<description></description>
							<scene></scene>
							<shottake></shottake>
							<lognote></lognote>
							<good></good>
							<originalvideofilename></originalvideofilename>
							<originalaudiofilename></originalaudiofilename>
						</logginginfo>
						<colorinfo>
							<lut></lut>
							<lut1></lut1>
							<asc_sop></asc_sop>
							<asc_sat></asc_sat>
							<lut2></lut2>
						</colorinfo>
						<labels>
							<label2>Iris</label2>
						</labels>
					</clipitem>
					<clipitem id="clipitem-18">
						<masterclipid>masterclip-4</masterclipid>
						<name>A006_06191747_C158.mp4</name>
						<enabled>TRUE</enabled>
						<duration>1267</duration>
						<rate>
							<timebase>24</timebase>
							<ntsc>FALSE</ntsc>
						</rate>
						<start>1868</start>
						<end>1906</end>
						<in>740</in>
						<out>778</out>
						<pproTicksIn>7832160000000</pproTicksIn>
						<pproTicksOut>8234352000000</pproTicksOut>
						<alphatype>none</alphatype>
						<file id="file-4"/>
						<logginginfo>
							<description></description>
							<scene></scene>
							<shottake></shottake>
							<lognote></lognote>
							<good></good>
							<originalvideofilename></originalvideofilename>
							<originalaudiofilename></originalaudiofilename>
						</logginginfo>
						<colorinfo>
							<lut></lut>
							<lut1></lut1>
							<asc_sop></asc_sop>
							<asc_sat></asc_sat>
							<lut2></lut2>
						</colorinfo>
						<labels>
							<label2>Iris</label2>
						</labels>
					</clipitem>
					<clipitem id="clipitem-19">
						<masterclipid>masterclip-9</masterclipid>
						<name>A006_06191727_C148.mp4</name>
						<enabled>TRUE</enabled>
						<duration>1027</duration>
						<rate>
							<timebase>24</timebase>
							<ntsc>FALSE</ntsc>
						</rate>
						<start>1906</start>
						<end>1954</end>
						<in>303</in>
						<out>351</out>
						<pproTicksIn>6413904000000</pproTicksIn>
						<pproTicksOut>7429968000000</pproTicksOut>
						<alphatype>none</alphatype>
						<pixelaspectratio>square</pixelaspectratio>
						<anamorphic>FALSE</anamorphic>
						<file id="file-9">
							<name>A006_06191727_C148.mp4</name>
							<pathurl>file://localhost/F%3a/bengaluru%20scenes/scene%2037A/A006_06191727_C148.mp4</pathurl>
							<rate>
								<timebase>24</timebase>
								<ntsc>FALSE</ntsc>
							</rate>
							<duration>2054</duration>
							<timecode>
								<rate>
									<timebase>24</timebase>
									<ntsc>FALSE</ntsc>
								</rate>
								<string>17:27:29:06</string>
								<frame>1508382</frame>
								<displayformat>NDF</displayformat>
							</timecode>
							<media>
								<video>
									<samplecharacteristics>
										<rate>
											<timebase>24</timebase>
											<ntsc>FALSE</ntsc>
										</rate>
										<width>1920</width>
										<height>1080</height>
										<anamorphic>FALSE</anamorphic>
										<pixelaspectratio>square</pixelaspectratio>
										<fielddominance>none</fielddominance>
									</samplecharacteristics>
								</video>
								<audio>
									<samplecharacteristics>
										<depth>16</depth>
										<samplerate>48000</samplerate>
									</samplecharacteristics>
									<channelcount>2</channelcount>
								</audio>
							</media>
						</file>
						<filter>
							<effect>
								<name>Time Remap</name>
								<effectid>timeremap</effectid>
								<effectcategory>motion</effectcategory>
								<effecttype>motion</effecttype>
								<mediatype>video</mediatype>
								<parameter authoringApp="PremierePro">
									<parameterid>variablespeed</parameterid>
									<name>variablespeed</name>
									<valuemin>0</valuemin>
									<valuemax>1</valuemax>
									<value>0</value>
								</parameter>
								<parameter authoringApp="PremierePro">
									<parameterid>speed</parameterid>
									<name>speed</name>
									<valuemin>-100000</valuemin>
									<valuemax>100000</valuemax>
									<value>200</value>
								</parameter>
								<parameter authoringApp="PremierePro">
									<parameterid>reverse</parameterid>
									<name>reverse</name>
									<value>FALSE</value>
								</parameter>
								<parameter authoringApp="PremierePro">
									<parameterid>frameblending</parameterid>
									<name>frameblending</name>
									<value>FALSE</value>
								</parameter>
								<parameter authoringApp="PremierePro">
									<parameterid>graphdict</parameterid>
									<name>graphdict</name>
									<valuemin>0</valuemin>
									<valuemax>2054</valuemax>
									<value>0</value>
									<keyframe>
										<when>0</when>
										<value>0</value>
										<speedvirtualkf>TRUE</speedvirtualkf>
										<speedkfstart>TRUE</speedkfstart>
									</keyframe>
									<keyframe>
										<when>303</when>
										<value>606</value>
										<speedvirtualkf>TRUE</speedvirtualkf>
										<speedkfin>TRUE</speedkfin>
									</keyframe>
									<keyframe>
										<when>351</when>
										<value>702</value>
										<speedvirtualkf>TRUE</speedvirtualkf>
										<speedkfout>TRUE</speedkfout>
									</keyframe>
									<keyframe>
										<when>1027</when>
										<value>2054</value>
										<speedvirtualkf>TRUE</speedvirtualkf>
										<speedkfend>TRUE</speedkfend>
									</keyframe>
									<interpolation>
										<name>FCPCurve</name>
									</interpolation>
								</parameter>
							</effect>
						</filter>
						<logginginfo>
							<description></description>
							<scene></scene>
							<shottake></shottake>
							<lognote></lognote>
							<good></good>
							<originalvideofilename></originalvideofilename>
							<originalaudiofilename></originalaudiofilename>
						</logginginfo>
						<colorinfo>
							<lut></lut>
							<lut1></lut1>
							<asc_sop></asc_sop>
							<asc_sat></asc_sat>
							<lut2></lut2>
						</colorinfo>
						<labels>
							<label2>Iris</label2>
						</labels>
					</clipitem>
					<clipitem id="clipitem-20">
						<masterclipid>masterclip-4</masterclipid>
						<name>A006_06191747_C158.mp4</name>
						<enabled>TRUE</enabled>
						<duration>1267</duration>
						<rate>
							<timebase>24</timebase>
							<ntsc>FALSE</ntsc>
						</rate>
						<start>1954</start>
						<end>1960</end>
						<in>830</in>
						<out>836</out>
						<pproTicksIn>8784720000000</pproTicksIn>
						<pproTicksOut>8848224000000</pproTicksOut>
						<alphatype>none</alphatype>
						<file id="file-4"/>
						<logginginfo>
							<description></description>
							<scene></scene>
							<shottake></shottake>
							<lognote></lognote>
							<good></good>
							<originalvideofilename></originalvideofilename>
							<originalaudiofilename></originalaudiofilename>
						</logginginfo>
						<colorinfo>
							<lut></lut>
							<lut1></lut1>
							<asc_sop></asc_sop>
							<asc_sat></asc_sat>
							<lut2></lut2>
						</colorinfo>
						<labels>
							<label2>Iris</label2>
						</labels>
					</clipitem>
					<clipitem id="clipitem-21">
						<masterclipid>masterclip-4</masterclipid>
						<name>A006_06191747_C158.mp4</name>
						<enabled>TRUE</enabled>
						<duration>1267</duration>
						<rate>
							<timebase>24</timebase>
							<ntsc>FALSE</ntsc>
						</rate>
						<start>1960</start>
						<end>2033</end>
						<in>836</in>
						<out>909</out>
						<pproTicksIn>8848224000000</pproTicksIn>
						<pproTicksOut>9620856000000</pproTicksOut>
						<alphatype>none</alphatype>
						<file id="file-4"/>
						<logginginfo>
							<description></description>
							<scene></scene>
							<shottake></shottake>
							<lognote></lognote>
							<good></good>
							<originalvideofilename></originalvideofilename>
							<originalaudiofilename></originalaudiofilename>
						</logginginfo>
						<colorinfo>
							<lut></lut>
							<lut1></lut1>
							<asc_sop></asc_sop>
							<asc_sat></asc_sat>
							<lut2></lut2>
						</colorinfo>
						<labels>
							<label2>Iris</label2>
						</labels>
					</clipitem>
					<clipitem id="clipitem-22">
						<masterclipid>masterclip-10</masterclipid>
						<name>A006_06191811_C170.mp4</name>
						<enabled>TRUE</enabled>
						<duration>1508</duration>
						<rate>
							<timebase>24</timebase>
							<ntsc>FALSE</ntsc>
						</rate>
						<start>2033</start>
						<end>2076</end>
						<in>645</in>
						<out>688</out>
						<pproTicksIn>6826680000000</pproTicksIn>
						<pproTicksOut>7281792000000</pproTicksOut>
						<alphatype>none</alphatype>
						<pixelaspectratio>square</pixelaspectratio>
						<anamorphic>FALSE</anamorphic>
						<file id="file-10">
							<name>A006_06191811_C170.mp4</name>
							<pathurl>file://localhost/F%3a/bengaluru%20scenes/scene%2037A/A006_06191811_C170.mp4</pathurl>
							<rate>
								<timebase>24</timebase>
								<ntsc>FALSE</ntsc>
							</rate>
							<duration>1508</duration>
							<timecode>
								<rate>
									<timebase>24</timebase>
									<ntsc>FALSE</ntsc>
								</rate>
								<string>18:11:42:19</string>
								<frame>1572067</frame>
								<displayformat>NDF</displayformat>
							</timecode>
							<media>
								<video>
									<samplecharacteristics>
										<rate>
											<timebase>24</timebase>
											<ntsc>FALSE</ntsc>
										</rate>
										<width>1920</width>
										<height>1080</height>
										<anamorphic>FALSE</anamorphic>
										<pixelaspectratio>square</pixelaspectratio>
										<fielddominance>none</fielddominance>
									</samplecharacteristics>
								</video>
								<audio>
									<samplecharacteristics>
										<depth>16</depth>
										<samplerate>48000</samplerate>
									</samplecharacteristics>
									<channelcount>2</channelcount>
								</audio>
							</media>
						</file>
						<logginginfo>
							<description></description>
							<scene></scene>
							<shottake></shottake>
							<lognote></lognote>
							<good></good>
							<originalvideofilename></originalvideofilename>
							<originalaudiofilename></originalaudiofilename>
						</logginginfo>
						<colorinfo>
							<lut></lut>
							<lut1></lut1>
							<asc_sop></asc_sop>
							<asc_sat></asc_sat>
							<lut2></lut2>
						</colorinfo>
						<labels>
							<label2>Iris</label2>
						</labels>
					</clipitem>
					<clipitem id="clipitem-23">
						<masterclipid>masterclip-7</masterclipid>
						<name>A006_06191814_C171.mp4</name>
						<enabled>TRUE</enabled>
						<duration>1055</duration>
						<rate>
							<timebase>24</timebase>
							<ntsc>FALSE</ntsc>
						</rate>
						<start>2076</start>
						<end>2102</end>
						<in>385</in>
						<out>411</out>
						<pproTicksIn>4074840000000</pproTicksIn>
						<pproTicksOut>4350024000000</pproTicksOut>
						<alphatype>none</alphatype>
						<file id="file-7"/>
						<logginginfo>
							<description></description>
							<scene></scene>
							<shottake></shottake>
							<lognote></lognote>
							<good></good>
							<originalvideofilename></originalvideofilename>
							<originalaudiofilename></originalaudiofilename>
						</logginginfo>
						<colorinfo>
							<lut></lut>
							<lut1></lut1>
							<asc_sop></asc_sop>
							<asc_sat></asc_sat>
							<lut2></lut2>
						</colorinfo>
						<labels>
							<label2>Iris</label2>
						</labels>
					</clipitem>
					<clipitem id="clipitem-24">
						<masterclipid>masterclip-7</masterclipid>
						<name>A006_06191814_C171.mp4</name>
						<enabled>TRUE</enabled>
						<duration>1055</duration>
						<rate>
							<timebase>24</timebase>
							<ntsc>FALSE</ntsc>
						</rate>
						<start>2102</start>
						<end>2103</end>
						<in>411</in>
						<out>412</out>
						<pproTicksIn>4350024000000</pproTicksIn>
						<pproTicksOut>4360608000000</pproTicksOut>
						<alphatype>none</alphatype>
						<file id="file-7"/>
						<logginginfo>
							<description></description>
							<scene></scene>
							<shottake></shottake>
							<lognote></lognote>
							<good></good>
							<originalvideofilename></originalvideofilename>
							<originalaudiofilename></originalaudiofilename>
						</logginginfo>
						<colorinfo>
							<lut></lut>
							<lut1></lut1>
							<asc_sop></asc_sop>
							<asc_sat></asc_sat>
							<lut2></lut2>
						</colorinfo>
						<labels>
							<label2>Iris</label2>
						</labels>
					</clipitem>
					<clipitem id="clipitem-25">
						<masterclipid>masterclip-10</masterclipid>
						<name>A006_06191811_C170.mp4</name>
						<enabled>TRUE</enabled>
						<duration>1508</duration>
						<rate>
							<timebase>24</timebase>
							<ntsc>FALSE</ntsc>
						</rate>
						<start>2103</start>
						<end>2109</end>
						<in>688</in>
						<out>694</out>
						<pproTicksIn>7281792000000</pproTicksIn>
						<pproTicksOut>7345296000000</pproTicksOut>
						<alphatype>none</alphatype>
						<file id="file-10"/>
						<logginginfo>
							<description></description>
							<scene></scene>
							<shottake></shottake>
							<lognote></lognote>
							<good></good>
							<originalvideofilename></originalvideofilename>
							<originalaudiofilename></originalaudiofilename>
						</logginginfo>
						<colorinfo>
							<lut></lut>
							<lut1></lut1>
							<asc_sop></asc_sop>
							<asc_sat></asc_sat>
							<lut2></lut2>
						</colorinfo>
						<labels>
							<label2>Iris</label2>
						</labels>
					</clipitem>
					<clipitem id="clipitem-26">
						<masterclipid>masterclip-10</masterclipid>
						<name>A006_06191811_C170.mp4</name>
						<enabled>TRUE</enabled>
						<duration>1508</duration>
						<rate>
							<timebase>24</timebase>
							<ntsc>FALSE</ntsc>
						</rate>
						<start>2109</start>
						<end>2125</end>
						<in>694</in>
						<out>710</out>
						<pproTicksIn>7345296000000</pproTicksIn>
						<pproTicksOut>7514640000000</pproTicksOut>
						<alphatype>none</alphatype>
						<file id="file-10"/>
						<logginginfo>
							<description></description>
							<scene></scene>
							<shottake></shottake>
							<lognote></lognote>
							<good></good>
							<originalvideofilename></originalvideofilename>
							<originalaudiofilename></originalaudiofilename>
						</logginginfo>
						<colorinfo>
							<lut></lut>
							<lut1></lut1>
							<asc_sop></asc_sop>
							<asc_sat></asc_sat>
							<lut2></lut2>
						</colorinfo>
						<labels>
							<label2>Iris</label2>
						</labels>
					</clipitem>
					<clipitem id="clipitem-27">
						<masterclipid>masterclip-7</masterclipid>
						<name>A006_06191814_C171.mp4</name>
						<enabled>TRUE</enabled>
						<duration>1055</duration>
						<rate>
							<timebase>24</timebase>
							<ntsc>FALSE</ntsc>
						</rate>
						<start>2125</start>
						<end>2198</end>
						<in>425</in>
						<out>498</out>
						<pproTicksIn>4498200000000</pproTicksIn>
						<pproTicksOut>5270832000000</pproTicksOut>
						<alphatype>none</alphatype>
						<file id="file-7"/>
						<logginginfo>
							<description></description>
							<scene></scene>
							<shottake></shottake>
							<lognote></lognote>
							<good></good>
							<originalvideofilename></originalvideofilename>
							<originalaudiofilename></originalaudiofilename>
						</logginginfo>
						<colorinfo>
							<lut></lut>
							<lut1></lut1>
							<asc_sop></asc_sop>
							<asc_sat></asc_sat>
							<lut2></lut2>
						</colorinfo>
						<labels>
							<label2>Iris</label2>
						</labels>
					</clipitem>
					<clipitem id="clipitem-28">
						<masterclipid>masterclip-4</masterclipid>
						<name>A006_06191747_C158.mp4</name>
						<enabled>TRUE</enabled>
						<duration>1267</duration>
						<rate>
							<timebase>24</timebase>
							<ntsc>FALSE</ntsc>
						</rate>
						<start>2198</start>
						<end>2245</end>
						<in>1078</in>
						<out>1125</out>
						<pproTicksIn>11409552000000</pproTicksIn>
						<pproTicksOut>11907000000000</pproTicksOut>
						<alphatype>none</alphatype>
						<file id="file-4"/>
						<logginginfo>
							<description></description>
							<scene></scene>
							<shottake></shottake>
							<lognote></lognote>
							<good></good>
							<originalvideofilename></originalvideofilename>
							<originalaudiofilename></originalaudiofilename>
						</logginginfo>
						<colorinfo>
							<lut></lut>
							<lut1></lut1>
							<asc_sop></asc_sop>
							<asc_sat></asc_sat>
							<lut2></lut2>
						</colorinfo>
						<labels>
							<label2>Iris</label2>
						</labels>
					</clipitem>
					<clipitem id="clipitem-29">
						<masterclipid>masterclip-9</masterclipid>
						<name>A006_06191727_C148.mp4</name>
						<enabled>TRUE</enabled>
						<duration>1027</duration>
						<rate>
							<timebase>24</timebase>
							<ntsc>FALSE</ntsc>
						</rate>
						<start>2245</start>
						<end>2279</end>
						<in>645</in>
						<out>679</out>
						<pproTicksIn>13653360000000</pproTicksIn>
						<pproTicksOut>14373072000000</pproTicksOut>
						<alphatype>none</alphatype>
						<file id="file-9"/>
						<filter>
							<effect>
								<name>Time Remap</name>
								<effectid>timeremap</effectid>
								<effectcategory>motion</effectcategory>
								<effecttype>motion</effecttype>
								<mediatype>video</mediatype>
								<parameter authoringApp="PremierePro">
									<parameterid>variablespeed</parameterid>
									<name>variablespeed</name>
									<valuemin>0</valuemin>
									<valuemax>1</valuemax>
									<value>0</value>
								</parameter>
								<parameter authoringApp="PremierePro">
									<parameterid>speed</parameterid>
									<name>speed</name>
									<valuemin>-100000</valuemin>
									<valuemax>100000</valuemax>
									<value>200</value>
								</parameter>
								<parameter authoringApp="PremierePro">
									<parameterid>reverse</parameterid>
									<name>reverse</name>
									<value>FALSE</value>
								</parameter>
								<parameter authoringApp="PremierePro">
									<parameterid>frameblending</parameterid>
									<name>frameblending</name>
									<value>FALSE</value>
								</parameter>
								<parameter authoringApp="PremierePro">
									<parameterid>graphdict</parameterid>
									<name>graphdict</name>
									<valuemin>0</valuemin>
									<valuemax>2054</valuemax>
									<value>0</value>
									<keyframe>
										<when>0</when>
										<value>0</value>
										<speedvirtualkf>TRUE</speedvirtualkf>
										<speedkfstart>TRUE</speedkfstart>
									</keyframe>
									<keyframe>
										<when>645</when>
										<value>1290</value>
										<speedvirtualkf>TRUE</speedvirtualkf>
										<speedkfin>TRUE</speedkfin>
									</keyframe>
									<keyframe>
										<when>679</when>
										<value>1358</value>
										<speedvirtualkf>TRUE</speedvirtualkf>
										<speedkfout>TRUE</speedkfout>
									</keyframe>
									<keyframe>
										<when>1027</when>
										<value>2054</value>
										<speedvirtualkf>TRUE</speedvirtualkf>
										<speedkfend>TRUE</speedkfend>
									</keyframe>
									<interpolation>
										<name>FCPCurve</name>
									</interpolation>
								</parameter>
							</effect>
						</filter>
						<logginginfo>
							<description></description>
							<scene></scene>
							<shottake></shottake>
							<lognote></lognote>
							<good></good>
							<originalvideofilename></originalvideofilename>
							<originalaudiofilename></originalaudiofilename>
						</logginginfo>
						<colorinfo>
							<lut></lut>
							<lut1></lut1>
							<asc_sop></asc_sop>
							<asc_sat></asc_sat>
							<lut2></lut2>
						</colorinfo>
						<labels>
							<label2>Iris</label2>
						</labels>
					</clipitem>
					<clipitem id="clipitem-30">
						<masterclipid>masterclip-10</masterclipid>
						<name>A006_06191811_C170.mp4</name>
						<enabled>TRUE</enabled>
						<duration>1508</duration>
						<rate>
							<timebase>24</timebase>
							<ntsc>FALSE</ntsc>
						</rate>
						<start>2279</start>
						<end>2305</end>
						<in>874</in>
						<out>900</out>
						<pproTicksIn>9250416000000</pproTicksIn>
						<pproTicksOut>9525600000000</pproTicksOut>
						<alphatype>none</alphatype>
						<file id="file-10"/>
						<link>
							<linkclipref>clipitem-30</linkclipref>
							<mediatype>video</mediatype>
							<trackindex>1</trackindex>
							<clipindex>30</clipindex>
						</link>
						<link>
							<linkclipref>clipitem-481</linkclipref>
							<mediatype>audio</mediatype>
							<trackindex>1</trackindex>
							<clipindex>5</clipindex>
							<groupindex>1</groupindex>
						</link>
						<link>
							<linkclipref>clipitem-645</linkclipref>
							<mediatype>audio</mediatype>
							<trackindex>2</trackindex>
							<clipindex>5</clipindex>
							<groupindex>1</groupindex>
						</link>
						<logginginfo>
							<description></description>
							<scene></scene>
							<shottake></shottake>
							<lognote></lognote>
							<good></good>
							<originalvideofilename></originalvideofilename>
							<originalaudiofilename></originalaudiofilename>
						</logginginfo>
						<colorinfo>
							<lut></lut>
							<lut1></lut1>
							<asc_sop></asc_sop>
							<asc_sat></asc_sat>
							<lut2></lut2>
						</colorinfo>
						<labels>
							<label2>Iris</label2>
						</labels>
					</clipitem>
					<clipitem id="clipitem-31">
						<masterclipid>masterclip-10</masterclipid>
						<name>A006_06191811_C170.mp4</name>
						<enabled>TRUE</enabled>
						<duration>1508</duration>
						<rate>
							<timebase>24</timebase>
							<ntsc>FALSE</ntsc>
						</rate>
						<start>2305</start>
						<end>2336</end>
						<in>900</in>
						<out>931</out>
						<pproTicksIn>9525600000000</pproTicksIn>
						<pproTicksOut>9853704000000</pproTicksOut>
						<alphatype>none</alphatype>
						<file id="file-10"/>
						<logginginfo>
							<description></description>
							<scene></scene>
							<shottake></shottake>
							<lognote></lognote>
							<good></good>
							<originalvideofilename></originalvideofilename>
							<originalaudiofilename></originalaudiofilename>
						</logginginfo>
						<colorinfo>
							<lut></lut>
							<lut1></lut1>
							<asc_sop></asc_sop>
							<asc_sat></asc_sat>
							<lut2></lut2>
						</colorinfo>
						<labels>
							<label2>Iris</label2>
						</labels>
					</clipitem>
					<clipitem id="clipitem-32">
						<masterclipid>masterclip-11</masterclipid>
						<name>A006_06191734_C151.mp4</name>
						<enabled>TRUE</enabled>
						<duration>882</duration>
						<rate>
							<timebase>24</timebase>
							<ntsc>FALSE</ntsc>
						</rate>
						<start>2336</start>
						<end>2371</end>
						<in>271</in>
						<out>306</out>
						<pproTicksIn>5736528000000</pproTicksIn>
						<pproTicksOut>6477408000000</pproTicksOut>
						<alphatype>none</alphatype>
						<pixelaspectratio>square</pixelaspectratio>
						<anamorphic>FALSE</anamorphic>
						<file id="file-11">
							<name>A006_06191734_C151.mp4</name>
							<pathurl>file://localhost/F%3a/bengaluru%20scenes/scene%2037A/A006_06191734_C151.mp4</pathurl>
							<rate>
								<timebase>24</timebase>
								<ntsc>FALSE</ntsc>
							</rate>
							<duration>1764</duration>
							<timecode>
								<rate>
									<timebase>24</timebase>
									<ntsc>FALSE</ntsc>
								</rate>
								<string>17:34:54:11</string>
								<frame>1519067</frame>
								<displayformat>NDF</displayformat>
							</timecode>
							<media>
								<video>
									<samplecharacteristics>
										<rate>
											<timebase>24</timebase>
											<ntsc>FALSE</ntsc>
										</rate>
										<width>1920</width>
										<height>1080</height>
										<anamorphic>FALSE</anamorphic>
										<pixelaspectratio>square</pixelaspectratio>
										<fielddominance>none</fielddominance>
									</samplecharacteristics>
								</video>
								<audio>
									<samplecharacteristics>
										<depth>16</depth>
										<samplerate>48000</samplerate>
									</samplecharacteristics>
									<channelcount>2</channelcount>
								</audio>
							</media>
						</file>
						<filter>
							<effect>
								<name>Time Remap</name>
								<effectid>timeremap</effectid>
								<effectcategory>motion</effectcategory>
								<effecttype>motion</effecttype>
								<mediatype>video</mediatype>
								<parameter authoringApp="PremierePro">
									<parameterid>variablespeed</parameterid>
									<name>variablespeed</name>
									<valuemin>0</valuemin>
									<valuemax>1</valuemax>
									<value>0</value>
								</parameter>
								<parameter authoringApp="PremierePro">
									<parameterid>speed</parameterid>
									<name>speed</name>
									<valuemin>-100000</valuemin>
									<valuemax>100000</valuemax>
									<value>200</value>
								</parameter>
								<parameter authoringApp="PremierePro">
									<parameterid>reverse</parameterid>
									<name>reverse</name>
									<value>FALSE</value>
								</parameter>
								<parameter authoringApp="PremierePro">
									<parameterid>frameblending</parameterid>
									<name>frameblending</name>
									<value>FALSE</value>
								</parameter>
								<parameter authoringApp="PremierePro">
									<parameterid>graphdict</parameterid>
									<name>graphdict</name>
									<valuemin>0</valuemin>
									<valuemax>1764</valuemax>
									<value>0</value>
									<keyframe>
										<when>0</when>
										<value>0</value>
										<speedvirtualkf>TRUE</speedvirtualkf>
										<speedkfstart>TRUE</speedkfstart>
									</keyframe>
									<keyframe>
										<when>271</when>
										<value>542</value>
										<speedvirtualkf>TRUE</speedvirtualkf>
										<speedkfin>TRUE</speedkfin>
									</keyframe>
									<keyframe>
										<when>306</when>
										<value>612</value>
										<speedvirtualkf>TRUE</speedvirtualkf>
										<speedkfout>TRUE</speedkfout>
									</keyframe>
									<keyframe>
										<when>882</when>
										<value>1764</value>
										<speedvirtualkf>TRUE</speedvirtualkf>
										<speedkfend>TRUE</speedkfend>
									</keyframe>
									<interpolation>
										<name>FCPCurve</name>
									</interpolation>
								</parameter>
							</effect>
						</filter>
						<logginginfo>
							<description></description>
							<scene></scene>
							<shottake></shottake>
							<lognote></lognote>
							<good></good>
							<originalvideofilename></originalvideofilename>
							<originalaudiofilename></originalaudiofilename>
						</logginginfo>
						<colorinfo>
							<lut></lut>
							<lut1></lut1>
							<asc_sop></asc_sop>
							<asc_sat></asc_sat>
							<lut2></lut2>
						</colorinfo>
						<labels>
							<label2>Iris</label2>
						</labels>
					</clipitem>
					<clipitem id="clipitem-33">
						<masterclipid>masterclip-9</masterclipid>
						<name>A006_06191727_C148.mp4</name>
						<enabled>TRUE</enabled>
						<duration>1027</duration>
						<rate>
							<timebase>24</timebase>
							<ntsc>FALSE</ntsc>
						</rate>
						<start>2371</start>
						<end>2384</end>
						<in>900</in>
						<out>913</out>
						<pproTicksIn>19051200000000</pproTicksIn>
						<pproTicksOut>19326384000000</pproTicksOut>
						<alphatype>none</alphatype>
						<file id="file-9"/>
						<filter>
							<effect>
								<name>Time Remap</name>
								<effectid>timeremap</effectid>
								<effectcategory>motion</effectcategory>
								<effecttype>motion</effecttype>
								<mediatype>video</mediatype>
								<parameter authoringApp="PremierePro">
									<parameterid>variablespeed</parameterid>
									<name>variablespeed</name>
									<valuemin>0</valuemin>
									<valuemax>1</valuemax>
									<value>0</value>
								</parameter>
								<parameter authoringApp="PremierePro">
									<parameterid>speed</parameterid>
									<name>speed</name>
									<valuemin>-100000</valuemin>
									<valuemax>100000</valuemax>
									<value>200</value>
								</parameter>
								<parameter authoringApp="PremierePro">
									<parameterid>reverse</parameterid>
									<name>reverse</name>
									<value>FALSE</value>
								</parameter>
								<parameter authoringApp="PremierePro">
									<parameterid>frameblending</parameterid>
									<name>frameblending</name>
									<value>FALSE</value>
								</parameter>
								<parameter authoringApp="PremierePro">
									<parameterid>graphdict</parameterid>
									<name>graphdict</name>
									<valuemin>0</valuemin>
									<valuemax>2054</valuemax>
									<value>0</value>
									<keyframe>
										<when>0</when>
										<value>0</value>
										<speedvirtualkf>TRUE</speedvirtualkf>
										<speedkfstart>TRUE</speedkfstart>
									</keyframe>
									<keyframe>
										<when>900</when>
										<value>1800</value>
										<speedvirtualkf>TRUE</speedvirtualkf>
										<speedkfin>TRUE</speedkfin>
									</keyframe>
									<keyframe>
										<when>913</when>
										<value>1826</value>
										<speedvirtualkf>TRUE</speedvirtualkf>
										<speedkfout>TRUE</speedkfout>
									</keyframe>
									<keyframe>
										<when>1027</when>
										<value>2054</value>
										<speedvirtualkf>TRUE</speedvirtualkf>
										<speedkfend>TRUE</speedkfend>
									</keyframe>
									<interpolation>
										<name>FCPCurve</name>
									</interpolation>
								</parameter>
							</effect>
						</filter>
						<logginginfo>
							<description></description>
							<scene></scene>
							<shottake></shottake>
							<lognote></lognote>
							<good></good>
							<originalvideofilename></originalvideofilename>
							<originalaudiofilename></originalaudiofilename>
						</logginginfo>
						<colorinfo>
							<lut></lut>
							<lut1></lut1>
							<asc_sop></asc_sop>
							<asc_sat></asc_sat>
							<lut2></lut2>
						</colorinfo>
						<labels>
							<label2>Iris</label2>
						</labels>
					</clipitem>
					<clipitem id="clipitem-34">
						<masterclipid>masterclip-11</masterclipid>
						<name>A006_06191734_C151.mp4</name>
						<enabled>TRUE</enabled>
						<duration>1764</duration>
						<rate>
							<timebase>24</timebase>
							<ntsc>FALSE</ntsc>
						</rate>
						<start>2384</start>
						<end>2631</end>
						<in>672</in>
						<out>919</out>
						<pproTicksIn>7112448000000</pproTicksIn>
						<pproTicksOut>9726696000000</pproTicksOut>
						<alphatype>none</alphatype>
						<file id="file-11"/>
						<logginginfo>
							<description></description>
							<scene></scene>
							<shottake></shottake>
							<lognote></lognote>
							<good></good>
							<originalvideofilename></originalvideofilename>
							<originalaudiofilename></originalaudiofilename>
						</logginginfo>
						<colorinfo>
							<lut></lut>
							<lut1></lut1>
							<asc_sop></asc_sop>
							<asc_sat></asc_sat>
							<lut2></lut2>
						</colorinfo>
						<labels>
							<label2>Iris</label2>
						</labels>
					</clipitem>
					<clipitem id="clipitem-35">
						<masterclipid>masterclip-12</masterclipid>
						<name>A006_06191833_C182.mp4</name>
						<enabled>TRUE</enabled>
						<duration>328</duration>
						<rate>
							<timebase>24</timebase>
							<ntsc>FALSE</ntsc>
						</rate>
						<start>2631</start>
						<end>2717</end>
						<in>80</in>
						<out>166</out>
						<pproTicksIn>846720000000</pproTicksIn>
						<pproTicksOut>1756944000000</pproTicksOut>
						<alphatype>none</alphatype>
						<pixelaspectratio>square</pixelaspectratio>
						<anamorphic>FALSE</anamorphic>
						<file id="file-12">
							<name>A006_06191833_C182.mp4</name>
							<pathurl>file://localhost/F%3a/bengaluru%20scenes/scene%2037A/A006_06191833_C182.mp4</pathurl>
							<rate>
								<timebase>24</timebase>
								<ntsc>FALSE</ntsc>
							</rate>
							<duration>328</duration>
							<timecode>
								<rate>
									<timebase>24</timebase>
									<ntsc>FALSE</ntsc>
								</rate>
								<string>18:33:36:14</string>
								<frame>1603598</frame>
								<displayformat>NDF</displayformat>
							</timecode>
							<media>
								<video>
									<samplecharacteristics>
										<rate>
											<timebase>24</timebase>
											<ntsc>FALSE</ntsc>
										</rate>
										<width>1920</width>
										<height>1080</height>
										<anamorphic>FALSE</anamorphic>
										<pixelaspectratio>square</pixelaspectratio>
										<fielddominance>none</fielddominance>
									</samplecharacteristics>
								</video>
								<audio>
									<samplecharacteristics>
										<depth>16</depth>
										<samplerate>48000</samplerate>
									</samplecharacteristics>
									<channelcount>2</channelcount>
								</audio>
							</media>
						</file>
						<logginginfo>
							<description></description>
							<scene></scene>
							<shottake></shottake>
							<lognote></lognote>
							<good></good>
							<originalvideofilename></originalvideofilename>
							<originalaudiofilename></originalaudiofilename>
						</logginginfo>
						<colorinfo>
							<lut></lut>
							<lut1></lut1>
							<asc_sop></asc_sop>
							<asc_sat></asc_sat>
							<lut2></lut2>
						</colorinfo>
						<labels>
							<label2>Iris</label2>
						</labels>
					</clipitem>
					<clipitem id="clipitem-36">
						<masterclipid>masterclip-13</masterclipid>
						<name>A006_06191753_C159.mp4</name>
						<enabled>TRUE</enabled>
						<duration>1055</duration>
						<rate>
							<timebase>24</timebase>
							<ntsc>FALSE</ntsc>
						</rate>
						<start>2717</start>
						<end>2955</end>
						<in>730</in>
						<out>968</out>
						<pproTicksIn>7726320000000</pproTicksIn>
						<pproTicksOut>10245312000000</pproTicksOut>
						<alphatype>none</alphatype>
						<pixelaspectratio>square</pixelaspectratio>
						<anamorphic>FALSE</anamorphic>
						<file id="file-13">
							<name>A006_06191753_C159.mp4</name>
							<pathurl>file://localhost/F%3a/bengaluru%20scenes/scene%2037A/A006_06191753_C159.mp4</pathurl>
							<rate>
								<timebase>24</timebase>
								<ntsc>FALSE</ntsc>
							</rate>
							<duration>1055</duration>
							<timecode>
								<rate>
									<timebase>24</timebase>
									<ntsc>FALSE</ntsc>
								</rate>
								<string>17:53:01:16</string>
								<frame>1545160</frame>
								<displayformat>NDF</displayformat>
							</timecode>
							<media>
								<video>
									<samplecharacteristics>
										<rate>
											<timebase>24</timebase>
											<ntsc>FALSE</ntsc>
										</rate>
										<width>1920</width>
										<height>1080</height>
										<anamorphic>FALSE</anamorphic>
										<pixelaspectratio>square</pixelaspectratio>
										<fielddominance>none</fielddominance>
									</samplecharacteristics>
								</video>
								<audio>
									<samplecharacteristics>
										<depth>16</depth>
										<samplerate>48000</samplerate>
									</samplecharacteristics>
									<channelcount>2</channelcount>
								</audio>
							</media>
						</file>
						<logginginfo>
							<description></description>
							<scene></scene>
							<shottake></shottake>
							<lognote></lognote>
							<good></good>
							<originalvideofilename></originalvideofilename>
							<originalaudiofilename></originalaudiofilename>
						</logginginfo>
						<colorinfo>
							<lut></lut>
							<lut1></lut1>
							<asc_sop></asc_sop>
							<asc_sat></asc_sat>
							<lut2></lut2>
						</colorinfo>
						<labels>
							<label2>Iris</label2>
						</labels>
					</clipitem>
					<clipitem id="clipitem-37">
						<masterclipid>masterclip-14</masterclipid>
						<name>A006_06192107_C191.mp4</name>
						<enabled>TRUE</enabled>
						<duration>1308</duration>
						<rate>
							<timebase>24</timebase>
							<ntsc>FALSE</ntsc>
						</rate>
						<start>2955</start>
						<end>3075</end>
						<in>116</in>
						<out>236</out>
						<pproTicksIn>1227744000000</pproTicksIn>
						<pproTicksOut>2497824000000</pproTicksOut>
						<alphatype>none</alphatype>
						<pixelaspectratio>square</pixelaspectratio>
						<anamorphic>FALSE</anamorphic>
						<file id="file-14">
							<name>A006_06192107_C191.mp4</name>
							<pathurl>file://localhost/F%3a/bengaluru%20scenes/scene%2037A/A006_06192107_C191.mp4</pathurl>
							<rate>
								<timebase>24</timebase>
								<ntsc>FALSE</ntsc>
							</rate>
							<duration>1308</duration>
							<timecode>
								<rate>
									<timebase>24</timebase>
									<ntsc>FALSE</ntsc>
								</rate>
								<string>21:07:26:16</string>
								<frame>1825120</frame>
								<displayformat>NDF</displayformat>
							</timecode>
							<media>
								<video>
									<samplecharacteristics>
										<rate>
											<timebase>24</timebase>
											<ntsc>FALSE</ntsc>
										</rate>
										<width>1920</width>
										<height>1080</height>
										<anamorphic>FALSE</anamorphic>
										<pixelaspectratio>square</pixelaspectratio>
										<fielddominance>none</fielddominance>
									</samplecharacteristics>
								</video>
								<audio>
									<samplecharacteristics>
										<depth>16</depth>
										<samplerate>48000</samplerate>
									</samplecharacteristics>
									<channelcount>2</channelcount>
								</audio>
							</media>
						</file>
						<logginginfo>
							<description></description>
							<scene></scene>
							<shottake></shottake>
							<lognote></lognote>
							<good></good>
							<originalvideofilename></originalvideofilename>
							<originalaudiofilename></originalaudiofilename>
						</logginginfo>
						<colorinfo>
							<lut></lut>
							<lut1></lut1>
							<asc_sop></asc_sop>
							<asc_sat></asc_sat>
							<lut2></lut2>
						</colorinfo>
						<labels>
							<label2>Iris</label2>
						</labels>
					</clipitem>
					<clipitem id="clipitem-38">
						<masterclipid>masterclip-15</masterclipid>
						<name>A006_06192251_C247.mp4</name>
						<enabled>TRUE</enabled>
						<duration>3563</duration>
						<rate>
							<timebase>24</timebase>
							<ntsc>FALSE</ntsc>
						</rate>
						<start>3075</start>
						<end>3171</end>
						<in>179</in>
						<out>275</out>
						<pproTicksIn>1894536000000</pproTicksIn>
						<pproTicksOut>2910600000000</pproTicksOut>
						<alphatype>none</alphatype>
						<pixelaspectratio>square</pixelaspectratio>
						<anamorphic>FALSE</anamorphic>
						<file id="file-15">
							<name>A006_06192251_C247.mp4</name>
							<pathurl>file://localhost/F%3a/bengaluru%20scenes/scene%2037A/A006_06192251_C247.mp4</pathurl>
							<rate>
								<timebase>24</timebase>
								<ntsc>FALSE</ntsc>
							</rate>
							<duration>3563</duration>
							<timecode>
								<rate>
									<timebase>24</timebase>
									<ntsc>FALSE</ntsc>
								</rate>
								<string>22:51:29:19</string>
								<frame>1974955</frame>
								<displayformat>NDF</displayformat>
							</timecode>
							<media>
								<video>
									<samplecharacteristics>
										<rate>
											<timebase>24</timebase>
											<ntsc>FALSE</ntsc>
										</rate>
										<width>1920</width>
										<height>1080</height>
										<anamorphic>FALSE</anamorphic>
										<pixelaspectratio>square</pixelaspectratio>
										<fielddominance>none</fielddominance>
									</samplecharacteristics>
								</video>
								<audio>
									<samplecharacteristics>
										<depth>16</depth>
										<samplerate>48000</samplerate>
									</samplecharacteristics>
									<channelcount>2</channelcount>
								</audio>
							</media>
						</file>
						<link>
							<linkclipref>clipitem-38</linkclipref>
							<mediatype>video</mediatype>
							<trackindex>1</trackindex>
							<clipindex>38</clipindex>
						</link>
						<link>
							<linkclipref>clipitem-484</linkclipref>
							<mediatype>audio</mediatype>
							<trackindex>1</trackindex>
							<clipindex>8</clipindex>
							<groupindex>1</groupindex>
						</link>
						<link>
							<linkclipref>clipitem-648</linkclipref>
							<mediatype>audio</mediatype>
							<trackindex>2</trackindex>
							<clipindex>8</clipindex>
							<groupindex>1</groupindex>
						</link>
						<logginginfo>
							<description></description>
							<scene></scene>
							<shottake></shottake>
							<lognote></lognote>
							<good></good>
							<originalvideofilename></originalvideofilename>
							<originalaudiofilename></originalaudiofilename>
						</logginginfo>
						<colorinfo>
							<lut></lut>
							<lut1></lut1>
							<asc_sop></asc_sop>
							<asc_sat></asc_sat>
							<lut2></lut2>
						</colorinfo>
						<labels>
							<label2>Iris</label2>
						</labels>
					</clipitem>
					<clipitem id="clipitem-39">
						<masterclipid>masterclip-16</masterclipid>
						<name>A006_06192246_C246.mp4</name>
						<enabled>TRUE</enabled>
						<duration>870</duration>
						<rate>
							<timebase>24</timebase>
							<ntsc>FALSE</ntsc>
						</rate>
						<start>3171</start>
						<end>-1</end>
						<in>437</in>
						<out>546</out>
						<pproTicksIn>4625208000000</pproTicksIn>
						<pproTicksOut>5778864000000</pproTicksOut>
						<alphatype>none</alphatype>
						<pixelaspectratio>square</pixelaspectratio>
						<anamorphic>FALSE</anamorphic>
						<file id="file-16">
							<name>A006_06192246_C246.mp4</name>
							<pathurl>file://localhost/F%3a/bengaluru%20scenes/scene%2037A/A006_06192246_C246.mp4</pathurl>
							<rate>
								<timebase>24</timebase>
								<ntsc>FALSE</ntsc>
							</rate>
							<duration>870</duration>
							<timecode>
								<rate>
									<timebase>24</timebase>
									<ntsc>FALSE</ntsc>
								</rate>
								<string>22:46:02:12</string>
								<frame>1967100</frame>
								<displayformat>NDF</displayformat>
							</timecode>
							<media>
								<video>
									<samplecharacteristics>
										<rate>
											<timebase>24</timebase>
											<ntsc>FALSE</ntsc>
										</rate>
										<width>1920</width>
										<height>1080</height>
										<anamorphic>FALSE</anamorphic>
										<pixelaspectratio>square</pixelaspectratio>
										<fielddominance>none</fielddominance>
									</samplecharacteristics>
								</video>
								<audio>
									<samplecharacteristics>
										<depth>16</depth>
										<samplerate>48000</samplerate>
									</samplecharacteristics>
									<channelcount>2</channelcount>
								</audio>
							</media>
						</file>
						<logginginfo>
							<description></description>
							<scene></scene>
							<shottake></shottake>
							<lognote></lognote>
							<good></good>
							<originalvideofilename></originalvideofilename>
							<originalaudiofilename></originalaudiofilename>
						</logginginfo>
						<colorinfo>
							<lut></lut>
							<lut1></lut1>
							<asc_sop></asc_sop>
							<asc_sat></asc_sat>
							<lut2></lut2>
						</colorinfo>
						<labels>
							<label2>Iris</label2>
						</labels>
					</clipitem>
					<transitionitem>
						<start>3270</start>
						<end>3280</end>
						<alignment>center</alignment>
						<cutPointTicks>52920000000</cutPointTicks>
						<rate>
							<timebase>24</timebase>
							<ntsc>FALSE</ntsc>
						</rate>
						<effect>
							<name>Cross Dissolve</name>
							<effectid>Cross Dissolve</effectid>
							<effectcategory>Dissolve</effectcategory>
							<effecttype>transition</effecttype>
							<mediatype>video</mediatype>
							<wipecode>0</wipecode>
							<wipeaccuracy>100</wipeaccuracy>
							<startratio>0</startratio>
							<endratio>1</endratio>
							<reverse>FALSE</reverse>
						</effect>
					</transitionitem>
					<clipitem id="clipitem-40">
						<masterclipid>masterclip-15</masterclipid>
						<name>A006_06192251_C247.mp4</name>
						<enabled>TRUE</enabled>
						<duration>3563</duration>
						<rate>
							<timebase>24</timebase>
							<ntsc>FALSE</ntsc>
						</rate>
						<start>-1</start>
						<end>3306</end>
						<in>1552</in>
						<out>1588</out>
						<pproTicksIn>16426368000000</pproTicksIn>
						<pproTicksOut>16807392000000</pproTicksOut>
						<alphatype>none</alphatype>
						<file id="file-15"/>
						<logginginfo>
							<description></description>
							<scene></scene>
							<shottake></shottake>
							<lognote></lognote>
							<good></good>
							<originalvideofilename></originalvideofilename>
							<originalaudiofilename></originalaudiofilename>
						</logginginfo>
						<colorinfo>
							<lut></lut>
							<lut1></lut1>
							<asc_sop></asc_sop>
							<asc_sat></asc_sat>
							<lut2></lut2>
						</colorinfo>
						<labels>
							<label2>Iris</label2>
						</labels>
					</clipitem>
					<clipitem id="clipitem-41">
						<masterclipid>masterclip-17</masterclipid>
						<name>A006_06192255_C248.mp4</name>
						<enabled>TRUE</enabled>
						<duration>389</duration>
						<rate>
							<timebase>24</timebase>
							<ntsc>FALSE</ntsc>
						</rate>
						<start>3306</start>
						<end>3347</end>
						<in>188</in>
						<out>229</out>
						<pproTicksIn>1989792000000</pproTicksIn>
						<pproTicksOut>2423736000000</pproTicksOut>
						<alphatype>none</alphatype>
						<pixelaspectratio>square</pixelaspectratio>
						<anamorphic>FALSE</anamorphic>
						<file id="file-17">
							<name>A006_06192255_C248.mp4</name>
							<pathurl>file://localhost/F%3a/bengaluru%20scenes/scene%2037A/A006_06192255_C248.mp4</pathurl>
							<rate>
								<timebase>24</timebase>
								<ntsc>FALSE</ntsc>
							</rate>
							<duration>389</duration>
							<timecode>
								<rate>
									<timebase>24</timebase>
									<ntsc>FALSE</ntsc>
								</rate>
								<string>22:55:23:20</string>
								<frame>1980572</frame>
								<displayformat>NDF</displayformat>
							</timecode>
							<media>
								<video>
									<samplecharacteristics>
										<rate>
											<timebase>24</timebase>
											<ntsc>FALSE</ntsc>
										</rate>
										<width>1920</width>
										<height>1080</height>
										<anamorphic>FALSE</anamorphic>
										<pixelaspectratio>square</pixelaspectratio>
										<fielddominance>none</fielddominance>
									</samplecharacteristics>
								</video>
								<audio>
									<samplecharacteristics>
										<depth>16</depth>
										<samplerate>48000</samplerate>
									</samplecharacteristics>
									<channelcount>2</channelcount>
								</audio>
							</media>
						</file>
						<logginginfo>
							<description></description>
							<scene></scene>
							<shottake></shottake>
							<lognote></lognote>
							<good></good>
							<originalvideofilename></originalvideofilename>
							<originalaudiofilename></originalaudiofilename>
						</logginginfo>
						<colorinfo>
							<lut></lut>
							<lut1></lut1>
							<asc_sop></asc_sop>
							<asc_sat></asc_sat>
							<lut2></lut2>
						</colorinfo>
						<labels>
							<label2>Iris</label2>
						</labels>
					</clipitem>
					<clipitem id="clipitem-42">
						<masterclipid>masterclip-18</masterclipid>
						<name>A006_06191834_C183.mp4</name>
						<enabled>TRUE</enabled>
						<duration>306</duration>
						<rate>
							<timebase>24</timebase>
							<ntsc>FALSE</ntsc>
						</rate>
						<start>3347</start>
						<end>3398</end>
						<in>90</in>
						<out>141</out>
						<pproTicksIn>571536000000</pproTicksIn>
						<pproTicksOut>895406400000</pproTicksOut>
						<alphatype>none</alphatype>
						<pixelaspectratio>square</pixelaspectratio>
						<anamorphic>FALSE</anamorphic>
						<file id="file-18">
							<name>A006_06191834_C183.mp4</name>
							<pathurl>file://localhost/F%3a/bengaluru%20scenes/scene%2037A/A006_06191834_C183.mp4</pathurl>
							<rate>
								<timebase>24</timebase>
								<ntsc>FALSE</ntsc>
							</rate>
							<duration>184</duration>
							<timecode>
								<rate>
									<timebase>24</timebase>
									<ntsc>FALSE</ntsc>
								</rate>
								<string>18:34:26:06</string>
								<frame>1604790</frame>
								<displayformat>NDF</displayformat>
							</timecode>
							<media>
								<video>
									<samplecharacteristics>
										<rate>
											<timebase>24</timebase>
											<ntsc>FALSE</ntsc>
										</rate>
										<width>1920</width>
										<height>1080</height>
										<anamorphic>FALSE</anamorphic>
										<pixelaspectratio>square</pixelaspectratio>
										<fielddominance>none</fielddominance>
									</samplecharacteristics>
								</video>
								<audio>
									<samplecharacteristics>
										<depth>16</depth>
										<samplerate>48000</samplerate>
									</samplecharacteristics>
									<channelcount>2</channelcount>
								</audio>
							</media>
						</file>
						<filter>
							<effect>
								<name>Time Remap</name>
								<effectid>timeremap</effectid>
								<effectcategory>motion</effectcategory>
								<effecttype>motion</effecttype>
								<mediatype>video</mediatype>
								<parameter authoringApp="PremierePro">
									<parameterid>variablespeed</parameterid>
									<name>variablespeed</name>
									<valuemin>0</valuemin>
									<valuemax>1</valuemax>
									<value>0</value>
								</parameter>
								<parameter authoringApp="PremierePro">
									<parameterid>speed</parameterid>
									<name>speed</name>
									<valuemin>-100000</valuemin>
									<valuemax>100000</valuemax>
									<value>60</value>
								</parameter>
								<parameter authoringApp="PremierePro">
									<parameterid>reverse</parameterid>
									<name>reverse</name>
									<value>FALSE</value>
								</parameter>
								<parameter authoringApp="PremierePro">
									<parameterid>frameblending</parameterid>
									<name>frameblending</name>
									<value>FALSE</value>
								</parameter>
								<parameter authoringApp="PremierePro">
									<parameterid>graphdict</parameterid>
									<name>graphdict</name>
									<valuemin>0</valuemin>
									<valuemax>183</valuemax>
									<value>0</value>
									<keyframe>
										<when>0</when>
										<value>0</value>
										<speedvirtualkf>TRUE</speedvirtualkf>
										<speedkfstart>TRUE</speedkfstart>
									</keyframe>
									<keyframe>
										<when>90</when>
										<value>54</value>
										<speedvirtualkf>TRUE</speedvirtualkf>
										<speedkfin>TRUE</speedkfin>
									</keyframe>
									<keyframe>
										<when>141</when>
										<value>84</value>
										<speedvirtualkf>TRUE</speedvirtualkf>
										<speedkfout>TRUE</speedkfout>
									</keyframe>
									<keyframe>
										<when>306</when>
										<value>183</value>
										<speedvirtualkf>TRUE</speedvirtualkf>
										<speedkfend>TRUE</speedkfend>
									</keyframe>
									<interpolation>
										<name>FCPCurve</name>
									</interpolation>
								</parameter>
							</effect>
						</filter>
						<logginginfo>
							<description></description>
							<scene></scene>
							<shottake></shottake>
							<lognote></lognote>
							<good></good>
							<originalvideofilename></originalvideofilename>
							<originalaudiofilename></originalaudiofilename>
						</logginginfo>
						<colorinfo>
							<lut></lut>
							<lut1></lut1>
							<asc_sop></asc_sop>
							<asc_sat></asc_sat>
							<lut2></lut2>
						</colorinfo>
						<labels>
							<label2>Iris</label2>
						</labels>
					</clipitem>
					<clipitem id="clipitem-43">
						<masterclipid>masterclip-17</masterclipid>
						<name>A006_06192255_C248.mp4</name>
						<enabled>TRUE</enabled>
						<duration>389</duration>
						<rate>
							<timebase>24</timebase>
							<ntsc>FALSE</ntsc>
						</rate>
						<start>3398</start>
						<end>3438</end>
						<in>229</in>
						<out>269</out>
						<pproTicksIn>2423736000000</pproTicksIn>
						<pproTicksOut>2847096000000</pproTicksOut>
						<alphatype>none</alphatype>
						<file id="file-17"/>
						<logginginfo>
							<description></description>
							<scene></scene>
							<shottake></shottake>
							<lognote></lognote>
							<good></good>
							<originalvideofilename></originalvideofilename>
							<originalaudiofilename></originalaudiofilename>
						</logginginfo>
						<colorinfo>
							<lut></lut>
							<lut1></lut1>
							<asc_sop></asc_sop>
							<asc_sat></asc_sat>
							<lut2></lut2>
						</colorinfo>
						<labels>
							<label2>Iris</label2>
						</labels>
					</clipitem>
					<clipitem id="clipitem-44">
						<masterclipid>masterclip-15</masterclipid>
						<name>A006_06192251_C247.mp4</name>
						<enabled>TRUE</enabled>
						<duration>3563</duration>
						<rate>
							<timebase>24</timebase>
							<ntsc>FALSE</ntsc>
						</rate>
						<start>3438</start>
						<end>-1</end>
						<in>1626</in>
						<out>1743</out>
						<pproTicksIn>17209584000000</pproTicksIn>
						<pproTicksOut>18447912000000</pproTicksOut>
						<alphatype>none</alphatype>
						<file id="file-15"/>
						<logginginfo>
							<description></description>
							<scene></scene>
							<shottake></shottake>
							<lognote></lognote>
							<good></good>
							<originalvideofilename></originalvideofilename>
							<originalaudiofilename></originalaudiofilename>
						</logginginfo>
						<colorinfo>
							<lut></lut>
							<lut1></lut1>
							<asc_sop></asc_sop>
							<asc_sat></asc_sat>
							<lut2></lut2>
						</colorinfo>
						<labels>
							<label2>Iris</label2>
						</labels>
					</clipitem>
					<transitionitem>
						<start>3534</start>
						<end>3555</end>
						<alignment>end-black</alignment>
						<cutPointTicks>222264000000</cutPointTicks>
						<rate>
							<timebase>24</timebase>
							<ntsc>FALSE</ntsc>
						</rate>
						<effect>
							<name>Cross Dissolve</name>
							<effectid>Cross Dissolve</effectid>
							<effectcategory>Dissolve</effectcategory>
							<effecttype>transition</effecttype>
							<mediatype>video</mediatype>
							<wipecode>0</wipecode>
							<wipeaccuracy>100</wipeaccuracy>
							<startratio>0</startratio>
							<endratio>1</endratio>
							<reverse>FALSE</reverse>
						</effect>
					</transitionitem>
					<clipitem id="clipitem-45">
						<masterclipid>masterclip-19</masterclipid>
						<name>A006_06191855_C187.mp4</name>
						<enabled>TRUE</enabled>
						<duration>1238</duration>
						<rate>
							<timebase>24</timebase>
							<ntsc>FALSE</ntsc>
						</rate>
						<start>3585</start>
						<end>3677</end>
						<in>120</in>
						<out>212</out>
						<pproTicksIn>1270080000000</pproTicksIn>
						<pproTicksOut>2243808000000</pproTicksOut>
						<alphatype>none</alphatype>
						<pixelaspectratio>square</pixelaspectratio>
						<anamorphic>FALSE</anamorphic>
						<file id="file-19">
							<name>A006_06191855_C187.mp4</name>
							<pathurl>file://localhost/F%3a/bengaluru%20scenes/scene%2037A/A006_06191855_C187.mp4</pathurl>
							<rate>
								<timebase>24</timebase>
								<ntsc>FALSE</ntsc>
							</rate>
							<duration>1238</duration>
							<timecode>
								<rate>
									<timebase>24</timebase>
									<ntsc>FALSE</ntsc>
								</rate>
								<string>18:55:51:00</string>
								<frame>1635624</frame>
								<displayformat>NDF</displayformat>
							</timecode>
							<media>
								<video>
									<samplecharacteristics>
										<rate>
											<timebase>24</timebase>
											<ntsc>FALSE</ntsc>
										</rate>
										<width>1920</width>
										<height>1080</height>
										<anamorphic>FALSE</anamorphic>
										<pixelaspectratio>square</pixelaspectratio>
										<fielddominance>none</fielddominance>
									</samplecharacteristics>
								</video>
								<audio>
									<samplecharacteristics>
										<depth>16</depth>
										<samplerate>48000</samplerate>
									</samplecharacteristics>
									<channelcount>2</channelcount>
								</audio>
							</media>
						</file>
						<link>
							<linkclipref>clipitem-45</linkclipref>
							<mediatype>video</mediatype>
							<trackindex>1</trackindex>
							<clipindex>47</clipindex>
						</link>
						<link>
							<linkclipref>clipitem-487</linkclipref>
							<mediatype>audio</mediatype>
							<trackindex>1</trackindex>
							<clipindex>11</clipindex>
							<groupindex>1</groupindex>
						</link>
						<link>
							<linkclipref>clipitem-651</linkclipref>
							<mediatype>audio</mediatype>
							<trackindex>2</trackindex>
							<clipindex>11</clipindex>
							<groupindex>1</groupindex>
						</link>
						<logginginfo>
							<description></description>
							<scene></scene>
							<shottake></shottake>
							<lognote></lognote>
							<good></good>
							<originalvideofilename></originalvideofilename>
							<originalaudiofilename></originalaudiofilename>
						</logginginfo>
						<colorinfo>
							<lut></lut>
							<lut1></lut1>
							<asc_sop></asc_sop>
							<asc_sat></asc_sat>
							<lut2></lut2>
						</colorinfo>
						<labels>
							<label2>Iris</label2>
						</labels>
					</clipitem>
					<clipitem id="clipitem-46">
						<masterclipid>masterclip-20</masterclipid>
						<name>A006_06192131_C203.mp4</name>
						<enabled>TRUE</enabled>
						<duration>707</duration>
						<rate>
							<timebase>24</timebase>
							<ntsc>FALSE</ntsc>
						</rate>
						<start>3677</start>
						<end>3727</end>
						<in>53</in>
						<out>103</out>
						<pproTicksIn>560952000000</pproTicksIn>
						<pproTicksOut>1090152000000</pproTicksOut>
						<alphatype>none</alphatype>
						<pixelaspectratio>square</pixelaspectratio>
						<anamorphic>FALSE</anamorphic>
						<file id="file-20">
							<name>A006_06192131_C203.mp4</name>
							<pathurl>file://localhost/F%3a/bengaluru%20scenes/scene%2037A/A006_06192131_C203.mp4</pathurl>
							<rate>
								<timebase>24</timebase>
								<ntsc>FALSE</ntsc>
							</rate>
							<duration>707</duration>
							<timecode>
								<rate>
									<timebase>24</timebase>
									<ntsc>FALSE</ntsc>
								</rate>
								<string>21:31:23:06</string>
								<frame>1859598</frame>
								<displayformat>NDF</displayformat>
							</timecode>
							<media>
								<video>
									<samplecharacteristics>
										<rate>
											<timebase>24</timebase>
											<ntsc>FALSE</ntsc>
										</rate>
										<width>1920</width>
										<height>1080</height>
										<anamorphic>FALSE</anamorphic>
										<pixelaspectratio>square</pixelaspectratio>
										<fielddominance>none</fielddominance>
									</samplecharacteristics>
								</video>
								<audio>
									<samplecharacteristics>
										<depth>16</depth>
										<samplerate>48000</samplerate>
									</samplecharacteristics>
									<channelcount>2</channelcount>
								</audio>
							</media>
						</file>
						<filter>
							<effect>
								<name>Basic Motion</name>
								<effectid>basic</effectid>
								<effectcategory>motion</effectcategory>
								<effecttype>motion</effecttype>
								<mediatype>video</mediatype>
								<pproBypass>false</pproBypass>
								<parameter authoringApp="PremierePro">
									<parameterid>scale</parameterid>
									<name>Scale</name>
									<valuemin>0</valuemin>
									<valuemax>1000</valuemax>
									<value>110</value>
								</parameter>
								<parameter authoringApp="PremierePro">
									<parameterid>rotation</parameterid>
									<name>Rotation</name>
									<valuemin>-8640</valuemin>
									<valuemax>8640</valuemax>
									<value>0</value>
								</parameter>
								<parameter authoringApp="PremierePro">
									<parameterid>center</parameterid>
									<name>Center</name>
									<value>
										<horiz>0.00260419</horiz>
										<vert>0.111111</vert>
									</value>
								</parameter>
								<parameter authoringApp="PremierePro">
									<parameterid>centerOffset</parameterid>
									<name>Anchor Point</name>
									<value>
										<horiz>0</horiz>
										<vert>0</vert>
									</value>
								</parameter>
								<parameter authoringApp="PremierePro">
									<parameterid>antiflicker</parameterid>
									<name>Anti-flicker Filter</name>
									<valuemin>0.0</valuemin>
									<valuemax>1.0</valuemax>
									<value>0</value>
								</parameter>
							</effect>
						</filter>
						<link>
							<linkclipref>clipitem-46</linkclipref>
							<mediatype>video</mediatype>
							<trackindex>1</trackindex>
							<clipindex>48</clipindex>
						</link>
						<link>
							<linkclipref>clipitem-488</linkclipref>
							<mediatype>audio</mediatype>
							<trackindex>1</trackindex>
							<clipindex>12</clipindex>
							<groupindex>1</groupindex>
						</link>
						<link>
							<linkclipref>clipitem-652</linkclipref>
							<mediatype>audio</mediatype>
							<trackindex>2</trackindex>
							<clipindex>12</clipindex>
							<groupindex>1</groupindex>
						</link>
						<logginginfo>
							<description></description>
							<scene></scene>
							<shottake></shottake>
							<lognote></lognote>
							<good></good>
							<originalvideofilename></originalvideofilename>
							<originalaudiofilename></originalaudiofilename>
						</logginginfo>
						<colorinfo>
							<lut></lut>
							<lut1></lut1>
							<asc_sop></asc_sop>
							<asc_sat></asc_sat>
							<lut2></lut2>
						</colorinfo>
						<labels>
							<label2>Iris</label2>
						</labels>
					</clipitem>
					<clipitem id="clipitem-47">
						<masterclipid>masterclip-21</masterclipid>
						<name>A006_06192138_C206.mp4</name>
						<enabled>TRUE</enabled>
						<duration>3995</duration>
						<rate>
							<timebase>24</timebase>
							<ntsc>FALSE</ntsc>
						</rate>
						<start>3727</start>
						<end>3795</end>
						<in>220</in>
						<out>288</out>
						<pproTicksIn>2328480000000</pproTicksIn>
						<pproTicksOut>3048192000000</pproTicksOut>
						<alphatype>none</alphatype>
						<pixelaspectratio>square</pixelaspectratio>
						<anamorphic>FALSE</anamorphic>
						<file id="file-21">
							<name>A006_06192138_C206.mp4</name>
							<pathurl>file://localhost/F%3a/bengaluru%20scenes/scene%2037A/A006_06192138_C206.mp4</pathurl>
							<rate>
								<timebase>24</timebase>
								<ntsc>FALSE</ntsc>
							</rate>
							<duration>3995</duration>
							<timecode>
								<rate>
									<timebase>24</timebase>
									<ntsc>FALSE</ntsc>
								</rate>
								<string>21:38:52:05</string>
								<frame>1870373</frame>
								<displayformat>NDF</displayformat>
							</timecode>
							<media>
								<video>
									<samplecharacteristics>
										<rate>
											<timebase>24</timebase>
											<ntsc>FALSE</ntsc>
										</rate>
										<width>1920</width>
										<height>1080</height>
										<anamorphic>FALSE</anamorphic>
										<pixelaspectratio>square</pixelaspectratio>
										<fielddominance>none</fielddominance>
									</samplecharacteristics>
								</video>
								<audio>
									<samplecharacteristics>
										<depth>16</depth>
										<samplerate>48000</samplerate>
									</samplecharacteristics>
									<channelcount>2</channelcount>
								</audio>
							</media>
						</file>
						<link>
							<linkclipref>clipitem-47</linkclipref>
							<mediatype>video</mediatype>
							<trackindex>1</trackindex>
							<clipindex>49</clipindex>
						</link>
						<link>
							<linkclipref>clipitem-489</linkclipref>
							<mediatype>audio</mediatype>
							<trackindex>1</trackindex>
							<clipindex>13</clipindex>
							<groupindex>1</groupindex>
						</link>
						<link>
							<linkclipref>clipitem-653</linkclipref>
							<mediatype>audio</mediatype>
							<trackindex>2</trackindex>
							<clipindex>13</clipindex>
							<groupindex>1</groupindex>
						</link>
						<logginginfo>
							<description></description>
							<scene></scene>
							<shottake></shottake>
							<lognote></lognote>
							<good></good>
							<originalvideofilename></originalvideofilename>
							<originalaudiofilename></originalaudiofilename>
						</logginginfo>
						<colorinfo>
							<lut></lut>
							<lut1></lut1>
							<asc_sop></asc_sop>
							<asc_sat></asc_sat>
							<lut2></lut2>
						</colorinfo>
						<labels>
							<label2>Iris</label2>
						</labels>
					</clipitem>
					<clipitem id="clipitem-48">
						<masterclipid>masterclip-22</masterclipid>
						<name>A006_06192120_C197.mp4</name>
						<enabled>TRUE</enabled>
						<duration>988</duration>
						<rate>
							<timebase>24</timebase>
							<ntsc>FALSE</ntsc>
						</rate>
						<start>3795</start>
						<end>3925</end>
						<in>122</in>
						<out>252</out>
						<pproTicksIn>1291248000000</pproTicksIn>
						<pproTicksOut>2667168000000</pproTicksOut>
						<alphatype>none</alphatype>
						<pixelaspectratio>square</pixelaspectratio>
						<anamorphic>FALSE</anamorphic>
						<file id="file-22">
							<name>A006_06192120_C197.mp4</name>
							<pathurl>file://localhost/F%3a/bengaluru%20scenes/scene%2037A/A006_06192120_C197.mp4</pathurl>
							<rate>
								<timebase>24</timebase>
								<ntsc>FALSE</ntsc>
							</rate>
							<duration>988</duration>
							<timecode>
								<rate>
									<timebase>24</timebase>
									<ntsc>FALSE</ntsc>
								</rate>
								<string>21:20:02:19</string>
								<frame>1843267</frame>
								<displayformat>NDF</displayformat>
							</timecode>
							<media>
								<video>
									<samplecharacteristics>
										<rate>
											<timebase>24</timebase>
											<ntsc>FALSE</ntsc>
										</rate>
										<width>1920</width>
										<height>1080</height>
										<anamorphic>FALSE</anamorphic>
										<pixelaspectratio>square</pixelaspectratio>
										<fielddominance>none</fielddominance>
									</samplecharacteristics>
								</video>
								<audio>
									<samplecharacteristics>
										<depth>16</depth>
										<samplerate>48000</samplerate>
									</samplecharacteristics>
									<channelcount>2</channelcount>
								</audio>
							</media>
						</file>
						<link>
							<linkclipref>clipitem-48</linkclipref>
							<mediatype>video</mediatype>
							<trackindex>1</trackindex>
							<clipindex>50</clipindex>
						</link>
						<link>
							<linkclipref>clipitem-490</linkclipref>
							<mediatype>audio</mediatype>
							<trackindex>1</trackindex>
							<clipindex>14</clipindex>
							<groupindex>1</groupindex>
						</link>
						<link>
							<linkclipref>clipitem-654</linkclipref>
							<mediatype>audio</mediatype>
							<trackindex>2</trackindex>
							<clipindex>14</clipindex>
							<groupindex>1</groupindex>
						</link>
						<logginginfo>
							<description></description>
							<scene></scene>
							<shottake></shottake>
							<lognote></lognote>
							<good></good>
							<originalvideofilename></originalvideofilename>
							<originalaudiofilename></originalaudiofilename>
						</logginginfo>
						<colorinfo>
							<lut></lut>
							<lut1></lut1>
							<asc_sop></asc_sop>
							<asc_sat></asc_sat>
							<lut2></lut2>
						</colorinfo>
						<labels>
							<label2>Iris</label2>
						</labels>
					</clipitem>
					<clipitem id="clipitem-49">
						<masterclipid>masterclip-22</masterclipid>
						<name>A006_06192120_C197.mp4</name>
						<enabled>TRUE</enabled>
						<duration>988</duration>
						<rate>
							<timebase>24</timebase>
							<ntsc>FALSE</ntsc>
						</rate>
						<start>3925</start>
						<end>4103</end>
						<in>252</in>
						<out>430</out>
						<pproTicksIn>2667168000000</pproTicksIn>
						<pproTicksOut>4551120000000</pproTicksOut>
						<alphatype>none</alphatype>
						<file id="file-22"/>
						<logginginfo>
							<description></description>
							<scene></scene>
							<shottake></shottake>
							<lognote></lognote>
							<good></good>
							<originalvideofilename></originalvideofilename>
							<originalaudiofilename></originalaudiofilename>
						</logginginfo>
						<colorinfo>
							<lut></lut>
							<lut1></lut1>
							<asc_sop></asc_sop>
							<asc_sat></asc_sat>
							<lut2></lut2>
						</colorinfo>
						<labels>
							<label2>Iris</label2>
						</labels>
					</clipitem>
					<clipitem id="clipitem-50">
						<masterclipid>masterclip-22</masterclipid>
						<name>A006_06192120_C197.mp4</name>
						<enabled>TRUE</enabled>
						<duration>988</duration>
						<rate>
							<timebase>24</timebase>
							<ntsc>FALSE</ntsc>
						</rate>
						<start>4103</start>
						<end>4285</end>
						<in>430</in>
						<out>612</out>
						<pproTicksIn>4551120000000</pproTicksIn>
						<pproTicksOut>6477408000000</pproTicksOut>
						<alphatype>none</alphatype>
						<file id="file-22"/>
						<link>
							<linkclipref>clipitem-50</linkclipref>
							<mediatype>video</mediatype>
							<trackindex>1</trackindex>
							<clipindex>52</clipindex>
						</link>
						<link>
							<linkclipref>clipitem-492</linkclipref>
							<mediatype>audio</mediatype>
							<trackindex>1</trackindex>
							<clipindex>16</clipindex>
							<groupindex>1</groupindex>
						</link>
						<link>
							<linkclipref>clipitem-656</linkclipref>
							<mediatype>audio</mediatype>
							<trackindex>2</trackindex>
							<clipindex>16</clipindex>
							<groupindex>1</groupindex>
						</link>
						<logginginfo>
							<description></description>
							<scene></scene>
							<shottake></shottake>
							<lognote></lognote>
							<good></good>
							<originalvideofilename></originalvideofilename>
							<originalaudiofilename></originalaudiofilename>
						</logginginfo>
						<colorinfo>
							<lut></lut>
							<lut1></lut1>
							<asc_sop></asc_sop>
							<asc_sat></asc_sat>
							<lut2></lut2>
						</colorinfo>
						<labels>
							<label2>Iris</label2>
						</labels>
					</clipitem>
					<clipitem id="clipitem-51">
						<masterclipid>masterclip-23</masterclipid>
						<name>A006_06192126_C199.mp4</name>
						<enabled>TRUE</enabled>
						<duration>922</duration>
						<rate>
							<timebase>24</timebase>
							<ntsc>FALSE</ntsc>
						</rate>
						<start>4285</start>
						<end>4351</end>
						<in>688</in>
						<out>754</out>
						<pproTicksIn>7281792000000</pproTicksIn>
						<pproTicksOut>7980336000000</pproTicksOut>
						<alphatype>none</alphatype>
						<pixelaspectratio>square</pixelaspectratio>
						<anamorphic>FALSE</anamorphic>
						<file id="file-23">
							<name>A006_06192126_C199.mp4</name>
							<pathurl>file://localhost/F%3a/bengaluru%20scenes/scene%2037A/A006_06192126_C199.mp4</pathurl>
							<rate>
								<timebase>24</timebase>
								<ntsc>FALSE</ntsc>
							</rate>
							<duration>922</duration>
							<timecode>
								<rate>
									<timebase>24</timebase>
									<ntsc>FALSE</ntsc>
								</rate>
								<string>21:26:26:18</string>
								<frame>1852482</frame>
								<displayformat>NDF</displayformat>
							</timecode>
							<media>
								<video>
									<samplecharacteristics>
										<rate>
											<timebase>24</timebase>
											<ntsc>FALSE</ntsc>
										</rate>
										<width>1920</width>
										<height>1080</height>
										<anamorphic>FALSE</anamorphic>
										<pixelaspectratio>square</pixelaspectratio>
										<fielddominance>none</fielddominance>
									</samplecharacteristics>
								</video>
								<audio>
									<samplecharacteristics>
										<depth>16</depth>
										<samplerate>48000</samplerate>
									</samplecharacteristics>
									<channelcount>2</channelcount>
								</audio>
							</media>
						</file>
						<link>
							<linkclipref>clipitem-51</linkclipref>
							<mediatype>video</mediatype>
							<trackindex>1</trackindex>
							<clipindex>53</clipindex>
						</link>
						<link>
							<linkclipref>clipitem-493</linkclipref>
							<mediatype>audio</mediatype>
							<trackindex>1</trackindex>
							<clipindex>17</clipindex>
							<groupindex>1</groupindex>
						</link>
						<link>
							<linkclipref>clipitem-657</linkclipref>
							<mediatype>audio</mediatype>
							<trackindex>2</trackindex>
							<clipindex>17</clipindex>
							<groupindex>1</groupindex>
						</link>
						<logginginfo>
							<description></description>
							<scene></scene>
							<shottake></shottake>
							<lognote></lognote>
							<good></good>
							<originalvideofilename></originalvideofilename>
							<originalaudiofilename></originalaudiofilename>
						</logginginfo>
						<colorinfo>
							<lut></lut>
							<lut1></lut1>
							<asc_sop></asc_sop>
							<asc_sat></asc_sat>
							<lut2></lut2>
						</colorinfo>
						<labels>
							<label2>Iris</label2>
						</labels>
					</clipitem>
					<clipitem id="clipitem-52">
						<masterclipid>masterclip-24</masterclipid>
						<name>A006_06192132_C204.mp4</name>
						<enabled>TRUE</enabled>
						<duration>526</duration>
						<rate>
							<timebase>24</timebase>
							<ntsc>FALSE</ntsc>
						</rate>
						<start>4351</start>
						<end>4438</end>
						<in>234</in>
						<out>321</out>
						<pproTicksIn>2476656000000</pproTicksIn>
						<pproTicksOut>3397464000000</pproTicksOut>
						<alphatype>none</alphatype>
						<pixelaspectratio>square</pixelaspectratio>
						<anamorphic>FALSE</anamorphic>
						<file id="file-24">
							<name>A006_06192132_C204.mp4</name>
							<pathurl>file://localhost/F%3a/bengaluru%20scenes/scene%2037A/A006_06192132_C204.mp4</pathurl>
							<rate>
								<timebase>24</timebase>
								<ntsc>FALSE</ntsc>
							</rate>
							<duration>526</duration>
							<timecode>
								<rate>
									<timebase>24</timebase>
									<ntsc>FALSE</ntsc>
								</rate>
								<string>21:32:23:05</string>
								<frame>1861037</frame>
								<displayformat>NDF</displayformat>
							</timecode>
							<media>
								<video>
									<samplecharacteristics>
										<rate>
											<timebase>24</timebase>
											<ntsc>FALSE</ntsc>
										</rate>
										<width>1920</width>
										<height>1080</height>
										<anamorphic>FALSE</anamorphic>
										<pixelaspectratio>square</pixelaspectratio>
										<fielddominance>none</fielddominance>
									</samplecharacteristics>
								</video>
								<audio>
									<samplecharacteristics>
										<depth>16</depth>
										<samplerate>48000</samplerate>
									</samplecharacteristics>
									<channelcount>2</channelcount>
								</audio>
							</media>
						</file>
						<link>
							<linkclipref>clipitem-52</linkclipref>
							<mediatype>video</mediatype>
							<trackindex>1</trackindex>
							<clipindex>54</clipindex>
						</link>
						<link>
							<linkclipref>clipitem-494</linkclipref>
							<mediatype>audio</mediatype>
							<trackindex>1</trackindex>
							<clipindex>18</clipindex>
							<groupindex>1</groupindex>
						</link>
						<link>
							<linkclipref>clipitem-658</linkclipref>
							<mediatype>audio</mediatype>
							<trackindex>2</trackindex>
							<clipindex>18</clipindex>
							<groupindex>1</groupindex>
						</link>
						<logginginfo>
							<description></description>
							<scene></scene>
							<shottake></shottake>
							<lognote></lognote>
							<good></good>
							<originalvideofilename></originalvideofilename>
							<originalaudiofilename></originalaudiofilename>
						</logginginfo>
						<colorinfo>
							<lut></lut>
							<lut1></lut1>
							<asc_sop></asc_sop>
							<asc_sat></asc_sat>
							<lut2></lut2>
						</colorinfo>
						<labels>
							<label2>Iris</label2>
						</labels>
					</clipitem>
					<clipitem id="clipitem-53">
						<masterclipid>masterclip-21</masterclipid>
						<name>A006_06192138_C206.mp4</name>
						<enabled>TRUE</enabled>
						<duration>3995</duration>
						<rate>
							<timebase>24</timebase>
							<ntsc>FALSE</ntsc>
						</rate>
						<start>4438</start>
						<end>4761</end>
						<in>1031</in>
						<out>1354</out>
						<pproTicksIn>10912104000000</pproTicksIn>
						<pproTicksOut>14330736000000</pproTicksOut>
						<alphatype>none</alphatype>
						<file id="file-21"/>
						<link>
							<linkclipref>clipitem-53</linkclipref>
							<mediatype>video</mediatype>
							<trackindex>1</trackindex>
							<clipindex>55</clipindex>
						</link>
						<link>
							<linkclipref>clipitem-495</linkclipref>
							<mediatype>audio</mediatype>
							<trackindex>1</trackindex>
							<clipindex>19</clipindex>
							<groupindex>1</groupindex>
						</link>
						<link>
							<linkclipref>clipitem-659</linkclipref>
							<mediatype>audio</mediatype>
							<trackindex>2</trackindex>
							<clipindex>19</clipindex>
							<groupindex>1</groupindex>
						</link>
						<logginginfo>
							<description></description>
							<scene></scene>
							<shottake></shottake>
							<lognote></lognote>
							<good></good>
							<originalvideofilename></originalvideofilename>
							<originalaudiofilename></originalaudiofilename>
						</logginginfo>
						<colorinfo>
							<lut></lut>
							<lut1></lut1>
							<asc_sop></asc_sop>
							<asc_sat></asc_sat>
							<lut2></lut2>
						</colorinfo>
						<labels>
							<label2>Iris</label2>
						</labels>
					</clipitem>
					<clipitem id="clipitem-54">
						<masterclipid>masterclip-25</masterclipid>
						<name>A006_06192211_C220.mp4</name>
						<enabled>TRUE</enabled>
						<duration>1671</duration>
						<rate>
							<timebase>24</timebase>
							<ntsc>FALSE</ntsc>
						</rate>
						<start>4761</start>
						<end>4800</end>
						<in>46</in>
						<out>85</out>
						<pproTicksIn>486864000000</pproTicksIn>
						<pproTicksOut>899640000000</pproTicksOut>
						<alphatype>none</alphatype>
						<pixelaspectratio>square</pixelaspectratio>
						<anamorphic>FALSE</anamorphic>
						<file id="file-25">
							<name>A006_06192211_C220.mp4</name>
							<pathurl>file://localhost/F%3a/bengaluru%20scenes/scene%2037A/A006_06192211_C220.mp4</pathurl>
							<rate>
								<timebase>24</timebase>
								<ntsc>FALSE</ntsc>
							</rate>
							<duration>1671</duration>
							<timecode>
								<rate>
									<timebase>24</timebase>
									<ntsc>FALSE</ntsc>
								</rate>
								<string>22:11:14:03</string>
								<frame>1916979</frame>
								<displayformat>NDF</displayformat>
							</timecode>
							<media>
								<video>
									<samplecharacteristics>
										<rate>
											<timebase>24</timebase>
											<ntsc>FALSE</ntsc>
										</rate>
										<width>1920</width>
										<height>1080</height>
										<anamorphic>FALSE</anamorphic>
										<pixelaspectratio>square</pixelaspectratio>
										<fielddominance>none</fielddominance>
									</samplecharacteristics>
								</video>
								<audio>
									<samplecharacteristics>
										<depth>16</depth>
										<samplerate>48000</samplerate>
									</samplecharacteristics>
									<channelcount>2</channelcount>
								</audio>
							</media>
						</file>
						<link>
							<linkclipref>clipitem-54</linkclipref>
							<mediatype>video</mediatype>
							<trackindex>1</trackindex>
							<clipindex>56</clipindex>
						</link>
						<link>
							<linkclipref>clipitem-496</linkclipref>
							<mediatype>audio</mediatype>
							<trackindex>1</trackindex>
							<clipindex>20</clipindex>
							<groupindex>1</groupindex>
						</link>
						<link>
							<linkclipref>clipitem-660</linkclipref>
							<mediatype>audio</mediatype>
							<trackindex>2</trackindex>
							<clipindex>20</clipindex>
							<groupindex>1</groupindex>
						</link>
						<logginginfo>
							<description></description>
							<scene></scene>
							<shottake></shottake>
							<lognote></lognote>
							<good></good>
							<originalvideofilename></originalvideofilename>
							<originalaudiofilename></originalaudiofilename>
						</logginginfo>
						<colorinfo>
							<lut></lut>
							<lut1></lut1>
							<asc_sop></asc_sop>
							<asc_sat></asc_sat>
							<lut2></lut2>
						</colorinfo>
						<labels>
							<label2>Iris</label2>
						</labels>
					</clipitem>
					<clipitem id="clipitem-55">
						<masterclipid>masterclip-26</masterclipid>
						<name>A006_06192148_C207.mp4</name>
						<enabled>TRUE</enabled>
						<duration>2744</duration>
						<rate>
							<timebase>24</timebase>
							<ntsc>FALSE</ntsc>
						</rate>
						<start>4800</start>
						<end>4948</end>
						<in>358</in>
						<out>506</out>
						<pproTicksIn>3789072000000</pproTicksIn>
						<pproTicksOut>5355504000000</pproTicksOut>
						<alphatype>none</alphatype>
						<pixelaspectratio>square</pixelaspectratio>
						<anamorphic>FALSE</anamorphic>
						<file id="file-26">
							<name>A006_06192148_C207.mp4</name>
							<pathurl>file://localhost/F%3a/bengaluru%20scenes/scene%2037A/A006_06192148_C207.mp4</pathurl>
							<rate>
								<timebase>24</timebase>
								<ntsc>FALSE</ntsc>
							</rate>
							<duration>2744</duration>
							<timecode>
								<rate>
									<timebase>24</timebase>
									<ntsc>FALSE</ntsc>
								</rate>
								<string>21:48:15:23</string>
								<frame>1883903</frame>
								<displayformat>NDF</displayformat>
							</timecode>
							<media>
								<video>
									<samplecharacteristics>
										<rate>
											<timebase>24</timebase>
											<ntsc>FALSE</ntsc>
										</rate>
										<width>1920</width>
										<height>1080</height>
										<anamorphic>FALSE</anamorphic>
										<pixelaspectratio>square</pixelaspectratio>
										<fielddominance>none</fielddominance>
									</samplecharacteristics>
								</video>
								<audio>
									<samplecharacteristics>
										<depth>16</depth>
										<samplerate>48000</samplerate>
									</samplecharacteristics>
									<channelcount>2</channelcount>
								</audio>
							</media>
						</file>
						<link>
							<linkclipref>clipitem-55</linkclipref>
							<mediatype>video</mediatype>
							<trackindex>1</trackindex>
							<clipindex>57</clipindex>
						</link>
						<link>
							<linkclipref>clipitem-497</linkclipref>
							<mediatype>audio</mediatype>
							<trackindex>1</trackindex>
							<clipindex>21</clipindex>
							<groupindex>1</groupindex>
						</link>
						<link>
							<linkclipref>clipitem-661</linkclipref>
							<mediatype>audio</mediatype>
							<trackindex>2</trackindex>
							<clipindex>21</clipindex>
							<groupindex>1</groupindex>
						</link>
						<logginginfo>
							<description></description>
							<scene></scene>
							<shottake></shottake>
							<lognote></lognote>
							<good></good>
							<originalvideofilename></originalvideofilename>
							<originalaudiofilename></originalaudiofilename>
						</logginginfo>
						<colorinfo>
							<lut></lut>
							<lut1></lut1>
							<asc_sop></asc_sop>
							<asc_sat></asc_sat>
							<lut2></lut2>
						</colorinfo>
						<labels>
							<label2>Iris</label2>
						</labels>
					</clipitem>
					<clipitem id="clipitem-56">
						<masterclipid>masterclip-26</masterclipid>
						<name>A006_06192148_C207.mp4</name>
						<enabled>TRUE</enabled>
						<duration>2744</duration>
						<rate>
							<timebase>24</timebase>
							<ntsc>FALSE</ntsc>
						</rate>
						<start>4948</start>
						<end>4989</end>
						<in>506</in>
						<out>547</out>
						<pproTicksIn>5355504000000</pproTicksIn>
						<pproTicksOut>5789448000000</pproTicksOut>
						<alphatype>none</alphatype>
						<file id="file-26"/>
						<link>
							<linkclipref>clipitem-56</linkclipref>
							<mediatype>video</mediatype>
							<trackindex>1</trackindex>
							<clipindex>58</clipindex>
						</link>
						<link>
							<linkclipref>clipitem-498</linkclipref>
							<mediatype>audio</mediatype>
							<trackindex>1</trackindex>
							<clipindex>22</clipindex>
							<groupindex>1</groupindex>
						</link>
						<link>
							<linkclipref>clipitem-662</linkclipref>
							<mediatype>audio</mediatype>
							<trackindex>2</trackindex>
							<clipindex>22</clipindex>
							<groupindex>1</groupindex>
						</link>
						<logginginfo>
							<description></description>
							<scene></scene>
							<shottake></shottake>
							<lognote></lognote>
							<good></good>
							<originalvideofilename></originalvideofilename>
							<originalaudiofilename></originalaudiofilename>
						</logginginfo>
						<colorinfo>
							<lut></lut>
							<lut1></lut1>
							<asc_sop></asc_sop>
							<asc_sat></asc_sat>
							<lut2></lut2>
						</colorinfo>
						<labels>
							<label2>Iris</label2>
						</labels>
					</clipitem>
					<clipitem id="clipitem-57">
						<masterclipid>masterclip-25</masterclipid>
						<name>A006_06192211_C220.mp4</name>
						<enabled>TRUE</enabled>
						<duration>1671</duration>
						<rate>
							<timebase>24</timebase>
							<ntsc>FALSE</ntsc>
						</rate>
						<start>4989</start>
						<end>5081</end>
						<in>157</in>
						<out>249</out>
						<pproTicksIn>1661688000000</pproTicksIn>
						<pproTicksOut>2635416000000</pproTicksOut>
						<alphatype>none</alphatype>
						<file id="file-25"/>
						<link>
							<linkclipref>clipitem-57</linkclipref>
							<mediatype>video</mediatype>
							<trackindex>1</trackindex>
							<clipindex>59</clipindex>
						</link>
						<link>
							<linkclipref>clipitem-499</linkclipref>
							<mediatype>audio</mediatype>
							<trackindex>1</trackindex>
							<clipindex>23</clipindex>
							<groupindex>1</groupindex>
						</link>
						<link>
							<linkclipref>clipitem-663</linkclipref>
							<mediatype>audio</mediatype>
							<trackindex>2</trackindex>
							<clipindex>23</clipindex>
							<groupindex>1</groupindex>
						</link>
						<logginginfo>
							<description></description>
							<scene></scene>
							<shottake></shottake>
							<lognote></lognote>
							<good></good>
							<originalvideofilename></originalvideofilename>
							<originalaudiofilename></originalaudiofilename>
						</logginginfo>
						<colorinfo>
							<lut></lut>
							<lut1></lut1>
							<asc_sop></asc_sop>
							<asc_sat></asc_sat>
							<lut2></lut2>
						</colorinfo>
						<labels>
							<label2>Iris</label2>
						</labels>
					</clipitem>
					<clipitem id="clipitem-58">
						<masterclipid>masterclip-27</masterclipid>
						<name>A006_06192156_C209.mp4</name>
						<enabled>TRUE</enabled>
						<duration>2522</duration>
						<rate>
							<timebase>24</timebase>
							<ntsc>FALSE</ntsc>
						</rate>
						<start>5081</start>
						<end>5157</end>
						<in>632</in>
						<out>708</out>
						<pproTicksIn>6689088000000</pproTicksIn>
						<pproTicksOut>7493472000000</pproTicksOut>
						<alphatype>none</alphatype>
						<pixelaspectratio>square</pixelaspectratio>
						<anamorphic>FALSE</anamorphic>
						<file id="file-27">
							<name>A006_06192156_C209.mp4</name>
							<pathurl>file://localhost/F%3a/bengaluru%20scenes/scene%2037A/A006_06192156_C209.mp4</pathurl>
							<rate>
								<timebase>24</timebase>
								<ntsc>FALSE</ntsc>
							</rate>
							<duration>2522</duration>
							<timecode>
								<rate>
									<timebase>24</timebase>
									<ntsc>FALSE</ntsc>
								</rate>
								<string>21:56:38:20</string>
								<frame>1895972</frame>
								<displayformat>NDF</displayformat>
							</timecode>
							<media>
								<video>
									<samplecharacteristics>
										<rate>
											<timebase>24</timebase>
											<ntsc>FALSE</ntsc>
										</rate>
										<width>1920</width>
										<height>1080</height>
										<anamorphic>FALSE</anamorphic>
										<pixelaspectratio>square</pixelaspectratio>
										<fielddominance>none</fielddominance>
									</samplecharacteristics>
								</video>
								<audio>
									<samplecharacteristics>
										<depth>16</depth>
										<samplerate>48000</samplerate>
									</samplecharacteristics>
									<channelcount>2</channelcount>
								</audio>
							</media>
						</file>
						<link>
							<linkclipref>clipitem-58</linkclipref>
							<mediatype>video</mediatype>
							<trackindex>1</trackindex>
							<clipindex>60</clipindex>
						</link>
						<link>
							<linkclipref>clipitem-500</linkclipref>
							<mediatype>audio</mediatype>
							<trackindex>1</trackindex>
							<clipindex>24</clipindex>
							<groupindex>1</groupindex>
						</link>
						<link>
							<linkclipref>clipitem-664</linkclipref>
							<mediatype>audio</mediatype>
							<trackindex>2</trackindex>
							<clipindex>24</clipindex>
							<groupindex>1</groupindex>
						</link>
						<logginginfo>
							<description></description>
							<scene></scene>
							<shottake></shottake>
							<lognote></lognote>
							<good></good>
							<originalvideofilename></originalvideofilename>
							<originalaudiofilename></originalaudiofilename>
						</logginginfo>
						<colorinfo>
							<lut></lut>
							<lut1></lut1>
							<asc_sop></asc_sop>
							<asc_sat></asc_sat>
							<lut2></lut2>
						</colorinfo>
						<labels>
							<label2>Iris</label2>
						</labels>
					</clipitem>
					<clipitem id="clipitem-59">
						<masterclipid>masterclip-26</masterclipid>
						<name>A006_06192148_C207.mp4</name>
						<enabled>TRUE</enabled>
						<duration>2744</duration>
						<rate>
							<timebase>24</timebase>
							<ntsc>FALSE</ntsc>
						</rate>
						<start>5157</start>
						<end>5262</end>
						<in>819</in>
						<out>924</out>
						<pproTicksIn>8668296000000</pproTicksIn>
						<pproTicksOut>9779616000000</pproTicksOut>
						<alphatype>none</alphatype>
						<file id="file-26"/>
						<link>
							<linkclipref>clipitem-59</linkclipref>
							<mediatype>video</mediatype>
							<trackindex>1</trackindex>
							<clipindex>61</clipindex>
						</link>
						<link>
							<linkclipref>clipitem-501</linkclipref>
							<mediatype>audio</mediatype>
							<trackindex>1</trackindex>
							<clipindex>25</clipindex>
							<groupindex>1</groupindex>
						</link>
						<link>
							<linkclipref>clipitem-665</linkclipref>
							<mediatype>audio</mediatype>
							<trackindex>2</trackindex>
							<clipindex>25</clipindex>
							<groupindex>1</groupindex>
						</link>
						<logginginfo>
							<description></description>
							<scene></scene>
							<shottake></shottake>
							<lognote></lognote>
							<good></good>
							<originalvideofilename></originalvideofilename>
							<originalaudiofilename></originalaudiofilename>
						</logginginfo>
						<colorinfo>
							<lut></lut>
							<lut1></lut1>
							<asc_sop></asc_sop>
							<asc_sat></asc_sat>
							<lut2></lut2>
						</colorinfo>
						<labels>
							<label2>Iris</label2>
						</labels>
					</clipitem>
					<clipitem id="clipitem-60">
						<masterclipid>masterclip-27</masterclipid>
						<name>A006_06192156_C209.mp4</name>
						<enabled>TRUE</enabled>
						<duration>2522</duration>
						<rate>
							<timebase>24</timebase>
							<ntsc>FALSE</ntsc>
						</rate>
						<start>5262</start>
						<end>5411</end>
						<in>850</in>
						<out>999</out>
						<pproTicksIn>8996400000000</pproTicksIn>
						<pproTicksOut>10573416000000</pproTicksOut>
						<alphatype>none</alphatype>
						<file id="file-27"/>
						<link>
							<linkclipref>clipitem-60</linkclipref>
							<mediatype>video</mediatype>
							<trackindex>1</trackindex>
							<clipindex>62</clipindex>
						</link>
						<link>
							<linkclipref>clipitem-502</linkclipref>
							<mediatype>audio</mediatype>
							<trackindex>1</trackindex>
							<clipindex>26</clipindex>
							<groupindex>1</groupindex>
						</link>
						<link>
							<linkclipref>clipitem-666</linkclipref>
							<mediatype>audio</mediatype>
							<trackindex>2</trackindex>
							<clipindex>26</clipindex>
							<groupindex>1</groupindex>
						</link>
						<logginginfo>
							<description></description>
							<scene></scene>
							<shottake></shottake>
							<lognote></lognote>
							<good></good>
							<originalvideofilename></originalvideofilename>
							<originalaudiofilename></originalaudiofilename>
						</logginginfo>
						<colorinfo>
							<lut></lut>
							<lut1></lut1>
							<asc_sop></asc_sop>
							<asc_sat></asc_sat>
							<lut2></lut2>
						</colorinfo>
						<labels>
							<label2>Iris</label2>
						</labels>
					</clipitem>
					<clipitem id="clipitem-61">
						<masterclipid>masterclip-25</masterclipid>
						<name>A006_06192211_C220.mp4</name>
						<enabled>TRUE</enabled>
						<duration>1671</duration>
						<rate>
							<timebase>24</timebase>
							<ntsc>FALSE</ntsc>
						</rate>
						<start>5411</start>
						<end>5469</end>
						<in>654</in>
						<out>712</out>
						<pproTicksIn>6921936000000</pproTicksIn>
						<pproTicksOut>7535808000000</pproTicksOut>
						<alphatype>none</alphatype>
						<file id="file-25"/>
						<logginginfo>
							<description></description>
							<scene></scene>
							<shottake></shottake>
							<lognote></lognote>
							<good></good>
							<originalvideofilename></originalvideofilename>
							<originalaudiofilename></originalaudiofilename>
						</logginginfo>
						<colorinfo>
							<lut></lut>
							<lut1></lut1>
							<asc_sop></asc_sop>
							<asc_sat></asc_sat>
							<lut2></lut2>
						</colorinfo>
						<labels>
							<label2>Iris</label2>
						</labels>
					</clipitem>
					<clipitem id="clipitem-62">
						<masterclipid>masterclip-27</masterclipid>
						<name>A006_06192156_C209.mp4</name>
						<enabled>TRUE</enabled>
						<duration>2522</duration>
						<rate>
							<timebase>24</timebase>
							<ntsc>FALSE</ntsc>
						</rate>
						<start>5469</start>
						<end>5578</end>
						<in>1066</in>
						<out>1175</out>
						<pproTicksIn>11282544000000</pproTicksIn>
						<pproTicksOut>12436200000000</pproTicksOut>
						<alphatype>none</alphatype>
						<file id="file-27"/>
						<link>
							<linkclipref>clipitem-62</linkclipref>
							<mediatype>video</mediatype>
							<trackindex>1</trackindex>
							<clipindex>64</clipindex>
						</link>
						<link>
							<linkclipref>clipitem-503</linkclipref>
							<mediatype>audio</mediatype>
							<trackindex>1</trackindex>
							<clipindex>27</clipindex>
							<groupindex>1</groupindex>
						</link>
						<link>
							<linkclipref>clipitem-667</linkclipref>
							<mediatype>audio</mediatype>
							<trackindex>2</trackindex>
							<clipindex>27</clipindex>
							<groupindex>1</groupindex>
						</link>
						<logginginfo>
							<description></description>
							<scene></scene>
							<shottake></shottake>
							<lognote></lognote>
							<good></good>
							<originalvideofilename></originalvideofilename>
							<originalaudiofilename></originalaudiofilename>
						</logginginfo>
						<colorinfo>
							<lut></lut>
							<lut1></lut1>
							<asc_sop></asc_sop>
							<asc_sat></asc_sat>
							<lut2></lut2>
						</colorinfo>
						<labels>
							<label2>Iris</label2>
						</labels>
					</clipitem>
					<clipitem id="clipitem-63">
						<masterclipid>masterclip-26</masterclipid>
						<name>A006_06192148_C207.mp4</name>
						<enabled>TRUE</enabled>
						<duration>2744</duration>
						<rate>
							<timebase>24</timebase>
							<ntsc>FALSE</ntsc>
						</rate>
						<start>5578</start>
						<end>5849</end>
						<in>1196</in>
						<out>1467</out>
						<pproTicksIn>12658464000000</pproTicksIn>
						<pproTicksOut>15526728000000</pproTicksOut>
						<alphatype>none</alphatype>
						<file id="file-26"/>
						<link>
							<linkclipref>clipitem-63</linkclipref>
							<mediatype>video</mediatype>
							<trackindex>1</trackindex>
							<clipindex>65</clipindex>
						</link>
						<link>
							<linkclipref>clipitem-504</linkclipref>
							<mediatype>audio</mediatype>
							<trackindex>1</trackindex>
							<clipindex>28</clipindex>
							<groupindex>1</groupindex>
						</link>
						<link>
							<linkclipref>clipitem-668</linkclipref>
							<mediatype>audio</mediatype>
							<trackindex>2</trackindex>
							<clipindex>28</clipindex>
							<groupindex>1</groupindex>
						</link>
						<logginginfo>
							<description></description>
							<scene></scene>
							<shottake></shottake>
							<lognote></lognote>
							<good></good>
							<originalvideofilename></originalvideofilename>
							<originalaudiofilename></originalaudiofilename>
						</logginginfo>
						<colorinfo>
							<lut></lut>
							<lut1></lut1>
							<asc_sop></asc_sop>
							<asc_sat></asc_sat>
							<lut2></lut2>
						</colorinfo>
						<labels>
							<label2>Iris</label2>
						</labels>
					</clipitem>
					<clipitem id="clipitem-64">
						<masterclipid>masterclip-25</masterclipid>
						<name>A006_06192211_C220.mp4</name>
						<enabled>TRUE</enabled>
						<duration>1671</duration>
						<rate>
							<timebase>24</timebase>
							<ntsc>FALSE</ntsc>
						</rate>
						<start>5849</start>
						<end>5915</end>
						<in>941</in>
						<out>1007</out>
						<pproTicksIn>9959544000000</pproTicksIn>
						<pproTicksOut>10658088000000</pproTicksOut>
						<alphatype>none</alphatype>
						<file id="file-25"/>
						<logginginfo>
							<description></description>
							<scene></scene>
							<shottake></shottake>
							<lognote></lognote>
							<good></good>
							<originalvideofilename></originalvideofilename>
							<originalaudiofilename></originalaudiofilename>
						</logginginfo>
						<colorinfo>
							<lut></lut>
							<lut1></lut1>
							<asc_sop></asc_sop>
							<asc_sat></asc_sat>
							<lut2></lut2>
						</colorinfo>
						<labels>
							<label2>Iris</label2>
						</labels>
					</clipitem>
					<clipitem id="clipitem-65">
						<masterclipid>masterclip-26</masterclipid>
						<name>A006_06192148_C207.mp4</name>
						<enabled>TRUE</enabled>
						<duration>2744</duration>
						<rate>
							<timebase>24</timebase>
							<ntsc>FALSE</ntsc>
						</rate>
						<start>5915</start>
						<end>6015</end>
						<in>1517</in>
						<out>1617</out>
						<pproTicksIn>16055928000000</pproTicksIn>
						<pproTicksOut>17114328000000</pproTicksOut>
						<alphatype>none</alphatype>
						<file id="file-26"/>
						<link>
							<linkclipref>clipitem-65</linkclipref>
							<mediatype>video</mediatype>
							<trackindex>1</trackindex>
							<clipindex>67</clipindex>
						</link>
						<link>
							<linkclipref>clipitem-505</linkclipref>
							<mediatype>audio</mediatype>
							<trackindex>1</trackindex>
							<clipindex>29</clipindex>
							<groupindex>1</groupindex>
						</link>
						<link>
							<linkclipref>clipitem-669</linkclipref>
							<mediatype>audio</mediatype>
							<trackindex>2</trackindex>
							<clipindex>29</clipindex>
							<groupindex>1</groupindex>
						</link>
						<logginginfo>
							<description></description>
							<scene></scene>
							<shottake></shottake>
							<lognote></lognote>
							<good></good>
							<originalvideofilename></originalvideofilename>
							<originalaudiofilename></originalaudiofilename>
						</logginginfo>
						<colorinfo>
							<lut></lut>
							<lut1></lut1>
							<asc_sop></asc_sop>
							<asc_sat></asc_sat>
							<lut2></lut2>
						</colorinfo>
						<labels>
							<label2>Iris</label2>
						</labels>
					</clipitem>
					<clipitem id="clipitem-66">
						<masterclipid>masterclip-28</masterclipid>
						<name>A006_06192201_C212.mp4</name>
						<enabled>TRUE</enabled>
						<duration>1523</duration>
						<rate>
							<timebase>24</timebase>
							<ntsc>FALSE</ntsc>
						</rate>
						<start>6015</start>
						<end>6116</end>
						<in>579</in>
						<out>680</out>
						<pproTicksIn>6128136000000</pproTicksIn>
						<pproTicksOut>7197120000000</pproTicksOut>
						<alphatype>none</alphatype>
						<pixelaspectratio>square</pixelaspectratio>
						<anamorphic>FALSE</anamorphic>
						<file id="file-28">
							<name>A006_06192201_C212.mp4</name>
							<pathurl>file://localhost/F%3a/bengaluru%20scenes/scene%2037A/A006_06192201_C212.mp4</pathurl>
							<rate>
								<timebase>24</timebase>
								<ntsc>FALSE</ntsc>
							</rate>
							<duration>1523</duration>
							<timecode>
								<rate>
									<timebase>24</timebase>
									<ntsc>FALSE</ntsc>
								</rate>
								<string>22:01:57:01</string>
								<frame>1903609</frame>
								<displayformat>NDF</displayformat>
							</timecode>
							<media>
								<video>
									<samplecharacteristics>
										<rate>
											<timebase>24</timebase>
											<ntsc>FALSE</ntsc>
										</rate>
										<width>1920</width>
										<height>1080</height>
										<anamorphic>FALSE</anamorphic>
										<pixelaspectratio>square</pixelaspectratio>
										<fielddominance>none</fielddominance>
									</samplecharacteristics>
								</video>
								<audio>
									<samplecharacteristics>
										<depth>16</depth>
										<samplerate>48000</samplerate>
									</samplecharacteristics>
									<channelcount>2</channelcount>
								</audio>
							</media>
						</file>
						<link>
							<linkclipref>clipitem-66</linkclipref>
							<mediatype>video</mediatype>
							<trackindex>1</trackindex>
							<clipindex>68</clipindex>
						</link>
						<link>
							<linkclipref>clipitem-506</linkclipref>
							<mediatype>audio</mediatype>
							<trackindex>1</trackindex>
							<clipindex>30</clipindex>
							<groupindex>1</groupindex>
						</link>
						<link>
							<linkclipref>clipitem-670</linkclipref>
							<mediatype>audio</mediatype>
							<trackindex>2</trackindex>
							<clipindex>30</clipindex>
							<groupindex>1</groupindex>
						</link>
						<logginginfo>
							<description></description>
							<scene></scene>
							<shottake></shottake>
							<lognote></lognote>
							<good></good>
							<originalvideofilename></originalvideofilename>
							<originalaudiofilename></originalaudiofilename>
						</logginginfo>
						<colorinfo>
							<lut></lut>
							<lut1></lut1>
							<asc_sop></asc_sop>
							<asc_sat></asc_sat>
							<lut2></lut2>
						</colorinfo>
						<labels>
							<label2>Iris</label2>
						</labels>
					</clipitem>
					<clipitem id="clipitem-67">
						<masterclipid>masterclip-26</masterclipid>
						<name>A006_06192148_C207.mp4</name>
						<enabled>TRUE</enabled>
						<duration>2744</duration>
						<rate>
							<timebase>24</timebase>
							<ntsc>FALSE</ntsc>
						</rate>
						<start>6116</start>
						<end>6253</end>
						<in>1884</in>
						<out>2021</out>
						<pproTicksIn>19940256000000</pproTicksIn>
						<pproTicksOut>21390264000000</pproTicksOut>
						<alphatype>none</alphatype>
						<file id="file-26"/>
						<link>
							<linkclipref>clipitem-67</linkclipref>
							<mediatype>video</mediatype>
							<trackindex>1</trackindex>
							<clipindex>69</clipindex>
						</link>
						<link>
							<linkclipref>clipitem-507</linkclipref>
							<mediatype>audio</mediatype>
							<trackindex>1</trackindex>
							<clipindex>31</clipindex>
							<groupindex>1</groupindex>
						</link>
						<link>
							<linkclipref>clipitem-671</linkclipref>
							<mediatype>audio</mediatype>
							<trackindex>2</trackindex>
							<clipindex>31</clipindex>
							<groupindex>1</groupindex>
						</link>
						<logginginfo>
							<description></description>
							<scene></scene>
							<shottake></shottake>
							<lognote></lognote>
							<good></good>
							<originalvideofilename></originalvideofilename>
							<originalaudiofilename></originalaudiofilename>
						</logginginfo>
						<colorinfo>
							<lut></lut>
							<lut1></lut1>
							<asc_sop></asc_sop>
							<asc_sat></asc_sat>
							<lut2></lut2>
						</colorinfo>
						<labels>
							<label2>Iris</label2>
						</labels>
					</clipitem>
					<clipitem id="clipitem-68">
						<masterclipid>masterclip-28</masterclipid>
						<name>A006_06192201_C212.mp4</name>
						<enabled>TRUE</enabled>
						<duration>1523</duration>
						<rate>
							<timebase>24</timebase>
							<ntsc>FALSE</ntsc>
						</rate>
						<start>6253</start>
						<end>6537</end>
						<in>945</in>
						<out>1229</out>
						<pproTicksIn>10001880000000</pproTicksIn>
						<pproTicksOut>13007736000000</pproTicksOut>
						<alphatype>none</alphatype>
						<file id="file-28"/>
						<link>
							<linkclipref>clipitem-68</linkclipref>
							<mediatype>video</mediatype>
							<trackindex>1</trackindex>
							<clipindex>70</clipindex>
						</link>
						<link>
							<linkclipref>clipitem-508</linkclipref>
							<mediatype>audio</mediatype>
							<trackindex>1</trackindex>
							<clipindex>32</clipindex>
							<groupindex>1</groupindex>
						</link>
						<link>
							<linkclipref>clipitem-672</linkclipref>
							<mediatype>audio</mediatype>
							<trackindex>2</trackindex>
							<clipindex>32</clipindex>
							<groupindex>1</groupindex>
						</link>
						<logginginfo>
							<description></description>
							<scene></scene>
							<shottake></shottake>
							<lognote></lognote>
							<good></good>
							<originalvideofilename></originalvideofilename>
							<originalaudiofilename></originalaudiofilename>
						</logginginfo>
						<colorinfo>
							<lut></lut>
							<lut1></lut1>
							<asc_sop></asc_sop>
							<asc_sat></asc_sat>
							<lut2></lut2>
						</colorinfo>
						<labels>
							<label2>Iris</label2>
						</labels>
					</clipitem>
					<clipitem id="clipitem-69">
						<masterclipid>masterclip-25</masterclipid>
						<name>A006_06192211_C220.mp4</name>
						<enabled>TRUE</enabled>
						<duration>1671</duration>
						<rate>
							<timebase>24</timebase>
							<ntsc>FALSE</ntsc>
						</rate>
						<start>6537</start>
						<end>6597</end>
						<in>1387</in>
						<out>1447</out>
						<pproTicksIn>14680008000000</pproTicksIn>
						<pproTicksOut>15315048000000</pproTicksOut>
						<alphatype>none</alphatype>
						<file id="file-25"/>
						<logginginfo>
							<description></description>
							<scene></scene>
							<shottake></shottake>
							<lognote></lognote>
							<good></good>
							<originalvideofilename></originalvideofilename>
							<originalaudiofilename></originalaudiofilename>
						</logginginfo>
						<colorinfo>
							<lut></lut>
							<lut1></lut1>
							<asc_sop></asc_sop>
							<asc_sat></asc_sat>
							<lut2></lut2>
						</colorinfo>
						<labels>
							<label2>Iris</label2>
						</labels>
					</clipitem>
					<clipitem id="clipitem-70">
						<masterclipid>masterclip-29</masterclipid>
						<name>A006_06192216_C221.mp4</name>
						<enabled>TRUE</enabled>
						<duration>557</duration>
						<rate>
							<timebase>24</timebase>
							<ntsc>FALSE</ntsc>
						</rate>
						<start>6597</start>
						<end>6647</end>
						<in>287</in>
						<out>337</out>
						<pproTicksIn>3037608000000</pproTicksIn>
						<pproTicksOut>3566808000000</pproTicksOut>
						<alphatype>none</alphatype>
						<pixelaspectratio>square</pixelaspectratio>
						<anamorphic>FALSE</anamorphic>
						<file id="file-29">
							<name>A006_06192216_C221.mp4</name>
							<pathurl>file://localhost/F%3a/bengaluru%20scenes/scene%2037B%20INT%20of%2039/A006_06192216_C221.mp4</pathurl>
							<rate>
								<timebase>24</timebase>
								<ntsc>FALSE</ntsc>
							</rate>
							<duration>557</duration>
							<timecode>
								<rate>
									<timebase>24</timebase>
									<ntsc>FALSE</ntsc>
								</rate>
								<string>22:16:00:10</string>
								<frame>1923850</frame>
								<displayformat>NDF</displayformat>
							</timecode>
							<media>
								<video>
									<samplecharacteristics>
										<rate>
											<timebase>24</timebase>
											<ntsc>FALSE</ntsc>
										</rate>
										<width>1920</width>
										<height>1080</height>
										<anamorphic>FALSE</anamorphic>
										<pixelaspectratio>square</pixelaspectratio>
										<fielddominance>none</fielddominance>
									</samplecharacteristics>
								</video>
								<audio>
									<samplecharacteristics>
										<depth>16</depth>
										<samplerate>48000</samplerate>
									</samplecharacteristics>
									<channelcount>2</channelcount>
								</audio>
							</media>
						</file>
						<link>
							<linkclipref>clipitem-70</linkclipref>
							<mediatype>video</mediatype>
							<trackindex>1</trackindex>
							<clipindex>72</clipindex>
						</link>
						<link>
							<linkclipref>clipitem-509</linkclipref>
							<mediatype>audio</mediatype>
							<trackindex>1</trackindex>
							<clipindex>33</clipindex>
							<groupindex>1</groupindex>
						</link>
						<link>
							<linkclipref>clipitem-673</linkclipref>
							<mediatype>audio</mediatype>
							<trackindex>2</trackindex>
							<clipindex>33</clipindex>
							<groupindex>1</groupindex>
						</link>
						<logginginfo>
							<description></description>
							<scene></scene>
							<shottake></shottake>
							<lognote></lognote>
							<good></good>
							<originalvideofilename></originalvideofilename>
							<originalaudiofilename></originalaudiofilename>
						</logginginfo>
						<colorinfo>
							<lut></lut>
							<lut1></lut1>
							<asc_sop></asc_sop>
							<asc_sat></asc_sat>
							<lut2></lut2>
						</colorinfo>
						<labels>
							<label2>Iris</label2>
						</labels>
					</clipitem>
					<clipitem id="clipitem-71">
						<masterclipid>masterclip-30</masterclipid>
						<name>A002_05290123_C138.mp4</name>
						<enabled>TRUE</enabled>
						<duration>364</duration>
						<rate>
							<timebase>24</timebase>
							<ntsc>FALSE</ntsc>
						</rate>
						<start>6647</start>
						<end>6942</end>
						<in>42</in>
						<out>337</out>
						<pproTicksIn>444528000000</pproTicksIn>
						<pproTicksOut>3566808000000</pproTicksOut>
						<alphatype>none</alphatype>
						<pixelaspectratio>square</pixelaspectratio>
						<anamorphic>FALSE</anamorphic>
						<file id="file-30">
							<name>A002_05290123_C138.mp4</name>
							<pathurl>file://localhost/F%3a/bengaluru%20scenes/scene%2039/1/A002_05290123_C138.mp4</pathurl>
							<rate>
								<timebase>24</timebase>
								<ntsc>FALSE</ntsc>
							</rate>
							<duration>364</duration>
							<timecode>
								<rate>
									<timebase>24</timebase>
									<ntsc>FALSE</ntsc>
								</rate>
								<string>00:00:00:00</string>
								<frame>0</frame>
								<displayformat>NDF</displayformat>
							</timecode>
							<media>
								<video>
									<samplecharacteristics>
										<rate>
											<timebase>24</timebase>
											<ntsc>FALSE</ntsc>
										</rate>
										<width>1920</width>
										<height>1080</height>
										<anamorphic>FALSE</anamorphic>
										<pixelaspectratio>square</pixelaspectratio>
										<fielddominance>none</fielddominance>
									</samplecharacteristics>
								</video>
								<audio>
									<samplecharacteristics>
										<depth>16</depth>
										<samplerate>48000</samplerate>
									</samplecharacteristics>
									<channelcount>2</channelcount>
								</audio>
							</media>
						</file>
						<link>
							<linkclipref>clipitem-71</linkclipref>
							<mediatype>video</mediatype>
							<trackindex>1</trackindex>
							<clipindex>73</clipindex>
						</link>
						<link>
							<linkclipref>clipitem-510</linkclipref>
							<mediatype>audio</mediatype>
							<trackindex>1</trackindex>
							<clipindex>34</clipindex>
							<groupindex>1</groupindex>
						</link>
						<link>
							<linkclipref>clipitem-674</linkclipref>
							<mediatype>audio</mediatype>
							<trackindex>2</trackindex>
							<clipindex>34</clipindex>
							<groupindex>1</groupindex>
						</link>
						<logginginfo>
							<description></description>
							<scene></scene>
							<shottake></shottake>
							<lognote></lognote>
							<good></good>
							<originalvideofilename></originalvideofilename>
							<originalaudiofilename></originalaudiofilename>
						</logginginfo>
						<colorinfo>
							<lut></lut>
							<lut1></lut1>
							<asc_sop></asc_sop>
							<asc_sat></asc_sat>
							<lut2></lut2>
						</colorinfo>
						<labels>
							<label2>Iris</label2>
						</labels>
					</clipitem>
					<clipitem id="clipitem-72">
						<masterclipid>masterclip-31</masterclipid>
						<name>A006_06192217_C223.mp4</name>
						<enabled>TRUE</enabled>
						<duration>180</duration>
						<rate>
							<timebase>24</timebase>
							<ntsc>FALSE</ntsc>
						</rate>
						<start>6942</start>
						<end>6977</end>
						<in>56</in>
						<out>91</out>
						<pproTicksIn>592704000000</pproTicksIn>
						<pproTicksOut>963144000000</pproTicksOut>
						<alphatype>none</alphatype>
						<pixelaspectratio>square</pixelaspectratio>
						<anamorphic>FALSE</anamorphic>
						<file id="file-31">
							<name>A006_06192217_C223.mp4</name>
							<pathurl>file://localhost/F%3a/bengaluru%20scenes/scene%2037B%20INT%20of%2039/A006_06192217_C223.mp4</pathurl>
							<rate>
								<timebase>24</timebase>
								<ntsc>FALSE</ntsc>
							</rate>
							<duration>180</duration>
							<timecode>
								<rate>
									<timebase>24</timebase>
									<ntsc>FALSE</ntsc>
								</rate>
								<string>22:17:15:21</string>
								<frame>1925661</frame>
								<displayformat>NDF</displayformat>
							</timecode>
							<media>
								<video>
									<samplecharacteristics>
										<rate>
											<timebase>24</timebase>
											<ntsc>FALSE</ntsc>
										</rate>
										<width>1920</width>
										<height>1080</height>
										<anamorphic>FALSE</anamorphic>
										<pixelaspectratio>square</pixelaspectratio>
										<fielddominance>none</fielddominance>
									</samplecharacteristics>
								</video>
								<audio>
									<samplecharacteristics>
										<depth>16</depth>
										<samplerate>48000</samplerate>
									</samplecharacteristics>
									<channelcount>2</channelcount>
								</audio>
							</media>
						</file>
						<link>
							<linkclipref>clipitem-72</linkclipref>
							<mediatype>video</mediatype>
							<trackindex>1</trackindex>
							<clipindex>74</clipindex>
						</link>
						<link>
							<linkclipref>clipitem-511</linkclipref>
							<mediatype>audio</mediatype>
							<trackindex>1</trackindex>
							<clipindex>35</clipindex>
							<groupindex>1</groupindex>
						</link>
						<link>
							<linkclipref>clipitem-675</linkclipref>
							<mediatype>audio</mediatype>
							<trackindex>2</trackindex>
							<clipindex>35</clipindex>
							<groupindex>1</groupindex>
						</link>
						<logginginfo>
							<description></description>
							<scene></scene>
							<shottake></shottake>
							<lognote></lognote>
							<good></good>
							<originalvideofilename></originalvideofilename>
							<originalaudiofilename></originalaudiofilename>
						</logginginfo>
						<colorinfo>
							<lut></lut>
							<lut1></lut1>
							<asc_sop></asc_sop>
							<asc_sat></asc_sat>
							<lut2></lut2>
						</colorinfo>
						<labels>
							<label2>Iris</label2>
						</labels>
					</clipitem>
					<clipitem id="clipitem-73">
						<masterclipid>masterclip-32</masterclipid>
						<name>A003_05300548_C057.mp4</name>
						<enabled>TRUE</enabled>
						<duration>274</duration>
						<rate>
							<timebase>24</timebase>
							<ntsc>FALSE</ntsc>
						</rate>
						<start>6977</start>
						<end>7005</end>
						<in>102</in>
						<out>130</out>
						<pproTicksIn>1079568000000</pproTicksIn>
						<pproTicksOut>1375920000000</pproTicksOut>
						<alphatype>none</alphatype>
						<pixelaspectratio>square</pixelaspectratio>
						<anamorphic>FALSE</anamorphic>
						<file id="file-32">
							<name>A003_05300548_C057.mp4</name>
							<pathurl>file://localhost/F%3a/bengaluru%20scenes/scene%2039/2/phone%20calls/A003_05300548_C057.mp4</pathurl>
							<rate>
								<timebase>24</timebase>
								<ntsc>FALSE</ntsc>
							</rate>
							<duration>274</duration>
							<timecode>
								<rate>
									<timebase>24</timebase>
									<ntsc>FALSE</ntsc>
								</rate>
								<string>00:00:00:00</string>
								<frame>0</frame>
								<displayformat>NDF</displayformat>
							</timecode>
							<media>
								<video>
									<samplecharacteristics>
										<rate>
											<timebase>24</timebase>
											<ntsc>FALSE</ntsc>
										</rate>
										<width>1920</width>
										<height>1080</height>
										<anamorphic>FALSE</anamorphic>
										<pixelaspectratio>square</pixelaspectratio>
										<fielddominance>none</fielddominance>
									</samplecharacteristics>
								</video>
								<audio>
									<samplecharacteristics>
										<depth>16</depth>
										<samplerate>48000</samplerate>
									</samplecharacteristics>
									<channelcount>2</channelcount>
								</audio>
							</media>
						</file>
						<logginginfo>
							<description></description>
							<scene></scene>
							<shottake></shottake>
							<lognote></lognote>
							<good></good>
							<originalvideofilename></originalvideofilename>
							<originalaudiofilename></originalaudiofilename>
						</logginginfo>
						<colorinfo>
							<lut></lut>
							<lut1></lut1>
							<asc_sop></asc_sop>
							<asc_sat></asc_sat>
							<lut2></lut2>
						</colorinfo>
						<labels>
							<label2>Iris</label2>
						</labels>
					</clipitem>
					<clipitem id="clipitem-74">
						<masterclipid>masterclip-32</masterclipid>
						<name>A003_05300548_C057.mp4</name>
						<enabled>TRUE</enabled>
						<duration>274</duration>
						<rate>
							<timebase>24</timebase>
							<ntsc>FALSE</ntsc>
						</rate>
						<start>7005</start>
						<end>7037</end>
						<in>180</in>
						<out>212</out>
						<pproTicksIn>1905120000000</pproTicksIn>
						<pproTicksOut>2243808000000</pproTicksOut>
						<alphatype>none</alphatype>
						<file id="file-32"/>
						<logginginfo>
							<description></description>
							<scene></scene>
							<shottake></shottake>
							<lognote></lognote>
							<good></good>
							<originalvideofilename></originalvideofilename>
							<originalaudiofilename></originalaudiofilename>
						</logginginfo>
						<colorinfo>
							<lut></lut>
							<lut1></lut1>
							<asc_sop></asc_sop>
							<asc_sat></asc_sat>
							<lut2></lut2>
						</colorinfo>
						<labels>
							<label2>Iris</label2>
						</labels>
					</clipitem>
					<clipitem id="clipitem-75">
						<masterclipid>masterclip-33</masterclipid>
						<name>A002_05280300_C029.mp4</name>
						<enabled>TRUE</enabled>
						<duration>288</duration>
						<rate>
							<timebase>24</timebase>
							<ntsc>FALSE</ntsc>
						</rate>
						<start>7037</start>
						<end>7112</end>
						<in>132</in>
						<out>207</out>
						<pproTicksIn>1397088000000</pproTicksIn>
						<pproTicksOut>2190888000000</pproTicksOut>
						<alphatype>none</alphatype>
						<pixelaspectratio>square</pixelaspectratio>
						<anamorphic>FALSE</anamorphic>
						<file id="file-33">
							<name>A002_05280300_C029.mp4</name>
							<pathurl>file://localhost/F%3a/bengaluru%20scenes/scene%2039/2/phone%20calls/A002_05280300_C029.mp4</pathurl>
							<rate>
								<timebase>24</timebase>
								<ntsc>FALSE</ntsc>
							</rate>
							<duration>288</duration>
							<timecode>
								<rate>
									<timebase>24</timebase>
									<ntsc>FALSE</ntsc>
								</rate>
								<string>00:00:00:00</string>
								<frame>0</frame>
								<displayformat>NDF</displayformat>
							</timecode>
							<media>
								<video>
									<samplecharacteristics>
										<rate>
											<timebase>24</timebase>
											<ntsc>FALSE</ntsc>
										</rate>
										<width>1920</width>
										<height>1080</height>
										<anamorphic>FALSE</anamorphic>
										<pixelaspectratio>square</pixelaspectratio>
										<fielddominance>none</fielddominance>
									</samplecharacteristics>
								</video>
								<audio>
									<samplecharacteristics>
										<depth>16</depth>
										<samplerate>48000</samplerate>
									</samplecharacteristics>
									<channelcount>2</channelcount>
								</audio>
							</media>
						</file>
						<logginginfo>
							<description></description>
							<scene></scene>
							<shottake></shottake>
							<lognote></lognote>
							<good></good>
							<originalvideofilename></originalvideofilename>
							<originalaudiofilename></originalaudiofilename>
						</logginginfo>
						<colorinfo>
							<lut></lut>
							<lut1></lut1>
							<asc_sop></asc_sop>
							<asc_sat></asc_sat>
							<lut2></lut2>
						</colorinfo>
						<labels>
							<label2>Iris</label2>
						</labels>
					</clipitem>
					<clipitem id="clipitem-76">
						<masterclipid>masterclip-34</masterclipid>
						<name>A003_05300521_C044.mp4</name>
						<enabled>TRUE</enabled>
						<duration>483</duration>
						<rate>
							<timebase>24</timebase>
							<ntsc>FALSE</ntsc>
						</rate>
						<start>7112</start>
						<end>7148</end>
						<in>211</in>
						<out>247</out>
						<pproTicksIn>4466448000000</pproTicksIn>
						<pproTicksOut>5228496000000</pproTicksOut>
						<alphatype>none</alphatype>
						<pixelaspectratio>square</pixelaspectratio>
						<anamorphic>FALSE</anamorphic>
						<file id="file-34">
							<name>A003_05300521_C044.mp4</name>
							<pathurl>file://localhost/F%3a/bengaluru%20scenes/scene%2039/2/phone%20calls/A003_05300521_C044.mp4</pathurl>
							<rate>
								<timebase>24</timebase>
								<ntsc>FALSE</ntsc>
							</rate>
							<duration>967</duration>
							<timecode>
								<rate>
									<timebase>24</timebase>
									<ntsc>FALSE</ntsc>
								</rate>
								<string>00:00:00:00</string>
								<frame>0</frame>
								<displayformat>NDF</displayformat>
							</timecode>
							<media>
								<video>
									<samplecharacteristics>
										<rate>
											<timebase>24</timebase>
											<ntsc>FALSE</ntsc>
										</rate>
										<width>1920</width>
										<height>1080</height>
										<anamorphic>FALSE</anamorphic>
										<pixelaspectratio>square</pixelaspectratio>
										<fielddominance>none</fielddominance>
									</samplecharacteristics>
								</video>
								<audio>
									<samplecharacteristics>
										<depth>16</depth>
										<samplerate>48000</samplerate>
									</samplecharacteristics>
									<channelcount>2</channelcount>
								</audio>
							</media>
						</file>
						<filter>
							<effect>
								<name>Time Remap</name>
								<effectid>timeremap</effectid>
								<effectcategory>motion</effectcategory>
								<effecttype>motion</effecttype>
								<mediatype>video</mediatype>
								<parameter authoringApp="PremierePro">
									<parameterid>variablespeed</parameterid>
									<name>variablespeed</name>
									<valuemin>0</valuemin>
									<valuemax>1</valuemax>
									<value>0</value>
								</parameter>
								<parameter authoringApp="PremierePro">
									<parameterid>speed</parameterid>
									<name>speed</name>
									<valuemin>-100000</valuemin>
									<valuemax>100000</valuemax>
									<value>200</value>
								</parameter>
								<parameter authoringApp="PremierePro">
									<parameterid>reverse</parameterid>
									<name>reverse</name>
									<value>FALSE</value>
								</parameter>
								<parameter authoringApp="PremierePro">
									<parameterid>frameblending</parameterid>
									<name>frameblending</name>
									<value>FALSE</value>
								</parameter>
								<parameter authoringApp="PremierePro">
									<parameterid>graphdict</parameterid>
									<name>graphdict</name>
									<valuemin>0</valuemin>
									<valuemax>966</valuemax>
									<value>0</value>
									<keyframe>
										<when>0</when>
										<value>0</value>
										<speedvirtualkf>TRUE</speedvirtualkf>
										<speedkfstart>TRUE</speedkfstart>
									</keyframe>
									<keyframe>
										<when>211</when>
										<value>422</value>
										<speedvirtualkf>TRUE</speedvirtualkf>
										<speedkfin>TRUE</speedkfin>
									</keyframe>
									<keyframe>
										<when>247</when>
										<value>494</value>
										<speedvirtualkf>TRUE</speedvirtualkf>
										<speedkfout>TRUE</speedkfout>
									</keyframe>
									<keyframe>
										<when>483</when>
										<value>966</value>
										<speedvirtualkf>TRUE</speedvirtualkf>
										<speedkfend>TRUE</speedkfend>
									</keyframe>
									<interpolation>
										<name>FCPCurve</name>
									</interpolation>
								</parameter>
							</effect>
						</filter>
						<logginginfo>
							<description></description>
							<scene></scene>
							<shottake></shottake>
							<lognote></lognote>
							<good></good>
							<originalvideofilename></originalvideofilename>
							<originalaudiofilename></originalaudiofilename>
						</logginginfo>
						<colorinfo>
							<lut></lut>
							<lut1></lut1>
							<asc_sop></asc_sop>
							<asc_sat></asc_sat>
							<lut2></lut2>
						</colorinfo>
						<labels>
							<label2>Iris</label2>
						</labels>
					</clipitem>
					<clipitem id="clipitem-77">
						<masterclipid>masterclip-34</masterclipid>
						<name>A003_05300521_C044.mp4</name>
						<enabled>TRUE</enabled>
						<duration>483</duration>
						<rate>
							<timebase>24</timebase>
							<ntsc>FALSE</ntsc>
						</rate>
						<start>7148</start>
						<end>7219</end>
						<in>288</in>
						<out>359</out>
						<pproTicksIn>6096384000000</pproTicksIn>
						<pproTicksOut>7599312000000</pproTicksOut>
						<alphatype>none</alphatype>
						<file id="file-34"/>
						<filter>
							<effect>
								<name>Time Remap</name>
								<effectid>timeremap</effectid>
								<effectcategory>motion</effectcategory>
								<effecttype>motion</effecttype>
								<mediatype>video</mediatype>
								<parameter authoringApp="PremierePro">
									<parameterid>variablespeed</parameterid>
									<name>variablespeed</name>
									<valuemin>0</valuemin>
									<valuemax>1</valuemax>
									<value>0</value>
								</parameter>
								<parameter authoringApp="PremierePro">
									<parameterid>speed</parameterid>
									<name>speed</name>
									<valuemin>-100000</valuemin>
									<valuemax>100000</valuemax>
									<value>200</value>
								</parameter>
								<parameter authoringApp="PremierePro">
									<parameterid>reverse</parameterid>
									<name>reverse</name>
									<value>FALSE</value>
								</parameter>
								<parameter authoringApp="PremierePro">
									<parameterid>frameblending</parameterid>
									<name>frameblending</name>
									<value>FALSE</value>
								</parameter>
								<parameter authoringApp="PremierePro">
									<parameterid>graphdict</parameterid>
									<name>graphdict</name>
									<valuemin>0</valuemin>
									<valuemax>966</valuemax>
									<value>0</value>
									<keyframe>
										<when>0</when>
										<value>0</value>
										<speedvirtualkf>TRUE</speedvirtualkf>
										<speedkfstart>TRUE</speedkfstart>
									</keyframe>
									<keyframe>
										<when>288</when>
										<value>576</value>
										<speedvirtualkf>TRUE</speedvirtualkf>
										<speedkfin>TRUE</speedkfin>
									</keyframe>
									<keyframe>
										<when>359</when>
										<value>718</value>
										<speedvirtualkf>TRUE</speedvirtualkf>
										<speedkfout>TRUE</speedkfout>
									</keyframe>
									<keyframe>
										<when>483</when>
										<value>966</value>
										<speedvirtualkf>TRUE</speedvirtualkf>
										<speedkfend>TRUE</speedkfend>
									</keyframe>
									<interpolation>
										<name>FCPCurve</name>
									</interpolation>
								</parameter>
							</effect>
						</filter>
						<logginginfo>
							<description></description>
							<scene></scene>
							<shottake></shottake>
							<lognote></lognote>
							<good></good>
							<originalvideofilename></originalvideofilename>
							<originalaudiofilename></originalaudiofilename>
						</logginginfo>
						<colorinfo>
							<lut></lut>
							<lut1></lut1>
							<asc_sop></asc_sop>
							<asc_sat></asc_sat>
							<lut2></lut2>
						</colorinfo>
						<labels>
							<label2>Iris</label2>
						</labels>
					</clipitem>
					<clipitem id="clipitem-78">
						<masterclipid>masterclip-35</masterclipid>
						<name>A002_05280752_C114.mp4</name>
						<enabled>TRUE</enabled>
						<duration>407</duration>
						<rate>
							<timebase>24</timebase>
							<ntsc>FALSE</ntsc>
						</rate>
						<start>7219</start>
						<end>7301</end>
						<in>277</in>
						<out>359</out>
						<pproTicksIn>2931768000000</pproTicksIn>
						<pproTicksOut>3799656000000</pproTicksOut>
						<alphatype>none</alphatype>
						<pixelaspectratio>square</pixelaspectratio>
						<anamorphic>FALSE</anamorphic>
						<file id="file-35">
							<name>A002_05280752_C114.mp4</name>
							<pathurl>file://localhost/F%3a/bengaluru%20scenes/scene%2039/2/phone%20calls/A002_05280752_C114.mp4</pathurl>
							<rate>
								<timebase>24</timebase>
								<ntsc>FALSE</ntsc>
							</rate>
							<duration>407</duration>
							<timecode>
								<rate>
									<timebase>24</timebase>
									<ntsc>FALSE</ntsc>
								</rate>
								<string>00:00:00:00</string>
								<frame>0</frame>
								<displayformat>NDF</displayformat>
							</timecode>
							<media>
								<video>
									<samplecharacteristics>
										<rate>
											<timebase>24</timebase>
											<ntsc>FALSE</ntsc>
										</rate>
										<width>1920</width>
										<height>1080</height>
										<anamorphic>FALSE</anamorphic>
										<pixelaspectratio>square</pixelaspectratio>
										<fielddominance>none</fielddominance>
									</samplecharacteristics>
								</video>
								<audio>
									<samplecharacteristics>
										<depth>16</depth>
										<samplerate>48000</samplerate>
									</samplecharacteristics>
									<channelcount>2</channelcount>
								</audio>
							</media>
						</file>
						<logginginfo>
							<description></description>
							<scene></scene>
							<shottake></shottake>
							<lognote></lognote>
							<good></good>
							<originalvideofilename></originalvideofilename>
							<originalaudiofilename></originalaudiofilename>
						</logginginfo>
						<colorinfo>
							<lut></lut>
							<lut1></lut1>
							<asc_sop></asc_sop>
							<asc_sat></asc_sat>
							<lut2></lut2>
						</colorinfo>
						<labels>
							<label2>Iris</label2>
						</labels>
					</clipitem>
					<clipitem id="clipitem-79">
						<masterclipid>masterclip-36</masterclipid>
						<name>A002_05290147_C148.mp4</name>
						<enabled>TRUE</enabled>
						<duration>502</duration>
						<rate>
							<timebase>24</timebase>
							<ntsc>FALSE</ntsc>
						</rate>
						<start>7301</start>
						<end>7307</end>
						<in>42</in>
						<out>48</out>
						<pproTicksIn>444528000000</pproTicksIn>
						<pproTicksOut>508032000000</pproTicksOut>
						<alphatype>none</alphatype>
						<pixelaspectratio>square</pixelaspectratio>
						<anamorphic>FALSE</anamorphic>
						<file id="file-36">
							<name>A002_05290147_C148.mp4</name>
							<pathurl>file://localhost/F%3a/bengaluru%20scenes/scene%2039/2/A002_05290147_C148.mp4</pathurl>
							<rate>
								<timebase>24</timebase>
								<ntsc>FALSE</ntsc>
							</rate>
							<duration>502</duration>
							<timecode>
								<rate>
									<timebase>24</timebase>
									<ntsc>FALSE</ntsc>
								</rate>
								<string>00:00:00:00</string>
								<frame>0</frame>
								<displayformat>NDF</displayformat>
							</timecode>
							<media>
								<video>
									<samplecharacteristics>
										<rate>
											<timebase>24</timebase>
											<ntsc>FALSE</ntsc>
										</rate>
										<width>1920</width>
										<height>1080</height>
										<anamorphic>FALSE</anamorphic>
										<pixelaspectratio>square</pixelaspectratio>
										<fielddominance>none</fielddominance>
									</samplecharacteristics>
								</video>
								<audio>
									<samplecharacteristics>
										<depth>16</depth>
										<samplerate>48000</samplerate>
									</samplecharacteristics>
									<channelcount>2</channelcount>
								</audio>
							</media>
						</file>
						<link>
							<linkclipref>clipitem-79</linkclipref>
							<mediatype>video</mediatype>
							<trackindex>1</trackindex>
							<clipindex>81</clipindex>
						</link>
						<link>
							<linkclipref>clipitem-512</linkclipref>
							<mediatype>audio</mediatype>
							<trackindex>1</trackindex>
							<clipindex>36</clipindex>
							<groupindex>1</groupindex>
						</link>
						<link>
							<linkclipref>clipitem-676</linkclipref>
							<mediatype>audio</mediatype>
							<trackindex>2</trackindex>
							<clipindex>36</clipindex>
							<groupindex>1</groupindex>
						</link>
						<logginginfo>
							<description></description>
							<scene></scene>
							<shottake></shottake>
							<lognote></lognote>
							<good></good>
							<originalvideofilename></originalvideofilename>
							<originalaudiofilename></originalaudiofilename>
						</logginginfo>
						<colorinfo>
							<lut></lut>
							<lut1></lut1>
							<asc_sop></asc_sop>
							<asc_sat></asc_sat>
							<lut2></lut2>
						</colorinfo>
						<labels>
							<label2>Iris</label2>
						</labels>
					</clipitem>
					<clipitem id="clipitem-80">
						<masterclipid>masterclip-36</masterclipid>
						<name>A002_05290147_C148.mp4</name>
						<enabled>TRUE</enabled>
						<duration>502</duration>
						<rate>
							<timebase>24</timebase>
							<ntsc>FALSE</ntsc>
						</rate>
						<start>7307</start>
						<end>7419</end>
						<in>125</in>
						<out>237</out>
						<pproTicksIn>1323000000000</pproTicksIn>
						<pproTicksOut>2508408000000</pproTicksOut>
						<alphatype>none</alphatype>
						<file id="file-36"/>
						<link>
							<linkclipref>clipitem-80</linkclipref>
							<mediatype>video</mediatype>
							<trackindex>1</trackindex>
							<clipindex>82</clipindex>
						</link>
						<link>
							<linkclipref>clipitem-513</linkclipref>
							<mediatype>audio</mediatype>
							<trackindex>1</trackindex>
							<clipindex>37</clipindex>
							<groupindex>1</groupindex>
						</link>
						<link>
							<linkclipref>clipitem-677</linkclipref>
							<mediatype>audio</mediatype>
							<trackindex>2</trackindex>
							<clipindex>37</clipindex>
							<groupindex>1</groupindex>
						</link>
						<logginginfo>
							<description></description>
							<scene></scene>
							<shottake></shottake>
							<lognote></lognote>
							<good></good>
							<originalvideofilename></originalvideofilename>
							<originalaudiofilename></originalaudiofilename>
						</logginginfo>
						<colorinfo>
							<lut></lut>
							<lut1></lut1>
							<asc_sop></asc_sop>
							<asc_sat></asc_sat>
							<lut2></lut2>
						</colorinfo>
						<labels>
							<label2>Iris</label2>
						</labels>
					</clipitem>
					<clipitem id="clipitem-81">
						<masterclipid>masterclip-36</masterclipid>
						<name>A002_05290147_C148.mp4</name>
						<enabled>TRUE</enabled>
						<duration>502</duration>
						<rate>
							<timebase>24</timebase>
							<ntsc>FALSE</ntsc>
						</rate>
						<start>7419</start>
						<end>7545</end>
						<in>340</in>
						<out>466</out>
						<pproTicksIn>3598560000000</pproTicksIn>
						<pproTicksOut>4932144000000</pproTicksOut>
						<alphatype>none</alphatype>
						<file id="file-36"/>
						<link>
							<linkclipref>clipitem-81</linkclipref>
							<mediatype>video</mediatype>
							<trackindex>1</trackindex>
							<clipindex>83</clipindex>
						</link>
						<link>
							<linkclipref>clipitem-514</linkclipref>
							<mediatype>audio</mediatype>
							<trackindex>1</trackindex>
							<clipindex>38</clipindex>
							<groupindex>1</groupindex>
						</link>
						<link>
							<linkclipref>clipitem-678</linkclipref>
							<mediatype>audio</mediatype>
							<trackindex>2</trackindex>
							<clipindex>38</clipindex>
							<groupindex>1</groupindex>
						</link>
						<logginginfo>
							<description></description>
							<scene></scene>
							<shottake></shottake>
							<lognote></lognote>
							<good></good>
							<originalvideofilename></originalvideofilename>
							<originalaudiofilename></originalaudiofilename>
						</logginginfo>
						<colorinfo>
							<lut></lut>
							<lut1></lut1>
							<asc_sop></asc_sop>
							<asc_sat></asc_sat>
							<lut2></lut2>
						</colorinfo>
						<labels>
							<label2>Iris</label2>
						</labels>
					</clipitem>
					<clipitem id="clipitem-82">
						<masterclipid>masterclip-37</masterclipid>
						<name>A006_06192218_C226.mp4</name>
						<enabled>TRUE</enabled>
						<duration>234</duration>
						<rate>
							<timebase>24</timebase>
							<ntsc>FALSE</ntsc>
						</rate>
						<start>7545</start>
						<end>7629</end>
						<in>58</in>
						<out>142</out>
						<pproTicksIn>613872000000</pproTicksIn>
						<pproTicksOut>1502928000000</pproTicksOut>
						<alphatype>none</alphatype>
						<pixelaspectratio>square</pixelaspectratio>
						<anamorphic>FALSE</anamorphic>
						<file id="file-37">
							<name>A006_06192218_C226.mp4</name>
							<pathurl>file://localhost/F%3a/bengaluru%20scenes/scene%2037B%20INT%20of%2039/A006_06192218_C226.mp4</pathurl>
							<rate>
								<timebase>24</timebase>
								<ntsc>FALSE</ntsc>
							</rate>
							<duration>234</duration>
							<timecode>
								<rate>
									<timebase>24</timebase>
									<ntsc>FALSE</ntsc>
								</rate>
								<string>22:18:42:23</string>
								<frame>1927751</frame>
								<displayformat>NDF</displayformat>
							</timecode>
							<media>
								<video>
									<samplecharacteristics>
										<rate>
											<timebase>24</timebase>
											<ntsc>FALSE</ntsc>
										</rate>
										<width>1920</width>
										<height>1080</height>
										<anamorphic>FALSE</anamorphic>
										<pixelaspectratio>square</pixelaspectratio>
										<fielddominance>none</fielddominance>
									</samplecharacteristics>
								</video>
								<audio>
									<samplecharacteristics>
										<depth>16</depth>
										<samplerate>48000</samplerate>
									</samplecharacteristics>
									<channelcount>2</channelcount>
								</audio>
							</media>
						</file>
						<link>
							<linkclipref>clipitem-82</linkclipref>
							<mediatype>video</mediatype>
							<trackindex>1</trackindex>
							<clipindex>84</clipindex>
						</link>
						<link>
							<linkclipref>clipitem-515</linkclipref>
							<mediatype>audio</mediatype>
							<trackindex>1</trackindex>
							<clipindex>39</clipindex>
							<groupindex>1</groupindex>
						</link>
						<link>
							<linkclipref>clipitem-679</linkclipref>
							<mediatype>audio</mediatype>
							<trackindex>2</trackindex>
							<clipindex>39</clipindex>
							<groupindex>1</groupindex>
						</link>
						<logginginfo>
							<description></description>
							<scene></scene>
							<shottake></shottake>
							<lognote></lognote>
							<good></good>
							<originalvideofilename></originalvideofilename>
							<originalaudiofilename></originalaudiofilename>
						</logginginfo>
						<colorinfo>
							<lut></lut>
							<lut1></lut1>
							<asc_sop></asc_sop>
							<asc_sat></asc_sat>
							<lut2></lut2>
						</colorinfo>
						<labels>
							<label2>Iris</label2>
						</labels>
					</clipitem>
					<clipitem id="clipitem-83">
						<masterclipid>masterclip-38</masterclipid>
						<name>A002_05290628_C208.mp4</name>
						<enabled>TRUE</enabled>
						<duration>357</duration>
						<rate>
							<timebase>24</timebase>
							<ntsc>FALSE</ntsc>
						</rate>
						<start>7629</start>
						<end>7910</end>
						<in>45</in>
						<out>326</out>
						<pproTicksIn>476280000000</pproTicksIn>
						<pproTicksOut>3450384000000</pproTicksOut>
						<alphatype>none</alphatype>
						<pixelaspectratio>square</pixelaspectratio>
						<anamorphic>FALSE</anamorphic>
						<file id="file-38">
							<name>A002_05290628_C208.mp4</name>
							<pathurl>file://localhost/F%3a/bengaluru%20scenes/scene%2039/3/A/A002_05290628_C208.mp4</pathurl>
							<rate>
								<timebase>24</timebase>
								<ntsc>FALSE</ntsc>
							</rate>
							<duration>357</duration>
							<timecode>
								<rate>
									<timebase>24</timebase>
									<ntsc>FALSE</ntsc>
								</rate>
								<string>00:00:00:00</string>
								<frame>0</frame>
								<displayformat>NDF</displayformat>
							</timecode>
							<media>
								<video>
									<samplecharacteristics>
										<rate>
											<timebase>24</timebase>
											<ntsc>FALSE</ntsc>
										</rate>
										<width>1920</width>
										<height>1080</height>
										<anamorphic>FALSE</anamorphic>
										<pixelaspectratio>square</pixelaspectratio>
										<fielddominance>none</fielddominance>
									</samplecharacteristics>
								</video>
								<audio>
									<samplecharacteristics>
										<depth>16</depth>
										<samplerate>48000</samplerate>
									</samplecharacteristics>
									<channelcount>2</channelcount>
								</audio>
							</media>
						</file>
						<link>
							<linkclipref>clipitem-83</linkclipref>
							<mediatype>video</mediatype>
							<trackindex>1</trackindex>
							<clipindex>85</clipindex>
						</link>
						<link>
							<linkclipref>clipitem-516</linkclipref>
							<mediatype>audio</mediatype>
							<trackindex>1</trackindex>
							<clipindex>40</clipindex>
							<groupindex>1</groupindex>
						</link>
						<link>
							<linkclipref>clipitem-680</linkclipref>
							<mediatype>audio</mediatype>
							<trackindex>2</trackindex>
							<clipindex>40</clipindex>
							<groupindex>1</groupindex>
						</link>
						<logginginfo>
							<description></description>
							<scene></scene>
							<shottake></shottake>
							<lognote></lognote>
							<good></good>
							<originalvideofilename></originalvideofilename>
							<originalaudiofilename></originalaudiofilename>
						</logginginfo>
						<colorinfo>
							<lut></lut>
							<lut1></lut1>
							<asc_sop></asc_sop>
							<asc_sat></asc_sat>
							<lut2></lut2>
						</colorinfo>
						<labels>
							<label2>Iris</label2>
						</labels>
					</clipitem>
					<clipitem id="clipitem-84">
						<masterclipid>masterclip-39</masterclipid>
						<name>A002_05290604_C206.mp4</name>
						<enabled>TRUE</enabled>
						<duration>286</duration>
						<rate>
							<timebase>24</timebase>
							<ntsc>FALSE</ntsc>
						</rate>
						<start>7910</start>
						<end>8115</end>
						<in>52</in>
						<out>257</out>
						<pproTicksIn>550368000000</pproTicksIn>
						<pproTicksOut>2720088000000</pproTicksOut>
						<alphatype>none</alphatype>
						<pixelaspectratio>square</pixelaspectratio>
						<anamorphic>FALSE</anamorphic>
						<file id="file-39">
							<name>A002_05290604_C206.mp4</name>
							<pathurl>file://localhost/F%3a/bengaluru%20scenes/scene%2039/3/B/A002_05290604_C206.mp4</pathurl>
							<rate>
								<timebase>24</timebase>
								<ntsc>FALSE</ntsc>
							</rate>
							<duration>286</duration>
							<timecode>
								<rate>
									<timebase>24</timebase>
									<ntsc>FALSE</ntsc>
								</rate>
								<string>00:00:00:00</string>
								<frame>0</frame>
								<displayformat>NDF</displayformat>
							</timecode>
							<media>
								<video>
									<samplecharacteristics>
										<rate>
											<timebase>24</timebase>
											<ntsc>FALSE</ntsc>
										</rate>
										<width>1920</width>
										<height>1080</height>
										<anamorphic>FALSE</anamorphic>
										<pixelaspectratio>square</pixelaspectratio>
										<fielddominance>none</fielddominance>
									</samplecharacteristics>
								</video>
								<audio>
									<samplecharacteristics>
										<depth>16</depth>
										<samplerate>48000</samplerate>
									</samplecharacteristics>
									<channelcount>2</channelcount>
								</audio>
							</media>
						</file>
						<link>
							<linkclipref>clipitem-84</linkclipref>
							<mediatype>video</mediatype>
							<trackindex>1</trackindex>
							<clipindex>86</clipindex>
						</link>
						<link>
							<linkclipref>clipitem-517</linkclipref>
							<mediatype>audio</mediatype>
							<trackindex>1</trackindex>
							<clipindex>41</clipindex>
							<groupindex>1</groupindex>
						</link>
						<link>
							<linkclipref>clipitem-681</linkclipref>
							<mediatype>audio</mediatype>
							<trackindex>2</trackindex>
							<clipindex>41</clipindex>
							<groupindex>1</groupindex>
						</link>
						<logginginfo>
							<description></description>
							<scene></scene>
							<shottake></shottake>
							<lognote></lognote>
							<good></good>
							<originalvideofilename></originalvideofilename>
							<originalaudiofilename></originalaudiofilename>
						</logginginfo>
						<colorinfo>
							<lut></lut>
							<lut1></lut1>
							<asc_sop></asc_sop>
							<asc_sat></asc_sat>
							<lut2></lut2>
						</colorinfo>
						<labels>
							<label2>Iris</label2>
						</labels>
					</clipitem>
					<clipitem id="clipitem-85">
						<masterclipid>masterclip-40</masterclipid>
						<name>A002_05290643_C214.mp4</name>
						<enabled>TRUE</enabled>
						<duration>291</duration>
						<rate>
							<timebase>24</timebase>
							<ntsc>FALSE</ntsc>
						</rate>
						<start>8115</start>
						<end>8324</end>
						<in>53</in>
						<out>262</out>
						<pproTicksIn>560952000000</pproTicksIn>
						<pproTicksOut>2773008000000</pproTicksOut>
						<alphatype>none</alphatype>
						<pixelaspectratio>square</pixelaspectratio>
						<anamorphic>FALSE</anamorphic>
						<file id="file-40">
							<name>A002_05290643_C214.mp4</name>
							<pathurl>file://localhost/F%3a/bengaluru%20scenes/scene%2039/3/C/A002_05290643_C214.mp4</pathurl>
							<rate>
								<timebase>24</timebase>
								<ntsc>FALSE</ntsc>
							</rate>
							<duration>291</duration>
							<timecode>
								<rate>
									<timebase>24</timebase>
									<ntsc>FALSE</ntsc>
								</rate>
								<string>00:00:00:00</string>
								<frame>0</frame>
								<displayformat>NDF</displayformat>
							</timecode>
							<media>
								<video>
									<samplecharacteristics>
										<rate>
											<timebase>24</timebase>
											<ntsc>FALSE</ntsc>
										</rate>
										<width>1920</width>
										<height>1080</height>
										<anamorphic>FALSE</anamorphic>
										<pixelaspectratio>square</pixelaspectratio>
										<fielddominance>none</fielddominance>
									</samplecharacteristics>
								</video>
								<audio>
									<samplecharacteristics>
										<depth>16</depth>
										<samplerate>48000</samplerate>
									</samplecharacteristics>
									<channelcount>2</channelcount>
								</audio>
							</media>
						</file>
						<link>
							<linkclipref>clipitem-85</linkclipref>
							<mediatype>video</mediatype>
							<trackindex>1</trackindex>
							<clipindex>87</clipindex>
						</link>
						<link>
							<linkclipref>clipitem-518</linkclipref>
							<mediatype>audio</mediatype>
							<trackindex>1</trackindex>
							<clipindex>42</clipindex>
							<groupindex>1</groupindex>
						</link>
						<link>
							<linkclipref>clipitem-682</linkclipref>
							<mediatype>audio</mediatype>
							<trackindex>2</trackindex>
							<clipindex>42</clipindex>
							<groupindex>1</groupindex>
						</link>
						<logginginfo>
							<description></description>
							<scene></scene>
							<shottake></shottake>
							<lognote></lognote>
							<good></good>
							<originalvideofilename></originalvideofilename>
							<originalaudiofilename></originalaudiofilename>
						</logginginfo>
						<colorinfo>
							<lut></lut>
							<lut1></lut1>
							<asc_sop></asc_sop>
							<asc_sat></asc_sat>
							<lut2></lut2>
						</colorinfo>
						<labels>
							<label2>Iris</label2>
						</labels>
					</clipitem>
					<clipitem id="clipitem-86">
						<masterclipid>masterclip-41</masterclipid>
						<name>A006_06192222_C233.mp4</name>
						<enabled>TRUE</enabled>
						<duration>475</duration>
						<rate>
							<timebase>24</timebase>
							<ntsc>FALSE</ntsc>
						</rate>
						<start>8324</start>
						<end>8405</end>
						<in>236</in>
						<out>317</out>
						<pproTicksIn>2497824000000</pproTicksIn>
						<pproTicksOut>3355128000000</pproTicksOut>
						<alphatype>none</alphatype>
						<pixelaspectratio>square</pixelaspectratio>
						<anamorphic>FALSE</anamorphic>
						<file id="file-41">
							<name>A006_06192222_C233.mp4</name>
							<pathurl>file://localhost/F%3a/bengaluru%20scenes/scene%2037B%20INT%20of%2039/A006_06192222_C233.mp4</pathurl>
							<rate>
								<timebase>24</timebase>
								<ntsc>FALSE</ntsc>
							</rate>
							<duration>475</duration>
							<timecode>
								<rate>
									<timebase>24</timebase>
									<ntsc>FALSE</ntsc>
								</rate>
								<string>22:22:56:11</string>
								<frame>1933835</frame>
								<displayformat>NDF</displayformat>
							</timecode>
							<media>
								<video>
									<samplecharacteristics>
										<rate>
											<timebase>24</timebase>
											<ntsc>FALSE</ntsc>
										</rate>
										<width>1920</width>
										<height>1080</height>
										<anamorphic>FALSE</anamorphic>
										<pixelaspectratio>square</pixelaspectratio>
										<fielddominance>none</fielddominance>
									</samplecharacteristics>
								</video>
								<audio>
									<samplecharacteristics>
										<depth>16</depth>
										<samplerate>48000</samplerate>
									</samplecharacteristics>
									<channelcount>2</channelcount>
								</audio>
							</media>
						</file>
						<logginginfo>
							<description></description>
							<scene></scene>
							<shottake></shottake>
							<lognote></lognote>
							<good></good>
							<originalvideofilename></originalvideofilename>
							<originalaudiofilename></originalaudiofilename>
						</logginginfo>
						<colorinfo>
							<lut></lut>
							<lut1></lut1>
							<asc_sop></asc_sop>
							<asc_sat></asc_sat>
							<lut2></lut2>
						</colorinfo>
						<labels>
							<label2>Iris</label2>
						</labels>
					</clipitem>
					<clipitem id="clipitem-87">
						<masterclipid>masterclip-42</masterclipid>
						<name>A002_05290241_C167.mp4</name>
						<enabled>TRUE</enabled>
						<duration>749</duration>
						<rate>
							<timebase>24</timebase>
							<ntsc>FALSE</ntsc>
						</rate>
						<start>8405</start>
						<end>9012</end>
						<in>96</in>
						<out>703</out>
						<pproTicksIn>1016064000000</pproTicksIn>
						<pproTicksOut>7440552000000</pproTicksOut>
						<alphatype>none</alphatype>
						<pixelaspectratio>square</pixelaspectratio>
						<anamorphic>FALSE</anamorphic>
						<file id="file-42">
							<name>A002_05290241_C167.mp4</name>
							<pathurl>file://localhost/F%3a/bengaluru%20scenes/scene%2039/4/A/A002_05290241_C167.mp4</pathurl>
							<rate>
								<timebase>24</timebase>
								<ntsc>FALSE</ntsc>
							</rate>
							<duration>749</duration>
							<timecode>
								<rate>
									<timebase>24</timebase>
									<ntsc>FALSE</ntsc>
								</rate>
								<string>00:00:00:00</string>
								<frame>0</frame>
								<displayformat>NDF</displayformat>
							</timecode>
							<media>
								<video>
									<samplecharacteristics>
										<rate>
											<timebase>24</timebase>
											<ntsc>FALSE</ntsc>
										</rate>
										<width>1920</width>
										<height>1080</height>
										<anamorphic>FALSE</anamorphic>
										<pixelaspectratio>square</pixelaspectratio>
										<fielddominance>none</fielddominance>
									</samplecharacteristics>
								</video>
								<audio>
									<samplecharacteristics>
										<depth>16</depth>
										<samplerate>48000</samplerate>
									</samplecharacteristics>
									<channelcount>2</channelcount>
								</audio>
							</media>
						</file>
						<link>
							<linkclipref>clipitem-87</linkclipref>
							<mediatype>video</mediatype>
							<trackindex>1</trackindex>
							<clipindex>89</clipindex>
						</link>
						<link>
							<linkclipref>clipitem-520</linkclipref>
							<mediatype>audio</mediatype>
							<trackindex>1</trackindex>
							<clipindex>44</clipindex>
							<groupindex>1</groupindex>
						</link>
						<link>
							<linkclipref>clipitem-684</linkclipref>
							<mediatype>audio</mediatype>
							<trackindex>2</trackindex>
							<clipindex>44</clipindex>
							<groupindex>1</groupindex>
						</link>
						<logginginfo>
							<description></description>
							<scene></scene>
							<shottake></shottake>
							<lognote></lognote>
							<good></good>
							<originalvideofilename></originalvideofilename>
							<originalaudiofilename></originalaudiofilename>
						</logginginfo>
						<colorinfo>
							<lut></lut>
							<lut1></lut1>
							<asc_sop></asc_sop>
							<asc_sat></asc_sat>
							<lut2></lut2>
						</colorinfo>
						<labels>
							<label2>Iris</label2>
						</labels>
					</clipitem>
					<clipitem id="clipitem-88">
						<masterclipid>masterclip-43</masterclipid>
						<name>A002_05290803_C231.mp4</name>
						<enabled>TRUE</enabled>
						<duration>388</duration>
						<rate>
							<timebase>24</timebase>
							<ntsc>FALSE</ntsc>
						</rate>
						<start>9012</start>
						<end>9304</end>
						<in>67</in>
						<out>359</out>
						<pproTicksIn>709128000000</pproTicksIn>
						<pproTicksOut>3799656000000</pproTicksOut>
						<alphatype>none</alphatype>
						<pixelaspectratio>square</pixelaspectratio>
						<anamorphic>FALSE</anamorphic>
						<file id="file-43">
							<name>A002_05290803_C231.mp4</name>
							<pathurl>file://localhost/F%3a/bengaluru%20scenes/scene%2039/4/B/A002_05290803_C231.mp4</pathurl>
							<rate>
								<timebase>24</timebase>
								<ntsc>FALSE</ntsc>
							</rate>
							<duration>388</duration>
							<timecode>
								<rate>
									<timebase>24</timebase>
									<ntsc>FALSE</ntsc>
								</rate>
								<string>00:00:00:00</string>
								<frame>0</frame>
								<displayformat>NDF</displayformat>
							</timecode>
							<media>
								<video>
									<samplecharacteristics>
										<rate>
											<timebase>24</timebase>
											<ntsc>FALSE</ntsc>
										</rate>
										<width>1920</width>
										<height>1080</height>
										<anamorphic>FALSE</anamorphic>
										<pixelaspectratio>square</pixelaspectratio>
										<fielddominance>none</fielddominance>
									</samplecharacteristics>
								</video>
								<audio>
									<samplecharacteristics>
										<depth>16</depth>
										<samplerate>48000</samplerate>
									</samplecharacteristics>
									<channelcount>2</channelcount>
								</audio>
							</media>
						</file>
						<link>
							<linkclipref>clipitem-88</linkclipref>
							<mediatype>video</mediatype>
							<trackindex>1</trackindex>
							<clipindex>90</clipindex>
						</link>
						<link>
							<linkclipref>clipitem-521</linkclipref>
							<mediatype>audio</mediatype>
							<trackindex>1</trackindex>
							<clipindex>45</clipindex>
							<groupindex>1</groupindex>
						</link>
						<link>
							<linkclipref>clipitem-685</linkclipref>
							<mediatype>audio</mediatype>
							<trackindex>2</trackindex>
							<clipindex>45</clipindex>
							<groupindex>1</groupindex>
						</link>
						<logginginfo>
							<description></description>
							<scene></scene>
							<shottake></shottake>
							<lognote></lognote>
							<good></good>
							<originalvideofilename></originalvideofilename>
							<originalaudiofilename></originalaudiofilename>
						</logginginfo>
						<colorinfo>
							<lut></lut>
							<lut1></lut1>
							<asc_sop></asc_sop>
							<asc_sat></asc_sat>
							<lut2></lut2>
						</colorinfo>
						<labels>
							<label2>Iris</label2>
						</labels>
					</clipitem>
					<clipitem id="clipitem-89">
						<masterclipid>masterclip-44</masterclipid>
						<name>A006_06192219_C228.mp4</name>
						<enabled>TRUE</enabled>
						<duration>674</duration>
						<rate>
							<timebase>24</timebase>
							<ntsc>FALSE</ntsc>
						</rate>
						<start>9304</start>
						<end>9430</end>
						<in>344</in>
						<out>470</out>
						<pproTicksIn>3640896000000</pproTicksIn>
						<pproTicksOut>4974480000000</pproTicksOut>
						<alphatype>none</alphatype>
						<pixelaspectratio>square</pixelaspectratio>
						<anamorphic>FALSE</anamorphic>
						<file id="file-44">
							<name>A006_06192219_C228.mp4</name>
							<pathurl>file://localhost/F%3a/bengaluru%20scenes/scene%2037B%20INT%20of%2039/A006_06192219_C228.mp4</pathurl>
							<rate>
								<timebase>24</timebase>
								<ntsc>FALSE</ntsc>
							</rate>
							<duration>674</duration>
							<timecode>
								<rate>
									<timebase>24</timebase>
									<ntsc>FALSE</ntsc>
								</rate>
								<string>22:19:42:03</string>
								<frame>1929171</frame>
								<displayformat>NDF</displayformat>
							</timecode>
							<media>
								<video>
									<samplecharacteristics>
										<rate>
											<timebase>24</timebase>
											<ntsc>FALSE</ntsc>
										</rate>
										<width>1920</width>
										<height>1080</height>
										<anamorphic>FALSE</anamorphic>
										<pixelaspectratio>square</pixelaspectratio>
										<fielddominance>none</fielddominance>
									</samplecharacteristics>
								</video>
								<audio>
									<samplecharacteristics>
										<depth>16</depth>
										<samplerate>48000</samplerate>
									</samplecharacteristics>
									<channelcount>2</channelcount>
								</audio>
							</media>
						</file>
						<link>
							<linkclipref>clipitem-89</linkclipref>
							<mediatype>video</mediatype>
							<trackindex>1</trackindex>
							<clipindex>91</clipindex>
						</link>
						<link>
							<linkclipref>clipitem-522</linkclipref>
							<mediatype>audio</mediatype>
							<trackindex>1</trackindex>
							<clipindex>46</clipindex>
							<groupindex>1</groupindex>
						</link>
						<link>
							<linkclipref>clipitem-686</linkclipref>
							<mediatype>audio</mediatype>
							<trackindex>2</trackindex>
							<clipindex>46</clipindex>
							<groupindex>1</groupindex>
						</link>
						<logginginfo>
							<description></description>
							<scene></scene>
							<shottake></shottake>
							<lognote></lognote>
							<good></good>
							<originalvideofilename></originalvideofilename>
							<originalaudiofilename></originalaudiofilename>
						</logginginfo>
						<colorinfo>
							<lut></lut>
							<lut1></lut1>
							<asc_sop></asc_sop>
							<asc_sat></asc_sat>
							<lut2></lut2>
						</colorinfo>
						<labels>
							<label2>Iris</label2>
						</labels>
					</clipitem>
					<clipitem id="clipitem-90">
						<masterclipid>masterclip-45</masterclipid>
						<name>A002_05290216_C161.mp4</name>
						<enabled>TRUE</enabled>
						<duration>349</duration>
						<rate>
							<timebase>24</timebase>
							<ntsc>FALSE</ntsc>
						</rate>
						<start>9430</start>
						<end>9708</end>
						<in>36</in>
						<out>314</out>
						<pproTicksIn>381024000000</pproTicksIn>
						<pproTicksOut>3323376000000</pproTicksOut>
						<alphatype>none</alphatype>
						<pixelaspectratio>square</pixelaspectratio>
						<anamorphic>FALSE</anamorphic>
						<file id="file-45">
							<name>A002_05290216_C161.mp4</name>
							<pathurl>file://localhost/F%3a/bengaluru%20scenes/scene%2039/5/B/A002_05290216_C161.mp4</pathurl>
							<rate>
								<timebase>24</timebase>
								<ntsc>FALSE</ntsc>
							</rate>
							<duration>349</duration>
							<timecode>
								<rate>
									<timebase>24</timebase>
									<ntsc>FALSE</ntsc>
								</rate>
								<string>00:00:00:00</string>
								<frame>0</frame>
								<displayformat>NDF</displayformat>
							</timecode>
							<media>
								<video>
									<samplecharacteristics>
										<rate>
											<timebase>24</timebase>
											<ntsc>FALSE</ntsc>
										</rate>
										<width>1920</width>
										<height>1080</height>
										<anamorphic>FALSE</anamorphic>
										<pixelaspectratio>square</pixelaspectratio>
										<fielddominance>none</fielddominance>
									</samplecharacteristics>
								</video>
								<audio>
									<samplecharacteristics>
										<depth>16</depth>
										<samplerate>48000</samplerate>
									</samplecharacteristics>
									<channelcount>2</channelcount>
								</audio>
							</media>
						</file>
						<link>
							<linkclipref>clipitem-90</linkclipref>
							<mediatype>video</mediatype>
							<trackindex>1</trackindex>
							<clipindex>92</clipindex>
						</link>
						<link>
							<linkclipref>clipitem-523</linkclipref>
							<mediatype>audio</mediatype>
							<trackindex>1</trackindex>
							<clipindex>47</clipindex>
							<groupindex>1</groupindex>
						</link>
						<link>
							<linkclipref>clipitem-687</linkclipref>
							<mediatype>audio</mediatype>
							<trackindex>2</trackindex>
							<clipindex>47</clipindex>
							<groupindex>1</groupindex>
						</link>
						<logginginfo>
							<description></description>
							<scene></scene>
							<shottake></shottake>
							<lognote></lognote>
							<good></good>
							<originalvideofilename></originalvideofilename>
							<originalaudiofilename></originalaudiofilename>
						</logginginfo>
						<colorinfo>
							<lut></lut>
							<lut1></lut1>
							<asc_sop></asc_sop>
							<asc_sat></asc_sat>
							<lut2></lut2>
						</colorinfo>
						<labels>
							<label2>Iris</label2>
						</labels>
					</clipitem>
					<clipitem id="clipitem-91">
						<masterclipid>masterclip-46</masterclipid>
						<name>A002_05290158_C153.mp4</name>
						<enabled>TRUE</enabled>
						<duration>291</duration>
						<rate>
							<timebase>24</timebase>
							<ntsc>FALSE</ntsc>
						</rate>
						<start>9708</start>
						<end>9909</end>
						<in>58</in>
						<out>259</out>
						<pproTicksIn>613872000000</pproTicksIn>
						<pproTicksOut>2741256000000</pproTicksOut>
						<alphatype>none</alphatype>
						<pixelaspectratio>square</pixelaspectratio>
						<anamorphic>FALSE</anamorphic>
						<file id="file-46">
							<name>A002_05290158_C153.mp4</name>
							<pathurl>file://localhost/F%3a/bengaluru%20scenes/scene%2039/5/A/A002_05290158_C153.mp4</pathurl>
							<rate>
								<timebase>24</timebase>
								<ntsc>FALSE</ntsc>
							</rate>
							<duration>291</duration>
							<timecode>
								<rate>
									<timebase>24</timebase>
									<ntsc>FALSE</ntsc>
								</rate>
								<string>00:00:00:00</string>
								<frame>0</frame>
								<displayformat>NDF</displayformat>
							</timecode>
							<media>
								<video>
									<samplecharacteristics>
										<rate>
											<timebase>24</timebase>
											<ntsc>FALSE</ntsc>
										</rate>
										<width>1920</width>
										<height>1080</height>
										<anamorphic>FALSE</anamorphic>
										<pixelaspectratio>square</pixelaspectratio>
										<fielddominance>none</fielddominance>
									</samplecharacteristics>
								</video>
								<audio>
									<samplecharacteristics>
										<depth>16</depth>
										<samplerate>48000</samplerate>
									</samplecharacteristics>
									<channelcount>2</channelcount>
								</audio>
							</media>
						</file>
						<link>
							<linkclipref>clipitem-91</linkclipref>
							<mediatype>video</mediatype>
							<trackindex>1</trackindex>
							<clipindex>93</clipindex>
						</link>
						<link>
							<linkclipref>clipitem-524</linkclipref>
							<mediatype>audio</mediatype>
							<trackindex>1</trackindex>
							<clipindex>48</clipindex>
							<groupindex>1</groupindex>
						</link>
						<link>
							<linkclipref>clipitem-688</linkclipref>
							<mediatype>audio</mediatype>
							<trackindex>2</trackindex>
							<clipindex>48</clipindex>
							<groupindex>1</groupindex>
						</link>
						<logginginfo>
							<description></description>
							<scene></scene>
							<shottake></shottake>
							<lognote></lognote>
							<good></good>
							<originalvideofilename></originalvideofilename>
							<originalaudiofilename></originalaudiofilename>
						</logginginfo>
						<colorinfo>
							<lut></lut>
							<lut1></lut1>
							<asc_sop></asc_sop>
							<asc_sat></asc_sat>
							<lut2></lut2>
						</colorinfo>
						<labels>
							<label2>Iris</label2>
						</labels>
					</clipitem>
					<clipitem id="clipitem-92">
						<masterclipid>masterclip-47</masterclipid>
						<name>A006_06192206_C216.mp4</name>
						<enabled>TRUE</enabled>
						<duration>435</duration>
						<rate>
							<timebase>24</timebase>
							<ntsc>FALSE</ntsc>
						</rate>
						<start>9909</start>
						<end>9974</end>
						<in>133</in>
						<out>198</out>
						<pproTicksIn>1407672000000</pproTicksIn>
						<pproTicksOut>2095632000000</pproTicksOut>
						<alphatype>none</alphatype>
						<pixelaspectratio>square</pixelaspectratio>
						<anamorphic>FALSE</anamorphic>
						<file id="file-47">
							<name>A006_06192206_C216.mp4</name>
							<pathurl>file://localhost/F%3a/bengaluru%20scenes/scene%2037B%20INT%20of%2039/A006_06192206_C216.mp4</pathurl>
							<rate>
								<timebase>24</timebase>
								<ntsc>FALSE</ntsc>
							</rate>
							<duration>435</duration>
							<timecode>
								<rate>
									<timebase>24</timebase>
									<ntsc>FALSE</ntsc>
								</rate>
								<string>22:06:47:11</string>
								<frame>1910579</frame>
								<displayformat>NDF</displayformat>
							</timecode>
							<media>
								<video>
									<samplecharacteristics>
										<rate>
											<timebase>24</timebase>
											<ntsc>FALSE</ntsc>
										</rate>
										<width>1920</width>
										<height>1080</height>
										<anamorphic>FALSE</anamorphic>
										<pixelaspectratio>square</pixelaspectratio>
										<fielddominance>none</fielddominance>
									</samplecharacteristics>
								</video>
								<audio>
									<samplecharacteristics>
										<depth>16</depth>
										<samplerate>48000</samplerate>
									</samplecharacteristics>
									<channelcount>2</channelcount>
								</audio>
							</media>
						</file>
						<link>
							<linkclipref>clipitem-92</linkclipref>
							<mediatype>video</mediatype>
							<trackindex>1</trackindex>
							<clipindex>94</clipindex>
						</link>
						<link>
							<linkclipref>clipitem-525</linkclipref>
							<mediatype>audio</mediatype>
							<trackindex>1</trackindex>
							<clipindex>49</clipindex>
							<groupindex>1</groupindex>
						</link>
						<link>
							<linkclipref>clipitem-689</linkclipref>
							<mediatype>audio</mediatype>
							<trackindex>2</trackindex>
							<clipindex>49</clipindex>
							<groupindex>1</groupindex>
						</link>
						<logginginfo>
							<description></description>
							<scene></scene>
							<shottake></shottake>
							<lognote></lognote>
							<good></good>
							<originalvideofilename></originalvideofilename>
							<originalaudiofilename></originalaudiofilename>
						</logginginfo>
						<colorinfo>
							<lut></lut>
							<lut1></lut1>
							<asc_sop></asc_sop>
							<asc_sat></asc_sat>
							<lut2></lut2>
						</colorinfo>
						<labels>
							<label2>Iris</label2>
						</labels>
					</clipitem>
					<clipitem id="clipitem-93">
						<masterclipid>masterclip-48</masterclipid>
						<name>A002_05290539_C200.mp4</name>
						<enabled>TRUE</enabled>
						<duration>292</duration>
						<rate>
							<timebase>24</timebase>
							<ntsc>FALSE</ntsc>
						</rate>
						<start>9974</start>
						<end>10192</end>
						<in>50</in>
						<out>268</out>
						<pproTicksIn>529200000000</pproTicksIn>
						<pproTicksOut>2836512000000</pproTicksOut>
						<alphatype>none</alphatype>
						<pixelaspectratio>square</pixelaspectratio>
						<anamorphic>FALSE</anamorphic>
						<file id="file-48">
							<name>A002_05290539_C200.mp4</name>
							<pathurl>file://localhost/F%3a/bengaluru%20scenes/scene%2039/6/A/A002_05290539_C200.mp4</pathurl>
							<rate>
								<timebase>24</timebase>
								<ntsc>FALSE</ntsc>
							</rate>
							<duration>292</duration>
							<timecode>
								<rate>
									<timebase>24</timebase>
									<ntsc>FALSE</ntsc>
								</rate>
								<string>00:00:00:00</string>
								<frame>0</frame>
								<displayformat>NDF</displayformat>
							</timecode>
							<media>
								<video>
									<samplecharacteristics>
										<rate>
											<timebase>24</timebase>
											<ntsc>FALSE</ntsc>
										</rate>
										<width>1920</width>
										<height>1080</height>
										<anamorphic>FALSE</anamorphic>
										<pixelaspectratio>square</pixelaspectratio>
										<fielddominance>none</fielddominance>
									</samplecharacteristics>
								</video>
								<audio>
									<samplecharacteristics>
										<depth>16</depth>
										<samplerate>48000</samplerate>
									</samplecharacteristics>
									<channelcount>2</channelcount>
								</audio>
							</media>
						</file>
						<link>
							<linkclipref>clipitem-93</linkclipref>
							<mediatype>video</mediatype>
							<trackindex>1</trackindex>
							<clipindex>95</clipindex>
						</link>
						<link>
							<linkclipref>clipitem-526</linkclipref>
							<mediatype>audio</mediatype>
							<trackindex>1</trackindex>
							<clipindex>50</clipindex>
							<groupindex>1</groupindex>
						</link>
						<link>
							<linkclipref>clipitem-690</linkclipref>
							<mediatype>audio</mediatype>
							<trackindex>2</trackindex>
							<clipindex>50</clipindex>
							<groupindex>1</groupindex>
						</link>
						<logginginfo>
							<description></description>
							<scene></scene>
							<shottake></shottake>
							<lognote></lognote>
							<good></good>
							<originalvideofilename></originalvideofilename>
							<originalaudiofilename></originalaudiofilename>
						</logginginfo>
						<colorinfo>
							<lut></lut>
							<lut1></lut1>
							<asc_sop></asc_sop>
							<asc_sat></asc_sat>
							<lut2></lut2>
						</colorinfo>
						<labels>
							<label2>Iris</label2>
						</labels>
					</clipitem>
					<clipitem id="clipitem-94">
						<masterclipid>masterclip-49</masterclipid>
						<name>A002_05290708_C223.mp4</name>
						<enabled>TRUE</enabled>
						<duration>405</duration>
						<rate>
							<timebase>24</timebase>
							<ntsc>FALSE</ntsc>
						</rate>
						<start>10192</start>
						<end>10503</end>
						<in>67</in>
						<out>378</out>
						<pproTicksIn>709128000000</pproTicksIn>
						<pproTicksOut>4000752000000</pproTicksOut>
						<alphatype>none</alphatype>
						<pixelaspectratio>square</pixelaspectratio>
						<anamorphic>FALSE</anamorphic>
						<file id="file-49">
							<name>A002_05290708_C223.mp4</name>
							<pathurl>file://localhost/F%3a/bengaluru%20scenes/scene%2039/6/B/A002_05290708_C223.mp4</pathurl>
							<rate>
								<timebase>24</timebase>
								<ntsc>FALSE</ntsc>
							</rate>
							<duration>405</duration>
							<timecode>
								<rate>
									<timebase>24</timebase>
									<ntsc>FALSE</ntsc>
								</rate>
								<string>00:00:00:00</string>
								<frame>0</frame>
								<displayformat>NDF</displayformat>
							</timecode>
							<media>
								<video>
									<samplecharacteristics>
										<rate>
											<timebase>24</timebase>
											<ntsc>FALSE</ntsc>
										</rate>
										<width>1920</width>
										<height>1080</height>
										<anamorphic>FALSE</anamorphic>
										<pixelaspectratio>square</pixelaspectratio>
										<fielddominance>none</fielddominance>
									</samplecharacteristics>
								</video>
								<audio>
									<samplecharacteristics>
										<depth>16</depth>
										<samplerate>48000</samplerate>
									</samplecharacteristics>
									<channelcount>2</channelcount>
								</audio>
							</media>
						</file>
						<link>
							<linkclipref>clipitem-94</linkclipref>
							<mediatype>video</mediatype>
							<trackindex>1</trackindex>
							<clipindex>96</clipindex>
						</link>
						<link>
							<linkclipref>clipitem-527</linkclipref>
							<mediatype>audio</mediatype>
							<trackindex>1</trackindex>
							<clipindex>51</clipindex>
							<groupindex>1</groupindex>
						</link>
						<link>
							<linkclipref>clipitem-691</linkclipref>
							<mediatype>audio</mediatype>
							<trackindex>2</trackindex>
							<clipindex>51</clipindex>
							<groupindex>1</groupindex>
						</link>
						<logginginfo>
							<description></description>
							<scene></scene>
							<shottake></shottake>
							<lognote></lognote>
							<good></good>
							<originalvideofilename></originalvideofilename>
							<originalaudiofilename></originalaudiofilename>
						</logginginfo>
						<colorinfo>
							<lut></lut>
							<lut1></lut1>
							<asc_sop></asc_sop>
							<asc_sat></asc_sat>
							<lut2></lut2>
						</colorinfo>
						<labels>
							<label2>Iris</label2>
						</labels>
					</clipitem>
					<clipitem id="clipitem-95">
						<masterclipid>masterclip-50</masterclipid>
						<name>A006_06192207_C217.mp4</name>
						<enabled>TRUE</enabled>
						<duration>849</duration>
						<rate>
							<timebase>24</timebase>
							<ntsc>FALSE</ntsc>
						</rate>
						<start>10503</start>
						<end>10607</end>
						<in>621</in>
						<out>725</out>
						<pproTicksIn>6572664000000</pproTicksIn>
						<pproTicksOut>7673400000000</pproTicksOut>
						<alphatype>none</alphatype>
						<pixelaspectratio>square</pixelaspectratio>
						<anamorphic>FALSE</anamorphic>
						<file id="file-50">
							<name>A006_06192207_C217.mp4</name>
							<pathurl>file://localhost/F%3a/bengaluru%20scenes/scene%2037B%20INT%20of%2039/A006_06192207_C217.mp4</pathurl>
							<rate>
								<timebase>24</timebase>
								<ntsc>FALSE</ntsc>
							</rate>
							<duration>849</duration>
							<timecode>
								<rate>
									<timebase>24</timebase>
									<ntsc>FALSE</ntsc>
								</rate>
								<string>22:07:32:19</string>
								<frame>1911667</frame>
								<displayformat>NDF</displayformat>
							</timecode>
							<media>
								<video>
									<samplecharacteristics>
										<rate>
											<timebase>24</timebase>
											<ntsc>FALSE</ntsc>
										</rate>
										<width>1920</width>
										<height>1080</height>
										<anamorphic>FALSE</anamorphic>
										<pixelaspectratio>square</pixelaspectratio>
										<fielddominance>none</fielddominance>
									</samplecharacteristics>
								</video>
								<audio>
									<samplecharacteristics>
										<depth>16</depth>
										<samplerate>48000</samplerate>
									</samplecharacteristics>
									<channelcount>2</channelcount>
								</audio>
							</media>
						</file>
						<link>
							<linkclipref>clipitem-95</linkclipref>
							<mediatype>video</mediatype>
							<trackindex>1</trackindex>
							<clipindex>97</clipindex>
						</link>
						<link>
							<linkclipref>clipitem-528</linkclipref>
							<mediatype>audio</mediatype>
							<trackindex>1</trackindex>
							<clipindex>52</clipindex>
							<groupindex>1</groupindex>
						</link>
						<link>
							<linkclipref>clipitem-692</linkclipref>
							<mediatype>audio</mediatype>
							<trackindex>2</trackindex>
							<clipindex>52</clipindex>
							<groupindex>1</groupindex>
						</link>
						<logginginfo>
							<description></description>
							<scene></scene>
							<shottake></shottake>
							<lognote></lognote>
							<good></good>
							<originalvideofilename></originalvideofilename>
							<originalaudiofilename></originalaudiofilename>
						</logginginfo>
						<colorinfo>
							<lut></lut>
							<lut1></lut1>
							<asc_sop></asc_sop>
							<asc_sat></asc_sat>
							<lut2></lut2>
						</colorinfo>
						<labels>
							<label2>Iris</label2>
						</labels>
					</clipitem>
					<clipitem id="clipitem-96">
						<masterclipid>masterclip-51</masterclipid>
						<name>A002_05290306_C180.mp4</name>
						<enabled>TRUE</enabled>
						<duration>733</duration>
						<rate>
							<timebase>24</timebase>
							<ntsc>FALSE</ntsc>
						</rate>
						<start>10607</start>
						<end>11224</end>
						<in>61</in>
						<out>678</out>
						<pproTicksIn>645624000000</pproTicksIn>
						<pproTicksOut>7175952000000</pproTicksOut>
						<alphatype>none</alphatype>
						<pixelaspectratio>square</pixelaspectratio>
						<anamorphic>FALSE</anamorphic>
						<file id="file-51">
							<name>A002_05290306_C180.mp4</name>
							<pathurl>file://localhost/F%3a/bengaluru%20scenes/scene%2039/7/A002_05290306_C180.mp4</pathurl>
							<rate>
								<timebase>24</timebase>
								<ntsc>FALSE</ntsc>
							</rate>
							<duration>733</duration>
							<timecode>
								<rate>
									<timebase>24</timebase>
									<ntsc>FALSE</ntsc>
								</rate>
								<string>00:00:00:00</string>
								<frame>0</frame>
								<displayformat>NDF</displayformat>
							</timecode>
							<media>
								<video>
									<samplecharacteristics>
										<rate>
											<timebase>24</timebase>
											<ntsc>FALSE</ntsc>
										</rate>
										<width>1920</width>
										<height>1080</height>
										<anamorphic>FALSE</anamorphic>
										<pixelaspectratio>square</pixelaspectratio>
										<fielddominance>none</fielddominance>
									</samplecharacteristics>
								</video>
								<audio>
									<samplecharacteristics>
										<depth>16</depth>
										<samplerate>48000</samplerate>
									</samplecharacteristics>
									<channelcount>2</channelcount>
								</audio>
							</media>
						</file>
						<link>
							<linkclipref>clipitem-96</linkclipref>
							<mediatype>video</mediatype>
							<trackindex>1</trackindex>
							<clipindex>98</clipindex>
						</link>
						<link>
							<linkclipref>clipitem-529</linkclipref>
							<mediatype>audio</mediatype>
							<trackindex>1</trackindex>
							<clipindex>53</clipindex>
							<groupindex>1</groupindex>
						</link>
						<link>
							<linkclipref>clipitem-693</linkclipref>
							<mediatype>audio</mediatype>
							<trackindex>2</trackindex>
							<clipindex>53</clipindex>
							<groupindex>1</groupindex>
						</link>
						<logginginfo>
							<description></description>
							<scene></scene>
							<shottake></shottake>
							<lognote></lognote>
							<good></good>
							<originalvideofilename></originalvideofilename>
							<originalaudiofilename></originalaudiofilename>
						</logginginfo>
						<colorinfo>
							<lut></lut>
							<lut1></lut1>
							<asc_sop></asc_sop>
							<asc_sat></asc_sat>
							<lut2></lut2>
						</colorinfo>
						<labels>
							<label2>Iris</label2>
						</labels>
					</clipitem>
					<clipitem id="clipitem-97">
						<masterclipid>masterclip-52</masterclipid>
						<name>A015_03071919_C154.mov</name>
						<enabled>TRUE</enabled>
						<duration>2517</duration>
						<rate>
							<timebase>24</timebase>
							<ntsc>FALSE</ntsc>
						</rate>
						<start>11224</start>
						<end>11468</end>
						<in>0</in>
						<out>244</out>
						<pproTicksIn>0</pproTicksIn>
						<pproTicksOut>2582496000000</pproTicksOut>
						<alphatype>none</alphatype>
						<pixelaspectratio>square</pixelaspectratio>
						<anamorphic>FALSE</anamorphic>
						<file id="file-52">
							<name>A015_03071919_C154.mov</name>
							<pathurl>file://localhost/F%3a/bengaluru%20scenes/scene%2041/A015_03071919_C154.mov</pathurl>
							<rate>
								<timebase>24</timebase>
								<ntsc>FALSE</ntsc>
							</rate>
							<duration>2517</duration>
							<timecode>
								<rate>
									<timebase>24</timebase>
									<ntsc>FALSE</ntsc>
								</rate>
								<string>19:19:13:07</string>
								<frame>1669279</frame>
								<displayformat>NDF</displayformat>
							</timecode>
							<media>
								<video>
									<samplecharacteristics>
										<rate>
											<timebase>24</timebase>
											<ntsc>FALSE</ntsc>
										</rate>
										<width>1920</width>
										<height>1080</height>
										<anamorphic>FALSE</anamorphic>
										<pixelaspectratio>square</pixelaspectratio>
										<fielddominance>none</fielddominance>
									</samplecharacteristics>
								</video>
								<audio>
									<samplecharacteristics>
										<depth>16</depth>
										<samplerate>48000</samplerate>
									</samplecharacteristics>
									<channelcount>2</channelcount>
								</audio>
							</media>
						</file>
						<link>
							<linkclipref>clipitem-97</linkclipref>
							<mediatype>video</mediatype>
							<trackindex>1</trackindex>
							<clipindex>99</clipindex>
						</link>
						<link>
							<linkclipref>clipitem-530</linkclipref>
							<mediatype>audio</mediatype>
							<trackindex>1</trackindex>
							<clipindex>54</clipindex>
							<groupindex>1</groupindex>
						</link>
						<link>
							<linkclipref>clipitem-694</linkclipref>
							<mediatype>audio</mediatype>
							<trackindex>2</trackindex>
							<clipindex>54</clipindex>
							<groupindex>1</groupindex>
						</link>
						<logginginfo>
							<description></description>
							<scene></scene>
							<shottake></shottake>
							<lognote></lognote>
							<good></good>
							<originalvideofilename></originalvideofilename>
							<originalaudiofilename></originalaudiofilename>
						</logginginfo>
						<colorinfo>
							<lut></lut>
							<lut1></lut1>
							<asc_sop></asc_sop>
							<asc_sat></asc_sat>
							<lut2></lut2>
						</colorinfo>
						<labels>
							<label2>Iris</label2>
						</labels>
					</clipitem>
					<clipitem id="clipitem-98">
						<masterclipid>masterclip-53</masterclipid>
						<name>A015_03071929_C156.mov</name>
						<enabled>TRUE</enabled>
						<duration>2423</duration>
						<rate>
							<timebase>24</timebase>
							<ntsc>FALSE</ntsc>
						</rate>
						<start>11468</start>
						<end>11682</end>
						<in>362</in>
						<out>576</out>
						<pproTicksIn>3831408000000</pproTicksIn>
						<pproTicksOut>6096384000000</pproTicksOut>
						<alphatype>none</alphatype>
						<pixelaspectratio>square</pixelaspectratio>
						<anamorphic>FALSE</anamorphic>
						<file id="file-53">
							<name>A015_03071929_C156.mov</name>
							<pathurl>file://localhost/F%3a/bengaluru%20scenes/scene%2041/A015_03071929_C156.mov</pathurl>
							<rate>
								<timebase>24</timebase>
								<ntsc>FALSE</ntsc>
							</rate>
							<duration>2423</duration>
							<timecode>
								<rate>
									<timebase>24</timebase>
									<ntsc>FALSE</ntsc>
								</rate>
								<string>19:29:31:15</string>
								<frame>1684119</frame>
								<displayformat>NDF</displayformat>
							</timecode>
							<media>
								<video>
									<samplecharacteristics>
										<rate>
											<timebase>24</timebase>
											<ntsc>FALSE</ntsc>
										</rate>
										<width>1920</width>
										<height>1080</height>
										<anamorphic>FALSE</anamorphic>
										<pixelaspectratio>square</pixelaspectratio>
										<fielddominance>none</fielddominance>
									</samplecharacteristics>
								</video>
								<audio>
									<samplecharacteristics>
										<depth>16</depth>
										<samplerate>48000</samplerate>
									</samplecharacteristics>
									<channelcount>2</channelcount>
								</audio>
							</media>
						</file>
						<link>
							<linkclipref>clipitem-98</linkclipref>
							<mediatype>video</mediatype>
							<trackindex>1</trackindex>
							<clipindex>100</clipindex>
						</link>
						<link>
							<linkclipref>clipitem-531</linkclipref>
							<mediatype>audio</mediatype>
							<trackindex>1</trackindex>
							<clipindex>55</clipindex>
							<groupindex>1</groupindex>
						</link>
						<link>
							<linkclipref>clipitem-695</linkclipref>
							<mediatype>audio</mediatype>
							<trackindex>2</trackindex>
							<clipindex>55</clipindex>
							<groupindex>1</groupindex>
						</link>
						<logginginfo>
							<description></description>
							<scene></scene>
							<shottake></shottake>
							<lognote></lognote>
							<good></good>
							<originalvideofilename></originalvideofilename>
							<originalaudiofilename></originalaudiofilename>
						</logginginfo>
						<colorinfo>
							<lut></lut>
							<lut1></lut1>
							<asc_sop></asc_sop>
							<asc_sat></asc_sat>
							<lut2></lut2>
						</colorinfo>
						<labels>
							<label2>Iris</label2>
						</labels>
					</clipitem>
					<clipitem id="clipitem-99">
						<masterclipid>masterclip-54</masterclipid>
						<name>A002_05280716_C092.mp4</name>
						<enabled>TRUE</enabled>
						<duration>1504</duration>
						<rate>
							<timebase>24</timebase>
							<ntsc>FALSE</ntsc>
						</rate>
						<start>11682</start>
						<end>11854</end>
						<in>311</in>
						<out>483</out>
						<pproTicksIn>3291624000000</pproTicksIn>
						<pproTicksOut>5112072000000</pproTicksOut>
						<alphatype>none</alphatype>
						<pixelaspectratio>square</pixelaspectratio>
						<anamorphic>FALSE</anamorphic>
						<file id="file-54">
							<name>A002_05280716_C092.mp4</name>
							<pathurl>file://localhost/F%3a/bengaluru%20scenes/scene%2040/A002_05280716_C092.mp4</pathurl>
							<rate>
								<timebase>24</timebase>
								<ntsc>FALSE</ntsc>
							</rate>
							<duration>1504</duration>
							<timecode>
								<rate>
									<timebase>24</timebase>
									<ntsc>FALSE</ntsc>
								</rate>
								<string>00:00:00:00</string>
								<frame>0</frame>
								<displayformat>NDF</displayformat>
							</timecode>
							<media>
								<video>
									<samplecharacteristics>
										<rate>
											<timebase>24</timebase>
											<ntsc>FALSE</ntsc>
										</rate>
										<width>1920</width>
										<height>1080</height>
										<anamorphic>FALSE</anamorphic>
										<pixelaspectratio>square</pixelaspectratio>
										<fielddominance>none</fielddominance>
									</samplecharacteristics>
								</video>
								<audio>
									<samplecharacteristics>
										<depth>16</depth>
										<samplerate>48000</samplerate>
									</samplecharacteristics>
									<channelcount>2</channelcount>
								</audio>
							</media>
						</file>
						<logginginfo>
							<description></description>
							<scene></scene>
							<shottake></shottake>
							<lognote></lognote>
							<good></good>
							<originalvideofilename></originalvideofilename>
							<originalaudiofilename></originalaudiofilename>
						</logginginfo>
						<colorinfo>
							<lut></lut>
							<lut1></lut1>
							<asc_sop></asc_sop>
							<asc_sat></asc_sat>
							<lut2></lut2>
						</colorinfo>
						<labels>
							<label2>Iris</label2>
						</labels>
					</clipitem>
					<clipitem id="clipitem-100">
						<masterclipid>masterclip-55</masterclipid>
						<name>A002_05280722_C096.mp4</name>
						<enabled>TRUE</enabled>
						<duration>1368</duration>
						<rate>
							<timebase>24</timebase>
							<ntsc>FALSE</ntsc>
						</rate>
						<start>11854</start>
						<end>11909</end>
						<in>324</in>
						<out>379</out>
						<pproTicksIn>3429216000000</pproTicksIn>
						<pproTicksOut>4011336000000</pproTicksOut>
						<alphatype>none</alphatype>
						<pixelaspectratio>square</pixelaspectratio>
						<anamorphic>FALSE</anamorphic>
						<file id="file-55">
							<name>A002_05280722_C096.mp4</name>
							<pathurl>file://localhost/F%3a/bengaluru%20scenes/scene%2040/A002_05280722_C096.mp4</pathurl>
							<rate>
								<timebase>24</timebase>
								<ntsc>FALSE</ntsc>
							</rate>
							<duration>1368</duration>
							<timecode>
								<rate>
									<timebase>24</timebase>
									<ntsc>FALSE</ntsc>
								</rate>
								<string>00:00:00:00</string>
								<frame>0</frame>
								<displayformat>NDF</displayformat>
							</timecode>
							<media>
								<video>
									<samplecharacteristics>
										<rate>
											<timebase>24</timebase>
											<ntsc>FALSE</ntsc>
										</rate>
										<width>1920</width>
										<height>1080</height>
										<anamorphic>FALSE</anamorphic>
										<pixelaspectratio>square</pixelaspectratio>
										<fielddominance>none</fielddominance>
									</samplecharacteristics>
								</video>
								<audio>
									<samplecharacteristics>
										<depth>16</depth>
										<samplerate>48000</samplerate>
									</samplecharacteristics>
									<channelcount>2</channelcount>
								</audio>
							</media>
						</file>
						<logginginfo>
							<description></description>
							<scene></scene>
							<shottake></shottake>
							<lognote></lognote>
							<good></good>
							<originalvideofilename></originalvideofilename>
							<originalaudiofilename></originalaudiofilename>
						</logginginfo>
						<colorinfo>
							<lut></lut>
							<lut1></lut1>
							<asc_sop></asc_sop>
							<asc_sat></asc_sat>
							<lut2></lut2>
						</colorinfo>
						<labels>
							<label2>Iris</label2>
						</labels>
					</clipitem>
					<clipitem id="clipitem-101">
						<masterclipid>masterclip-56</masterclipid>
						<name>A002_05280725_C099.mp4</name>
						<enabled>TRUE</enabled>
						<duration>1303</duration>
						<rate>
							<timebase>24</timebase>
							<ntsc>FALSE</ntsc>
						</rate>
						<start>11909</start>
						<end>11997</end>
						<in>297</in>
						<out>385</out>
						<pproTicksIn>3143448000000</pproTicksIn>
						<pproTicksOut>4074840000000</pproTicksOut>
						<alphatype>none</alphatype>
						<pixelaspectratio>square</pixelaspectratio>
						<anamorphic>FALSE</anamorphic>
						<file id="file-56">
							<name>A002_05280725_C099.mp4</name>
							<pathurl>file://localhost/F%3a/bengaluru%20scenes/scene%2040/A002_05280725_C099.mp4</pathurl>
							<rate>
								<timebase>24</timebase>
								<ntsc>FALSE</ntsc>
							</rate>
							<duration>1303</duration>
							<timecode>
								<rate>
									<timebase>24</timebase>
									<ntsc>FALSE</ntsc>
								</rate>
								<string>00:00:00:00</string>
								<frame>0</frame>
								<displayformat>NDF</displayformat>
							</timecode>
							<media>
								<video>
									<samplecharacteristics>
										<rate>
											<timebase>24</timebase>
											<ntsc>FALSE</ntsc>
										</rate>
										<width>1920</width>
										<height>1080</height>
										<anamorphic>FALSE</anamorphic>
										<pixelaspectratio>square</pixelaspectratio>
										<fielddominance>none</fielddominance>
									</samplecharacteristics>
								</video>
								<audio>
									<samplecharacteristics>
										<depth>16</depth>
										<samplerate>48000</samplerate>
									</samplecharacteristics>
									<channelcount>2</channelcount>
								</audio>
							</media>
						</file>
						<link>
							<linkclipref>clipitem-101</linkclipref>
							<mediatype>video</mediatype>
							<trackindex>1</trackindex>
							<clipindex>103</clipindex>
						</link>
						<link>
							<linkclipref>clipitem-533</linkclipref>
							<mediatype>audio</mediatype>
							<trackindex>1</trackindex>
							<clipindex>57</clipindex>
							<groupindex>1</groupindex>
						</link>
						<link>
							<linkclipref>clipitem-697</linkclipref>
							<mediatype>audio</mediatype>
							<trackindex>2</trackindex>
							<clipindex>57</clipindex>
							<groupindex>1</groupindex>
						</link>
						<logginginfo>
							<description></description>
							<scene></scene>
							<shottake></shottake>
							<lognote></lognote>
							<good></good>
							<originalvideofilename></originalvideofilename>
							<originalaudiofilename></originalaudiofilename>
						</logginginfo>
						<colorinfo>
							<lut></lut>
							<lut1></lut1>
							<asc_sop></asc_sop>
							<asc_sat></asc_sat>
							<lut2></lut2>
						</colorinfo>
						<labels>
							<label2>Iris</label2>
						</labels>
					</clipitem>
					<clipitem id="clipitem-102">
						<masterclipid>masterclip-55</masterclipid>
						<name>A002_05280722_C096.mp4</name>
						<enabled>TRUE</enabled>
						<duration>1368</duration>
						<rate>
							<timebase>24</timebase>
							<ntsc>FALSE</ntsc>
						</rate>
						<start>11997</start>
						<end>12054</end>
						<in>467</in>
						<out>524</out>
						<pproTicksIn>4942728000000</pproTicksIn>
						<pproTicksOut>5546016000000</pproTicksOut>
						<alphatype>none</alphatype>
						<file id="file-55"/>
						<link>
							<linkclipref>clipitem-102</linkclipref>
							<mediatype>video</mediatype>
							<trackindex>1</trackindex>
							<clipindex>104</clipindex>
						</link>
						<link>
							<linkclipref>clipitem-534</linkclipref>
							<mediatype>audio</mediatype>
							<trackindex>1</trackindex>
							<clipindex>58</clipindex>
							<groupindex>1</groupindex>
						</link>
						<link>
							<linkclipref>clipitem-698</linkclipref>
							<mediatype>audio</mediatype>
							<trackindex>2</trackindex>
							<clipindex>58</clipindex>
							<groupindex>1</groupindex>
						</link>
						<logginginfo>
							<description></description>
							<scene></scene>
							<shottake></shottake>
							<lognote></lognote>
							<good></good>
							<originalvideofilename></originalvideofilename>
							<originalaudiofilename></originalaudiofilename>
						</logginginfo>
						<colorinfo>
							<lut></lut>
							<lut1></lut1>
							<asc_sop></asc_sop>
							<asc_sat></asc_sat>
							<lut2></lut2>
						</colorinfo>
						<labels>
							<label2>Iris</label2>
						</labels>
					</clipitem>
					<clipitem id="clipitem-103">
						<masterclipid>masterclip-55</masterclipid>
						<name>A002_05280722_C096.mp4</name>
						<enabled>TRUE</enabled>
						<duration>1368</duration>
						<rate>
							<timebase>24</timebase>
							<ntsc>FALSE</ntsc>
						</rate>
						<start>12054</start>
						<end>12149</end>
						<in>524</in>
						<out>619</out>
						<pproTicksIn>5546016000000</pproTicksIn>
						<pproTicksOut>6551496000000</pproTicksOut>
						<alphatype>none</alphatype>
						<file id="file-55"/>
						<link>
							<linkclipref>clipitem-103</linkclipref>
							<mediatype>video</mediatype>
							<trackindex>1</trackindex>
							<clipindex>105</clipindex>
						</link>
						<link>
							<linkclipref>clipitem-535</linkclipref>
							<mediatype>audio</mediatype>
							<trackindex>1</trackindex>
							<clipindex>59</clipindex>
							<groupindex>1</groupindex>
						</link>
						<link>
							<linkclipref>clipitem-699</linkclipref>
							<mediatype>audio</mediatype>
							<trackindex>2</trackindex>
							<clipindex>59</clipindex>
							<groupindex>1</groupindex>
						</link>
						<logginginfo>
							<description></description>
							<scene></scene>
							<shottake></shottake>
							<lognote></lognote>
							<good></good>
							<originalvideofilename></originalvideofilename>
							<originalaudiofilename></originalaudiofilename>
						</logginginfo>
						<colorinfo>
							<lut></lut>
							<lut1></lut1>
							<asc_sop></asc_sop>
							<asc_sat></asc_sat>
							<lut2></lut2>
						</colorinfo>
						<labels>
							<label2>Iris</label2>
						</labels>
					</clipitem>
					<clipitem id="clipitem-104">
						<masterclipid>masterclip-52</masterclipid>
						<name>A015_03071919_C154.mov</name>
						<enabled>TRUE</enabled>
						<duration>2517</duration>
						<rate>
							<timebase>24</timebase>
							<ntsc>FALSE</ntsc>
						</rate>
						<start>12149</start>
						<end>12202</end>
						<in>490</in>
						<out>543</out>
						<pproTicksIn>5186160000000</pproTicksIn>
						<pproTicksOut>5747112000000</pproTicksOut>
						<alphatype>none</alphatype>
						<file id="file-52"/>
						<link>
							<linkclipref>clipitem-104</linkclipref>
							<mediatype>video</mediatype>
							<trackindex>1</trackindex>
							<clipindex>106</clipindex>
						</link>
						<link>
							<linkclipref>clipitem-536</linkclipref>
							<mediatype>audio</mediatype>
							<trackindex>1</trackindex>
							<clipindex>60</clipindex>
							<groupindex>1</groupindex>
						</link>
						<link>
							<linkclipref>clipitem-700</linkclipref>
							<mediatype>audio</mediatype>
							<trackindex>2</trackindex>
							<clipindex>60</clipindex>
							<groupindex>1</groupindex>
						</link>
						<logginginfo>
							<description></description>
							<scene></scene>
							<shottake></shottake>
							<lognote></lognote>
							<good></good>
							<originalvideofilename></originalvideofilename>
							<originalaudiofilename></originalaudiofilename>
						</logginginfo>
						<colorinfo>
							<lut></lut>
							<lut1></lut1>
							<asc_sop></asc_sop>
							<asc_sat></asc_sat>
							<lut2></lut2>
						</colorinfo>
						<labels>
							<label2>Iris</label2>
						</labels>
					</clipitem>
					<clipitem id="clipitem-105">
						<masterclipid>masterclip-57</masterclipid>
						<name>A015_03071937_C162.mp4</name>
						<enabled>TRUE</enabled>
						<duration>2480</duration>
						<rate>
							<timebase>24</timebase>
							<ntsc>FALSE</ntsc>
						</rate>
						<start>12202</start>
						<end>12323</end>
						<in>68</in>
						<out>189</out>
						<pproTicksIn>719712000000</pproTicksIn>
						<pproTicksOut>2000376000000</pproTicksOut>
						<alphatype>none</alphatype>
						<pixelaspectratio>square</pixelaspectratio>
						<anamorphic>FALSE</anamorphic>
						<file id="file-57">
							<name>A015_03071937_C162.mp4</name>
							<pathurl>file://localhost/F%3a/bengaluru%20scenes/scene%2041/A015_03071937_C162.mp4</pathurl>
							<rate>
								<timebase>24</timebase>
								<ntsc>FALSE</ntsc>
							</rate>
							<duration>2480</duration>
							<timecode>
								<rate>
									<timebase>24</timebase>
									<ntsc>FALSE</ntsc>
								</rate>
								<string>00:00:00:00</string>
								<frame>0</frame>
								<displayformat>NDF</displayformat>
							</timecode>
							<media>
								<video>
									<samplecharacteristics>
										<rate>
											<timebase>24</timebase>
											<ntsc>FALSE</ntsc>
										</rate>
										<width>1280</width>
										<height>1080</height>
										<anamorphic>FALSE</anamorphic>
										<pixelaspectratio>square</pixelaspectratio>
										<fielddominance>none</fielddominance>
									</samplecharacteristics>
								</video>
								<audio>
									<samplecharacteristics>
										<depth>16</depth>
										<samplerate>48000</samplerate>
									</samplecharacteristics>
									<channelcount>2</channelcount>
								</audio>
							</media>
						</file>
						<filter>
							<effect>
								<name>Basic Motion</name>
								<effectid>basic</effectid>
								<effectcategory>motion</effectcategory>
								<effecttype>motion</effecttype>
								<mediatype>video</mediatype>
								<pproBypass>false</pproBypass>
								<parameter authoringApp="PremierePro">
									<parameterid>scale</parameterid>
									<name>Scale</name>
									<valuemin>0</valuemin>
									<valuemax>1000</valuemax>
									<value>148</value>
								</parameter>
								<parameter authoringApp="PremierePro">
									<parameterid>rotation</parameterid>
									<name>Rotation</name>
									<valuemin>-8640</valuemin>
									<valuemax>8640</valuemax>
									<value>0</value>
								</parameter>
								<parameter authoringApp="PremierePro">
									<parameterid>center</parameterid>
									<name>Center</name>
									<value>
										<horiz>0</horiz>
										<vert>0</vert>
									</value>
								</parameter>
								<parameter authoringApp="PremierePro">
									<parameterid>centerOffset</parameterid>
									<name>Anchor Point</name>
									<value>
										<horiz>0</horiz>
										<vert>0</vert>
									</value>
								</parameter>
								<parameter authoringApp="PremierePro">
									<parameterid>antiflicker</parameterid>
									<name>Anti-flicker Filter</name>
									<valuemin>0.0</valuemin>
									<valuemax>1.0</valuemax>
									<value>0</value>
								</parameter>
							</effect>
						</filter>
						<link>
							<linkclipref>clipitem-105</linkclipref>
							<mediatype>video</mediatype>
							<trackindex>1</trackindex>
							<clipindex>107</clipindex>
						</link>
						<link>
							<linkclipref>clipitem-537</linkclipref>
							<mediatype>audio</mediatype>
							<trackindex>1</trackindex>
							<clipindex>61</clipindex>
							<groupindex>1</groupindex>
						</link>
						<link>
							<linkclipref>clipitem-701</linkclipref>
							<mediatype>audio</mediatype>
							<trackindex>2</trackindex>
							<clipindex>61</clipindex>
							<groupindex>1</groupindex>
						</link>
						<logginginfo>
							<description></description>
							<scene></scene>
							<shottake></shottake>
							<lognote></lognote>
							<good></good>
							<originalvideofilename></originalvideofilename>
							<originalaudiofilename></originalaudiofilename>
						</logginginfo>
						<colorinfo>
							<lut></lut>
							<lut1></lut1>
							<asc_sop></asc_sop>
							<asc_sat></asc_sat>
							<lut2></lut2>
						</colorinfo>
						<labels>
							<label2>Iris</label2>
						</labels>
					</clipitem>
					<clipitem id="clipitem-106">
						<masterclipid>masterclip-52</masterclipid>
						<name>A015_03071919_C154.mov</name>
						<enabled>TRUE</enabled>
						<duration>2517</duration>
						<rate>
							<timebase>24</timebase>
							<ntsc>FALSE</ntsc>
						</rate>
						<start>12323</start>
						<end>12474</end>
						<in>707</in>
						<out>858</out>
						<pproTicksIn>7482888000000</pproTicksIn>
						<pproTicksOut>9081072000000</pproTicksOut>
						<alphatype>none</alphatype>
						<file id="file-52"/>
						<link>
							<linkclipref>clipitem-106</linkclipref>
							<mediatype>video</mediatype>
							<trackindex>1</trackindex>
							<clipindex>108</clipindex>
						</link>
						<link>
							<linkclipref>clipitem-538</linkclipref>
							<mediatype>audio</mediatype>
							<trackindex>1</trackindex>
							<clipindex>62</clipindex>
							<groupindex>1</groupindex>
						</link>
						<link>
							<linkclipref>clipitem-702</linkclipref>
							<mediatype>audio</mediatype>
							<trackindex>2</trackindex>
							<clipindex>62</clipindex>
							<groupindex>1</groupindex>
						</link>
						<logginginfo>
							<description></description>
							<scene></scene>
							<shottake></shottake>
							<lognote></lognote>
							<good></good>
							<originalvideofilename></originalvideofilename>
							<originalaudiofilename></originalaudiofilename>
						</logginginfo>
						<colorinfo>
							<lut></lut>
							<lut1></lut1>
							<asc_sop></asc_sop>
							<asc_sat></asc_sat>
							<lut2></lut2>
						</colorinfo>
						<labels>
							<label2>Iris</label2>
						</labels>
					</clipitem>
					<clipitem id="clipitem-107">
						<masterclipid>masterclip-58</masterclipid>
						<name>A015_03071947_C167.mov</name>
						<enabled>TRUE</enabled>
						<duration>1892</duration>
						<rate>
							<timebase>24</timebase>
							<ntsc>FALSE</ntsc>
						</rate>
						<start>12474</start>
						<end>12669</end>
						<in>418</in>
						<out>613</out>
						<pproTicksIn>4424112000000</pproTicksIn>
						<pproTicksOut>6487992000000</pproTicksOut>
						<alphatype>none</alphatype>
						<pixelaspectratio>square</pixelaspectratio>
						<anamorphic>FALSE</anamorphic>
						<file id="file-58">
							<name>A015_03071947_C167.mov</name>
							<pathurl>file://localhost/F%3a/bengaluru%20scenes/scene%2041/A015_03071947_C167.mov</pathurl>
							<rate>
								<timebase>24</timebase>
								<ntsc>FALSE</ntsc>
							</rate>
							<duration>1892</duration>
							<timecode>
								<rate>
									<timebase>24</timebase>
									<ntsc>FALSE</ntsc>
								</rate>
								<string>19:47:45:16</string>
								<frame>1710376</frame>
								<displayformat>NDF</displayformat>
							</timecode>
							<media>
								<video>
									<samplecharacteristics>
										<rate>
											<timebase>24</timebase>
											<ntsc>FALSE</ntsc>
										</rate>
										<width>1920</width>
										<height>1080</height>
										<anamorphic>FALSE</anamorphic>
										<pixelaspectratio>square</pixelaspectratio>
										<fielddominance>none</fielddominance>
									</samplecharacteristics>
								</video>
								<audio>
									<samplecharacteristics>
										<depth>16</depth>
										<samplerate>48000</samplerate>
									</samplecharacteristics>
									<channelcount>2</channelcount>
								</audio>
							</media>
						</file>
						<link>
							<linkclipref>clipitem-107</linkclipref>
							<mediatype>video</mediatype>
							<trackindex>1</trackindex>
							<clipindex>109</clipindex>
						</link>
						<link>
							<linkclipref>clipitem-539</linkclipref>
							<mediatype>audio</mediatype>
							<trackindex>1</trackindex>
							<clipindex>63</clipindex>
							<groupindex>1</groupindex>
						</link>
						<link>
							<linkclipref>clipitem-703</linkclipref>
							<mediatype>audio</mediatype>
							<trackindex>2</trackindex>
							<clipindex>63</clipindex>
							<groupindex>1</groupindex>
						</link>
						<logginginfo>
							<description></description>
							<scene></scene>
							<shottake></shottake>
							<lognote></lognote>
							<good></good>
							<originalvideofilename></originalvideofilename>
							<originalaudiofilename></originalaudiofilename>
						</logginginfo>
						<colorinfo>
							<lut></lut>
							<lut1></lut1>
							<asc_sop></asc_sop>
							<asc_sat></asc_sat>
							<lut2></lut2>
						</colorinfo>
						<labels>
							<label2>Iris</label2>
						</labels>
					</clipitem>
					<clipitem id="clipitem-108">
						<masterclipid>masterclip-52</masterclipid>
						<name>A015_03071919_C154.mov</name>
						<enabled>TRUE</enabled>
						<duration>2517</duration>
						<rate>
							<timebase>24</timebase>
							<ntsc>FALSE</ntsc>
						</rate>
						<start>12669</start>
						<end>12725</end>
						<in>1036</in>
						<out>1092</out>
						<pproTicksIn>10965024000000</pproTicksIn>
						<pproTicksOut>11557728000000</pproTicksOut>
						<alphatype>none</alphatype>
						<file id="file-52"/>
						<link>
							<linkclipref>clipitem-108</linkclipref>
							<mediatype>video</mediatype>
							<trackindex>1</trackindex>
							<clipindex>110</clipindex>
						</link>
						<link>
							<linkclipref>clipitem-540</linkclipref>
							<mediatype>audio</mediatype>
							<trackindex>1</trackindex>
							<clipindex>64</clipindex>
							<groupindex>1</groupindex>
						</link>
						<link>
							<linkclipref>clipitem-704</linkclipref>
							<mediatype>audio</mediatype>
							<trackindex>2</trackindex>
							<clipindex>64</clipindex>
							<groupindex>1</groupindex>
						</link>
						<logginginfo>
							<description></description>
							<scene></scene>
							<shottake></shottake>
							<lognote></lognote>
							<good></good>
							<originalvideofilename></originalvideofilename>
							<originalaudiofilename></originalaudiofilename>
						</logginginfo>
						<colorinfo>
							<lut></lut>
							<lut1></lut1>
							<asc_sop></asc_sop>
							<asc_sat></asc_sat>
							<lut2></lut2>
						</colorinfo>
						<labels>
							<label2>Iris</label2>
						</labels>
					</clipitem>
					<clipitem id="clipitem-109">
						<masterclipid>masterclip-52</masterclipid>
						<name>A015_03071919_C154.mov</name>
						<enabled>TRUE</enabled>
						<duration>2517</duration>
						<rate>
							<timebase>24</timebase>
							<ntsc>FALSE</ntsc>
						</rate>
						<start>12725</start>
						<end>12815</end>
						<in>1092</in>
						<out>1182</out>
						<pproTicksIn>11557728000000</pproTicksIn>
						<pproTicksOut>12510288000000</pproTicksOut>
						<alphatype>none</alphatype>
						<file id="file-52"/>
						<link>
							<linkclipref>clipitem-109</linkclipref>
							<mediatype>video</mediatype>
							<trackindex>1</trackindex>
							<clipindex>111</clipindex>
						</link>
						<link>
							<linkclipref>clipitem-541</linkclipref>
							<mediatype>audio</mediatype>
							<trackindex>1</trackindex>
							<clipindex>65</clipindex>
							<groupindex>1</groupindex>
						</link>
						<link>
							<linkclipref>clipitem-705</linkclipref>
							<mediatype>audio</mediatype>
							<trackindex>2</trackindex>
							<clipindex>65</clipindex>
							<groupindex>1</groupindex>
						</link>
						<logginginfo>
							<description></description>
							<scene></scene>
							<shottake></shottake>
							<lognote></lognote>
							<good></good>
							<originalvideofilename></originalvideofilename>
							<originalaudiofilename></originalaudiofilename>
						</logginginfo>
						<colorinfo>
							<lut></lut>
							<lut1></lut1>
							<asc_sop></asc_sop>
							<asc_sat></asc_sat>
							<lut2></lut2>
						</colorinfo>
						<labels>
							<label2>Iris</label2>
						</labels>
					</clipitem>
					<clipitem id="clipitem-110">
						<masterclipid>masterclip-53</masterclipid>
						<name>A015_03071929_C156.mov</name>
						<enabled>TRUE</enabled>
						<duration>2423</duration>
						<rate>
							<timebase>24</timebase>
							<ntsc>FALSE</ntsc>
						</rate>
						<start>12815</start>
						<end>12889</end>
						<in>1279</in>
						<out>1353</out>
						<pproTicksIn>13536936000000</pproTicksIn>
						<pproTicksOut>14320152000000</pproTicksOut>
						<alphatype>none</alphatype>
						<file id="file-53"/>
						<link>
							<linkclipref>clipitem-110</linkclipref>
							<mediatype>video</mediatype>
							<trackindex>1</trackindex>
							<clipindex>112</clipindex>
						</link>
						<link>
							<linkclipref>clipitem-542</linkclipref>
							<mediatype>audio</mediatype>
							<trackindex>1</trackindex>
							<clipindex>66</clipindex>
							<groupindex>1</groupindex>
						</link>
						<link>
							<linkclipref>clipitem-706</linkclipref>
							<mediatype>audio</mediatype>
							<trackindex>2</trackindex>
							<clipindex>66</clipindex>
							<groupindex>1</groupindex>
						</link>
						<logginginfo>
							<description></description>
							<scene></scene>
							<shottake></shottake>
							<lognote></lognote>
							<good></good>
							<originalvideofilename></originalvideofilename>
							<originalaudiofilename></originalaudiofilename>
						</logginginfo>
						<colorinfo>
							<lut></lut>
							<lut1></lut1>
							<asc_sop></asc_sop>
							<asc_sat></asc_sat>
							<lut2></lut2>
						</colorinfo>
						<labels>
							<label2>Iris</label2>
						</labels>
					</clipitem>
					<clipitem id="clipitem-111">
						<masterclipid>masterclip-52</masterclipid>
						<name>A015_03071919_C154.mov</name>
						<enabled>TRUE</enabled>
						<duration>2517</duration>
						<rate>
							<timebase>24</timebase>
							<ntsc>FALSE</ntsc>
						</rate>
						<start>12889</start>
						<end>13133</end>
						<in>1248</in>
						<out>1492</out>
						<pproTicksIn>13208832000000</pproTicksIn>
						<pproTicksOut>15791328000000</pproTicksOut>
						<alphatype>none</alphatype>
						<file id="file-52"/>
						<link>
							<linkclipref>clipitem-111</linkclipref>
							<mediatype>video</mediatype>
							<trackindex>1</trackindex>
							<clipindex>113</clipindex>
						</link>
						<link>
							<linkclipref>clipitem-543</linkclipref>
							<mediatype>audio</mediatype>
							<trackindex>1</trackindex>
							<clipindex>67</clipindex>
							<groupindex>1</groupindex>
						</link>
						<link>
							<linkclipref>clipitem-707</linkclipref>
							<mediatype>audio</mediatype>
							<trackindex>2</trackindex>
							<clipindex>67</clipindex>
							<groupindex>1</groupindex>
						</link>
						<logginginfo>
							<description></description>
							<scene></scene>
							<shottake></shottake>
							<lognote></lognote>
							<good></good>
							<originalvideofilename></originalvideofilename>
							<originalaudiofilename></originalaudiofilename>
						</logginginfo>
						<colorinfo>
							<lut></lut>
							<lut1></lut1>
							<asc_sop></asc_sop>
							<asc_sat></asc_sat>
							<lut2></lut2>
						</colorinfo>
						<labels>
							<label2>Iris</label2>
						</labels>
					</clipitem>
					<clipitem id="clipitem-112">
						<masterclipid>masterclip-55</masterclipid>
						<name>A002_05280722_C096.mp4</name>
						<enabled>TRUE</enabled>
						<duration>1368</duration>
						<rate>
							<timebase>24</timebase>
							<ntsc>FALSE</ntsc>
						</rate>
						<start>13133</start>
						<end>13205</end>
						<in>620</in>
						<out>692</out>
						<pproTicksIn>6562080000000</pproTicksIn>
						<pproTicksOut>7324128000000</pproTicksOut>
						<alphatype>none</alphatype>
						<file id="file-55"/>
						<link>
							<linkclipref>clipitem-112</linkclipref>
							<mediatype>video</mediatype>
							<trackindex>1</trackindex>
							<clipindex>114</clipindex>
						</link>
						<link>
							<linkclipref>clipitem-544</linkclipref>
							<mediatype>audio</mediatype>
							<trackindex>1</trackindex>
							<clipindex>68</clipindex>
							<groupindex>1</groupindex>
						</link>
						<link>
							<linkclipref>clipitem-708</linkclipref>
							<mediatype>audio</mediatype>
							<trackindex>2</trackindex>
							<clipindex>68</clipindex>
							<groupindex>1</groupindex>
						</link>
						<logginginfo>
							<description></description>
							<scene></scene>
							<shottake></shottake>
							<lognote></lognote>
							<good></good>
							<originalvideofilename></originalvideofilename>
							<originalaudiofilename></originalaudiofilename>
						</logginginfo>
						<colorinfo>
							<lut></lut>
							<lut1></lut1>
							<asc_sop></asc_sop>
							<asc_sat></asc_sat>
							<lut2></lut2>
						</colorinfo>
						<labels>
							<label2>Iris</label2>
						</labels>
					</clipitem>
					<clipitem id="clipitem-113">
						<masterclipid>masterclip-58</masterclipid>
						<name>A015_03071947_C167.mov</name>
						<enabled>TRUE</enabled>
						<duration>1892</duration>
						<rate>
							<timebase>24</timebase>
							<ntsc>FALSE</ntsc>
						</rate>
						<start>13205</start>
						<end>13220</end>
						<in>1112</in>
						<out>1127</out>
						<pproTicksIn>11769408000000</pproTicksIn>
						<pproTicksOut>11928168000000</pproTicksOut>
						<alphatype>none</alphatype>
						<file id="file-58"/>
						<link>
							<linkclipref>clipitem-113</linkclipref>
							<mediatype>video</mediatype>
							<trackindex>1</trackindex>
							<clipindex>115</clipindex>
						</link>
						<link>
							<linkclipref>clipitem-545</linkclipref>
							<mediatype>audio</mediatype>
							<trackindex>1</trackindex>
							<clipindex>69</clipindex>
							<groupindex>1</groupindex>
						</link>
						<link>
							<linkclipref>clipitem-709</linkclipref>
							<mediatype>audio</mediatype>
							<trackindex>2</trackindex>
							<clipindex>69</clipindex>
							<groupindex>1</groupindex>
						</link>
						<logginginfo>
							<description></description>
							<scene></scene>
							<shottake></shottake>
							<lognote></lognote>
							<good></good>
							<originalvideofilename></originalvideofilename>
							<originalaudiofilename></originalaudiofilename>
						</logginginfo>
						<colorinfo>
							<lut></lut>
							<lut1></lut1>
							<asc_sop></asc_sop>
							<asc_sat></asc_sat>
							<lut2></lut2>
						</colorinfo>
						<labels>
							<label2>Iris</label2>
						</labels>
					</clipitem>
					<clipitem id="clipitem-114">
						<masterclipid>masterclip-58</masterclipid>
						<name>A015_03071947_C167.mov</name>
						<enabled>TRUE</enabled>
						<duration>1892</duration>
						<rate>
							<timebase>24</timebase>
							<ntsc>FALSE</ntsc>
						</rate>
						<start>13220</start>
						<end>13273</end>
						<in>1127</in>
						<out>1180</out>
						<pproTicksIn>11928168000000</pproTicksIn>
						<pproTicksOut>12489120000000</pproTicksOut>
						<alphatype>none</alphatype>
						<file id="file-58"/>
						<link>
							<linkclipref>clipitem-114</linkclipref>
							<mediatype>video</mediatype>
							<trackindex>1</trackindex>
							<clipindex>116</clipindex>
						</link>
						<link>
							<linkclipref>clipitem-546</linkclipref>
							<mediatype>audio</mediatype>
							<trackindex>1</trackindex>
							<clipindex>70</clipindex>
							<groupindex>1</groupindex>
						</link>
						<link>
							<linkclipref>clipitem-710</linkclipref>
							<mediatype>audio</mediatype>
							<trackindex>2</trackindex>
							<clipindex>70</clipindex>
							<groupindex>1</groupindex>
						</link>
						<logginginfo>
							<description></description>
							<scene></scene>
							<shottake></shottake>
							<lognote></lognote>
							<good></good>
							<originalvideofilename></originalvideofilename>
							<originalaudiofilename></originalaudiofilename>
						</logginginfo>
						<colorinfo>
							<lut></lut>
							<lut1></lut1>
							<asc_sop></asc_sop>
							<asc_sat></asc_sat>
							<lut2></lut2>
						</colorinfo>
						<labels>
							<label2>Iris</label2>
						</labels>
					</clipitem>
					<clipitem id="clipitem-115">
						<masterclipid>masterclip-56</masterclipid>
						<name>A002_05280725_C099.mp4</name>
						<enabled>TRUE</enabled>
						<duration>1303</duration>
						<rate>
							<timebase>24</timebase>
							<ntsc>FALSE</ntsc>
						</rate>
						<start>13273</start>
						<end>13299</end>
						<in>667</in>
						<out>693</out>
						<pproTicksIn>7059528000000</pproTicksIn>
						<pproTicksOut>7334712000000</pproTicksOut>
						<alphatype>none</alphatype>
						<file id="file-56"/>
						<link>
							<linkclipref>clipitem-115</linkclipref>
							<mediatype>video</mediatype>
							<trackindex>1</trackindex>
							<clipindex>117</clipindex>
						</link>
						<link>
							<linkclipref>clipitem-547</linkclipref>
							<mediatype>audio</mediatype>
							<trackindex>1</trackindex>
							<clipindex>71</clipindex>
							<groupindex>1</groupindex>
						</link>
						<link>
							<linkclipref>clipitem-711</linkclipref>
							<mediatype>audio</mediatype>
							<trackindex>2</trackindex>
							<clipindex>71</clipindex>
							<groupindex>1</groupindex>
						</link>
						<logginginfo>
							<description></description>
							<scene></scene>
							<shottake></shottake>
							<lognote></lognote>
							<good></good>
							<originalvideofilename></originalvideofilename>
							<originalaudiofilename></originalaudiofilename>
						</logginginfo>
						<colorinfo>
							<lut></lut>
							<lut1></lut1>
							<asc_sop></asc_sop>
							<asc_sat></asc_sat>
							<lut2></lut2>
						</colorinfo>
						<labels>
							<label2>Iris</label2>
						</labels>
					</clipitem>
					<clipitem id="clipitem-116">
						<masterclipid>masterclip-58</masterclipid>
						<name>A015_03071947_C167.mov</name>
						<enabled>TRUE</enabled>
						<duration>1892</duration>
						<rate>
							<timebase>24</timebase>
							<ntsc>FALSE</ntsc>
						</rate>
						<start>13299</start>
						<end>13327</end>
						<in>1251</in>
						<out>1279</out>
						<pproTicksIn>13240584000000</pproTicksIn>
						<pproTicksOut>13536936000000</pproTicksOut>
						<alphatype>none</alphatype>
						<file id="file-58"/>
						<link>
							<linkclipref>clipitem-116</linkclipref>
							<mediatype>video</mediatype>
							<trackindex>1</trackindex>
							<clipindex>118</clipindex>
						</link>
						<link>
							<linkclipref>clipitem-548</linkclipref>
							<mediatype>audio</mediatype>
							<trackindex>1</trackindex>
							<clipindex>72</clipindex>
							<groupindex>1</groupindex>
						</link>
						<link>
							<linkclipref>clipitem-712</linkclipref>
							<mediatype>audio</mediatype>
							<trackindex>2</trackindex>
							<clipindex>72</clipindex>
							<groupindex>1</groupindex>
						</link>
						<logginginfo>
							<description></description>
							<scene></scene>
							<shottake></shottake>
							<lognote></lognote>
							<good></good>
							<originalvideofilename></originalvideofilename>
							<originalaudiofilename></originalaudiofilename>
						</logginginfo>
						<colorinfo>
							<lut></lut>
							<lut1></lut1>
							<asc_sop></asc_sop>
							<asc_sat></asc_sat>
							<lut2></lut2>
						</colorinfo>
						<labels>
							<label2>Iris</label2>
						</labels>
					</clipitem>
					<clipitem id="clipitem-117">
						<masterclipid>masterclip-56</masterclipid>
						<name>A002_05280725_C099.mp4</name>
						<enabled>TRUE</enabled>
						<duration>1303</duration>
						<rate>
							<timebase>24</timebase>
							<ntsc>FALSE</ntsc>
						</rate>
						<start>13327</start>
						<end>13362</end>
						<in>710</in>
						<out>745</out>
						<pproTicksIn>7514640000000</pproTicksIn>
						<pproTicksOut>7885080000000</pproTicksOut>
						<alphatype>none</alphatype>
						<file id="file-56"/>
						<link>
							<linkclipref>clipitem-117</linkclipref>
							<mediatype>video</mediatype>
							<trackindex>1</trackindex>
							<clipindex>119</clipindex>
						</link>
						<link>
							<linkclipref>clipitem-549</linkclipref>
							<mediatype>audio</mediatype>
							<trackindex>1</trackindex>
							<clipindex>73</clipindex>
							<groupindex>1</groupindex>
						</link>
						<link>
							<linkclipref>clipitem-713</linkclipref>
							<mediatype>audio</mediatype>
							<trackindex>2</trackindex>
							<clipindex>73</clipindex>
							<groupindex>1</groupindex>
						</link>
						<logginginfo>
							<description></description>
							<scene></scene>
							<shottake></shottake>
							<lognote></lognote>
							<good></good>
							<originalvideofilename></originalvideofilename>
							<originalaudiofilename></originalaudiofilename>
						</logginginfo>
						<colorinfo>
							<lut></lut>
							<lut1></lut1>
							<asc_sop></asc_sop>
							<asc_sat></asc_sat>
							<lut2></lut2>
						</colorinfo>
						<labels>
							<label2>Iris</label2>
						</labels>
					</clipitem>
					<clipitem id="clipitem-118">
						<masterclipid>masterclip-58</masterclipid>
						<name>A015_03071947_C167.mov</name>
						<enabled>TRUE</enabled>
						<duration>1892</duration>
						<rate>
							<timebase>24</timebase>
							<ntsc>FALSE</ntsc>
						</rate>
						<start>13362</start>
						<end>13402</end>
						<in>1346</in>
						<out>1386</out>
						<pproTicksIn>14246064000000</pproTicksIn>
						<pproTicksOut>14669424000000</pproTicksOut>
						<alphatype>none</alphatype>
						<file id="file-58"/>
						<link>
							<linkclipref>clipitem-118</linkclipref>
							<mediatype>video</mediatype>
							<trackindex>1</trackindex>
							<clipindex>120</clipindex>
						</link>
						<link>
							<linkclipref>clipitem-550</linkclipref>
							<mediatype>audio</mediatype>
							<trackindex>1</trackindex>
							<clipindex>74</clipindex>
							<groupindex>1</groupindex>
						</link>
						<link>
							<linkclipref>clipitem-714</linkclipref>
							<mediatype>audio</mediatype>
							<trackindex>2</trackindex>
							<clipindex>74</clipindex>
							<groupindex>1</groupindex>
						</link>
						<logginginfo>
							<description></description>
							<scene></scene>
							<shottake></shottake>
							<lognote></lognote>
							<good></good>
							<originalvideofilename></originalvideofilename>
							<originalaudiofilename></originalaudiofilename>
						</logginginfo>
						<colorinfo>
							<lut></lut>
							<lut1></lut1>
							<asc_sop></asc_sop>
							<asc_sat></asc_sat>
							<lut2></lut2>
						</colorinfo>
						<labels>
							<label2>Iris</label2>
						</labels>
					</clipitem>
					<clipitem id="clipitem-119">
						<masterclipid>masterclip-59</masterclipid>
						<name>A002_05280718_C094.mp4</name>
						<enabled>TRUE</enabled>
						<duration>1337</duration>
						<rate>
							<timebase>24</timebase>
							<ntsc>FALSE</ntsc>
						</rate>
						<start>13402</start>
						<end>13422</end>
						<in>801</in>
						<out>821</out>
						<pproTicksIn>8477784000000</pproTicksIn>
						<pproTicksOut>8689464000000</pproTicksOut>
						<alphatype>none</alphatype>
						<pixelaspectratio>square</pixelaspectratio>
						<anamorphic>FALSE</anamorphic>
						<file id="file-59">
							<name>A002_05280718_C094.mp4</name>
							<pathurl>file://localhost/F%3a/bengaluru%20scenes/scene%2040/A002_05280718_C094.mp4</pathurl>
							<rate>
								<timebase>24</timebase>
								<ntsc>FALSE</ntsc>
							</rate>
							<duration>1337</duration>
							<timecode>
								<rate>
									<timebase>24</timebase>
									<ntsc>FALSE</ntsc>
								</rate>
								<string>00:00:00:00</string>
								<frame>0</frame>
								<displayformat>NDF</displayformat>
							</timecode>
							<media>
								<video>
									<samplecharacteristics>
										<rate>
											<timebase>24</timebase>
											<ntsc>FALSE</ntsc>
										</rate>
										<width>1920</width>
										<height>1080</height>
										<anamorphic>FALSE</anamorphic>
										<pixelaspectratio>square</pixelaspectratio>
										<fielddominance>none</fielddominance>
									</samplecharacteristics>
								</video>
								<audio>
									<samplecharacteristics>
										<depth>16</depth>
										<samplerate>48000</samplerate>
									</samplecharacteristics>
									<channelcount>2</channelcount>
								</audio>
							</media>
						</file>
						<logginginfo>
							<description></description>
							<scene></scene>
							<shottake></shottake>
							<lognote></lognote>
							<good></good>
							<originalvideofilename></originalvideofilename>
							<originalaudiofilename></originalaudiofilename>
						</logginginfo>
						<colorinfo>
							<lut></lut>
							<lut1></lut1>
							<asc_sop></asc_sop>
							<asc_sat></asc_sat>
							<lut2></lut2>
						</colorinfo>
						<labels>
							<label2>Iris</label2>
						</labels>
					</clipitem>
					<clipitem id="clipitem-120">
						<masterclipid>masterclip-60</masterclipid>
						<name>A002_05280727_C101.mp4</name>
						<enabled>TRUE</enabled>
						<duration>1127</duration>
						<rate>
							<timebase>24</timebase>
							<ntsc>FALSE</ntsc>
						</rate>
						<start>13422</start>
						<end>13488</end>
						<in>665</in>
						<out>731</out>
						<pproTicksIn>7038360000000</pproTicksIn>
						<pproTicksOut>7736904000000</pproTicksOut>
						<alphatype>none</alphatype>
						<pixelaspectratio>square</pixelaspectratio>
						<anamorphic>FALSE</anamorphic>
						<file id="file-60">
							<name>A002_05280727_C101.mp4</name>
							<pathurl>file://localhost/F%3a/bengaluru%20scenes/scene%2040/A002_05280727_C101.mp4</pathurl>
							<rate>
								<timebase>24</timebase>
								<ntsc>FALSE</ntsc>
							</rate>
							<duration>1127</duration>
							<timecode>
								<rate>
									<timebase>24</timebase>
									<ntsc>FALSE</ntsc>
								</rate>
								<string>00:00:00:00</string>
								<frame>0</frame>
								<displayformat>NDF</displayformat>
							</timecode>
							<media>
								<video>
									<samplecharacteristics>
										<rate>
											<timebase>24</timebase>
											<ntsc>FALSE</ntsc>
										</rate>
										<width>1920</width>
										<height>1080</height>
										<anamorphic>FALSE</anamorphic>
										<pixelaspectratio>square</pixelaspectratio>
										<fielddominance>none</fielddominance>
									</samplecharacteristics>
								</video>
								<audio>
									<samplecharacteristics>
										<depth>16</depth>
										<samplerate>48000</samplerate>
									</samplecharacteristics>
									<channelcount>2</channelcount>
								</audio>
							</media>
						</file>
						<link>
							<linkclipref>clipitem-120</linkclipref>
							<mediatype>video</mediatype>
							<trackindex>1</trackindex>
							<clipindex>122</clipindex>
						</link>
						<link>
							<linkclipref>clipitem-551</linkclipref>
							<mediatype>audio</mediatype>
							<trackindex>1</trackindex>
							<clipindex>75</clipindex>
							<groupindex>1</groupindex>
						</link>
						<link>
							<linkclipref>clipitem-715</linkclipref>
							<mediatype>audio</mediatype>
							<trackindex>2</trackindex>
							<clipindex>75</clipindex>
							<groupindex>1</groupindex>
						</link>
						<logginginfo>
							<description></description>
							<scene></scene>
							<shottake></shottake>
							<lognote></lognote>
							<good></good>
							<originalvideofilename></originalvideofilename>
							<originalaudiofilename></originalaudiofilename>
						</logginginfo>
						<colorinfo>
							<lut></lut>
							<lut1></lut1>
							<asc_sop></asc_sop>
							<asc_sat></asc_sat>
							<lut2></lut2>
						</colorinfo>
						<labels>
							<label2>Iris</label2>
						</labels>
					</clipitem>
					<clipitem id="clipitem-121">
						<masterclipid>masterclip-56</masterclipid>
						<name>A002_05280725_C099.mp4</name>
						<enabled>TRUE</enabled>
						<duration>1303</duration>
						<rate>
							<timebase>24</timebase>
							<ntsc>FALSE</ntsc>
						</rate>
						<start>13488</start>
						<end>13519</end>
						<in>841</in>
						<out>872</out>
						<pproTicksIn>8901144000000</pproTicksIn>
						<pproTicksOut>9229248000000</pproTicksOut>
						<alphatype>none</alphatype>
						<file id="file-56"/>
						<link>
							<linkclipref>clipitem-121</linkclipref>
							<mediatype>video</mediatype>
							<trackindex>1</trackindex>
							<clipindex>123</clipindex>
						</link>
						<link>
							<linkclipref>clipitem-552</linkclipref>
							<mediatype>audio</mediatype>
							<trackindex>1</trackindex>
							<clipindex>76</clipindex>
							<groupindex>1</groupindex>
						</link>
						<link>
							<linkclipref>clipitem-716</linkclipref>
							<mediatype>audio</mediatype>
							<trackindex>2</trackindex>
							<clipindex>76</clipindex>
							<groupindex>1</groupindex>
						</link>
						<logginginfo>
							<description></description>
							<scene></scene>
							<shottake></shottake>
							<lognote></lognote>
							<good></good>
							<originalvideofilename></originalvideofilename>
							<originalaudiofilename></originalaudiofilename>
						</logginginfo>
						<colorinfo>
							<lut></lut>
							<lut1></lut1>
							<asc_sop></asc_sop>
							<asc_sat></asc_sat>
							<lut2></lut2>
						</colorinfo>
						<labels>
							<label2>Iris</label2>
						</labels>
					</clipitem>
					<clipitem id="clipitem-122">
						<masterclipid>masterclip-58</masterclipid>
						<name>A015_03071947_C167.mov</name>
						<enabled>TRUE</enabled>
						<duration>1892</duration>
						<rate>
							<timebase>24</timebase>
							<ntsc>FALSE</ntsc>
						</rate>
						<start>13519</start>
						<end>13557</end>
						<in>1463</in>
						<out>1501</out>
						<pproTicksIn>15484392000000</pproTicksIn>
						<pproTicksOut>15886584000000</pproTicksOut>
						<alphatype>none</alphatype>
						<file id="file-58"/>
						<link>
							<linkclipref>clipitem-122</linkclipref>
							<mediatype>video</mediatype>
							<trackindex>1</trackindex>
							<clipindex>124</clipindex>
						</link>
						<link>
							<linkclipref>clipitem-553</linkclipref>
							<mediatype>audio</mediatype>
							<trackindex>1</trackindex>
							<clipindex>77</clipindex>
							<groupindex>1</groupindex>
						</link>
						<link>
							<linkclipref>clipitem-717</linkclipref>
							<mediatype>audio</mediatype>
							<trackindex>2</trackindex>
							<clipindex>77</clipindex>
							<groupindex>1</groupindex>
						</link>
						<logginginfo>
							<description></description>
							<scene></scene>
							<shottake></shottake>
							<lognote></lognote>
							<good></good>
							<originalvideofilename></originalvideofilename>
							<originalaudiofilename></originalaudiofilename>
						</logginginfo>
						<colorinfo>
							<lut></lut>
							<lut1></lut1>
							<asc_sop></asc_sop>
							<asc_sat></asc_sat>
							<lut2></lut2>
						</colorinfo>
						<labels>
							<label2>Iris</label2>
						</labels>
					</clipitem>
					<clipitem id="clipitem-123">
						<masterclipid>masterclip-56</masterclipid>
						<name>A002_05280725_C099.mp4</name>
						<enabled>TRUE</enabled>
						<duration>1303</duration>
						<rate>
							<timebase>24</timebase>
							<ntsc>FALSE</ntsc>
						</rate>
						<start>13557</start>
						<end>13582</end>
						<in>885</in>
						<out>910</out>
						<pproTicksIn>9366840000000</pproTicksIn>
						<pproTicksOut>9631440000000</pproTicksOut>
						<alphatype>none</alphatype>
						<file id="file-56"/>
						<link>
							<linkclipref>clipitem-123</linkclipref>
							<mediatype>video</mediatype>
							<trackindex>1</trackindex>
							<clipindex>125</clipindex>
						</link>
						<link>
							<linkclipref>clipitem-554</linkclipref>
							<mediatype>audio</mediatype>
							<trackindex>1</trackindex>
							<clipindex>78</clipindex>
							<groupindex>1</groupindex>
						</link>
						<link>
							<linkclipref>clipitem-718</linkclipref>
							<mediatype>audio</mediatype>
							<trackindex>2</trackindex>
							<clipindex>78</clipindex>
							<groupindex>1</groupindex>
						</link>
						<logginginfo>
							<description></description>
							<scene></scene>
							<shottake></shottake>
							<lognote></lognote>
							<good></good>
							<originalvideofilename></originalvideofilename>
							<originalaudiofilename></originalaudiofilename>
						</logginginfo>
						<colorinfo>
							<lut></lut>
							<lut1></lut1>
							<asc_sop></asc_sop>
							<asc_sat></asc_sat>
							<lut2></lut2>
						</colorinfo>
						<labels>
							<label2>Iris</label2>
						</labels>
					</clipitem>
					<clipitem id="clipitem-124">
						<masterclipid>masterclip-55</masterclipid>
						<name>A002_05280722_C096.mp4</name>
						<enabled>TRUE</enabled>
						<duration>1368</duration>
						<rate>
							<timebase>24</timebase>
							<ntsc>FALSE</ntsc>
						</rate>
						<start>13582</start>
						<end>13631</end>
						<in>981</in>
						<out>1030</out>
						<pproTicksIn>10382904000000</pproTicksIn>
						<pproTicksOut>10901520000000</pproTicksOut>
						<alphatype>none</alphatype>
						<file id="file-55"/>
						<logginginfo>
							<description></description>
							<scene></scene>
							<shottake></shottake>
							<lognote></lognote>
							<good></good>
							<originalvideofilename></originalvideofilename>
							<originalaudiofilename></originalaudiofilename>
						</logginginfo>
						<colorinfo>
							<lut></lut>
							<lut1></lut1>
							<asc_sop></asc_sop>
							<asc_sat></asc_sat>
							<lut2></lut2>
						</colorinfo>
						<labels>
							<label2>Iris</label2>
						</labels>
					</clipitem>
					<clipitem id="clipitem-125">
						<masterclipid>masterclip-58</masterclipid>
						<name>A015_03071947_C167.mov</name>
						<enabled>TRUE</enabled>
						<duration>1892</duration>
						<rate>
							<timebase>24</timebase>
							<ntsc>FALSE</ntsc>
						</rate>
						<start>13631</start>
						<end>13757</end>
						<in>1559</in>
						<out>1685</out>
						<pproTicksIn>16500456000000</pproTicksIn>
						<pproTicksOut>17834040000000</pproTicksOut>
						<alphatype>none</alphatype>
						<file id="file-58"/>
						<link>
							<linkclipref>clipitem-125</linkclipref>
							<mediatype>video</mediatype>
							<trackindex>1</trackindex>
							<clipindex>127</clipindex>
						</link>
						<link>
							<linkclipref>clipitem-556</linkclipref>
							<mediatype>audio</mediatype>
							<trackindex>1</trackindex>
							<clipindex>80</clipindex>
							<groupindex>1</groupindex>
						</link>
						<link>
							<linkclipref>clipitem-720</linkclipref>
							<mediatype>audio</mediatype>
							<trackindex>2</trackindex>
							<clipindex>80</clipindex>
							<groupindex>1</groupindex>
						</link>
						<logginginfo>
							<description></description>
							<scene></scene>
							<shottake></shottake>
							<lognote></lognote>
							<good></good>
							<originalvideofilename></originalvideofilename>
							<originalaudiofilename></originalaudiofilename>
						</logginginfo>
						<colorinfo>
							<lut></lut>
							<lut1></lut1>
							<asc_sop></asc_sop>
							<asc_sat></asc_sat>
							<lut2></lut2>
						</colorinfo>
						<labels>
							<label2>Iris</label2>
						</labels>
					</clipitem>
					<clipitem id="clipitem-126">
						<masterclipid>masterclip-53</masterclipid>
						<name>A015_03071929_C156.mov</name>
						<enabled>TRUE</enabled>
						<duration>2423</duration>
						<rate>
							<timebase>24</timebase>
							<ntsc>FALSE</ntsc>
						</rate>
						<start>13757</start>
						<end>13866</end>
						<in>2198</in>
						<out>2307</out>
						<pproTicksIn>23263632000000</pproTicksIn>
						<pproTicksOut>24417288000000</pproTicksOut>
						<alphatype>none</alphatype>
						<file id="file-53"/>
						<link>
							<linkclipref>clipitem-126</linkclipref>
							<mediatype>video</mediatype>
							<trackindex>1</trackindex>
							<clipindex>128</clipindex>
						</link>
						<link>
							<linkclipref>clipitem-557</linkclipref>
							<mediatype>audio</mediatype>
							<trackindex>1</trackindex>
							<clipindex>81</clipindex>
							<groupindex>1</groupindex>
						</link>
						<link>
							<linkclipref>clipitem-721</linkclipref>
							<mediatype>audio</mediatype>
							<trackindex>2</trackindex>
							<clipindex>81</clipindex>
							<groupindex>1</groupindex>
						</link>
						<logginginfo>
							<description></description>
							<scene></scene>
							<shottake></shottake>
							<lognote></lognote>
							<good></good>
							<originalvideofilename></originalvideofilename>
							<originalaudiofilename></originalaudiofilename>
						</logginginfo>
						<colorinfo>
							<lut></lut>
							<lut1></lut1>
							<asc_sop></asc_sop>
							<asc_sat></asc_sat>
							<lut2></lut2>
						</colorinfo>
						<labels>
							<label2>Iris</label2>
						</labels>
					</clipitem>
					<clipitem id="clipitem-127">
						<masterclipid>masterclip-55</masterclipid>
						<name>A002_05280722_C096.mp4</name>
						<enabled>TRUE</enabled>
						<duration>1368</duration>
						<rate>
							<timebase>24</timebase>
							<ntsc>FALSE</ntsc>
						</rate>
						<start>13866</start>
						<end>14030</end>
						<in>1030</in>
						<out>1194</out>
						<pproTicksIn>10901520000000</pproTicksIn>
						<pproTicksOut>12637296000000</pproTicksOut>
						<alphatype>none</alphatype>
						<file id="file-55"/>
						<logginginfo>
							<description></description>
							<scene></scene>
							<shottake></shottake>
							<lognote></lognote>
							<good></good>
							<originalvideofilename></originalvideofilename>
							<originalaudiofilename></originalaudiofilename>
						</logginginfo>
						<colorinfo>
							<lut></lut>
							<lut1></lut1>
							<asc_sop></asc_sop>
							<asc_sat></asc_sat>
							<lut2></lut2>
						</colorinfo>
						<labels>
							<label2>Iris</label2>
						</labels>
					</clipitem>
					<clipitem id="clipitem-128">
						<masterclipid>masterclip-61</masterclipid>
						<name>A002_05291201_C286.mp4</name>
						<enabled>TRUE</enabled>
						<duration>780</duration>
						<rate>
							<timebase>24</timebase>
							<ntsc>FALSE</ntsc>
						</rate>
						<start>14030</start>
						<end>14052</end>
						<in>156</in>
						<out>178</out>
						<pproTicksIn>1651104000000</pproTicksIn>
						<pproTicksOut>1883952000000</pproTicksOut>
						<alphatype>none</alphatype>
						<pixelaspectratio>square</pixelaspectratio>
						<anamorphic>FALSE</anamorphic>
						<file id="file-61">
							<name>A002_05291201_C286.mp4</name>
							<pathurl>file://localhost/F%3a/bengaluru%20scenes/scene%2042/A002_05291201_C286.mp4</pathurl>
							<rate>
								<timebase>24</timebase>
								<ntsc>FALSE</ntsc>
							</rate>
							<duration>780</duration>
							<timecode>
								<rate>
									<timebase>24</timebase>
									<ntsc>FALSE</ntsc>
								</rate>
								<string>00:00:00:00</string>
								<frame>0</frame>
								<displayformat>NDF</displayformat>
							</timecode>
							<media>
								<video>
									<samplecharacteristics>
										<rate>
											<timebase>24</timebase>
											<ntsc>FALSE</ntsc>
										</rate>
										<width>1920</width>
										<height>1080</height>
										<anamorphic>FALSE</anamorphic>
										<pixelaspectratio>square</pixelaspectratio>
										<fielddominance>none</fielddominance>
									</samplecharacteristics>
								</video>
								<audio>
									<samplecharacteristics>
										<depth>16</depth>
										<samplerate>48000</samplerate>
									</samplecharacteristics>
									<channelcount>2</channelcount>
								</audio>
							</media>
						</file>
						<logginginfo>
							<description></description>
							<scene></scene>
							<shottake></shottake>
							<lognote></lognote>
							<good></good>
							<originalvideofilename></originalvideofilename>
							<originalaudiofilename></originalaudiofilename>
						</logginginfo>
						<colorinfo>
							<lut></lut>
							<lut1></lut1>
							<asc_sop></asc_sop>
							<asc_sat></asc_sat>
							<lut2></lut2>
						</colorinfo>
						<labels>
							<label2>Iris</label2>
						</labels>
					</clipitem>
					<clipitem id="clipitem-129">
						<masterclipid>masterclip-61</masterclipid>
						<name>A002_05291201_C286.mp4</name>
						<enabled>TRUE</enabled>
						<duration>780</duration>
						<rate>
							<timebase>24</timebase>
							<ntsc>FALSE</ntsc>
						</rate>
						<start>14052</start>
						<end>14067</end>
						<in>201</in>
						<out>216</out>
						<pproTicksIn>2127384000000</pproTicksIn>
						<pproTicksOut>2286144000000</pproTicksOut>
						<alphatype>none</alphatype>
						<file id="file-61"/>
						<logginginfo>
							<description></description>
							<scene></scene>
							<shottake></shottake>
							<lognote></lognote>
							<good></good>
							<originalvideofilename></originalvideofilename>
							<originalaudiofilename></originalaudiofilename>
						</logginginfo>
						<colorinfo>
							<lut></lut>
							<lut1></lut1>
							<asc_sop></asc_sop>
							<asc_sat></asc_sat>
							<lut2></lut2>
						</colorinfo>
						<labels>
							<label2>Iris</label2>
						</labels>
					</clipitem>
					<clipitem id="clipitem-130">
						<masterclipid>masterclip-61</masterclipid>
						<name>A002_05291201_C286.mp4</name>
						<enabled>TRUE</enabled>
						<duration>780</duration>
						<rate>
							<timebase>24</timebase>
							<ntsc>FALSE</ntsc>
						</rate>
						<start>14067</start>
						<end>14083</end>
						<in>227</in>
						<out>243</out>
						<pproTicksIn>2402568000000</pproTicksIn>
						<pproTicksOut>2571912000000</pproTicksOut>
						<alphatype>none</alphatype>
						<file id="file-61"/>
						<logginginfo>
							<description></description>
							<scene></scene>
							<shottake></shottake>
							<lognote></lognote>
							<good></good>
							<originalvideofilename></originalvideofilename>
							<originalaudiofilename></originalaudiofilename>
						</logginginfo>
						<colorinfo>
							<lut></lut>
							<lut1></lut1>
							<asc_sop></asc_sop>
							<asc_sat></asc_sat>
							<lut2></lut2>
						</colorinfo>
						<labels>
							<label2>Iris</label2>
						</labels>
					</clipitem>
					<clipitem id="clipitem-131">
						<masterclipid>masterclip-62</masterclipid>
						<name>A002_05291159_C285.mp4</name>
						<enabled>TRUE</enabled>
						<duration>114</duration>
						<rate>
							<timebase>24</timebase>
							<ntsc>FALSE</ntsc>
						</rate>
						<start>14083</start>
						<end>14098</end>
						<in>64</in>
						<out>79</out>
						<pproTicksIn>677376000000</pproTicksIn>
						<pproTicksOut>836136000000</pproTicksOut>
						<alphatype>none</alphatype>
						<pixelaspectratio>square</pixelaspectratio>
						<anamorphic>FALSE</anamorphic>
						<file id="file-62">
							<name>A002_05291159_C285.mp4</name>
							<pathurl>file://localhost/F%3a/bengaluru%20scenes/scene%2042/A002_05291159_C285.mp4</pathurl>
							<rate>
								<timebase>24</timebase>
								<ntsc>FALSE</ntsc>
							</rate>
							<duration>114</duration>
							<timecode>
								<rate>
									<timebase>24</timebase>
									<ntsc>FALSE</ntsc>
								</rate>
								<string>00:00:00:00</string>
								<frame>0</frame>
								<displayformat>NDF</displayformat>
							</timecode>
							<media>
								<video>
									<samplecharacteristics>
										<rate>
											<timebase>24</timebase>
											<ntsc>FALSE</ntsc>
										</rate>
										<width>1920</width>
										<height>1080</height>
										<anamorphic>FALSE</anamorphic>
										<pixelaspectratio>square</pixelaspectratio>
										<fielddominance>none</fielddominance>
									</samplecharacteristics>
								</video>
								<audio>
									<samplecharacteristics>
										<depth>16</depth>
										<samplerate>48000</samplerate>
									</samplecharacteristics>
									<channelcount>2</channelcount>
								</audio>
							</media>
						</file>
						<logginginfo>
							<description></description>
							<scene></scene>
							<shottake></shottake>
							<lognote></lognote>
							<good></good>
							<originalvideofilename></originalvideofilename>
							<originalaudiofilename></originalaudiofilename>
						</logginginfo>
						<colorinfo>
							<lut></lut>
							<lut1></lut1>
							<asc_sop></asc_sop>
							<asc_sat></asc_sat>
							<lut2></lut2>
						</colorinfo>
						<labels>
							<label2>Iris</label2>
						</labels>
					</clipitem>
					<clipitem id="clipitem-132">
						<masterclipid>masterclip-63</masterclipid>
						<name>A002_05291303_C308.mp4</name>
						<enabled>TRUE</enabled>
						<duration>368</duration>
						<rate>
							<timebase>24</timebase>
							<ntsc>FALSE</ntsc>
						</rate>
						<start>14098</start>
						<end>14238</end>
						<in>181</in>
						<out>321</out>
						<pproTicksIn>1915704000000</pproTicksIn>
						<pproTicksOut>3397464000000</pproTicksOut>
						<alphatype>none</alphatype>
						<pixelaspectratio>square</pixelaspectratio>
						<anamorphic>FALSE</anamorphic>
						<file id="file-63">
							<name>A002_05291303_C308.mp4</name>
							<pathurl>file://localhost/F%3a/bengaluru%20scenes/scene%2042/A002_05291303_C308.mp4</pathurl>
							<rate>
								<timebase>24</timebase>
								<ntsc>FALSE</ntsc>
							</rate>
							<duration>368</duration>
							<timecode>
								<rate>
									<timebase>24</timebase>
									<ntsc>FALSE</ntsc>
								</rate>
								<string>00:00:00:00</string>
								<frame>0</frame>
								<displayformat>NDF</displayformat>
							</timecode>
							<media>
								<video>
									<samplecharacteristics>
										<rate>
											<timebase>24</timebase>
											<ntsc>FALSE</ntsc>
										</rate>
										<width>1920</width>
										<height>1080</height>
										<anamorphic>FALSE</anamorphic>
										<pixelaspectratio>square</pixelaspectratio>
										<fielddominance>none</fielddominance>
									</samplecharacteristics>
								</video>
								<audio>
									<samplecharacteristics>
										<depth>16</depth>
										<samplerate>48000</samplerate>
									</samplecharacteristics>
									<channelcount>2</channelcount>
								</audio>
							</media>
						</file>
						<logginginfo>
							<description></description>
							<scene></scene>
							<shottake></shottake>
							<lognote></lognote>
							<good></good>
							<originalvideofilename></originalvideofilename>
							<originalaudiofilename></originalaudiofilename>
						</logginginfo>
						<colorinfo>
							<lut></lut>
							<lut1></lut1>
							<asc_sop></asc_sop>
							<asc_sat></asc_sat>
							<lut2></lut2>
						</colorinfo>
						<labels>
							<label2>Iris</label2>
						</labels>
					</clipitem>
					<clipitem id="clipitem-133">
						<masterclipid>masterclip-64</masterclipid>
						<name>A006_06182023_C026.mp4</name>
						<enabled>TRUE</enabled>
						<duration>759</duration>
						<rate>
							<timebase>24</timebase>
							<ntsc>FALSE</ntsc>
						</rate>
						<start>14238</start>
						<end>14467</end>
						<in>180</in>
						<out>409</out>
						<pproTicksIn>1905120000000</pproTicksIn>
						<pproTicksOut>4328856000000</pproTicksOut>
						<alphatype>none</alphatype>
						<pixelaspectratio>square</pixelaspectratio>
						<anamorphic>FALSE</anamorphic>
						<file id="file-64">
							<name>A006_06182023_C026.mp4</name>
							<pathurl>file://localhost/F%3a/bengaluru%20scenes/scene%2042/A006_06182023_C026.mp4</pathurl>
							<rate>
								<timebase>24</timebase>
								<ntsc>FALSE</ntsc>
							</rate>
							<duration>759</duration>
							<timecode>
								<rate>
									<timebase>24</timebase>
									<ntsc>FALSE</ntsc>
								</rate>
								<string>20:23:48:08</string>
								<frame>1762280</frame>
								<displayformat>NDF</displayformat>
							</timecode>
							<media>
								<video>
									<samplecharacteristics>
										<rate>
											<timebase>24</timebase>
											<ntsc>FALSE</ntsc>
										</rate>
										<width>1920</width>
										<height>1080</height>
										<anamorphic>FALSE</anamorphic>
										<pixelaspectratio>square</pixelaspectratio>
										<fielddominance>none</fielddominance>
									</samplecharacteristics>
								</video>
								<audio>
									<samplecharacteristics>
										<depth>16</depth>
										<samplerate>48000</samplerate>
									</samplecharacteristics>
									<channelcount>2</channelcount>
								</audio>
							</media>
						</file>
						<logginginfo>
							<description></description>
							<scene></scene>
							<shottake></shottake>
							<lognote></lognote>
							<good></good>
							<originalvideofilename></originalvideofilename>
							<originalaudiofilename></originalaudiofilename>
						</logginginfo>
						<colorinfo>
							<lut></lut>
							<lut1></lut1>
							<asc_sop></asc_sop>
							<asc_sat></asc_sat>
							<lut2></lut2>
						</colorinfo>
						<labels>
							<label2>Iris</label2>
						</labels>
					</clipitem>
					<clipitem id="clipitem-134">
						<masterclipid>masterclip-65</masterclipid>
						<name>A006_06182041_C032.mp4</name>
						<enabled>TRUE</enabled>
						<duration>811</duration>
						<rate>
							<timebase>24</timebase>
							<ntsc>FALSE</ntsc>
						</rate>
						<start>14467</start>
						<end>14545</end>
						<in>657</in>
						<out>735</out>
						<pproTicksIn>6953688000000</pproTicksIn>
						<pproTicksOut>7779240000000</pproTicksOut>
						<alphatype>none</alphatype>
						<pixelaspectratio>square</pixelaspectratio>
						<anamorphic>FALSE</anamorphic>
						<file id="file-65">
							<name>A006_06182041_C032.mp4</name>
							<pathurl>file://localhost/F%3a/bengaluru%20scenes/scene%2043B/A006_06182041_C032.mp4</pathurl>
							<rate>
								<timebase>24</timebase>
								<ntsc>FALSE</ntsc>
							</rate>
							<duration>811</duration>
							<timecode>
								<rate>
									<timebase>24</timebase>
									<ntsc>FALSE</ntsc>
								</rate>
								<string>20:41:51:22</string>
								<frame>1788286</frame>
								<displayformat>NDF</displayformat>
							</timecode>
							<media>
								<video>
									<samplecharacteristics>
										<rate>
											<timebase>24</timebase>
											<ntsc>FALSE</ntsc>
										</rate>
										<width>1920</width>
										<height>1080</height>
										<anamorphic>FALSE</anamorphic>
										<pixelaspectratio>square</pixelaspectratio>
										<fielddominance>none</fielddominance>
									</samplecharacteristics>
								</video>
								<audio>
									<samplecharacteristics>
										<depth>16</depth>
										<samplerate>48000</samplerate>
									</samplecharacteristics>
									<channelcount>2</channelcount>
								</audio>
							</media>
						</file>
						<logginginfo>
							<description></description>
							<scene></scene>
							<shottake></shottake>
							<lognote></lognote>
							<good></good>
							<originalvideofilename></originalvideofilename>
							<originalaudiofilename></originalaudiofilename>
						</logginginfo>
						<colorinfo>
							<lut></lut>
							<lut1></lut1>
							<asc_sop></asc_sop>
							<asc_sat></asc_sat>
							<lut2></lut2>
						</colorinfo>
						<labels>
							<label2>Iris</label2>
						</labels>
					</clipitem>
					<clipitem id="clipitem-135">
						<masterclipid>masterclip-66</masterclipid>
						<name>A002_05291230_C294.mp4</name>
						<enabled>TRUE</enabled>
						<duration>780</duration>
						<rate>
							<timebase>24</timebase>
							<ntsc>FALSE</ntsc>
						</rate>
						<start>14545</start>
						<end>14730</end>
						<in>126</in>
						<out>311</out>
						<pproTicksIn>1333584000000</pproTicksIn>
						<pproTicksOut>3291624000000</pproTicksOut>
						<alphatype>none</alphatype>
						<pixelaspectratio>square</pixelaspectratio>
						<anamorphic>FALSE</anamorphic>
						<file id="file-66">
							<name>A002_05291230_C294.mp4</name>
							<pathurl>file://localhost/F%3a/bengaluru%20scenes/scene%2034-42A/34/A002_05291230_C294.mp4</pathurl>
							<rate>
								<timebase>24</timebase>
								<ntsc>FALSE</ntsc>
							</rate>
							<duration>780</duration>
							<timecode>
								<rate>
									<timebase>24</timebase>
									<ntsc>FALSE</ntsc>
								</rate>
								<string>00:00:00:00</string>
								<frame>0</frame>
								<displayformat>NDF</displayformat>
							</timecode>
							<media>
								<video>
									<samplecharacteristics>
										<rate>
											<timebase>24</timebase>
											<ntsc>FALSE</ntsc>
										</rate>
										<width>1920</width>
										<height>1080</height>
										<anamorphic>FALSE</anamorphic>
										<pixelaspectratio>square</pixelaspectratio>
										<fielddominance>none</fielddominance>
									</samplecharacteristics>
								</video>
								<audio>
									<samplecharacteristics>
										<depth>16</depth>
										<samplerate>48000</samplerate>
									</samplecharacteristics>
									<channelcount>2</channelcount>
								</audio>
							</media>
						</file>
						<link>
							<linkclipref>clipitem-135</linkclipref>
							<mediatype>video</mediatype>
							<trackindex>1</trackindex>
							<clipindex>137</clipindex>
						</link>
						<link>
							<linkclipref>clipitem-561</linkclipref>
							<mediatype>audio</mediatype>
							<trackindex>1</trackindex>
							<clipindex>85</clipindex>
							<groupindex>1</groupindex>
						</link>
						<link>
							<linkclipref>clipitem-725</linkclipref>
							<mediatype>audio</mediatype>
							<trackindex>2</trackindex>
							<clipindex>85</clipindex>
							<groupindex>1</groupindex>
						</link>
						<logginginfo>
							<description></description>
							<scene></scene>
							<shottake></shottake>
							<lognote></lognote>
							<good></good>
							<originalvideofilename></originalvideofilename>
							<originalaudiofilename></originalaudiofilename>
						</logginginfo>
						<colorinfo>
							<lut></lut>
							<lut1></lut1>
							<asc_sop></asc_sop>
							<asc_sat></asc_sat>
							<lut2></lut2>
						</colorinfo>
						<labels>
							<label2>Iris</label2>
						</labels>
					</clipitem>
					<clipitem id="clipitem-136">
						<masterclipid>masterclip-67</masterclipid>
						<name>A008_10150358_C135.mov</name>
						<enabled>TRUE</enabled>
						<duration>740</duration>
						<rate>
							<timebase>24</timebase>
							<ntsc>FALSE</ntsc>
						</rate>
						<start>14730</start>
						<end>14824</end>
						<in>67</in>
						<out>161</out>
						<pproTicksIn>709128000000</pproTicksIn>
						<pproTicksOut>1704024000000</pproTicksOut>
						<alphatype>none</alphatype>
						<pixelaspectratio>square</pixelaspectratio>
						<anamorphic>FALSE</anamorphic>
						<file id="file-67">
							<name>A008_10150358_C135.mov</name>
							<pathurl>file://localhost/F%3a/bengaluru%20scenes/scene%2034-42A/42A/A008_10150358_C135.mov</pathurl>
							<rate>
								<timebase>24</timebase>
								<ntsc>FALSE</ntsc>
							</rate>
							<duration>740</duration>
							<timecode>
								<rate>
									<timebase>24</timebase>
									<ntsc>FALSE</ntsc>
								</rate>
								<string>00:38:33:13</string>
								<frame>55525</frame>
								<displayformat>NDF</displayformat>
							</timecode>
							<media>
								<video>
									<samplecharacteristics>
										<rate>
											<timebase>24</timebase>
											<ntsc>FALSE</ntsc>
										</rate>
										<width>1280</width>
										<height>720</height>
										<anamorphic>FALSE</anamorphic>
										<pixelaspectratio>square</pixelaspectratio>
										<fielddominance>none</fielddominance>
									</samplecharacteristics>
								</video>
								<audio>
									<samplecharacteristics>
										<depth>16</depth>
										<samplerate>48000</samplerate>
									</samplecharacteristics>
									<channelcount>2</channelcount>
								</audio>
							</media>
						</file>
						<filter>
							<effect>
								<name>Basic Motion</name>
								<effectid>basic</effectid>
								<effectcategory>motion</effectcategory>
								<effecttype>motion</effecttype>
								<mediatype>video</mediatype>
								<pproBypass>false</pproBypass>
								<parameter authoringApp="PremierePro">
									<parameterid>scale</parameterid>
									<name>Scale</name>
									<valuemin>0</valuemin>
									<valuemax>1000</valuemax>
									<value>150</value>
								</parameter>
								<parameter authoringApp="PremierePro">
									<parameterid>rotation</parameterid>
									<name>Rotation</name>
									<valuemin>-8640</valuemin>
									<valuemax>8640</valuemax>
									<value>0</value>
								</parameter>
								<parameter authoringApp="PremierePro">
									<parameterid>center</parameterid>
									<name>Center</name>
									<value>
										<horiz>0</horiz>
										<vert>0</vert>
									</value>
								</parameter>
								<parameter authoringApp="PremierePro">
									<parameterid>centerOffset</parameterid>
									<name>Anchor Point</name>
									<value>
										<horiz>0</horiz>
										<vert>0</vert>
									</value>
								</parameter>
								<parameter authoringApp="PremierePro">
									<parameterid>antiflicker</parameterid>
									<name>Anti-flicker Filter</name>
									<valuemin>0.0</valuemin>
									<valuemax>1.0</valuemax>
									<value>0</value>
								</parameter>
							</effect>
						</filter>
						<link>
							<linkclipref>clipitem-136</linkclipref>
							<mediatype>video</mediatype>
							<trackindex>1</trackindex>
							<clipindex>138</clipindex>
						</link>
						<link>
							<linkclipref>clipitem-562</linkclipref>
							<mediatype>audio</mediatype>
							<trackindex>1</trackindex>
							<clipindex>86</clipindex>
							<groupindex>1</groupindex>
						</link>
						<link>
							<linkclipref>clipitem-726</linkclipref>
							<mediatype>audio</mediatype>
							<trackindex>2</trackindex>
							<clipindex>86</clipindex>
							<groupindex>1</groupindex>
						</link>
						<logginginfo>
							<description></description>
							<scene></scene>
							<shottake></shottake>
							<lognote></lognote>
							<good></good>
							<originalvideofilename></originalvideofilename>
							<originalaudiofilename></originalaudiofilename>
						</logginginfo>
						<colorinfo>
							<lut></lut>
							<lut1></lut1>
							<asc_sop></asc_sop>
							<asc_sat></asc_sat>
							<lut2></lut2>
						</colorinfo>
						<labels>
							<label2>Iris</label2>
						</labels>
					</clipitem>
					<clipitem id="clipitem-137">
						<masterclipid>masterclip-66</masterclipid>
						<name>A002_05291230_C294.mp4</name>
						<enabled>TRUE</enabled>
						<duration>780</duration>
						<rate>
							<timebase>24</timebase>
							<ntsc>FALSE</ntsc>
						</rate>
						<start>14824</start>
						<end>14959</end>
						<in>387</in>
						<out>522</out>
						<pproTicksIn>4096008000000</pproTicksIn>
						<pproTicksOut>5524848000000</pproTicksOut>
						<alphatype>none</alphatype>
						<file id="file-66"/>
						<link>
							<linkclipref>clipitem-137</linkclipref>
							<mediatype>video</mediatype>
							<trackindex>1</trackindex>
							<clipindex>139</clipindex>
						</link>
						<link>
							<linkclipref>clipitem-563</linkclipref>
							<mediatype>audio</mediatype>
							<trackindex>1</trackindex>
							<clipindex>87</clipindex>
							<groupindex>1</groupindex>
						</link>
						<link>
							<linkclipref>clipitem-727</linkclipref>
							<mediatype>audio</mediatype>
							<trackindex>2</trackindex>
							<clipindex>87</clipindex>
							<groupindex>1</groupindex>
						</link>
						<logginginfo>
							<description></description>
							<scene></scene>
							<shottake></shottake>
							<lognote></lognote>
							<good></good>
							<originalvideofilename></originalvideofilename>
							<originalaudiofilename></originalaudiofilename>
						</logginginfo>
						<colorinfo>
							<lut></lut>
							<lut1></lut1>
							<asc_sop></asc_sop>
							<asc_sat></asc_sat>
							<lut2></lut2>
						</colorinfo>
						<labels>
							<label2>Iris</label2>
						</labels>
					</clipitem>
					<clipitem id="clipitem-138">
						<masterclipid>masterclip-67</masterclipid>
						<name>A008_10150358_C135.mov</name>
						<enabled>TRUE</enabled>
						<duration>740</duration>
						<rate>
							<timebase>24</timebase>
							<ntsc>FALSE</ntsc>
						</rate>
						<start>14959</start>
						<end>15005</end>
						<in>256</in>
						<out>302</out>
						<pproTicksIn>2709504000000</pproTicksIn>
						<pproTicksOut>3196368000000</pproTicksOut>
						<alphatype>none</alphatype>
						<file id="file-67"/>
						<filter>
							<effect>
								<name>Basic Motion</name>
								<effectid>basic</effectid>
								<effectcategory>motion</effectcategory>
								<effecttype>motion</effecttype>
								<mediatype>video</mediatype>
								<pproBypass>false</pproBypass>
								<parameter authoringApp="PremierePro">
									<parameterid>scale</parameterid>
									<name>Scale</name>
									<valuemin>0</valuemin>
									<valuemax>1000</valuemax>
									<value>150</value>
								</parameter>
								<parameter authoringApp="PremierePro">
									<parameterid>rotation</parameterid>
									<name>Rotation</name>
									<valuemin>-8640</valuemin>
									<valuemax>8640</valuemax>
									<value>0</value>
								</parameter>
								<parameter authoringApp="PremierePro">
									<parameterid>center</parameterid>
									<name>Center</name>
									<value>
										<horiz>0</horiz>
										<vert>0</vert>
									</value>
								</parameter>
								<parameter authoringApp="PremierePro">
									<parameterid>centerOffset</parameterid>
									<name>Anchor Point</name>
									<value>
										<horiz>0</horiz>
										<vert>0</vert>
									</value>
								</parameter>
								<parameter authoringApp="PremierePro">
									<parameterid>antiflicker</parameterid>
									<name>Anti-flicker Filter</name>
									<valuemin>0.0</valuemin>
									<valuemax>1.0</valuemax>
									<value>0</value>
								</parameter>
							</effect>
						</filter>
						<logginginfo>
							<description></description>
							<scene></scene>
							<shottake></shottake>
							<lognote></lognote>
							<good></good>
							<originalvideofilename></originalvideofilename>
							<originalaudiofilename></originalaudiofilename>
						</logginginfo>
						<colorinfo>
							<lut></lut>
							<lut1></lut1>
							<asc_sop></asc_sop>
							<asc_sat></asc_sat>
							<lut2></lut2>
						</colorinfo>
						<labels>
							<label2>Iris</label2>
						</labels>
					</clipitem>
					<clipitem id="clipitem-139">
						<masterclipid>masterclip-66</masterclipid>
						<name>A002_05291230_C294.mp4</name>
						<enabled>TRUE</enabled>
						<duration>780</duration>
						<rate>
							<timebase>24</timebase>
							<ntsc>FALSE</ntsc>
						</rate>
						<start>15005</start>
						<end>15028</end>
						<in>660</in>
						<out>683</out>
						<pproTicksIn>6985440000000</pproTicksIn>
						<pproTicksOut>7228872000000</pproTicksOut>
						<alphatype>none</alphatype>
						<file id="file-66"/>
						<logginginfo>
							<description></description>
							<scene></scene>
							<shottake></shottake>
							<lognote></lognote>
							<good></good>
							<originalvideofilename></originalvideofilename>
							<originalaudiofilename></originalaudiofilename>
						</logginginfo>
						<colorinfo>
							<lut></lut>
							<lut1></lut1>
							<asc_sop></asc_sop>
							<asc_sat></asc_sat>
							<lut2></lut2>
						</colorinfo>
						<labels>
							<label2>Iris</label2>
						</labels>
					</clipitem>
					<clipitem id="clipitem-140">
						<masterclipid>masterclip-67</masterclipid>
						<name>A008_10150358_C135.mov</name>
						<enabled>TRUE</enabled>
						<duration>740</duration>
						<rate>
							<timebase>24</timebase>
							<ntsc>FALSE</ntsc>
						</rate>
						<start>15028</start>
						<end>15258</end>
						<in>309</in>
						<out>539</out>
						<pproTicksIn>3270456000000</pproTicksIn>
						<pproTicksOut>5704776000000</pproTicksOut>
						<alphatype>none</alphatype>
						<file id="file-67"/>
						<filter>
							<effect>
								<name>Basic Motion</name>
								<effectid>basic</effectid>
								<effectcategory>motion</effectcategory>
								<effecttype>motion</effecttype>
								<mediatype>video</mediatype>
								<pproBypass>false</pproBypass>
								<parameter authoringApp="PremierePro">
									<parameterid>scale</parameterid>
									<name>Scale</name>
									<valuemin>0</valuemin>
									<valuemax>1000</valuemax>
									<value>150</value>
								</parameter>
								<parameter authoringApp="PremierePro">
									<parameterid>rotation</parameterid>
									<name>Rotation</name>
									<valuemin>-8640</valuemin>
									<valuemax>8640</valuemax>
									<value>0</value>
								</parameter>
								<parameter authoringApp="PremierePro">
									<parameterid>center</parameterid>
									<name>Center</name>
									<value>
										<horiz>0</horiz>
										<vert>0</vert>
									</value>
								</parameter>
								<parameter authoringApp="PremierePro">
									<parameterid>centerOffset</parameterid>
									<name>Anchor Point</name>
									<value>
										<horiz>0</horiz>
										<vert>0</vert>
									</value>
								</parameter>
								<parameter authoringApp="PremierePro">
									<parameterid>antiflicker</parameterid>
									<name>Anti-flicker Filter</name>
									<valuemin>0.0</valuemin>
									<valuemax>1.0</valuemax>
									<value>0</value>
								</parameter>
							</effect>
						</filter>
						<link>
							<linkclipref>clipitem-140</linkclipref>
							<mediatype>video</mediatype>
							<trackindex>1</trackindex>
							<clipindex>142</clipindex>
						</link>
						<link>
							<linkclipref>clipitem-564</linkclipref>
							<mediatype>audio</mediatype>
							<trackindex>1</trackindex>
							<clipindex>88</clipindex>
							<groupindex>1</groupindex>
						</link>
						<link>
							<linkclipref>clipitem-728</linkclipref>
							<mediatype>audio</mediatype>
							<trackindex>2</trackindex>
							<clipindex>88</clipindex>
							<groupindex>1</groupindex>
						</link>
						<logginginfo>
							<description></description>
							<scene></scene>
							<shottake></shottake>
							<lognote></lognote>
							<good></good>
							<originalvideofilename></originalvideofilename>
							<originalaudiofilename></originalaudiofilename>
						</logginginfo>
						<colorinfo>
							<lut></lut>
							<lut1></lut1>
							<asc_sop></asc_sop>
							<asc_sat></asc_sat>
							<lut2></lut2>
						</colorinfo>
						<labels>
							<label2>Iris</label2>
						</labels>
					</clipitem>
					<clipitem id="clipitem-141">
						<masterclipid>masterclip-68</masterclipid>
						<name>A003_05301121_C136.mp4</name>
						<enabled>TRUE</enabled>
						<duration>915</duration>
						<rate>
							<timebase>24</timebase>
							<ntsc>FALSE</ntsc>
						</rate>
						<start>15258</start>
						<end>15399</end>
						<in>116</in>
						<out>257</out>
						<pproTicksIn>1227744000000</pproTicksIn>
						<pproTicksOut>2720088000000</pproTicksOut>
						<alphatype>none</alphatype>
						<pixelaspectratio>square</pixelaspectratio>
						<anamorphic>FALSE</anamorphic>
						<file id="file-68">
							<name>A003_05301121_C136.mp4</name>
							<pathurl>file://localhost/F%3a/bengaluru%20scenes/scene%2043/A003_05301121_C136.mp4</pathurl>
							<rate>
								<timebase>24</timebase>
								<ntsc>FALSE</ntsc>
							</rate>
							<duration>915</duration>
							<timecode>
								<rate>
									<timebase>24</timebase>
									<ntsc>FALSE</ntsc>
								</rate>
								<string>00:00:00:00</string>
								<frame>0</frame>
								<displayformat>NDF</displayformat>
							</timecode>
							<media>
								<video>
									<samplecharacteristics>
										<rate>
											<timebase>24</timebase>
											<ntsc>FALSE</ntsc>
										</rate>
										<width>1920</width>
										<height>1080</height>
										<anamorphic>FALSE</anamorphic>
										<pixelaspectratio>square</pixelaspectratio>
										<fielddominance>none</fielddominance>
									</samplecharacteristics>
								</video>
								<audio>
									<samplecharacteristics>
										<depth>16</depth>
										<samplerate>48000</samplerate>
									</samplecharacteristics>
									<channelcount>2</channelcount>
								</audio>
							</media>
						</file>
						<filter>
							<effect>
								<name>Basic Motion</name>
								<effectid>basic</effectid>
								<effectcategory>motion</effectcategory>
								<effecttype>motion</effecttype>
								<mediatype>video</mediatype>
								<pproBypass>false</pproBypass>
								<parameter authoringApp="PremierePro">
									<parameterid>scale</parameterid>
									<name>Scale</name>
									<valuemin>0</valuemin>
									<valuemax>1000</valuemax>
									<value>125</value>
								</parameter>
								<parameter authoringApp="PremierePro">
									<parameterid>rotation</parameterid>
									<name>Rotation</name>
									<valuemin>-8640</valuemin>
									<valuemax>8640</valuemax>
									<value>0</value>
								</parameter>
								<parameter authoringApp="PremierePro">
									<parameterid>center</parameterid>
									<name>Center</name>
									<value>
										<horiz>-0.115909</horiz>
										<vert>-0.157576</vert>
									</value>
								</parameter>
								<parameter authoringApp="PremierePro">
									<parameterid>centerOffset</parameterid>
									<name>Anchor Point</name>
									<value>
										<horiz>0</horiz>
										<vert>0</vert>
									</value>
								</parameter>
								<parameter authoringApp="PremierePro">
									<parameterid>antiflicker</parameterid>
									<name>Anti-flicker Filter</name>
									<valuemin>0.0</valuemin>
									<valuemax>1.0</valuemax>
									<value>0</value>
								</parameter>
							</effect>
						</filter>
						<logginginfo>
							<description></description>
							<scene></scene>
							<shottake></shottake>
							<lognote></lognote>
							<good></good>
							<originalvideofilename></originalvideofilename>
							<originalaudiofilename></originalaudiofilename>
						</logginginfo>
						<colorinfo>
							<lut></lut>
							<lut1></lut1>
							<asc_sop></asc_sop>
							<asc_sat></asc_sat>
							<lut2></lut2>
						</colorinfo>
						<labels>
							<label2>Iris</label2>
						</labels>
					</clipitem>
					<clipitem id="clipitem-142">
						<masterclipid>masterclip-69</masterclipid>
						<name>A003_05300849_C080.mp4</name>
						<enabled>TRUE</enabled>
						<duration>3599</duration>
						<rate>
							<timebase>24</timebase>
							<ntsc>FALSE</ntsc>
						</rate>
						<start>15399</start>
						<end>15692</end>
						<in>141</in>
						<out>434</out>
						<pproTicksIn>1492344000000</pproTicksIn>
						<pproTicksOut>4593456000000</pproTicksOut>
						<alphatype>none</alphatype>
						<pixelaspectratio>square</pixelaspectratio>
						<anamorphic>FALSE</anamorphic>
						<file id="file-69">
							<name>A003_05300849_C080.mp4</name>
							<pathurl>file://localhost/F%3a/bengaluru%20scenes/scene%2043/A003_05300849_C080.mp4</pathurl>
							<rate>
								<timebase>24</timebase>
								<ntsc>FALSE</ntsc>
							</rate>
							<duration>3599</duration>
							<timecode>
								<rate>
									<timebase>24</timebase>
									<ntsc>FALSE</ntsc>
								</rate>
								<string>00:00:00:00</string>
								<frame>0</frame>
								<displayformat>NDF</displayformat>
							</timecode>
							<media>
								<video>
									<samplecharacteristics>
										<rate>
											<timebase>24</timebase>
											<ntsc>FALSE</ntsc>
										</rate>
										<width>1920</width>
										<height>1080</height>
										<anamorphic>FALSE</anamorphic>
										<pixelaspectratio>square</pixelaspectratio>
										<fielddominance>none</fielddominance>
									</samplecharacteristics>
								</video>
								<audio>
									<samplecharacteristics>
										<depth>16</depth>
										<samplerate>48000</samplerate>
									</samplecharacteristics>
									<channelcount>2</channelcount>
								</audio>
							</media>
						</file>
						<logginginfo>
							<description></description>
							<scene></scene>
							<shottake></shottake>
							<lognote></lognote>
							<good></good>
							<originalvideofilename></originalvideofilename>
							<originalaudiofilename></originalaudiofilename>
						</logginginfo>
						<colorinfo>
							<lut></lut>
							<lut1></lut1>
							<asc_sop></asc_sop>
							<asc_sat></asc_sat>
							<lut2></lut2>
						</colorinfo>
						<labels>
							<label2>Iris</label2>
						</labels>
					</clipitem>
					<clipitem id="clipitem-143">
						<masterclipid>masterclip-69</masterclipid>
						<name>A003_05300849_C080.mp4</name>
						<enabled>TRUE</enabled>
						<duration>3599</duration>
						<rate>
							<timebase>24</timebase>
							<ntsc>FALSE</ntsc>
						</rate>
						<start>15692</start>
						<end>15733</end>
						<in>434</in>
						<out>475</out>
						<pproTicksIn>4593456000000</pproTicksIn>
						<pproTicksOut>5027400000000</pproTicksOut>
						<alphatype>none</alphatype>
						<file id="file-69"/>
						<link>
							<linkclipref>clipitem-143</linkclipref>
							<mediatype>video</mediatype>
							<trackindex>1</trackindex>
							<clipindex>145</clipindex>
						</link>
						<link>
							<linkclipref>clipitem-569</linkclipref>
							<mediatype>audio</mediatype>
							<trackindex>1</trackindex>
							<clipindex>93</clipindex>
							<groupindex>1</groupindex>
						</link>
						<link>
							<linkclipref>clipitem-733</linkclipref>
							<mediatype>audio</mediatype>
							<trackindex>2</trackindex>
							<clipindex>93</clipindex>
							<groupindex>1</groupindex>
						</link>
						<logginginfo>
							<description></description>
							<scene></scene>
							<shottake></shottake>
							<lognote></lognote>
							<good></good>
							<originalvideofilename></originalvideofilename>
							<originalaudiofilename></originalaudiofilename>
						</logginginfo>
						<colorinfo>
							<lut></lut>
							<lut1></lut1>
							<asc_sop></asc_sop>
							<asc_sat></asc_sat>
							<lut2></lut2>
						</colorinfo>
						<labels>
							<label2>Iris</label2>
						</labels>
					</clipitem>
					<clipitem id="clipitem-144">
						<masterclipid>masterclip-70</masterclipid>
						<name>A003_05300918_C082.mp4</name>
						<enabled>TRUE</enabled>
						<duration>1138</duration>
						<rate>
							<timebase>24</timebase>
							<ntsc>FALSE</ntsc>
						</rate>
						<start>15733</start>
						<end>15792</end>
						<in>610</in>
						<out>669</out>
						<pproTicksIn>6456240000000</pproTicksIn>
						<pproTicksOut>7080696000000</pproTicksOut>
						<alphatype>none</alphatype>
						<pixelaspectratio>square</pixelaspectratio>
						<anamorphic>FALSE</anamorphic>
						<file id="file-70">
							<name>A003_05300918_C082.mp4</name>
							<pathurl>file://localhost/F%3a/bengaluru%20scenes/scene%2043/A003_05300918_C082.mp4</pathurl>
							<rate>
								<timebase>24</timebase>
								<ntsc>FALSE</ntsc>
							</rate>
							<duration>1138</duration>
							<timecode>
								<rate>
									<timebase>24</timebase>
									<ntsc>FALSE</ntsc>
								</rate>
								<string>00:00:00:00</string>
								<frame>0</frame>
								<displayformat>NDF</displayformat>
							</timecode>
							<media>
								<video>
									<samplecharacteristics>
										<rate>
											<timebase>24</timebase>
											<ntsc>FALSE</ntsc>
										</rate>
										<width>1920</width>
										<height>1080</height>
										<anamorphic>FALSE</anamorphic>
										<pixelaspectratio>square</pixelaspectratio>
										<fielddominance>none</fielddominance>
									</samplecharacteristics>
								</video>
								<audio>
									<samplecharacteristics>
										<depth>16</depth>
										<samplerate>48000</samplerate>
									</samplecharacteristics>
									<channelcount>2</channelcount>
								</audio>
							</media>
						</file>
						<logginginfo>
							<description></description>
							<scene></scene>
							<shottake></shottake>
							<lognote></lognote>
							<good></good>
							<originalvideofilename></originalvideofilename>
							<originalaudiofilename></originalaudiofilename>
						</logginginfo>
						<colorinfo>
							<lut></lut>
							<lut1></lut1>
							<asc_sop></asc_sop>
							<asc_sat></asc_sat>
							<lut2></lut2>
						</colorinfo>
						<labels>
							<label2>Iris</label2>
						</labels>
					</clipitem>
					<clipitem id="clipitem-145">
						<masterclipid>masterclip-69</masterclipid>
						<name>A003_05300849_C080.mp4</name>
						<enabled>TRUE</enabled>
						<duration>3599</duration>
						<rate>
							<timebase>24</timebase>
							<ntsc>FALSE</ntsc>
						</rate>
						<start>15792</start>
						<end>15881</end>
						<in>499</in>
						<out>588</out>
						<pproTicksIn>5281416000000</pproTicksIn>
						<pproTicksOut>6223392000000</pproTicksOut>
						<alphatype>none</alphatype>
						<file id="file-69"/>
						<logginginfo>
							<description></description>
							<scene></scene>
							<shottake></shottake>
							<lognote></lognote>
							<good></good>
							<originalvideofilename></originalvideofilename>
							<originalaudiofilename></originalaudiofilename>
						</logginginfo>
						<colorinfo>
							<lut></lut>
							<lut1></lut1>
							<asc_sop></asc_sop>
							<asc_sat></asc_sat>
							<lut2></lut2>
						</colorinfo>
						<labels>
							<label2>Iris</label2>
						</labels>
					</clipitem>
					<clipitem id="clipitem-146">
						<masterclipid>masterclip-69</masterclipid>
						<name>A003_05300849_C080.mp4</name>
						<enabled>TRUE</enabled>
						<duration>3599</duration>
						<rate>
							<timebase>24</timebase>
							<ntsc>FALSE</ntsc>
						</rate>
						<start>15881</start>
						<end>15931</end>
						<in>588</in>
						<out>638</out>
						<pproTicksIn>6223392000000</pproTicksIn>
						<pproTicksOut>6752592000000</pproTicksOut>
						<alphatype>none</alphatype>
						<file id="file-69"/>
						<logginginfo>
							<description></description>
							<scene></scene>
							<shottake></shottake>
							<lognote></lognote>
							<good></good>
							<originalvideofilename></originalvideofilename>
							<originalaudiofilename></originalaudiofilename>
						</logginginfo>
						<colorinfo>
							<lut></lut>
							<lut1></lut1>
							<asc_sop></asc_sop>
							<asc_sat></asc_sat>
							<lut2></lut2>
						</colorinfo>
						<labels>
							<label2>Iris</label2>
						</labels>
					</clipitem>
					<clipitem id="clipitem-147">
						<masterclipid>masterclip-71</masterclipid>
						<name>A003_05300932_C087.mp4</name>
						<enabled>TRUE</enabled>
						<duration>1029</duration>
						<rate>
							<timebase>24</timebase>
							<ntsc>FALSE</ntsc>
						</rate>
						<start>15931</start>
						<end>16006</end>
						<in>341</in>
						<out>416</out>
						<pproTicksIn>3609144000000</pproTicksIn>
						<pproTicksOut>4402944000000</pproTicksOut>
						<alphatype>none</alphatype>
						<pixelaspectratio>square</pixelaspectratio>
						<anamorphic>FALSE</anamorphic>
						<file id="file-71">
							<name>A003_05300932_C087.mp4</name>
							<pathurl>file://localhost/F%3a/bengaluru%20scenes/scene%2043/A003_05300932_C087.mp4</pathurl>
							<rate>
								<timebase>24</timebase>
								<ntsc>FALSE</ntsc>
							</rate>
							<duration>1029</duration>
							<timecode>
								<rate>
									<timebase>24</timebase>
									<ntsc>FALSE</ntsc>
								</rate>
								<string>00:00:00:00</string>
								<frame>0</frame>
								<displayformat>NDF</displayformat>
							</timecode>
							<media>
								<video>
									<samplecharacteristics>
										<rate>
											<timebase>24</timebase>
											<ntsc>FALSE</ntsc>
										</rate>
										<width>1920</width>
										<height>1080</height>
										<anamorphic>FALSE</anamorphic>
										<pixelaspectratio>square</pixelaspectratio>
										<fielddominance>none</fielddominance>
									</samplecharacteristics>
								</video>
								<audio>
									<samplecharacteristics>
										<depth>16</depth>
										<samplerate>48000</samplerate>
									</samplecharacteristics>
									<channelcount>2</channelcount>
								</audio>
							</media>
						</file>
						<logginginfo>
							<description></description>
							<scene></scene>
							<shottake></shottake>
							<lognote></lognote>
							<good></good>
							<originalvideofilename></originalvideofilename>
							<originalaudiofilename></originalaudiofilename>
						</logginginfo>
						<colorinfo>
							<lut></lut>
							<lut1></lut1>
							<asc_sop></asc_sop>
							<asc_sat></asc_sat>
							<lut2></lut2>
						</colorinfo>
						<labels>
							<label2>Iris</label2>
						</labels>
					</clipitem>
					<clipitem id="clipitem-148">
						<masterclipid>masterclip-69</masterclipid>
						<name>A003_05300849_C080.mp4</name>
						<enabled>TRUE</enabled>
						<duration>3599</duration>
						<rate>
							<timebase>24</timebase>
							<ntsc>FALSE</ntsc>
						</rate>
						<start>16006</start>
						<end>16067</end>
						<in>786</in>
						<out>847</out>
						<pproTicksIn>8319024000000</pproTicksIn>
						<pproTicksOut>8964648000000</pproTicksOut>
						<alphatype>none</alphatype>
						<file id="file-69"/>
						<logginginfo>
							<description></description>
							<scene></scene>
							<shottake></shottake>
							<lognote></lognote>
							<good></good>
							<originalvideofilename></originalvideofilename>
							<originalaudiofilename></originalaudiofilename>
						</logginginfo>
						<colorinfo>
							<lut></lut>
							<lut1></lut1>
							<asc_sop></asc_sop>
							<asc_sat></asc_sat>
							<lut2></lut2>
						</colorinfo>
						<labels>
							<label2>Iris</label2>
						</labels>
					</clipitem>
					<clipitem id="clipitem-149">
						<masterclipid>masterclip-69</masterclipid>
						<name>A003_05300849_C080.mp4</name>
						<enabled>TRUE</enabled>
						<duration>3599</duration>
						<rate>
							<timebase>24</timebase>
							<ntsc>FALSE</ntsc>
						</rate>
						<start>16067</start>
						<end>16120</end>
						<in>847</in>
						<out>900</out>
						<pproTicksIn>8964648000000</pproTicksIn>
						<pproTicksOut>9525600000000</pproTicksOut>
						<alphatype>none</alphatype>
						<file id="file-69"/>
						<link>
							<linkclipref>clipitem-149</linkclipref>
							<mediatype>video</mediatype>
							<trackindex>1</trackindex>
							<clipindex>151</clipindex>
						</link>
						<link>
							<linkclipref>clipitem-572</linkclipref>
							<mediatype>audio</mediatype>
							<trackindex>1</trackindex>
							<clipindex>96</clipindex>
							<groupindex>1</groupindex>
						</link>
						<link>
							<linkclipref>clipitem-736</linkclipref>
							<mediatype>audio</mediatype>
							<trackindex>2</trackindex>
							<clipindex>96</clipindex>
							<groupindex>1</groupindex>
						</link>
						<logginginfo>
							<description></description>
							<scene></scene>
							<shottake></shottake>
							<lognote></lognote>
							<good></good>
							<originalvideofilename></originalvideofilename>
							<originalaudiofilename></originalaudiofilename>
						</logginginfo>
						<colorinfo>
							<lut></lut>
							<lut1></lut1>
							<asc_sop></asc_sop>
							<asc_sat></asc_sat>
							<lut2></lut2>
						</colorinfo>
						<labels>
							<label2>Iris</label2>
						</labels>
					</clipitem>
					<clipitem id="clipitem-150">
						<masterclipid>masterclip-72</masterclipid>
						<name>A003_05300925_C085.mp4</name>
						<enabled>TRUE</enabled>
						<duration>752</duration>
						<rate>
							<timebase>24</timebase>
							<ntsc>FALSE</ntsc>
						</rate>
						<start>16120</start>
						<end>16225</end>
						<in>505</in>
						<out>610</out>
						<pproTicksIn>5344920000000</pproTicksIn>
						<pproTicksOut>6456240000000</pproTicksOut>
						<alphatype>none</alphatype>
						<pixelaspectratio>square</pixelaspectratio>
						<anamorphic>FALSE</anamorphic>
						<file id="file-72">
							<name>A003_05300925_C085.mp4</name>
							<pathurl>file://localhost/F%3a/bengaluru%20scenes/scene%2043/A003_05300925_C085.mp4</pathurl>
							<rate>
								<timebase>24</timebase>
								<ntsc>FALSE</ntsc>
							</rate>
							<duration>752</duration>
							<timecode>
								<rate>
									<timebase>24</timebase>
									<ntsc>FALSE</ntsc>
								</rate>
								<string>00:00:00:00</string>
								<frame>0</frame>
								<displayformat>NDF</displayformat>
							</timecode>
							<media>
								<video>
									<samplecharacteristics>
										<rate>
											<timebase>24</timebase>
											<ntsc>FALSE</ntsc>
										</rate>
										<width>1920</width>
										<height>1080</height>
										<anamorphic>FALSE</anamorphic>
										<pixelaspectratio>square</pixelaspectratio>
										<fielddominance>none</fielddominance>
									</samplecharacteristics>
								</video>
								<audio>
									<samplecharacteristics>
										<depth>16</depth>
										<samplerate>48000</samplerate>
									</samplecharacteristics>
									<channelcount>2</channelcount>
								</audio>
							</media>
						</file>
						<link>
							<linkclipref>clipitem-150</linkclipref>
							<mediatype>video</mediatype>
							<trackindex>1</trackindex>
							<clipindex>152</clipindex>
						</link>
						<link>
							<linkclipref>clipitem-573</linkclipref>
							<mediatype>audio</mediatype>
							<trackindex>1</trackindex>
							<clipindex>97</clipindex>
							<groupindex>1</groupindex>
						</link>
						<link>
							<linkclipref>clipitem-737</linkclipref>
							<mediatype>audio</mediatype>
							<trackindex>2</trackindex>
							<clipindex>97</clipindex>
							<groupindex>1</groupindex>
						</link>
						<logginginfo>
							<description></description>
							<scene></scene>
							<shottake></shottake>
							<lognote></lognote>
							<good></good>
							<originalvideofilename></originalvideofilename>
							<originalaudiofilename></originalaudiofilename>
						</logginginfo>
						<colorinfo>
							<lut></lut>
							<lut1></lut1>
							<asc_sop></asc_sop>
							<asc_sat></asc_sat>
							<lut2></lut2>
						</colorinfo>
						<labels>
							<label2>Iris</label2>
						</labels>
					</clipitem>
					<clipitem id="clipitem-151">
						<masterclipid>masterclip-69</masterclipid>
						<name>A003_05300849_C080.mp4</name>
						<enabled>TRUE</enabled>
						<duration>3599</duration>
						<rate>
							<timebase>24</timebase>
							<ntsc>FALSE</ntsc>
						</rate>
						<start>16225</start>
						<end>16267</end>
						<in>980</in>
						<out>1022</out>
						<pproTicksIn>10372320000000</pproTicksIn>
						<pproTicksOut>10816848000000</pproTicksOut>
						<alphatype>none</alphatype>
						<file id="file-69"/>
						<link>
							<linkclipref>clipitem-151</linkclipref>
							<mediatype>video</mediatype>
							<trackindex>1</trackindex>
							<clipindex>153</clipindex>
						</link>
						<link>
							<linkclipref>clipitem-574</linkclipref>
							<mediatype>audio</mediatype>
							<trackindex>1</trackindex>
							<clipindex>98</clipindex>
							<groupindex>1</groupindex>
						</link>
						<link>
							<linkclipref>clipitem-738</linkclipref>
							<mediatype>audio</mediatype>
							<trackindex>2</trackindex>
							<clipindex>98</clipindex>
							<groupindex>1</groupindex>
						</link>
						<logginginfo>
							<description></description>
							<scene></scene>
							<shottake></shottake>
							<lognote></lognote>
							<good></good>
							<originalvideofilename></originalvideofilename>
							<originalaudiofilename></originalaudiofilename>
						</logginginfo>
						<colorinfo>
							<lut></lut>
							<lut1></lut1>
							<asc_sop></asc_sop>
							<asc_sat></asc_sat>
							<lut2></lut2>
						</colorinfo>
						<labels>
							<label2>Iris</label2>
						</labels>
					</clipitem>
					<clipitem id="clipitem-152">
						<masterclipid>masterclip-73</masterclipid>
						<name>A003_05300941_C095.mp4</name>
						<enabled>TRUE</enabled>
						<duration>739</duration>
						<rate>
							<timebase>24</timebase>
							<ntsc>FALSE</ntsc>
						</rate>
						<start>16267</start>
						<end>16294</end>
						<in>164</in>
						<out>191</out>
						<pproTicksIn>1735776000000</pproTicksIn>
						<pproTicksOut>2021544000000</pproTicksOut>
						<alphatype>none</alphatype>
						<pixelaspectratio>square</pixelaspectratio>
						<anamorphic>FALSE</anamorphic>
						<file id="file-73">
							<name>A003_05300941_C095.mp4</name>
							<pathurl>file://localhost/F%3a/bengaluru%20scenes/scene%2043/A003_05300941_C095.mp4</pathurl>
							<rate>
								<timebase>24</timebase>
								<ntsc>FALSE</ntsc>
							</rate>
							<duration>739</duration>
							<timecode>
								<rate>
									<timebase>24</timebase>
									<ntsc>FALSE</ntsc>
								</rate>
								<string>00:00:00:00</string>
								<frame>0</frame>
								<displayformat>NDF</displayformat>
							</timecode>
							<media>
								<video>
									<samplecharacteristics>
										<rate>
											<timebase>24</timebase>
											<ntsc>FALSE</ntsc>
										</rate>
										<width>1920</width>
										<height>1080</height>
										<anamorphic>FALSE</anamorphic>
										<pixelaspectratio>square</pixelaspectratio>
										<fielddominance>none</fielddominance>
									</samplecharacteristics>
								</video>
								<audio>
									<samplecharacteristics>
										<depth>16</depth>
										<samplerate>48000</samplerate>
									</samplecharacteristics>
									<channelcount>2</channelcount>
								</audio>
							</media>
						</file>
						<logginginfo>
							<description></description>
							<scene></scene>
							<shottake></shottake>
							<lognote></lognote>
							<good></good>
							<originalvideofilename></originalvideofilename>
							<originalaudiofilename></originalaudiofilename>
						</logginginfo>
						<colorinfo>
							<lut></lut>
							<lut1></lut1>
							<asc_sop></asc_sop>
							<asc_sat></asc_sat>
							<lut2></lut2>
						</colorinfo>
						<labels>
							<label2>Iris</label2>
						</labels>
					</clipitem>
					<clipitem id="clipitem-153">
						<masterclipid>masterclip-69</masterclipid>
						<name>A003_05300849_C080.mp4</name>
						<enabled>TRUE</enabled>
						<duration>3599</duration>
						<rate>
							<timebase>24</timebase>
							<ntsc>FALSE</ntsc>
						</rate>
						<start>16294</start>
						<end>16309</end>
						<in>1024</in>
						<out>1039</out>
						<pproTicksIn>10838016000000</pproTicksIn>
						<pproTicksOut>10996776000000</pproTicksOut>
						<alphatype>none</alphatype>
						<file id="file-69"/>
						<logginginfo>
							<description></description>
							<scene></scene>
							<shottake></shottake>
							<lognote></lognote>
							<good></good>
							<originalvideofilename></originalvideofilename>
							<originalaudiofilename></originalaudiofilename>
						</logginginfo>
						<colorinfo>
							<lut></lut>
							<lut1></lut1>
							<asc_sop></asc_sop>
							<asc_sat></asc_sat>
							<lut2></lut2>
						</colorinfo>
						<labels>
							<label2>Iris</label2>
						</labels>
					</clipitem>
					<clipitem id="clipitem-154">
						<masterclipid>masterclip-71</masterclipid>
						<name>A003_05300932_C087.mp4</name>
						<enabled>TRUE</enabled>
						<duration>1029</duration>
						<rate>
							<timebase>24</timebase>
							<ntsc>FALSE</ntsc>
						</rate>
						<start>16309</start>
						<end>16327</end>
						<in>778</in>
						<out>796</out>
						<pproTicksIn>8234352000000</pproTicksIn>
						<pproTicksOut>8424864000000</pproTicksOut>
						<alphatype>none</alphatype>
						<file id="file-71"/>
						<logginginfo>
							<description></description>
							<scene></scene>
							<shottake></shottake>
							<lognote></lognote>
							<good></good>
							<originalvideofilename></originalvideofilename>
							<originalaudiofilename></originalaudiofilename>
						</logginginfo>
						<colorinfo>
							<lut></lut>
							<lut1></lut1>
							<asc_sop></asc_sop>
							<asc_sat></asc_sat>
							<lut2></lut2>
						</colorinfo>
						<labels>
							<label2>Iris</label2>
						</labels>
					</clipitem>
					<clipitem id="clipitem-155">
						<masterclipid>masterclip-74</masterclipid>
						<name>A003_05300940_C094.mp4</name>
						<enabled>TRUE</enabled>
						<duration>580</duration>
						<rate>
							<timebase>24</timebase>
							<ntsc>FALSE</ntsc>
						</rate>
						<start>16327</start>
						<end>16357</end>
						<in>130</in>
						<out>160</out>
						<pproTicksIn>1375920000000</pproTicksIn>
						<pproTicksOut>1693440000000</pproTicksOut>
						<alphatype>none</alphatype>
						<pixelaspectratio>square</pixelaspectratio>
						<anamorphic>FALSE</anamorphic>
						<file id="file-74">
							<name>A003_05300940_C094.mp4</name>
							<pathurl>file://localhost/F%3a/bengaluru%20scenes/scene%2043/A003_05300940_C094.mp4</pathurl>
							<rate>
								<timebase>24</timebase>
								<ntsc>FALSE</ntsc>
							</rate>
							<duration>580</duration>
							<timecode>
								<rate>
									<timebase>24</timebase>
									<ntsc>FALSE</ntsc>
								</rate>
								<string>00:00:00:00</string>
								<frame>0</frame>
								<displayformat>NDF</displayformat>
							</timecode>
							<media>
								<video>
									<samplecharacteristics>
										<rate>
											<timebase>24</timebase>
											<ntsc>FALSE</ntsc>
										</rate>
										<width>1920</width>
										<height>1080</height>
										<anamorphic>FALSE</anamorphic>
										<pixelaspectratio>square</pixelaspectratio>
										<fielddominance>none</fielddominance>
									</samplecharacteristics>
								</video>
								<audio>
									<samplecharacteristics>
										<depth>16</depth>
										<samplerate>48000</samplerate>
									</samplecharacteristics>
									<channelcount>2</channelcount>
								</audio>
							</media>
						</file>
						<logginginfo>
							<description></description>
							<scene></scene>
							<shottake></shottake>
							<lognote></lognote>
							<good></good>
							<originalvideofilename></originalvideofilename>
							<originalaudiofilename></originalaudiofilename>
						</logginginfo>
						<colorinfo>
							<lut></lut>
							<lut1></lut1>
							<asc_sop></asc_sop>
							<asc_sat></asc_sat>
							<lut2></lut2>
						</colorinfo>
						<labels>
							<label2>Iris</label2>
						</labels>
					</clipitem>
					<clipitem id="clipitem-156">
						<masterclipid>masterclip-69</masterclipid>
						<name>A003_05300849_C080.mp4</name>
						<enabled>TRUE</enabled>
						<duration>3599</duration>
						<rate>
							<timebase>24</timebase>
							<ntsc>FALSE</ntsc>
						</rate>
						<start>16357</start>
						<end>16425</end>
						<in>1077</in>
						<out>1145</out>
						<pproTicksIn>11398968000000</pproTicksIn>
						<pproTicksOut>12118680000000</pproTicksOut>
						<alphatype>none</alphatype>
						<file id="file-69"/>
						<link>
							<linkclipref>clipitem-156</linkclipref>
							<mediatype>video</mediatype>
							<trackindex>1</trackindex>
							<clipindex>158</clipindex>
						</link>
						<link>
							<linkclipref>clipitem-575</linkclipref>
							<mediatype>audio</mediatype>
							<trackindex>1</trackindex>
							<clipindex>99</clipindex>
							<groupindex>1</groupindex>
						</link>
						<link>
							<linkclipref>clipitem-739</linkclipref>
							<mediatype>audio</mediatype>
							<trackindex>2</trackindex>
							<clipindex>99</clipindex>
							<groupindex>1</groupindex>
						</link>
						<logginginfo>
							<description></description>
							<scene></scene>
							<shottake></shottake>
							<lognote></lognote>
							<good></good>
							<originalvideofilename></originalvideofilename>
							<originalaudiofilename></originalaudiofilename>
						</logginginfo>
						<colorinfo>
							<lut></lut>
							<lut1></lut1>
							<asc_sop></asc_sop>
							<asc_sat></asc_sat>
							<lut2></lut2>
						</colorinfo>
						<labels>
							<label2>Iris</label2>
						</labels>
					</clipitem>
					<clipitem id="clipitem-157">
						<masterclipid>masterclip-75</masterclipid>
						<name>A003_05301010_C109.mp4</name>
						<enabled>TRUE</enabled>
						<duration>991</duration>
						<rate>
							<timebase>24</timebase>
							<ntsc>FALSE</ntsc>
						</rate>
						<start>16425</start>
						<end>16433</end>
						<in>65</in>
						<out>73</out>
						<pproTicksIn>687960000000</pproTicksIn>
						<pproTicksOut>772632000000</pproTicksOut>
						<alphatype>none</alphatype>
						<pixelaspectratio>square</pixelaspectratio>
						<anamorphic>FALSE</anamorphic>
						<file id="file-75">
							<name>A003_05301010_C109.mp4</name>
							<pathurl>file://localhost/F%3a/bengaluru%20scenes/scene%2043/A003_05301010_C109.mp4</pathurl>
							<rate>
								<timebase>24</timebase>
								<ntsc>FALSE</ntsc>
							</rate>
							<duration>991</duration>
							<timecode>
								<rate>
									<timebase>24</timebase>
									<ntsc>FALSE</ntsc>
								</rate>
								<string>00:00:00:00</string>
								<frame>0</frame>
								<displayformat>NDF</displayformat>
							</timecode>
							<media>
								<video>
									<samplecharacteristics>
										<rate>
											<timebase>24</timebase>
											<ntsc>FALSE</ntsc>
										</rate>
										<width>1920</width>
										<height>1080</height>
										<anamorphic>FALSE</anamorphic>
										<pixelaspectratio>square</pixelaspectratio>
										<fielddominance>none</fielddominance>
									</samplecharacteristics>
								</video>
								<audio>
									<samplecharacteristics>
										<depth>16</depth>
										<samplerate>48000</samplerate>
									</samplecharacteristics>
									<channelcount>2</channelcount>
								</audio>
							</media>
						</file>
						<logginginfo>
							<description></description>
							<scene></scene>
							<shottake></shottake>
							<lognote></lognote>
							<good></good>
							<originalvideofilename></originalvideofilename>
							<originalaudiofilename></originalaudiofilename>
						</logginginfo>
						<colorinfo>
							<lut></lut>
							<lut1></lut1>
							<asc_sop></asc_sop>
							<asc_sat></asc_sat>
							<lut2></lut2>
						</colorinfo>
						<labels>
							<label2>Iris</label2>
						</labels>
					</clipitem>
					<clipitem id="clipitem-158">
						<masterclipid>masterclip-75</masterclipid>
						<name>A003_05301010_C109.mp4</name>
						<enabled>TRUE</enabled>
						<duration>991</duration>
						<rate>
							<timebase>24</timebase>
							<ntsc>FALSE</ntsc>
						</rate>
						<start>16441</start>
						<end>16484</end>
						<in>73</in>
						<out>116</out>
						<pproTicksIn>772632000000</pproTicksIn>
						<pproTicksOut>1227744000000</pproTicksOut>
						<alphatype>none</alphatype>
						<file id="file-75"/>
						<logginginfo>
							<description></description>
							<scene></scene>
							<shottake></shottake>
							<lognote></lognote>
							<good></good>
							<originalvideofilename></originalvideofilename>
							<originalaudiofilename></originalaudiofilename>
						</logginginfo>
						<colorinfo>
							<lut></lut>
							<lut1></lut1>
							<asc_sop></asc_sop>
							<asc_sat></asc_sat>
							<lut2></lut2>
						</colorinfo>
						<labels>
							<label2>Iris</label2>
						</labels>
					</clipitem>
					<clipitem id="clipitem-159">
						<masterclipid>masterclip-75</masterclipid>
						<name>A003_05301010_C109.mp4</name>
						<enabled>TRUE</enabled>
						<duration>991</duration>
						<rate>
							<timebase>24</timebase>
							<ntsc>FALSE</ntsc>
						</rate>
						<start>16484</start>
						<end>16524</end>
						<in>116</in>
						<out>156</out>
						<pproTicksIn>1227744000000</pproTicksIn>
						<pproTicksOut>1651104000000</pproTicksOut>
						<alphatype>none</alphatype>
						<file id="file-75"/>
						<logginginfo>
							<description></description>
							<scene></scene>
							<shottake></shottake>
							<lognote></lognote>
							<good></good>
							<originalvideofilename></originalvideofilename>
							<originalaudiofilename></originalaudiofilename>
						</logginginfo>
						<colorinfo>
							<lut></lut>
							<lut1></lut1>
							<asc_sop></asc_sop>
							<asc_sat></asc_sat>
							<lut2></lut2>
						</colorinfo>
						<labels>
							<label2>Iris</label2>
						</labels>
					</clipitem>
					<clipitem id="clipitem-160">
						<masterclipid>masterclip-75</masterclipid>
						<name>A003_05301010_C109.mp4</name>
						<enabled>TRUE</enabled>
						<duration>991</duration>
						<rate>
							<timebase>24</timebase>
							<ntsc>FALSE</ntsc>
						</rate>
						<start>16524</start>
						<end>16536</end>
						<in>156</in>
						<out>168</out>
						<pproTicksIn>1651104000000</pproTicksIn>
						<pproTicksOut>1778112000000</pproTicksOut>
						<alphatype>none</alphatype>
						<file id="file-75"/>
						<logginginfo>
							<description></description>
							<scene></scene>
							<shottake></shottake>
							<lognote></lognote>
							<good></good>
							<originalvideofilename></originalvideofilename>
							<originalaudiofilename></originalaudiofilename>
						</logginginfo>
						<colorinfo>
							<lut></lut>
							<lut1></lut1>
							<asc_sop></asc_sop>
							<asc_sat></asc_sat>
							<lut2></lut2>
						</colorinfo>
						<labels>
							<label2>Iris</label2>
						</labels>
					</clipitem>
					<clipitem id="clipitem-161">
						<masterclipid>masterclip-76</masterclipid>
						<name>A003_05301000_C105.mp4</name>
						<enabled>TRUE</enabled>
						<duration>1746</duration>
						<rate>
							<timebase>24</timebase>
							<ntsc>FALSE</ntsc>
						</rate>
						<start>16536</start>
						<end>16621</end>
						<in>379</in>
						<out>464</out>
						<pproTicksIn>4011336000000</pproTicksIn>
						<pproTicksOut>4910976000000</pproTicksOut>
						<alphatype>none</alphatype>
						<pixelaspectratio>square</pixelaspectratio>
						<anamorphic>FALSE</anamorphic>
						<file id="file-76">
							<name>A003_05301000_C105.mp4</name>
							<pathurl>file://localhost/F%3a/bengaluru%20scenes/scene%2043/A003_05301000_C105.mp4</pathurl>
							<rate>
								<timebase>24</timebase>
								<ntsc>FALSE</ntsc>
							</rate>
							<duration>1746</duration>
							<timecode>
								<rate>
									<timebase>24</timebase>
									<ntsc>FALSE</ntsc>
								</rate>
								<string>00:00:00:00</string>
								<frame>0</frame>
								<displayformat>NDF</displayformat>
							</timecode>
							<media>
								<video>
									<samplecharacteristics>
										<rate>
											<timebase>24</timebase>
											<ntsc>FALSE</ntsc>
										</rate>
										<width>1920</width>
										<height>1080</height>
										<anamorphic>FALSE</anamorphic>
										<pixelaspectratio>square</pixelaspectratio>
										<fielddominance>none</fielddominance>
									</samplecharacteristics>
								</video>
								<audio>
									<samplecharacteristics>
										<depth>16</depth>
										<samplerate>48000</samplerate>
									</samplecharacteristics>
									<channelcount>2</channelcount>
								</audio>
							</media>
						</file>
						<link>
							<linkclipref>clipitem-161</linkclipref>
							<mediatype>video</mediatype>
							<trackindex>1</trackindex>
							<clipindex>163</clipindex>
						</link>
						<link>
							<linkclipref>clipitem-578</linkclipref>
							<mediatype>audio</mediatype>
							<trackindex>1</trackindex>
							<clipindex>102</clipindex>
							<groupindex>1</groupindex>
						</link>
						<link>
							<linkclipref>clipitem-742</linkclipref>
							<mediatype>audio</mediatype>
							<trackindex>2</trackindex>
							<clipindex>102</clipindex>
							<groupindex>1</groupindex>
						</link>
						<logginginfo>
							<description></description>
							<scene></scene>
							<shottake></shottake>
							<lognote></lognote>
							<good></good>
							<originalvideofilename></originalvideofilename>
							<originalaudiofilename></originalaudiofilename>
						</logginginfo>
						<colorinfo>
							<lut></lut>
							<lut1></lut1>
							<asc_sop></asc_sop>
							<asc_sat></asc_sat>
							<lut2></lut2>
						</colorinfo>
						<labels>
							<label2>Iris</label2>
						</labels>
					</clipitem>
					<clipitem id="clipitem-162">
						<masterclipid>masterclip-77</masterclipid>
						<name>A003_05301005_C106.mp4</name>
						<enabled>TRUE</enabled>
						<duration>1001</duration>
						<rate>
							<timebase>24</timebase>
							<ntsc>FALSE</ntsc>
						</rate>
						<start>16621</start>
						<end>16676</end>
						<in>112</in>
						<out>167</out>
						<pproTicksIn>1185408000000</pproTicksIn>
						<pproTicksOut>1767528000000</pproTicksOut>
						<alphatype>none</alphatype>
						<pixelaspectratio>square</pixelaspectratio>
						<anamorphic>FALSE</anamorphic>
						<file id="file-77">
							<name>A003_05301005_C106.mp4</name>
							<pathurl>file://localhost/F%3a/bengaluru%20scenes/scene%2043/A003_05301005_C106.mp4</pathurl>
							<rate>
								<timebase>24</timebase>
								<ntsc>FALSE</ntsc>
							</rate>
							<duration>1001</duration>
							<timecode>
								<rate>
									<timebase>24</timebase>
									<ntsc>FALSE</ntsc>
								</rate>
								<string>00:00:00:00</string>
								<frame>0</frame>
								<displayformat>NDF</displayformat>
							</timecode>
							<media>
								<video>
									<samplecharacteristics>
										<rate>
											<timebase>24</timebase>
											<ntsc>FALSE</ntsc>
										</rate>
										<width>1920</width>
										<height>1080</height>
										<anamorphic>FALSE</anamorphic>
										<pixelaspectratio>square</pixelaspectratio>
										<fielddominance>none</fielddominance>
									</samplecharacteristics>
								</video>
								<audio>
									<samplecharacteristics>
										<depth>16</depth>
										<samplerate>48000</samplerate>
									</samplecharacteristics>
									<channelcount>2</channelcount>
								</audio>
							</media>
						</file>
						<logginginfo>
							<description></description>
							<scene></scene>
							<shottake></shottake>
							<lognote></lognote>
							<good></good>
							<originalvideofilename></originalvideofilename>
							<originalaudiofilename></originalaudiofilename>
						</logginginfo>
						<colorinfo>
							<lut></lut>
							<lut1></lut1>
							<asc_sop></asc_sop>
							<asc_sat></asc_sat>
							<lut2></lut2>
						</colorinfo>
						<labels>
							<label2>Iris</label2>
						</labels>
					</clipitem>
					<clipitem id="clipitem-163">
						<masterclipid>masterclip-69</masterclipid>
						<name>A003_05300849_C080.mp4</name>
						<enabled>TRUE</enabled>
						<duration>3599</duration>
						<rate>
							<timebase>24</timebase>
							<ntsc>FALSE</ntsc>
						</rate>
						<start>16676</start>
						<end>16747</end>
						<in>1322</in>
						<out>1393</out>
						<pproTicksIn>13992048000000</pproTicksIn>
						<pproTicksOut>14743512000000</pproTicksOut>
						<alphatype>none</alphatype>
						<file id="file-69"/>
						<link>
							<linkclipref>clipitem-163</linkclipref>
							<mediatype>video</mediatype>
							<trackindex>1</trackindex>
							<clipindex>165</clipindex>
						</link>
						<link>
							<linkclipref>clipitem-579</linkclipref>
							<mediatype>audio</mediatype>
							<trackindex>1</trackindex>
							<clipindex>103</clipindex>
							<groupindex>1</groupindex>
						</link>
						<link>
							<linkclipref>clipitem-743</linkclipref>
							<mediatype>audio</mediatype>
							<trackindex>2</trackindex>
							<clipindex>103</clipindex>
							<groupindex>1</groupindex>
						</link>
						<logginginfo>
							<description></description>
							<scene></scene>
							<shottake></shottake>
							<lognote></lognote>
							<good></good>
							<originalvideofilename></originalvideofilename>
							<originalaudiofilename></originalaudiofilename>
						</logginginfo>
						<colorinfo>
							<lut></lut>
							<lut1></lut1>
							<asc_sop></asc_sop>
							<asc_sat></asc_sat>
							<lut2></lut2>
						</colorinfo>
						<labels>
							<label2>Iris</label2>
						</labels>
					</clipitem>
					<clipitem id="clipitem-164">
						<masterclipid>masterclip-77</masterclipid>
						<name>A003_05301005_C106.mp4</name>
						<enabled>TRUE</enabled>
						<duration>1001</duration>
						<rate>
							<timebase>24</timebase>
							<ntsc>FALSE</ntsc>
						</rate>
						<start>16747</start>
						<end>16774</end>
						<in>518</in>
						<out>545</out>
						<pproTicksIn>5482512000000</pproTicksIn>
						<pproTicksOut>5768280000000</pproTicksOut>
						<alphatype>none</alphatype>
						<file id="file-77"/>
						<logginginfo>
							<description></description>
							<scene></scene>
							<shottake></shottake>
							<lognote></lognote>
							<good></good>
							<originalvideofilename></originalvideofilename>
							<originalaudiofilename></originalaudiofilename>
						</logginginfo>
						<colorinfo>
							<lut></lut>
							<lut1></lut1>
							<asc_sop></asc_sop>
							<asc_sat></asc_sat>
							<lut2></lut2>
						</colorinfo>
						<labels>
							<label2>Iris</label2>
						</labels>
					</clipitem>
					<clipitem id="clipitem-165">
						<masterclipid>masterclip-76</masterclipid>
						<name>A003_05301000_C105.mp4</name>
						<enabled>TRUE</enabled>
						<duration>1746</duration>
						<rate>
							<timebase>24</timebase>
							<ntsc>FALSE</ntsc>
						</rate>
						<start>16774</start>
						<end>16865</end>
						<in>556</in>
						<out>647</out>
						<pproTicksIn>5884704000000</pproTicksIn>
						<pproTicksOut>6847848000000</pproTicksOut>
						<alphatype>none</alphatype>
						<file id="file-76"/>
						<link>
							<linkclipref>clipitem-165</linkclipref>
							<mediatype>video</mediatype>
							<trackindex>1</trackindex>
							<clipindex>167</clipindex>
						</link>
						<link>
							<linkclipref>clipitem-580</linkclipref>
							<mediatype>audio</mediatype>
							<trackindex>1</trackindex>
							<clipindex>104</clipindex>
							<groupindex>1</groupindex>
						</link>
						<link>
							<linkclipref>clipitem-744</linkclipref>
							<mediatype>audio</mediatype>
							<trackindex>2</trackindex>
							<clipindex>104</clipindex>
							<groupindex>1</groupindex>
						</link>
						<logginginfo>
							<description></description>
							<scene></scene>
							<shottake></shottake>
							<lognote></lognote>
							<good></good>
							<originalvideofilename></originalvideofilename>
							<originalaudiofilename></originalaudiofilename>
						</logginginfo>
						<colorinfo>
							<lut></lut>
							<lut1></lut1>
							<asc_sop></asc_sop>
							<asc_sat></asc_sat>
							<lut2></lut2>
						</colorinfo>
						<labels>
							<label2>Iris</label2>
						</labels>
					</clipitem>
					<clipitem id="clipitem-166">
						<masterclipid>masterclip-76</masterclipid>
						<name>A003_05301000_C105.mp4</name>
						<enabled>TRUE</enabled>
						<duration>1746</duration>
						<rate>
							<timebase>24</timebase>
							<ntsc>FALSE</ntsc>
						</rate>
						<start>16865</start>
						<end>16918</end>
						<in>647</in>
						<out>700</out>
						<pproTicksIn>6847848000000</pproTicksIn>
						<pproTicksOut>7408800000000</pproTicksOut>
						<alphatype>none</alphatype>
						<file id="file-76"/>
						<link>
							<linkclipref>clipitem-166</linkclipref>
							<mediatype>video</mediatype>
							<trackindex>1</trackindex>
							<clipindex>168</clipindex>
						</link>
						<link>
							<linkclipref>clipitem-581</linkclipref>
							<mediatype>audio</mediatype>
							<trackindex>1</trackindex>
							<clipindex>105</clipindex>
							<groupindex>1</groupindex>
						</link>
						<link>
							<linkclipref>clipitem-745</linkclipref>
							<mediatype>audio</mediatype>
							<trackindex>2</trackindex>
							<clipindex>105</clipindex>
							<groupindex>1</groupindex>
						</link>
						<logginginfo>
							<description></description>
							<scene></scene>
							<shottake></shottake>
							<lognote></lognote>
							<good></good>
							<originalvideofilename></originalvideofilename>
							<originalaudiofilename></originalaudiofilename>
						</logginginfo>
						<colorinfo>
							<lut></lut>
							<lut1></lut1>
							<asc_sop></asc_sop>
							<asc_sat></asc_sat>
							<lut2></lut2>
						</colorinfo>
						<labels>
							<label2>Iris</label2>
						</labels>
					</clipitem>
					<clipitem id="clipitem-167">
						<masterclipid>masterclip-76</masterclipid>
						<name>A003_05301000_C105.mp4</name>
						<enabled>TRUE</enabled>
						<duration>1746</duration>
						<rate>
							<timebase>24</timebase>
							<ntsc>FALSE</ntsc>
						</rate>
						<start>16918</start>
						<end>16929</end>
						<in>700</in>
						<out>711</out>
						<pproTicksIn>7408800000000</pproTicksIn>
						<pproTicksOut>7525224000000</pproTicksOut>
						<alphatype>none</alphatype>
						<file id="file-76"/>
						<link>
							<linkclipref>clipitem-167</linkclipref>
							<mediatype>video</mediatype>
							<trackindex>1</trackindex>
							<clipindex>169</clipindex>
						</link>
						<link>
							<linkclipref>clipitem-582</linkclipref>
							<mediatype>audio</mediatype>
							<trackindex>1</trackindex>
							<clipindex>106</clipindex>
							<groupindex>1</groupindex>
						</link>
						<link>
							<linkclipref>clipitem-746</linkclipref>
							<mediatype>audio</mediatype>
							<trackindex>2</trackindex>
							<clipindex>106</clipindex>
							<groupindex>1</groupindex>
						</link>
						<logginginfo>
							<description></description>
							<scene></scene>
							<shottake></shottake>
							<lognote></lognote>
							<good></good>
							<originalvideofilename></originalvideofilename>
							<originalaudiofilename></originalaudiofilename>
						</logginginfo>
						<colorinfo>
							<lut></lut>
							<lut1></lut1>
							<asc_sop></asc_sop>
							<asc_sat></asc_sat>
							<lut2></lut2>
						</colorinfo>
						<labels>
							<label2>Iris</label2>
						</labels>
					</clipitem>
					<clipitem id="clipitem-168">
						<masterclipid>masterclip-69</masterclipid>
						<name>A003_05300849_C080.mp4</name>
						<enabled>TRUE</enabled>
						<duration>3599</duration>
						<rate>
							<timebase>24</timebase>
							<ntsc>FALSE</ntsc>
						</rate>
						<start>16929</start>
						<end>16958</end>
						<in>1588</in>
						<out>1617</out>
						<pproTicksIn>16807392000000</pproTicksIn>
						<pproTicksOut>17114328000000</pproTicksOut>
						<alphatype>none</alphatype>
						<file id="file-69"/>
						<logginginfo>
							<description></description>
							<scene></scene>
							<shottake></shottake>
							<lognote></lognote>
							<good></good>
							<originalvideofilename></originalvideofilename>
							<originalaudiofilename></originalaudiofilename>
						</logginginfo>
						<colorinfo>
							<lut></lut>
							<lut1></lut1>
							<asc_sop></asc_sop>
							<asc_sat></asc_sat>
							<lut2></lut2>
						</colorinfo>
						<labels>
							<label2>Iris</label2>
						</labels>
					</clipitem>
					<clipitem id="clipitem-169">
						<masterclipid>masterclip-76</masterclipid>
						<name>A003_05301000_C105.mp4</name>
						<enabled>TRUE</enabled>
						<duration>1746</duration>
						<rate>
							<timebase>24</timebase>
							<ntsc>FALSE</ntsc>
						</rate>
						<start>16958</start>
						<end>16986</end>
						<in>738</in>
						<out>766</out>
						<pproTicksIn>7810992000000</pproTicksIn>
						<pproTicksOut>8107344000000</pproTicksOut>
						<alphatype>none</alphatype>
						<file id="file-76"/>
						<logginginfo>
							<description></description>
							<scene></scene>
							<shottake></shottake>
							<lognote></lognote>
							<good></good>
							<originalvideofilename></originalvideofilename>
							<originalaudiofilename></originalaudiofilename>
						</logginginfo>
						<colorinfo>
							<lut></lut>
							<lut1></lut1>
							<asc_sop></asc_sop>
							<asc_sat></asc_sat>
							<lut2></lut2>
						</colorinfo>
						<labels>
							<label2>Iris</label2>
						</labels>
					</clipitem>
					<clipitem id="clipitem-170">
						<masterclipid>masterclip-78</masterclipid>
						<name>A003_05301037_C119.mp4</name>
						<enabled>TRUE</enabled>
						<duration>237</duration>
						<rate>
							<timebase>24</timebase>
							<ntsc>FALSE</ntsc>
						</rate>
						<start>16986</start>
						<end>17017</end>
						<in>119</in>
						<out>150</out>
						<pproTicksIn>1259496000000</pproTicksIn>
						<pproTicksOut>1587600000000</pproTicksOut>
						<alphatype>none</alphatype>
						<pixelaspectratio>square</pixelaspectratio>
						<anamorphic>FALSE</anamorphic>
						<file id="file-78">
							<name>A003_05301037_C119.mp4</name>
							<pathurl>file://localhost/F%3a/bengaluru%20scenes/scene%2043/A003_05301037_C119.mp4</pathurl>
							<rate>
								<timebase>24</timebase>
								<ntsc>FALSE</ntsc>
							</rate>
							<duration>237</duration>
							<timecode>
								<rate>
									<timebase>24</timebase>
									<ntsc>FALSE</ntsc>
								</rate>
								<string>00:00:00:00</string>
								<frame>0</frame>
								<displayformat>NDF</displayformat>
							</timecode>
							<media>
								<video>
									<samplecharacteristics>
										<rate>
											<timebase>24</timebase>
											<ntsc>FALSE</ntsc>
										</rate>
										<width>1920</width>
										<height>1080</height>
										<anamorphic>FALSE</anamorphic>
										<pixelaspectratio>square</pixelaspectratio>
										<fielddominance>none</fielddominance>
									</samplecharacteristics>
								</video>
								<audio>
									<samplecharacteristics>
										<depth>16</depth>
										<samplerate>48000</samplerate>
									</samplecharacteristics>
									<channelcount>2</channelcount>
								</audio>
							</media>
						</file>
						<logginginfo>
							<description></description>
							<scene></scene>
							<shottake></shottake>
							<lognote></lognote>
							<good></good>
							<originalvideofilename></originalvideofilename>
							<originalaudiofilename></originalaudiofilename>
						</logginginfo>
						<colorinfo>
							<lut></lut>
							<lut1></lut1>
							<asc_sop></asc_sop>
							<asc_sat></asc_sat>
							<lut2></lut2>
						</colorinfo>
						<labels>
							<label2>Iris</label2>
						</labels>
					</clipitem>
					<clipitem id="clipitem-171">
						<masterclipid>masterclip-75</masterclipid>
						<name>A003_05301010_C109.mp4</name>
						<enabled>TRUE</enabled>
						<duration>991</duration>
						<rate>
							<timebase>24</timebase>
							<ntsc>FALSE</ntsc>
						</rate>
						<start>17017</start>
						<end>17036</end>
						<in>646</in>
						<out>665</out>
						<pproTicksIn>6837264000000</pproTicksIn>
						<pproTicksOut>7038360000000</pproTicksOut>
						<alphatype>none</alphatype>
						<file id="file-75"/>
						<logginginfo>
							<description></description>
							<scene></scene>
							<shottake></shottake>
							<lognote></lognote>
							<good></good>
							<originalvideofilename></originalvideofilename>
							<originalaudiofilename></originalaudiofilename>
						</logginginfo>
						<colorinfo>
							<lut></lut>
							<lut1></lut1>
							<asc_sop></asc_sop>
							<asc_sat></asc_sat>
							<lut2></lut2>
						</colorinfo>
						<labels>
							<label2>Iris</label2>
						</labels>
					</clipitem>
					<clipitem id="clipitem-172">
						<masterclipid>masterclip-79</masterclipid>
						<name>A003_05301044_C122.mp4</name>
						<enabled>TRUE</enabled>
						<duration>5376</duration>
						<rate>
							<timebase>24</timebase>
							<ntsc>FALSE</ntsc>
						</rate>
						<start>17036</start>
						<end>17112</end>
						<in>182</in>
						<out>258</out>
						<pproTicksIn>1926288000000</pproTicksIn>
						<pproTicksOut>2730672000000</pproTicksOut>
						<alphatype>none</alphatype>
						<pixelaspectratio>square</pixelaspectratio>
						<anamorphic>FALSE</anamorphic>
						<file id="file-79">
							<name>A003_05301044_C122.mp4</name>
							<pathurl>file://localhost/F%3a/bengaluru%20scenes/scene%2043/A003_05301044_C122.mp4</pathurl>
							<rate>
								<timebase>24</timebase>
								<ntsc>FALSE</ntsc>
							</rate>
							<duration>5376</duration>
							<timecode>
								<rate>
									<timebase>24</timebase>
									<ntsc>FALSE</ntsc>
								</rate>
								<string>00:00:00:00</string>
								<frame>0</frame>
								<displayformat>NDF</displayformat>
							</timecode>
							<media>
								<video>
									<samplecharacteristics>
										<rate>
											<timebase>24</timebase>
											<ntsc>FALSE</ntsc>
										</rate>
										<width>1920</width>
										<height>1080</height>
										<anamorphic>FALSE</anamorphic>
										<pixelaspectratio>square</pixelaspectratio>
										<fielddominance>none</fielddominance>
									</samplecharacteristics>
								</video>
								<audio>
									<samplecharacteristics>
										<depth>16</depth>
										<samplerate>48000</samplerate>
									</samplecharacteristics>
									<channelcount>2</channelcount>
								</audio>
							</media>
						</file>
						<logginginfo>
							<description></description>
							<scene></scene>
							<shottake></shottake>
							<lognote></lognote>
							<good></good>
							<originalvideofilename></originalvideofilename>
							<originalaudiofilename></originalaudiofilename>
						</logginginfo>
						<colorinfo>
							<lut></lut>
							<lut1></lut1>
							<asc_sop></asc_sop>
							<asc_sat></asc_sat>
							<lut2></lut2>
						</colorinfo>
						<labels>
							<label2>Iris</label2>
						</labels>
					</clipitem>
					<clipitem id="clipitem-173">
						<masterclipid>masterclip-80</masterclipid>
						<name>A008_10160005_C166.mov</name>
						<enabled>TRUE</enabled>
						<duration>8440</duration>
						<rate>
							<timebase>24</timebase>
							<ntsc>FALSE</ntsc>
						</rate>
						<start>17112</start>
						<end>17189</end>
						<in>6507</in>
						<out>6584</out>
						<pproTicksIn>68870088000000</pproTicksIn>
						<pproTicksOut>69685056000000</pproTicksOut>
						<alphatype>none</alphatype>
						<pixelaspectratio>square</pixelaspectratio>
						<anamorphic>FALSE</anamorphic>
						<file id="file-80">
							<name>A008_10160005_C166.mov</name>
							<pathurl>file://localhost/F%3a/the%201st%20aara%20flashback/scene%2024/A008_10160005_C166.mov</pathurl>
							<rate>
								<timebase>24</timebase>
								<ntsc>FALSE</ntsc>
							</rate>
							<duration>8440</duration>
							<timecode>
								<rate>
									<timebase>24</timebase>
									<ntsc>FALSE</ntsc>
								</rate>
								<string>01:27:20:08</string>
								<frame>125768</frame>
								<displayformat>NDF</displayformat>
							</timecode>
							<media>
								<video>
									<samplecharacteristics>
										<rate>
											<timebase>24</timebase>
											<ntsc>FALSE</ntsc>
										</rate>
										<width>1280</width>
										<height>720</height>
										<anamorphic>FALSE</anamorphic>
										<pixelaspectratio>square</pixelaspectratio>
										<fielddominance>none</fielddominance>
									</samplecharacteristics>
								</video>
								<audio>
									<samplecharacteristics>
										<depth>16</depth>
										<samplerate>48000</samplerate>
									</samplecharacteristics>
									<channelcount>2</channelcount>
								</audio>
							</media>
						</file>
						<filter>
							<effect>
								<name>Basic Motion</name>
								<effectid>basic</effectid>
								<effectcategory>motion</effectcategory>
								<effecttype>motion</effecttype>
								<mediatype>video</mediatype>
								<pproBypass>false</pproBypass>
								<parameter authoringApp="PremierePro">
									<parameterid>scale</parameterid>
									<name>Scale</name>
									<valuemin>0</valuemin>
									<valuemax>1000</valuemax>
									<value>150</value>
								</parameter>
								<parameter authoringApp="PremierePro">
									<parameterid>rotation</parameterid>
									<name>Rotation</name>
									<valuemin>-8640</valuemin>
									<valuemax>8640</valuemax>
									<value>0</value>
								</parameter>
								<parameter authoringApp="PremierePro">
									<parameterid>center</parameterid>
									<name>Center</name>
									<value>
										<horiz>0</horiz>
										<vert>0</vert>
									</value>
								</parameter>
								<parameter authoringApp="PremierePro">
									<parameterid>centerOffset</parameterid>
									<name>Anchor Point</name>
									<value>
										<horiz>0</horiz>
										<vert>0</vert>
									</value>
								</parameter>
								<parameter authoringApp="PremierePro">
									<parameterid>antiflicker</parameterid>
									<name>Anti-flicker Filter</name>
									<valuemin>0.0</valuemin>
									<valuemax>1.0</valuemax>
									<value>0</value>
								</parameter>
							</effect>
						</filter>
						<logginginfo>
							<description></description>
							<scene></scene>
							<shottake></shottake>
							<lognote></lognote>
							<good></good>
							<originalvideofilename></originalvideofilename>
							<originalaudiofilename></originalaudiofilename>
						</logginginfo>
						<colorinfo>
							<lut></lut>
							<lut1></lut1>
							<asc_sop></asc_sop>
							<asc_sat></asc_sat>
							<lut2></lut2>
						</colorinfo>
						<labels>
							<label2>Iris</label2>
						</labels>
					</clipitem>
					<clipitem id="clipitem-174">
						<masterclipid>masterclip-79</masterclipid>
						<name>A003_05301044_C122.mp4</name>
						<enabled>TRUE</enabled>
						<duration>5376</duration>
						<rate>
							<timebase>24</timebase>
							<ntsc>FALSE</ntsc>
						</rate>
						<start>17189</start>
						<end>17261</end>
						<in>258</in>
						<out>330</out>
						<pproTicksIn>2730672000000</pproTicksIn>
						<pproTicksOut>3492720000000</pproTicksOut>
						<alphatype>none</alphatype>
						<file id="file-79"/>
						<logginginfo>
							<description></description>
							<scene></scene>
							<shottake></shottake>
							<lognote></lognote>
							<good></good>
							<originalvideofilename></originalvideofilename>
							<originalaudiofilename></originalaudiofilename>
						</logginginfo>
						<colorinfo>
							<lut></lut>
							<lut1></lut1>
							<asc_sop></asc_sop>
							<asc_sat></asc_sat>
							<lut2></lut2>
						</colorinfo>
						<labels>
							<label2>Iris</label2>
						</labels>
					</clipitem>
					<transitionitem>
						<start>17261</start>
						<end>17271</end>
						<alignment>start-black</alignment>
						<cutPointTicks>0</cutPointTicks>
						<rate>
							<timebase>24</timebase>
							<ntsc>FALSE</ntsc>
						</rate>
						<effect>
							<name>Cross Dissolve</name>
							<effectid>Cross Dissolve</effectid>
							<effectcategory>Dissolve</effectcategory>
							<effecttype>transition</effecttype>
							<mediatype>video</mediatype>
							<wipecode>0</wipecode>
							<wipeaccuracy>100</wipeaccuracy>
							<startratio>0</startratio>
							<endratio>1</endratio>
							<reverse>FALSE</reverse>
						</effect>
					</transitionitem>
					<clipitem id="clipitem-175">
						<masterclipid>masterclip-81</masterclipid>
						<name>A016_03162217_C163.mp4</name>
						<enabled>TRUE</enabled>
						<duration>1061</duration>
						<rate>
							<timebase>24</timebase>
							<ntsc>FALSE</ntsc>
						</rate>
						<start>-1</start>
						<end>17303</end>
						<in>356</in>
						<out>398</out>
						<pproTicksIn>3767904000000</pproTicksIn>
						<pproTicksOut>4212432000000</pproTicksOut>
						<alphatype>none</alphatype>
						<pixelaspectratio>square</pixelaspectratio>
						<anamorphic>FALSE</anamorphic>
						<file id="file-81">
							<name>A016_03162217_C163.mp4</name>
							<pathurl>file://localhost/F%3a/friendship%20song/only%203%20and%20aura/commercial%20street%20shopping/A016_03162217_C163.mp4</pathurl>
							<rate>
								<timebase>24</timebase>
								<ntsc>FALSE</ntsc>
							</rate>
							<duration>1061</duration>
							<timecode>
								<rate>
									<timebase>24</timebase>
									<ntsc>FALSE</ntsc>
								</rate>
								<string>00:00:00:00</string>
								<frame>0</frame>
								<displayformat>NDF</displayformat>
							</timecode>
							<media>
								<video>
									<samplecharacteristics>
										<rate>
											<timebase>24</timebase>
											<ntsc>FALSE</ntsc>
										</rate>
										<width>1920</width>
										<height>1080</height>
										<anamorphic>FALSE</anamorphic>
										<pixelaspectratio>square</pixelaspectratio>
										<fielddominance>none</fielddominance>
									</samplecharacteristics>
								</video>
								<audio>
									<samplecharacteristics>
										<depth>16</depth>
										<samplerate>48000</samplerate>
									</samplecharacteristics>
									<channelcount>2</channelcount>
								</audio>
							</media>
						</file>
						<logginginfo>
							<description></description>
							<scene></scene>
							<shottake></shottake>
							<lognote></lognote>
							<good></good>
							<originalvideofilename></originalvideofilename>
							<originalaudiofilename></originalaudiofilename>
						</logginginfo>
						<colorinfo>
							<lut></lut>
							<lut1></lut1>
							<asc_sop></asc_sop>
							<asc_sat></asc_sat>
							<lut2></lut2>
						</colorinfo>
						<labels>
							<label2>Iris</label2>
						</labels>
					</clipitem>
					<transitionitem>
						<start>17303</start>
						<end>17313</end>
						<alignment>start-black</alignment>
						<cutPointTicks>0</cutPointTicks>
						<rate>
							<timebase>24</timebase>
							<ntsc>FALSE</ntsc>
						</rate>
						<effect>
							<name>Cross Dissolve</name>
							<effectid>Cross Dissolve</effectid>
							<effectcategory>Dissolve</effectcategory>
							<effecttype>transition</effecttype>
							<mediatype>video</mediatype>
							<wipecode>0</wipecode>
							<wipeaccuracy>100</wipeaccuracy>
							<startratio>0</startratio>
							<endratio>1</endratio>
							<reverse>FALSE</reverse>
						</effect>
					</transitionitem>
					<clipitem id="clipitem-176">
						<masterclipid>masterclip-82</masterclipid>
						<name>A002_05290514_C196.mp4</name>
						<enabled>TRUE</enabled>
						<duration>2731</duration>
						<rate>
							<timebase>24</timebase>
							<ntsc>FALSE</ntsc>
						</rate>
						<start>-1</start>
						<end>17343</end>
						<in>975</in>
						<out>1015</out>
						<pproTicksIn>6191640000000</pproTicksIn>
						<pproTicksOut>6445656000000</pproTicksOut>
						<alphatype>none</alphatype>
						<pixelaspectratio>square</pixelaspectratio>
						<anamorphic>FALSE</anamorphic>
						<file id="file-82">
							<name>A002_05290514_C196.mp4</name>
							<pathurl>file://localhost/F%3a/friendship%20song/only%203%20and%20aura/3%20and%20aura/A002_05290514_C196.mp4</pathurl>
							<rate>
								<timebase>24</timebase>
								<ntsc>FALSE</ntsc>
							</rate>
							<duration>1639</duration>
							<timecode>
								<rate>
									<timebase>24</timebase>
									<ntsc>FALSE</ntsc>
								</rate>
								<string>00:00:00:00</string>
								<frame>0</frame>
								<displayformat>NDF</displayformat>
							</timecode>
							<media>
								<video>
									<samplecharacteristics>
										<rate>
											<timebase>24</timebase>
											<ntsc>FALSE</ntsc>
										</rate>
										<width>1920</width>
										<height>1080</height>
										<anamorphic>FALSE</anamorphic>
										<pixelaspectratio>square</pixelaspectratio>
										<fielddominance>none</fielddominance>
									</samplecharacteristics>
								</video>
								<audio>
									<samplecharacteristics>
										<depth>16</depth>
										<samplerate>48000</samplerate>
									</samplecharacteristics>
									<channelcount>2</channelcount>
								</audio>
							</media>
						</file>
						<filter>
							<effect>
								<name>Time Remap</name>
								<effectid>timeremap</effectid>
								<effectcategory>motion</effectcategory>
								<effecttype>motion</effecttype>
								<mediatype>video</mediatype>
								<parameter authoringApp="PremierePro">
									<parameterid>variablespeed</parameterid>
									<name>variablespeed</name>
									<valuemin>0</valuemin>
									<valuemax>1</valuemax>
									<value>0</value>
								</parameter>
								<parameter authoringApp="PremierePro">
									<parameterid>speed</parameterid>
									<name>speed</name>
									<valuemin>-100000</valuemin>
									<valuemax>100000</valuemax>
									<value>60</value>
								</parameter>
								<parameter authoringApp="PremierePro">
									<parameterid>reverse</parameterid>
									<name>reverse</name>
									<value>FALSE</value>
								</parameter>
								<parameter authoringApp="PremierePro">
									<parameterid>frameblending</parameterid>
									<name>frameblending</name>
									<value>FALSE</value>
								</parameter>
								<parameter authoringApp="PremierePro">
									<parameterid>graphdict</parameterid>
									<name>graphdict</name>
									<valuemin>0</valuemin>
									<valuemax>1638</valuemax>
									<value>0</value>
									<keyframe>
										<when>0</when>
										<value>0</value>
										<speedvirtualkf>TRUE</speedvirtualkf>
										<speedkfstart>TRUE</speedkfstart>
									</keyframe>
									<keyframe>
										<when>975</when>
										<value>585</value>
										<speedvirtualkf>TRUE</speedvirtualkf>
										<speedkfin>TRUE</speedkfin>
									</keyframe>
									<keyframe>
										<when>1015</when>
										<value>609</value>
										<speedvirtualkf>TRUE</speedvirtualkf>
										<speedkfout>TRUE</speedkfout>
									</keyframe>
									<keyframe>
										<when>2731</when>
										<value>1638</value>
										<speedvirtualkf>TRUE</speedvirtualkf>
										<speedkfend>TRUE</speedkfend>
									</keyframe>
									<interpolation>
										<name>FCPCurve</name>
									</interpolation>
								</parameter>
							</effect>
						</filter>
						<logginginfo>
							<description></description>
							<scene></scene>
							<shottake></shottake>
							<lognote></lognote>
							<good></good>
							<originalvideofilename></originalvideofilename>
							<originalaudiofilename></originalaudiofilename>
						</logginginfo>
						<colorinfo>
							<lut></lut>
							<lut1></lut1>
							<asc_sop></asc_sop>
							<asc_sat></asc_sat>
							<lut2></lut2>
						</colorinfo>
						<labels>
							<label2>Iris</label2>
						</labels>
					</clipitem>
					<transitionitem>
						<start>17343</start>
						<end>17353</end>
						<alignment>start-black</alignment>
						<cutPointTicks>0</cutPointTicks>
						<rate>
							<timebase>24</timebase>
							<ntsc>FALSE</ntsc>
						</rate>
						<effect>
							<name>Cross Dissolve</name>
							<effectid>Cross Dissolve</effectid>
							<effectcategory>Dissolve</effectcategory>
							<effecttype>transition</effecttype>
							<mediatype>video</mediatype>
							<wipecode>0</wipecode>
							<wipeaccuracy>100</wipeaccuracy>
							<startratio>0</startratio>
							<endratio>1</endratio>
							<reverse>FALSE</reverse>
						</effect>
					</transitionitem>
					<clipitem id="clipitem-177">
						<masterclipid>masterclip-83</masterclipid>
						<name>A002_05291012_C251.mp4</name>
						<enabled>TRUE</enabled>
						<duration>2210</duration>
						<rate>
							<timebase>24</timebase>
							<ntsc>FALSE</ntsc>
						</rate>
						<start>-1</start>
						<end>17390</end>
						<in>287</in>
						<out>333</out>
						<pproTicksIn>1820448000000</pproTicksIn>
						<pproTicksOut>2118916800000</pproTicksOut>
						<alphatype>none</alphatype>
						<pixelaspectratio>square</pixelaspectratio>
						<anamorphic>FALSE</anamorphic>
						<file id="file-83">
							<name>A002_05291012_C251.mp4</name>
							<pathurl>file://localhost/F%3a/bengaluru%20scenes/scene%2036/A002_05291012_C251.mp4</pathurl>
							<rate>
								<timebase>24</timebase>
								<ntsc>FALSE</ntsc>
							</rate>
							<duration>1326</duration>
							<timecode>
								<rate>
									<timebase>24</timebase>
									<ntsc>FALSE</ntsc>
								</rate>
								<string>00:00:00:00</string>
								<frame>0</frame>
								<displayformat>NDF</displayformat>
							</timecode>
							<media>
								<video>
									<samplecharacteristics>
										<rate>
											<timebase>24</timebase>
											<ntsc>FALSE</ntsc>
										</rate>
										<width>1920</width>
										<height>1080</height>
										<anamorphic>FALSE</anamorphic>
										<pixelaspectratio>square</pixelaspectratio>
										<fielddominance>none</fielddominance>
									</samplecharacteristics>
								</video>
								<audio>
									<samplecharacteristics>
										<depth>16</depth>
										<samplerate>48000</samplerate>
									</samplecharacteristics>
									<channelcount>2</channelcount>
								</audio>
							</media>
						</file>
						<filter>
							<effect>
								<name>Time Remap</name>
								<effectid>timeremap</effectid>
								<effectcategory>motion</effectcategory>
								<effecttype>motion</effecttype>
								<mediatype>video</mediatype>
								<parameter authoringApp="PremierePro">
									<parameterid>variablespeed</parameterid>
									<name>variablespeed</name>
									<valuemin>0</valuemin>
									<valuemax>1</valuemax>
									<value>0</value>
								</parameter>
								<parameter authoringApp="PremierePro">
									<parameterid>speed</parameterid>
									<name>speed</name>
									<valuemin>-100000</valuemin>
									<valuemax>100000</valuemax>
									<value>60</value>
								</parameter>
								<parameter authoringApp="PremierePro">
									<parameterid>reverse</parameterid>
									<name>reverse</name>
									<value>FALSE</value>
								</parameter>
								<parameter authoringApp="PremierePro">
									<parameterid>frameblending</parameterid>
									<name>frameblending</name>
									<value>FALSE</value>
								</parameter>
								<parameter authoringApp="PremierePro">
									<parameterid>graphdict</parameterid>
									<name>graphdict</name>
									<valuemin>0</valuemin>
									<valuemax>1326</valuemax>
									<value>0</value>
									<keyframe>
										<when>0</when>
										<value>0</value>
										<speedvirtualkf>TRUE</speedvirtualkf>
										<speedkfstart>TRUE</speedkfstart>
									</keyframe>
									<keyframe>
										<when>287</when>
										<value>172</value>
										<speedvirtualkf>TRUE</speedvirtualkf>
										<speedkfin>TRUE</speedkfin>
									</keyframe>
									<keyframe>
										<when>333</when>
										<value>199</value>
										<speedvirtualkf>TRUE</speedvirtualkf>
										<speedkfout>TRUE</speedkfout>
									</keyframe>
									<keyframe>
										<when>2210</when>
										<value>1326</value>
										<speedvirtualkf>TRUE</speedvirtualkf>
										<speedkfend>TRUE</speedkfend>
									</keyframe>
									<interpolation>
										<name>FCPCurve</name>
									</interpolation>
								</parameter>
							</effect>
						</filter>
						<logginginfo>
							<description></description>
							<scene></scene>
							<shottake></shottake>
							<lognote></lognote>
							<good></good>
							<originalvideofilename></originalvideofilename>
							<originalaudiofilename></originalaudiofilename>
						</logginginfo>
						<colorinfo>
							<lut></lut>
							<lut1></lut1>
							<asc_sop></asc_sop>
							<asc_sat></asc_sat>
							<lut2></lut2>
						</colorinfo>
						<labels>
							<label2>Iris</label2>
						</labels>
					</clipitem>
					<clipitem id="clipitem-178">
						<masterclipid>masterclip-76</masterclipid>
						<name>A003_05301000_C105.mp4</name>
						<enabled>TRUE</enabled>
						<duration>1746</duration>
						<rate>
							<timebase>24</timebase>
							<ntsc>FALSE</ntsc>
						</rate>
						<start>17390</start>
						<end>17412</end>
						<in>803</in>
						<out>825</out>
						<pproTicksIn>8498952000000</pproTicksIn>
						<pproTicksOut>8731800000000</pproTicksOut>
						<alphatype>none</alphatype>
						<file id="file-76"/>
						<logginginfo>
							<description></description>
							<scene></scene>
							<shottake></shottake>
							<lognote></lognote>
							<good></good>
							<originalvideofilename></originalvideofilename>
							<originalaudiofilename></originalaudiofilename>
						</logginginfo>
						<colorinfo>
							<lut></lut>
							<lut1></lut1>
							<asc_sop></asc_sop>
							<asc_sat></asc_sat>
							<lut2></lut2>
						</colorinfo>
						<labels>
							<label2>Iris</label2>
						</labels>
					</clipitem>
					<clipitem id="clipitem-179">
						<masterclipid>masterclip-75</masterclipid>
						<name>A003_05301010_C109.mp4</name>
						<enabled>TRUE</enabled>
						<duration>900</duration>
						<rate>
							<timebase>24</timebase>
							<ntsc>FALSE</ntsc>
						</rate>
						<start>17412</start>
						<end>17452</end>
						<in>634</in>
						<out>673</out>
						<pproTicksIn>7377048000000</pproTicksIn>
						<pproTicksOut>7842743999998</pproTicksOut>
						<alphatype>none</alphatype>
						<file id="file-75"/>
						<filter>
							<effect>
								<name>Time Remap</name>
								<effectid>timeremap</effectid>
								<effectcategory>motion</effectcategory>
								<effecttype>motion</effecttype>
								<mediatype>video</mediatype>
								<parameter authoringApp="PremierePro">
									<parameterid>variablespeed</parameterid>
									<name>variablespeed</name>
									<valuemin>0</valuemin>
									<valuemax>1</valuemax>
									<value>0</value>
								</parameter>
								<parameter authoringApp="PremierePro">
									<parameterid>speed</parameterid>
									<name>speed</name>
									<valuemin>-100000</valuemin>
									<valuemax>100000</valuemax>
									<value>110</value>
								</parameter>
								<parameter authoringApp="PremierePro">
									<parameterid>reverse</parameterid>
									<name>reverse</name>
									<value>FALSE</value>
								</parameter>
								<parameter authoringApp="PremierePro">
									<parameterid>frameblending</parameterid>
									<name>frameblending</name>
									<value>FALSE</value>
								</parameter>
								<parameter authoringApp="PremierePro">
									<parameterid>graphdict</parameterid>
									<name>graphdict</name>
									<valuemin>0</valuemin>
									<valuemax>990</valuemax>
									<value>0</value>
									<keyframe>
										<when>0</when>
										<value>0</value>
										<speedvirtualkf>TRUE</speedvirtualkf>
										<speedkfstart>TRUE</speedkfstart>
									</keyframe>
									<keyframe>
										<when>634</when>
										<value>697</value>
										<speedvirtualkf>TRUE</speedvirtualkf>
										<speedkfin>TRUE</speedkfin>
									</keyframe>
									<keyframe>
										<when>673</when>
										<value>740</value>
										<speedvirtualkf>TRUE</speedvirtualkf>
										<speedkfout>TRUE</speedkfout>
									</keyframe>
									<keyframe>
										<when>900</when>
										<value>990</value>
										<speedvirtualkf>TRUE</speedvirtualkf>
										<speedkfend>TRUE</speedkfend>
									</keyframe>
									<interpolation>
										<name>FCPCurve</name>
									</interpolation>
								</parameter>
							</effect>
						</filter>
						<logginginfo>
							<description></description>
							<scene></scene>
							<shottake></shottake>
							<lognote></lognote>
							<good></good>
							<originalvideofilename></originalvideofilename>
							<originalaudiofilename></originalaudiofilename>
						</logginginfo>
						<colorinfo>
							<lut></lut>
							<lut1></lut1>
							<asc_sop></asc_sop>
							<asc_sat></asc_sat>
							<lut2></lut2>
						</colorinfo>
						<labels>
							<label2>Iris</label2>
						</labels>
					</clipitem>
					<clipitem id="clipitem-180">
						<masterclipid>masterclip-79</masterclipid>
						<name>A003_05301044_C122.mp4</name>
						<enabled>TRUE</enabled>
						<duration>5376</duration>
						<rate>
							<timebase>24</timebase>
							<ntsc>FALSE</ntsc>
						</rate>
						<start>17452</start>
						<end>-1</end>
						<in>686</in>
						<out>731</out>
						<pproTicksIn>7260624000000</pproTicksIn>
						<pproTicksOut>7736904000000</pproTicksOut>
						<alphatype>none</alphatype>
						<file id="file-79"/>
						<logginginfo>
							<description></description>
							<scene></scene>
							<shottake></shottake>
							<lognote></lognote>
							<good></good>
							<originalvideofilename></originalvideofilename>
							<originalaudiofilename></originalaudiofilename>
						</logginginfo>
						<colorinfo>
							<lut></lut>
							<lut1></lut1>
							<asc_sop></asc_sop>
							<asc_sat></asc_sat>
							<lut2></lut2>
						</colorinfo>
						<labels>
							<label2>Iris</label2>
						</labels>
					</clipitem>
					<transitionitem>
						<start>17477</start>
						<end>17497</end>
						<alignment>end-black</alignment>
						<cutPointTicks>211680000000</cutPointTicks>
						<rate>
							<timebase>24</timebase>
							<ntsc>FALSE</ntsc>
						</rate>
						<effect>
							<name>Cross Dissolve</name>
							<effectid>Cross Dissolve</effectid>
							<effectcategory>Dissolve</effectcategory>
							<effecttype>transition</effecttype>
							<mediatype>video</mediatype>
							<wipecode>0</wipecode>
							<wipeaccuracy>100</wipeaccuracy>
							<startratio>0</startratio>
							<endratio>1</endratio>
							<reverse>FALSE</reverse>
						</effect>
					</transitionitem>
					<transitionitem>
						<start>17497</start>
						<end>17517</end>
						<alignment>start-black</alignment>
						<cutPointTicks>0</cutPointTicks>
						<rate>
							<timebase>24</timebase>
							<ntsc>FALSE</ntsc>
						</rate>
						<effect>
							<name>Cross Dissolve</name>
							<effectid>Cross Dissolve</effectid>
							<effectcategory>Dissolve</effectcategory>
							<effecttype>transition</effecttype>
							<mediatype>video</mediatype>
							<wipecode>0</wipecode>
							<wipeaccuracy>100</wipeaccuracy>
							<startratio>0</startratio>
							<endratio>1</endratio>
							<reverse>FALSE</reverse>
						</effect>
					</transitionitem>
					<clipitem id="clipitem-181">
						<masterclipid>masterclip-84</masterclipid>
						<name>A015_03070814_C040.mp4</name>
						<enabled>TRUE</enabled>
						<duration>309</duration>
						<rate>
							<timebase>24</timebase>
							<ntsc>FALSE</ntsc>
						</rate>
						<start>-1</start>
						<end>17542</end>
						<in>111</in>
						<out>156</out>
						<pproTicksIn>1174824000000</pproTicksIn>
						<pproTicksOut>1651104000000</pproTicksOut>
						<alphatype>none</alphatype>
						<pixelaspectratio>square</pixelaspectratio>
						<anamorphic>FALSE</anamorphic>
						<file id="file-84">
							<name>A015_03070814_C040.mp4</name>
							<pathurl>file://localhost/F%3a/bengaluru%20scenes/scene%2033/A015_03070814_C040.mp4</pathurl>
							<rate>
								<timebase>24</timebase>
								<ntsc>FALSE</ntsc>
							</rate>
							<duration>309</duration>
							<timecode>
								<rate>
									<timebase>24</timebase>
									<ntsc>FALSE</ntsc>
								</rate>
								<string>00:00:00:00</string>
								<frame>0</frame>
								<displayformat>NDF</displayformat>
							</timecode>
							<media>
								<video>
									<samplecharacteristics>
										<rate>
											<timebase>24</timebase>
											<ntsc>FALSE</ntsc>
										</rate>
										<width>1280</width>
										<height>1080</height>
										<anamorphic>FALSE</anamorphic>
										<pixelaspectratio>square</pixelaspectratio>
										<fielddominance>none</fielddominance>
									</samplecharacteristics>
								</video>
								<audio>
									<samplecharacteristics>
										<depth>16</depth>
										<samplerate>48000</samplerate>
									</samplecharacteristics>
									<channelcount>2</channelcount>
								</audio>
							</media>
						</file>
						<filter>
							<effect>
								<name>Basic Motion</name>
								<effectid>basic</effectid>
								<effectcategory>motion</effectcategory>
								<effecttype>motion</effecttype>
								<mediatype>video</mediatype>
								<pproBypass>false</pproBypass>
								<parameter authoringApp="PremierePro">
									<parameterid>scale</parameterid>
									<name>Scale</name>
									<valuemin>0</valuemin>
									<valuemax>1000</valuemax>
									<value>148</value>
								</parameter>
								<parameter authoringApp="PremierePro">
									<parameterid>rotation</parameterid>
									<name>Rotation</name>
									<valuemin>-8640</valuemin>
									<valuemax>8640</valuemax>
									<value>0</value>
								</parameter>
								<parameter authoringApp="PremierePro">
									<parameterid>center</parameterid>
									<name>Center</name>
									<value>
										<horiz>0</horiz>
										<vert>0</vert>
									</value>
								</parameter>
								<parameter authoringApp="PremierePro">
									<parameterid>centerOffset</parameterid>
									<name>Anchor Point</name>
									<value>
										<horiz>0</horiz>
										<vert>0</vert>
									</value>
								</parameter>
								<parameter authoringApp="PremierePro">
									<parameterid>antiflicker</parameterid>
									<name>Anti-flicker Filter</name>
									<valuemin>0.0</valuemin>
									<valuemax>1.0</valuemax>
									<value>0</value>
								</parameter>
							</effect>
						</filter>
						<logginginfo>
							<description></description>
							<scene></scene>
							<shottake></shottake>
							<lognote></lognote>
							<good></good>
							<originalvideofilename></originalvideofilename>
							<originalaudiofilename></originalaudiofilename>
						</logginginfo>
						<colorinfo>
							<lut></lut>
							<lut1></lut1>
							<asc_sop></asc_sop>
							<asc_sat></asc_sat>
							<lut2></lut2>
						</colorinfo>
						<labels>
							<label2>Iris</label2>
						</labels>
					</clipitem>
					<clipitem id="clipitem-182">
						<masterclipid>masterclip-85</masterclipid>
						<name>A015_03070811_C036.mp4</name>
						<enabled>TRUE</enabled>
						<duration>757</duration>
						<rate>
							<timebase>24</timebase>
							<ntsc>FALSE</ntsc>
						</rate>
						<start>17542</start>
						<end>17590</end>
						<in>348</in>
						<out>396</out>
						<pproTicksIn>3683232000000</pproTicksIn>
						<pproTicksOut>4191264000000</pproTicksOut>
						<alphatype>none</alphatype>
						<pixelaspectratio>square</pixelaspectratio>
						<anamorphic>FALSE</anamorphic>
						<file id="file-85">
							<name>A015_03070811_C036.mp4</name>
							<pathurl>file://localhost/F%3a/bengaluru%20scenes/scene%2033/A015_03070811_C036.mp4</pathurl>
							<rate>
								<timebase>24</timebase>
								<ntsc>FALSE</ntsc>
							</rate>
							<duration>757</duration>
							<timecode>
								<rate>
									<timebase>24</timebase>
									<ntsc>FALSE</ntsc>
								</rate>
								<string>00:00:00:00</string>
								<frame>0</frame>
								<displayformat>NDF</displayformat>
							</timecode>
							<media>
								<video>
									<samplecharacteristics>
										<rate>
											<timebase>24</timebase>
											<ntsc>FALSE</ntsc>
										</rate>
										<width>1280</width>
										<height>1080</height>
										<anamorphic>FALSE</anamorphic>
										<pixelaspectratio>square</pixelaspectratio>
										<fielddominance>none</fielddominance>
									</samplecharacteristics>
								</video>
								<audio>
									<samplecharacteristics>
										<depth>16</depth>
										<samplerate>48000</samplerate>
									</samplecharacteristics>
									<channelcount>2</channelcount>
								</audio>
							</media>
						</file>
						<filter>
							<effect>
								<name>Basic Motion</name>
								<effectid>basic</effectid>
								<effectcategory>motion</effectcategory>
								<effecttype>motion</effecttype>
								<mediatype>video</mediatype>
								<pproBypass>false</pproBypass>
								<parameter authoringApp="PremierePro">
									<parameterid>scale</parameterid>
									<name>Scale</name>
									<valuemin>0</valuemin>
									<valuemax>1000</valuemax>
									<value>148</value>
								</parameter>
								<parameter authoringApp="PremierePro">
									<parameterid>rotation</parameterid>
									<name>Rotation</name>
									<valuemin>-8640</valuemin>
									<valuemax>8640</valuemax>
									<value>0</value>
								</parameter>
								<parameter authoringApp="PremierePro">
									<parameterid>center</parameterid>
									<name>Center</name>
									<value>
										<horiz>0</horiz>
										<vert>0</vert>
									</value>
								</parameter>
								<parameter authoringApp="PremierePro">
									<parameterid>centerOffset</parameterid>
									<name>Anchor Point</name>
									<value>
										<horiz>0</horiz>
										<vert>0</vert>
									</value>
								</parameter>
								<parameter authoringApp="PremierePro">
									<parameterid>antiflicker</parameterid>
									<name>Anti-flicker Filter</name>
									<valuemin>0.0</valuemin>
									<valuemax>1.0</valuemax>
									<value>0</value>
								</parameter>
							</effect>
						</filter>
						<logginginfo>
							<description></description>
							<scene></scene>
							<shottake></shottake>
							<lognote></lognote>
							<good></good>
							<originalvideofilename></originalvideofilename>
							<originalaudiofilename></originalaudiofilename>
						</logginginfo>
						<colorinfo>
							<lut></lut>
							<lut1></lut1>
							<asc_sop></asc_sop>
							<asc_sat></asc_sat>
							<lut2></lut2>
						</colorinfo>
						<labels>
							<label2>Iris</label2>
						</labels>
					</clipitem>
					<clipitem id="clipitem-183">
						<masterclipid>masterclip-86</masterclipid>
						<name>A003_05301052_C128.mp4</name>
						<enabled>TRUE</enabled>
						<duration>382</duration>
						<rate>
							<timebase>24</timebase>
							<ntsc>FALSE</ntsc>
						</rate>
						<start>17590</start>
						<end>17607</end>
						<in>235</in>
						<out>252</out>
						<pproTicksIn>2487240000000</pproTicksIn>
						<pproTicksOut>2667168000000</pproTicksOut>
						<alphatype>none</alphatype>
						<pixelaspectratio>square</pixelaspectratio>
						<anamorphic>FALSE</anamorphic>
						<file id="file-86">
							<name>A003_05301052_C128.mp4</name>
							<pathurl>file://localhost/F%3a/bengaluru%20scenes/scene%2043/A003_05301052_C128.mp4</pathurl>
							<rate>
								<timebase>24</timebase>
								<ntsc>FALSE</ntsc>
							</rate>
							<duration>382</duration>
							<timecode>
								<rate>
									<timebase>24</timebase>
									<ntsc>FALSE</ntsc>
								</rate>
								<string>00:00:00:00</string>
								<frame>0</frame>
								<displayformat>NDF</displayformat>
							</timecode>
							<media>
								<video>
									<samplecharacteristics>
										<rate>
											<timebase>24</timebase>
											<ntsc>FALSE</ntsc>
										</rate>
										<width>1920</width>
										<height>1080</height>
										<anamorphic>FALSE</anamorphic>
										<pixelaspectratio>square</pixelaspectratio>
										<fielddominance>none</fielddominance>
									</samplecharacteristics>
								</video>
								<audio>
									<samplecharacteristics>
										<depth>16</depth>
										<samplerate>48000</samplerate>
									</samplecharacteristics>
									<channelcount>2</channelcount>
								</audio>
							</media>
						</file>
						<logginginfo>
							<description></description>
							<scene></scene>
							<shottake></shottake>
							<lognote></lognote>
							<good></good>
							<originalvideofilename></originalvideofilename>
							<originalaudiofilename></originalaudiofilename>
						</logginginfo>
						<colorinfo>
							<lut></lut>
							<lut1></lut1>
							<asc_sop></asc_sop>
							<asc_sat></asc_sat>
							<lut2></lut2>
						</colorinfo>
						<labels>
							<label2>Iris</label2>
						</labels>
					</clipitem>
					<clipitem id="clipitem-184">
						<masterclipid>masterclip-87</masterclipid>
						<name>A003_05301038_C120.mp4</name>
						<enabled>TRUE</enabled>
						<duration>1640</duration>
						<rate>
							<timebase>24</timebase>
							<ntsc>FALSE</ntsc>
						</rate>
						<start>17607</start>
						<end>17637</end>
						<in>1166</in>
						<out>1196</out>
						<pproTicksIn>12340944000000</pproTicksIn>
						<pproTicksOut>12658464000000</pproTicksOut>
						<alphatype>none</alphatype>
						<pixelaspectratio>square</pixelaspectratio>
						<anamorphic>FALSE</anamorphic>
						<file id="file-87">
							<name>A003_05301038_C120.mp4</name>
							<pathurl>file://localhost/F%3a/bengaluru%20scenes/scene%2043/A003_05301038_C120.mp4</pathurl>
							<rate>
								<timebase>24</timebase>
								<ntsc>FALSE</ntsc>
							</rate>
							<duration>1640</duration>
							<timecode>
								<rate>
									<timebase>24</timebase>
									<ntsc>FALSE</ntsc>
								</rate>
								<string>00:00:00:00</string>
								<frame>0</frame>
								<displayformat>NDF</displayformat>
							</timecode>
							<media>
								<video>
									<samplecharacteristics>
										<rate>
											<timebase>24</timebase>
											<ntsc>FALSE</ntsc>
										</rate>
										<width>1920</width>
										<height>1080</height>
										<anamorphic>FALSE</anamorphic>
										<pixelaspectratio>square</pixelaspectratio>
										<fielddominance>none</fielddominance>
									</samplecharacteristics>
								</video>
								<audio>
									<samplecharacteristics>
										<depth>16</depth>
										<samplerate>48000</samplerate>
									</samplecharacteristics>
									<channelcount>2</channelcount>
								</audio>
							</media>
						</file>
						<logginginfo>
							<description></description>
							<scene></scene>
							<shottake></shottake>
							<lognote></lognote>
							<good></good>
							<originalvideofilename></originalvideofilename>
							<originalaudiofilename></originalaudiofilename>
						</logginginfo>
						<colorinfo>
							<lut></lut>
							<lut1></lut1>
							<asc_sop></asc_sop>
							<asc_sat></asc_sat>
							<lut2></lut2>
						</colorinfo>
						<labels>
							<label2>Iris</label2>
						</labels>
					</clipitem>
					<clipitem id="clipitem-185">
						<masterclipid>masterclip-76</masterclipid>
						<name>A003_05301000_C105.mp4</name>
						<enabled>TRUE</enabled>
						<duration>2910</duration>
						<rate>
							<timebase>24</timebase>
							<ntsc>FALSE</ntsc>
						</rate>
						<start>17637</start>
						<end>17659</end>
						<in>1505</in>
						<out>1527</out>
						<pproTicksIn>9557352000000</pproTicksIn>
						<pproTicksOut>9697060800000</pproTicksOut>
						<alphatype>none</alphatype>
						<file id="file-76"/>
						<filter>
							<effect>
								<name>Time Remap</name>
								<effectid>timeremap</effectid>
								<effectcategory>motion</effectcategory>
								<effecttype>motion</effecttype>
								<mediatype>video</mediatype>
								<parameter authoringApp="PremierePro">
									<parameterid>variablespeed</parameterid>
									<name>variablespeed</name>
									<valuemin>0</valuemin>
									<valuemax>1</valuemax>
									<value>0</value>
								</parameter>
								<parameter authoringApp="PremierePro">
									<parameterid>speed</parameterid>
									<name>speed</name>
									<valuemin>-100000</valuemin>
									<valuemax>100000</valuemax>
									<value>60</value>
								</parameter>
								<parameter authoringApp="PremierePro">
									<parameterid>reverse</parameterid>
									<name>reverse</name>
									<value>FALSE</value>
								</parameter>
								<parameter authoringApp="PremierePro">
									<parameterid>frameblending</parameterid>
									<name>frameblending</name>
									<value>FALSE</value>
								</parameter>
								<parameter authoringApp="PremierePro">
									<parameterid>graphdict</parameterid>
									<name>graphdict</name>
									<valuemin>0</valuemin>
									<valuemax>1746</valuemax>
									<value>0</value>
									<keyframe>
										<when>0</when>
										<value>0</value>
										<speedvirtualkf>TRUE</speedvirtualkf>
										<speedkfstart>TRUE</speedkfstart>
									</keyframe>
									<keyframe>
										<when>1505</when>
										<value>903</value>
										<speedvirtualkf>TRUE</speedvirtualkf>
										<speedkfin>TRUE</speedkfin>
									</keyframe>
									<keyframe>
										<when>1527</when>
										<value>916</value>
										<speedvirtualkf>TRUE</speedvirtualkf>
										<speedkfout>TRUE</speedkfout>
									</keyframe>
									<keyframe>
										<when>2910</when>
										<value>1746</value>
										<speedvirtualkf>TRUE</speedvirtualkf>
										<speedkfend>TRUE</speedkfend>
									</keyframe>
									<interpolation>
										<name>FCPCurve</name>
									</interpolation>
								</parameter>
							</effect>
						</filter>
						<logginginfo>
							<description></description>
							<scene></scene>
							<shottake></shottake>
							<lognote></lognote>
							<good></good>
							<originalvideofilename></originalvideofilename>
							<originalaudiofilename></originalaudiofilename>
						</logginginfo>
						<colorinfo>
							<lut></lut>
							<lut1></lut1>
							<asc_sop></asc_sop>
							<asc_sat></asc_sat>
							<lut2></lut2>
						</colorinfo>
						<labels>
							<label2>Iris</label2>
						</labels>
					</clipitem>
					<clipitem id="clipitem-186">
						<masterclipid>masterclip-79</masterclipid>
						<name>A003_05301044_C122.mp4</name>
						<enabled>TRUE</enabled>
						<duration>5376</duration>
						<rate>
							<timebase>24</timebase>
							<ntsc>FALSE</ntsc>
						</rate>
						<start>17659</start>
						<end>17734</end>
						<in>574</in>
						<out>649</out>
						<pproTicksIn>6075216000000</pproTicksIn>
						<pproTicksOut>6869016000000</pproTicksOut>
						<alphatype>none</alphatype>
						<file id="file-79"/>
						<logginginfo>
							<description></description>
							<scene></scene>
							<shottake></shottake>
							<lognote></lognote>
							<good></good>
							<originalvideofilename></originalvideofilename>
							<originalaudiofilename></originalaudiofilename>
						</logginginfo>
						<colorinfo>
							<lut></lut>
							<lut1></lut1>
							<asc_sop></asc_sop>
							<asc_sat></asc_sat>
							<lut2></lut2>
						</colorinfo>
						<labels>
							<label2>Iris</label2>
						</labels>
					</clipitem>
					<transitionitem>
						<start>17734</start>
						<end>17744</end>
						<alignment>start-black</alignment>
						<cutPointTicks>0</cutPointTicks>
						<rate>
							<timebase>24</timebase>
							<ntsc>FALSE</ntsc>
						</rate>
						<effect>
							<name>Cross Dissolve</name>
							<effectid>Cross Dissolve</effectid>
							<effectcategory>Dissolve</effectcategory>
							<effecttype>transition</effecttype>
							<mediatype>video</mediatype>
							<wipecode>0</wipecode>
							<wipeaccuracy>100</wipeaccuracy>
							<startratio>0</startratio>
							<endratio>1</endratio>
							<reverse>FALSE</reverse>
						</effect>
					</transitionitem>
					<clipitem id="clipitem-187">
						<masterclipid>masterclip-88</masterclipid>
						<name>A002_05291105_C271.mp4</name>
						<enabled>TRUE</enabled>
						<duration>833</duration>
						<rate>
							<timebase>24</timebase>
							<ntsc>FALSE</ntsc>
						</rate>
						<start>-1</start>
						<end>17814</end>
						<in>175</in>
						<out>255</out>
						<pproTicksIn>1852200000000</pproTicksIn>
						<pproTicksOut>2698920000000</pproTicksOut>
						<alphatype>none</alphatype>
						<pixelaspectratio>square</pixelaspectratio>
						<anamorphic>FALSE</anamorphic>
						<file id="file-88">
							<name>A002_05291105_C271.mp4</name>
							<pathurl>file://localhost/F%3a/bengaluru%20scenes/scene%2036/A002_05291105_C271.mp4</pathurl>
							<rate>
								<timebase>24</timebase>
								<ntsc>FALSE</ntsc>
							</rate>
							<duration>833</duration>
							<timecode>
								<rate>
									<timebase>24</timebase>
									<ntsc>FALSE</ntsc>
								</rate>
								<string>00:00:00:00</string>
								<frame>0</frame>
								<displayformat>NDF</displayformat>
							</timecode>
							<media>
								<video>
									<samplecharacteristics>
										<rate>
											<timebase>24</timebase>
											<ntsc>FALSE</ntsc>
										</rate>
										<width>1920</width>
										<height>1080</height>
										<anamorphic>FALSE</anamorphic>
										<pixelaspectratio>square</pixelaspectratio>
										<fielddominance>none</fielddominance>
									</samplecharacteristics>
								</video>
								<audio>
									<samplecharacteristics>
										<depth>16</depth>
										<samplerate>48000</samplerate>
									</samplecharacteristics>
									<channelcount>2</channelcount>
								</audio>
							</media>
						</file>
						<link>
							<linkclipref>clipitem-187</linkclipref>
							<mediatype>video</mediatype>
							<trackindex>1</trackindex>
							<clipindex>195</clipindex>
						</link>
						<link>
							<linkclipref>clipitem-584</linkclipref>
							<mediatype>audio</mediatype>
							<trackindex>1</trackindex>
							<clipindex>108</clipindex>
							<groupindex>1</groupindex>
						</link>
						<link>
							<linkclipref>clipitem-748</linkclipref>
							<mediatype>audio</mediatype>
							<trackindex>2</trackindex>
							<clipindex>108</clipindex>
							<groupindex>1</groupindex>
						</link>
						<logginginfo>
							<description></description>
							<scene></scene>
							<shottake></shottake>
							<lognote></lognote>
							<good></good>
							<originalvideofilename></originalvideofilename>
							<originalaudiofilename></originalaudiofilename>
						</logginginfo>
						<colorinfo>
							<lut></lut>
							<lut1></lut1>
							<asc_sop></asc_sop>
							<asc_sat></asc_sat>
							<lut2></lut2>
						</colorinfo>
						<labels>
							<label2>Iris</label2>
						</labels>
					</clipitem>
					<transitionitem>
						<start>17814</start>
						<end>17827</end>
						<alignment>start-black</alignment>
						<cutPointTicks>0</cutPointTicks>
						<rate>
							<timebase>24</timebase>
							<ntsc>FALSE</ntsc>
						</rate>
						<effect>
							<name>Dip to Color Dissolve</name>
							<effectid>Dip to Color Dissolve</effectid>
							<effectcategory>Dissolve</effectcategory>
							<effecttype>transition</effecttype>
							<mediatype>video</mediatype>
							<wipecode>0</wipecode>
							<wipeaccuracy>100</wipeaccuracy>
							<startratio>0</startratio>
							<endratio>1</endratio>
							<reverse>FALSE</reverse>
							<parameter authoringApp="PremierePro">
								<parameterid>dipcolor</parameterid>
								<name>Color</name>
								<value>
									<alpha>255</alpha>
									<red>255</red>
									<green>255</green>
									<blue>255</blue>
								</value>
							</parameter>
						</effect>
					</transitionitem>
					<clipitem id="clipitem-188">
						<masterclipid>masterclip-28</masterclipid>
						<name>A006_06192201_C212.mp4</name>
						<enabled>TRUE</enabled>
						<duration>1523</duration>
						<rate>
							<timebase>24</timebase>
							<ntsc>FALSE</ntsc>
						</rate>
						<start>-1</start>
						<end>17861</end>
						<in>1007</in>
						<out>1054</out>
						<pproTicksIn>10658088000000</pproTicksIn>
						<pproTicksOut>11155536000000</pproTicksOut>
						<alphatype>none</alphatype>
						<file id="file-28"/>
						<link>
							<linkclipref>clipitem-188</linkclipref>
							<mediatype>video</mediatype>
							<trackindex>1</trackindex>
							<clipindex>197</clipindex>
						</link>
						<link>
							<linkclipref>clipitem-585</linkclipref>
							<mediatype>audio</mediatype>
							<trackindex>1</trackindex>
							<clipindex>109</clipindex>
							<groupindex>1</groupindex>
						</link>
						<link>
							<linkclipref>clipitem-749</linkclipref>
							<mediatype>audio</mediatype>
							<trackindex>2</trackindex>
							<clipindex>109</clipindex>
							<groupindex>1</groupindex>
						</link>
						<logginginfo>
							<description></description>
							<scene></scene>
							<shottake></shottake>
							<lognote></lognote>
							<good></good>
							<originalvideofilename></originalvideofilename>
							<originalaudiofilename></originalaudiofilename>
						</logginginfo>
						<colorinfo>
							<lut></lut>
							<lut1></lut1>
							<asc_sop></asc_sop>
							<asc_sat></asc_sat>
							<lut2></lut2>
						</colorinfo>
						<labels>
							<label2>Iris</label2>
						</labels>
					</clipitem>
					<clipitem id="clipitem-189">
						<masterclipid>masterclip-87</masterclipid>
						<name>A003_05301038_C120.mp4</name>
						<enabled>TRUE</enabled>
						<duration>1640</duration>
						<rate>
							<timebase>24</timebase>
							<ntsc>FALSE</ntsc>
						</rate>
						<start>17861</start>
						<end>17911</end>
						<in>1421</in>
						<out>1471</out>
						<pproTicksIn>15039864000000</pproTicksIn>
						<pproTicksOut>15569064000000</pproTicksOut>
						<alphatype>none</alphatype>
						<file id="file-87"/>
						<logginginfo>
							<description></description>
							<scene></scene>
							<shottake></shottake>
							<lognote></lognote>
							<good></good>
							<originalvideofilename></originalvideofilename>
							<originalaudiofilename></originalaudiofilename>
						</logginginfo>
						<colorinfo>
							<lut></lut>
							<lut1></lut1>
							<asc_sop></asc_sop>
							<asc_sat></asc_sat>
							<lut2></lut2>
						</colorinfo>
						<labels>
							<label2>Iris</label2>
						</labels>
					</clipitem>
					<clipitem id="clipitem-190">
						<masterclipid>masterclip-89</masterclipid>
						<name>A003_05301032_C117.mp4</name>
						<enabled>TRUE</enabled>
						<duration>226</duration>
						<rate>
							<timebase>24</timebase>
							<ntsc>FALSE</ntsc>
						</rate>
						<start>17911</start>
						<end>17923</end>
						<in>75</in>
						<out>86</out>
						<pproTicksIn>944092800000</pproTicksIn>
						<pproTicksOut>1096502400000</pproTicksOut>
						<alphatype>none</alphatype>
						<pixelaspectratio>square</pixelaspectratio>
						<anamorphic>FALSE</anamorphic>
						<file id="file-89">
							<name>A003_05301032_C117.mp4</name>
							<pathurl>file://localhost/F%3a/bengaluru%20scenes/scene%2043/A003_05301032_C117.mp4</pathurl>
							<rate>
								<timebase>24</timebase>
								<ntsc>FALSE</ntsc>
							</rate>
							<duration>272</duration>
							<timecode>
								<rate>
									<timebase>24</timebase>
									<ntsc>FALSE</ntsc>
								</rate>
								<string>00:00:00:00</string>
								<frame>0</frame>
								<displayformat>NDF</displayformat>
							</timecode>
							<media>
								<video>
									<samplecharacteristics>
										<rate>
											<timebase>24</timebase>
											<ntsc>FALSE</ntsc>
										</rate>
										<width>1920</width>
										<height>1080</height>
										<anamorphic>FALSE</anamorphic>
										<pixelaspectratio>square</pixelaspectratio>
										<fielddominance>none</fielddominance>
									</samplecharacteristics>
								</video>
								<audio>
									<samplecharacteristics>
										<depth>16</depth>
										<samplerate>48000</samplerate>
									</samplecharacteristics>
									<channelcount>2</channelcount>
								</audio>
							</media>
						</file>
						<filter>
							<effect>
								<name>Time Remap</name>
								<effectid>timeremap</effectid>
								<effectcategory>motion</effectcategory>
								<effecttype>motion</effecttype>
								<mediatype>video</mediatype>
								<parameter authoringApp="PremierePro">
									<parameterid>variablespeed</parameterid>
									<name>variablespeed</name>
									<valuemin>0</valuemin>
									<valuemax>1</valuemax>
									<value>0</value>
								</parameter>
								<parameter authoringApp="PremierePro">
									<parameterid>speed</parameterid>
									<name>speed</name>
									<valuemin>-100000</valuemin>
									<valuemax>100000</valuemax>
									<value>120</value>
								</parameter>
								<parameter authoringApp="PremierePro">
									<parameterid>reverse</parameterid>
									<name>reverse</name>
									<value>FALSE</value>
								</parameter>
								<parameter authoringApp="PremierePro">
									<parameterid>frameblending</parameterid>
									<name>frameblending</name>
									<value>FALSE</value>
								</parameter>
								<parameter authoringApp="PremierePro">
									<parameterid>graphdict</parameterid>
									<name>graphdict</name>
									<valuemin>0</valuemin>
									<valuemax>271</valuemax>
									<value>0</value>
									<keyframe>
										<when>0</when>
										<value>0</value>
										<speedvirtualkf>TRUE</speedvirtualkf>
										<speedkfstart>TRUE</speedkfstart>
									</keyframe>
									<keyframe>
										<when>75</when>
										<value>90</value>
										<speedvirtualkf>TRUE</speedvirtualkf>
										<speedkfin>TRUE</speedkfin>
									</keyframe>
									<keyframe>
										<when>86</when>
										<value>103</value>
										<speedvirtualkf>TRUE</speedvirtualkf>
										<speedkfout>TRUE</speedkfout>
									</keyframe>
									<keyframe>
										<when>226</when>
										<value>271</value>
										<speedvirtualkf>TRUE</speedvirtualkf>
										<speedkfend>TRUE</speedkfend>
									</keyframe>
									<interpolation>
										<name>FCPCurve</name>
									</interpolation>
								</parameter>
							</effect>
						</filter>
						<logginginfo>
							<description></description>
							<scene></scene>
							<shottake></shottake>
							<lognote></lognote>
							<good></good>
							<originalvideofilename></originalvideofilename>
							<originalaudiofilename></originalaudiofilename>
						</logginginfo>
						<colorinfo>
							<lut></lut>
							<lut1></lut1>
							<asc_sop></asc_sop>
							<asc_sat></asc_sat>
							<lut2></lut2>
						</colorinfo>
						<labels>
							<label2>Green</label2>
						</labels>
					</clipitem>
					<clipitem id="clipitem-191">
						<masterclipid>masterclip-89</masterclipid>
						<name>A003_05301032_C117.mp4</name>
						<enabled>TRUE</enabled>
						<duration>272</duration>
						<rate>
							<timebase>24</timebase>
							<ntsc>FALSE</ntsc>
						</rate>
						<start>17923</start>
						<end>17956</end>
						<in>103</in>
						<out>136</out>
						<pproTicksIn>1090152000000</pproTicksIn>
						<pproTicksOut>1439424000000</pproTicksOut>
						<alphatype>none</alphatype>
						<file id="file-89"/>
						<logginginfo>
							<description></description>
							<scene></scene>
							<shottake></shottake>
							<lognote></lognote>
							<good></good>
							<originalvideofilename></originalvideofilename>
							<originalaudiofilename></originalaudiofilename>
						</logginginfo>
						<colorinfo>
							<lut></lut>
							<lut1></lut1>
							<asc_sop></asc_sop>
							<asc_sat></asc_sat>
							<lut2></lut2>
						</colorinfo>
						<labels>
							<label2>Green</label2>
						</labels>
					</clipitem>
					<transitionitem>
						<start>17956</start>
						<end>17986</end>
						<alignment>start-black</alignment>
						<cutPointTicks>0</cutPointTicks>
						<rate>
							<timebase>24</timebase>
							<ntsc>FALSE</ntsc>
						</rate>
						<effect>
							<name>Cross Dissolve</name>
							<effectid>Cross Dissolve</effectid>
							<effectcategory>Dissolve</effectcategory>
							<effecttype>transition</effecttype>
							<mediatype>video</mediatype>
							<wipecode>0</wipecode>
							<wipeaccuracy>100</wipeaccuracy>
							<startratio>0</startratio>
							<endratio>1</endratio>
							<reverse>FALSE</reverse>
						</effect>
					</transitionitem>
					<clipitem id="clipitem-192">
						<masterclipid>masterclip-90</masterclipid>
						<name>LOGO ANIM.mov</name>
						<enabled>TRUE</enabled>
						<duration>3120</duration>
						<rate>
							<timebase>24</timebase>
							<ntsc>FALSE</ntsc>
						</rate>
						<start>-1</start>
						<end>-1</end>
						<in>1888</in>
						<out>2242</out>
						<pproTicksIn>19982592000000</pproTicksIn>
						<pproTicksOut>23729328000000</pproTicksOut>
						<alphatype>none</alphatype>
						<pixelaspectratio>square</pixelaspectratio>
						<anamorphic>FALSE</anamorphic>
						<file id="file-90">
							<name>LOGO ANIM.mov</name>
							<pathurl>file://localhost/F%3a/VFX/LOGO%20ANIM.mov</pathurl>
							<rate>
								<timebase>24</timebase>
								<ntsc>FALSE</ntsc>
							</rate>
							<duration>3120</duration>
							<timecode>
								<rate>
									<timebase>24</timebase>
									<ntsc>FALSE</ntsc>
								</rate>
								<string>00:00:00:00</string>
								<frame>0</frame>
								<displayformat>NDF</displayformat>
							</timecode>
							<media>
								<video>
									<samplecharacteristics>
										<rate>
											<timebase>24</timebase>
											<ntsc>FALSE</ntsc>
										</rate>
										<width>2048</width>
										<height>1080</height>
										<anamorphic>FALSE</anamorphic>
										<pixelaspectratio>square</pixelaspectratio>
										<fielddominance>none</fielddominance>
									</samplecharacteristics>
								</video>
								<audio>
									<samplecharacteristics>
										<depth>16</depth>
										<samplerate>48000</samplerate>
									</samplecharacteristics>
									<channelcount>2</channelcount>
								</audio>
							</media>
						</file>
						<logginginfo>
							<description></description>
							<scene></scene>
							<shottake></shottake>
							<lognote></lognote>
							<good></good>
							<originalvideofilename></originalvideofilename>
							<originalaudiofilename></originalaudiofilename>
						</logginginfo>
						<colorinfo>
							<lut></lut>
							<lut1></lut1>
							<asc_sop></asc_sop>
							<asc_sat></asc_sat>
							<lut2></lut2>
						</colorinfo>
						<labels>
							<label2>Iris</label2>
						</labels>
					</clipitem>
					<transitionitem>
						<start>18280</start>
						<end>18310</end>
						<alignment>end-black</alignment>
						<cutPointTicks>317520000000</cutPointTicks>
						<rate>
							<timebase>24</timebase>
							<ntsc>FALSE</ntsc>
						</rate>
						<effect>
							<name>Cross Dissolve</name>
							<effectid>Cross Dissolve</effectid>
							<effectcategory>Dissolve</effectcategory>
							<effecttype>transition</effecttype>
							<mediatype>video</mediatype>
							<wipecode>0</wipecode>
							<wipeaccuracy>100</wipeaccuracy>
							<startratio>0</startratio>
							<endratio>1</endratio>
							<reverse>FALSE</reverse>
						</effect>
					</transitionitem>
					<transitionitem>
						<start>18310</start>
						<end>18334</end>
						<alignment>start-black</alignment>
						<cutPointTicks>0</cutPointTicks>
						<rate>
							<timebase>24</timebase>
							<ntsc>FALSE</ntsc>
						</rate>
						<effect>
							<name>Cross Dissolve</name>
							<effectid>Cross Dissolve</effectid>
							<effectcategory>Dissolve</effectcategory>
							<effecttype>transition</effecttype>
							<mediatype>video</mediatype>
							<wipecode>0</wipecode>
							<wipeaccuracy>100</wipeaccuracy>
							<startratio>0</startratio>
							<endratio>1</endratio>
							<reverse>FALSE</reverse>
						</effect>
					</transitionitem>
					<clipitem id="clipitem-193">
						<masterclipid>masterclip-79</masterclipid>
						<name>A003_05301044_C122.mp4</name>
						<enabled>TRUE</enabled>
						<duration>5376</duration>
						<rate>
							<timebase>24</timebase>
							<ntsc>FALSE</ntsc>
						</rate>
						<start>-1</start>
						<end>18596</end>
						<in>3153</in>
						<out>3439</out>
						<pproTicksIn>33371352000000</pproTicksIn>
						<pproTicksOut>36398376000000</pproTicksOut>
						<alphatype>none</alphatype>
						<file id="file-79"/>
						<logginginfo>
							<description></description>
							<scene></scene>
							<shottake></shottake>
							<lognote></lognote>
							<good></good>
							<originalvideofilename></originalvideofilename>
							<originalaudiofilename></originalaudiofilename>
						</logginginfo>
						<colorinfo>
							<lut></lut>
							<lut1></lut1>
							<asc_sop></asc_sop>
							<asc_sat></asc_sat>
							<lut2></lut2>
						</colorinfo>
						<labels>
							<label2>Iris</label2>
						</labels>
					</clipitem>
					<clipitem id="clipitem-194">
						<masterclipid>masterclip-91</masterclipid>
						<name>A003_05301013_C111.mp4</name>
						<enabled>TRUE</enabled>
						<duration>1791</duration>
						<rate>
							<timebase>24</timebase>
							<ntsc>FALSE</ntsc>
						</rate>
						<start>18596</start>
						<end>18701</end>
						<in>297</in>
						<out>401</out>
						<pproTicksIn>1883952000000</pproTicksIn>
						<pproTicksOut>2550744000000</pproTicksOut>
						<alphatype>none</alphatype>
						<pixelaspectratio>square</pixelaspectratio>
						<anamorphic>FALSE</anamorphic>
						<file id="file-91">
							<name>A003_05301013_C111.mp4</name>
							<pathurl>file://localhost/F%3a/bengaluru%20scenes/scene%2043/A003_05301013_C111.mp4</pathurl>
							<rate>
								<timebase>24</timebase>
								<ntsc>FALSE</ntsc>
							</rate>
							<duration>1075</duration>
							<timecode>
								<rate>
									<timebase>24</timebase>
									<ntsc>FALSE</ntsc>
								</rate>
								<string>00:00:00:00</string>
								<frame>0</frame>
								<displayformat>NDF</displayformat>
							</timecode>
							<media>
								<video>
									<samplecharacteristics>
										<rate>
											<timebase>24</timebase>
											<ntsc>FALSE</ntsc>
										</rate>
										<width>1920</width>
										<height>1080</height>
										<anamorphic>FALSE</anamorphic>
										<pixelaspectratio>square</pixelaspectratio>
										<fielddominance>none</fielddominance>
									</samplecharacteristics>
								</video>
								<audio>
									<samplecharacteristics>
										<depth>16</depth>
										<samplerate>48000</samplerate>
									</samplecharacteristics>
									<channelcount>2</channelcount>
								</audio>
							</media>
						</file>
						<filter>
							<effect>
								<name>Time Remap</name>
								<effectid>timeremap</effectid>
								<effectcategory>motion</effectcategory>
								<effecttype>motion</effecttype>
								<mediatype>video</mediatype>
								<parameter authoringApp="PremierePro">
									<parameterid>variablespeed</parameterid>
									<name>variablespeed</name>
									<valuemin>0</valuemin>
									<valuemax>1</valuemax>
									<value>0</value>
								</parameter>
								<parameter authoringApp="PremierePro">
									<parameterid>speed</parameterid>
									<name>speed</name>
									<valuemin>-100000</valuemin>
									<valuemax>100000</valuemax>
									<value>60</value>
								</parameter>
								<parameter authoringApp="PremierePro">
									<parameterid>reverse</parameterid>
									<name>reverse</name>
									<value>FALSE</value>
								</parameter>
								<parameter authoringApp="PremierePro">
									<parameterid>frameblending</parameterid>
									<name>frameblending</name>
									<value>FALSE</value>
								</parameter>
								<parameter authoringApp="PremierePro">
									<parameterid>graphdict</parameterid>
									<name>graphdict</name>
									<valuemin>0</valuemin>
									<valuemax>1074</valuemax>
									<value>0</value>
									<keyframe>
										<when>0</when>
										<value>0</value>
										<speedvirtualkf>TRUE</speedvirtualkf>
										<speedkfstart>TRUE</speedkfstart>
									</keyframe>
									<keyframe>
										<when>297</when>
										<value>178</value>
										<speedvirtualkf>TRUE</speedvirtualkf>
										<speedkfin>TRUE</speedkfin>
									</keyframe>
									<keyframe>
										<when>401</when>
										<value>240</value>
										<speedvirtualkf>TRUE</speedvirtualkf>
										<speedkfout>TRUE</speedkfout>
									</keyframe>
									<keyframe>
										<when>1791</when>
										<value>1074</value>
										<speedvirtualkf>TRUE</speedvirtualkf>
										<speedkfend>TRUE</speedkfend>
									</keyframe>
									<interpolation>
										<name>FCPCurve</name>
									</interpolation>
								</parameter>
							</effect>
						</filter>
						<logginginfo>
							<description></description>
							<scene></scene>
							<shottake></shottake>
							<lognote></lognote>
							<good></good>
							<originalvideofilename></originalvideofilename>
							<originalaudiofilename></originalaudiofilename>
						</logginginfo>
						<colorinfo>
							<lut></lut>
							<lut1></lut1>
							<asc_sop></asc_sop>
							<asc_sat></asc_sat>
							<lut2></lut2>
						</colorinfo>
						<labels>
							<label2>Iris</label2>
						</labels>
					</clipitem>
					<clipitem id="clipitem-195">
						<masterclipid>masterclip-79</masterclipid>
						<name>A003_05301044_C122.mp4</name>
						<enabled>TRUE</enabled>
						<duration>5376</duration>
						<rate>
							<timebase>24</timebase>
							<ntsc>FALSE</ntsc>
						</rate>
						<start>18701</start>
						<end>18795</end>
						<in>1807</in>
						<out>1901</out>
						<pproTicksIn>19125288000000</pproTicksIn>
						<pproTicksOut>20120184000000</pproTicksOut>
						<alphatype>none</alphatype>
						<file id="file-79"/>
						<logginginfo>
							<description></description>
							<scene></scene>
							<shottake></shottake>
							<lognote></lognote>
							<good></good>
							<originalvideofilename></originalvideofilename>
							<originalaudiofilename></originalaudiofilename>
						</logginginfo>
						<colorinfo>
							<lut></lut>
							<lut1></lut1>
							<asc_sop></asc_sop>
							<asc_sat></asc_sat>
							<lut2></lut2>
						</colorinfo>
						<labels>
							<label2>Iris</label2>
						</labels>
					</clipitem>
					<clipitem id="clipitem-196">
						<masterclipid>masterclip-92</masterclipid>
						<name>A003_05300841_C079.mp4</name>
						<enabled>TRUE</enabled>
						<duration>7222</duration>
						<rate>
							<timebase>24</timebase>
							<ntsc>FALSE</ntsc>
						</rate>
						<start>18795</start>
						<end>18883</end>
						<in>4000</in>
						<out>4088</out>
						<pproTicksIn>21168000000000</pproTicksIn>
						<pproTicksOut>21633696000000</pproTicksOut>
						<alphatype>none</alphatype>
						<pixelaspectratio>square</pixelaspectratio>
						<anamorphic>FALSE</anamorphic>
						<file id="file-92">
							<name>A003_05300841_C079.mp4</name>
							<pathurl>file://localhost/F%3a/bengaluru%20scenes/scene%2043/A003_05300841_C079.mp4</pathurl>
							<rate>
								<timebase>24</timebase>
								<ntsc>FALSE</ntsc>
							</rate>
							<duration>3611</duration>
							<timecode>
								<rate>
									<timebase>24</timebase>
									<ntsc>FALSE</ntsc>
								</rate>
								<string>00:00:00:00</string>
								<frame>0</frame>
								<displayformat>NDF</displayformat>
							</timecode>
							<media>
								<video>
									<samplecharacteristics>
										<rate>
											<timebase>24</timebase>
											<ntsc>FALSE</ntsc>
										</rate>
										<width>1920</width>
										<height>1080</height>
										<anamorphic>FALSE</anamorphic>
										<pixelaspectratio>square</pixelaspectratio>
										<fielddominance>none</fielddominance>
									</samplecharacteristics>
								</video>
								<audio>
									<samplecharacteristics>
										<depth>16</depth>
										<samplerate>48000</samplerate>
									</samplecharacteristics>
									<channelcount>2</channelcount>
								</audio>
							</media>
						</file>
						<filter>
							<effect>
								<name>Time Remap</name>
								<effectid>timeremap</effectid>
								<effectcategory>motion</effectcategory>
								<effecttype>motion</effecttype>
								<mediatype>video</mediatype>
								<parameter authoringApp="PremierePro">
									<parameterid>variablespeed</parameterid>
									<name>variablespeed</name>
									<valuemin>0</valuemin>
									<valuemax>1</valuemax>
									<value>0</value>
								</parameter>
								<parameter authoringApp="PremierePro">
									<parameterid>speed</parameterid>
									<name>speed</name>
									<valuemin>-100000</valuemin>
									<valuemax>100000</valuemax>
									<value>50</value>
								</parameter>
								<parameter authoringApp="PremierePro">
									<parameterid>reverse</parameterid>
									<name>reverse</name>
									<value>FALSE</value>
								</parameter>
								<parameter authoringApp="PremierePro">
									<parameterid>frameblending</parameterid>
									<name>frameblending</name>
									<value>FALSE</value>
								</parameter>
								<parameter authoringApp="PremierePro">
									<parameterid>graphdict</parameterid>
									<name>graphdict</name>
									<valuemin>0</valuemin>
									<valuemax>3611</valuemax>
									<value>0</value>
									<keyframe>
										<when>0</when>
										<value>0</value>
										<speedvirtualkf>TRUE</speedvirtualkf>
										<speedkfstart>TRUE</speedkfstart>
									</keyframe>
									<keyframe>
										<when>4000</when>
										<value>2000</value>
										<speedvirtualkf>TRUE</speedvirtualkf>
										<speedkfin>TRUE</speedkfin>
									</keyframe>
									<keyframe>
										<when>4088</when>
										<value>2044</value>
										<speedvirtualkf>TRUE</speedvirtualkf>
										<speedkfout>TRUE</speedkfout>
									</keyframe>
									<keyframe>
										<when>7222</when>
										<value>3611</value>
										<speedvirtualkf>TRUE</speedvirtualkf>
										<speedkfend>TRUE</speedkfend>
									</keyframe>
									<interpolation>
										<name>FCPCurve</name>
									</interpolation>
								</parameter>
							</effect>
						</filter>
						<logginginfo>
							<description></description>
							<scene></scene>
							<shottake></shottake>
							<lognote></lognote>
							<good></good>
							<originalvideofilename></originalvideofilename>
							<originalaudiofilename></originalaudiofilename>
						</logginginfo>
						<colorinfo>
							<lut></lut>
							<lut1></lut1>
							<asc_sop></asc_sop>
							<asc_sat></asc_sat>
							<lut2></lut2>
						</colorinfo>
						<labels>
							<label2>Iris</label2>
						</labels>
					</clipitem>
					<clipitem id="clipitem-197">
						<masterclipid>masterclip-91</masterclipid>
						<name>A003_05301013_C111.mp4</name>
						<enabled>TRUE</enabled>
						<duration>1075</duration>
						<rate>
							<timebase>24</timebase>
							<ntsc>FALSE</ntsc>
						</rate>
						<start>18883</start>
						<end>18966</end>
						<in>250</in>
						<out>333</out>
						<pproTicksIn>2646000000000</pproTicksIn>
						<pproTicksOut>3524472000000</pproTicksOut>
						<alphatype>none</alphatype>
						<file id="file-91"/>
						<link>
							<linkclipref>clipitem-197</linkclipref>
							<mediatype>video</mediatype>
							<trackindex>1</trackindex>
							<clipindex>209</clipindex>
						</link>
						<link>
							<linkclipref>clipitem-587</linkclipref>
							<mediatype>audio</mediatype>
							<trackindex>1</trackindex>
							<clipindex>111</clipindex>
							<groupindex>1</groupindex>
						</link>
						<link>
							<linkclipref>clipitem-751</linkclipref>
							<mediatype>audio</mediatype>
							<trackindex>2</trackindex>
							<clipindex>111</clipindex>
							<groupindex>1</groupindex>
						</link>
						<logginginfo>
							<description></description>
							<scene></scene>
							<shottake></shottake>
							<lognote></lognote>
							<good></good>
							<originalvideofilename></originalvideofilename>
							<originalaudiofilename></originalaudiofilename>
						</logginginfo>
						<colorinfo>
							<lut></lut>
							<lut1></lut1>
							<asc_sop></asc_sop>
							<asc_sat></asc_sat>
							<lut2></lut2>
						</colorinfo>
						<labels>
							<label2>Iris</label2>
						</labels>
					</clipitem>
					<clipitem id="clipitem-198">
						<masterclipid>masterclip-69</masterclipid>
						<name>A003_05300849_C080.mp4</name>
						<enabled>TRUE</enabled>
						<duration>3599</duration>
						<rate>
							<timebase>24</timebase>
							<ntsc>FALSE</ntsc>
						</rate>
						<start>18966</start>
						<end>19190</end>
						<in>2160</in>
						<out>2384</out>
						<pproTicksIn>22861440000000</pproTicksIn>
						<pproTicksOut>25232256000000</pproTicksOut>
						<alphatype>none</alphatype>
						<file id="file-69"/>
						<link>
							<linkclipref>clipitem-198</linkclipref>
							<mediatype>video</mediatype>
							<trackindex>1</trackindex>
							<clipindex>210</clipindex>
						</link>
						<link>
							<linkclipref>clipitem-588</linkclipref>
							<mediatype>audio</mediatype>
							<trackindex>1</trackindex>
							<clipindex>112</clipindex>
							<groupindex>1</groupindex>
						</link>
						<link>
							<linkclipref>clipitem-752</linkclipref>
							<mediatype>audio</mediatype>
							<trackindex>2</trackindex>
							<clipindex>112</clipindex>
							<groupindex>1</groupindex>
						</link>
						<logginginfo>
							<description></description>
							<scene></scene>
							<shottake></shottake>
							<lognote></lognote>
							<good></good>
							<originalvideofilename></originalvideofilename>
							<originalaudiofilename></originalaudiofilename>
						</logginginfo>
						<colorinfo>
							<lut></lut>
							<lut1></lut1>
							<asc_sop></asc_sop>
							<asc_sat></asc_sat>
							<lut2></lut2>
						</colorinfo>
						<labels>
							<label2>Iris</label2>
						</labels>
					</clipitem>
					<clipitem id="clipitem-199">
						<masterclipid>masterclip-93</masterclipid>
						<name>A003_05301049_C127.mp4</name>
						<enabled>TRUE</enabled>
						<duration>422</duration>
						<rate>
							<timebase>24</timebase>
							<ntsc>FALSE</ntsc>
						</rate>
						<start>19190</start>
						<end>19354</end>
						<in>76</in>
						<out>240</out>
						<pproTicksIn>804384000000</pproTicksIn>
						<pproTicksOut>2540160000000</pproTicksOut>
						<alphatype>none</alphatype>
						<pixelaspectratio>square</pixelaspectratio>
						<anamorphic>FALSE</anamorphic>
						<file id="file-93">
							<name>A003_05301049_C127.mp4</name>
							<pathurl>file://localhost/F%3a/bengaluru%20scenes/scene%2043/A003_05301049_C127.mp4</pathurl>
							<rate>
								<timebase>24</timebase>
								<ntsc>FALSE</ntsc>
							</rate>
							<duration>422</duration>
							<timecode>
								<rate>
									<timebase>24</timebase>
									<ntsc>FALSE</ntsc>
								</rate>
								<string>00:00:00:00</string>
								<frame>0</frame>
								<displayformat>NDF</displayformat>
							</timecode>
							<media>
								<video>
									<samplecharacteristics>
										<rate>
											<timebase>24</timebase>
											<ntsc>FALSE</ntsc>
										</rate>
										<width>1920</width>
										<height>1080</height>
										<anamorphic>FALSE</anamorphic>
										<pixelaspectratio>square</pixelaspectratio>
										<fielddominance>none</fielddominance>
									</samplecharacteristics>
								</video>
								<audio>
									<samplecharacteristics>
										<depth>16</depth>
										<samplerate>48000</samplerate>
									</samplecharacteristics>
									<channelcount>2</channelcount>
								</audio>
							</media>
						</file>
						<link>
							<linkclipref>clipitem-199</linkclipref>
							<mediatype>video</mediatype>
							<trackindex>1</trackindex>
							<clipindex>211</clipindex>
						</link>
						<link>
							<linkclipref>clipitem-589</linkclipref>
							<mediatype>audio</mediatype>
							<trackindex>1</trackindex>
							<clipindex>113</clipindex>
							<groupindex>1</groupindex>
						</link>
						<link>
							<linkclipref>clipitem-753</linkclipref>
							<mediatype>audio</mediatype>
							<trackindex>2</trackindex>
							<clipindex>113</clipindex>
							<groupindex>1</groupindex>
						</link>
						<logginginfo>
							<description></description>
							<scene></scene>
							<shottake></shottake>
							<lognote></lognote>
							<good></good>
							<originalvideofilename></originalvideofilename>
							<originalaudiofilename></originalaudiofilename>
						</logginginfo>
						<colorinfo>
							<lut></lut>
							<lut1></lut1>
							<asc_sop></asc_sop>
							<asc_sat></asc_sat>
							<lut2></lut2>
						</colorinfo>
						<labels>
							<label2>Iris</label2>
						</labels>
					</clipitem>
					<clipitem id="clipitem-200">
						<masterclipid>masterclip-92</masterclipid>
						<name>A003_05300841_C079.mp4</name>
						<enabled>TRUE</enabled>
						<duration>3611</duration>
						<rate>
							<timebase>24</timebase>
							<ntsc>FALSE</ntsc>
						</rate>
						<start>19354</start>
						<end>19403</end>
						<in>2512</in>
						<out>2561</out>
						<pproTicksIn>26587008000000</pproTicksIn>
						<pproTicksOut>27105624000000</pproTicksOut>
						<alphatype>none</alphatype>
						<file id="file-92"/>
						<logginginfo>
							<description></description>
							<scene></scene>
							<shottake></shottake>
							<lognote></lognote>
							<good></good>
							<originalvideofilename></originalvideofilename>
							<originalaudiofilename></originalaudiofilename>
						</logginginfo>
						<colorinfo>
							<lut></lut>
							<lut1></lut1>
							<asc_sop></asc_sop>
							<asc_sat></asc_sat>
							<lut2></lut2>
						</colorinfo>
						<labels>
							<label2>Iris</label2>
						</labels>
					</clipitem>
					<clipitem id="clipitem-201">
						<masterclipid>masterclip-79</masterclipid>
						<name>A003_05301044_C122.mp4</name>
						<enabled>TRUE</enabled>
						<duration>2688</duration>
						<rate>
							<timebase>24</timebase>
							<ntsc>FALSE</ntsc>
						</rate>
						<start>19403</start>
						<end>19510</end>
						<in>2469</in>
						<out>2576</out>
						<pproTicksIn>52263792000000</pproTicksIn>
						<pproTicksOut>54528768000000</pproTicksOut>
						<alphatype>none</alphatype>
						<file id="file-79"/>
						<filter>
							<effect>
								<name>Time Remap</name>
								<effectid>timeremap</effectid>
								<effectcategory>motion</effectcategory>
								<effecttype>motion</effecttype>
								<mediatype>video</mediatype>
								<parameter authoringApp="PremierePro">
									<parameterid>variablespeed</parameterid>
									<name>variablespeed</name>
									<valuemin>0</valuemin>
									<valuemax>1</valuemax>
									<value>0</value>
								</parameter>
								<parameter authoringApp="PremierePro">
									<parameterid>speed</parameterid>
									<name>speed</name>
									<valuemin>-100000</valuemin>
									<valuemax>100000</valuemax>
									<value>200</value>
								</parameter>
								<parameter authoringApp="PremierePro">
									<parameterid>reverse</parameterid>
									<name>reverse</name>
									<value>FALSE</value>
								</parameter>
								<parameter authoringApp="PremierePro">
									<parameterid>frameblending</parameterid>
									<name>frameblending</name>
									<value>FALSE</value>
								</parameter>
								<parameter authoringApp="PremierePro">
									<parameterid>graphdict</parameterid>
									<name>graphdict</name>
									<valuemin>0</valuemin>
									<valuemax>5376</valuemax>
									<value>0</value>
									<keyframe>
										<when>0</when>
										<value>0</value>
										<speedvirtualkf>TRUE</speedvirtualkf>
										<speedkfstart>TRUE</speedkfstart>
									</keyframe>
									<keyframe>
										<when>2469</when>
										<value>4938</value>
										<speedvirtualkf>TRUE</speedvirtualkf>
										<speedkfin>TRUE</speedkfin>
									</keyframe>
									<keyframe>
										<when>2576</when>
										<value>5152</value>
										<speedvirtualkf>TRUE</speedvirtualkf>
										<speedkfout>TRUE</speedkfout>
									</keyframe>
									<keyframe>
										<when>2688</when>
										<value>5376</value>
										<speedvirtualkf>TRUE</speedvirtualkf>
										<speedkfend>TRUE</speedkfend>
									</keyframe>
									<interpolation>
										<name>FCPCurve</name>
									</interpolation>
								</parameter>
							</effect>
						</filter>
						<logginginfo>
							<description></description>
							<scene></scene>
							<shottake></shottake>
							<lognote></lognote>
							<good></good>
							<originalvideofilename></originalvideofilename>
							<originalaudiofilename></originalaudiofilename>
						</logginginfo>
						<colorinfo>
							<lut></lut>
							<lut1></lut1>
							<asc_sop></asc_sop>
							<asc_sat></asc_sat>
							<lut2></lut2>
						</colorinfo>
						<labels>
							<label2>Iris</label2>
						</labels>
					</clipitem>
					<clipitem id="clipitem-202">
						<masterclipid>masterclip-94</masterclipid>
						<name>A003_05301026_C116.mp4</name>
						<enabled>TRUE</enabled>
						<duration>1975</duration>
						<rate>
							<timebase>24</timebase>
							<ntsc>FALSE</ntsc>
						</rate>
						<start>19510</start>
						<end>19651</end>
						<in>1114</in>
						<out>1255</out>
						<pproTicksIn>11790576000000</pproTicksIn>
						<pproTicksOut>13282920000000</pproTicksOut>
						<alphatype>none</alphatype>
						<pixelaspectratio>square</pixelaspectratio>
						<anamorphic>FALSE</anamorphic>
						<file id="file-94">
							<name>A003_05301026_C116.mp4</name>
							<pathurl>file://localhost/F%3a/bengaluru%20scenes/scene%2043/A003_05301026_C116.mp4</pathurl>
							<rate>
								<timebase>24</timebase>
								<ntsc>FALSE</ntsc>
							</rate>
							<duration>1975</duration>
							<timecode>
								<rate>
									<timebase>24</timebase>
									<ntsc>FALSE</ntsc>
								</rate>
								<string>00:00:00:00</string>
								<frame>0</frame>
								<displayformat>NDF</displayformat>
							</timecode>
							<media>
								<video>
									<samplecharacteristics>
										<rate>
											<timebase>24</timebase>
											<ntsc>FALSE</ntsc>
										</rate>
										<width>1920</width>
										<height>1080</height>
										<anamorphic>FALSE</anamorphic>
										<pixelaspectratio>square</pixelaspectratio>
										<fielddominance>none</fielddominance>
									</samplecharacteristics>
								</video>
								<audio>
									<samplecharacteristics>
										<depth>16</depth>
										<samplerate>48000</samplerate>
									</samplecharacteristics>
									<channelcount>2</channelcount>
								</audio>
							</media>
						</file>
						<logginginfo>
							<description></description>
							<scene></scene>
							<shottake></shottake>
							<lognote></lognote>
							<good></good>
							<originalvideofilename></originalvideofilename>
							<originalaudiofilename></originalaudiofilename>
						</logginginfo>
						<colorinfo>
							<lut></lut>
							<lut1></lut1>
							<asc_sop></asc_sop>
							<asc_sat></asc_sat>
							<lut2></lut2>
						</colorinfo>
						<labels>
							<label2>Iris</label2>
						</labels>
					</clipitem>
					<clipitem id="clipitem-203">
						<masterclipid>masterclip-69</masterclipid>
						<name>A003_05300849_C080.mp4</name>
						<enabled>TRUE</enabled>
						<duration>3599</duration>
						<rate>
							<timebase>24</timebase>
							<ntsc>FALSE</ntsc>
						</rate>
						<start>19651</start>
						<end>20063</end>
						<in>2965</in>
						<out>3377</out>
						<pproTicksIn>31381560000000</pproTicksIn>
						<pproTicksOut>35742168000000</pproTicksOut>
						<alphatype>none</alphatype>
						<file id="file-69"/>
						<logginginfo>
							<description></description>
							<scene></scene>
							<shottake></shottake>
							<lognote></lognote>
							<good></good>
							<originalvideofilename></originalvideofilename>
							<originalaudiofilename></originalaudiofilename>
						</logginginfo>
						<colorinfo>
							<lut></lut>
							<lut1></lut1>
							<asc_sop></asc_sop>
							<asc_sat></asc_sat>
							<lut2></lut2>
						</colorinfo>
						<labels>
							<label2>Iris</label2>
						</labels>
					</clipitem>
					<clipitem id="clipitem-204">
						<masterclipid>masterclip-94</masterclipid>
						<name>A003_05301026_C116.mp4</name>
						<enabled>TRUE</enabled>
						<duration>1975</duration>
						<rate>
							<timebase>24</timebase>
							<ntsc>FALSE</ntsc>
						</rate>
						<start>20063</start>
						<end>20117</end>
						<in>1805</in>
						<out>1859</out>
						<pproTicksIn>19104120000000</pproTicksIn>
						<pproTicksOut>19675656000000</pproTicksOut>
						<alphatype>none</alphatype>
						<file id="file-94"/>
						<logginginfo>
							<description></description>
							<scene></scene>
							<shottake></shottake>
							<lognote></lognote>
							<good></good>
							<originalvideofilename></originalvideofilename>
							<originalaudiofilename></originalaudiofilename>
						</logginginfo>
						<colorinfo>
							<lut></lut>
							<lut1></lut1>
							<asc_sop></asc_sop>
							<asc_sat></asc_sat>
							<lut2></lut2>
						</colorinfo>
						<labels>
							<label2>Iris</label2>
						</labels>
					</clipitem>
					<clipitem id="clipitem-205">
						<masterclipid>masterclip-69</masterclipid>
						<name>A003_05300849_C080.mp4</name>
						<enabled>TRUE</enabled>
						<duration>3599</duration>
						<rate>
							<timebase>24</timebase>
							<ntsc>FALSE</ntsc>
						</rate>
						<start>20117</start>
						<end>-1</end>
						<in>3380</in>
						<out>3460</out>
						<pproTicksIn>35773920000000</pproTicksIn>
						<pproTicksOut>36620640000000</pproTicksOut>
						<alphatype>none</alphatype>
						<file id="file-69"/>
						<logginginfo>
							<description></description>
							<scene></scene>
							<shottake></shottake>
							<lognote></lognote>
							<good></good>
							<originalvideofilename></originalvideofilename>
							<originalaudiofilename></originalaudiofilename>
						</logginginfo>
						<colorinfo>
							<lut></lut>
							<lut1></lut1>
							<asc_sop></asc_sop>
							<asc_sat></asc_sat>
							<lut2></lut2>
						</colorinfo>
						<labels>
							<label2>Iris</label2>
						</labels>
					</clipitem>
					<transitionitem>
						<start>20173</start>
						<end>20197</end>
						<alignment>end-black</alignment>
						<cutPointTicks>254016000000</cutPointTicks>
						<rate>
							<timebase>24</timebase>
							<ntsc>FALSE</ntsc>
						</rate>
						<effect>
							<name>Cross Dissolve</name>
							<effectid>Cross Dissolve</effectid>
							<effectcategory>Dissolve</effectcategory>
							<effecttype>transition</effecttype>
							<mediatype>video</mediatype>
							<wipecode>0</wipecode>
							<wipeaccuracy>100</wipeaccuracy>
							<startratio>0</startratio>
							<endratio>1</endratio>
							<reverse>FALSE</reverse>
						</effect>
					</transitionitem>
					<transitionitem>
						<start>20197</start>
						<end>20221</end>
						<alignment>start-black</alignment>
						<cutPointTicks>0</cutPointTicks>
						<rate>
							<timebase>24</timebase>
							<ntsc>FALSE</ntsc>
						</rate>
						<effect>
							<name>Cross Dissolve</name>
							<effectid>Cross Dissolve</effectid>
							<effectcategory>Dissolve</effectcategory>
							<effecttype>transition</effecttype>
							<mediatype>video</mediatype>
							<wipecode>0</wipecode>
							<wipeaccuracy>100</wipeaccuracy>
							<startratio>0</startratio>
							<endratio>1</endratio>
							<reverse>FALSE</reverse>
						</effect>
					</transitionitem>
					<clipitem id="clipitem-206">
						<masterclipid>masterclip-95</masterclipid>
						<name>A013_10310413_C026.mp4</name>
						<enabled>TRUE</enabled>
						<duration>2454</duration>
						<rate>
							<timebase>24</timebase>
							<ntsc>FALSE</ntsc>
						</rate>
						<start>-1</start>
						<end>-1</end>
						<in>383</in>
						<out>513</out>
						<pproTicksIn>4053672000000</pproTicksIn>
						<pproTicksOut>5429592000000</pproTicksOut>
						<alphatype>none</alphatype>
						<pixelaspectratio>square</pixelaspectratio>
						<anamorphic>FALSE</anamorphic>
						<file id="file-95">
							<name>A013_10310413_C026.mp4</name>
							<pathurl>file://localhost/F%3a/bengaluru%20scenes/scene%2043/intercuts/A013_10310413_C026.mp4</pathurl>
							<rate>
								<timebase>24</timebase>
								<ntsc>FALSE</ntsc>
							</rate>
							<duration>2454</duration>
							<timecode>
								<rate>
									<timebase>24</timebase>
									<ntsc>FALSE</ntsc>
								</rate>
								<string>04:13:13:13</string>
								<frame>364645</frame>
								<displayformat>NDF</displayformat>
							</timecode>
							<media>
								<video>
									<samplecharacteristics>
										<rate>
											<timebase>24</timebase>
											<ntsc>FALSE</ntsc>
										</rate>
										<width>1920</width>
										<height>1080</height>
										<anamorphic>FALSE</anamorphic>
										<pixelaspectratio>square</pixelaspectratio>
										<fielddominance>none</fielddominance>
									</samplecharacteristics>
								</video>
								<audio>
									<samplecharacteristics>
										<depth>16</depth>
										<samplerate>48000</samplerate>
									</samplecharacteristics>
									<channelcount>2</channelcount>
								</audio>
							</media>
						</file>
						<logginginfo>
							<description></description>
							<scene></scene>
							<shottake></shottake>
							<lognote></lognote>
							<good></good>
							<originalvideofilename></originalvideofilename>
							<originalaudiofilename></originalaudiofilename>
						</logginginfo>
						<colorinfo>
							<lut></lut>
							<lut1></lut1>
							<asc_sop></asc_sop>
							<asc_sat></asc_sat>
							<lut2></lut2>
						</colorinfo>
						<labels>
							<label2>Iris</label2>
						</labels>
					</clipitem>
					<transitionitem>
						<start>20303</start>
						<end>20327</end>
						<alignment>end-black</alignment>
						<cutPointTicks>254016000000</cutPointTicks>
						<rate>
							<timebase>24</timebase>
							<ntsc>FALSE</ntsc>
						</rate>
						<effect>
							<name>Cross Dissolve</name>
							<effectid>Cross Dissolve</effectid>
							<effectcategory>Dissolve</effectcategory>
							<effecttype>transition</effecttype>
							<mediatype>video</mediatype>
							<wipecode>0</wipecode>
							<wipeaccuracy>100</wipeaccuracy>
							<startratio>0</startratio>
							<endratio>1</endratio>
							<reverse>FALSE</reverse>
						</effect>
					</transitionitem>
					<transitionitem>
						<start>20327</start>
						<end>20348</end>
						<alignment>start-black</alignment>
						<cutPointTicks>0</cutPointTicks>
						<rate>
							<timebase>24</timebase>
							<ntsc>FALSE</ntsc>
						</rate>
						<effect>
							<name>Cross Dissolve</name>
							<effectid>Cross Dissolve</effectid>
							<effectcategory>Dissolve</effectcategory>
							<effecttype>transition</effecttype>
							<mediatype>video</mediatype>
							<wipecode>0</wipecode>
							<wipeaccuracy>100</wipeaccuracy>
							<startratio>0</startratio>
							<endratio>1</endratio>
							<reverse>FALSE</reverse>
						</effect>
					</transitionitem>
					<clipitem id="clipitem-207">
						<masterclipid>masterclip-96</masterclipid>
						<name>A003_05301107_C130.mp4</name>
						<enabled>TRUE</enabled>
						<duration>1903</duration>
						<rate>
							<timebase>24</timebase>
							<ntsc>FALSE</ntsc>
						</rate>
						<start>-1</start>
						<end>20348</end>
						<in>369</in>
						<out>390</out>
						<pproTicksIn>3905496000000</pproTicksIn>
						<pproTicksOut>4127760000000</pproTicksOut>
						<alphatype>none</alphatype>
						<pixelaspectratio>square</pixelaspectratio>
						<anamorphic>FALSE</anamorphic>
						<file id="file-96">
							<name>A003_05301107_C130.mp4</name>
							<pathurl>file://localhost/F%3a/bengaluru%20scenes/scene%2043A/A003_05301107_C130.mp4</pathurl>
							<rate>
								<timebase>24</timebase>
								<ntsc>FALSE</ntsc>
							</rate>
							<duration>1903</duration>
							<timecode>
								<rate>
									<timebase>24</timebase>
									<ntsc>FALSE</ntsc>
								</rate>
								<string>00:00:00:00</string>
								<frame>0</frame>
								<displayformat>NDF</displayformat>
							</timecode>
							<media>
								<video>
									<samplecharacteristics>
										<rate>
											<timebase>24</timebase>
											<ntsc>FALSE</ntsc>
										</rate>
										<width>1920</width>
										<height>1080</height>
										<anamorphic>FALSE</anamorphic>
										<pixelaspectratio>square</pixelaspectratio>
										<fielddominance>none</fielddominance>
									</samplecharacteristics>
								</video>
								<audio>
									<samplecharacteristics>
										<depth>16</depth>
										<samplerate>48000</samplerate>
									</samplecharacteristics>
									<channelcount>2</channelcount>
								</audio>
							</media>
						</file>
						<logginginfo>
							<description></description>
							<scene></scene>
							<shottake></shottake>
							<lognote></lognote>
							<good></good>
							<originalvideofilename></originalvideofilename>
							<originalaudiofilename></originalaudiofilename>
						</logginginfo>
						<colorinfo>
							<lut></lut>
							<lut1></lut1>
							<asc_sop></asc_sop>
							<asc_sat></asc_sat>
							<lut2></lut2>
						</colorinfo>
						<labels>
							<label2>Iris</label2>
						</labels>
					</clipitem>
					<clipitem id="clipitem-208">
						<masterclipid>masterclip-96</masterclipid>
						<name>A003_05301107_C130.mp4</name>
						<enabled>TRUE</enabled>
						<duration>1903</duration>
						<rate>
							<timebase>24</timebase>
							<ntsc>FALSE</ntsc>
						</rate>
						<start>20348</start>
						<end>-1</end>
						<in>390</in>
						<out>513</out>
						<pproTicksIn>4127760000000</pproTicksIn>
						<pproTicksOut>5429592000000</pproTicksOut>
						<alphatype>none</alphatype>
						<file id="file-96"/>
						<logginginfo>
							<description></description>
							<scene></scene>
							<shottake></shottake>
							<lognote></lognote>
							<good></good>
							<originalvideofilename></originalvideofilename>
							<originalaudiofilename></originalaudiofilename>
						</logginginfo>
						<colorinfo>
							<lut></lut>
							<lut1></lut1>
							<asc_sop></asc_sop>
							<asc_sat></asc_sat>
							<lut2></lut2>
						</colorinfo>
						<labels>
							<label2>Iris</label2>
						</labels>
					</clipitem>
					<transitionitem>
						<start>20447</start>
						<end>20471</end>
						<alignment>end-black</alignment>
						<cutPointTicks>254016000000</cutPointTicks>
						<rate>
							<timebase>24</timebase>
							<ntsc>FALSE</ntsc>
						</rate>
						<effect>
							<name>Cross Dissolve</name>
							<effectid>Cross Dissolve</effectid>
							<effectcategory>Dissolve</effectcategory>
							<effecttype>transition</effecttype>
							<mediatype>video</mediatype>
							<wipecode>0</wipecode>
							<wipeaccuracy>100</wipeaccuracy>
							<startratio>0</startratio>
							<endratio>1</endratio>
							<reverse>FALSE</reverse>
						</effect>
					</transitionitem>
					<transitionitem>
						<start>20471</start>
						<end>20501</end>
						<alignment>start-black</alignment>
						<cutPointTicks>0</cutPointTicks>
						<rate>
							<timebase>24</timebase>
							<ntsc>FALSE</ntsc>
						</rate>
						<effect>
							<name>Cross Dissolve</name>
							<effectid>Cross Dissolve</effectid>
							<effectcategory>Dissolve</effectcategory>
							<effecttype>transition</effecttype>
							<mediatype>video</mediatype>
							<wipecode>0</wipecode>
							<wipeaccuracy>100</wipeaccuracy>
							<startratio>0</startratio>
							<endratio>1</endratio>
							<reverse>FALSE</reverse>
						</effect>
					</transitionitem>
					<clipitem id="clipitem-209">
						<masterclipid>masterclip-97</masterclipid>
						<name>A006_06182033_C029.mp4</name>
						<enabled>TRUE</enabled>
						<duration>1106</duration>
						<rate>
							<timebase>24</timebase>
							<ntsc>FALSE</ntsc>
						</rate>
						<start>-1</start>
						<end>-1</end>
						<in>357</in>
						<out>452</out>
						<pproTicksIn>3778488000000</pproTicksIn>
						<pproTicksOut>4783968000000</pproTicksOut>
						<alphatype>none</alphatype>
						<pixelaspectratio>square</pixelaspectratio>
						<anamorphic>FALSE</anamorphic>
						<file id="file-97">
							<name>A006_06182033_C029.mp4</name>
							<pathurl>file://localhost/F%3a/bengaluru%20scenes/scene%2043B/A006_06182033_C029.mp4</pathurl>
							<rate>
								<timebase>24</timebase>
								<ntsc>FALSE</ntsc>
							</rate>
							<duration>1106</duration>
							<timecode>
								<rate>
									<timebase>24</timebase>
									<ntsc>FALSE</ntsc>
								</rate>
								<string>20:33:03:08</string>
								<frame>1775600</frame>
								<displayformat>NDF</displayformat>
							</timecode>
							<media>
								<video>
									<samplecharacteristics>
										<rate>
											<timebase>24</timebase>
											<ntsc>FALSE</ntsc>
										</rate>
										<width>1920</width>
										<height>1080</height>
										<anamorphic>FALSE</anamorphic>
										<pixelaspectratio>square</pixelaspectratio>
										<fielddominance>none</fielddominance>
									</samplecharacteristics>
								</video>
								<audio>
									<samplecharacteristics>
										<depth>16</depth>
										<samplerate>48000</samplerate>
									</samplecharacteristics>
									<channelcount>2</channelcount>
								</audio>
							</media>
						</file>
						<logginginfo>
							<description></description>
							<scene></scene>
							<shottake></shottake>
							<lognote></lognote>
							<good></good>
							<originalvideofilename></originalvideofilename>
							<originalaudiofilename></originalaudiofilename>
						</logginginfo>
						<colorinfo>
							<lut></lut>
							<lut1></lut1>
							<asc_sop></asc_sop>
							<asc_sat></asc_sat>
							<lut2></lut2>
						</colorinfo>
						<labels>
							<label2>Iris</label2>
						</labels>
					</clipitem>
					<transitionitem>
						<start>20536</start>
						<end>20566</end>
						<alignment>end-black</alignment>
						<cutPointTicks>317520000000</cutPointTicks>
						<rate>
							<timebase>24</timebase>
							<ntsc>FALSE</ntsc>
						</rate>
						<effect>
							<name>Cross Dissolve</name>
							<effectid>Cross Dissolve</effectid>
							<effectcategory>Dissolve</effectcategory>
							<effecttype>transition</effecttype>
							<mediatype>video</mediatype>
							<wipecode>0</wipecode>
							<wipeaccuracy>100</wipeaccuracy>
							<startratio>0</startratio>
							<endratio>1</endratio>
							<reverse>FALSE</reverse>
						</effect>
					</transitionitem>
					<transitionitem>
						<start>20566</start>
						<end>20596</end>
						<alignment>start-black</alignment>
						<cutPointTicks>0</cutPointTicks>
						<rate>
							<timebase>24</timebase>
							<ntsc>FALSE</ntsc>
						</rate>
						<effect>
							<name>Cross Dissolve</name>
							<effectid>Cross Dissolve</effectid>
							<effectcategory>Dissolve</effectcategory>
							<effecttype>transition</effecttype>
							<mediatype>video</mediatype>
							<wipecode>0</wipecode>
							<wipeaccuracy>100</wipeaccuracy>
							<startratio>0</startratio>
							<endratio>1</endratio>
							<reverse>FALSE</reverse>
						</effect>
					</transitionitem>
					<clipitem id="clipitem-210">
						<masterclipid>masterclip-98</masterclipid>
						<name>A003_05301110_C132.mp4</name>
						<enabled>TRUE</enabled>
						<duration>1013</duration>
						<rate>
							<timebase>24</timebase>
							<ntsc>FALSE</ntsc>
						</rate>
						<start>-1</start>
						<end>-1</end>
						<in>169</in>
						<out>449</out>
						<pproTicksIn>1788696000000</pproTicksIn>
						<pproTicksOut>4752216000000</pproTicksOut>
						<alphatype>none</alphatype>
						<pixelaspectratio>square</pixelaspectratio>
						<anamorphic>FALSE</anamorphic>
						<file id="file-98">
							<name>A003_05301110_C132.mp4</name>
							<pathurl>file://localhost/F%3a/bengaluru%20scenes/scene%2043A/A003_05301110_C132.mp4</pathurl>
							<rate>
								<timebase>24</timebase>
								<ntsc>FALSE</ntsc>
							</rate>
							<duration>1013</duration>
							<timecode>
								<rate>
									<timebase>24</timebase>
									<ntsc>FALSE</ntsc>
								</rate>
								<string>00:00:00:00</string>
								<frame>0</frame>
								<displayformat>NDF</displayformat>
							</timecode>
							<media>
								<video>
									<samplecharacteristics>
										<rate>
											<timebase>24</timebase>
											<ntsc>FALSE</ntsc>
										</rate>
										<width>1920</width>
										<height>1080</height>
										<anamorphic>FALSE</anamorphic>
										<pixelaspectratio>square</pixelaspectratio>
										<fielddominance>none</fielddominance>
									</samplecharacteristics>
								</video>
								<audio>
									<samplecharacteristics>
										<depth>16</depth>
										<samplerate>48000</samplerate>
									</samplecharacteristics>
									<channelcount>2</channelcount>
								</audio>
							</media>
						</file>
						<logginginfo>
							<description></description>
							<scene></scene>
							<shottake></shottake>
							<lognote></lognote>
							<good></good>
							<originalvideofilename></originalvideofilename>
							<originalaudiofilename></originalaudiofilename>
						</logginginfo>
						<colorinfo>
							<lut></lut>
							<lut1></lut1>
							<asc_sop></asc_sop>
							<asc_sat></asc_sat>
							<lut2></lut2>
						</colorinfo>
						<labels>
							<label2>Iris</label2>
						</labels>
					</clipitem>
					<transitionitem>
						<start>20816</start>
						<end>20846</end>
						<alignment>end-black</alignment>
						<cutPointTicks>317520000000</cutPointTicks>
						<rate>
							<timebase>24</timebase>
							<ntsc>FALSE</ntsc>
						</rate>
						<effect>
							<name>Cross Dissolve</name>
							<effectid>Cross Dissolve</effectid>
							<effectcategory>Dissolve</effectcategory>
							<effecttype>transition</effecttype>
							<mediatype>video</mediatype>
							<wipecode>0</wipecode>
							<wipeaccuracy>100</wipeaccuracy>
							<startratio>0</startratio>
							<endratio>1</endratio>
							<reverse>FALSE</reverse>
						</effect>
					</transitionitem>
					<transitionitem>
						<start>20846</start>
						<end>20876</end>
						<alignment>start-black</alignment>
						<cutPointTicks>0</cutPointTicks>
						<rate>
							<timebase>24</timebase>
							<ntsc>FALSE</ntsc>
						</rate>
						<effect>
							<name>Cross Dissolve</name>
							<effectid>Cross Dissolve</effectid>
							<effectcategory>Dissolve</effectcategory>
							<effecttype>transition</effecttype>
							<mediatype>video</mediatype>
							<wipecode>0</wipecode>
							<wipeaccuracy>100</wipeaccuracy>
							<startratio>0</startratio>
							<endratio>1</endratio>
							<reverse>FALSE</reverse>
						</effect>
					</transitionitem>
					<clipitem id="clipitem-211">
						<masterclipid>masterclip-95</masterclipid>
						<name>A013_10310413_C026.mp4</name>
						<enabled>TRUE</enabled>
						<duration>2454</duration>
						<rate>
							<timebase>24</timebase>
							<ntsc>FALSE</ntsc>
						</rate>
						<start>-1</start>
						<end>-1</end>
						<in>1563</in>
						<out>1645</out>
						<pproTicksIn>16542792000000</pproTicksIn>
						<pproTicksOut>17410680000000</pproTicksOut>
						<alphatype>none</alphatype>
						<file id="file-95"/>
						<logginginfo>
							<description></description>
							<scene></scene>
							<shottake></shottake>
							<lognote></lognote>
							<good></good>
							<originalvideofilename></originalvideofilename>
							<originalaudiofilename></originalaudiofilename>
						</logginginfo>
						<colorinfo>
							<lut></lut>
							<lut1></lut1>
							<asc_sop></asc_sop>
							<asc_sat></asc_sat>
							<lut2></lut2>
						</colorinfo>
						<labels>
							<label2>Iris</label2>
						</labels>
					</clipitem>
					<transitionitem>
						<start>20898</start>
						<end>20928</end>
						<alignment>end-black</alignment>
						<cutPointTicks>317520000000</cutPointTicks>
						<rate>
							<timebase>24</timebase>
							<ntsc>FALSE</ntsc>
						</rate>
						<effect>
							<name>Cross Dissolve</name>
							<effectid>Cross Dissolve</effectid>
							<effectcategory>Dissolve</effectcategory>
							<effecttype>transition</effecttype>
							<mediatype>video</mediatype>
							<wipecode>0</wipecode>
							<wipeaccuracy>100</wipeaccuracy>
							<startratio>0</startratio>
							<endratio>1</endratio>
							<reverse>FALSE</reverse>
						</effect>
					</transitionitem>
					<transitionitem>
						<start>20928</start>
						<end>20958</end>
						<alignment>start-black</alignment>
						<cutPointTicks>0</cutPointTicks>
						<rate>
							<timebase>24</timebase>
							<ntsc>FALSE</ntsc>
						</rate>
						<effect>
							<name>Cross Dissolve</name>
							<effectid>Cross Dissolve</effectid>
							<effectcategory>Dissolve</effectcategory>
							<effecttype>transition</effecttype>
							<mediatype>video</mediatype>
							<wipecode>0</wipecode>
							<wipeaccuracy>100</wipeaccuracy>
							<startratio>0</startratio>
							<endratio>1</endratio>
							<reverse>FALSE</reverse>
						</effect>
					</transitionitem>
					<clipitem id="clipitem-212">
						<masterclipid>masterclip-97</masterclipid>
						<name>A006_06182033_C029.mp4</name>
						<enabled>TRUE</enabled>
						<duration>1843</duration>
						<rate>
							<timebase>24</timebase>
							<ntsc>FALSE</ntsc>
						</rate>
						<start>-1</start>
						<end>-1</end>
						<in>1342</in>
						<out>1447</out>
						<pproTicksIn>8520120000000</pproTicksIn>
						<pproTicksOut>9193262400000</pproTicksOut>
						<alphatype>none</alphatype>
						<file id="file-97"/>
						<filter>
							<effect>
								<name>Time Remap</name>
								<effectid>timeremap</effectid>
								<effectcategory>motion</effectcategory>
								<effecttype>motion</effecttype>
								<mediatype>video</mediatype>
								<parameter authoringApp="PremierePro">
									<parameterid>variablespeed</parameterid>
									<name>variablespeed</name>
									<valuemin>0</valuemin>
									<valuemax>1</valuemax>
									<value>0</value>
								</parameter>
								<parameter authoringApp="PremierePro">
									<parameterid>speed</parameterid>
									<name>speed</name>
									<valuemin>-100000</valuemin>
									<valuemax>100000</valuemax>
									<value>60</value>
								</parameter>
								<parameter authoringApp="PremierePro">
									<parameterid>reverse</parameterid>
									<name>reverse</name>
									<value>FALSE</value>
								</parameter>
								<parameter authoringApp="PremierePro">
									<parameterid>frameblending</parameterid>
									<name>frameblending</name>
									<value>FALSE</value>
								</parameter>
								<parameter authoringApp="PremierePro">
									<parameterid>graphdict</parameterid>
									<name>graphdict</name>
									<valuemin>0</valuemin>
									<valuemax>1105</valuemax>
									<value>0</value>
									<keyframe>
										<when>0</when>
										<value>0</value>
										<speedvirtualkf>TRUE</speedvirtualkf>
										<speedkfstart>TRUE</speedkfstart>
									</keyframe>
									<keyframe>
										<when>1342</when>
										<value>805</value>
										<speedvirtualkf>TRUE</speedvirtualkf>
										<speedkfin>TRUE</speedkfin>
									</keyframe>
									<keyframe>
										<when>1447</when>
										<value>868</value>
										<speedvirtualkf>TRUE</speedvirtualkf>
										<speedkfout>TRUE</speedkfout>
									</keyframe>
									<keyframe>
										<when>1843</when>
										<value>1105</value>
										<speedvirtualkf>TRUE</speedvirtualkf>
										<speedkfend>TRUE</speedkfend>
									</keyframe>
									<interpolation>
										<name>FCPCurve</name>
									</interpolation>
								</parameter>
							</effect>
						</filter>
						<logginginfo>
							<description></description>
							<scene></scene>
							<shottake></shottake>
							<lognote></lognote>
							<good></good>
							<originalvideofilename></originalvideofilename>
							<originalaudiofilename></originalaudiofilename>
						</logginginfo>
						<colorinfo>
							<lut></lut>
							<lut1></lut1>
							<asc_sop></asc_sop>
							<asc_sat></asc_sat>
							<lut2></lut2>
						</colorinfo>
						<labels>
							<label2>Iris</label2>
						</labels>
					</clipitem>
					<transitionitem>
						<start>21004</start>
						<end>21034</end>
						<alignment>end-black</alignment>
						<cutPointTicks>317520000000</cutPointTicks>
						<rate>
							<timebase>24</timebase>
							<ntsc>FALSE</ntsc>
						</rate>
						<effect>
							<name>Cross Dissolve</name>
							<effectid>Cross Dissolve</effectid>
							<effectcategory>Dissolve</effectcategory>
							<effecttype>transition</effecttype>
							<mediatype>video</mediatype>
							<wipecode>0</wipecode>
							<wipeaccuracy>100</wipeaccuracy>
							<startratio>0</startratio>
							<endratio>1</endratio>
							<reverse>FALSE</reverse>
						</effect>
					</transitionitem>
					<transitionitem>
						<start>21034</start>
						<end>21064</end>
						<alignment>start-black</alignment>
						<cutPointTicks>0</cutPointTicks>
						<rate>
							<timebase>24</timebase>
							<ntsc>FALSE</ntsc>
						</rate>
						<effect>
							<name>Cross Dissolve</name>
							<effectid>Cross Dissolve</effectid>
							<effectcategory>Dissolve</effectcategory>
							<effecttype>transition</effecttype>
							<mediatype>video</mediatype>
							<wipecode>0</wipecode>
							<wipeaccuracy>100</wipeaccuracy>
							<startratio>0</startratio>
							<endratio>1</endratio>
							<reverse>FALSE</reverse>
						</effect>
					</transitionitem>
					<clipitem id="clipitem-213">
						<masterclipid>masterclip-99</masterclipid>
						<name>A013_10310423_C031.mp4</name>
						<enabled>TRUE</enabled>
						<duration>5588</duration>
						<rate>
							<timebase>24</timebase>
							<ntsc>FALSE</ntsc>
						</rate>
						<start>-1</start>
						<end>-1</end>
						<in>1024</in>
						<out>1126</out>
						<pproTicksIn>10838016000000</pproTicksIn>
						<pproTicksOut>11917584000000</pproTicksOut>
						<alphatype>none</alphatype>
						<pixelaspectratio>square</pixelaspectratio>
						<anamorphic>FALSE</anamorphic>
						<file id="file-99">
							<name>A013_10310423_C031.mp4</name>
							<pathurl>file://localhost/F%3a/bengaluru%20scenes/scene%2043/intercuts/A013_10310423_C031.mp4</pathurl>
							<rate>
								<timebase>24</timebase>
								<ntsc>FALSE</ntsc>
							</rate>
							<duration>5588</duration>
							<timecode>
								<rate>
									<timebase>24</timebase>
									<ntsc>FALSE</ntsc>
								</rate>
								<string>04:23:03:07</string>
								<frame>378799</frame>
								<displayformat>NDF</displayformat>
							</timecode>
							<media>
								<video>
									<samplecharacteristics>
										<rate>
											<timebase>24</timebase>
											<ntsc>FALSE</ntsc>
										</rate>
										<width>1920</width>
										<height>1080</height>
										<anamorphic>FALSE</anamorphic>
										<pixelaspectratio>square</pixelaspectratio>
										<fielddominance>none</fielddominance>
									</samplecharacteristics>
								</video>
								<audio>
									<samplecharacteristics>
										<depth>16</depth>
										<samplerate>48000</samplerate>
									</samplecharacteristics>
									<channelcount>2</channelcount>
								</audio>
							</media>
						</file>
						<logginginfo>
							<description></description>
							<scene></scene>
							<shottake></shottake>
							<lognote></lognote>
							<good></good>
							<originalvideofilename></originalvideofilename>
							<originalaudiofilename></originalaudiofilename>
						</logginginfo>
						<colorinfo>
							<lut></lut>
							<lut1></lut1>
							<asc_sop></asc_sop>
							<asc_sat></asc_sat>
							<lut2></lut2>
						</colorinfo>
						<labels>
							<label2>Iris</label2>
						</labels>
					</clipitem>
					<transitionitem>
						<start>21106</start>
						<end>21136</end>
						<alignment>end-black</alignment>
						<cutPointTicks>317520000000</cutPointTicks>
						<rate>
							<timebase>24</timebase>
							<ntsc>FALSE</ntsc>
						</rate>
						<effect>
							<name>Cross Dissolve</name>
							<effectid>Cross Dissolve</effectid>
							<effectcategory>Dissolve</effectcategory>
							<effecttype>transition</effecttype>
							<mediatype>video</mediatype>
							<wipecode>0</wipecode>
							<wipeaccuracy>100</wipeaccuracy>
							<startratio>0</startratio>
							<endratio>1</endratio>
							<reverse>FALSE</reverse>
						</effect>
					</transitionitem>
					<transitionitem>
						<start>21136</start>
						<end>21166</end>
						<alignment>start-black</alignment>
						<cutPointTicks>0</cutPointTicks>
						<rate>
							<timebase>24</timebase>
							<ntsc>FALSE</ntsc>
						</rate>
						<effect>
							<name>Cross Dissolve</name>
							<effectid>Cross Dissolve</effectid>
							<effectcategory>Dissolve</effectcategory>
							<effecttype>transition</effecttype>
							<mediatype>video</mediatype>
							<wipecode>0</wipecode>
							<wipeaccuracy>100</wipeaccuracy>
							<startratio>0</startratio>
							<endratio>1</endratio>
							<reverse>FALSE</reverse>
						</effect>
					</transitionitem>
					<clipitem id="clipitem-214">
						<masterclipid>masterclip-100</masterclipid>
						<name>A003_05301111_C133.mp4</name>
						<enabled>TRUE</enabled>
						<duration>2273</duration>
						<rate>
							<timebase>24</timebase>
							<ntsc>FALSE</ntsc>
						</rate>
						<start>-1</start>
						<end>-1</end>
						<in>2010</in>
						<out>2137</out>
						<pproTicksIn>21273840000000</pproTicksIn>
						<pproTicksOut>22618008000000</pproTicksOut>
						<alphatype>none</alphatype>
						<pixelaspectratio>square</pixelaspectratio>
						<anamorphic>FALSE</anamorphic>
						<file id="file-100">
							<name>A003_05301111_C133.mp4</name>
							<pathurl>file://localhost/F%3a/bengaluru%20scenes/scene%2043A/A003_05301111_C133.mp4</pathurl>
							<rate>
								<timebase>24</timebase>
								<ntsc>FALSE</ntsc>
							</rate>
							<duration>2273</duration>
							<timecode>
								<rate>
									<timebase>24</timebase>
									<ntsc>FALSE</ntsc>
								</rate>
								<string>00:00:00:00</string>
								<frame>0</frame>
								<displayformat>NDF</displayformat>
							</timecode>
							<media>
								<video>
									<samplecharacteristics>
										<rate>
											<timebase>24</timebase>
											<ntsc>FALSE</ntsc>
										</rate>
										<width>1920</width>
										<height>1080</height>
										<anamorphic>FALSE</anamorphic>
										<pixelaspectratio>square</pixelaspectratio>
										<fielddominance>none</fielddominance>
									</samplecharacteristics>
								</video>
								<audio>
									<samplecharacteristics>
										<depth>16</depth>
										<samplerate>48000</samplerate>
									</samplecharacteristics>
									<channelcount>2</channelcount>
								</audio>
							</media>
						</file>
						<logginginfo>
							<description></description>
							<scene></scene>
							<shottake></shottake>
							<lognote></lognote>
							<good></good>
							<originalvideofilename></originalvideofilename>
							<originalaudiofilename></originalaudiofilename>
						</logginginfo>
						<colorinfo>
							<lut></lut>
							<lut1></lut1>
							<asc_sop></asc_sop>
							<asc_sat></asc_sat>
							<lut2></lut2>
						</colorinfo>
						<labels>
							<label2>Iris</label2>
						</labels>
					</clipitem>
					<transitionitem>
						<start>21233</start>
						<end>21263</end>
						<alignment>end-black</alignment>
						<cutPointTicks>317520000000</cutPointTicks>
						<rate>
							<timebase>24</timebase>
							<ntsc>FALSE</ntsc>
						</rate>
						<effect>
							<name>Cross Dissolve</name>
							<effectid>Cross Dissolve</effectid>
							<effectcategory>Dissolve</effectcategory>
							<effecttype>transition</effecttype>
							<mediatype>video</mediatype>
							<wipecode>0</wipecode>
							<wipeaccuracy>100</wipeaccuracy>
							<startratio>0</startratio>
							<endratio>1</endratio>
							<reverse>FALSE</reverse>
						</effect>
					</transitionitem>
					<transitionitem>
						<start>21263</start>
						<end>21293</end>
						<alignment>start-black</alignment>
						<cutPointTicks>0</cutPointTicks>
						<rate>
							<timebase>24</timebase>
							<ntsc>FALSE</ntsc>
						</rate>
						<effect>
							<name>Cross Dissolve</name>
							<effectid>Cross Dissolve</effectid>
							<effectcategory>Dissolve</effectcategory>
							<effecttype>transition</effecttype>
							<mediatype>video</mediatype>
							<wipecode>0</wipecode>
							<wipeaccuracy>100</wipeaccuracy>
							<startratio>0</startratio>
							<endratio>1</endratio>
							<reverse>FALSE</reverse>
						</effect>
					</transitionitem>
					<clipitem id="clipitem-215">
						<masterclipid>masterclip-101</masterclipid>
						<name>A002_05291415_C319.mp4</name>
						<enabled>TRUE</enabled>
						<duration>996</duration>
						<rate>
							<timebase>24</timebase>
							<ntsc>FALSE</ntsc>
						</rate>
						<start>-1</start>
						<end>21294</end>
						<in>255</in>
						<out>286</out>
						<pproTicksIn>2698920000000</pproTicksIn>
						<pproTicksOut>3027024000000</pproTicksOut>
						<alphatype>none</alphatype>
						<pixelaspectratio>square</pixelaspectratio>
						<anamorphic>FALSE</anamorphic>
						<file id="file-101">
							<name>A002_05291415_C319.mp4</name>
							<pathurl>file://localhost/F%3a/bengaluru%20scenes/scene%2043B/A002_05291415_C319.mp4</pathurl>
							<rate>
								<timebase>24</timebase>
								<ntsc>FALSE</ntsc>
							</rate>
							<duration>996</duration>
							<timecode>
								<rate>
									<timebase>24</timebase>
									<ntsc>FALSE</ntsc>
								</rate>
								<string>00:00:00:00</string>
								<frame>0</frame>
								<displayformat>NDF</displayformat>
							</timecode>
							<media>
								<video>
									<samplecharacteristics>
										<rate>
											<timebase>24</timebase>
											<ntsc>FALSE</ntsc>
										</rate>
										<width>1920</width>
										<height>1080</height>
										<anamorphic>FALSE</anamorphic>
										<pixelaspectratio>square</pixelaspectratio>
										<fielddominance>none</fielddominance>
									</samplecharacteristics>
								</video>
								<audio>
									<samplecharacteristics>
										<depth>16</depth>
										<samplerate>48000</samplerate>
									</samplecharacteristics>
									<channelcount>2</channelcount>
								</audio>
							</media>
						</file>
						<logginginfo>
							<description></description>
							<scene></scene>
							<shottake></shottake>
							<lognote></lognote>
							<good></good>
							<originalvideofilename></originalvideofilename>
							<originalaudiofilename></originalaudiofilename>
						</logginginfo>
						<colorinfo>
							<lut></lut>
							<lut1></lut1>
							<asc_sop></asc_sop>
							<asc_sat></asc_sat>
							<lut2></lut2>
						</colorinfo>
						<labels>
							<label2>Iris</label2>
						</labels>
					</clipitem>
					<clipitem id="clipitem-216">
						<masterclipid>masterclip-101</masterclipid>
						<name>A002_05291415_C319.mp4</name>
						<enabled>TRUE</enabled>
						<duration>996</duration>
						<rate>
							<timebase>24</timebase>
							<ntsc>FALSE</ntsc>
						</rate>
						<start>21294</start>
						<end>-1</end>
						<in>286</in>
						<out>375</out>
						<pproTicksIn>3027024000000</pproTicksIn>
						<pproTicksOut>3969000000000</pproTicksOut>
						<alphatype>none</alphatype>
						<file id="file-101"/>
						<logginginfo>
							<description></description>
							<scene></scene>
							<shottake></shottake>
							<lognote></lognote>
							<good></good>
							<originalvideofilename></originalvideofilename>
							<originalaudiofilename></originalaudiofilename>
						</logginginfo>
						<colorinfo>
							<lut></lut>
							<lut1></lut1>
							<asc_sop></asc_sop>
							<asc_sat></asc_sat>
							<lut2></lut2>
						</colorinfo>
						<labels>
							<label2>Iris</label2>
						</labels>
					</clipitem>
					<transitionitem>
						<start>21353</start>
						<end>21383</end>
						<alignment>end-black</alignment>
						<cutPointTicks>317520000000</cutPointTicks>
						<rate>
							<timebase>24</timebase>
							<ntsc>FALSE</ntsc>
						</rate>
						<effect>
							<name>Cross Dissolve</name>
							<effectid>Cross Dissolve</effectid>
							<effectcategory>Dissolve</effectcategory>
							<effecttype>transition</effecttype>
							<mediatype>video</mediatype>
							<wipecode>0</wipecode>
							<wipeaccuracy>100</wipeaccuracy>
							<startratio>0</startratio>
							<endratio>1</endratio>
							<reverse>FALSE</reverse>
						</effect>
					</transitionitem>
					<transitionitem>
						<start>21383</start>
						<end>21413</end>
						<alignment>start-black</alignment>
						<cutPointTicks>0</cutPointTicks>
						<rate>
							<timebase>24</timebase>
							<ntsc>FALSE</ntsc>
						</rate>
						<effect>
							<name>Cross Dissolve</name>
							<effectid>Cross Dissolve</effectid>
							<effectcategory>Dissolve</effectcategory>
							<effecttype>transition</effecttype>
							<mediatype>video</mediatype>
							<wipecode>0</wipecode>
							<wipeaccuracy>100</wipeaccuracy>
							<startratio>0</startratio>
							<endratio>1</endratio>
							<reverse>FALSE</reverse>
						</effect>
					</transitionitem>
					<clipitem id="clipitem-217">
						<masterclipid>masterclip-102</masterclipid>
						<name>A005_10250853_C142.mp4</name>
						<enabled>TRUE</enabled>
						<duration>1040</duration>
						<rate>
							<timebase>24</timebase>
							<ntsc>FALSE</ntsc>
						</rate>
						<start>-1</start>
						<end>-1</end>
						<in>87</in>
						<out>196</out>
						<pproTicksIn>459345600000</pproTicksIn>
						<pproTicksOut>1041465600000</pproTicksOut>
						<alphatype>none</alphatype>
						<pixelaspectratio>square</pixelaspectratio>
						<anamorphic>FALSE</anamorphic>
						<file id="file-102">
							<name>A005_10250853_C142.mp4</name>
							<pathurl>file://localhost/F%3a/bengaluru%20scenes/scene%2043B/int/A005_10250853_C142.mp4</pathurl>
							<rate>
								<timebase>24</timebase>
								<ntsc>FALSE</ntsc>
							</rate>
							<duration>520</duration>
							<timecode>
								<rate>
									<timebase>24</timebase>
									<ntsc>FALSE</ntsc>
								</rate>
								<string>08:53:14:14</string>
								<frame>767870</frame>
								<displayformat>NDF</displayformat>
							</timecode>
							<media>
								<video>
									<samplecharacteristics>
										<rate>
											<timebase>24</timebase>
											<ntsc>FALSE</ntsc>
										</rate>
										<width>1920</width>
										<height>1080</height>
										<anamorphic>FALSE</anamorphic>
										<pixelaspectratio>square</pixelaspectratio>
										<fielddominance>none</fielddominance>
									</samplecharacteristics>
								</video>
								<audio>
									<samplecharacteristics>
										<depth>16</depth>
										<samplerate>48000</samplerate>
									</samplecharacteristics>
									<channelcount>2</channelcount>
								</audio>
							</media>
						</file>
						<filter>
							<effect>
								<name>Time Remap</name>
								<effectid>timeremap</effectid>
								<effectcategory>motion</effectcategory>
								<effecttype>motion</effecttype>
								<mediatype>video</mediatype>
								<parameter authoringApp="PremierePro">
									<parameterid>variablespeed</parameterid>
									<name>variablespeed</name>
									<valuemin>0</valuemin>
									<valuemax>1</valuemax>
									<value>0</value>
								</parameter>
								<parameter authoringApp="PremierePro">
									<parameterid>speed</parameterid>
									<name>speed</name>
									<valuemin>-100000</valuemin>
									<valuemax>100000</valuemax>
									<value>50</value>
								</parameter>
								<parameter authoringApp="PremierePro">
									<parameterid>reverse</parameterid>
									<name>reverse</name>
									<value>FALSE</value>
								</parameter>
								<parameter authoringApp="PremierePro">
									<parameterid>frameblending</parameterid>
									<name>frameblending</name>
									<value>FALSE</value>
								</parameter>
								<parameter authoringApp="PremierePro">
									<parameterid>graphdict</parameterid>
									<name>graphdict</name>
									<valuemin>0</valuemin>
									<valuemax>520</valuemax>
									<value>0</value>
									<keyframe>
										<when>0</when>
										<value>0</value>
										<speedvirtualkf>TRUE</speedvirtualkf>
										<speedkfstart>TRUE</speedkfstart>
									</keyframe>
									<keyframe>
										<when>87</when>
										<value>43</value>
										<speedvirtualkf>TRUE</speedvirtualkf>
										<speedkfin>TRUE</speedkfin>
									</keyframe>
									<keyframe>
										<when>196</when>
										<value>98</value>
										<speedvirtualkf>TRUE</speedvirtualkf>
										<speedkfout>TRUE</speedkfout>
									</keyframe>
									<keyframe>
										<when>1040</when>
										<value>520</value>
										<speedvirtualkf>TRUE</speedvirtualkf>
										<speedkfend>TRUE</speedkfend>
									</keyframe>
									<interpolation>
										<name>FCPCurve</name>
									</interpolation>
								</parameter>
							</effect>
						</filter>
						<logginginfo>
							<description></description>
							<scene></scene>
							<shottake></shottake>
							<lognote></lognote>
							<good></good>
							<originalvideofilename></originalvideofilename>
							<originalaudiofilename></originalaudiofilename>
						</logginginfo>
						<colorinfo>
							<lut></lut>
							<lut1></lut1>
							<asc_sop></asc_sop>
							<asc_sat></asc_sat>
							<lut2></lut2>
						</colorinfo>
						<labels>
							<label2>Iris</label2>
						</labels>
					</clipitem>
					<transitionitem>
						<start>21463</start>
						<end>21493</end>
						<alignment>end-black</alignment>
						<cutPointTicks>317520000000</cutPointTicks>
						<rate>
							<timebase>24</timebase>
							<ntsc>FALSE</ntsc>
						</rate>
						<effect>
							<name>Cross Dissolve</name>
							<effectid>Cross Dissolve</effectid>
							<effectcategory>Dissolve</effectcategory>
							<effecttype>transition</effecttype>
							<mediatype>video</mediatype>
							<wipecode>0</wipecode>
							<wipeaccuracy>100</wipeaccuracy>
							<startratio>0</startratio>
							<endratio>1</endratio>
							<reverse>FALSE</reverse>
						</effect>
					</transitionitem>
					<transitionitem>
						<start>21493</start>
						<end>21520</end>
						<alignment>start-black</alignment>
						<cutPointTicks>0</cutPointTicks>
						<rate>
							<timebase>24</timebase>
							<ntsc>FALSE</ntsc>
						</rate>
						<effect>
							<name>Cross Dissolve</name>
							<effectid>Cross Dissolve</effectid>
							<effectcategory>Dissolve</effectcategory>
							<effecttype>transition</effecttype>
							<mediatype>video</mediatype>
							<wipecode>0</wipecode>
							<wipeaccuracy>100</wipeaccuracy>
							<startratio>0</startratio>
							<endratio>1</endratio>
							<reverse>FALSE</reverse>
						</effect>
					</transitionitem>
					<clipitem id="clipitem-218">
						<masterclipid>masterclip-101</masterclipid>
						<name>A002_05291415_C319.mp4</name>
						<enabled>TRUE</enabled>
						<duration>996</duration>
						<rate>
							<timebase>24</timebase>
							<ntsc>FALSE</ntsc>
						</rate>
						<start>-1</start>
						<end>-1</end>
						<in>370</in>
						<out>515</out>
						<pproTicksIn>3916080000000</pproTicksIn>
						<pproTicksOut>5450760000000</pproTicksOut>
						<alphatype>none</alphatype>
						<file id="file-101"/>
						<logginginfo>
							<description></description>
							<scene></scene>
							<shottake></shottake>
							<lognote></lognote>
							<good></good>
							<originalvideofilename></originalvideofilename>
							<originalaudiofilename></originalaudiofilename>
						</logginginfo>
						<colorinfo>
							<lut></lut>
							<lut1></lut1>
							<asc_sop></asc_sop>
							<asc_sat></asc_sat>
							<lut2></lut2>
						</colorinfo>
						<labels>
							<label2>Iris</label2>
						</labels>
					</clipitem>
					<transitionitem>
						<start>21608</start>
						<end>21638</end>
						<alignment>end-black</alignment>
						<cutPointTicks>317520000000</cutPointTicks>
						<rate>
							<timebase>24</timebase>
							<ntsc>FALSE</ntsc>
						</rate>
						<effect>
							<name>Cross Dissolve</name>
							<effectid>Cross Dissolve</effectid>
							<effectcategory>Dissolve</effectcategory>
							<effecttype>transition</effecttype>
							<mediatype>video</mediatype>
							<wipecode>0</wipecode>
							<wipeaccuracy>100</wipeaccuracy>
							<startratio>0</startratio>
							<endratio>1</endratio>
							<reverse>FALSE</reverse>
						</effect>
					</transitionitem>
					<transitionitem>
						<start>21638</start>
						<end>21668</end>
						<alignment>start-black</alignment>
						<cutPointTicks>0</cutPointTicks>
						<rate>
							<timebase>24</timebase>
							<ntsc>FALSE</ntsc>
						</rate>
						<effect>
							<name>Cross Dissolve</name>
							<effectid>Cross Dissolve</effectid>
							<effectcategory>Dissolve</effectcategory>
							<effecttype>transition</effecttype>
							<mediatype>video</mediatype>
							<wipecode>0</wipecode>
							<wipeaccuracy>100</wipeaccuracy>
							<startratio>0</startratio>
							<endratio>1</endratio>
							<reverse>FALSE</reverse>
						</effect>
					</transitionitem>
					<clipitem id="clipitem-219">
						<masterclipid>masterclip-103</masterclipid>
						<name>A003_05301132_C140.mp4</name>
						<enabled>TRUE</enabled>
						<duration>296</duration>
						<rate>
							<timebase>24</timebase>
							<ntsc>FALSE</ntsc>
						</rate>
						<start>-1</start>
						<end>-1</end>
						<in>98</in>
						<out>194</out>
						<pproTicksIn>1037232000000</pproTicksIn>
						<pproTicksOut>2053296000000</pproTicksOut>
						<alphatype>none</alphatype>
						<pixelaspectratio>square</pixelaspectratio>
						<anamorphic>FALSE</anamorphic>
						<file id="file-103">
							<name>A003_05301132_C140.mp4</name>
							<pathurl>file://localhost/F%3a/bengaluru%20scenes/scene%2043A/A003_05301132_C140.mp4</pathurl>
							<rate>
								<timebase>24</timebase>
								<ntsc>FALSE</ntsc>
							</rate>
							<duration>296</duration>
							<timecode>
								<rate>
									<timebase>24</timebase>
									<ntsc>FALSE</ntsc>
								</rate>
								<string>00:00:00:00</string>
								<frame>0</frame>
								<displayformat>NDF</displayformat>
							</timecode>
							<media>
								<video>
									<samplecharacteristics>
										<rate>
											<timebase>24</timebase>
											<ntsc>FALSE</ntsc>
										</rate>
										<width>1920</width>
										<height>1080</height>
										<anamorphic>FALSE</anamorphic>
										<pixelaspectratio>square</pixelaspectratio>
										<fielddominance>none</fielddominance>
									</samplecharacteristics>
								</video>
								<audio>
									<samplecharacteristics>
										<depth>16</depth>
										<samplerate>48000</samplerate>
									</samplecharacteristics>
									<channelcount>2</channelcount>
								</audio>
							</media>
						</file>
						<logginginfo>
							<description></description>
							<scene></scene>
							<shottake></shottake>
							<lognote></lognote>
							<good></good>
							<originalvideofilename></originalvideofilename>
							<originalaudiofilename></originalaudiofilename>
						</logginginfo>
						<colorinfo>
							<lut></lut>
							<lut1></lut1>
							<asc_sop></asc_sop>
							<asc_sat></asc_sat>
							<lut2></lut2>
						</colorinfo>
						<labels>
							<label2>Iris</label2>
						</labels>
					</clipitem>
					<transitionitem>
						<start>21704</start>
						<end>21734</end>
						<alignment>end-black</alignment>
						<cutPointTicks>317520000000</cutPointTicks>
						<rate>
							<timebase>24</timebase>
							<ntsc>FALSE</ntsc>
						</rate>
						<effect>
							<name>Cross Dissolve</name>
							<effectid>Cross Dissolve</effectid>
							<effectcategory>Dissolve</effectcategory>
							<effecttype>transition</effecttype>
							<mediatype>video</mediatype>
							<wipecode>0</wipecode>
							<wipeaccuracy>100</wipeaccuracy>
							<startratio>0</startratio>
							<endratio>1</endratio>
							<reverse>FALSE</reverse>
						</effect>
					</transitionitem>
					<transitionitem>
						<start>21734</start>
						<end>21764</end>
						<alignment>start-black</alignment>
						<cutPointTicks>0</cutPointTicks>
						<rate>
							<timebase>24</timebase>
							<ntsc>FALSE</ntsc>
						</rate>
						<effect>
							<name>Cross Dissolve</name>
							<effectid>Cross Dissolve</effectid>
							<effectcategory>Dissolve</effectcategory>
							<effecttype>transition</effecttype>
							<mediatype>video</mediatype>
							<wipecode>0</wipecode>
							<wipeaccuracy>100</wipeaccuracy>
							<startratio>0</startratio>
							<endratio>1</endratio>
							<reverse>FALSE</reverse>
						</effect>
					</transitionitem>
					<clipitem id="clipitem-220">
						<masterclipid>masterclip-104</masterclipid>
						<name>A002_05291427_C322.mp4</name>
						<enabled>TRUE</enabled>
						<duration>603</duration>
						<rate>
							<timebase>24</timebase>
							<ntsc>FALSE</ntsc>
						</rate>
						<start>-1</start>
						<end>-1</end>
						<in>259</in>
						<out>403</out>
						<pproTicksIn>2741256000000</pproTicksIn>
						<pproTicksOut>4265352000000</pproTicksOut>
						<alphatype>none</alphatype>
						<pixelaspectratio>square</pixelaspectratio>
						<anamorphic>FALSE</anamorphic>
						<file id="file-104">
							<name>A002_05291427_C322.mp4</name>
							<pathurl>file://localhost/F%3a/bengaluru%20scenes/scene%2043B/A002_05291427_C322.mp4</pathurl>
							<rate>
								<timebase>24</timebase>
								<ntsc>FALSE</ntsc>
							</rate>
							<duration>603</duration>
							<timecode>
								<rate>
									<timebase>24</timebase>
									<ntsc>FALSE</ntsc>
								</rate>
								<string>00:00:00:00</string>
								<frame>0</frame>
								<displayformat>NDF</displayformat>
							</timecode>
							<media>
								<video>
									<samplecharacteristics>
										<rate>
											<timebase>24</timebase>
											<ntsc>FALSE</ntsc>
										</rate>
										<width>1920</width>
										<height>1080</height>
										<anamorphic>FALSE</anamorphic>
										<pixelaspectratio>square</pixelaspectratio>
										<fielddominance>none</fielddominance>
									</samplecharacteristics>
								</video>
								<audio>
									<samplecharacteristics>
										<depth>16</depth>
										<samplerate>48000</samplerate>
									</samplecharacteristics>
									<channelcount>2</channelcount>
								</audio>
							</media>
						</file>
						<logginginfo>
							<description></description>
							<scene></scene>
							<shottake></shottake>
							<lognote></lognote>
							<good></good>
							<originalvideofilename></originalvideofilename>
							<originalaudiofilename></originalaudiofilename>
						</logginginfo>
						<colorinfo>
							<lut></lut>
							<lut1></lut1>
							<asc_sop></asc_sop>
							<asc_sat></asc_sat>
							<lut2></lut2>
						</colorinfo>
						<labels>
							<label2>Iris</label2>
						</labels>
					</clipitem>
					<transitionitem>
						<start>21848</start>
						<end>21878</end>
						<alignment>end-black</alignment>
						<cutPointTicks>317520000000</cutPointTicks>
						<rate>
							<timebase>24</timebase>
							<ntsc>FALSE</ntsc>
						</rate>
						<effect>
							<name>Cross Dissolve</name>
							<effectid>Cross Dissolve</effectid>
							<effectcategory>Dissolve</effectcategory>
							<effecttype>transition</effecttype>
							<mediatype>video</mediatype>
							<wipecode>0</wipecode>
							<wipeaccuracy>100</wipeaccuracy>
							<startratio>0</startratio>
							<endratio>1</endratio>
							<reverse>FALSE</reverse>
						</effect>
					</transitionitem>
					<transitionitem>
						<start>21878</start>
						<end>21908</end>
						<alignment>start-black</alignment>
						<cutPointTicks>0</cutPointTicks>
						<rate>
							<timebase>24</timebase>
							<ntsc>FALSE</ntsc>
						</rate>
						<effect>
							<name>Cross Dissolve</name>
							<effectid>Cross Dissolve</effectid>
							<effectcategory>Dissolve</effectcategory>
							<effecttype>transition</effecttype>
							<mediatype>video</mediatype>
							<wipecode>0</wipecode>
							<wipeaccuracy>100</wipeaccuracy>
							<startratio>0</startratio>
							<endratio>1</endratio>
							<reverse>FALSE</reverse>
						</effect>
					</transitionitem>
					<clipitem id="clipitem-221">
						<masterclipid>masterclip-105</masterclipid>
						<name>A002_05291243_C301.mp4</name>
						<enabled>TRUE</enabled>
						<duration>2250</duration>
						<rate>
							<timebase>24</timebase>
							<ntsc>FALSE</ntsc>
						</rate>
						<start>-1</start>
						<end>-1</end>
						<in>427</in>
						<out>571</out>
						<pproTicksIn>4519368000000</pproTicksIn>
						<pproTicksOut>6043464000000</pproTicksOut>
						<alphatype>none</alphatype>
						<pixelaspectratio>square</pixelaspectratio>
						<anamorphic>FALSE</anamorphic>
						<file id="file-105">
							<name>A002_05291243_C301.mp4</name>
							<pathurl>file://localhost/F%3a/bengaluru%20scenes/scene%2043A/A002_05291243_C301.mp4</pathurl>
							<rate>
								<timebase>24</timebase>
								<ntsc>FALSE</ntsc>
							</rate>
							<duration>2250</duration>
							<timecode>
								<rate>
									<timebase>24</timebase>
									<ntsc>FALSE</ntsc>
								</rate>
								<string>00:00:00:00</string>
								<frame>0</frame>
								<displayformat>NDF</displayformat>
							</timecode>
							<media>
								<video>
									<samplecharacteristics>
										<rate>
											<timebase>24</timebase>
											<ntsc>FALSE</ntsc>
										</rate>
										<width>1920</width>
										<height>1080</height>
										<anamorphic>FALSE</anamorphic>
										<pixelaspectratio>square</pixelaspectratio>
										<fielddominance>none</fielddominance>
									</samplecharacteristics>
								</video>
								<audio>
									<samplecharacteristics>
										<depth>16</depth>
										<samplerate>48000</samplerate>
									</samplecharacteristics>
									<channelcount>2</channelcount>
								</audio>
							</media>
						</file>
						<logginginfo>
							<description></description>
							<scene></scene>
							<shottake></shottake>
							<lognote></lognote>
							<good></good>
							<originalvideofilename></originalvideofilename>
							<originalaudiofilename></originalaudiofilename>
						</logginginfo>
						<colorinfo>
							<lut></lut>
							<lut1></lut1>
							<asc_sop></asc_sop>
							<asc_sat></asc_sat>
							<lut2></lut2>
						</colorinfo>
						<labels>
							<label2>Iris</label2>
						</labels>
					</clipitem>
					<transitionitem>
						<start>21992</start>
						<end>22022</end>
						<alignment>end-black</alignment>
						<cutPointTicks>317520000000</cutPointTicks>
						<rate>
							<timebase>24</timebase>
							<ntsc>FALSE</ntsc>
						</rate>
						<effect>
							<name>Cross Dissolve</name>
							<effectid>Cross Dissolve</effectid>
							<effectcategory>Dissolve</effectcategory>
							<effecttype>transition</effecttype>
							<mediatype>video</mediatype>
							<wipecode>0</wipecode>
							<wipeaccuracy>100</wipeaccuracy>
							<startratio>0</startratio>
							<endratio>1</endratio>
							<reverse>FALSE</reverse>
						</effect>
					</transitionitem>
					<transitionitem>
						<start>22022</start>
						<end>22052</end>
						<alignment>start-black</alignment>
						<cutPointTicks>0</cutPointTicks>
						<rate>
							<timebase>24</timebase>
							<ntsc>FALSE</ntsc>
						</rate>
						<effect>
							<name>Cross Dissolve</name>
							<effectid>Cross Dissolve</effectid>
							<effectcategory>Dissolve</effectcategory>
							<effecttype>transition</effecttype>
							<mediatype>video</mediatype>
							<wipecode>0</wipecode>
							<wipeaccuracy>100</wipeaccuracy>
							<startratio>0</startratio>
							<endratio>1</endratio>
							<reverse>FALSE</reverse>
						</effect>
					</transitionitem>
					<clipitem id="clipitem-222">
						<masterclipid>masterclip-106</masterclipid>
						<name>A005_10250841_C138.mp4</name>
						<enabled>TRUE</enabled>
						<duration>681</duration>
						<rate>
							<timebase>24</timebase>
							<ntsc>FALSE</ntsc>
						</rate>
						<start>-1</start>
						<end>-1</end>
						<in>270</in>
						<out>373</out>
						<pproTicksIn>2857680000000</pproTicksIn>
						<pproTicksOut>3947832000000</pproTicksOut>
						<alphatype>none</alphatype>
						<pixelaspectratio>square</pixelaspectratio>
						<anamorphic>FALSE</anamorphic>
						<file id="file-106">
							<name>A005_10250841_C138.mp4</name>
							<pathurl>file://localhost/F%3a/bengaluru%20scenes/scene%2043B/int/A005_10250841_C138.mp4</pathurl>
							<rate>
								<timebase>24</timebase>
								<ntsc>FALSE</ntsc>
							</rate>
							<duration>681</duration>
							<timecode>
								<rate>
									<timebase>24</timebase>
									<ntsc>FALSE</ntsc>
								</rate>
								<string>08:41:30:01</string>
								<frame>750961</frame>
								<displayformat>NDF</displayformat>
							</timecode>
							<media>
								<video>
									<samplecharacteristics>
										<rate>
											<timebase>24</timebase>
											<ntsc>FALSE</ntsc>
										</rate>
										<width>1920</width>
										<height>1080</height>
										<anamorphic>FALSE</anamorphic>
										<pixelaspectratio>square</pixelaspectratio>
										<fielddominance>none</fielddominance>
									</samplecharacteristics>
								</video>
								<audio>
									<samplecharacteristics>
										<depth>16</depth>
										<samplerate>48000</samplerate>
									</samplecharacteristics>
									<channelcount>2</channelcount>
								</audio>
							</media>
						</file>
						<logginginfo>
							<description></description>
							<scene></scene>
							<shottake></shottake>
							<lognote></lognote>
							<good></good>
							<originalvideofilename></originalvideofilename>
							<originalaudiofilename></originalaudiofilename>
						</logginginfo>
						<colorinfo>
							<lut></lut>
							<lut1></lut1>
							<asc_sop></asc_sop>
							<asc_sat></asc_sat>
							<lut2></lut2>
						</colorinfo>
						<labels>
							<label2>Iris</label2>
						</labels>
					</clipitem>
					<transitionitem>
						<start>22095</start>
						<end>22125</end>
						<alignment>end-black</alignment>
						<cutPointTicks>317520000000</cutPointTicks>
						<rate>
							<timebase>24</timebase>
							<ntsc>FALSE</ntsc>
						</rate>
						<effect>
							<name>Cross Dissolve</name>
							<effectid>Cross Dissolve</effectid>
							<effectcategory>Dissolve</effectcategory>
							<effecttype>transition</effecttype>
							<mediatype>video</mediatype>
							<wipecode>0</wipecode>
							<wipeaccuracy>100</wipeaccuracy>
							<startratio>0</startratio>
							<endratio>1</endratio>
							<reverse>FALSE</reverse>
						</effect>
					</transitionitem>
					<transitionitem>
						<start>22125</start>
						<end>22155</end>
						<alignment>start-black</alignment>
						<cutPointTicks>0</cutPointTicks>
						<rate>
							<timebase>24</timebase>
							<ntsc>FALSE</ntsc>
						</rate>
						<effect>
							<name>Cross Dissolve</name>
							<effectid>Cross Dissolve</effectid>
							<effectcategory>Dissolve</effectcategory>
							<effecttype>transition</effecttype>
							<mediatype>video</mediatype>
							<wipecode>0</wipecode>
							<wipeaccuracy>100</wipeaccuracy>
							<startratio>0</startratio>
							<endratio>1</endratio>
							<reverse>FALSE</reverse>
						</effect>
					</transitionitem>
					<clipitem id="clipitem-223">
						<masterclipid>masterclip-107</masterclipid>
						<name>A005_10250900_C146.mp4</name>
						<enabled>TRUE</enabled>
						<duration>1236</duration>
						<rate>
							<timebase>24</timebase>
							<ntsc>FALSE</ntsc>
						</rate>
						<start>-1</start>
						<end>22238</end>
						<in>909</in>
						<out>1022</out>
						<pproTicksIn>9620856000000</pproTicksIn>
						<pproTicksOut>10816848000000</pproTicksOut>
						<alphatype>none</alphatype>
						<pixelaspectratio>square</pixelaspectratio>
						<anamorphic>FALSE</anamorphic>
						<file id="file-107">
							<name>A005_10250900_C146.mp4</name>
							<pathurl>file://localhost/F%3a/bengaluru%20scenes/scene%2043B/int/A005_10250900_C146.mp4</pathurl>
							<rate>
								<timebase>24</timebase>
								<ntsc>FALSE</ntsc>
							</rate>
							<duration>1236</duration>
							<timecode>
								<rate>
									<timebase>24</timebase>
									<ntsc>FALSE</ntsc>
								</rate>
								<string>09:00:53:20</string>
								<frame>778892</frame>
								<displayformat>NDF</displayformat>
							</timecode>
							<media>
								<video>
									<samplecharacteristics>
										<rate>
											<timebase>24</timebase>
											<ntsc>FALSE</ntsc>
										</rate>
										<width>1920</width>
										<height>1080</height>
										<anamorphic>FALSE</anamorphic>
										<pixelaspectratio>square</pixelaspectratio>
										<fielddominance>none</fielddominance>
									</samplecharacteristics>
								</video>
								<audio>
									<samplecharacteristics>
										<depth>16</depth>
										<samplerate>48000</samplerate>
									</samplecharacteristics>
									<channelcount>2</channelcount>
								</audio>
							</media>
						</file>
						<logginginfo>
							<description></description>
							<scene></scene>
							<shottake></shottake>
							<lognote></lognote>
							<good></good>
							<originalvideofilename></originalvideofilename>
							<originalaudiofilename></originalaudiofilename>
						</logginginfo>
						<colorinfo>
							<lut></lut>
							<lut1></lut1>
							<asc_sop></asc_sop>
							<asc_sat></asc_sat>
							<lut2></lut2>
						</colorinfo>
						<labels>
							<label2>Iris</label2>
						</labels>
					</clipitem>
					<clipitem id="clipitem-224">
						<masterclipid>masterclip-108</masterclipid>
						<name>A016_11010314_C004.mp4</name>
						<enabled>TRUE</enabled>
						<duration>1431</duration>
						<rate>
							<timebase>24</timebase>
							<ntsc>FALSE</ntsc>
						</rate>
						<start>22238</start>
						<end>22394</end>
						<in>227</in>
						<out>382</out>
						<pproTicksIn>4794552000000</pproTicksIn>
						<pproTicksOut>8096760000000</pproTicksOut>
						<alphatype>none</alphatype>
						<pixelaspectratio>square</pixelaspectratio>
						<anamorphic>FALSE</anamorphic>
						<file id="file-108">
							<name>A016_11010314_C004.mp4</name>
							<pathurl>file://localhost/F%3a/After%20bengaluru%20udupi/scene%2045A/A016_11010314_C004.mp4</pathurl>
							<rate>
								<timebase>24</timebase>
								<ntsc>FALSE</ntsc>
							</rate>
							<duration>2862</duration>
							<timecode>
								<rate>
									<timebase>24</timebase>
									<ntsc>FALSE</ntsc>
								</rate>
								<string>03:14:17:19</string>
								<frame>279787</frame>
								<displayformat>NDF</displayformat>
							</timecode>
							<media>
								<video>
									<samplecharacteristics>
										<rate>
											<timebase>24</timebase>
											<ntsc>FALSE</ntsc>
										</rate>
										<width>1920</width>
										<height>1080</height>
										<anamorphic>FALSE</anamorphic>
										<pixelaspectratio>square</pixelaspectratio>
										<fielddominance>none</fielddominance>
									</samplecharacteristics>
								</video>
								<audio>
									<samplecharacteristics>
										<depth>16</depth>
										<samplerate>48000</samplerate>
									</samplecharacteristics>
									<channelcount>2</channelcount>
								</audio>
							</media>
						</file>
						<filter>
							<effect>
								<name>Time Remap</name>
								<effectid>timeremap</effectid>
								<effectcategory>motion</effectcategory>
								<effecttype>motion</effecttype>
								<mediatype>video</mediatype>
								<parameter authoringApp="PremierePro">
									<parameterid>variablespeed</parameterid>
									<name>variablespeed</name>
									<valuemin>0</valuemin>
									<valuemax>1</valuemax>
									<value>0</value>
								</parameter>
								<parameter authoringApp="PremierePro">
									<parameterid>speed</parameterid>
									<name>speed</name>
									<valuemin>-100000</valuemin>
									<valuemax>100000</valuemax>
									<value>200</value>
								</parameter>
								<parameter authoringApp="PremierePro">
									<parameterid>reverse</parameterid>
									<name>reverse</name>
									<value>FALSE</value>
								</parameter>
								<parameter authoringApp="PremierePro">
									<parameterid>frameblending</parameterid>
									<name>frameblending</name>
									<value>FALSE</value>
								</parameter>
								<parameter authoringApp="PremierePro">
									<parameterid>graphdict</parameterid>
									<name>graphdict</name>
									<valuemin>0</valuemin>
									<valuemax>2862</valuemax>
									<value>0</value>
									<keyframe>
										<when>0</when>
										<value>0</value>
										<speedvirtualkf>TRUE</speedvirtualkf>
										<speedkfstart>TRUE</speedkfstart>
									</keyframe>
									<keyframe>
										<when>227</when>
										<value>454</value>
										<speedvirtualkf>TRUE</speedvirtualkf>
										<speedkfin>TRUE</speedkfin>
									</keyframe>
									<keyframe>
										<when>382</when>
										<value>764</value>
										<speedvirtualkf>TRUE</speedvirtualkf>
										<speedkfout>TRUE</speedkfout>
									</keyframe>
									<keyframe>
										<when>1431</when>
										<value>2862</value>
										<speedvirtualkf>TRUE</speedvirtualkf>
										<speedkfend>TRUE</speedkfend>
									</keyframe>
									<interpolation>
										<name>FCPCurve</name>
									</interpolation>
								</parameter>
							</effect>
						</filter>
						<logginginfo>
							<description></description>
							<scene></scene>
							<shottake></shottake>
							<lognote></lognote>
							<good></good>
							<originalvideofilename></originalvideofilename>
							<originalaudiofilename></originalaudiofilename>
						</logginginfo>
						<colorinfo>
							<lut></lut>
							<lut1></lut1>
							<asc_sop></asc_sop>
							<asc_sat></asc_sat>
							<lut2></lut2>
						</colorinfo>
						<labels>
							<label2>Iris</label2>
						</labels>
					</clipitem>
					<clipitem id="clipitem-225">
						<masterclipid>masterclip-109</masterclipid>
						<name>A008_10280532_C038.mp4</name>
						<enabled>TRUE</enabled>
						<duration>1656</duration>
						<rate>
							<timebase>24</timebase>
							<ntsc>FALSE</ntsc>
						</rate>
						<start>22394</start>
						<end>22586</end>
						<in>218</in>
						<out>410</out>
						<pproTicksIn>2307312000000</pproTicksIn>
						<pproTicksOut>4339440000000</pproTicksOut>
						<alphatype>none</alphatype>
						<pixelaspectratio>square</pixelaspectratio>
						<anamorphic>FALSE</anamorphic>
						<file id="file-109">
							<name>A008_10280532_C038.mp4</name>
							<pathurl>file://localhost/F%3a/After%20bengaluru%20udupi/scene%2046/A008_10280532_C038.mp4</pathurl>
							<rate>
								<timebase>24</timebase>
								<ntsc>FALSE</ntsc>
							</rate>
							<duration>1656</duration>
							<timecode>
								<rate>
									<timebase>24</timebase>
									<ntsc>FALSE</ntsc>
								</rate>
								<string>05:32:57:16</string>
								<frame>479464</frame>
								<displayformat>NDF</displayformat>
							</timecode>
							<media>
								<video>
									<samplecharacteristics>
										<rate>
											<timebase>24</timebase>
											<ntsc>FALSE</ntsc>
										</rate>
										<width>1920</width>
										<height>1080</height>
										<anamorphic>FALSE</anamorphic>
										<pixelaspectratio>square</pixelaspectratio>
										<fielddominance>none</fielddominance>
									</samplecharacteristics>
								</video>
								<audio>
									<samplecharacteristics>
										<depth>16</depth>
										<samplerate>48000</samplerate>
									</samplecharacteristics>
									<channelcount>2</channelcount>
								</audio>
							</media>
						</file>
						<link>
							<linkclipref>clipitem-225</linkclipref>
							<mediatype>video</mediatype>
							<trackindex>1</trackindex>
							<clipindex>269</clipindex>
						</link>
						<link>
							<linkclipref>clipitem-608</linkclipref>
							<mediatype>audio</mediatype>
							<trackindex>1</trackindex>
							<clipindex>132</clipindex>
							<groupindex>1</groupindex>
						</link>
						<link>
							<linkclipref>clipitem-772</linkclipref>
							<mediatype>audio</mediatype>
							<trackindex>2</trackindex>
							<clipindex>132</clipindex>
							<groupindex>1</groupindex>
						</link>
						<logginginfo>
							<description></description>
							<scene></scene>
							<shottake></shottake>
							<lognote></lognote>
							<good></good>
							<originalvideofilename></originalvideofilename>
							<originalaudiofilename></originalaudiofilename>
						</logginginfo>
						<colorinfo>
							<lut></lut>
							<lut1></lut1>
							<asc_sop></asc_sop>
							<asc_sat></asc_sat>
							<lut2></lut2>
						</colorinfo>
						<labels>
							<label2>Iris</label2>
						</labels>
					</clipitem>
					<clipitem id="clipitem-226">
						<masterclipid>masterclip-109</masterclipid>
						<name>A008_10280532_C038.mp4</name>
						<enabled>TRUE</enabled>
						<duration>1656</duration>
						<rate>
							<timebase>24</timebase>
							<ntsc>FALSE</ntsc>
						</rate>
						<start>22586</start>
						<end>22635</end>
						<in>410</in>
						<out>459</out>
						<pproTicksIn>4339440000000</pproTicksIn>
						<pproTicksOut>4858056000000</pproTicksOut>
						<alphatype>none</alphatype>
						<file id="file-109"/>
						<link>
							<linkclipref>clipitem-226</linkclipref>
							<mediatype>video</mediatype>
							<trackindex>1</trackindex>
							<clipindex>270</clipindex>
						</link>
						<link>
							<linkclipref>clipitem-609</linkclipref>
							<mediatype>audio</mediatype>
							<trackindex>1</trackindex>
							<clipindex>133</clipindex>
							<groupindex>1</groupindex>
						</link>
						<link>
							<linkclipref>clipitem-773</linkclipref>
							<mediatype>audio</mediatype>
							<trackindex>2</trackindex>
							<clipindex>133</clipindex>
							<groupindex>1</groupindex>
						</link>
						<logginginfo>
							<description></description>
							<scene></scene>
							<shottake></shottake>
							<lognote></lognote>
							<good></good>
							<originalvideofilename></originalvideofilename>
							<originalaudiofilename></originalaudiofilename>
						</logginginfo>
						<colorinfo>
							<lut></lut>
							<lut1></lut1>
							<asc_sop></asc_sop>
							<asc_sat></asc_sat>
							<lut2></lut2>
						</colorinfo>
						<labels>
							<label2>Iris</label2>
						</labels>
					</clipitem>
					<clipitem id="clipitem-227">
						<masterclipid>masterclip-110</masterclipid>
						<name>A008_10280608_C051.mp4</name>
						<enabled>TRUE</enabled>
						<duration>1519</duration>
						<rate>
							<timebase>24</timebase>
							<ntsc>FALSE</ntsc>
						</rate>
						<start>22635</start>
						<end>22704</end>
						<in>222</in>
						<out>291</out>
						<pproTicksIn>2349648000000</pproTicksIn>
						<pproTicksOut>3079944000000</pproTicksOut>
						<alphatype>none</alphatype>
						<pixelaspectratio>square</pixelaspectratio>
						<anamorphic>FALSE</anamorphic>
						<file id="file-110">
							<name>A008_10280608_C051.mp4</name>
							<pathurl>file://localhost/F%3a/After%20bengaluru%20udupi/scene%2046/A008_10280608_C051.mp4</pathurl>
							<rate>
								<timebase>24</timebase>
								<ntsc>FALSE</ntsc>
							</rate>
							<duration>1519</duration>
							<timecode>
								<rate>
									<timebase>24</timebase>
									<ntsc>FALSE</ntsc>
								</rate>
								<string>06:08:45:10</string>
								<frame>531010</frame>
								<displayformat>NDF</displayformat>
							</timecode>
							<media>
								<video>
									<samplecharacteristics>
										<rate>
											<timebase>24</timebase>
											<ntsc>FALSE</ntsc>
										</rate>
										<width>1920</width>
										<height>1080</height>
										<anamorphic>FALSE</anamorphic>
										<pixelaspectratio>square</pixelaspectratio>
										<fielddominance>none</fielddominance>
									</samplecharacteristics>
								</video>
								<audio>
									<samplecharacteristics>
										<depth>16</depth>
										<samplerate>48000</samplerate>
									</samplecharacteristics>
									<channelcount>2</channelcount>
								</audio>
							</media>
						</file>
						<logginginfo>
							<description></description>
							<scene></scene>
							<shottake></shottake>
							<lognote></lognote>
							<good></good>
							<originalvideofilename></originalvideofilename>
							<originalaudiofilename></originalaudiofilename>
						</logginginfo>
						<colorinfo>
							<lut></lut>
							<lut1></lut1>
							<asc_sop></asc_sop>
							<asc_sat></asc_sat>
							<lut2></lut2>
						</colorinfo>
						<labels>
							<label2>Iris</label2>
						</labels>
					</clipitem>
					<clipitem id="clipitem-228">
						<masterclipid>masterclip-109</masterclipid>
						<name>A008_10280532_C038.mp4</name>
						<enabled>TRUE</enabled>
						<duration>1656</duration>
						<rate>
							<timebase>24</timebase>
							<ntsc>FALSE</ntsc>
						</rate>
						<start>22704</start>
						<end>22787</end>
						<in>509</in>
						<out>592</out>
						<pproTicksIn>5387256000000</pproTicksIn>
						<pproTicksOut>6265728000000</pproTicksOut>
						<alphatype>none</alphatype>
						<file id="file-109"/>
						<link>
							<linkclipref>clipitem-228</linkclipref>
							<mediatype>video</mediatype>
							<trackindex>1</trackindex>
							<clipindex>272</clipindex>
						</link>
						<link>
							<linkclipref>clipitem-611</linkclipref>
							<mediatype>audio</mediatype>
							<trackindex>1</trackindex>
							<clipindex>135</clipindex>
							<groupindex>1</groupindex>
						</link>
						<link>
							<linkclipref>clipitem-775</linkclipref>
							<mediatype>audio</mediatype>
							<trackindex>2</trackindex>
							<clipindex>135</clipindex>
							<groupindex>1</groupindex>
						</link>
						<logginginfo>
							<description></description>
							<scene></scene>
							<shottake></shottake>
							<lognote></lognote>
							<good></good>
							<originalvideofilename></originalvideofilename>
							<originalaudiofilename></originalaudiofilename>
						</logginginfo>
						<colorinfo>
							<lut></lut>
							<lut1></lut1>
							<asc_sop></asc_sop>
							<asc_sat></asc_sat>
							<lut2></lut2>
						</colorinfo>
						<labels>
							<label2>Iris</label2>
						</labels>
					</clipitem>
					<clipitem id="clipitem-229">
						<masterclipid>masterclip-110</masterclipid>
						<name>A008_10280608_C051.mp4</name>
						<enabled>TRUE</enabled>
						<duration>1519</duration>
						<rate>
							<timebase>24</timebase>
							<ntsc>FALSE</ntsc>
						</rate>
						<start>22787</start>
						<end>22828</end>
						<in>365</in>
						<out>406</out>
						<pproTicksIn>3863160000000</pproTicksIn>
						<pproTicksOut>4297104000000</pproTicksOut>
						<alphatype>none</alphatype>
						<file id="file-110"/>
						<link>
							<linkclipref>clipitem-229</linkclipref>
							<mediatype>video</mediatype>
							<trackindex>1</trackindex>
							<clipindex>273</clipindex>
						</link>
						<link>
							<linkclipref>clipitem-612</linkclipref>
							<mediatype>audio</mediatype>
							<trackindex>1</trackindex>
							<clipindex>136</clipindex>
							<groupindex>1</groupindex>
						</link>
						<link>
							<linkclipref>clipitem-776</linkclipref>
							<mediatype>audio</mediatype>
							<trackindex>2</trackindex>
							<clipindex>136</clipindex>
							<groupindex>1</groupindex>
						</link>
						<logginginfo>
							<description></description>
							<scene></scene>
							<shottake></shottake>
							<lognote></lognote>
							<good></good>
							<originalvideofilename></originalvideofilename>
							<originalaudiofilename></originalaudiofilename>
						</logginginfo>
						<colorinfo>
							<lut></lut>
							<lut1></lut1>
							<asc_sop></asc_sop>
							<asc_sat></asc_sat>
							<lut2></lut2>
						</colorinfo>
						<labels>
							<label2>Iris</label2>
						</labels>
					</clipitem>
					<clipitem id="clipitem-230">
						<masterclipid>masterclip-109</masterclipid>
						<name>A008_10280532_C038.mp4</name>
						<enabled>TRUE</enabled>
						<duration>1656</duration>
						<rate>
							<timebase>24</timebase>
							<ntsc>FALSE</ntsc>
						</rate>
						<start>22828</start>
						<end>22967</end>
						<in>623</in>
						<out>762</out>
						<pproTicksIn>6593832000000</pproTicksIn>
						<pproTicksOut>8065008000000</pproTicksOut>
						<alphatype>none</alphatype>
						<file id="file-109"/>
						<link>
							<linkclipref>clipitem-230</linkclipref>
							<mediatype>video</mediatype>
							<trackindex>1</trackindex>
							<clipindex>274</clipindex>
						</link>
						<link>
							<linkclipref>clipitem-613</linkclipref>
							<mediatype>audio</mediatype>
							<trackindex>1</trackindex>
							<clipindex>137</clipindex>
							<groupindex>1</groupindex>
						</link>
						<link>
							<linkclipref>clipitem-777</linkclipref>
							<mediatype>audio</mediatype>
							<trackindex>2</trackindex>
							<clipindex>137</clipindex>
							<groupindex>1</groupindex>
						</link>
						<logginginfo>
							<description></description>
							<scene></scene>
							<shottake></shottake>
							<lognote></lognote>
							<good></good>
							<originalvideofilename></originalvideofilename>
							<originalaudiofilename></originalaudiofilename>
						</logginginfo>
						<colorinfo>
							<lut></lut>
							<lut1></lut1>
							<asc_sop></asc_sop>
							<asc_sat></asc_sat>
							<lut2></lut2>
						</colorinfo>
						<labels>
							<label2>Iris</label2>
						</labels>
					</clipitem>
					<clipitem id="clipitem-231">
						<masterclipid>masterclip-110</masterclipid>
						<name>A008_10280608_C051.mp4</name>
						<enabled>TRUE</enabled>
						<duration>1519</duration>
						<rate>
							<timebase>24</timebase>
							<ntsc>FALSE</ntsc>
						</rate>
						<start>22967</start>
						<end>23000</end>
						<in>515</in>
						<out>548</out>
						<pproTicksIn>5450760000000</pproTicksIn>
						<pproTicksOut>5800032000000</pproTicksOut>
						<alphatype>none</alphatype>
						<file id="file-110"/>
						<link>
							<linkclipref>clipitem-231</linkclipref>
							<mediatype>video</mediatype>
							<trackindex>1</trackindex>
							<clipindex>275</clipindex>
						</link>
						<link>
							<linkclipref>clipitem-614</linkclipref>
							<mediatype>audio</mediatype>
							<trackindex>1</trackindex>
							<clipindex>138</clipindex>
							<groupindex>1</groupindex>
						</link>
						<link>
							<linkclipref>clipitem-778</linkclipref>
							<mediatype>audio</mediatype>
							<trackindex>2</trackindex>
							<clipindex>138</clipindex>
							<groupindex>1</groupindex>
						</link>
						<logginginfo>
							<description></description>
							<scene></scene>
							<shottake></shottake>
							<lognote></lognote>
							<good></good>
							<originalvideofilename></originalvideofilename>
							<originalaudiofilename></originalaudiofilename>
						</logginginfo>
						<colorinfo>
							<lut></lut>
							<lut1></lut1>
							<asc_sop></asc_sop>
							<asc_sat></asc_sat>
							<lut2></lut2>
						</colorinfo>
						<labels>
							<label2>Iris</label2>
						</labels>
					</clipitem>
					<clipitem id="clipitem-232">
						<masterclipid>masterclip-109</masterclipid>
						<name>A008_10280532_C038.mp4</name>
						<enabled>TRUE</enabled>
						<duration>1656</duration>
						<rate>
							<timebase>24</timebase>
							<ntsc>FALSE</ntsc>
						</rate>
						<start>23000</start>
						<end>23024</end>
						<in>782</in>
						<out>806</out>
						<pproTicksIn>8276688000000</pproTicksIn>
						<pproTicksOut>8530704000000</pproTicksOut>
						<alphatype>none</alphatype>
						<file id="file-109"/>
						<link>
							<linkclipref>clipitem-232</linkclipref>
							<mediatype>video</mediatype>
							<trackindex>1</trackindex>
							<clipindex>276</clipindex>
						</link>
						<link>
							<linkclipref>clipitem-615</linkclipref>
							<mediatype>audio</mediatype>
							<trackindex>1</trackindex>
							<clipindex>139</clipindex>
							<groupindex>1</groupindex>
						</link>
						<link>
							<linkclipref>clipitem-779</linkclipref>
							<mediatype>audio</mediatype>
							<trackindex>2</trackindex>
							<clipindex>139</clipindex>
							<groupindex>1</groupindex>
						</link>
						<logginginfo>
							<description></description>
							<scene></scene>
							<shottake></shottake>
							<lognote></lognote>
							<good></good>
							<originalvideofilename></originalvideofilename>
							<originalaudiofilename></originalaudiofilename>
						</logginginfo>
						<colorinfo>
							<lut></lut>
							<lut1></lut1>
							<asc_sop></asc_sop>
							<asc_sat></asc_sat>
							<lut2></lut2>
						</colorinfo>
						<labels>
							<label2>Iris</label2>
						</labels>
					</clipitem>
					<clipitem id="clipitem-233">
						<masterclipid>masterclip-109</masterclipid>
						<name>A008_10280532_C038.mp4</name>
						<enabled>TRUE</enabled>
						<duration>1656</duration>
						<rate>
							<timebase>24</timebase>
							<ntsc>FALSE</ntsc>
						</rate>
						<start>23024</start>
						<end>23031</end>
						<in>806</in>
						<out>813</out>
						<pproTicksIn>8530704000000</pproTicksIn>
						<pproTicksOut>8604792000000</pproTicksOut>
						<alphatype>none</alphatype>
						<file id="file-109"/>
						<link>
							<linkclipref>clipitem-233</linkclipref>
							<mediatype>video</mediatype>
							<trackindex>1</trackindex>
							<clipindex>277</clipindex>
						</link>
						<link>
							<linkclipref>clipitem-616</linkclipref>
							<mediatype>audio</mediatype>
							<trackindex>1</trackindex>
							<clipindex>140</clipindex>
							<groupindex>1</groupindex>
						</link>
						<link>
							<linkclipref>clipitem-780</linkclipref>
							<mediatype>audio</mediatype>
							<trackindex>2</trackindex>
							<clipindex>140</clipindex>
							<groupindex>1</groupindex>
						</link>
						<logginginfo>
							<description></description>
							<scene></scene>
							<shottake></shottake>
							<lognote></lognote>
							<good></good>
							<originalvideofilename></originalvideofilename>
							<originalaudiofilename></originalaudiofilename>
						</logginginfo>
						<colorinfo>
							<lut></lut>
							<lut1></lut1>
							<asc_sop></asc_sop>
							<asc_sat></asc_sat>
							<lut2></lut2>
						</colorinfo>
						<labels>
							<label2>Iris</label2>
						</labels>
					</clipitem>
					<clipitem id="clipitem-234">
						<masterclipid>masterclip-109</masterclipid>
						<name>A008_10280532_C038.mp4</name>
						<enabled>FALSE</enabled>
						<duration>1656</duration>
						<rate>
							<timebase>24</timebase>
							<ntsc>FALSE</ntsc>
						</rate>
						<start>23031</start>
						<end>23056</end>
						<in>813</in>
						<out>838</out>
						<pproTicksIn>8604792000000</pproTicksIn>
						<pproTicksOut>8869392000000</pproTicksOut>
						<alphatype>none</alphatype>
						<file id="file-109"/>
						<link>
							<linkclipref>clipitem-234</linkclipref>
							<mediatype>video</mediatype>
							<trackindex>1</trackindex>
							<clipindex>278</clipindex>
						</link>
						<link>
							<linkclipref>clipitem-617</linkclipref>
							<mediatype>audio</mediatype>
							<trackindex>1</trackindex>
							<clipindex>141</clipindex>
							<groupindex>1</groupindex>
						</link>
						<link>
							<linkclipref>clipitem-781</linkclipref>
							<mediatype>audio</mediatype>
							<trackindex>2</trackindex>
							<clipindex>141</clipindex>
							<groupindex>1</groupindex>
						</link>
						<logginginfo>
							<description></description>
							<scene></scene>
							<shottake></shottake>
							<lognote></lognote>
							<good></good>
							<originalvideofilename></originalvideofilename>
							<originalaudiofilename></originalaudiofilename>
						</logginginfo>
						<colorinfo>
							<lut></lut>
							<lut1></lut1>
							<asc_sop></asc_sop>
							<asc_sat></asc_sat>
							<lut2></lut2>
						</colorinfo>
						<labels>
							<label2>Iris</label2>
						</labels>
					</clipitem>
					<clipitem id="clipitem-235">
						<masterclipid>masterclip-109</masterclipid>
						<name>A008_10280532_C038.mp4</name>
						<enabled>TRUE</enabled>
						<duration>1656</duration>
						<rate>
							<timebase>24</timebase>
							<ntsc>FALSE</ntsc>
						</rate>
						<start>23056</start>
						<end>23073</end>
						<in>838</in>
						<out>855</out>
						<pproTicksIn>8869392000000</pproTicksIn>
						<pproTicksOut>9049320000000</pproTicksOut>
						<alphatype>none</alphatype>
						<file id="file-109"/>
						<link>
							<linkclipref>clipitem-235</linkclipref>
							<mediatype>video</mediatype>
							<trackindex>1</trackindex>
							<clipindex>279</clipindex>
						</link>
						<link>
							<linkclipref>clipitem-618</linkclipref>
							<mediatype>audio</mediatype>
							<trackindex>1</trackindex>
							<clipindex>142</clipindex>
							<groupindex>1</groupindex>
						</link>
						<link>
							<linkclipref>clipitem-782</linkclipref>
							<mediatype>audio</mediatype>
							<trackindex>2</trackindex>
							<clipindex>142</clipindex>
							<groupindex>1</groupindex>
						</link>
						<logginginfo>
							<description></description>
							<scene></scene>
							<shottake></shottake>
							<lognote></lognote>
							<good></good>
							<originalvideofilename></originalvideofilename>
							<originalaudiofilename></originalaudiofilename>
						</logginginfo>
						<colorinfo>
							<lut></lut>
							<lut1></lut1>
							<asc_sop></asc_sop>
							<asc_sat></asc_sat>
							<lut2></lut2>
						</colorinfo>
						<labels>
							<label2>Iris</label2>
						</labels>
					</clipitem>
					<clipitem id="clipitem-236">
						<masterclipid>masterclip-109</masterclipid>
						<name>A008_10280532_C038.mp4</name>
						<enabled>FALSE</enabled>
						<duration>1656</duration>
						<rate>
							<timebase>24</timebase>
							<ntsc>FALSE</ntsc>
						</rate>
						<start>23073</start>
						<end>23091</end>
						<in>855</in>
						<out>873</out>
						<pproTicksIn>9049320000000</pproTicksIn>
						<pproTicksOut>9239832000000</pproTicksOut>
						<alphatype>none</alphatype>
						<file id="file-109"/>
						<link>
							<linkclipref>clipitem-236</linkclipref>
							<mediatype>video</mediatype>
							<trackindex>1</trackindex>
							<clipindex>280</clipindex>
						</link>
						<link>
							<linkclipref>clipitem-619</linkclipref>
							<mediatype>audio</mediatype>
							<trackindex>1</trackindex>
							<clipindex>143</clipindex>
							<groupindex>1</groupindex>
						</link>
						<link>
							<linkclipref>clipitem-783</linkclipref>
							<mediatype>audio</mediatype>
							<trackindex>2</trackindex>
							<clipindex>143</clipindex>
							<groupindex>1</groupindex>
						</link>
						<logginginfo>
							<description></description>
							<scene></scene>
							<shottake></shottake>
							<lognote></lognote>
							<good></good>
							<originalvideofilename></originalvideofilename>
							<originalaudiofilename></originalaudiofilename>
						</logginginfo>
						<colorinfo>
							<lut></lut>
							<lut1></lut1>
							<asc_sop></asc_sop>
							<asc_sat></asc_sat>
							<lut2></lut2>
						</colorinfo>
						<labels>
							<label2>Iris</label2>
						</labels>
					</clipitem>
					<clipitem id="clipitem-237">
						<masterclipid>masterclip-109</masterclipid>
						<name>A008_10280532_C038.mp4</name>
						<enabled>TRUE</enabled>
						<duration>1656</duration>
						<rate>
							<timebase>24</timebase>
							<ntsc>FALSE</ntsc>
						</rate>
						<start>23091</start>
						<end>23111</end>
						<in>873</in>
						<out>893</out>
						<pproTicksIn>9239832000000</pproTicksIn>
						<pproTicksOut>9451512000000</pproTicksOut>
						<alphatype>none</alphatype>
						<file id="file-109"/>
						<link>
							<linkclipref>clipitem-237</linkclipref>
							<mediatype>video</mediatype>
							<trackindex>1</trackindex>
							<clipindex>281</clipindex>
						</link>
						<link>
							<linkclipref>clipitem-620</linkclipref>
							<mediatype>audio</mediatype>
							<trackindex>1</trackindex>
							<clipindex>144</clipindex>
							<groupindex>1</groupindex>
						</link>
						<link>
							<linkclipref>clipitem-784</linkclipref>
							<mediatype>audio</mediatype>
							<trackindex>2</trackindex>
							<clipindex>144</clipindex>
							<groupindex>1</groupindex>
						</link>
						<logginginfo>
							<description></description>
							<scene></scene>
							<shottake></shottake>
							<lognote></lognote>
							<good></good>
							<originalvideofilename></originalvideofilename>
							<originalaudiofilename></originalaudiofilename>
						</logginginfo>
						<colorinfo>
							<lut></lut>
							<lut1></lut1>
							<asc_sop></asc_sop>
							<asc_sat></asc_sat>
							<lut2></lut2>
						</colorinfo>
						<labels>
							<label2>Iris</label2>
						</labels>
					</clipitem>
					<clipitem id="clipitem-238">
						<masterclipid>masterclip-109</masterclipid>
						<name>A008_10280532_C038.mp4</name>
						<enabled>FALSE</enabled>
						<duration>1656</duration>
						<rate>
							<timebase>24</timebase>
							<ntsc>FALSE</ntsc>
						</rate>
						<start>23111</start>
						<end>23134</end>
						<in>893</in>
						<out>916</out>
						<pproTicksIn>9451512000000</pproTicksIn>
						<pproTicksOut>9694944000000</pproTicksOut>
						<alphatype>none</alphatype>
						<file id="file-109"/>
						<logginginfo>
							<description></description>
							<scene></scene>
							<shottake></shottake>
							<lognote></lognote>
							<good></good>
							<originalvideofilename></originalvideofilename>
							<originalaudiofilename></originalaudiofilename>
						</logginginfo>
						<colorinfo>
							<lut></lut>
							<lut1></lut1>
							<asc_sop></asc_sop>
							<asc_sat></asc_sat>
							<lut2></lut2>
						</colorinfo>
						<labels>
							<label2>Iris</label2>
						</labels>
					</clipitem>
					<clipitem id="clipitem-239">
						<masterclipid>masterclip-109</masterclipid>
						<name>A008_10280532_C038.mp4</name>
						<enabled>TRUE</enabled>
						<duration>1656</duration>
						<rate>
							<timebase>24</timebase>
							<ntsc>FALSE</ntsc>
						</rate>
						<start>23134</start>
						<end>23144</end>
						<in>916</in>
						<out>926</out>
						<pproTicksIn>9694944000000</pproTicksIn>
						<pproTicksOut>9800784000000</pproTicksOut>
						<alphatype>none</alphatype>
						<file id="file-109"/>
						<logginginfo>
							<description></description>
							<scene></scene>
							<shottake></shottake>
							<lognote></lognote>
							<good></good>
							<originalvideofilename></originalvideofilename>
							<originalaudiofilename></originalaudiofilename>
						</logginginfo>
						<colorinfo>
							<lut></lut>
							<lut1></lut1>
							<asc_sop></asc_sop>
							<asc_sat></asc_sat>
							<lut2></lut2>
						</colorinfo>
						<labels>
							<label2>Iris</label2>
						</labels>
					</clipitem>
					<clipitem id="clipitem-240">
						<masterclipid>masterclip-109</masterclipid>
						<name>A008_10280532_C038.mp4</name>
						<enabled>FALSE</enabled>
						<duration>1656</duration>
						<rate>
							<timebase>24</timebase>
							<ntsc>FALSE</ntsc>
						</rate>
						<start>23144</start>
						<end>23162</end>
						<in>926</in>
						<out>944</out>
						<pproTicksIn>9800784000000</pproTicksIn>
						<pproTicksOut>9991296000000</pproTicksOut>
						<alphatype>none</alphatype>
						<file id="file-109"/>
						<logginginfo>
							<description></description>
							<scene></scene>
							<shottake></shottake>
							<lognote></lognote>
							<good></good>
							<originalvideofilename></originalvideofilename>
							<originalaudiofilename></originalaudiofilename>
						</logginginfo>
						<colorinfo>
							<lut></lut>
							<lut1></lut1>
							<asc_sop></asc_sop>
							<asc_sat></asc_sat>
							<lut2></lut2>
						</colorinfo>
						<labels>
							<label2>Iris</label2>
						</labels>
					</clipitem>
					<clipitem id="clipitem-241">
						<masterclipid>masterclip-109</masterclipid>
						<name>A008_10280532_C038.mp4</name>
						<enabled>TRUE</enabled>
						<duration>1656</duration>
						<rate>
							<timebase>24</timebase>
							<ntsc>FALSE</ntsc>
						</rate>
						<start>23162</start>
						<end>23226</end>
						<in>944</in>
						<out>1008</out>
						<pproTicksIn>9991296000000</pproTicksIn>
						<pproTicksOut>10668672000000</pproTicksOut>
						<alphatype>none</alphatype>
						<file id="file-109"/>
						<logginginfo>
							<description></description>
							<scene></scene>
							<shottake></shottake>
							<lognote></lognote>
							<good></good>
							<originalvideofilename></originalvideofilename>
							<originalaudiofilename></originalaudiofilename>
						</logginginfo>
						<colorinfo>
							<lut></lut>
							<lut1></lut1>
							<asc_sop></asc_sop>
							<asc_sat></asc_sat>
							<lut2></lut2>
						</colorinfo>
						<labels>
							<label2>Iris</label2>
						</labels>
					</clipitem>
					<clipitem id="clipitem-242">
						<masterclipid>masterclip-110</masterclipid>
						<name>A008_10280608_C051.mp4</name>
						<enabled>TRUE</enabled>
						<duration>1519</duration>
						<rate>
							<timebase>24</timebase>
							<ntsc>FALSE</ntsc>
						</rate>
						<start>23226</start>
						<end>23298</end>
						<in>770</in>
						<out>842</out>
						<pproTicksIn>8149680000000</pproTicksIn>
						<pproTicksOut>8911728000000</pproTicksOut>
						<alphatype>none</alphatype>
						<file id="file-110"/>
						<link>
							<linkclipref>clipitem-242</linkclipref>
							<mediatype>video</mediatype>
							<trackindex>1</trackindex>
							<clipindex>286</clipindex>
						</link>
						<link>
							<linkclipref>clipitem-621</linkclipref>
							<mediatype>audio</mediatype>
							<trackindex>1</trackindex>
							<clipindex>145</clipindex>
							<groupindex>1</groupindex>
						</link>
						<link>
							<linkclipref>clipitem-785</linkclipref>
							<mediatype>audio</mediatype>
							<trackindex>2</trackindex>
							<clipindex>145</clipindex>
							<groupindex>1</groupindex>
						</link>
						<logginginfo>
							<description></description>
							<scene></scene>
							<shottake></shottake>
							<lognote></lognote>
							<good></good>
							<originalvideofilename></originalvideofilename>
							<originalaudiofilename></originalaudiofilename>
						</logginginfo>
						<colorinfo>
							<lut></lut>
							<lut1></lut1>
							<asc_sop></asc_sop>
							<asc_sat></asc_sat>
							<lut2></lut2>
						</colorinfo>
						<labels>
							<label2>Iris</label2>
						</labels>
					</clipitem>
					<clipitem id="clipitem-243">
						<masterclipid>masterclip-109</masterclipid>
						<name>A008_10280532_C038.mp4</name>
						<enabled>TRUE</enabled>
						<duration>1656</duration>
						<rate>
							<timebase>24</timebase>
							<ntsc>FALSE</ntsc>
						</rate>
						<start>23298</start>
						<end>23389</end>
						<in>1053</in>
						<out>1144</out>
						<pproTicksIn>11144952000000</pproTicksIn>
						<pproTicksOut>12108096000000</pproTicksOut>
						<alphatype>none</alphatype>
						<file id="file-109"/>
						<link>
							<linkclipref>clipitem-243</linkclipref>
							<mediatype>video</mediatype>
							<trackindex>1</trackindex>
							<clipindex>287</clipindex>
						</link>
						<link>
							<linkclipref>clipitem-622</linkclipref>
							<mediatype>audio</mediatype>
							<trackindex>1</trackindex>
							<clipindex>146</clipindex>
							<groupindex>1</groupindex>
						</link>
						<link>
							<linkclipref>clipitem-786</linkclipref>
							<mediatype>audio</mediatype>
							<trackindex>2</trackindex>
							<clipindex>146</clipindex>
							<groupindex>1</groupindex>
						</link>
						<logginginfo>
							<description></description>
							<scene></scene>
							<shottake></shottake>
							<lognote></lognote>
							<good></good>
							<originalvideofilename></originalvideofilename>
							<originalaudiofilename></originalaudiofilename>
						</logginginfo>
						<colorinfo>
							<lut></lut>
							<lut1></lut1>
							<asc_sop></asc_sop>
							<asc_sat></asc_sat>
							<lut2></lut2>
						</colorinfo>
						<labels>
							<label2>Iris</label2>
						</labels>
					</clipitem>
					<clipitem id="clipitem-244">
						<masterclipid>masterclip-111</masterclipid>
						<name>A008_10280614_C052.mp4</name>
						<enabled>TRUE</enabled>
						<duration>782</duration>
						<rate>
							<timebase>24</timebase>
							<ntsc>FALSE</ntsc>
						</rate>
						<start>23389</start>
						<end>23483</end>
						<in>252</in>
						<out>346</out>
						<pproTicksIn>2667168000000</pproTicksIn>
						<pproTicksOut>3662064000000</pproTicksOut>
						<alphatype>none</alphatype>
						<pixelaspectratio>square</pixelaspectratio>
						<anamorphic>FALSE</anamorphic>
						<file id="file-111">
							<name>A008_10280614_C052.mp4</name>
							<pathurl>file://localhost/F%3a/After%20bengaluru%20udupi/scene%2046/A008_10280614_C052.mp4</pathurl>
							<rate>
								<timebase>24</timebase>
								<ntsc>FALSE</ntsc>
							</rate>
							<duration>782</duration>
							<timecode>
								<rate>
									<timebase>24</timebase>
									<ntsc>FALSE</ntsc>
								</rate>
								<string>06:14:00:05</string>
								<frame>538565</frame>
								<displayformat>NDF</displayformat>
							</timecode>
							<media>
								<video>
									<samplecharacteristics>
										<rate>
											<timebase>24</timebase>
											<ntsc>FALSE</ntsc>
										</rate>
										<width>1920</width>
										<height>1080</height>
										<anamorphic>FALSE</anamorphic>
										<pixelaspectratio>square</pixelaspectratio>
										<fielddominance>none</fielddominance>
									</samplecharacteristics>
								</video>
								<audio>
									<samplecharacteristics>
										<depth>16</depth>
										<samplerate>48000</samplerate>
									</samplecharacteristics>
									<channelcount>2</channelcount>
								</audio>
							</media>
						</file>
						<link>
							<linkclipref>clipitem-244</linkclipref>
							<mediatype>video</mediatype>
							<trackindex>1</trackindex>
							<clipindex>288</clipindex>
						</link>
						<link>
							<linkclipref>clipitem-623</linkclipref>
							<mediatype>audio</mediatype>
							<trackindex>1</trackindex>
							<clipindex>147</clipindex>
							<groupindex>1</groupindex>
						</link>
						<link>
							<linkclipref>clipitem-787</linkclipref>
							<mediatype>audio</mediatype>
							<trackindex>2</trackindex>
							<clipindex>147</clipindex>
							<groupindex>1</groupindex>
						</link>
						<logginginfo>
							<description></description>
							<scene></scene>
							<shottake></shottake>
							<lognote></lognote>
							<good></good>
							<originalvideofilename></originalvideofilename>
							<originalaudiofilename></originalaudiofilename>
						</logginginfo>
						<colorinfo>
							<lut></lut>
							<lut1></lut1>
							<asc_sop></asc_sop>
							<asc_sat></asc_sat>
							<lut2></lut2>
						</colorinfo>
						<labels>
							<label2>Iris</label2>
						</labels>
					</clipitem>
					<clipitem id="clipitem-245">
						<masterclipid>masterclip-109</masterclipid>
						<name>A008_10280532_C038.mp4</name>
						<enabled>TRUE</enabled>
						<duration>1656</duration>
						<rate>
							<timebase>24</timebase>
							<ntsc>FALSE</ntsc>
						</rate>
						<start>23483</start>
						<end>23571</end>
						<in>1227</in>
						<out>1315</out>
						<pproTicksIn>12986568000000</pproTicksIn>
						<pproTicksOut>13917960000000</pproTicksOut>
						<alphatype>none</alphatype>
						<file id="file-109"/>
						<link>
							<linkclipref>clipitem-245</linkclipref>
							<mediatype>video</mediatype>
							<trackindex>1</trackindex>
							<clipindex>289</clipindex>
						</link>
						<link>
							<linkclipref>clipitem-624</linkclipref>
							<mediatype>audio</mediatype>
							<trackindex>1</trackindex>
							<clipindex>148</clipindex>
							<groupindex>1</groupindex>
						</link>
						<link>
							<linkclipref>clipitem-788</linkclipref>
							<mediatype>audio</mediatype>
							<trackindex>2</trackindex>
							<clipindex>148</clipindex>
							<groupindex>1</groupindex>
						</link>
						<logginginfo>
							<description></description>
							<scene></scene>
							<shottake></shottake>
							<lognote></lognote>
							<good></good>
							<originalvideofilename></originalvideofilename>
							<originalaudiofilename></originalaudiofilename>
						</logginginfo>
						<colorinfo>
							<lut></lut>
							<lut1></lut1>
							<asc_sop></asc_sop>
							<asc_sat></asc_sat>
							<lut2></lut2>
						</colorinfo>
						<labels>
							<label2>Iris</label2>
						</labels>
					</clipitem>
					<clipitem id="clipitem-246">
						<masterclipid>masterclip-110</masterclipid>
						<name>A008_10280608_C051.mp4</name>
						<enabled>TRUE</enabled>
						<duration>1519</duration>
						<rate>
							<timebase>24</timebase>
							<ntsc>FALSE</ntsc>
						</rate>
						<start>23571</start>
						<end>23627</end>
						<in>1138</in>
						<out>1194</out>
						<pproTicksIn>12044592000000</pproTicksIn>
						<pproTicksOut>12637296000000</pproTicksOut>
						<alphatype>none</alphatype>
						<file id="file-110"/>
						<link>
							<linkclipref>clipitem-246</linkclipref>
							<mediatype>video</mediatype>
							<trackindex>1</trackindex>
							<clipindex>290</clipindex>
						</link>
						<link>
							<linkclipref>clipitem-625</linkclipref>
							<mediatype>audio</mediatype>
							<trackindex>1</trackindex>
							<clipindex>149</clipindex>
							<groupindex>1</groupindex>
						</link>
						<link>
							<linkclipref>clipitem-789</linkclipref>
							<mediatype>audio</mediatype>
							<trackindex>2</trackindex>
							<clipindex>149</clipindex>
							<groupindex>1</groupindex>
						</link>
						<logginginfo>
							<description></description>
							<scene></scene>
							<shottake></shottake>
							<lognote></lognote>
							<good></good>
							<originalvideofilename></originalvideofilename>
							<originalaudiofilename></originalaudiofilename>
						</logginginfo>
						<colorinfo>
							<lut></lut>
							<lut1></lut1>
							<asc_sop></asc_sop>
							<asc_sat></asc_sat>
							<lut2></lut2>
						</colorinfo>
						<labels>
							<label2>Iris</label2>
						</labels>
					</clipitem>
					<clipitem id="clipitem-247">
						<masterclipid>masterclip-109</masterclipid>
						<name>A008_10280532_C038.mp4</name>
						<enabled>TRUE</enabled>
						<duration>1656</duration>
						<rate>
							<timebase>24</timebase>
							<ntsc>FALSE</ntsc>
						</rate>
						<start>23627</start>
						<end>23650</end>
						<in>1395</in>
						<out>1418</out>
						<pproTicksIn>14764680000000</pproTicksIn>
						<pproTicksOut>15008112000000</pproTicksOut>
						<alphatype>none</alphatype>
						<file id="file-109"/>
						<link>
							<linkclipref>clipitem-247</linkclipref>
							<mediatype>video</mediatype>
							<trackindex>1</trackindex>
							<clipindex>291</clipindex>
						</link>
						<link>
							<linkclipref>clipitem-626</linkclipref>
							<mediatype>audio</mediatype>
							<trackindex>1</trackindex>
							<clipindex>150</clipindex>
							<groupindex>1</groupindex>
						</link>
						<link>
							<linkclipref>clipitem-790</linkclipref>
							<mediatype>audio</mediatype>
							<trackindex>2</trackindex>
							<clipindex>150</clipindex>
							<groupindex>1</groupindex>
						</link>
						<logginginfo>
							<description></description>
							<scene></scene>
							<shottake></shottake>
							<lognote></lognote>
							<good></good>
							<originalvideofilename></originalvideofilename>
							<originalaudiofilename></originalaudiofilename>
						</logginginfo>
						<colorinfo>
							<lut></lut>
							<lut1></lut1>
							<asc_sop></asc_sop>
							<asc_sat></asc_sat>
							<lut2></lut2>
						</colorinfo>
						<labels>
							<label2>Iris</label2>
						</labels>
					</clipitem>
					<clipitem id="clipitem-248">
						<masterclipid>masterclip-110</masterclipid>
						<name>A008_10280608_C051.mp4</name>
						<enabled>TRUE</enabled>
						<duration>1519</duration>
						<rate>
							<timebase>24</timebase>
							<ntsc>FALSE</ntsc>
						</rate>
						<start>23650</start>
						<end>23707</end>
						<in>1227</in>
						<out>1284</out>
						<pproTicksIn>12986568000000</pproTicksIn>
						<pproTicksOut>13589856000000</pproTicksOut>
						<alphatype>none</alphatype>
						<file id="file-110"/>
						<link>
							<linkclipref>clipitem-248</linkclipref>
							<mediatype>video</mediatype>
							<trackindex>1</trackindex>
							<clipindex>292</clipindex>
						</link>
						<link>
							<linkclipref>clipitem-627</linkclipref>
							<mediatype>audio</mediatype>
							<trackindex>1</trackindex>
							<clipindex>151</clipindex>
							<groupindex>1</groupindex>
						</link>
						<link>
							<linkclipref>clipitem-791</linkclipref>
							<mediatype>audio</mediatype>
							<trackindex>2</trackindex>
							<clipindex>151</clipindex>
							<groupindex>1</groupindex>
						</link>
						<logginginfo>
							<description></description>
							<scene></scene>
							<shottake></shottake>
							<lognote></lognote>
							<good></good>
							<originalvideofilename></originalvideofilename>
							<originalaudiofilename></originalaudiofilename>
						</logginginfo>
						<colorinfo>
							<lut></lut>
							<lut1></lut1>
							<asc_sop></asc_sop>
							<asc_sat></asc_sat>
							<lut2></lut2>
						</colorinfo>
						<labels>
							<label2>Iris</label2>
						</labels>
					</clipitem>
					<clipitem id="clipitem-249">
						<masterclipid>masterclip-109</masterclipid>
						<name>A008_10280532_C038.mp4</name>
						<enabled>TRUE</enabled>
						<duration>2760</duration>
						<rate>
							<timebase>24</timebase>
							<ntsc>FALSE</ntsc>
						</rate>
						<start>23707</start>
						<end>23753</end>
						<in>2530</in>
						<out>2576</out>
						<pproTicksIn>16066512000000</pproTicksIn>
						<pproTicksOut>16358630400000</pproTicksOut>
						<alphatype>none</alphatype>
						<file id="file-109"/>
						<filter>
							<effect>
								<name>Time Remap</name>
								<effectid>timeremap</effectid>
								<effectcategory>motion</effectcategory>
								<effecttype>motion</effecttype>
								<mediatype>video</mediatype>
								<parameter authoringApp="PremierePro">
									<parameterid>variablespeed</parameterid>
									<name>variablespeed</name>
									<valuemin>0</valuemin>
									<valuemax>1</valuemax>
									<value>0</value>
								</parameter>
								<parameter authoringApp="PremierePro">
									<parameterid>speed</parameterid>
									<name>speed</name>
									<valuemin>-100000</valuemin>
									<valuemax>100000</valuemax>
									<value>60</value>
								</parameter>
								<parameter authoringApp="PremierePro">
									<parameterid>reverse</parameterid>
									<name>reverse</name>
									<value>FALSE</value>
								</parameter>
								<parameter authoringApp="PremierePro">
									<parameterid>frameblending</parameterid>
									<name>frameblending</name>
									<value>FALSE</value>
								</parameter>
								<parameter authoringApp="PremierePro">
									<parameterid>graphdict</parameterid>
									<name>graphdict</name>
									<valuemin>0</valuemin>
									<valuemax>1656</valuemax>
									<value>0</value>
									<keyframe>
										<when>0</when>
										<value>0</value>
										<speedvirtualkf>TRUE</speedvirtualkf>
										<speedkfstart>TRUE</speedkfstart>
									</keyframe>
									<keyframe>
										<when>2530</when>
										<value>1518</value>
										<speedvirtualkf>TRUE</speedvirtualkf>
										<speedkfin>TRUE</speedkfin>
									</keyframe>
									<keyframe>
										<when>2576</when>
										<value>1545</value>
										<speedvirtualkf>TRUE</speedvirtualkf>
										<speedkfout>TRUE</speedkfout>
									</keyframe>
									<keyframe>
										<when>2760</when>
										<value>1656</value>
										<speedvirtualkf>TRUE</speedvirtualkf>
										<speedkfend>TRUE</speedkfend>
									</keyframe>
									<interpolation>
										<name>FCPCurve</name>
									</interpolation>
								</parameter>
							</effect>
						</filter>
						<logginginfo>
							<description></description>
							<scene></scene>
							<shottake></shottake>
							<lognote></lognote>
							<good></good>
							<originalvideofilename></originalvideofilename>
							<originalaudiofilename></originalaudiofilename>
						</logginginfo>
						<colorinfo>
							<lut></lut>
							<lut1></lut1>
							<asc_sop></asc_sop>
							<asc_sat></asc_sat>
							<lut2></lut2>
						</colorinfo>
						<labels>
							<label2>Iris</label2>
						</labels>
					</clipitem>
					<clipitem id="clipitem-250">
						<masterclipid>masterclip-109</masterclipid>
						<name>A008_10280532_C038.mp4</name>
						<enabled>TRUE</enabled>
						<duration>2760</duration>
						<rate>
							<timebase>24</timebase>
							<ntsc>FALSE</ntsc>
						</rate>
						<start>23753</start>
						<end>23857</end>
						<in>2576</in>
						<out>2680</out>
						<pproTicksIn>16358630400000</pproTicksIn>
						<pproTicksOut>17019072000000</pproTicksOut>
						<alphatype>none</alphatype>
						<file id="file-109"/>
						<filter>
							<effect>
								<name>Time Remap</name>
								<effectid>timeremap</effectid>
								<effectcategory>motion</effectcategory>
								<effecttype>motion</effecttype>
								<mediatype>video</mediatype>
								<parameter authoringApp="PremierePro">
									<parameterid>variablespeed</parameterid>
									<name>variablespeed</name>
									<valuemin>0</valuemin>
									<valuemax>1</valuemax>
									<value>0</value>
								</parameter>
								<parameter authoringApp="PremierePro">
									<parameterid>speed</parameterid>
									<name>speed</name>
									<valuemin>-100000</valuemin>
									<valuemax>100000</valuemax>
									<value>60</value>
								</parameter>
								<parameter authoringApp="PremierePro">
									<parameterid>reverse</parameterid>
									<name>reverse</name>
									<value>FALSE</value>
								</parameter>
								<parameter authoringApp="PremierePro">
									<parameterid>frameblending</parameterid>
									<name>frameblending</name>
									<value>FALSE</value>
								</parameter>
								<parameter authoringApp="PremierePro">
									<parameterid>graphdict</parameterid>
									<name>graphdict</name>
									<valuemin>0</valuemin>
									<valuemax>1656</valuemax>
									<value>0</value>
									<keyframe>
										<when>0</when>
										<value>0</value>
										<speedvirtualkf>TRUE</speedvirtualkf>
										<speedkfstart>TRUE</speedkfstart>
									</keyframe>
									<keyframe>
										<when>2576</when>
										<value>1545</value>
										<speedvirtualkf>TRUE</speedvirtualkf>
										<speedkfin>TRUE</speedkfin>
									</keyframe>
									<keyframe>
										<when>2680</when>
										<value>1608</value>
										<speedvirtualkf>TRUE</speedvirtualkf>
										<speedkfout>TRUE</speedkfout>
									</keyframe>
									<keyframe>
										<when>2760</when>
										<value>1656</value>
										<speedvirtualkf>TRUE</speedvirtualkf>
										<speedkfend>TRUE</speedkfend>
									</keyframe>
									<interpolation>
										<name>FCPCurve</name>
									</interpolation>
								</parameter>
							</effect>
						</filter>
						<logginginfo>
							<description></description>
							<scene></scene>
							<shottake></shottake>
							<lognote></lognote>
							<good></good>
							<originalvideofilename></originalvideofilename>
							<originalaudiofilename></originalaudiofilename>
						</logginginfo>
						<colorinfo>
							<lut></lut>
							<lut1></lut1>
							<asc_sop></asc_sop>
							<asc_sat></asc_sat>
							<lut2></lut2>
						</colorinfo>
						<labels>
							<label2>Iris</label2>
						</labels>
					</clipitem>
					<clipitem id="clipitem-251">
						<masterclipid>masterclip-112</masterclipid>
						<name>A016_11010327_C010.mp4</name>
						<enabled>TRUE</enabled>
						<duration>3134</duration>
						<rate>
							<timebase>24</timebase>
							<ntsc>FALSE</ntsc>
						</rate>
						<start>24149</start>
						<end>-1</end>
						<in>1313</in>
						<out>1431</out>
						<pproTicksIn>13896792000000</pproTicksIn>
						<pproTicksOut>15145704000000</pproTicksOut>
						<alphatype>none</alphatype>
						<pixelaspectratio>square</pixelaspectratio>
						<anamorphic>FALSE</anamorphic>
						<file id="file-112">
							<name>A016_11010327_C010.mp4</name>
							<pathurl>file://localhost/F%3a/After%20bengaluru%20udupi/scene%2045A/A016_11010327_C010.mp4</pathurl>
							<rate>
								<timebase>24</timebase>
								<ntsc>FALSE</ntsc>
							</rate>
							<duration>3134</duration>
							<timecode>
								<rate>
									<timebase>24</timebase>
									<ntsc>FALSE</ntsc>
								</rate>
								<string>03:27:28:10</string>
								<frame>298762</frame>
								<displayformat>NDF</displayformat>
							</timecode>
							<media>
								<video>
									<samplecharacteristics>
										<rate>
											<timebase>24</timebase>
											<ntsc>FALSE</ntsc>
										</rate>
										<width>1920</width>
										<height>1080</height>
										<anamorphic>FALSE</anamorphic>
										<pixelaspectratio>square</pixelaspectratio>
										<fielddominance>none</fielddominance>
									</samplecharacteristics>
								</video>
								<audio>
									<samplecharacteristics>
										<depth>16</depth>
										<samplerate>48000</samplerate>
									</samplecharacteristics>
									<channelcount>2</channelcount>
								</audio>
							</media>
						</file>
						<logginginfo>
							<description></description>
							<scene></scene>
							<shottake></shottake>
							<lognote></lognote>
							<good></good>
							<originalvideofilename></originalvideofilename>
							<originalaudiofilename></originalaudiofilename>
						</logginginfo>
						<colorinfo>
							<lut></lut>
							<lut1></lut1>
							<asc_sop></asc_sop>
							<asc_sat></asc_sat>
							<lut2></lut2>
						</colorinfo>
						<labels>
							<label2>Iris</label2>
						</labels>
					</clipitem>
					<transitionitem>
						<start>24237</start>
						<end>24267</end>
						<alignment>center</alignment>
						<cutPointTicks>158760000000</cutPointTicks>
						<rate>
							<timebase>24</timebase>
							<ntsc>FALSE</ntsc>
						</rate>
						<effect>
							<name>Cross Dissolve</name>
							<effectid>Cross Dissolve</effectid>
							<effectcategory>Dissolve</effectcategory>
							<effecttype>transition</effecttype>
							<mediatype>video</mediatype>
							<wipecode>0</wipecode>
							<wipeaccuracy>100</wipeaccuracy>
							<startratio>0</startratio>
							<endratio>1</endratio>
							<reverse>FALSE</reverse>
						</effect>
					</transitionitem>
					<clipitem id="clipitem-252">
						<masterclipid>masterclip-112</masterclipid>
						<name>A016_11010327_C010.mp4</name>
						<enabled>TRUE</enabled>
						<duration>3134</duration>
						<rate>
							<timebase>24</timebase>
							<ntsc>FALSE</ntsc>
						</rate>
						<start>-1</start>
						<end>24350</end>
						<in>1527</in>
						<out>1640</out>
						<pproTicksIn>16161768000000</pproTicksIn>
						<pproTicksOut>17357760000000</pproTicksOut>
						<alphatype>none</alphatype>
						<file id="file-112"/>
						<logginginfo>
							<description></description>
							<scene></scene>
							<shottake></shottake>
							<lognote></lognote>
							<good></good>
							<originalvideofilename></originalvideofilename>
							<originalaudiofilename></originalaudiofilename>
						</logginginfo>
						<colorinfo>
							<lut></lut>
							<lut1></lut1>
							<asc_sop></asc_sop>
							<asc_sat></asc_sat>
							<lut2></lut2>
						</colorinfo>
						<labels>
							<label2>Iris</label2>
						</labels>
					</clipitem>
					<clipitem id="clipitem-253">
						<masterclipid>masterclip-113</masterclipid>
						<name>DJI_0111.mov</name>
						<enabled>TRUE</enabled>
						<duration>412</duration>
						<rate>
							<timebase>24</timebase>
							<ntsc>FALSE</ntsc>
						</rate>
						<start>24350</start>
						<end>24395</end>
						<in>139</in>
						<out>183</out>
						<pproTicksIn>2931768000000</pproTicksIn>
						<pproTicksOut>3884328000000</pproTicksOut>
						<alphatype>none</alphatype>
						<pixelaspectratio>square</pixelaspectratio>
						<anamorphic>FALSE</anamorphic>
						<file id="file-113">
							<name>DJI_0111.mov</name>
							<pathurl>file://localhost/F%3a/love%20song/song%20lead%20and%20starting/offline/DJI_0111.mov</pathurl>
							<rate>
								<timebase>50</timebase>
								<ntsc>FALSE</ntsc>
							</rate>
							<duration>1718</duration>
							<timecode>
								<rate>
									<timebase>50</timebase>
									<ntsc>FALSE</ntsc>
								</rate>
								<string>00:00:00:00</string>
								<frame>0</frame>
								<displayformat>NDF</displayformat>
							</timecode>
							<media>
								<video>
									<samplecharacteristics>
										<rate>
											<timebase>50</timebase>
											<ntsc>FALSE</ntsc>
										</rate>
										<width>1920</width>
										<height>1080</height>
										<anamorphic>FALSE</anamorphic>
										<pixelaspectratio>square</pixelaspectratio>
										<fielddominance>none</fielddominance>
									</samplecharacteristics>
								</video>
								<audio>
									<samplecharacteristics>
										<depth>16</depth>
										<samplerate>48000</samplerate>
									</samplecharacteristics>
									<channelcount>2</channelcount>
								</audio>
							</media>
						</file>
						<filter>
							<effect>
								<name>Time Remap</name>
								<effectid>timeremap</effectid>
								<effectcategory>motion</effectcategory>
								<effecttype>motion</effecttype>
								<mediatype>video</mediatype>
								<parameter authoringApp="PremierePro">
									<parameterid>variablespeed</parameterid>
									<name>variablespeed</name>
									<valuemin>0</valuemin>
									<valuemax>1</valuemax>
									<value>0</value>
								</parameter>
								<parameter authoringApp="PremierePro">
									<parameterid>speed</parameterid>
									<name>speed</name>
									<valuemin>-100000</valuemin>
									<valuemax>100000</valuemax>
									<value>200</value>
								</parameter>
								<parameter authoringApp="PremierePro">
									<parameterid>reverse</parameterid>
									<name>reverse</name>
									<value>FALSE</value>
								</parameter>
								<parameter authoringApp="PremierePro">
									<parameterid>frameblending</parameterid>
									<name>frameblending</name>
									<value>FALSE</value>
								</parameter>
								<parameter authoringApp="PremierePro">
									<parameterid>graphdict</parameterid>
									<name>graphdict</name>
									<valuemin>0</valuemin>
									<valuemax>824</valuemax>
									<value>0</value>
									<keyframe>
										<when>0</when>
										<value>0</value>
										<speedvirtualkf>TRUE</speedvirtualkf>
										<speedkfstart>TRUE</speedkfstart>
									</keyframe>
									<keyframe>
										<when>139</when>
										<value>278</value>
										<speedvirtualkf>TRUE</speedvirtualkf>
										<speedkfin>TRUE</speedkfin>
									</keyframe>
									<keyframe>
										<when>183</when>
										<value>366</value>
										<speedvirtualkf>TRUE</speedvirtualkf>
										<speedkfout>TRUE</speedkfout>
									</keyframe>
									<keyframe>
										<when>412</when>
										<value>824</value>
										<speedvirtualkf>TRUE</speedvirtualkf>
										<speedkfend>TRUE</speedkfend>
									</keyframe>
									<interpolation>
										<name>FCPCurve</name>
									</interpolation>
								</parameter>
							</effect>
						</filter>
						<logginginfo>
							<description></description>
							<scene></scene>
							<shottake></shottake>
							<lognote></lognote>
							<good></good>
							<originalvideofilename></originalvideofilename>
							<originalaudiofilename></originalaudiofilename>
						</logginginfo>
						<colorinfo>
							<lut></lut>
							<lut1></lut1>
							<asc_sop></asc_sop>
							<asc_sat></asc_sat>
							<lut2></lut2>
						</colorinfo>
						<labels>
							<label2>Iris</label2>
						</labels>
					</clipitem>
					<clipitem id="clipitem-254">
						<masterclipid>masterclip-114</masterclipid>
						<name>A008_10280758_C059.mp4</name>
						<enabled>TRUE</enabled>
						<duration>2636</duration>
						<rate>
							<timebase>24</timebase>
							<ntsc>FALSE</ntsc>
						</rate>
						<start>24395</start>
						<end>24492</end>
						<in>509</in>
						<out>606</out>
						<pproTicksIn>5387256000000</pproTicksIn>
						<pproTicksOut>6413904000000</pproTicksOut>
						<alphatype>none</alphatype>
						<pixelaspectratio>square</pixelaspectratio>
						<anamorphic>FALSE</anamorphic>
						<file id="file-114">
							<name>A008_10280758_C059.mp4</name>
							<pathurl>file://localhost/F%3a/love%20song/song%20lead%20and%20starting/A008_10280758_C059.mp4</pathurl>
							<rate>
								<timebase>24</timebase>
								<ntsc>FALSE</ntsc>
							</rate>
							<duration>2636</duration>
							<timecode>
								<rate>
									<timebase>24</timebase>
									<ntsc>FALSE</ntsc>
								</rate>
								<string>07:58:54:14</string>
								<frame>689630</frame>
								<displayformat>NDF</displayformat>
							</timecode>
							<media>
								<video>
									<samplecharacteristics>
										<rate>
											<timebase>24</timebase>
											<ntsc>FALSE</ntsc>
										</rate>
										<width>1920</width>
										<height>1080</height>
										<anamorphic>FALSE</anamorphic>
										<pixelaspectratio>square</pixelaspectratio>
										<fielddominance>none</fielddominance>
									</samplecharacteristics>
								</video>
								<audio>
									<samplecharacteristics>
										<depth>16</depth>
										<samplerate>48000</samplerate>
									</samplecharacteristics>
									<channelcount>2</channelcount>
								</audio>
							</media>
						</file>
						<logginginfo>
							<description></description>
							<scene></scene>
							<shottake></shottake>
							<lognote></lognote>
							<good></good>
							<originalvideofilename></originalvideofilename>
							<originalaudiofilename></originalaudiofilename>
						</logginginfo>
						<colorinfo>
							<lut></lut>
							<lut1></lut1>
							<asc_sop></asc_sop>
							<asc_sat></asc_sat>
							<lut2></lut2>
						</colorinfo>
						<labels>
							<label2>Iris</label2>
						</labels>
					</clipitem>
					<clipitem id="clipitem-255">
						<masterclipid>masterclip-115</masterclipid>
						<name>A008_10280804_C060.mp4</name>
						<enabled>TRUE</enabled>
						<duration>2981</duration>
						<rate>
							<timebase>24</timebase>
							<ntsc>FALSE</ntsc>
						</rate>
						<start>24492</start>
						<end>24541</end>
						<in>1001</in>
						<out>1050</out>
						<pproTicksIn>10594584000000</pproTicksIn>
						<pproTicksOut>11113200000000</pproTicksOut>
						<alphatype>none</alphatype>
						<pixelaspectratio>square</pixelaspectratio>
						<anamorphic>FALSE</anamorphic>
						<file id="file-115">
							<name>A008_10280804_C060.mp4</name>
							<pathurl>file://localhost/F%3a/love%20song/song%20lead%20and%20starting/A008_10280804_C060.mp4</pathurl>
							<rate>
								<timebase>24</timebase>
								<ntsc>FALSE</ntsc>
							</rate>
							<duration>2981</duration>
							<timecode>
								<rate>
									<timebase>24</timebase>
									<ntsc>FALSE</ntsc>
								</rate>
								<string>08:04:49:15</string>
								<frame>698151</frame>
								<displayformat>NDF</displayformat>
							</timecode>
							<media>
								<video>
									<samplecharacteristics>
										<rate>
											<timebase>24</timebase>
											<ntsc>FALSE</ntsc>
										</rate>
										<width>1920</width>
										<height>1080</height>
										<anamorphic>FALSE</anamorphic>
										<pixelaspectratio>square</pixelaspectratio>
										<fielddominance>none</fielddominance>
									</samplecharacteristics>
								</video>
								<audio>
									<samplecharacteristics>
										<depth>16</depth>
										<samplerate>48000</samplerate>
									</samplecharacteristics>
									<channelcount>2</channelcount>
								</audio>
							</media>
						</file>
						<logginginfo>
							<description></description>
							<scene></scene>
							<shottake></shottake>
							<lognote></lognote>
							<good></good>
							<originalvideofilename></originalvideofilename>
							<originalaudiofilename></originalaudiofilename>
						</logginginfo>
						<colorinfo>
							<lut></lut>
							<lut1></lut1>
							<asc_sop></asc_sop>
							<asc_sat></asc_sat>
							<lut2></lut2>
						</colorinfo>
						<labels>
							<label2>Iris</label2>
						</labels>
					</clipitem>
					<clipitem id="clipitem-256">
						<masterclipid>masterclip-115</masterclipid>
						<name>A008_10280804_C060.mp4</name>
						<enabled>TRUE</enabled>
						<duration>2981</duration>
						<rate>
							<timebase>24</timebase>
							<ntsc>FALSE</ntsc>
						</rate>
						<start>24541</start>
						<end>24589</end>
						<in>1050</in>
						<out>1098</out>
						<pproTicksIn>11113200000000</pproTicksIn>
						<pproTicksOut>11621232000000</pproTicksOut>
						<alphatype>none</alphatype>
						<file id="file-115"/>
						<logginginfo>
							<description></description>
							<scene></scene>
							<shottake></shottake>
							<lognote></lognote>
							<good></good>
							<originalvideofilename></originalvideofilename>
							<originalaudiofilename></originalaudiofilename>
						</logginginfo>
						<colorinfo>
							<lut></lut>
							<lut1></lut1>
							<asc_sop></asc_sop>
							<asc_sat></asc_sat>
							<lut2></lut2>
						</colorinfo>
						<labels>
							<label2>Iris</label2>
						</labels>
					</clipitem>
					<clipitem id="clipitem-257">
						<masterclipid>masterclip-116</masterclipid>
						<name>A008_10280809_C064.mp4</name>
						<enabled>TRUE</enabled>
						<duration>1017</duration>
						<rate>
							<timebase>24</timebase>
							<ntsc>FALSE</ntsc>
						</rate>
						<start>24589</start>
						<end>24634</end>
						<in>695</in>
						<out>740</out>
						<pproTicksIn>7355880000000</pproTicksIn>
						<pproTicksOut>7832160000000</pproTicksOut>
						<alphatype>none</alphatype>
						<pixelaspectratio>square</pixelaspectratio>
						<anamorphic>FALSE</anamorphic>
						<file id="file-116">
							<name>A008_10280809_C064.mp4</name>
							<pathurl>file://localhost/F%3a/love%20song/song%20lead%20and%20starting/A008_10280809_C064.mp4</pathurl>
							<rate>
								<timebase>24</timebase>
								<ntsc>FALSE</ntsc>
							</rate>
							<duration>1017</duration>
							<timecode>
								<rate>
									<timebase>24</timebase>
									<ntsc>FALSE</ntsc>
								</rate>
								<string>08:09:06:16</string>
								<frame>704320</frame>
								<displayformat>NDF</displayformat>
							</timecode>
							<media>
								<video>
									<samplecharacteristics>
										<rate>
											<timebase>24</timebase>
											<ntsc>FALSE</ntsc>
										</rate>
										<width>1920</width>
										<height>1080</height>
										<anamorphic>FALSE</anamorphic>
										<pixelaspectratio>square</pixelaspectratio>
										<fielddominance>none</fielddominance>
									</samplecharacteristics>
								</video>
								<audio>
									<samplecharacteristics>
										<depth>16</depth>
										<samplerate>48000</samplerate>
									</samplecharacteristics>
									<channelcount>2</channelcount>
								</audio>
							</media>
						</file>
						<logginginfo>
							<description></description>
							<scene></scene>
							<shottake></shottake>
							<lognote></lognote>
							<good></good>
							<originalvideofilename></originalvideofilename>
							<originalaudiofilename></originalaudiofilename>
						</logginginfo>
						<colorinfo>
							<lut></lut>
							<lut1></lut1>
							<asc_sop></asc_sop>
							<asc_sat></asc_sat>
							<lut2></lut2>
						</colorinfo>
						<labels>
							<label2>Iris</label2>
						</labels>
					</clipitem>
					<clipitem id="clipitem-258">
						<masterclipid>masterclip-115</masterclipid>
						<name>A008_10280804_C060.mp4</name>
						<enabled>TRUE</enabled>
						<duration>2981</duration>
						<rate>
							<timebase>24</timebase>
							<ntsc>FALSE</ntsc>
						</rate>
						<start>24634</start>
						<end>24684</end>
						<in>1784</in>
						<out>1834</out>
						<pproTicksIn>18881856000000</pproTicksIn>
						<pproTicksOut>19411056000000</pproTicksOut>
						<alphatype>none</alphatype>
						<file id="file-115"/>
						<logginginfo>
							<description></description>
							<scene></scene>
							<shottake></shottake>
							<lognote></lognote>
							<good></good>
							<originalvideofilename></originalvideofilename>
							<originalaudiofilename></originalaudiofilename>
						</logginginfo>
						<colorinfo>
							<lut></lut>
							<lut1></lut1>
							<asc_sop></asc_sop>
							<asc_sat></asc_sat>
							<lut2></lut2>
						</colorinfo>
						<labels>
							<label2>Iris</label2>
						</labels>
					</clipitem>
					<clipitem id="clipitem-259">
						<masterclipid>masterclip-114</masterclipid>
						<name>A008_10280758_C059.mp4</name>
						<enabled>TRUE</enabled>
						<duration>2636</duration>
						<rate>
							<timebase>24</timebase>
							<ntsc>FALSE</ntsc>
						</rate>
						<start>24684</start>
						<end>24704</end>
						<in>1808</in>
						<out>1828</out>
						<pproTicksIn>19135872000000</pproTicksIn>
						<pproTicksOut>19347552000000</pproTicksOut>
						<alphatype>none</alphatype>
						<file id="file-114"/>
						<logginginfo>
							<description></description>
							<scene></scene>
							<shottake></shottake>
							<lognote></lognote>
							<good></good>
							<originalvideofilename></originalvideofilename>
							<originalaudiofilename></originalaudiofilename>
						</logginginfo>
						<colorinfo>
							<lut></lut>
							<lut1></lut1>
							<asc_sop></asc_sop>
							<asc_sat></asc_sat>
							<lut2></lut2>
						</colorinfo>
						<labels>
							<label2>Iris</label2>
						</labels>
					</clipitem>
					<clipitem id="clipitem-260">
						<masterclipid>masterclip-114</masterclipid>
						<name>A008_10280758_C059.mp4</name>
						<enabled>TRUE</enabled>
						<duration>2636</duration>
						<rate>
							<timebase>24</timebase>
							<ntsc>FALSE</ntsc>
						</rate>
						<start>24704</start>
						<end>24733</end>
						<in>605</in>
						<out>634</out>
						<pproTicksIn>6403320000000</pproTicksIn>
						<pproTicksOut>6710256000000</pproTicksOut>
						<alphatype>none</alphatype>
						<file id="file-114"/>
						<filter>
							<effect>
								<name>Time Remap</name>
								<effectid>timeremap</effectid>
								<effectcategory>motion</effectcategory>
								<effecttype>motion</effecttype>
								<mediatype>video</mediatype>
								<parameter authoringApp="PremierePro">
									<parameterid>variablespeed</parameterid>
									<name>variablespeed</name>
									<valuemin>0</valuemin>
									<valuemax>1</valuemax>
									<value>0</value>
								</parameter>
								<parameter authoringApp="PremierePro">
									<parameterid>speed</parameterid>
									<name>speed</name>
									<valuemin>-100000</valuemin>
									<valuemax>100000</valuemax>
									<value>100</value>
								</parameter>
								<parameter authoringApp="PremierePro">
									<parameterid>reverse</parameterid>
									<name>reverse</name>
									<value>TRUE</value>
								</parameter>
								<parameter authoringApp="PremierePro">
									<parameterid>frameblending</parameterid>
									<name>frameblending</name>
									<value>FALSE</value>
								</parameter>
								<parameter authoringApp="PremierePro">
									<parameterid>graphdict</parameterid>
									<name>graphdict</name>
									<valuemin>0</valuemin>
									<valuemax>2636</valuemax>
									<value>0</value>
									<keyframe>
										<when>0</when>
										<value>2636</value>
										<speedvirtualkf>TRUE</speedvirtualkf>
										<speedkfstart>TRUE</speedkfstart>
									</keyframe>
									<keyframe>
										<when>2002</when>
										<value>634</value>
										<speedvirtualkf>TRUE</speedvirtualkf>
										<speedkfin>TRUE</speedkfin>
									</keyframe>
									<keyframe>
										<when>2031</when>
										<value>605</value>
										<speedvirtualkf>TRUE</speedvirtualkf>
										<speedkfout>TRUE</speedkfout>
									</keyframe>
									<keyframe>
										<when>2636</when>
										<value>1</value>
										<speedvirtualkf>TRUE</speedvirtualkf>
										<speedkfend>TRUE</speedkfend>
									</keyframe>
									<interpolation>
										<name>FCPCurve</name>
									</interpolation>
								</parameter>
							</effect>
						</filter>
						<logginginfo>
							<description></description>
							<scene></scene>
							<shottake></shottake>
							<lognote></lognote>
							<good></good>
							<originalvideofilename></originalvideofilename>
							<originalaudiofilename></originalaudiofilename>
						</logginginfo>
						<colorinfo>
							<lut></lut>
							<lut1></lut1>
							<asc_sop></asc_sop>
							<asc_sat></asc_sat>
							<lut2></lut2>
						</colorinfo>
						<labels>
							<label2>Iris</label2>
						</labels>
					</clipitem>
					<clipitem id="clipitem-261">
						<masterclipid>masterclip-117</masterclipid>
						<name>A020_11010437_C002.mp4</name>
						<enabled>TRUE</enabled>
						<duration>2999</duration>
						<rate>
							<timebase>24</timebase>
							<ntsc>FALSE</ntsc>
						</rate>
						<start>24733</start>
						<end>24770</end>
						<in>675</in>
						<out>712</out>
						<pproTicksIn>7144200000000</pproTicksIn>
						<pproTicksOut>7535808000000</pproTicksOut>
						<alphatype>none</alphatype>
						<pixelaspectratio>square</pixelaspectratio>
						<anamorphic>FALSE</anamorphic>
						<file id="file-117">
							<name>A020_11010437_C002.mp4</name>
							<pathurl>file://localhost/F%3a/love%20song/song%20lead%20and%20starting/A020_11010437_C002.mp4</pathurl>
							<rate>
								<timebase>24</timebase>
								<ntsc>FALSE</ntsc>
							</rate>
							<duration>2999</duration>
							<timecode>
								<rate>
									<timebase>24</timebase>
									<ntsc>FALSE</ntsc>
								</rate>
								<string>04:37:19:01</string>
								<frame>399337</frame>
								<displayformat>NDF</displayformat>
							</timecode>
							<media>
								<video>
									<samplecharacteristics>
										<rate>
											<timebase>24</timebase>
											<ntsc>FALSE</ntsc>
										</rate>
										<width>1920</width>
										<height>1080</height>
										<anamorphic>FALSE</anamorphic>
										<pixelaspectratio>square</pixelaspectratio>
										<fielddominance>none</fielddominance>
									</samplecharacteristics>
								</video>
								<audio>
									<samplecharacteristics>
										<depth>16</depth>
										<samplerate>48000</samplerate>
									</samplecharacteristics>
									<channelcount>2</channelcount>
								</audio>
							</media>
						</file>
						<logginginfo>
							<description></description>
							<scene></scene>
							<shottake></shottake>
							<lognote></lognote>
							<good></good>
							<originalvideofilename></originalvideofilename>
							<originalaudiofilename></originalaudiofilename>
						</logginginfo>
						<colorinfo>
							<lut></lut>
							<lut1></lut1>
							<asc_sop></asc_sop>
							<asc_sat></asc_sat>
							<lut2></lut2>
						</colorinfo>
						<labels>
							<label2>Iris</label2>
						</labels>
					</clipitem>
					<clipitem id="clipitem-262">
						<masterclipid>masterclip-117</masterclipid>
						<name>A020_11010437_C002.mp4</name>
						<enabled>TRUE</enabled>
						<duration>2999</duration>
						<rate>
							<timebase>24</timebase>
							<ntsc>FALSE</ntsc>
						</rate>
						<start>24770</start>
						<end>24817</end>
						<in>1910</in>
						<out>1957</out>
						<pproTicksIn>20215440000000</pproTicksIn>
						<pproTicksOut>20712888000000</pproTicksOut>
						<alphatype>none</alphatype>
						<file id="file-117"/>
						<logginginfo>
							<description></description>
							<scene></scene>
							<shottake></shottake>
							<lognote></lognote>
							<good></good>
							<originalvideofilename></originalvideofilename>
							<originalaudiofilename></originalaudiofilename>
						</logginginfo>
						<colorinfo>
							<lut></lut>
							<lut1></lut1>
							<asc_sop></asc_sop>
							<asc_sat></asc_sat>
							<lut2></lut2>
						</colorinfo>
						<labels>
							<label2>Iris</label2>
						</labels>
					</clipitem>
					<clipitem id="clipitem-263">
						<masterclipid>masterclip-118</masterclipid>
						<name>DJI_0099.mov</name>
						<enabled>TRUE</enabled>
						<duration>1337</duration>
						<rate>
							<timebase>24</timebase>
							<ntsc>FALSE</ntsc>
						</rate>
						<start>24817</start>
						<end>24849</end>
						<in>224</in>
						<out>256</out>
						<pproTicksIn>2370816000000</pproTicksIn>
						<pproTicksOut>2709504000000</pproTicksOut>
						<alphatype>none</alphatype>
						<pixelaspectratio>square</pixelaspectratio>
						<anamorphic>FALSE</anamorphic>
						<file id="file-118">
							<name>DJI_0099.mov</name>
							<pathurl>file://localhost/F%3a/love%20song/bike%20ride%20(drone)/DJI_0099.mov</pathurl>
							<rate>
								<timebase>50</timebase>
								<ntsc>FALSE</ntsc>
							</rate>
							<duration>2786</duration>
							<timecode>
								<rate>
									<timebase>50</timebase>
									<ntsc>FALSE</ntsc>
								</rate>
								<string>00:00:00:00</string>
								<frame>0</frame>
								<displayformat>NDF</displayformat>
							</timecode>
							<media>
								<video>
									<samplecharacteristics>
										<rate>
											<timebase>50</timebase>
											<ntsc>FALSE</ntsc>
										</rate>
										<width>1920</width>
										<height>1080</height>
										<anamorphic>FALSE</anamorphic>
										<pixelaspectratio>square</pixelaspectratio>
										<fielddominance>none</fielddominance>
									</samplecharacteristics>
								</video>
								<audio>
									<samplecharacteristics>
										<depth>16</depth>
										<samplerate>48000</samplerate>
									</samplecharacteristics>
									<channelcount>2</channelcount>
								</audio>
							</media>
						</file>
						<logginginfo>
							<description></description>
							<scene></scene>
							<shottake></shottake>
							<lognote></lognote>
							<good></good>
							<originalvideofilename></originalvideofilename>
							<originalaudiofilename></originalaudiofilename>
						</logginginfo>
						<colorinfo>
							<lut></lut>
							<lut1></lut1>
							<asc_sop></asc_sop>
							<asc_sat></asc_sat>
							<lut2></lut2>
						</colorinfo>
						<labels>
							<label2>Iris</label2>
						</labels>
					</clipitem>
					<clipitem id="clipitem-264">
						<masterclipid>masterclip-118</masterclipid>
						<name>DJI_0099.mov</name>
						<enabled>TRUE</enabled>
						<duration>1337</duration>
						<rate>
							<timebase>24</timebase>
							<ntsc>FALSE</ntsc>
						</rate>
						<start>24849</start>
						<end>24869</end>
						<in>380</in>
						<out>400</out>
						<pproTicksIn>4021920000000</pproTicksIn>
						<pproTicksOut>4233600000000</pproTicksOut>
						<alphatype>none</alphatype>
						<file id="file-118"/>
						<logginginfo>
							<description></description>
							<scene></scene>
							<shottake></shottake>
							<lognote></lognote>
							<good></good>
							<originalvideofilename></originalvideofilename>
							<originalaudiofilename></originalaudiofilename>
						</logginginfo>
						<colorinfo>
							<lut></lut>
							<lut1></lut1>
							<asc_sop></asc_sop>
							<asc_sat></asc_sat>
							<lut2></lut2>
						</colorinfo>
						<labels>
							<label2>Iris</label2>
						</labels>
					</clipitem>
					<clipitem id="clipitem-265">
						<masterclipid>masterclip-118</masterclipid>
						<name>DJI_0099.mov</name>
						<enabled>TRUE</enabled>
						<duration>1337</duration>
						<rate>
							<timebase>24</timebase>
							<ntsc>FALSE</ntsc>
						</rate>
						<start>24869</start>
						<end>24893</end>
						<in>423</in>
						<out>447</out>
						<pproTicksIn>4477032000000</pproTicksIn>
						<pproTicksOut>4731048000000</pproTicksOut>
						<alphatype>none</alphatype>
						<file id="file-118"/>
						<logginginfo>
							<description></description>
							<scene></scene>
							<shottake></shottake>
							<lognote></lognote>
							<good></good>
							<originalvideofilename></originalvideofilename>
							<originalaudiofilename></originalaudiofilename>
						</logginginfo>
						<colorinfo>
							<lut></lut>
							<lut1></lut1>
							<asc_sop></asc_sop>
							<asc_sat></asc_sat>
							<lut2></lut2>
						</colorinfo>
						<labels>
							<label2>Iris</label2>
						</labels>
					</clipitem>
					<clipitem id="clipitem-266">
						<masterclipid>masterclip-118</masterclipid>
						<name>DJI_0099.mov</name>
						<enabled>TRUE</enabled>
						<duration>1337</duration>
						<rate>
							<timebase>24</timebase>
							<ntsc>FALSE</ntsc>
						</rate>
						<start>24893</start>
						<end>24907</end>
						<in>532</in>
						<out>546</out>
						<pproTicksIn>5630688000000</pproTicksIn>
						<pproTicksOut>5778864000000</pproTicksOut>
						<alphatype>none</alphatype>
						<file id="file-118"/>
						<logginginfo>
							<description></description>
							<scene></scene>
							<shottake></shottake>
							<lognote></lognote>
							<good></good>
							<originalvideofilename></originalvideofilename>
							<originalaudiofilename></originalaudiofilename>
						</logginginfo>
						<colorinfo>
							<lut></lut>
							<lut1></lut1>
							<asc_sop></asc_sop>
							<asc_sat></asc_sat>
							<lut2></lut2>
						</colorinfo>
						<labels>
							<label2>Iris</label2>
						</labels>
					</clipitem>
					<clipitem id="clipitem-267">
						<masterclipid>masterclip-118</masterclipid>
						<name>DJI_0099.mov</name>
						<enabled>TRUE</enabled>
						<duration>1337</duration>
						<rate>
							<timebase>24</timebase>
							<ntsc>FALSE</ntsc>
						</rate>
						<start>24907</start>
						<end>24924</end>
						<in>594</in>
						<out>611</out>
						<pproTicksIn>6286896000000</pproTicksIn>
						<pproTicksOut>6466824000000</pproTicksOut>
						<alphatype>none</alphatype>
						<file id="file-118"/>
						<logginginfo>
							<description></description>
							<scene></scene>
							<shottake></shottake>
							<lognote></lognote>
							<good></good>
							<originalvideofilename></originalvideofilename>
							<originalaudiofilename></originalaudiofilename>
						</logginginfo>
						<colorinfo>
							<lut></lut>
							<lut1></lut1>
							<asc_sop></asc_sop>
							<asc_sat></asc_sat>
							<lut2></lut2>
						</colorinfo>
						<labels>
							<label2>Iris</label2>
						</labels>
					</clipitem>
					<clipitem id="clipitem-268">
						<masterclipid>masterclip-118</masterclipid>
						<name>DJI_0099.mov</name>
						<enabled>TRUE</enabled>
						<duration>1337</duration>
						<rate>
							<timebase>24</timebase>
							<ntsc>FALSE</ntsc>
						</rate>
						<start>24924</start>
						<end>24944</end>
						<in>825</in>
						<out>845</out>
						<pproTicksIn>8731800000000</pproTicksIn>
						<pproTicksOut>8943480000000</pproTicksOut>
						<alphatype>none</alphatype>
						<file id="file-118"/>
						<logginginfo>
							<description></description>
							<scene></scene>
							<shottake></shottake>
							<lognote></lognote>
							<good></good>
							<originalvideofilename></originalvideofilename>
							<originalaudiofilename></originalaudiofilename>
						</logginginfo>
						<colorinfo>
							<lut></lut>
							<lut1></lut1>
							<asc_sop></asc_sop>
							<asc_sat></asc_sat>
							<lut2></lut2>
						</colorinfo>
						<labels>
							<label2>Iris</label2>
						</labels>
					</clipitem>
					<clipitem id="clipitem-269">
						<masterclipid>masterclip-118</masterclipid>
						<name>DJI_0099.mov</name>
						<enabled>TRUE</enabled>
						<duration>1337</duration>
						<rate>
							<timebase>24</timebase>
							<ntsc>FALSE</ntsc>
						</rate>
						<start>24944</start>
						<end>24966</end>
						<in>867</in>
						<out>889</out>
						<pproTicksIn>9176328000000</pproTicksIn>
						<pproTicksOut>9409176000000</pproTicksOut>
						<alphatype>none</alphatype>
						<file id="file-118"/>
						<logginginfo>
							<description></description>
							<scene></scene>
							<shottake></shottake>
							<lognote></lognote>
							<good></good>
							<originalvideofilename></originalvideofilename>
							<originalaudiofilename></originalaudiofilename>
						</logginginfo>
						<colorinfo>
							<lut></lut>
							<lut1></lut1>
							<asc_sop></asc_sop>
							<asc_sat></asc_sat>
							<lut2></lut2>
						</colorinfo>
						<labels>
							<label2>Iris</label2>
						</labels>
					</clipitem>
					<clipitem id="clipitem-270">
						<masterclipid>masterclip-118</masterclipid>
						<name>DJI_0099.mov</name>
						<enabled>TRUE</enabled>
						<duration>1337</duration>
						<rate>
							<timebase>24</timebase>
							<ntsc>FALSE</ntsc>
						</rate>
						<start>24966</start>
						<end>24993</end>
						<in>1052</in>
						<out>1079</out>
						<pproTicksIn>11134368000000</pproTicksIn>
						<pproTicksOut>11420136000000</pproTicksOut>
						<alphatype>none</alphatype>
						<file id="file-118"/>
						<logginginfo>
							<description></description>
							<scene></scene>
							<shottake></shottake>
							<lognote></lognote>
							<good></good>
							<originalvideofilename></originalvideofilename>
							<originalaudiofilename></originalaudiofilename>
						</logginginfo>
						<colorinfo>
							<lut></lut>
							<lut1></lut1>
							<asc_sop></asc_sop>
							<asc_sat></asc_sat>
							<lut2></lut2>
						</colorinfo>
						<labels>
							<label2>Iris</label2>
						</labels>
					</clipitem>
					<clipitem id="clipitem-271">
						<masterclipid>masterclip-118</masterclipid>
						<name>DJI_0099.mov</name>
						<enabled>TRUE</enabled>
						<duration>1337</duration>
						<rate>
							<timebase>24</timebase>
							<ntsc>FALSE</ntsc>
						</rate>
						<start>24993</start>
						<end>25010</end>
						<in>1158</in>
						<out>1175</out>
						<pproTicksIn>12256272000000</pproTicksIn>
						<pproTicksOut>12436200000000</pproTicksOut>
						<alphatype>none</alphatype>
						<file id="file-118"/>
						<logginginfo>
							<description></description>
							<scene></scene>
							<shottake></shottake>
							<lognote></lognote>
							<good></good>
							<originalvideofilename></originalvideofilename>
							<originalaudiofilename></originalaudiofilename>
						</logginginfo>
						<colorinfo>
							<lut></lut>
							<lut1></lut1>
							<asc_sop></asc_sop>
							<asc_sat></asc_sat>
							<lut2></lut2>
						</colorinfo>
						<labels>
							<label2>Iris</label2>
						</labels>
					</clipitem>
					<clipitem id="clipitem-272">
						<masterclipid>masterclip-118</masterclipid>
						<name>DJI_0099.mov</name>
						<enabled>TRUE</enabled>
						<duration>683</duration>
						<rate>
							<timebase>24</timebase>
							<ntsc>FALSE</ntsc>
						</rate>
						<start>25010</start>
						<end>25020</end>
						<in>653</in>
						<out>662</out>
						<pproTicksIn>13516217844461</pproTicksIn>
						<pproTicksOut>13723399399836</pproTicksOut>
						<alphatype>none</alphatype>
						<file id="file-118"/>
						<filter>
							<effect>
								<name>Time Remap</name>
								<effectid>timeremap</effectid>
								<effectcategory>motion</effectcategory>
								<effecttype>motion</effecttype>
								<mediatype>video</mediatype>
								<parameter authoringApp="PremierePro">
									<parameterid>variablespeed</parameterid>
									<name>variablespeed</name>
									<valuemin>0</valuemin>
									<valuemax>1</valuemax>
									<value>0</value>
								</parameter>
								<parameter authoringApp="PremierePro">
									<parameterid>speed</parameterid>
									<name>speed</name>
									<valuemin>-100000</valuemin>
									<valuemax>100000</valuemax>
									<value>195.75</value>
								</parameter>
								<parameter authoringApp="PremierePro">
									<parameterid>reverse</parameterid>
									<name>reverse</name>
									<value>FALSE</value>
								</parameter>
								<parameter authoringApp="PremierePro">
									<parameterid>frameblending</parameterid>
									<name>frameblending</name>
									<value>FALSE</value>
								</parameter>
								<parameter authoringApp="PremierePro">
									<parameterid>graphdict</parameterid>
									<name>graphdict</name>
									<valuemin>0</valuemin>
									<valuemax>1336</valuemax>
									<value>0</value>
									<keyframe>
										<when>0</when>
										<value>0</value>
										<speedvirtualkf>TRUE</speedvirtualkf>
										<speedkfstart>TRUE</speedkfstart>
									</keyframe>
									<keyframe>
										<when>653</when>
										<value>1278</value>
										<speedvirtualkf>TRUE</speedvirtualkf>
										<speedkfin>TRUE</speedkfin>
									</keyframe>
									<keyframe>
										<when>662</when>
										<value>1295</value>
										<speedvirtualkf>TRUE</speedvirtualkf>
										<speedkfout>TRUE</speedkfout>
									</keyframe>
									<keyframe>
										<when>683</when>
										<value>1336</value>
										<speedvirtualkf>TRUE</speedvirtualkf>
										<speedkfend>TRUE</speedkfend>
									</keyframe>
									<interpolation>
										<name>FCPCurve</name>
									</interpolation>
								</parameter>
							</effect>
						</filter>
						<logginginfo>
							<description></description>
							<scene></scene>
							<shottake></shottake>
							<lognote></lognote>
							<good></good>
							<originalvideofilename></originalvideofilename>
							<originalaudiofilename></originalaudiofilename>
						</logginginfo>
						<colorinfo>
							<lut></lut>
							<lut1></lut1>
							<asc_sop></asc_sop>
							<asc_sat></asc_sat>
							<lut2></lut2>
						</colorinfo>
						<labels>
							<label2>Iris</label2>
						</labels>
					</clipitem>
					<clipitem id="clipitem-273">
						<masterclipid>masterclip-119</masterclipid>
						<name>A021_11020049_C001.mp4</name>
						<enabled>TRUE</enabled>
						<duration>2532</duration>
						<rate>
							<timebase>24</timebase>
							<ntsc>FALSE</ntsc>
						</rate>
						<start>25066</start>
						<end>25117</end>
						<in>1102</in>
						<out>1153</out>
						<pproTicksIn>11663568000000</pproTicksIn>
						<pproTicksOut>12203352000000</pproTicksOut>
						<alphatype>none</alphatype>
						<pixelaspectratio>square</pixelaspectratio>
						<anamorphic>FALSE</anamorphic>
						<file id="file-119">
							<name>A021_11020049_C001.mp4</name>
							<pathurl>file://localhost/F%3a/love%20song/boating/A021_11020049_C001.mp4</pathurl>
							<rate>
								<timebase>24</timebase>
								<ntsc>FALSE</ntsc>
							</rate>
							<duration>2532</duration>
							<timecode>
								<rate>
									<timebase>24</timebase>
									<ntsc>FALSE</ntsc>
								</rate>
								<string>00:49:11:03</string>
								<frame>70827</frame>
								<displayformat>NDF</displayformat>
							</timecode>
							<media>
								<video>
									<samplecharacteristics>
										<rate>
											<timebase>24</timebase>
											<ntsc>FALSE</ntsc>
										</rate>
										<width>1920</width>
										<height>1080</height>
										<anamorphic>FALSE</anamorphic>
										<pixelaspectratio>square</pixelaspectratio>
										<fielddominance>none</fielddominance>
									</samplecharacteristics>
								</video>
								<audio>
									<samplecharacteristics>
										<depth>16</depth>
										<samplerate>48000</samplerate>
									</samplecharacteristics>
									<channelcount>2</channelcount>
								</audio>
							</media>
						</file>
						<logginginfo>
							<description></description>
							<scene></scene>
							<shottake></shottake>
							<lognote></lognote>
							<good></good>
							<originalvideofilename></originalvideofilename>
							<originalaudiofilename></originalaudiofilename>
						</logginginfo>
						<colorinfo>
							<lut></lut>
							<lut1></lut1>
							<asc_sop></asc_sop>
							<asc_sat></asc_sat>
							<lut2></lut2>
						</colorinfo>
						<labels>
							<label2>Iris</label2>
						</labels>
					</clipitem>
					<clipitem id="clipitem-274">
						<masterclipid>masterclip-120</masterclipid>
						<name>A021_11020123_C011.mp4</name>
						<enabled>TRUE</enabled>
						<duration>5365</duration>
						<rate>
							<timebase>24</timebase>
							<ntsc>FALSE</ntsc>
						</rate>
						<start>25117</start>
						<end>25166</end>
						<in>3242</in>
						<out>3290</out>
						<pproTicksIn>68616072000000</pproTicksIn>
						<pproTicksOut>69653304000000</pproTicksOut>
						<alphatype>none</alphatype>
						<pixelaspectratio>square</pixelaspectratio>
						<anamorphic>FALSE</anamorphic>
						<file id="file-120">
							<name>A021_11020123_C011.mp4</name>
							<pathurl>file://localhost/F%3a/love%20song/boating/A021_11020123_C011.mp4</pathurl>
							<rate>
								<timebase>24</timebase>
								<ntsc>FALSE</ntsc>
							</rate>
							<duration>10730</duration>
							<timecode>
								<rate>
									<timebase>24</timebase>
									<ntsc>FALSE</ntsc>
								</rate>
								<string>01:23:32:08</string>
								<frame>120296</frame>
								<displayformat>NDF</displayformat>
							</timecode>
							<media>
								<video>
									<samplecharacteristics>
										<rate>
											<timebase>24</timebase>
											<ntsc>FALSE</ntsc>
										</rate>
										<width>1920</width>
										<height>1080</height>
										<anamorphic>FALSE</anamorphic>
										<pixelaspectratio>square</pixelaspectratio>
										<fielddominance>none</fielddominance>
									</samplecharacteristics>
								</video>
								<audio>
									<samplecharacteristics>
										<depth>16</depth>
										<samplerate>48000</samplerate>
									</samplecharacteristics>
									<channelcount>2</channelcount>
								</audio>
							</media>
						</file>
						<filter>
							<effect>
								<name>Time Remap</name>
								<effectid>timeremap</effectid>
								<effectcategory>motion</effectcategory>
								<effecttype>motion</effecttype>
								<mediatype>video</mediatype>
								<parameter authoringApp="PremierePro">
									<parameterid>variablespeed</parameterid>
									<name>variablespeed</name>
									<valuemin>0</valuemin>
									<valuemax>1</valuemax>
									<value>0</value>
								</parameter>
								<parameter authoringApp="PremierePro">
									<parameterid>speed</parameterid>
									<name>speed</name>
									<valuemin>-100000</valuemin>
									<valuemax>100000</valuemax>
									<value>200</value>
								</parameter>
								<parameter authoringApp="PremierePro">
									<parameterid>reverse</parameterid>
									<name>reverse</name>
									<value>FALSE</value>
								</parameter>
								<parameter authoringApp="PremierePro">
									<parameterid>frameblending</parameterid>
									<name>frameblending</name>
									<value>FALSE</value>
								</parameter>
								<parameter authoringApp="PremierePro">
									<parameterid>graphdict</parameterid>
									<name>graphdict</name>
									<valuemin>0</valuemin>
									<valuemax>10730</valuemax>
									<value>0</value>
									<keyframe>
										<when>0</when>
										<value>0</value>
										<speedvirtualkf>TRUE</speedvirtualkf>
										<speedkfstart>TRUE</speedkfstart>
									</keyframe>
									<keyframe>
										<when>3242</when>
										<value>6484</value>
										<speedvirtualkf>TRUE</speedvirtualkf>
										<speedkfin>TRUE</speedkfin>
									</keyframe>
									<keyframe>
										<when>3290</when>
										<value>6580</value>
										<speedvirtualkf>TRUE</speedvirtualkf>
										<speedkfout>TRUE</speedkfout>
									</keyframe>
									<keyframe>
										<when>5365</when>
										<value>10730</value>
										<speedvirtualkf>TRUE</speedvirtualkf>
										<speedkfend>TRUE</speedkfend>
									</keyframe>
									<interpolation>
										<name>FCPCurve</name>
									</interpolation>
								</parameter>
							</effect>
						</filter>
						<logginginfo>
							<description></description>
							<scene></scene>
							<shottake></shottake>
							<lognote></lognote>
							<good></good>
							<originalvideofilename></originalvideofilename>
							<originalaudiofilename></originalaudiofilename>
						</logginginfo>
						<colorinfo>
							<lut></lut>
							<lut1></lut1>
							<asc_sop></asc_sop>
							<asc_sat></asc_sat>
							<lut2></lut2>
						</colorinfo>
						<labels>
							<label2>Iris</label2>
						</labels>
					</clipitem>
					<clipitem id="clipitem-275">
						<masterclipid>masterclip-120</masterclipid>
						<name>A021_11020123_C011.mp4</name>
						<enabled>TRUE</enabled>
						<duration>10730</duration>
						<rate>
							<timebase>24</timebase>
							<ntsc>FALSE</ntsc>
						</rate>
						<start>25213</start>
						<end>25236</end>
						<in>8901</in>
						<out>8924</out>
						<pproTicksIn>94208184000000</pproTicksIn>
						<pproTicksOut>94451616000000</pproTicksOut>
						<alphatype>none</alphatype>
						<file id="file-120"/>
						<logginginfo>
							<description></description>
							<scene></scene>
							<shottake></shottake>
							<lognote></lognote>
							<good></good>
							<originalvideofilename></originalvideofilename>
							<originalaudiofilename></originalaudiofilename>
						</logginginfo>
						<colorinfo>
							<lut></lut>
							<lut1></lut1>
							<asc_sop></asc_sop>
							<asc_sat></asc_sat>
							<lut2></lut2>
						</colorinfo>
						<labels>
							<label2>Iris</label2>
						</labels>
					</clipitem>
					<clipitem id="clipitem-276">
						<masterclipid>masterclip-121</masterclipid>
						<name>A021_11020230_C030.mp4</name>
						<enabled>TRUE</enabled>
						<duration>1170</duration>
						<rate>
							<timebase>24</timebase>
							<ntsc>FALSE</ntsc>
						</rate>
						<start>25236</start>
						<end>25261</end>
						<in>944</in>
						<out>968</out>
						<pproTicksIn>19972008000000</pproTicksIn>
						<pproTicksOut>20501208000000</pproTicksOut>
						<alphatype>none</alphatype>
						<pixelaspectratio>square</pixelaspectratio>
						<anamorphic>FALSE</anamorphic>
						<file id="file-121">
							<name>A021_11020230_C030.mp4</name>
							<pathurl>file://localhost/F%3a/love%20song/boating/A021_11020230_C030.mp4</pathurl>
							<rate>
								<timebase>24</timebase>
								<ntsc>FALSE</ntsc>
							</rate>
							<duration>2341</duration>
							<timecode>
								<rate>
									<timebase>24</timebase>
									<ntsc>FALSE</ntsc>
								</rate>
								<string>02:30:48:02</string>
								<frame>217154</frame>
								<displayformat>NDF</displayformat>
							</timecode>
							<media>
								<video>
									<samplecharacteristics>
										<rate>
											<timebase>24</timebase>
											<ntsc>FALSE</ntsc>
										</rate>
										<width>1920</width>
										<height>1080</height>
										<anamorphic>FALSE</anamorphic>
										<pixelaspectratio>square</pixelaspectratio>
										<fielddominance>none</fielddominance>
									</samplecharacteristics>
								</video>
								<audio>
									<samplecharacteristics>
										<depth>16</depth>
										<samplerate>48000</samplerate>
									</samplecharacteristics>
									<channelcount>2</channelcount>
								</audio>
							</media>
						</file>
						<filter>
							<effect>
								<name>Time Remap</name>
								<effectid>timeremap</effectid>
								<effectcategory>motion</effectcategory>
								<effecttype>motion</effecttype>
								<mediatype>video</mediatype>
								<parameter authoringApp="PremierePro">
									<parameterid>variablespeed</parameterid>
									<name>variablespeed</name>
									<valuemin>0</valuemin>
									<valuemax>1</valuemax>
									<value>0</value>
								</parameter>
								<parameter authoringApp="PremierePro">
									<parameterid>speed</parameterid>
									<name>speed</name>
									<valuemin>-100000</valuemin>
									<valuemax>100000</valuemax>
									<value>200</value>
								</parameter>
								<parameter authoringApp="PremierePro">
									<parameterid>reverse</parameterid>
									<name>reverse</name>
									<value>FALSE</value>
								</parameter>
								<parameter authoringApp="PremierePro">
									<parameterid>frameblending</parameterid>
									<name>frameblending</name>
									<value>FALSE</value>
								</parameter>
								<parameter authoringApp="PremierePro">
									<parameterid>graphdict</parameterid>
									<name>graphdict</name>
									<valuemin>0</valuemin>
									<valuemax>2340</valuemax>
									<value>0</value>
									<keyframe>
										<when>0</when>
										<value>0</value>
										<speedvirtualkf>TRUE</speedvirtualkf>
										<speedkfstart>TRUE</speedkfstart>
									</keyframe>
									<keyframe>
										<when>944</when>
										<value>1888</value>
										<speedvirtualkf>TRUE</speedvirtualkf>
										<speedkfin>TRUE</speedkfin>
									</keyframe>
									<keyframe>
										<when>968</when>
										<value>1936</value>
										<speedvirtualkf>TRUE</speedvirtualkf>
										<speedkfout>TRUE</speedkfout>
									</keyframe>
									<keyframe>
										<when>1170</when>
										<value>2340</value>
										<speedvirtualkf>TRUE</speedvirtualkf>
										<speedkfend>TRUE</speedkfend>
									</keyframe>
									<interpolation>
										<name>FCPCurve</name>
									</interpolation>
								</parameter>
							</effect>
						</filter>
						<logginginfo>
							<description></description>
							<scene></scene>
							<shottake></shottake>
							<lognote></lognote>
							<good></good>
							<originalvideofilename></originalvideofilename>
							<originalaudiofilename></originalaudiofilename>
						</logginginfo>
						<colorinfo>
							<lut></lut>
							<lut1></lut1>
							<asc_sop></asc_sop>
							<asc_sat></asc_sat>
							<lut2></lut2>
						</colorinfo>
						<labels>
							<label2>Iris</label2>
						</labels>
					</clipitem>
					<clipitem id="clipitem-277">
						<masterclipid>masterclip-122</masterclipid>
						<name>A021_11020226_C028.mp4</name>
						<enabled>TRUE</enabled>
						<duration>1861</duration>
						<rate>
							<timebase>24</timebase>
							<ntsc>FALSE</ntsc>
						</rate>
						<start>25261</start>
						<end>25284</end>
						<in>473</in>
						<out>496</out>
						<pproTicksIn>5006232000000</pproTicksIn>
						<pproTicksOut>5249664000000</pproTicksOut>
						<alphatype>none</alphatype>
						<pixelaspectratio>square</pixelaspectratio>
						<anamorphic>FALSE</anamorphic>
						<file id="file-122">
							<name>A021_11020226_C028.mp4</name>
							<pathurl>file://localhost/F%3a/love%20song/boating/A021_11020226_C028.mp4</pathurl>
							<rate>
								<timebase>24</timebase>
								<ntsc>FALSE</ntsc>
							</rate>
							<duration>1861</duration>
							<timecode>
								<rate>
									<timebase>24</timebase>
									<ntsc>FALSE</ntsc>
								</rate>
								<string>02:26:28:17</string>
								<frame>210929</frame>
								<displayformat>NDF</displayformat>
							</timecode>
							<media>
								<video>
									<samplecharacteristics>
										<rate>
											<timebase>24</timebase>
											<ntsc>FALSE</ntsc>
										</rate>
										<width>1920</width>
										<height>1080</height>
										<anamorphic>FALSE</anamorphic>
										<pixelaspectratio>square</pixelaspectratio>
										<fielddominance>none</fielddominance>
									</samplecharacteristics>
								</video>
								<audio>
									<samplecharacteristics>
										<depth>16</depth>
										<samplerate>48000</samplerate>
									</samplecharacteristics>
									<channelcount>2</channelcount>
								</audio>
							</media>
						</file>
						<logginginfo>
							<description></description>
							<scene></scene>
							<shottake></shottake>
							<lognote></lognote>
							<good></good>
							<originalvideofilename></originalvideofilename>
							<originalaudiofilename></originalaudiofilename>
						</logginginfo>
						<colorinfo>
							<lut></lut>
							<lut1></lut1>
							<asc_sop></asc_sop>
							<asc_sat></asc_sat>
							<lut2></lut2>
						</colorinfo>
						<labels>
							<label2>Iris</label2>
						</labels>
					</clipitem>
					<clipitem id="clipitem-278">
						<masterclipid>masterclip-122</masterclipid>
						<name>A021_11020226_C028.mp4</name>
						<enabled>TRUE</enabled>
						<duration>1861</duration>
						<rate>
							<timebase>24</timebase>
							<ntsc>FALSE</ntsc>
						</rate>
						<start>25284</start>
						<end>25314</end>
						<in>1372</in>
						<out>1402</out>
						<pproTicksIn>14521248000000</pproTicksIn>
						<pproTicksOut>14838768000000</pproTicksOut>
						<alphatype>none</alphatype>
						<file id="file-122"/>
						<logginginfo>
							<description></description>
							<scene></scene>
							<shottake></shottake>
							<lognote></lognote>
							<good></good>
							<originalvideofilename></originalvideofilename>
							<originalaudiofilename></originalaudiofilename>
						</logginginfo>
						<colorinfo>
							<lut></lut>
							<lut1></lut1>
							<asc_sop></asc_sop>
							<asc_sat></asc_sat>
							<lut2></lut2>
						</colorinfo>
						<labels>
							<label2>Iris</label2>
						</labels>
					</clipitem>
					<clipitem id="clipitem-279">
						<masterclipid>masterclip-120</masterclipid>
						<name>A021_11020123_C011.mp4</name>
						<enabled>TRUE</enabled>
						<duration>7153</duration>
						<rate>
							<timebase>24</timebase>
							<ntsc>FALSE</ntsc>
						</rate>
						<start>25314</start>
						<end>25363</end>
						<in>1168</in>
						<out>1217</out>
						<pproTicksIn>18543168000000</pproTicksIn>
						<pproTicksOut>19321092000000</pproTicksOut>
						<alphatype>none</alphatype>
						<file id="file-120"/>
						<filter>
							<effect>
								<name>Time Remap</name>
								<effectid>timeremap</effectid>
								<effectcategory>motion</effectcategory>
								<effecttype>motion</effecttype>
								<mediatype>video</mediatype>
								<parameter authoringApp="PremierePro">
									<parameterid>variablespeed</parameterid>
									<name>variablespeed</name>
									<valuemin>0</valuemin>
									<valuemax>1</valuemax>
									<value>0</value>
								</parameter>
								<parameter authoringApp="PremierePro">
									<parameterid>speed</parameterid>
									<name>speed</name>
									<valuemin>-100000</valuemin>
									<valuemax>100000</valuemax>
									<value>150</value>
								</parameter>
								<parameter authoringApp="PremierePro">
									<parameterid>reverse</parameterid>
									<name>reverse</name>
									<value>FALSE</value>
								</parameter>
								<parameter authoringApp="PremierePro">
									<parameterid>frameblending</parameterid>
									<name>frameblending</name>
									<value>FALSE</value>
								</parameter>
								<parameter authoringApp="PremierePro">
									<parameterid>graphdict</parameterid>
									<name>graphdict</name>
									<valuemin>0</valuemin>
									<valuemax>10729</valuemax>
									<value>0</value>
									<keyframe>
										<when>0</when>
										<value>0</value>
										<speedvirtualkf>TRUE</speedvirtualkf>
										<speedkfstart>TRUE</speedkfstart>
									</keyframe>
									<keyframe>
										<when>1168</when>
										<value>1752</value>
										<speedvirtualkf>TRUE</speedvirtualkf>
										<speedkfin>TRUE</speedkfin>
									</keyframe>
									<keyframe>
										<when>1217</when>
										<value>1825</value>
										<speedvirtualkf>TRUE</speedvirtualkf>
										<speedkfout>TRUE</speedkfout>
									</keyframe>
									<keyframe>
										<when>7153</when>
										<value>10729</value>
										<speedvirtualkf>TRUE</speedvirtualkf>
										<speedkfend>TRUE</speedkfend>
									</keyframe>
									<interpolation>
										<name>FCPCurve</name>
									</interpolation>
								</parameter>
							</effect>
						</filter>
						<logginginfo>
							<description></description>
							<scene></scene>
							<shottake></shottake>
							<lognote></lognote>
							<good></good>
							<originalvideofilename></originalvideofilename>
							<originalaudiofilename></originalaudiofilename>
						</logginginfo>
						<colorinfo>
							<lut></lut>
							<lut1></lut1>
							<asc_sop></asc_sop>
							<asc_sat></asc_sat>
							<lut2></lut2>
						</colorinfo>
						<labels>
							<label2>Iris</label2>
						</labels>
					</clipitem>
					<clipitem id="clipitem-280">
						<masterclipid>masterclip-123</masterclipid>
						<name>2021_12_14_09_08_31.mov</name>
						<enabled>TRUE</enabled>
						<duration>299</duration>
						<rate>
							<timebase>24</timebase>
							<ntsc>FALSE</ntsc>
						</rate>
						<start>25363</start>
						<end>25395</end>
						<in>84</in>
						<out>116</out>
						<pproTicksIn>1778112000000</pproTicksIn>
						<pproTicksOut>2455488000000</pproTicksOut>
						<alphatype>none</alphatype>
						<pixelaspectratio>square</pixelaspectratio>
						<anamorphic>FALSE</anamorphic>
						<file id="file-123">
							<name>2021_12_14_09_08_31.mov</name>
							<pathurl>file://localhost/F%3a/love%20song/boating/offline/2021_12_14_09_08_31.mov</pathurl>
							<rate>
								<timebase>25</timebase>
								<ntsc>FALSE</ntsc>
							</rate>
							<duration>623</duration>
							<timecode>
								<rate>
									<timebase>25</timebase>
									<ntsc>FALSE</ntsc>
								</rate>
								<string>00:00:00:00</string>
								<frame>0</frame>
								<displayformat>NDF</displayformat>
							</timecode>
							<media>
								<video>
									<samplecharacteristics>
										<rate>
											<timebase>25</timebase>
											<ntsc>FALSE</ntsc>
										</rate>
										<width>1920</width>
										<height>1080</height>
										<anamorphic>FALSE</anamorphic>
										<pixelaspectratio>square</pixelaspectratio>
										<fielddominance>none</fielddominance>
									</samplecharacteristics>
								</video>
								<audio>
									<samplecharacteristics>
										<depth>16</depth>
										<samplerate>48000</samplerate>
									</samplecharacteristics>
									<channelcount>2</channelcount>
								</audio>
							</media>
						</file>
						<filter>
							<effect>
								<name>Time Remap</name>
								<effectid>timeremap</effectid>
								<effectcategory>motion</effectcategory>
								<effecttype>motion</effecttype>
								<mediatype>video</mediatype>
								<parameter authoringApp="PremierePro">
									<parameterid>variablespeed</parameterid>
									<name>variablespeed</name>
									<valuemin>0</valuemin>
									<valuemax>1</valuemax>
									<value>0</value>
								</parameter>
								<parameter authoringApp="PremierePro">
									<parameterid>speed</parameterid>
									<name>speed</name>
									<valuemin>-100000</valuemin>
									<valuemax>100000</valuemax>
									<value>200</value>
								</parameter>
								<parameter authoringApp="PremierePro">
									<parameterid>reverse</parameterid>
									<name>reverse</name>
									<value>FALSE</value>
								</parameter>
								<parameter authoringApp="PremierePro">
									<parameterid>frameblending</parameterid>
									<name>frameblending</name>
									<value>FALSE</value>
								</parameter>
								<parameter authoringApp="PremierePro">
									<parameterid>graphdict</parameterid>
									<name>graphdict</name>
									<valuemin>0</valuemin>
									<valuemax>598</valuemax>
									<value>0</value>
									<keyframe>
										<when>0</when>
										<value>0</value>
										<speedvirtualkf>TRUE</speedvirtualkf>
										<speedkfstart>TRUE</speedkfstart>
									</keyframe>
									<keyframe>
										<when>84</when>
										<value>168</value>
										<speedvirtualkf>TRUE</speedvirtualkf>
										<speedkfin>TRUE</speedkfin>
									</keyframe>
									<keyframe>
										<when>116</when>
										<value>232</value>
										<speedvirtualkf>TRUE</speedvirtualkf>
										<speedkfout>TRUE</speedkfout>
									</keyframe>
									<keyframe>
										<when>299</when>
										<value>598</value>
										<speedvirtualkf>TRUE</speedvirtualkf>
										<speedkfend>TRUE</speedkfend>
									</keyframe>
									<interpolation>
										<name>FCPCurve</name>
									</interpolation>
								</parameter>
							</effect>
						</filter>
						<logginginfo>
							<description></description>
							<scene></scene>
							<shottake></shottake>
							<lognote></lognote>
							<good></good>
							<originalvideofilename></originalvideofilename>
							<originalaudiofilename></originalaudiofilename>
						</logginginfo>
						<colorinfo>
							<lut></lut>
							<lut1></lut1>
							<asc_sop></asc_sop>
							<asc_sat></asc_sat>
							<lut2></lut2>
						</colorinfo>
						<labels>
							<label2>Iris</label2>
						</labels>
					</clipitem>
					<clipitem id="clipitem-281">
						<masterclipid>masterclip-123</masterclipid>
						<name>2021_12_14_09_08_31.mov</name>
						<enabled>TRUE</enabled>
						<duration>99</duration>
						<rate>
							<timebase>24</timebase>
							<ntsc>FALSE</ntsc>
						</rate>
						<start>25395</start>
						<end>25410</end>
						<in>39</in>
						<out>53</out>
						<pproTicksIn>2455488000000</pproTicksIn>
						<pproTicksOut>3408048000000</pproTicksOut>
						<alphatype>none</alphatype>
						<file id="file-123"/>
						<filter>
							<effect>
								<name>Time Remap</name>
								<effectid>timeremap</effectid>
								<effectcategory>motion</effectcategory>
								<effecttype>motion</effecttype>
								<mediatype>video</mediatype>
								<parameter authoringApp="PremierePro">
									<parameterid>variablespeed</parameterid>
									<name>variablespeed</name>
									<valuemin>0</valuemin>
									<valuemax>1</valuemax>
									<value>0</value>
								</parameter>
								<parameter authoringApp="PremierePro">
									<parameterid>speed</parameterid>
									<name>speed</name>
									<valuemin>-100000</valuemin>
									<valuemax>100000</valuemax>
									<value>600</value>
								</parameter>
								<parameter authoringApp="PremierePro">
									<parameterid>reverse</parameterid>
									<name>reverse</name>
									<value>FALSE</value>
								</parameter>
								<parameter authoringApp="PremierePro">
									<parameterid>frameblending</parameterid>
									<name>frameblending</name>
									<value>FALSE</value>
								</parameter>
								<parameter authoringApp="PremierePro">
									<parameterid>graphdict</parameterid>
									<name>graphdict</name>
									<valuemin>0</valuemin>
									<valuemax>594</valuemax>
									<value>0</value>
									<keyframe>
										<when>0</when>
										<value>0</value>
										<speedvirtualkf>TRUE</speedvirtualkf>
										<speedkfstart>TRUE</speedkfstart>
									</keyframe>
									<keyframe>
										<when>39</when>
										<value>234</value>
										<speedvirtualkf>TRUE</speedvirtualkf>
										<speedkfin>TRUE</speedkfin>
									</keyframe>
									<keyframe>
										<when>53</when>
										<value>318</value>
										<speedvirtualkf>TRUE</speedvirtualkf>
										<speedkfout>TRUE</speedkfout>
									</keyframe>
									<keyframe>
										<when>99</when>
										<value>594</value>
										<speedvirtualkf>TRUE</speedvirtualkf>
										<speedkfend>TRUE</speedkfend>
									</keyframe>
									<interpolation>
										<name>FCPCurve</name>
									</interpolation>
								</parameter>
							</effect>
						</filter>
						<logginginfo>
							<description></description>
							<scene></scene>
							<shottake></shottake>
							<lognote></lognote>
							<good></good>
							<originalvideofilename></originalvideofilename>
							<originalaudiofilename></originalaudiofilename>
						</logginginfo>
						<colorinfo>
							<lut></lut>
							<lut1></lut1>
							<asc_sop></asc_sop>
							<asc_sat></asc_sat>
							<lut2></lut2>
						</colorinfo>
						<labels>
							<label2>Iris</label2>
						</labels>
					</clipitem>
					<clipitem id="clipitem-282">
						<masterclipid>masterclip-124</masterclipid>
						<name>2021_12_14_09_08_06.mov</name>
						<enabled>TRUE</enabled>
						<duration>199</duration>
						<rate>
							<timebase>24</timebase>
							<ntsc>FALSE</ntsc>
						</rate>
						<start>25410</start>
						<end>25423</end>
						<in>70</in>
						<out>82</out>
						<pproTicksIn>1471176000000</pproTicksIn>
						<pproTicksOut>1746360000000</pproTicksOut>
						<alphatype>none</alphatype>
						<pixelaspectratio>square</pixelaspectratio>
						<anamorphic>FALSE</anamorphic>
						<file id="file-124">
							<name>2021_12_14_09_08_06.mov</name>
							<pathurl>file://localhost/F%3a/love%20song/boating/offline/2021_12_14_09_08_06.mov</pathurl>
							<rate>
								<timebase>25</timebase>
								<ntsc>FALSE</ntsc>
							</rate>
							<duration>416</duration>
							<timecode>
								<rate>
									<timebase>25</timebase>
									<ntsc>FALSE</ntsc>
								</rate>
								<string>00:00:00:00</string>
								<frame>0</frame>
								<displayformat>NDF</displayformat>
							</timecode>
							<media>
								<video>
									<samplecharacteristics>
										<rate>
											<timebase>25</timebase>
											<ntsc>FALSE</ntsc>
										</rate>
										<width>1920</width>
										<height>1080</height>
										<anamorphic>FALSE</anamorphic>
										<pixelaspectratio>square</pixelaspectratio>
										<fielddominance>none</fielddominance>
									</samplecharacteristics>
								</video>
								<audio>
									<samplecharacteristics>
										<depth>16</depth>
										<samplerate>48000</samplerate>
									</samplecharacteristics>
									<channelcount>2</channelcount>
								</audio>
							</media>
						</file>
						<filter>
							<effect>
								<name>Time Remap</name>
								<effectid>timeremap</effectid>
								<effectcategory>motion</effectcategory>
								<effecttype>motion</effecttype>
								<mediatype>video</mediatype>
								<parameter authoringApp="PremierePro">
									<parameterid>variablespeed</parameterid>
									<name>variablespeed</name>
									<valuemin>0</valuemin>
									<valuemax>1</valuemax>
									<value>0</value>
								</parameter>
								<parameter authoringApp="PremierePro">
									<parameterid>speed</parameterid>
									<name>speed</name>
									<valuemin>-100000</valuemin>
									<valuemax>100000</valuemax>
									<value>200</value>
								</parameter>
								<parameter authoringApp="PremierePro">
									<parameterid>reverse</parameterid>
									<name>reverse</name>
									<value>FALSE</value>
								</parameter>
								<parameter authoringApp="PremierePro">
									<parameterid>frameblending</parameterid>
									<name>frameblending</name>
									<value>FALSE</value>
								</parameter>
								<parameter authoringApp="PremierePro">
									<parameterid>graphdict</parameterid>
									<name>graphdict</name>
									<valuemin>0</valuemin>
									<valuemax>398</valuemax>
									<value>0</value>
									<keyframe>
										<when>0</when>
										<value>0</value>
										<speedvirtualkf>TRUE</speedvirtualkf>
										<speedkfstart>TRUE</speedkfstart>
									</keyframe>
									<keyframe>
										<when>70</when>
										<value>140</value>
										<speedvirtualkf>TRUE</speedvirtualkf>
										<speedkfin>TRUE</speedkfin>
									</keyframe>
									<keyframe>
										<when>82</when>
										<value>164</value>
										<speedvirtualkf>TRUE</speedvirtualkf>
										<speedkfout>TRUE</speedkfout>
									</keyframe>
									<keyframe>
										<when>199</when>
										<value>398</value>
										<speedvirtualkf>TRUE</speedvirtualkf>
										<speedkfend>TRUE</speedkfend>
									</keyframe>
									<interpolation>
										<name>FCPCurve</name>
									</interpolation>
								</parameter>
							</effect>
						</filter>
						<logginginfo>
							<description></description>
							<scene></scene>
							<shottake></shottake>
							<lognote></lognote>
							<good></good>
							<originalvideofilename></originalvideofilename>
							<originalaudiofilename></originalaudiofilename>
						</logginginfo>
						<colorinfo>
							<lut></lut>
							<lut1></lut1>
							<asc_sop></asc_sop>
							<asc_sat></asc_sat>
							<lut2></lut2>
						</colorinfo>
						<labels>
							<label2>Iris</label2>
						</labels>
					</clipitem>
					<clipitem id="clipitem-283">
						<masterclipid>masterclip-124</masterclipid>
						<name>2021_12_14_09_08_06.mov</name>
						<enabled>TRUE</enabled>
						<duration>20</duration>
						<rate>
							<timebase>24</timebase>
							<ntsc>FALSE</ntsc>
						</rate>
						<start>25423</start>
						<end>25431</end>
						<in>11</in>
						<out>18</out>
						<pproTicksIn>2159136000000</pproTicksIn>
						<pproTicksOut>3811729717876</pproTicksOut>
						<alphatype>none</alphatype>
						<file id="file-124"/>
						<filter>
							<effect>
								<name>Time Remap</name>
								<effectid>timeremap</effectid>
								<effectcategory>motion</effectcategory>
								<effecttype>motion</effecttype>
								<mediatype>video</mediatype>
								<parameter authoringApp="PremierePro">
									<parameterid>variablespeed</parameterid>
									<name>variablespeed</name>
									<valuemin>0</valuemin>
									<valuemax>1</valuemax>
									<value>0</value>
								</parameter>
								<parameter authoringApp="PremierePro">
									<parameterid>speed</parameterid>
									<name>speed</name>
									<valuemin>-100000</valuemin>
									<valuemax>100000</valuemax>
									<value>1951.76</value>
								</parameter>
								<parameter authoringApp="PremierePro">
									<parameterid>reverse</parameterid>
									<name>reverse</name>
									<value>FALSE</value>
								</parameter>
								<parameter authoringApp="PremierePro">
									<parameterid>frameblending</parameterid>
									<name>frameblending</name>
									<value>FALSE</value>
								</parameter>
								<parameter authoringApp="PremierePro">
									<parameterid>graphdict</parameterid>
									<name>graphdict</name>
									<valuemin>0</valuemin>
									<valuemax>390</valuemax>
									<value>0</value>
									<keyframe>
										<when>0</when>
										<value>0</value>
										<speedvirtualkf>TRUE</speedvirtualkf>
										<speedkfstart>TRUE</speedkfstart>
									</keyframe>
									<keyframe>
										<when>11</when>
										<value>214</value>
										<speedvirtualkf>TRUE</speedvirtualkf>
										<speedkfin>TRUE</speedkfin>
									</keyframe>
									<keyframe>
										<when>18</when>
										<value>351</value>
										<speedvirtualkf>TRUE</speedvirtualkf>
										<speedkfout>TRUE</speedkfout>
									</keyframe>
									<keyframe>
										<when>20</when>
										<value>390</value>
										<speedvirtualkf>TRUE</speedvirtualkf>
										<speedkfend>TRUE</speedkfend>
									</keyframe>
									<interpolation>
										<name>FCPCurve</name>
									</interpolation>
								</parameter>
							</effect>
						</filter>
						<logginginfo>
							<description></description>
							<scene></scene>
							<shottake></shottake>
							<lognote></lognote>
							<good></good>
							<originalvideofilename></originalvideofilename>
							<originalaudiofilename></originalaudiofilename>
						</logginginfo>
						<colorinfo>
							<lut></lut>
							<lut1></lut1>
							<asc_sop></asc_sop>
							<asc_sat></asc_sat>
							<lut2></lut2>
						</colorinfo>
						<labels>
							<label2>Iris</label2>
						</labels>
					</clipitem>
					<clipitem id="clipitem-284">
						<masterclipid>masterclip-125</masterclipid>
						<name>2021_12_14_14_05_54.mov</name>
						<enabled>TRUE</enabled>
						<duration>123</duration>
						<rate>
							<timebase>24</timebase>
							<ntsc>FALSE</ntsc>
						</rate>
						<start>25431</start>
						<end>25452</end>
						<in>3</in>
						<out>23</out>
						<pproTicksIn>116424000000</pproTicksIn>
						<pproTicksOut>1227744000000</pproTicksOut>
						<alphatype>none</alphatype>
						<pixelaspectratio>square</pixelaspectratio>
						<anamorphic>FALSE</anamorphic>
						<file id="file-125">
							<name>2021_12_14_14_05_54.mov</name>
							<pathurl>file://localhost/F%3a/love%20song/beach/offline/2021_12_14_14_05_54.mov</pathurl>
							<rate>
								<timebase>24</timebase>
								<ntsc>FALSE</ntsc>
							</rate>
							<duration>615</duration>
							<timecode>
								<rate>
									<timebase>24</timebase>
									<ntsc>FALSE</ntsc>
								</rate>
								<string>00:00:00:00</string>
								<frame>0</frame>
								<displayformat>NDF</displayformat>
							</timecode>
							<media>
								<video>
									<samplecharacteristics>
										<rate>
											<timebase>24</timebase>
											<ntsc>FALSE</ntsc>
										</rate>
										<width>1920</width>
										<height>1080</height>
										<anamorphic>FALSE</anamorphic>
										<pixelaspectratio>square</pixelaspectratio>
										<fielddominance>none</fielddominance>
									</samplecharacteristics>
								</video>
								<audio>
									<samplecharacteristics>
										<depth>16</depth>
										<samplerate>48000</samplerate>
									</samplecharacteristics>
									<channelcount>2</channelcount>
								</audio>
							</media>
						</file>
						<filter>
							<effect>
								<name>Time Remap</name>
								<effectid>timeremap</effectid>
								<effectcategory>motion</effectcategory>
								<effecttype>motion</effecttype>
								<mediatype>video</mediatype>
								<parameter authoringApp="PremierePro">
									<parameterid>variablespeed</parameterid>
									<name>variablespeed</name>
									<valuemin>0</valuemin>
									<valuemax>1</valuemax>
									<value>0</value>
								</parameter>
								<parameter authoringApp="PremierePro">
									<parameterid>speed</parameterid>
									<name>speed</name>
									<valuemin>-100000</valuemin>
									<valuemax>100000</valuemax>
									<value>500</value>
								</parameter>
								<parameter authoringApp="PremierePro">
									<parameterid>reverse</parameterid>
									<name>reverse</name>
									<value>FALSE</value>
								</parameter>
								<parameter authoringApp="PremierePro">
									<parameterid>frameblending</parameterid>
									<name>frameblending</name>
									<value>FALSE</value>
								</parameter>
								<parameter authoringApp="PremierePro">
									<parameterid>graphdict</parameterid>
									<name>graphdict</name>
									<valuemin>0</valuemin>
									<valuemax>615</valuemax>
									<value>0</value>
									<keyframe>
										<when>0</when>
										<value>0</value>
										<speedvirtualkf>TRUE</speedvirtualkf>
										<speedkfstart>TRUE</speedkfstart>
									</keyframe>
									<keyframe>
										<when>3</when>
										<value>15</value>
										<speedvirtualkf>TRUE</speedvirtualkf>
										<speedkfin>TRUE</speedkfin>
									</keyframe>
									<keyframe>
										<when>23</when>
										<value>115</value>
										<speedvirtualkf>TRUE</speedvirtualkf>
										<speedkfout>TRUE</speedkfout>
									</keyframe>
									<keyframe>
										<when>123</when>
										<value>615</value>
										<speedvirtualkf>TRUE</speedvirtualkf>
										<speedkfend>TRUE</speedkfend>
									</keyframe>
									<interpolation>
										<name>FCPCurve</name>
									</interpolation>
								</parameter>
							</effect>
						</filter>
						<logginginfo>
							<description></description>
							<scene></scene>
							<shottake></shottake>
							<lognote></lognote>
							<good></good>
							<originalvideofilename></originalvideofilename>
							<originalaudiofilename></originalaudiofilename>
						</logginginfo>
						<colorinfo>
							<lut></lut>
							<lut1></lut1>
							<asc_sop></asc_sop>
							<asc_sat></asc_sat>
							<lut2></lut2>
						</colorinfo>
						<labels>
							<label2>Iris</label2>
						</labels>
					</clipitem>
					<clipitem id="clipitem-285">
						<masterclipid>masterclip-126</masterclipid>
						<name>2021_12_14_15_48_01.mov</name>
						<enabled>TRUE</enabled>
						<duration>609</duration>
						<rate>
							<timebase>24</timebase>
							<ntsc>FALSE</ntsc>
						</rate>
						<start>25452</start>
						<end>25465</end>
						<in>342</in>
						<out>355</out>
						<pproTicksIn>3619728000000</pproTicksIn>
						<pproTicksOut>3757320000000</pproTicksOut>
						<alphatype>none</alphatype>
						<pixelaspectratio>square</pixelaspectratio>
						<anamorphic>FALSE</anamorphic>
						<file id="file-126">
							<name>2021_12_14_15_48_01.mov</name>
							<pathurl>file://localhost/F%3a/love%20song/beach/offline/2021_12_14_15_48_01.mov</pathurl>
							<rate>
								<timebase>24</timebase>
								<ntsc>FALSE</ntsc>
							</rate>
							<duration>609</duration>
							<timecode>
								<rate>
									<timebase>24</timebase>
									<ntsc>FALSE</ntsc>
								</rate>
								<string>00:00:00:00</string>
								<frame>0</frame>
								<displayformat>NDF</displayformat>
							</timecode>
							<media>
								<video>
									<samplecharacteristics>
										<rate>
											<timebase>24</timebase>
											<ntsc>FALSE</ntsc>
										</rate>
										<width>1920</width>
										<height>1080</height>
										<anamorphic>FALSE</anamorphic>
										<pixelaspectratio>square</pixelaspectratio>
										<fielddominance>none</fielddominance>
									</samplecharacteristics>
								</video>
								<audio>
									<samplecharacteristics>
										<depth>16</depth>
										<samplerate>48000</samplerate>
									</samplecharacteristics>
									<channelcount>2</channelcount>
								</audio>
							</media>
						</file>
						<logginginfo>
							<description></description>
							<scene></scene>
							<shottake></shottake>
							<lognote></lognote>
							<good></good>
							<originalvideofilename></originalvideofilename>
							<originalaudiofilename></originalaudiofilename>
						</logginginfo>
						<colorinfo>
							<lut></lut>
							<lut1></lut1>
							<asc_sop></asc_sop>
							<asc_sat></asc_sat>
							<lut2></lut2>
						</colorinfo>
						<labels>
							<label2>Iris</label2>
						</labels>
					</clipitem>
					<clipitem id="clipitem-286">
						<masterclipid>masterclip-127</masterclipid>
						<name>2021_12_14_15_48_44.mov</name>
						<enabled>TRUE</enabled>
						<duration>295</duration>
						<rate>
							<timebase>24</timebase>
							<ntsc>FALSE</ntsc>
						</rate>
						<start>25465</start>
						<end>25483</end>
						<in>216</in>
						<out>233</out>
						<pproTicksIn>2739139200000</pproTicksIn>
						<pproTicksOut>2967753600000</pproTicksOut>
						<alphatype>none</alphatype>
						<pixelaspectratio>square</pixelaspectratio>
						<anamorphic>FALSE</anamorphic>
						<file id="file-127">
							<name>2021_12_14_15_48_44.mov</name>
							<pathurl>file://localhost/F%3a/love%20song/beach/offline/2021_12_14_15_48_44.mov</pathurl>
							<rate>
								<timebase>25</timebase>
								<ntsc>FALSE</ntsc>
							</rate>
							<duration>369</duration>
							<timecode>
								<rate>
									<timebase>25</timebase>
									<ntsc>FALSE</ntsc>
								</rate>
								<string>00:00:00:00</string>
								<frame>0</frame>
								<displayformat>NDF</displayformat>
							</timecode>
							<media>
								<video>
									<samplecharacteristics>
										<rate>
											<timebase>25</timebase>
											<ntsc>FALSE</ntsc>
										</rate>
										<width>1920</width>
										<height>1080</height>
										<anamorphic>FALSE</anamorphic>
										<pixelaspectratio>square</pixelaspectratio>
										<fielddominance>none</fielddominance>
									</samplecharacteristics>
								</video>
								<audio>
									<samplecharacteristics>
										<depth>16</depth>
										<samplerate>48000</samplerate>
									</samplecharacteristics>
									<channelcount>2</channelcount>
								</audio>
							</media>
						</file>
						<filter>
							<effect>
								<name>Time Remap</name>
								<effectid>timeremap</effectid>
								<effectcategory>motion</effectcategory>
								<effecttype>motion</effecttype>
								<mediatype>video</mediatype>
								<parameter authoringApp="PremierePro">
									<parameterid>variablespeed</parameterid>
									<name>variablespeed</name>
									<valuemin>0</valuemin>
									<valuemax>1</valuemax>
									<value>0</value>
								</parameter>
								<parameter authoringApp="PremierePro">
									<parameterid>speed</parameterid>
									<name>speed</name>
									<valuemin>-100000</valuemin>
									<valuemax>100000</valuemax>
									<value>120</value>
								</parameter>
								<parameter authoringApp="PremierePro">
									<parameterid>reverse</parameterid>
									<name>reverse</name>
									<value>FALSE</value>
								</parameter>
								<parameter authoringApp="PremierePro">
									<parameterid>frameblending</parameterid>
									<name>frameblending</name>
									<value>FALSE</value>
								</parameter>
								<parameter authoringApp="PremierePro">
									<parameterid>graphdict</parameterid>
									<name>graphdict</name>
									<valuemin>0</valuemin>
									<valuemax>354</valuemax>
									<value>0</value>
									<keyframe>
										<when>0</when>
										<value>0</value>
										<speedvirtualkf>TRUE</speedvirtualkf>
										<speedkfstart>TRUE</speedkfstart>
									</keyframe>
									<keyframe>
										<when>216</when>
										<value>259</value>
										<speedvirtualkf>TRUE</speedvirtualkf>
										<speedkfin>TRUE</speedkfin>
									</keyframe>
									<keyframe>
										<when>233</when>
										<value>279</value>
										<speedvirtualkf>TRUE</speedvirtualkf>
										<speedkfout>TRUE</speedkfout>
									</keyframe>
									<keyframe>
										<when>295</when>
										<value>354</value>
										<speedvirtualkf>TRUE</speedvirtualkf>
										<speedkfend>TRUE</speedkfend>
									</keyframe>
									<interpolation>
										<name>FCPCurve</name>
									</interpolation>
								</parameter>
							</effect>
						</filter>
						<logginginfo>
							<description></description>
							<scene></scene>
							<shottake></shottake>
							<lognote></lognote>
							<good></good>
							<originalvideofilename></originalvideofilename>
							<originalaudiofilename></originalaudiofilename>
						</logginginfo>
						<colorinfo>
							<lut></lut>
							<lut1></lut1>
							<asc_sop></asc_sop>
							<asc_sat></asc_sat>
							<lut2></lut2>
						</colorinfo>
						<labels>
							<label2>Iris</label2>
						</labels>
					</clipitem>
					<clipitem id="clipitem-287">
						<masterclipid>masterclip-128</masterclipid>
						<name>A021_11020850_C062.mp4</name>
						<enabled>TRUE</enabled>
						<duration>633</duration>
						<rate>
							<timebase>24</timebase>
							<ntsc>FALSE</ntsc>
						</rate>
						<start>25483</start>
						<end>25498</end>
						<in>105</in>
						<out>119</out>
						<pproTicksIn>2212056000000</pproTicksIn>
						<pproTicksOut>2529576000000</pproTicksOut>
						<alphatype>none</alphatype>
						<pixelaspectratio>square</pixelaspectratio>
						<anamorphic>FALSE</anamorphic>
						<file id="file-128">
							<name>A021_11020850_C062.mp4</name>
							<pathurl>file://localhost/F%3a/love%20song/beach/A021_11020850_C062.mp4</pathurl>
							<rate>
								<timebase>24</timebase>
								<ntsc>FALSE</ntsc>
							</rate>
							<duration>1267</duration>
							<timecode>
								<rate>
									<timebase>24</timebase>
									<ntsc>FALSE</ntsc>
								</rate>
								<string>08:50:02:15</string>
								<frame>763263</frame>
								<displayformat>NDF</displayformat>
							</timecode>
							<media>
								<video>
									<samplecharacteristics>
										<rate>
											<timebase>24</timebase>
											<ntsc>FALSE</ntsc>
										</rate>
										<width>1920</width>
										<height>1080</height>
										<anamorphic>FALSE</anamorphic>
										<pixelaspectratio>square</pixelaspectratio>
										<fielddominance>none</fielddominance>
									</samplecharacteristics>
								</video>
								<audio>
									<samplecharacteristics>
										<depth>16</depth>
										<samplerate>48000</samplerate>
									</samplecharacteristics>
									<channelcount>2</channelcount>
								</audio>
							</media>
						</file>
						<filter>
							<effect>
								<name>Time Remap</name>
								<effectid>timeremap</effectid>
								<effectcategory>motion</effectcategory>
								<effecttype>motion</effecttype>
								<mediatype>video</mediatype>
								<parameter authoringApp="PremierePro">
									<parameterid>variablespeed</parameterid>
									<name>variablespeed</name>
									<valuemin>0</valuemin>
									<valuemax>1</valuemax>
									<value>0</value>
								</parameter>
								<parameter authoringApp="PremierePro">
									<parameterid>speed</parameterid>
									<name>speed</name>
									<valuemin>-100000</valuemin>
									<valuemax>100000</valuemax>
									<value>200</value>
								</parameter>
								<parameter authoringApp="PremierePro">
									<parameterid>reverse</parameterid>
									<name>reverse</name>
									<value>FALSE</value>
								</parameter>
								<parameter authoringApp="PremierePro">
									<parameterid>frameblending</parameterid>
									<name>frameblending</name>
									<value>FALSE</value>
								</parameter>
								<parameter authoringApp="PremierePro">
									<parameterid>graphdict</parameterid>
									<name>graphdict</name>
									<valuemin>0</valuemin>
									<valuemax>1266</valuemax>
									<value>0</value>
									<keyframe>
										<when>0</when>
										<value>0</value>
										<speedvirtualkf>TRUE</speedvirtualkf>
										<speedkfstart>TRUE</speedkfstart>
									</keyframe>
									<keyframe>
										<when>105</when>
										<value>210</value>
										<speedvirtualkf>TRUE</speedvirtualkf>
										<speedkfin>TRUE</speedkfin>
									</keyframe>
									<keyframe>
										<when>119</when>
										<value>238</value>
										<speedvirtualkf>TRUE</speedvirtualkf>
										<speedkfout>TRUE</speedkfout>
									</keyframe>
									<keyframe>
										<when>633</when>
										<value>1266</value>
										<speedvirtualkf>TRUE</speedvirtualkf>
										<speedkfend>TRUE</speedkfend>
									</keyframe>
									<interpolation>
										<name>FCPCurve</name>
									</interpolation>
								</parameter>
							</effect>
						</filter>
						<logginginfo>
							<description></description>
							<scene></scene>
							<shottake></shottake>
							<lognote></lognote>
							<good></good>
							<originalvideofilename></originalvideofilename>
							<originalaudiofilename></originalaudiofilename>
						</logginginfo>
						<colorinfo>
							<lut></lut>
							<lut1></lut1>
							<asc_sop></asc_sop>
							<asc_sat></asc_sat>
							<lut2></lut2>
						</colorinfo>
						<labels>
							<label2>Iris</label2>
						</labels>
					</clipitem>
					<clipitem id="clipitem-288">
						<masterclipid>masterclip-129</masterclipid>
						<name>A021_11020858_C064.mp4</name>
						<enabled>TRUE</enabled>
						<duration>38</duration>
						<rate>
							<timebase>24</timebase>
							<ntsc>FALSE</ntsc>
						</rate>
						<start>25498</start>
						<end>25514</end>
						<in>1</in>
						<out>17</out>
						<pproTicksIn>10584000000</pproTicksIn>
						<pproTicksOut>179928000000</pproTicksOut>
						<alphatype>none</alphatype>
						<pixelaspectratio>square</pixelaspectratio>
						<anamorphic>FALSE</anamorphic>
						<file id="file-129">
							<name>A021_11020858_C064.mp4</name>
							<pathurl>file://localhost/F%3a/love%20song/beach/A021_11020858_C064.mp4</pathurl>
							<rate>
								<timebase>24</timebase>
								<ntsc>FALSE</ntsc>
							</rate>
							<duration>38</duration>
							<timecode>
								<rate>
									<timebase>24</timebase>
									<ntsc>FALSE</ntsc>
								</rate>
								<string>08:58:07:19</string>
								<frame>774907</frame>
								<displayformat>NDF</displayformat>
							</timecode>
							<media>
								<video>
									<samplecharacteristics>
										<rate>
											<timebase>24</timebase>
											<ntsc>FALSE</ntsc>
										</rate>
										<width>1920</width>
										<height>1080</height>
										<anamorphic>FALSE</anamorphic>
										<pixelaspectratio>square</pixelaspectratio>
										<fielddominance>none</fielddominance>
									</samplecharacteristics>
								</video>
								<audio>
									<samplecharacteristics>
										<depth>16</depth>
										<samplerate>48000</samplerate>
									</samplecharacteristics>
									<channelcount>2</channelcount>
								</audio>
							</media>
						</file>
						<logginginfo>
							<description></description>
							<scene></scene>
							<shottake></shottake>
							<lognote></lognote>
							<good></good>
							<originalvideofilename></originalvideofilename>
							<originalaudiofilename></originalaudiofilename>
						</logginginfo>
						<colorinfo>
							<lut></lut>
							<lut1></lut1>
							<asc_sop></asc_sop>
							<asc_sat></asc_sat>
							<lut2></lut2>
						</colorinfo>
						<labels>
							<label2>Iris</label2>
						</labels>
					</clipitem>
					<clipitem id="clipitem-289">
						<masterclipid>masterclip-130</masterclipid>
						<name>2021_12_14_16_03_15.mov</name>
						<enabled>TRUE</enabled>
						<duration>551</duration>
						<rate>
							<timebase>24</timebase>
							<ntsc>FALSE</ntsc>
						</rate>
						<start>25514</start>
						<end>25537</end>
						<in>332</in>
						<out>355</out>
						<pproTicksIn>3513888000000</pproTicksIn>
						<pproTicksOut>3757320000000</pproTicksOut>
						<alphatype>none</alphatype>
						<pixelaspectratio>square</pixelaspectratio>
						<anamorphic>FALSE</anamorphic>
						<file id="file-130">
							<name>2021_12_14_16_03_15.mov</name>
							<pathurl>file://localhost/F%3a/love%20song/beach/offline/2021_12_14_16_03_15.mov</pathurl>
							<rate>
								<timebase>24</timebase>
								<ntsc>FALSE</ntsc>
							</rate>
							<duration>551</duration>
							<timecode>
								<rate>
									<timebase>24</timebase>
									<ntsc>FALSE</ntsc>
								</rate>
								<string>00:00:00:00</string>
								<frame>0</frame>
								<displayformat>NDF</displayformat>
							</timecode>
							<media>
								<video>
									<samplecharacteristics>
										<rate>
											<timebase>24</timebase>
											<ntsc>FALSE</ntsc>
										</rate>
										<width>1920</width>
										<height>1080</height>
										<anamorphic>FALSE</anamorphic>
										<pixelaspectratio>square</pixelaspectratio>
										<fielddominance>none</fielddominance>
									</samplecharacteristics>
								</video>
								<audio>
									<samplecharacteristics>
										<depth>16</depth>
										<samplerate>48000</samplerate>
									</samplecharacteristics>
									<channelcount>2</channelcount>
								</audio>
							</media>
						</file>
						<logginginfo>
							<description></description>
							<scene></scene>
							<shottake></shottake>
							<lognote></lognote>
							<good></good>
							<originalvideofilename></originalvideofilename>
							<originalaudiofilename></originalaudiofilename>
						</logginginfo>
						<colorinfo>
							<lut></lut>
							<lut1></lut1>
							<asc_sop></asc_sop>
							<asc_sat></asc_sat>
							<lut2></lut2>
						</colorinfo>
						<labels>
							<label2>Iris</label2>
						</labels>
					</clipitem>
					<clipitem id="clipitem-290">
						<masterclipid>masterclip-131</masterclipid>
						<name>2021_12_14_16_11_55.mov</name>
						<enabled>TRUE</enabled>
						<duration>423</duration>
						<rate>
							<timebase>24</timebase>
							<ntsc>FALSE</ntsc>
						</rate>
						<start>25537</start>
						<end>25549</end>
						<in>338</in>
						<out>350</out>
						<pproTicksIn>3577392000000</pproTicksIn>
						<pproTicksOut>3704400000000</pproTicksOut>
						<alphatype>none</alphatype>
						<pixelaspectratio>square</pixelaspectratio>
						<anamorphic>FALSE</anamorphic>
						<file id="file-131">
							<name>2021_12_14_16_11_55.mov</name>
							<pathurl>file://localhost/F%3a/love%20song/beach/offline/2021_12_14_16_11_55.mov</pathurl>
							<rate>
								<timebase>25</timebase>
								<ntsc>FALSE</ntsc>
							</rate>
							<duration>441</duration>
							<timecode>
								<rate>
									<timebase>25</timebase>
									<ntsc>FALSE</ntsc>
								</rate>
								<string>00:00:00:00</string>
								<frame>0</frame>
								<displayformat>NDF</displayformat>
							</timecode>
							<media>
								<video>
									<samplecharacteristics>
										<rate>
											<timebase>25</timebase>
											<ntsc>FALSE</ntsc>
										</rate>
										<width>1920</width>
										<height>1080</height>
										<anamorphic>FALSE</anamorphic>
										<pixelaspectratio>square</pixelaspectratio>
										<fielddominance>none</fielddominance>
									</samplecharacteristics>
								</video>
								<audio>
									<samplecharacteristics>
										<depth>16</depth>
										<samplerate>48000</samplerate>
									</samplecharacteristics>
									<channelcount>2</channelcount>
								</audio>
							</media>
						</file>
						<logginginfo>
							<description></description>
							<scene></scene>
							<shottake></shottake>
							<lognote></lognote>
							<good></good>
							<originalvideofilename></originalvideofilename>
							<originalaudiofilename></originalaudiofilename>
						</logginginfo>
						<colorinfo>
							<lut></lut>
							<lut1></lut1>
							<asc_sop></asc_sop>
							<asc_sat></asc_sat>
							<lut2></lut2>
						</colorinfo>
						<labels>
							<label2>Iris</label2>
						</labels>
					</clipitem>
					<clipitem id="clipitem-291">
						<masterclipid>masterclip-132</masterclipid>
						<name>2021_12_14_16_06_55.mov</name>
						<enabled>TRUE</enabled>
						<duration>502</duration>
						<rate>
							<timebase>24</timebase>
							<ntsc>FALSE</ntsc>
						</rate>
						<start>25549</start>
						<end>25561</end>
						<in>177</in>
						<out>189</out>
						<pproTicksIn>1873368000000</pproTicksIn>
						<pproTicksOut>2000376000000</pproTicksOut>
						<alphatype>none</alphatype>
						<pixelaspectratio>square</pixelaspectratio>
						<anamorphic>FALSE</anamorphic>
						<file id="file-132">
							<name>2021_12_14_16_06_55.mov</name>
							<pathurl>file://localhost/F%3a/love%20song/beach/offline/2021_12_14_16_06_55.mov</pathurl>
							<rate>
								<timebase>25</timebase>
								<ntsc>FALSE</ntsc>
							</rate>
							<duration>523</duration>
							<timecode>
								<rate>
									<timebase>25</timebase>
									<ntsc>FALSE</ntsc>
								</rate>
								<string>00:00:00:00</string>
								<frame>0</frame>
								<displayformat>NDF</displayformat>
							</timecode>
							<media>
								<video>
									<samplecharacteristics>
										<rate>
											<timebase>25</timebase>
											<ntsc>FALSE</ntsc>
										</rate>
										<width>1920</width>
										<height>1080</height>
										<anamorphic>FALSE</anamorphic>
										<pixelaspectratio>square</pixelaspectratio>
										<fielddominance>none</fielddominance>
									</samplecharacteristics>
								</video>
								<audio>
									<samplecharacteristics>
										<depth>16</depth>
										<samplerate>48000</samplerate>
									</samplecharacteristics>
									<channelcount>2</channelcount>
								</audio>
							</media>
						</file>
						<logginginfo>
							<description></description>
							<scene></scene>
							<shottake></shottake>
							<lognote></lognote>
							<good></good>
							<originalvideofilename></originalvideofilename>
							<originalaudiofilename></originalaudiofilename>
						</logginginfo>
						<colorinfo>
							<lut></lut>
							<lut1></lut1>
							<asc_sop></asc_sop>
							<asc_sat></asc_sat>
							<lut2></lut2>
						</colorinfo>
						<labels>
							<label2>Iris</label2>
						</labels>
					</clipitem>
					<clipitem id="clipitem-292">
						<masterclipid>masterclip-133</masterclipid>
						<name>2021_12_14_16_46_33.mov</name>
						<enabled>TRUE</enabled>
						<duration>374</duration>
						<rate>
							<timebase>24</timebase>
							<ntsc>FALSE</ntsc>
						</rate>
						<start>25561</start>
						<end>25596</end>
						<in>300</in>
						<out>334</out>
						<pproTicksIn>6339816000000</pproTicksIn>
						<pproTicksOut>7080696000000</pproTicksOut>
						<alphatype>none</alphatype>
						<pixelaspectratio>square</pixelaspectratio>
						<anamorphic>FALSE</anamorphic>
						<file id="file-133">
							<name>2021_12_14_16_46_33.mov</name>
							<pathurl>file://localhost/F%3a/love%20song/beach/offline/2021_12_14_16_46_33.mov</pathurl>
							<rate>
								<timebase>25</timebase>
								<ntsc>FALSE</ntsc>
							</rate>
							<duration>781</duration>
							<timecode>
								<rate>
									<timebase>25</timebase>
									<ntsc>FALSE</ntsc>
								</rate>
								<string>00:00:00:00</string>
								<frame>0</frame>
								<displayformat>NDF</displayformat>
							</timecode>
							<media>
								<video>
									<samplecharacteristics>
										<rate>
											<timebase>25</timebase>
											<ntsc>FALSE</ntsc>
										</rate>
										<width>1920</width>
										<height>1080</height>
										<anamorphic>FALSE</anamorphic>
										<pixelaspectratio>square</pixelaspectratio>
										<fielddominance>none</fielddominance>
									</samplecharacteristics>
								</video>
								<audio>
									<samplecharacteristics>
										<depth>16</depth>
										<samplerate>48000</samplerate>
									</samplecharacteristics>
									<channelcount>2</channelcount>
								</audio>
							</media>
						</file>
						<filter>
							<effect>
								<name>Time Remap</name>
								<effectid>timeremap</effectid>
								<effectcategory>motion</effectcategory>
								<effecttype>motion</effecttype>
								<mediatype>video</mediatype>
								<parameter authoringApp="PremierePro">
									<parameterid>variablespeed</parameterid>
									<name>variablespeed</name>
									<valuemin>0</valuemin>
									<valuemax>1</valuemax>
									<value>0</value>
								</parameter>
								<parameter authoringApp="PremierePro">
									<parameterid>speed</parameterid>
									<name>speed</name>
									<valuemin>-100000</valuemin>
									<valuemax>100000</valuemax>
									<value>200</value>
								</parameter>
								<parameter authoringApp="PremierePro">
									<parameterid>reverse</parameterid>
									<name>reverse</name>
									<value>FALSE</value>
								</parameter>
								<parameter authoringApp="PremierePro">
									<parameterid>frameblending</parameterid>
									<name>frameblending</name>
									<value>FALSE</value>
								</parameter>
								<parameter authoringApp="PremierePro">
									<parameterid>graphdict</parameterid>
									<name>graphdict</name>
									<valuemin>0</valuemin>
									<valuemax>748</valuemax>
									<value>0</value>
									<keyframe>
										<when>0</when>
										<value>0</value>
										<speedvirtualkf>TRUE</speedvirtualkf>
										<speedkfstart>TRUE</speedkfstart>
									</keyframe>
									<keyframe>
										<when>300</when>
										<value>600</value>
										<speedvirtualkf>TRUE</speedvirtualkf>
										<speedkfin>TRUE</speedkfin>
									</keyframe>
									<keyframe>
										<when>334</when>
										<value>668</value>
										<speedvirtualkf>TRUE</speedvirtualkf>
										<speedkfout>TRUE</speedkfout>
									</keyframe>
									<keyframe>
										<when>374</when>
										<value>748</value>
										<speedvirtualkf>TRUE</speedvirtualkf>
										<speedkfend>TRUE</speedkfend>
									</keyframe>
									<interpolation>
										<name>FCPCurve</name>
									</interpolation>
								</parameter>
							</effect>
						</filter>
						<logginginfo>
							<description></description>
							<scene></scene>
							<shottake></shottake>
							<lognote></lognote>
							<good></good>
							<originalvideofilename></originalvideofilename>
							<originalaudiofilename></originalaudiofilename>
						</logginginfo>
						<colorinfo>
							<lut></lut>
							<lut1></lut1>
							<asc_sop></asc_sop>
							<asc_sat></asc_sat>
							<lut2></lut2>
						</colorinfo>
						<labels>
							<label2>Iris</label2>
						</labels>
					</clipitem>
					<clipitem id="clipitem-293">
						<masterclipid>masterclip-134</masterclipid>
						<name>2021_12_14_16_08_16.mov</name>
						<enabled>TRUE</enabled>
						<duration>467</duration>
						<rate>
							<timebase>24</timebase>
							<ntsc>FALSE</ntsc>
						</rate>
						<start>25596</start>
						<end>25633</end>
						<in>240</in>
						<out>277</out>
						<pproTicksIn>2540160000000</pproTicksIn>
						<pproTicksOut>2931768000000</pproTicksOut>
						<alphatype>none</alphatype>
						<pixelaspectratio>square</pixelaspectratio>
						<anamorphic>FALSE</anamorphic>
						<file id="file-134">
							<name>2021_12_14_16_08_16.mov</name>
							<pathurl>file://localhost/F%3a/love%20song/beach/offline/2021_12_14_16_08_16.mov</pathurl>
							<rate>
								<timebase>25</timebase>
								<ntsc>FALSE</ntsc>
							</rate>
							<duration>487</duration>
							<timecode>
								<rate>
									<timebase>25</timebase>
									<ntsc>FALSE</ntsc>
								</rate>
								<string>00:00:00:00</string>
								<frame>0</frame>
								<displayformat>NDF</displayformat>
							</timecode>
							<media>
								<video>
									<samplecharacteristics>
										<rate>
											<timebase>25</timebase>
											<ntsc>FALSE</ntsc>
										</rate>
										<width>1920</width>
										<height>1080</height>
										<anamorphic>FALSE</anamorphic>
										<pixelaspectratio>square</pixelaspectratio>
										<fielddominance>none</fielddominance>
									</samplecharacteristics>
								</video>
								<audio>
									<samplecharacteristics>
										<depth>16</depth>
										<samplerate>48000</samplerate>
									</samplecharacteristics>
									<channelcount>2</channelcount>
								</audio>
							</media>
						</file>
						<logginginfo>
							<description></description>
							<scene></scene>
							<shottake></shottake>
							<lognote></lognote>
							<good></good>
							<originalvideofilename></originalvideofilename>
							<originalaudiofilename></originalaudiofilename>
						</logginginfo>
						<colorinfo>
							<lut></lut>
							<lut1></lut1>
							<asc_sop></asc_sop>
							<asc_sat></asc_sat>
							<lut2></lut2>
						</colorinfo>
						<labels>
							<label2>Iris</label2>
						</labels>
					</clipitem>
					<clipitem id="clipitem-294">
						<masterclipid>masterclip-135</masterclipid>
						<name>2021_12_14_16_06_28.mov</name>
						<enabled>TRUE</enabled>
						<duration>493</duration>
						<rate>
							<timebase>24</timebase>
							<ntsc>FALSE</ntsc>
						</rate>
						<start>25633</start>
						<end>25644</end>
						<in>243</in>
						<out>254</out>
						<pproTicksIn>2571912000000</pproTicksIn>
						<pproTicksOut>2688336000000</pproTicksOut>
						<alphatype>none</alphatype>
						<pixelaspectratio>square</pixelaspectratio>
						<anamorphic>FALSE</anamorphic>
						<file id="file-135">
							<name>2021_12_14_16_06_28.mov</name>
							<pathurl>file://localhost/F%3a/love%20song/beach/offline/2021_12_14_16_06_28.mov</pathurl>
							<rate>
								<timebase>25</timebase>
								<ntsc>FALSE</ntsc>
							</rate>
							<duration>514</duration>
							<timecode>
								<rate>
									<timebase>25</timebase>
									<ntsc>FALSE</ntsc>
								</rate>
								<string>00:00:00:00</string>
								<frame>0</frame>
								<displayformat>NDF</displayformat>
							</timecode>
							<media>
								<video>
									<samplecharacteristics>
										<rate>
											<timebase>25</timebase>
											<ntsc>FALSE</ntsc>
										</rate>
										<width>1920</width>
										<height>1080</height>
										<anamorphic>FALSE</anamorphic>
										<pixelaspectratio>square</pixelaspectratio>
										<fielddominance>none</fielddominance>
									</samplecharacteristics>
								</video>
								<audio>
									<samplecharacteristics>
										<depth>16</depth>
										<samplerate>48000</samplerate>
									</samplecharacteristics>
									<channelcount>2</channelcount>
								</audio>
							</media>
						</file>
						<logginginfo>
							<description></description>
							<scene></scene>
							<shottake></shottake>
							<lognote></lognote>
							<good></good>
							<originalvideofilename></originalvideofilename>
							<originalaudiofilename></originalaudiofilename>
						</logginginfo>
						<colorinfo>
							<lut></lut>
							<lut1></lut1>
							<asc_sop></asc_sop>
							<asc_sat></asc_sat>
							<lut2></lut2>
						</colorinfo>
						<labels>
							<label2>Iris</label2>
						</labels>
					</clipitem>
					<clipitem id="clipitem-295">
						<masterclipid>masterclip-136</masterclipid>
						<name>2021_12_14_16_10_51.mov</name>
						<enabled>TRUE</enabled>
						<duration>388</duration>
						<rate>
							<timebase>24</timebase>
							<ntsc>FALSE</ntsc>
						</rate>
						<start>25644</start>
						<end>25654</end>
						<in>281</in>
						<out>290</out>
						<pproTicksIn>3562574400000</pproTicksIn>
						<pproTicksOut>3689582400000</pproTicksOut>
						<alphatype>none</alphatype>
						<pixelaspectratio>square</pixelaspectratio>
						<anamorphic>FALSE</anamorphic>
						<file id="file-136">
							<name>2021_12_14_16_10_51.mov</name>
							<pathurl>file://localhost/F%3a/love%20song/beach/offline/2021_12_14_16_10_51.mov</pathurl>
							<rate>
								<timebase>25</timebase>
								<ntsc>FALSE</ntsc>
							</rate>
							<duration>486</duration>
							<timecode>
								<rate>
									<timebase>25</timebase>
									<ntsc>FALSE</ntsc>
								</rate>
								<string>00:00:00:00</string>
								<frame>0</frame>
								<displayformat>NDF</displayformat>
							</timecode>
							<media>
								<video>
									<samplecharacteristics>
										<rate>
											<timebase>25</timebase>
											<ntsc>FALSE</ntsc>
										</rate>
										<width>1920</width>
										<height>1080</height>
										<anamorphic>FALSE</anamorphic>
										<pixelaspectratio>square</pixelaspectratio>
										<fielddominance>none</fielddominance>
									</samplecharacteristics>
								</video>
								<audio>
									<samplecharacteristics>
										<depth>16</depth>
										<samplerate>48000</samplerate>
									</samplecharacteristics>
									<channelcount>2</channelcount>
								</audio>
							</media>
						</file>
						<filter>
							<effect>
								<name>Time Remap</name>
								<effectid>timeremap</effectid>
								<effectcategory>motion</effectcategory>
								<effecttype>motion</effecttype>
								<mediatype>video</mediatype>
								<parameter authoringApp="PremierePro">
									<parameterid>variablespeed</parameterid>
									<name>variablespeed</name>
									<valuemin>0</valuemin>
									<valuemax>1</valuemax>
									<value>0</value>
								</parameter>
								<parameter authoringApp="PremierePro">
									<parameterid>speed</parameterid>
									<name>speed</name>
									<valuemin>-100000</valuemin>
									<valuemax>100000</valuemax>
									<value>120</value>
								</parameter>
								<parameter authoringApp="PremierePro">
									<parameterid>reverse</parameterid>
									<name>reverse</name>
									<value>FALSE</value>
								</parameter>
								<parameter authoringApp="PremierePro">
									<parameterid>frameblending</parameterid>
									<name>frameblending</name>
									<value>FALSE</value>
								</parameter>
								<parameter authoringApp="PremierePro">
									<parameterid>graphdict</parameterid>
									<name>graphdict</name>
									<valuemin>0</valuemin>
									<valuemax>465</valuemax>
									<value>0</value>
									<keyframe>
										<when>0</when>
										<value>0</value>
										<speedvirtualkf>TRUE</speedvirtualkf>
										<speedkfstart>TRUE</speedkfstart>
									</keyframe>
									<keyframe>
										<when>281</when>
										<value>337</value>
										<speedvirtualkf>TRUE</speedvirtualkf>
										<speedkfin>TRUE</speedkfin>
									</keyframe>
									<keyframe>
										<when>290</when>
										<value>348</value>
										<speedvirtualkf>TRUE</speedvirtualkf>
										<speedkfout>TRUE</speedkfout>
									</keyframe>
									<keyframe>
										<when>388</when>
										<value>465</value>
										<speedvirtualkf>TRUE</speedvirtualkf>
										<speedkfend>TRUE</speedkfend>
									</keyframe>
									<interpolation>
										<name>FCPCurve</name>
									</interpolation>
								</parameter>
							</effect>
						</filter>
						<logginginfo>
							<description></description>
							<scene></scene>
							<shottake></shottake>
							<lognote></lognote>
							<good></good>
							<originalvideofilename></originalvideofilename>
							<originalaudiofilename></originalaudiofilename>
						</logginginfo>
						<colorinfo>
							<lut></lut>
							<lut1></lut1>
							<asc_sop></asc_sop>
							<asc_sat></asc_sat>
							<lut2></lut2>
						</colorinfo>
						<labels>
							<label2>Iris</label2>
						</labels>
					</clipitem>
					<clipitem id="clipitem-296">
						<masterclipid>masterclip-137</masterclipid>
						<name>2021_12_14_17_06_03.mov</name>
						<enabled>TRUE</enabled>
						<duration>640</duration>
						<rate>
							<timebase>24</timebase>
							<ntsc>FALSE</ntsc>
						</rate>
						<start>25654</start>
						<end>25675</end>
						<in>583</in>
						<out>604</out>
						<pproTicksIn>6170472000000</pproTicksIn>
						<pproTicksOut>6392736000000</pproTicksOut>
						<alphatype>none</alphatype>
						<pixelaspectratio>square</pixelaspectratio>
						<anamorphic>FALSE</anamorphic>
						<file id="file-137">
							<name>2021_12_14_17_06_03.mov</name>
							<pathurl>file://localhost/F%3a/love%20song/beach/offline/2021_12_14_17_06_03.mov</pathurl>
							<rate>
								<timebase>24</timebase>
								<ntsc>FALSE</ntsc>
							</rate>
							<duration>640</duration>
							<timecode>
								<rate>
									<timebase>24</timebase>
									<ntsc>FALSE</ntsc>
								</rate>
								<string>00:00:00:00</string>
								<frame>0</frame>
								<displayformat>NDF</displayformat>
							</timecode>
							<media>
								<video>
									<samplecharacteristics>
										<rate>
											<timebase>24</timebase>
											<ntsc>FALSE</ntsc>
										</rate>
										<width>1920</width>
										<height>1080</height>
										<anamorphic>FALSE</anamorphic>
										<pixelaspectratio>square</pixelaspectratio>
										<fielddominance>none</fielddominance>
									</samplecharacteristics>
								</video>
								<audio>
									<samplecharacteristics>
										<depth>16</depth>
										<samplerate>48000</samplerate>
									</samplecharacteristics>
									<channelcount>2</channelcount>
								</audio>
							</media>
						</file>
						<logginginfo>
							<description></description>
							<scene></scene>
							<shottake></shottake>
							<lognote></lognote>
							<good></good>
							<originalvideofilename></originalvideofilename>
							<originalaudiofilename></originalaudiofilename>
						</logginginfo>
						<colorinfo>
							<lut></lut>
							<lut1></lut1>
							<asc_sop></asc_sop>
							<asc_sat></asc_sat>
							<lut2></lut2>
						</colorinfo>
						<labels>
							<label2>Iris</label2>
						</labels>
					</clipitem>
					<clipitem id="clipitem-297">
						<masterclipid>masterclip-138</masterclipid>
						<name>A020_11020934_C006.mp4</name>
						<enabled>TRUE</enabled>
						<duration>3897</duration>
						<rate>
							<timebase>24</timebase>
							<ntsc>FALSE</ntsc>
						</rate>
						<start>25675</start>
						<end>25693</end>
						<in>651</in>
						<out>669</out>
						<pproTicksIn>6890184000000</pproTicksIn>
						<pproTicksOut>7080696000000</pproTicksOut>
						<alphatype>none</alphatype>
						<pixelaspectratio>square</pixelaspectratio>
						<anamorphic>FALSE</anamorphic>
						<file id="file-138">
							<name>A020_11020934_C006.mp4</name>
							<pathurl>file://localhost/F%3a/love%20song/beach/A020_11020934_C006.mp4</pathurl>
							<rate>
								<timebase>24</timebase>
								<ntsc>FALSE</ntsc>
							</rate>
							<duration>3897</duration>
							<timecode>
								<rate>
									<timebase>24</timebase>
									<ntsc>FALSE</ntsc>
								</rate>
								<string>09:34:32:01</string>
								<frame>827329</frame>
								<displayformat>NDF</displayformat>
							</timecode>
							<media>
								<video>
									<samplecharacteristics>
										<rate>
											<timebase>24</timebase>
											<ntsc>FALSE</ntsc>
										</rate>
										<width>1920</width>
										<height>1080</height>
										<anamorphic>FALSE</anamorphic>
										<pixelaspectratio>square</pixelaspectratio>
										<fielddominance>none</fielddominance>
									</samplecharacteristics>
								</video>
								<audio>
									<samplecharacteristics>
										<depth>16</depth>
										<samplerate>48000</samplerate>
									</samplecharacteristics>
									<channelcount>2</channelcount>
								</audio>
							</media>
						</file>
						<logginginfo>
							<description></description>
							<scene></scene>
							<shottake></shottake>
							<lognote></lognote>
							<good></good>
							<originalvideofilename></originalvideofilename>
							<originalaudiofilename></originalaudiofilename>
						</logginginfo>
						<colorinfo>
							<lut></lut>
							<lut1></lut1>
							<asc_sop></asc_sop>
							<asc_sat></asc_sat>
							<lut2></lut2>
						</colorinfo>
						<labels>
							<label2>Iris</label2>
						</labels>
					</clipitem>
					<clipitem id="clipitem-298">
						<masterclipid>masterclip-139</masterclipid>
						<name>A020_11020938_C008.mp4</name>
						<enabled>TRUE</enabled>
						<duration>3915</duration>
						<rate>
							<timebase>24</timebase>
							<ntsc>FALSE</ntsc>
						</rate>
						<start>25693</start>
						<end>25705</end>
						<in>948</in>
						<out>960</out>
						<pproTicksIn>10033632000000</pproTicksIn>
						<pproTicksOut>10160640000000</pproTicksOut>
						<alphatype>none</alphatype>
						<pixelaspectratio>square</pixelaspectratio>
						<anamorphic>FALSE</anamorphic>
						<file id="file-139">
							<name>A020_11020938_C008.mp4</name>
							<pathurl>file://localhost/F%3a/love%20song/beach/A020_11020938_C008.mp4</pathurl>
							<rate>
								<timebase>24</timebase>
								<ntsc>FALSE</ntsc>
							</rate>
							<duration>3915</duration>
							<timecode>
								<rate>
									<timebase>24</timebase>
									<ntsc>FALSE</ntsc>
								</rate>
								<string>09:38:14:07</string>
								<frame>832663</frame>
								<displayformat>NDF</displayformat>
							</timecode>
							<media>
								<video>
									<samplecharacteristics>
										<rate>
											<timebase>24</timebase>
											<ntsc>FALSE</ntsc>
										</rate>
										<width>1920</width>
										<height>1080</height>
										<anamorphic>FALSE</anamorphic>
										<pixelaspectratio>square</pixelaspectratio>
										<fielddominance>none</fielddominance>
									</samplecharacteristics>
								</video>
								<audio>
									<samplecharacteristics>
										<depth>16</depth>
										<samplerate>48000</samplerate>
									</samplecharacteristics>
									<channelcount>2</channelcount>
								</audio>
							</media>
						</file>
						<logginginfo>
							<description></description>
							<scene></scene>
							<shottake></shottake>
							<lognote></lognote>
							<good></good>
							<originalvideofilename></originalvideofilename>
							<originalaudiofilename></originalaudiofilename>
						</logginginfo>
						<colorinfo>
							<lut></lut>
							<lut1></lut1>
							<asc_sop></asc_sop>
							<asc_sat></asc_sat>
							<lut2></lut2>
						</colorinfo>
						<labels>
							<label2>Iris</label2>
						</labels>
					</clipitem>
					<clipitem id="clipitem-299">
						<masterclipid>masterclip-139</masterclipid>
						<name>A020_11020938_C008.mp4</name>
						<enabled>TRUE</enabled>
						<duration>3915</duration>
						<rate>
							<timebase>24</timebase>
							<ntsc>FALSE</ntsc>
						</rate>
						<start>25705</start>
						<end>25722</end>
						<in>1236</in>
						<out>1253</out>
						<pproTicksIn>13081824000000</pproTicksIn>
						<pproTicksOut>13261752000000</pproTicksOut>
						<alphatype>none</alphatype>
						<file id="file-139"/>
						<logginginfo>
							<description></description>
							<scene></scene>
							<shottake></shottake>
							<lognote></lognote>
							<good></good>
							<originalvideofilename></originalvideofilename>
							<originalaudiofilename></originalaudiofilename>
						</logginginfo>
						<colorinfo>
							<lut></lut>
							<lut1></lut1>
							<asc_sop></asc_sop>
							<asc_sat></asc_sat>
							<lut2></lut2>
						</colorinfo>
						<labels>
							<label2>Iris</label2>
						</labels>
					</clipitem>
					<clipitem id="clipitem-300">
						<masterclipid>masterclip-140</masterclipid>
						<name>A020_11020943_C011.mp4</name>
						<enabled>TRUE</enabled>
						<duration>2055</duration>
						<rate>
							<timebase>24</timebase>
							<ntsc>FALSE</ntsc>
						</rate>
						<start>25722</start>
						<end>25753</end>
						<in>1631</in>
						<out>1662</out>
						<pproTicksIn>17262504000000</pproTicksIn>
						<pproTicksOut>17590608000000</pproTicksOut>
						<alphatype>none</alphatype>
						<pixelaspectratio>square</pixelaspectratio>
						<anamorphic>FALSE</anamorphic>
						<file id="file-140">
							<name>A020_11020943_C011.mp4</name>
							<pathurl>file://localhost/F%3a/love%20song/beach/A020_11020943_C011.mp4</pathurl>
							<rate>
								<timebase>24</timebase>
								<ntsc>FALSE</ntsc>
							</rate>
							<duration>2055</duration>
							<timecode>
								<rate>
									<timebase>24</timebase>
									<ntsc>FALSE</ntsc>
								</rate>
								<string>09:43:42:06</string>
								<frame>840534</frame>
								<displayformat>NDF</displayformat>
							</timecode>
							<media>
								<video>
									<samplecharacteristics>
										<rate>
											<timebase>24</timebase>
											<ntsc>FALSE</ntsc>
										</rate>
										<width>1920</width>
										<height>1080</height>
										<anamorphic>FALSE</anamorphic>
										<pixelaspectratio>square</pixelaspectratio>
										<fielddominance>none</fielddominance>
									</samplecharacteristics>
								</video>
								<audio>
									<samplecharacteristics>
										<depth>16</depth>
										<samplerate>48000</samplerate>
									</samplecharacteristics>
									<channelcount>2</channelcount>
								</audio>
							</media>
						</file>
						<logginginfo>
							<description></description>
							<scene></scene>
							<shottake></shottake>
							<lognote></lognote>
							<good></good>
							<originalvideofilename></originalvideofilename>
							<originalaudiofilename></originalaudiofilename>
						</logginginfo>
						<colorinfo>
							<lut></lut>
							<lut1></lut1>
							<asc_sop></asc_sop>
							<asc_sat></asc_sat>
							<lut2></lut2>
						</colorinfo>
						<labels>
							<label2>Iris</label2>
						</labels>
					</clipitem>
					<clipitem id="clipitem-301">
						<masterclipid>masterclip-141</masterclipid>
						<name>2021_12_14_17_03_43.mov</name>
						<enabled>TRUE</enabled>
						<duration>228</duration>
						<rate>
							<timebase>24</timebase>
							<ntsc>FALSE</ntsc>
						</rate>
						<start>25753</start>
						<end>25836</end>
						<in>145</in>
						<out>227</out>
						<pproTicksIn>5366088000000</pproTicksIn>
						<pproTicksOut>8440740000000</pproTicksOut>
						<alphatype>none</alphatype>
						<pixelaspectratio>square</pixelaspectratio>
						<anamorphic>FALSE</anamorphic>
						<file id="file-141">
							<name>2021_12_14_17_03_43.mov</name>
							<pathurl>file://localhost/F%3a/love%20song/beach/offline/2021_12_14_17_03_43.mov</pathurl>
							<rate>
								<timebase>24</timebase>
								<ntsc>FALSE</ntsc>
							</rate>
							<duration>801</duration>
							<timecode>
								<rate>
									<timebase>24</timebase>
									<ntsc>FALSE</ntsc>
								</rate>
								<string>00:00:00:00</string>
								<frame>0</frame>
								<displayformat>NDF</displayformat>
							</timecode>
							<media>
								<video>
									<samplecharacteristics>
										<rate>
											<timebase>24</timebase>
											<ntsc>FALSE</ntsc>
										</rate>
										<width>1920</width>
										<height>1080</height>
										<anamorphic>FALSE</anamorphic>
										<pixelaspectratio>square</pixelaspectratio>
										<fielddominance>none</fielddominance>
									</samplecharacteristics>
								</video>
								<audio>
									<samplecharacteristics>
										<depth>16</depth>
										<samplerate>48000</samplerate>
									</samplecharacteristics>
									<channelcount>2</channelcount>
								</audio>
							</media>
						</file>
						<filter>
							<effect>
								<name>Time Remap</name>
								<effectid>timeremap</effectid>
								<effectcategory>motion</effectcategory>
								<effecttype>motion</effecttype>
								<mediatype>video</mediatype>
								<parameter authoringApp="PremierePro">
									<parameterid>variablespeed</parameterid>
									<name>variablespeed</name>
									<valuemin>0</valuemin>
									<valuemax>1</valuemax>
									<value>0</value>
								</parameter>
								<parameter authoringApp="PremierePro">
									<parameterid>speed</parameterid>
									<name>speed</name>
									<valuemin>-100000</valuemin>
									<valuemax>100000</valuemax>
									<value>350</value>
								</parameter>
								<parameter authoringApp="PremierePro">
									<parameterid>reverse</parameterid>
									<name>reverse</name>
									<value>FALSE</value>
								</parameter>
								<parameter authoringApp="PremierePro">
									<parameterid>frameblending</parameterid>
									<name>frameblending</name>
									<value>FALSE</value>
								</parameter>
								<parameter authoringApp="PremierePro">
									<parameterid>graphdict</parameterid>
									<name>graphdict</name>
									<valuemin>0</valuemin>
									<valuemax>798</valuemax>
									<value>0</value>
									<keyframe>
										<when>0</when>
										<value>0</value>
										<speedvirtualkf>TRUE</speedvirtualkf>
										<speedkfstart>TRUE</speedkfstart>
									</keyframe>
									<keyframe>
										<when>145</when>
										<value>507</value>
										<speedvirtualkf>TRUE</speedvirtualkf>
										<speedkfin>TRUE</speedkfin>
									</keyframe>
									<keyframe>
										<when>227</when>
										<value>794</value>
										<speedvirtualkf>TRUE</speedvirtualkf>
										<speedkfout>TRUE</speedkfout>
									</keyframe>
									<keyframe>
										<when>228</when>
										<value>798</value>
										<speedvirtualkf>TRUE</speedvirtualkf>
										<speedkfend>TRUE</speedkfend>
									</keyframe>
									<interpolation>
										<name>FCPCurve</name>
									</interpolation>
								</parameter>
							</effect>
						</filter>
						<logginginfo>
							<description></description>
							<scene></scene>
							<shottake></shottake>
							<lognote></lognote>
							<good></good>
							<originalvideofilename></originalvideofilename>
							<originalaudiofilename></originalaudiofilename>
						</logginginfo>
						<colorinfo>
							<lut></lut>
							<lut1></lut1>
							<asc_sop></asc_sop>
							<asc_sat></asc_sat>
							<lut2></lut2>
						</colorinfo>
						<labels>
							<label2>Iris</label2>
						</labels>
					</clipitem>
					<clipitem id="clipitem-302">
						<masterclipid>masterclip-142</masterclipid>
						<name>A013_10311256_C121.mp4</name>
						<enabled>TRUE</enabled>
						<duration>1603</duration>
						<rate>
							<timebase>24</timebase>
							<ntsc>FALSE</ntsc>
						</rate>
						<start>25887</start>
						<end>25911</end>
						<in>590</in>
						<out>614</out>
						<pproTicksIn>6244560000000</pproTicksIn>
						<pproTicksOut>6498576000000</pproTicksOut>
						<alphatype>none</alphatype>
						<pixelaspectratio>square</pixelaspectratio>
						<anamorphic>FALSE</anamorphic>
						<file id="file-142">
							<name>A013_10311256_C121.mp4</name>
							<pathurl>file://localhost/F%3a/love%20song/meera%20room/A013_10311256_C121.mp4</pathurl>
							<rate>
								<timebase>24</timebase>
								<ntsc>FALSE</ntsc>
							</rate>
							<duration>1603</duration>
							<timecode>
								<rate>
									<timebase>24</timebase>
									<ntsc>FALSE</ntsc>
								</rate>
								<string>12:56:15:14</string>
								<frame>1117814</frame>
								<displayformat>NDF</displayformat>
							</timecode>
							<media>
								<video>
									<samplecharacteristics>
										<rate>
											<timebase>24</timebase>
											<ntsc>FALSE</ntsc>
										</rate>
										<width>1920</width>
										<height>1080</height>
										<anamorphic>FALSE</anamorphic>
										<pixelaspectratio>square</pixelaspectratio>
										<fielddominance>none</fielddominance>
									</samplecharacteristics>
								</video>
								<audio>
									<samplecharacteristics>
										<depth>16</depth>
										<samplerate>48000</samplerate>
									</samplecharacteristics>
									<channelcount>2</channelcount>
								</audio>
							</media>
						</file>
						<logginginfo>
							<description></description>
							<scene></scene>
							<shottake></shottake>
							<lognote></lognote>
							<good></good>
							<originalvideofilename></originalvideofilename>
							<originalaudiofilename></originalaudiofilename>
						</logginginfo>
						<colorinfo>
							<lut></lut>
							<lut1></lut1>
							<asc_sop></asc_sop>
							<asc_sat></asc_sat>
							<lut2></lut2>
						</colorinfo>
						<labels>
							<label2>Iris</label2>
						</labels>
					</clipitem>
					<clipitem id="clipitem-303">
						<masterclipid>masterclip-143</masterclipid>
						<name>A013_10311256_C122.mp4</name>
						<enabled>TRUE</enabled>
						<duration>1292</duration>
						<rate>
							<timebase>24</timebase>
							<ntsc>FALSE</ntsc>
						</rate>
						<start>25911</start>
						<end>25936</end>
						<in>765</in>
						<out>790</out>
						<pproTicksIn>8096760000000</pproTicksIn>
						<pproTicksOut>8361360000000</pproTicksOut>
						<alphatype>none</alphatype>
						<pixelaspectratio>square</pixelaspectratio>
						<anamorphic>FALSE</anamorphic>
						<file id="file-143">
							<name>A013_10311256_C122.mp4</name>
							<pathurl>file://localhost/F%3a/love%20song/meera%20room/A013_10311256_C122.mp4</pathurl>
							<rate>
								<timebase>24</timebase>
								<ntsc>FALSE</ntsc>
							</rate>
							<duration>1292</duration>
							<timecode>
								<rate>
									<timebase>24</timebase>
									<ntsc>FALSE</ntsc>
								</rate>
								<string>12:56:51:22</string>
								<frame>1118686</frame>
								<displayformat>NDF</displayformat>
							</timecode>
							<media>
								<video>
									<samplecharacteristics>
										<rate>
											<timebase>24</timebase>
											<ntsc>FALSE</ntsc>
										</rate>
										<width>1920</width>
										<height>1080</height>
										<anamorphic>FALSE</anamorphic>
										<pixelaspectratio>square</pixelaspectratio>
										<fielddominance>none</fielddominance>
									</samplecharacteristics>
								</video>
								<audio>
									<samplecharacteristics>
										<depth>16</depth>
										<samplerate>48000</samplerate>
									</samplecharacteristics>
									<channelcount>2</channelcount>
								</audio>
							</media>
						</file>
						<logginginfo>
							<description></description>
							<scene></scene>
							<shottake></shottake>
							<lognote></lognote>
							<good></good>
							<originalvideofilename></originalvideofilename>
							<originalaudiofilename></originalaudiofilename>
						</logginginfo>
						<colorinfo>
							<lut></lut>
							<lut1></lut1>
							<asc_sop></asc_sop>
							<asc_sat></asc_sat>
							<lut2></lut2>
						</colorinfo>
						<labels>
							<label2>Iris</label2>
						</labels>
					</clipitem>
					<clipitem id="clipitem-304">
						<masterclipid>masterclip-142</masterclipid>
						<name>A013_10311256_C121.mp4</name>
						<enabled>TRUE</enabled>
						<duration>1603</duration>
						<rate>
							<timebase>24</timebase>
							<ntsc>FALSE</ntsc>
						</rate>
						<start>25936</start>
						<end>25981</end>
						<in>1200</in>
						<out>1245</out>
						<pproTicksIn>12700800000000</pproTicksIn>
						<pproTicksOut>13177080000000</pproTicksOut>
						<alphatype>none</alphatype>
						<file id="file-142"/>
						<logginginfo>
							<description></description>
							<scene></scene>
							<shottake></shottake>
							<lognote></lognote>
							<good></good>
							<originalvideofilename></originalvideofilename>
							<originalaudiofilename></originalaudiofilename>
						</logginginfo>
						<colorinfo>
							<lut></lut>
							<lut1></lut1>
							<asc_sop></asc_sop>
							<asc_sat></asc_sat>
							<lut2></lut2>
						</colorinfo>
						<labels>
							<label2>Iris</label2>
						</labels>
					</clipitem>
					<clipitem id="clipitem-305">
						<masterclipid>masterclip-144</masterclipid>
						<name>A013_10311228_C115.mp4</name>
						<enabled>TRUE</enabled>
						<duration>1453</duration>
						<rate>
							<timebase>24</timebase>
							<ntsc>FALSE</ntsc>
						</rate>
						<start>25981</start>
						<end>26005</end>
						<in>167</in>
						<out>191</out>
						<pproTicksIn>1767528000000</pproTicksIn>
						<pproTicksOut>2021544000000</pproTicksOut>
						<alphatype>none</alphatype>
						<pixelaspectratio>square</pixelaspectratio>
						<anamorphic>FALSE</anamorphic>
						<file id="file-144">
							<name>A013_10311228_C115.mp4</name>
							<pathurl>file://localhost/F%3a/love%20song/meera%20room/A013_10311228_C115.mp4</pathurl>
							<rate>
								<timebase>24</timebase>
								<ntsc>FALSE</ntsc>
							</rate>
							<duration>1453</duration>
							<timecode>
								<rate>
									<timebase>24</timebase>
									<ntsc>FALSE</ntsc>
								</rate>
								<string>12:28:48:22</string>
								<frame>1078294</frame>
								<displayformat>NDF</displayformat>
							</timecode>
							<media>
								<video>
									<samplecharacteristics>
										<rate>
											<timebase>24</timebase>
											<ntsc>FALSE</ntsc>
										</rate>
										<width>1920</width>
										<height>1080</height>
										<anamorphic>FALSE</anamorphic>
										<pixelaspectratio>square</pixelaspectratio>
										<fielddominance>none</fielddominance>
									</samplecharacteristics>
								</video>
								<audio>
									<samplecharacteristics>
										<depth>16</depth>
										<samplerate>48000</samplerate>
									</samplecharacteristics>
									<channelcount>2</channelcount>
								</audio>
							</media>
						</file>
						<logginginfo>
							<description></description>
							<scene></scene>
							<shottake></shottake>
							<lognote></lognote>
							<good></good>
							<originalvideofilename></originalvideofilename>
							<originalaudiofilename></originalaudiofilename>
						</logginginfo>
						<colorinfo>
							<lut></lut>
							<lut1></lut1>
							<asc_sop></asc_sop>
							<asc_sat></asc_sat>
							<lut2></lut2>
						</colorinfo>
						<labels>
							<label2>Iris</label2>
						</labels>
					</clipitem>
					<clipitem id="clipitem-306">
						<masterclipid>masterclip-145</masterclipid>
						<name>A013_10311230_C116.mp4</name>
						<enabled>TRUE</enabled>
						<duration>1285</duration>
						<rate>
							<timebase>24</timebase>
							<ntsc>FALSE</ntsc>
						</rate>
						<start>26005</start>
						<end>26029</end>
						<in>124</in>
						<out>148</out>
						<pproTicksIn>1312416000000</pproTicksIn>
						<pproTicksOut>1566432000000</pproTicksOut>
						<alphatype>none</alphatype>
						<pixelaspectratio>square</pixelaspectratio>
						<anamorphic>FALSE</anamorphic>
						<file id="file-145">
							<name>A013_10311230_C116.mp4</name>
							<pathurl>file://localhost/F%3a/love%20song/meera%20room/A013_10311230_C116.mp4</pathurl>
							<rate>
								<timebase>24</timebase>
								<ntsc>FALSE</ntsc>
							</rate>
							<duration>1285</duration>
							<timecode>
								<rate>
									<timebase>24</timebase>
									<ntsc>FALSE</ntsc>
								</rate>
								<string>12:30:57:07</string>
								<frame>1081375</frame>
								<displayformat>NDF</displayformat>
							</timecode>
							<media>
								<video>
									<samplecharacteristics>
										<rate>
											<timebase>24</timebase>
											<ntsc>FALSE</ntsc>
										</rate>
										<width>1920</width>
										<height>1080</height>
										<anamorphic>FALSE</anamorphic>
										<pixelaspectratio>square</pixelaspectratio>
										<fielddominance>none</fielddominance>
									</samplecharacteristics>
								</video>
								<audio>
									<samplecharacteristics>
										<depth>16</depth>
										<samplerate>48000</samplerate>
									</samplecharacteristics>
									<channelcount>2</channelcount>
								</audio>
							</media>
						</file>
						<logginginfo>
							<description></description>
							<scene></scene>
							<shottake></shottake>
							<lognote></lognote>
							<good></good>
							<originalvideofilename></originalvideofilename>
							<originalaudiofilename></originalaudiofilename>
						</logginginfo>
						<colorinfo>
							<lut></lut>
							<lut1></lut1>
							<asc_sop></asc_sop>
							<asc_sat></asc_sat>
							<lut2></lut2>
						</colorinfo>
						<labels>
							<label2>Iris</label2>
						</labels>
					</clipitem>
					<clipitem id="clipitem-307">
						<masterclipid>masterclip-146</masterclipid>
						<name>A013_10311224_C112.mp4</name>
						<enabled>TRUE</enabled>
						<duration>853</duration>
						<rate>
							<timebase>24</timebase>
							<ntsc>FALSE</ntsc>
						</rate>
						<start>26029</start>
						<end>26051</end>
						<in>794</in>
						<out>816</out>
						<pproTicksIn>8403696000000</pproTicksIn>
						<pproTicksOut>8636544000000</pproTicksOut>
						<alphatype>none</alphatype>
						<pixelaspectratio>square</pixelaspectratio>
						<anamorphic>FALSE</anamorphic>
						<file id="file-146">
							<name>A013_10311224_C112.mp4</name>
							<pathurl>file://localhost/F%3a/love%20song/meera%20room/A013_10311224_C112.mp4</pathurl>
							<rate>
								<timebase>24</timebase>
								<ntsc>FALSE</ntsc>
							</rate>
							<duration>853</duration>
							<timecode>
								<rate>
									<timebase>24</timebase>
									<ntsc>FALSE</ntsc>
								</rate>
								<string>12:24:36:04</string>
								<frame>1072228</frame>
								<displayformat>NDF</displayformat>
							</timecode>
							<media>
								<video>
									<samplecharacteristics>
										<rate>
											<timebase>24</timebase>
											<ntsc>FALSE</ntsc>
										</rate>
										<width>1920</width>
										<height>1080</height>
										<anamorphic>FALSE</anamorphic>
										<pixelaspectratio>square</pixelaspectratio>
										<fielddominance>none</fielddominance>
									</samplecharacteristics>
								</video>
								<audio>
									<samplecharacteristics>
										<depth>16</depth>
										<samplerate>48000</samplerate>
									</samplecharacteristics>
									<channelcount>2</channelcount>
								</audio>
							</media>
						</file>
						<logginginfo>
							<description></description>
							<scene></scene>
							<shottake></shottake>
							<lognote></lognote>
							<good></good>
							<originalvideofilename></originalvideofilename>
							<originalaudiofilename></originalaudiofilename>
						</logginginfo>
						<colorinfo>
							<lut></lut>
							<lut1></lut1>
							<asc_sop></asc_sop>
							<asc_sat></asc_sat>
							<lut2></lut2>
						</colorinfo>
						<labels>
							<label2>Iris</label2>
						</labels>
					</clipitem>
					<clipitem id="clipitem-308">
						<masterclipid>masterclip-147</masterclipid>
						<name>A013_10311238_C118.mp4</name>
						<enabled>TRUE</enabled>
						<duration>1202</duration>
						<rate>
							<timebase>24</timebase>
							<ntsc>FALSE</ntsc>
						</rate>
						<start>26051</start>
						<end>26077</end>
						<in>995</in>
						<out>1021</out>
						<pproTicksIn>10531080000000</pproTicksIn>
						<pproTicksOut>10806264000000</pproTicksOut>
						<alphatype>none</alphatype>
						<pixelaspectratio>square</pixelaspectratio>
						<anamorphic>FALSE</anamorphic>
						<file id="file-147">
							<name>A013_10311238_C118.mp4</name>
							<pathurl>file://localhost/F%3a/love%20song/meera%20room/A013_10311238_C118.mp4</pathurl>
							<rate>
								<timebase>24</timebase>
								<ntsc>FALSE</ntsc>
							</rate>
							<duration>1202</duration>
							<timecode>
								<rate>
									<timebase>24</timebase>
									<ntsc>FALSE</ntsc>
								</rate>
								<string>12:38:30:19</string>
								<frame>1092259</frame>
								<displayformat>NDF</displayformat>
							</timecode>
							<media>
								<video>
									<samplecharacteristics>
										<rate>
											<timebase>24</timebase>
											<ntsc>FALSE</ntsc>
										</rate>
										<width>1920</width>
										<height>1080</height>
										<anamorphic>FALSE</anamorphic>
										<pixelaspectratio>square</pixelaspectratio>
										<fielddominance>none</fielddominance>
									</samplecharacteristics>
								</video>
								<audio>
									<samplecharacteristics>
										<depth>16</depth>
										<samplerate>48000</samplerate>
									</samplecharacteristics>
									<channelcount>2</channelcount>
								</audio>
							</media>
						</file>
						<logginginfo>
							<description></description>
							<scene></scene>
							<shottake></shottake>
							<lognote></lognote>
							<good></good>
							<originalvideofilename></originalvideofilename>
							<originalaudiofilename></originalaudiofilename>
						</logginginfo>
						<colorinfo>
							<lut></lut>
							<lut1></lut1>
							<asc_sop></asc_sop>
							<asc_sat></asc_sat>
							<lut2></lut2>
						</colorinfo>
						<labels>
							<label2>Iris</label2>
						</labels>
					</clipitem>
					<clipitem id="clipitem-309">
						<masterclipid>masterclip-148</masterclipid>
						<name>A013_10311233_C117.mp4</name>
						<enabled>TRUE</enabled>
						<duration>1860</duration>
						<rate>
							<timebase>24</timebase>
							<ntsc>FALSE</ntsc>
						</rate>
						<start>26077</start>
						<end>26100</end>
						<in>630</in>
						<out>653</out>
						<pproTicksIn>6667920000000</pproTicksIn>
						<pproTicksOut>6911352000000</pproTicksOut>
						<alphatype>none</alphatype>
						<pixelaspectratio>square</pixelaspectratio>
						<anamorphic>FALSE</anamorphic>
						<file id="file-148">
							<name>A013_10311233_C117.mp4</name>
							<pathurl>file://localhost/F%3a/love%20song/meera%20room/A013_10311233_C117.mp4</pathurl>
							<rate>
								<timebase>24</timebase>
								<ntsc>FALSE</ntsc>
							</rate>
							<duration>1860</duration>
							<timecode>
								<rate>
									<timebase>24</timebase>
									<ntsc>FALSE</ntsc>
								</rate>
								<string>12:33:56:19</string>
								<frame>1085683</frame>
								<displayformat>NDF</displayformat>
							</timecode>
							<media>
								<video>
									<samplecharacteristics>
										<rate>
											<timebase>24</timebase>
											<ntsc>FALSE</ntsc>
										</rate>
										<width>1920</width>
										<height>1080</height>
										<anamorphic>FALSE</anamorphic>
										<pixelaspectratio>square</pixelaspectratio>
										<fielddominance>none</fielddominance>
									</samplecharacteristics>
								</video>
								<audio>
									<samplecharacteristics>
										<depth>16</depth>
										<samplerate>48000</samplerate>
									</samplecharacteristics>
									<channelcount>2</channelcount>
								</audio>
							</media>
						</file>
						<logginginfo>
							<description></description>
							<scene></scene>
							<shottake></shottake>
							<lognote></lognote>
							<good></good>
							<originalvideofilename></originalvideofilename>
							<originalaudiofilename></originalaudiofilename>
						</logginginfo>
						<colorinfo>
							<lut></lut>
							<lut1></lut1>
							<asc_sop></asc_sop>
							<asc_sat></asc_sat>
							<lut2></lut2>
						</colorinfo>
						<labels>
							<label2>Iris</label2>
						</labels>
					</clipitem>
					<clipitem id="clipitem-310">
						<masterclipid>masterclip-148</masterclipid>
						<name>A013_10311233_C117.mp4</name>
						<enabled>TRUE</enabled>
						<duration>1860</duration>
						<rate>
							<timebase>24</timebase>
							<ntsc>FALSE</ntsc>
						</rate>
						<start>26100</start>
						<end>26124</end>
						<in>1333</in>
						<out>1357</out>
						<pproTicksIn>14108472000000</pproTicksIn>
						<pproTicksOut>14362488000000</pproTicksOut>
						<alphatype>none</alphatype>
						<file id="file-148"/>
						<logginginfo>
							<description></description>
							<scene></scene>
							<shottake></shottake>
							<lognote></lognote>
							<good></good>
							<originalvideofilename></originalvideofilename>
							<originalaudiofilename></originalaudiofilename>
						</logginginfo>
						<colorinfo>
							<lut></lut>
							<lut1></lut1>
							<asc_sop></asc_sop>
							<asc_sat></asc_sat>
							<lut2></lut2>
						</colorinfo>
						<labels>
							<label2>Iris</label2>
						</labels>
					</clipitem>
					<clipitem id="clipitem-311">
						<masterclipid>masterclip-148</masterclipid>
						<name>A013_10311233_C117.mp4</name>
						<enabled>TRUE</enabled>
						<duration>1860</duration>
						<rate>
							<timebase>24</timebase>
							<ntsc>FALSE</ntsc>
						</rate>
						<start>26124</start>
						<end>26150</end>
						<in>1489</in>
						<out>1515</out>
						<pproTicksIn>15759576000000</pproTicksIn>
						<pproTicksOut>16034760000000</pproTicksOut>
						<alphatype>none</alphatype>
						<file id="file-148"/>
						<logginginfo>
							<description></description>
							<scene></scene>
							<shottake></shottake>
							<lognote></lognote>
							<good></good>
							<originalvideofilename></originalvideofilename>
							<originalaudiofilename></originalaudiofilename>
						</logginginfo>
						<colorinfo>
							<lut></lut>
							<lut1></lut1>
							<asc_sop></asc_sop>
							<asc_sat></asc_sat>
							<lut2></lut2>
						</colorinfo>
						<labels>
							<label2>Iris</label2>
						</labels>
					</clipitem>
					<clipitem id="clipitem-312">
						<masterclipid>masterclip-147</masterclipid>
						<name>A013_10311238_C118.mp4</name>
						<enabled>TRUE</enabled>
						<duration>1202</duration>
						<rate>
							<timebase>24</timebase>
							<ntsc>FALSE</ntsc>
						</rate>
						<start>26150</start>
						<end>26172</end>
						<in>474</in>
						<out>496</out>
						<pproTicksIn>5016816000000</pproTicksIn>
						<pproTicksOut>5249664000000</pproTicksOut>
						<alphatype>none</alphatype>
						<file id="file-147"/>
						<logginginfo>
							<description></description>
							<scene></scene>
							<shottake></shottake>
							<lognote></lognote>
							<good></good>
							<originalvideofilename></originalvideofilename>
							<originalaudiofilename></originalaudiofilename>
						</logginginfo>
						<colorinfo>
							<lut></lut>
							<lut1></lut1>
							<asc_sop></asc_sop>
							<asc_sat></asc_sat>
							<lut2></lut2>
						</colorinfo>
						<labels>
							<label2>Iris</label2>
						</labels>
					</clipitem>
					<clipitem id="clipitem-313">
						<masterclipid>masterclip-149</masterclipid>
						<name>A013_10311317_C130.mp4</name>
						<enabled>TRUE</enabled>
						<duration>2696</duration>
						<rate>
							<timebase>24</timebase>
							<ntsc>FALSE</ntsc>
						</rate>
						<start>26172</start>
						<end>26221</end>
						<in>2004</in>
						<out>2053</out>
						<pproTicksIn>21210336000000</pproTicksIn>
						<pproTicksOut>21728952000000</pproTicksOut>
						<alphatype>none</alphatype>
						<pixelaspectratio>square</pixelaspectratio>
						<anamorphic>FALSE</anamorphic>
						<file id="file-149">
							<name>A013_10311317_C130.mp4</name>
							<pathurl>file://localhost/F%3a/love%20song/meera%20room/A013_10311317_C130.mp4</pathurl>
							<rate>
								<timebase>24</timebase>
								<ntsc>FALSE</ntsc>
							</rate>
							<duration>2696</duration>
							<timecode>
								<rate>
									<timebase>24</timebase>
									<ntsc>FALSE</ntsc>
								</rate>
								<string>13:17:01:07</string>
								<frame>1147711</frame>
								<displayformat>NDF</displayformat>
							</timecode>
							<media>
								<video>
									<samplecharacteristics>
										<rate>
											<timebase>24</timebase>
											<ntsc>FALSE</ntsc>
										</rate>
										<width>1920</width>
										<height>1080</height>
										<anamorphic>FALSE</anamorphic>
										<pixelaspectratio>square</pixelaspectratio>
										<fielddominance>none</fielddominance>
									</samplecharacteristics>
								</video>
								<audio>
									<samplecharacteristics>
										<depth>16</depth>
										<samplerate>48000</samplerate>
									</samplecharacteristics>
									<channelcount>2</channelcount>
								</audio>
							</media>
						</file>
						<logginginfo>
							<description></description>
							<scene></scene>
							<shottake></shottake>
							<lognote></lognote>
							<good></good>
							<originalvideofilename></originalvideofilename>
							<originalaudiofilename></originalaudiofilename>
						</logginginfo>
						<colorinfo>
							<lut></lut>
							<lut1></lut1>
							<asc_sop></asc_sop>
							<asc_sat></asc_sat>
							<lut2></lut2>
						</colorinfo>
						<labels>
							<label2>Iris</label2>
						</labels>
					</clipitem>
					<clipitem id="clipitem-314">
						<masterclipid>masterclip-150</masterclipid>
						<name>DJI_0081.mov</name>
						<enabled>TRUE</enabled>
						<duration>493</duration>
						<rate>
							<timebase>24</timebase>
							<ntsc>FALSE</ntsc>
						</rate>
						<start>26221</start>
						<end>26233</end>
						<in>270</in>
						<out>281</out>
						<pproTicksIn>4275936000000</pproTicksIn>
						<pproTicksOut>4466448000000</pproTicksOut>
						<alphatype>none</alphatype>
						<pixelaspectratio>square</pixelaspectratio>
						<anamorphic>FALSE</anamorphic>
						<file id="file-150">
							<name>DJI_0081.mov</name>
							<pathurl>file://localhost/F%3a/love%20song/bike%20ride%20(drone)/DJI_0081.mov</pathurl>
							<rate>
								<timebase>50</timebase>
								<ntsc>FALSE</ntsc>
							</rate>
							<duration>1542</duration>
							<timecode>
								<rate>
									<timebase>50</timebase>
									<ntsc>FALSE</ntsc>
								</rate>
								<string>00:00:00:00</string>
								<frame>0</frame>
								<displayformat>NDF</displayformat>
							</timecode>
							<media>
								<video>
									<samplecharacteristics>
										<rate>
											<timebase>50</timebase>
											<ntsc>FALSE</ntsc>
										</rate>
										<width>1920</width>
										<height>1080</height>
										<anamorphic>FALSE</anamorphic>
										<pixelaspectratio>square</pixelaspectratio>
										<fielddominance>none</fielddominance>
									</samplecharacteristics>
								</video>
								<audio>
									<samplecharacteristics>
										<depth>16</depth>
										<samplerate>48000</samplerate>
									</samplecharacteristics>
									<channelcount>2</channelcount>
								</audio>
							</media>
						</file>
						<filter>
							<effect>
								<name>Time Remap</name>
								<effectid>timeremap</effectid>
								<effectcategory>motion</effectcategory>
								<effecttype>motion</effecttype>
								<mediatype>video</mediatype>
								<parameter authoringApp="PremierePro">
									<parameterid>variablespeed</parameterid>
									<name>variablespeed</name>
									<valuemin>0</valuemin>
									<valuemax>1</valuemax>
									<value>0</value>
								</parameter>
								<parameter authoringApp="PremierePro">
									<parameterid>speed</parameterid>
									<name>speed</name>
									<valuemin>-100000</valuemin>
									<valuemax>100000</valuemax>
									<value>150</value>
								</parameter>
								<parameter authoringApp="PremierePro">
									<parameterid>reverse</parameterid>
									<name>reverse</name>
									<value>FALSE</value>
								</parameter>
								<parameter authoringApp="PremierePro">
									<parameterid>frameblending</parameterid>
									<name>frameblending</name>
									<value>FALSE</value>
								</parameter>
								<parameter authoringApp="PremierePro">
									<parameterid>graphdict</parameterid>
									<name>graphdict</name>
									<valuemin>0</valuemin>
									<valuemax>739</valuemax>
									<value>0</value>
									<keyframe>
										<when>0</when>
										<value>0</value>
										<speedvirtualkf>TRUE</speedvirtualkf>
										<speedkfstart>TRUE</speedkfstart>
									</keyframe>
									<keyframe>
										<when>270</when>
										<value>405</value>
										<speedvirtualkf>TRUE</speedvirtualkf>
										<speedkfin>TRUE</speedkfin>
									</keyframe>
									<keyframe>
										<when>281</when>
										<value>421</value>
										<speedvirtualkf>TRUE</speedvirtualkf>
										<speedkfout>TRUE</speedkfout>
									</keyframe>
									<keyframe>
										<when>493</when>
										<value>739</value>
										<speedvirtualkf>TRUE</speedvirtualkf>
										<speedkfend>TRUE</speedkfend>
									</keyframe>
									<interpolation>
										<name>FCPCurve</name>
									</interpolation>
								</parameter>
							</effect>
						</filter>
						<logginginfo>
							<description></description>
							<scene></scene>
							<shottake></shottake>
							<lognote></lognote>
							<good></good>
							<originalvideofilename></originalvideofilename>
							<originalaudiofilename></originalaudiofilename>
						</logginginfo>
						<colorinfo>
							<lut></lut>
							<lut1></lut1>
							<asc_sop></asc_sop>
							<asc_sat></asc_sat>
							<lut2></lut2>
						</colorinfo>
						<labels>
							<label2>Iris</label2>
						</labels>
					</clipitem>
					<clipitem id="clipitem-315">
						<masterclipid>masterclip-151</masterclipid>
						<name>DJI_0091.mov</name>
						<enabled>TRUE</enabled>
						<duration>800</duration>
						<rate>
							<timebase>24</timebase>
							<ntsc>FALSE</ntsc>
						</rate>
						<start>26233</start>
						<end>26245</end>
						<in>120</in>
						<out>131</out>
						<pproTicksIn>1523037600000</pproTicksIn>
						<pproTicksOut>1675447200000</pproTicksOut>
						<alphatype>none</alphatype>
						<pixelaspectratio>square</pixelaspectratio>
						<anamorphic>FALSE</anamorphic>
						<file id="file-151">
							<name>DJI_0091.mov</name>
							<pathurl>file://localhost/F%3a/love%20song/bike%20ride%20(drone)/DJI_0091.mov</pathurl>
							<rate>
								<timebase>50</timebase>
								<ntsc>FALSE</ntsc>
							</rate>
							<duration>2002</duration>
							<timecode>
								<rate>
									<timebase>50</timebase>
									<ntsc>FALSE</ntsc>
								</rate>
								<string>00:00:00:00</string>
								<frame>0</frame>
								<displayformat>NDF</displayformat>
							</timecode>
							<media>
								<video>
									<samplecharacteristics>
										<rate>
											<timebase>50</timebase>
											<ntsc>FALSE</ntsc>
										</rate>
										<width>1920</width>
										<height>1080</height>
										<anamorphic>FALSE</anamorphic>
										<pixelaspectratio>square</pixelaspectratio>
										<fielddominance>none</fielddominance>
									</samplecharacteristics>
								</video>
								<audio>
									<samplecharacteristics>
										<depth>16</depth>
										<samplerate>48000</samplerate>
									</samplecharacteristics>
									<channelcount>2</channelcount>
								</audio>
							</media>
						</file>
						<filter>
							<effect>
								<name>Time Remap</name>
								<effectid>timeremap</effectid>
								<effectcategory>motion</effectcategory>
								<effecttype>motion</effecttype>
								<mediatype>video</mediatype>
								<parameter authoringApp="PremierePro">
									<parameterid>variablespeed</parameterid>
									<name>variablespeed</name>
									<valuemin>0</valuemin>
									<valuemax>1</valuemax>
									<value>0</value>
								</parameter>
								<parameter authoringApp="PremierePro">
									<parameterid>speed</parameterid>
									<name>speed</name>
									<valuemin>-100000</valuemin>
									<valuemax>100000</valuemax>
									<value>120</value>
								</parameter>
								<parameter authoringApp="PremierePro">
									<parameterid>reverse</parameterid>
									<name>reverse</name>
									<value>FALSE</value>
								</parameter>
								<parameter authoringApp="PremierePro">
									<parameterid>frameblending</parameterid>
									<name>frameblending</name>
									<value>FALSE</value>
								</parameter>
								<parameter authoringApp="PremierePro">
									<parameterid>graphdict</parameterid>
									<name>graphdict</name>
									<valuemin>0</valuemin>
									<valuemax>960</valuemax>
									<value>0</value>
									<keyframe>
										<when>0</when>
										<value>0</value>
										<speedvirtualkf>TRUE</speedvirtualkf>
										<speedkfstart>TRUE</speedkfstart>
									</keyframe>
									<keyframe>
										<when>120</when>
										<value>144</value>
										<speedvirtualkf>TRUE</speedvirtualkf>
										<speedkfin>TRUE</speedkfin>
									</keyframe>
									<keyframe>
										<when>131</when>
										<value>157</value>
										<speedvirtualkf>TRUE</speedvirtualkf>
										<speedkfout>TRUE</speedkfout>
									</keyframe>
									<keyframe>
										<when>800</when>
										<value>960</value>
										<speedvirtualkf>TRUE</speedvirtualkf>
										<speedkfend>TRUE</speedkfend>
									</keyframe>
									<interpolation>
										<name>FCPCurve</name>
									</interpolation>
								</parameter>
							</effect>
						</filter>
						<logginginfo>
							<description></description>
							<scene></scene>
							<shottake></shottake>
							<lognote></lognote>
							<good></good>
							<originalvideofilename></originalvideofilename>
							<originalaudiofilename></originalaudiofilename>
						</logginginfo>
						<colorinfo>
							<lut></lut>
							<lut1></lut1>
							<asc_sop></asc_sop>
							<asc_sat></asc_sat>
							<lut2></lut2>
						</colorinfo>
						<labels>
							<label2>Iris</label2>
						</labels>
					</clipitem>
					<clipitem id="clipitem-316">
						<masterclipid>masterclip-151</masterclipid>
						<name>DJI_0091.mov</name>
						<enabled>TRUE</enabled>
						<duration>640</duration>
						<rate>
							<timebase>24</timebase>
							<ntsc>FALSE</ntsc>
						</rate>
						<start>26245</start>
						<end>26257</end>
						<in>566</in>
						<out>577</out>
						<pproTicksIn>8975232000000</pproTicksIn>
						<pproTicksOut>9165744000000</pproTicksOut>
						<alphatype>none</alphatype>
						<file id="file-151"/>
						<filter>
							<effect>
								<name>Time Remap</name>
								<effectid>timeremap</effectid>
								<effectcategory>motion</effectcategory>
								<effecttype>motion</effecttype>
								<mediatype>video</mediatype>
								<parameter authoringApp="PremierePro">
									<parameterid>variablespeed</parameterid>
									<name>variablespeed</name>
									<valuemin>0</valuemin>
									<valuemax>1</valuemax>
									<value>0</value>
								</parameter>
								<parameter authoringApp="PremierePro">
									<parameterid>speed</parameterid>
									<name>speed</name>
									<valuemin>-100000</valuemin>
									<valuemax>100000</valuemax>
									<value>150</value>
								</parameter>
								<parameter authoringApp="PremierePro">
									<parameterid>reverse</parameterid>
									<name>reverse</name>
									<value>FALSE</value>
								</parameter>
								<parameter authoringApp="PremierePro">
									<parameterid>frameblending</parameterid>
									<name>frameblending</name>
									<value>FALSE</value>
								</parameter>
								<parameter authoringApp="PremierePro">
									<parameterid>graphdict</parameterid>
									<name>graphdict</name>
									<valuemin>0</valuemin>
									<valuemax>960</valuemax>
									<value>0</value>
									<keyframe>
										<when>0</when>
										<value>0</value>
										<speedvirtualkf>TRUE</speedvirtualkf>
										<speedkfstart>TRUE</speedkfstart>
									</keyframe>
									<keyframe>
										<when>566</when>
										<value>849</value>
										<speedvirtualkf>TRUE</speedvirtualkf>
										<speedkfin>TRUE</speedkfin>
									</keyframe>
									<keyframe>
										<when>577</when>
										<value>865</value>
										<speedvirtualkf>TRUE</speedvirtualkf>
										<speedkfout>TRUE</speedkfout>
									</keyframe>
									<keyframe>
										<when>640</when>
										<value>960</value>
										<speedvirtualkf>TRUE</speedvirtualkf>
										<speedkfend>TRUE</speedkfend>
									</keyframe>
									<interpolation>
										<name>FCPCurve</name>
									</interpolation>
								</parameter>
							</effect>
						</filter>
						<logginginfo>
							<description></description>
							<scene></scene>
							<shottake></shottake>
							<lognote></lognote>
							<good></good>
							<originalvideofilename></originalvideofilename>
							<originalaudiofilename></originalaudiofilename>
						</logginginfo>
						<colorinfo>
							<lut></lut>
							<lut1></lut1>
							<asc_sop></asc_sop>
							<asc_sat></asc_sat>
							<lut2></lut2>
						</colorinfo>
						<labels>
							<label2>Iris</label2>
						</labels>
					</clipitem>
					<clipitem id="clipitem-317">
						<masterclipid>masterclip-151</masterclipid>
						<name>DJI_0091.mov</name>
						<enabled>TRUE</enabled>
						<duration>800</duration>
						<rate>
							<timebase>24</timebase>
							<ntsc>FALSE</ntsc>
						</rate>
						<start>26257</start>
						<end>26269</end>
						<in>492</in>
						<out>503</out>
						<pproTicksIn>6244560000000</pproTicksIn>
						<pproTicksOut>6396969600000</pproTicksOut>
						<alphatype>none</alphatype>
						<file id="file-151"/>
						<filter>
							<effect>
								<name>Time Remap</name>
								<effectid>timeremap</effectid>
								<effectcategory>motion</effectcategory>
								<effecttype>motion</effecttype>
								<mediatype>video</mediatype>
								<parameter authoringApp="PremierePro">
									<parameterid>variablespeed</parameterid>
									<name>variablespeed</name>
									<valuemin>0</valuemin>
									<valuemax>1</valuemax>
									<value>0</value>
								</parameter>
								<parameter authoringApp="PremierePro">
									<parameterid>speed</parameterid>
									<name>speed</name>
									<valuemin>-100000</valuemin>
									<valuemax>100000</valuemax>
									<value>120</value>
								</parameter>
								<parameter authoringApp="PremierePro">
									<parameterid>reverse</parameterid>
									<name>reverse</name>
									<value>FALSE</value>
								</parameter>
								<parameter authoringApp="PremierePro">
									<parameterid>frameblending</parameterid>
									<name>frameblending</name>
									<value>FALSE</value>
								</parameter>
								<parameter authoringApp="PremierePro">
									<parameterid>graphdict</parameterid>
									<name>graphdict</name>
									<valuemin>0</valuemin>
									<valuemax>960</valuemax>
									<value>0</value>
									<keyframe>
										<when>0</when>
										<value>0</value>
										<speedvirtualkf>TRUE</speedvirtualkf>
										<speedkfstart>TRUE</speedkfstart>
									</keyframe>
									<keyframe>
										<when>492</when>
										<value>590</value>
										<speedvirtualkf>TRUE</speedvirtualkf>
										<speedkfin>TRUE</speedkfin>
									</keyframe>
									<keyframe>
										<when>503</when>
										<value>603</value>
										<speedvirtualkf>TRUE</speedvirtualkf>
										<speedkfout>TRUE</speedkfout>
									</keyframe>
									<keyframe>
										<when>800</when>
										<value>960</value>
										<speedvirtualkf>TRUE</speedvirtualkf>
										<speedkfend>TRUE</speedkfend>
									</keyframe>
									<interpolation>
										<name>FCPCurve</name>
									</interpolation>
								</parameter>
							</effect>
						</filter>
						<logginginfo>
							<description></description>
							<scene></scene>
							<shottake></shottake>
							<lognote></lognote>
							<good></good>
							<originalvideofilename></originalvideofilename>
							<originalaudiofilename></originalaudiofilename>
						</logginginfo>
						<colorinfo>
							<lut></lut>
							<lut1></lut1>
							<asc_sop></asc_sop>
							<asc_sat></asc_sat>
							<lut2></lut2>
						</colorinfo>
						<labels>
							<label2>Iris</label2>
						</labels>
					</clipitem>
					<clipitem id="clipitem-318">
						<masterclipid>masterclip-152</masterclipid>
						<name>A012_10300934_C107.mp4</name>
						<enabled>TRUE</enabled>
						<duration>1820</duration>
						<rate>
							<timebase>24</timebase>
							<ntsc>FALSE</ntsc>
						</rate>
						<start>26269</start>
						<end>26281</end>
						<in>570</in>
						<out>581</out>
						<pproTicksIn>12055176000000</pproTicksIn>
						<pproTicksOut>12309192000000</pproTicksOut>
						<alphatype>none</alphatype>
						<pixelaspectratio>square</pixelaspectratio>
						<anamorphic>FALSE</anamorphic>
						<file id="file-152">
							<name>A012_10300934_C107.mp4</name>
							<pathurl>file://localhost/F%3a/love%20song/rotation%20and%20forest/A012_10300934_C107.mp4</pathurl>
							<rate>
								<timebase>24</timebase>
								<ntsc>FALSE</ntsc>
							</rate>
							<duration>3641</duration>
							<timecode>
								<rate>
									<timebase>24</timebase>
									<ntsc>FALSE</ntsc>
								</rate>
								<string>09:34:13:11</string>
								<frame>826883</frame>
								<displayformat>NDF</displayformat>
							</timecode>
							<media>
								<video>
									<samplecharacteristics>
										<rate>
											<timebase>24</timebase>
											<ntsc>FALSE</ntsc>
										</rate>
										<width>1920</width>
										<height>1080</height>
										<anamorphic>FALSE</anamorphic>
										<pixelaspectratio>square</pixelaspectratio>
										<fielddominance>none</fielddominance>
									</samplecharacteristics>
								</video>
								<audio>
									<samplecharacteristics>
										<depth>16</depth>
										<samplerate>48000</samplerate>
									</samplecharacteristics>
									<channelcount>2</channelcount>
								</audio>
							</media>
						</file>
						<filter>
							<effect>
								<name>Time Remap</name>
								<effectid>timeremap</effectid>
								<effectcategory>motion</effectcategory>
								<effecttype>motion</effecttype>
								<mediatype>video</mediatype>
								<parameter authoringApp="PremierePro">
									<parameterid>variablespeed</parameterid>
									<name>variablespeed</name>
									<valuemin>0</valuemin>
									<valuemax>1</valuemax>
									<value>0</value>
								</parameter>
								<parameter authoringApp="PremierePro">
									<parameterid>speed</parameterid>
									<name>speed</name>
									<valuemin>-100000</valuemin>
									<valuemax>100000</valuemax>
									<value>200</value>
								</parameter>
								<parameter authoringApp="PremierePro">
									<parameterid>reverse</parameterid>
									<name>reverse</name>
									<value>FALSE</value>
								</parameter>
								<parameter authoringApp="PremierePro">
									<parameterid>frameblending</parameterid>
									<name>frameblending</name>
									<value>FALSE</value>
								</parameter>
								<parameter authoringApp="PremierePro">
									<parameterid>graphdict</parameterid>
									<name>graphdict</name>
									<valuemin>0</valuemin>
									<valuemax>3640</valuemax>
									<value>0</value>
									<keyframe>
										<when>0</when>
										<value>0</value>
										<speedvirtualkf>TRUE</speedvirtualkf>
										<speedkfstart>TRUE</speedkfstart>
									</keyframe>
									<keyframe>
										<when>570</when>
										<value>1140</value>
										<speedvirtualkf>TRUE</speedvirtualkf>
										<speedkfin>TRUE</speedkfin>
									</keyframe>
									<keyframe>
										<when>581</when>
										<value>1162</value>
										<speedvirtualkf>TRUE</speedvirtualkf>
										<speedkfout>TRUE</speedkfout>
									</keyframe>
									<keyframe>
										<when>1820</when>
										<value>3640</value>
										<speedvirtualkf>TRUE</speedvirtualkf>
										<speedkfend>TRUE</speedkfend>
									</keyframe>
									<interpolation>
										<name>FCPCurve</name>
									</interpolation>
								</parameter>
							</effect>
						</filter>
						<logginginfo>
							<description></description>
							<scene></scene>
							<shottake></shottake>
							<lognote></lognote>
							<good></good>
							<originalvideofilename></originalvideofilename>
							<originalaudiofilename></originalaudiofilename>
						</logginginfo>
						<colorinfo>
							<lut></lut>
							<lut1></lut1>
							<asc_sop></asc_sop>
							<asc_sat></asc_sat>
							<lut2></lut2>
						</colorinfo>
						<labels>
							<label2>Iris</label2>
						</labels>
					</clipitem>
					<clipitem id="clipitem-319">
						<masterclipid>masterclip-152</masterclipid>
						<name>A012_10300934_C107.mp4</name>
						<enabled>TRUE</enabled>
						<duration>1820</duration>
						<rate>
							<timebase>24</timebase>
							<ntsc>FALSE</ntsc>
						</rate>
						<start>26281</start>
						<end>26293</end>
						<in>1170</in>
						<out>1182</out>
						<pproTicksIn>24766560000000</pproTicksIn>
						<pproTicksOut>25020576000000</pproTicksOut>
						<alphatype>none</alphatype>
						<file id="file-152"/>
						<filter>
							<effect>
								<name>Time Remap</name>
								<effectid>timeremap</effectid>
								<effectcategory>motion</effectcategory>
								<effecttype>motion</effecttype>
								<mediatype>video</mediatype>
								<parameter authoringApp="PremierePro">
									<parameterid>variablespeed</parameterid>
									<name>variablespeed</name>
									<valuemin>0</valuemin>
									<valuemax>1</valuemax>
									<value>0</value>
								</parameter>
								<parameter authoringApp="PremierePro">
									<parameterid>speed</parameterid>
									<name>speed</name>
									<valuemin>-100000</valuemin>
									<valuemax>100000</valuemax>
									<value>200</value>
								</parameter>
								<parameter authoringApp="PremierePro">
									<parameterid>reverse</parameterid>
									<name>reverse</name>
									<value>FALSE</value>
								</parameter>
								<parameter authoringApp="PremierePro">
									<parameterid>frameblending</parameterid>
									<name>frameblending</name>
									<value>FALSE</value>
								</parameter>
								<parameter authoringApp="PremierePro">
									<parameterid>graphdict</parameterid>
									<name>graphdict</name>
									<valuemin>0</valuemin>
									<valuemax>3640</valuemax>
									<value>0</value>
									<keyframe>
										<when>0</when>
										<value>0</value>
										<speedvirtualkf>TRUE</speedvirtualkf>
										<speedkfstart>TRUE</speedkfstart>
									</keyframe>
									<keyframe>
										<when>1170</when>
										<value>2340</value>
										<speedvirtualkf>TRUE</speedvirtualkf>
										<speedkfin>TRUE</speedkfin>
									</keyframe>
									<keyframe>
										<when>1182</when>
										<value>2364</value>
										<speedvirtualkf>TRUE</speedvirtualkf>
										<speedkfout>TRUE</speedkfout>
									</keyframe>
									<keyframe>
										<when>1820</when>
										<value>3640</value>
										<speedvirtualkf>TRUE</speedvirtualkf>
										<speedkfend>TRUE</speedkfend>
									</keyframe>
									<interpolation>
										<name>FCPCurve</name>
									</interpolation>
								</parameter>
							</effect>
						</filter>
						<logginginfo>
							<description></description>
							<scene></scene>
							<shottake></shottake>
							<lognote></lognote>
							<good></good>
							<originalvideofilename></originalvideofilename>
							<originalaudiofilename></originalaudiofilename>
						</logginginfo>
						<colorinfo>
							<lut></lut>
							<lut1></lut1>
							<asc_sop></asc_sop>
							<asc_sat></asc_sat>
							<lut2></lut2>
						</colorinfo>
						<labels>
							<label2>Iris</label2>
						</labels>
					</clipitem>
					<clipitem id="clipitem-320">
						<masterclipid>masterclip-153</masterclipid>
						<name>A012_10300935_C108.mp4</name>
						<enabled>TRUE</enabled>
						<duration>2853</duration>
						<rate>
							<timebase>24</timebase>
							<ntsc>FALSE</ntsc>
						</rate>
						<start>26293</start>
						<end>26305</end>
						<in>638</in>
						<out>650</out>
						<pproTicksIn>13505184000000</pproTicksIn>
						<pproTicksOut>13759200000000</pproTicksOut>
						<alphatype>none</alphatype>
						<pixelaspectratio>square</pixelaspectratio>
						<anamorphic>FALSE</anamorphic>
						<file id="file-153">
							<name>A012_10300935_C108.mp4</name>
							<pathurl>file://localhost/F%3a/love%20song/rotation%20and%20forest/A012_10300935_C108.mp4</pathurl>
							<rate>
								<timebase>24</timebase>
								<ntsc>FALSE</ntsc>
							</rate>
							<duration>5707</duration>
							<timecode>
								<rate>
									<timebase>24</timebase>
									<ntsc>FALSE</ntsc>
								</rate>
								<string>09:35:43:12</string>
								<frame>829044</frame>
								<displayformat>NDF</displayformat>
							</timecode>
							<media>
								<video>
									<samplecharacteristics>
										<rate>
											<timebase>24</timebase>
											<ntsc>FALSE</ntsc>
										</rate>
										<width>1920</width>
										<height>1080</height>
										<anamorphic>FALSE</anamorphic>
										<pixelaspectratio>square</pixelaspectratio>
										<fielddominance>none</fielddominance>
									</samplecharacteristics>
								</video>
								<audio>
									<samplecharacteristics>
										<depth>16</depth>
										<samplerate>48000</samplerate>
									</samplecharacteristics>
									<channelcount>2</channelcount>
								</audio>
							</media>
						</file>
						<filter>
							<effect>
								<name>Time Remap</name>
								<effectid>timeremap</effectid>
								<effectcategory>motion</effectcategory>
								<effecttype>motion</effecttype>
								<mediatype>video</mediatype>
								<parameter authoringApp="PremierePro">
									<parameterid>variablespeed</parameterid>
									<name>variablespeed</name>
									<valuemin>0</valuemin>
									<valuemax>1</valuemax>
									<value>0</value>
								</parameter>
								<parameter authoringApp="PremierePro">
									<parameterid>speed</parameterid>
									<name>speed</name>
									<valuemin>-100000</valuemin>
									<valuemax>100000</valuemax>
									<value>200</value>
								</parameter>
								<parameter authoringApp="PremierePro">
									<parameterid>reverse</parameterid>
									<name>reverse</name>
									<value>FALSE</value>
								</parameter>
								<parameter authoringApp="PremierePro">
									<parameterid>frameblending</parameterid>
									<name>frameblending</name>
									<value>FALSE</value>
								</parameter>
								<parameter authoringApp="PremierePro">
									<parameterid>graphdict</parameterid>
									<name>graphdict</name>
									<valuemin>0</valuemin>
									<valuemax>5706</valuemax>
									<value>0</value>
									<keyframe>
										<when>0</when>
										<value>0</value>
										<speedvirtualkf>TRUE</speedvirtualkf>
										<speedkfstart>TRUE</speedkfstart>
									</keyframe>
									<keyframe>
										<when>638</when>
										<value>1276</value>
										<speedvirtualkf>TRUE</speedvirtualkf>
										<speedkfin>TRUE</speedkfin>
									</keyframe>
									<keyframe>
										<when>650</when>
										<value>1300</value>
										<speedvirtualkf>TRUE</speedvirtualkf>
										<speedkfout>TRUE</speedkfout>
									</keyframe>
									<keyframe>
										<when>2853</when>
										<value>5706</value>
										<speedvirtualkf>TRUE</speedvirtualkf>
										<speedkfend>TRUE</speedkfend>
									</keyframe>
									<interpolation>
										<name>FCPCurve</name>
									</interpolation>
								</parameter>
							</effect>
						</filter>
						<logginginfo>
							<description></description>
							<scene></scene>
							<shottake></shottake>
							<lognote></lognote>
							<good></good>
							<originalvideofilename></originalvideofilename>
							<originalaudiofilename></originalaudiofilename>
						</logginginfo>
						<colorinfo>
							<lut></lut>
							<lut1></lut1>
							<asc_sop></asc_sop>
							<asc_sat></asc_sat>
							<lut2></lut2>
						</colorinfo>
						<labels>
							<label2>Iris</label2>
						</labels>
					</clipitem>
					<clipitem id="clipitem-321">
						<masterclipid>masterclip-153</masterclipid>
						<name>A012_10300935_C108.mp4</name>
						<enabled>TRUE</enabled>
						<duration>2853</duration>
						<rate>
							<timebase>24</timebase>
							<ntsc>FALSE</ntsc>
						</rate>
						<start>26305</start>
						<end>26317</end>
						<in>2228</in>
						<out>2240</out>
						<pproTicksIn>47162304000000</pproTicksIn>
						<pproTicksOut>47416320000000</pproTicksOut>
						<alphatype>none</alphatype>
						<file id="file-153"/>
						<filter>
							<effect>
								<name>Time Remap</name>
								<effectid>timeremap</effectid>
								<effectcategory>motion</effectcategory>
								<effecttype>motion</effecttype>
								<mediatype>video</mediatype>
								<parameter authoringApp="PremierePro">
									<parameterid>variablespeed</parameterid>
									<name>variablespeed</name>
									<valuemin>0</valuemin>
									<valuemax>1</valuemax>
									<value>0</value>
								</parameter>
								<parameter authoringApp="PremierePro">
									<parameterid>speed</parameterid>
									<name>speed</name>
									<valuemin>-100000</valuemin>
									<valuemax>100000</valuemax>
									<value>200</value>
								</parameter>
								<parameter authoringApp="PremierePro">
									<parameterid>reverse</parameterid>
									<name>reverse</name>
									<value>FALSE</value>
								</parameter>
								<parameter authoringApp="PremierePro">
									<parameterid>frameblending</parameterid>
									<name>frameblending</name>
									<value>FALSE</value>
								</parameter>
								<parameter authoringApp="PremierePro">
									<parameterid>graphdict</parameterid>
									<name>graphdict</name>
									<valuemin>0</valuemin>
									<valuemax>5706</valuemax>
									<value>0</value>
									<keyframe>
										<when>0</when>
										<value>0</value>
										<speedvirtualkf>TRUE</speedvirtualkf>
										<speedkfstart>TRUE</speedkfstart>
									</keyframe>
									<keyframe>
										<when>2228</when>
										<value>4456</value>
										<speedvirtualkf>TRUE</speedvirtualkf>
										<speedkfin>TRUE</speedkfin>
									</keyframe>
									<keyframe>
										<when>2240</when>
										<value>4480</value>
										<speedvirtualkf>TRUE</speedvirtualkf>
										<speedkfout>TRUE</speedkfout>
									</keyframe>
									<keyframe>
										<when>2853</when>
										<value>5706</value>
										<speedvirtualkf>TRUE</speedvirtualkf>
										<speedkfend>TRUE</speedkfend>
									</keyframe>
									<interpolation>
										<name>FCPCurve</name>
									</interpolation>
								</parameter>
							</effect>
						</filter>
						<logginginfo>
							<description></description>
							<scene></scene>
							<shottake></shottake>
							<lognote></lognote>
							<good></good>
							<originalvideofilename></originalvideofilename>
							<originalaudiofilename></originalaudiofilename>
						</logginginfo>
						<colorinfo>
							<lut></lut>
							<lut1></lut1>
							<asc_sop></asc_sop>
							<asc_sat></asc_sat>
							<lut2></lut2>
						</colorinfo>
						<labels>
							<label2>Iris</label2>
						</labels>
					</clipitem>
					<clipitem id="clipitem-322">
						<masterclipid>masterclip-154</masterclipid>
						<name>A008_10281047_C117.mp4</name>
						<enabled>TRUE</enabled>
						<duration>888</duration>
						<rate>
							<timebase>24</timebase>
							<ntsc>FALSE</ntsc>
						</rate>
						<start>26317</start>
						<end>26329</end>
						<in>789</in>
						<out>801</out>
						<pproTicksIn>16701552000000</pproTicksIn>
						<pproTicksOut>16955568000000</pproTicksOut>
						<alphatype>none</alphatype>
						<pixelaspectratio>square</pixelaspectratio>
						<anamorphic>FALSE</anamorphic>
						<file id="file-154">
							<name>A008_10281047_C117.mp4</name>
							<pathurl>file://localhost/F%3a/love%20song/neelavara%20bridge/A008_10281047_C117.mp4</pathurl>
							<rate>
								<timebase>24</timebase>
								<ntsc>FALSE</ntsc>
							</rate>
							<duration>1777</duration>
							<timecode>
								<rate>
									<timebase>24</timebase>
									<ntsc>FALSE</ntsc>
								</rate>
								<string>10:47:37:01</string>
								<frame>932569</frame>
								<displayformat>NDF</displayformat>
							</timecode>
							<media>
								<video>
									<samplecharacteristics>
										<rate>
											<timebase>24</timebase>
											<ntsc>FALSE</ntsc>
										</rate>
										<width>1920</width>
										<height>1080</height>
										<anamorphic>FALSE</anamorphic>
										<pixelaspectratio>square</pixelaspectratio>
										<fielddominance>none</fielddominance>
									</samplecharacteristics>
								</video>
								<audio>
									<samplecharacteristics>
										<depth>16</depth>
										<samplerate>48000</samplerate>
									</samplecharacteristics>
									<channelcount>2</channelcount>
								</audio>
							</media>
						</file>
						<filter>
							<effect>
								<name>Time Remap</name>
								<effectid>timeremap</effectid>
								<effectcategory>motion</effectcategory>
								<effecttype>motion</effecttype>
								<mediatype>video</mediatype>
								<parameter authoringApp="PremierePro">
									<parameterid>variablespeed</parameterid>
									<name>variablespeed</name>
									<valuemin>0</valuemin>
									<valuemax>1</valuemax>
									<value>0</value>
								</parameter>
								<parameter authoringApp="PremierePro">
									<parameterid>speed</parameterid>
									<name>speed</name>
									<valuemin>-100000</valuemin>
									<valuemax>100000</valuemax>
									<value>200</value>
								</parameter>
								<parameter authoringApp="PremierePro">
									<parameterid>reverse</parameterid>
									<name>reverse</name>
									<value>FALSE</value>
								</parameter>
								<parameter authoringApp="PremierePro">
									<parameterid>frameblending</parameterid>
									<name>frameblending</name>
									<value>FALSE</value>
								</parameter>
								<parameter authoringApp="PremierePro">
									<parameterid>graphdict</parameterid>
									<name>graphdict</name>
									<valuemin>0</valuemin>
									<valuemax>1776</valuemax>
									<value>0</value>
									<keyframe>
										<when>0</when>
										<value>0</value>
										<speedvirtualkf>TRUE</speedvirtualkf>
										<speedkfstart>TRUE</speedkfstart>
									</keyframe>
									<keyframe>
										<when>789</when>
										<value>1578</value>
										<speedvirtualkf>TRUE</speedvirtualkf>
										<speedkfin>TRUE</speedkfin>
									</keyframe>
									<keyframe>
										<when>801</when>
										<value>1602</value>
										<speedvirtualkf>TRUE</speedvirtualkf>
										<speedkfout>TRUE</speedkfout>
									</keyframe>
									<keyframe>
										<when>888</when>
										<value>1776</value>
										<speedvirtualkf>TRUE</speedvirtualkf>
										<speedkfend>TRUE</speedkfend>
									</keyframe>
									<interpolation>
										<name>FCPCurve</name>
									</interpolation>
								</parameter>
							</effect>
						</filter>
						<logginginfo>
							<description></description>
							<scene></scene>
							<shottake></shottake>
							<lognote></lognote>
							<good></good>
							<originalvideofilename></originalvideofilename>
							<originalaudiofilename></originalaudiofilename>
						</logginginfo>
						<colorinfo>
							<lut></lut>
							<lut1></lut1>
							<asc_sop></asc_sop>
							<asc_sat></asc_sat>
							<lut2></lut2>
						</colorinfo>
						<labels>
							<label2>Iris</label2>
						</labels>
					</clipitem>
					<clipitem id="clipitem-323">
						<masterclipid>masterclip-154</masterclipid>
						<name>A008_10281047_C117.mp4</name>
						<enabled>TRUE</enabled>
						<duration>888</duration>
						<rate>
							<timebase>24</timebase>
							<ntsc>FALSE</ntsc>
						</rate>
						<start>26329</start>
						<end>26341</end>
						<in>692</in>
						<out>703</out>
						<pproTicksIn>14637672000000</pproTicksIn>
						<pproTicksOut>14891688000000</pproTicksOut>
						<alphatype>none</alphatype>
						<file id="file-154"/>
						<filter>
							<effect>
								<name>Time Remap</name>
								<effectid>timeremap</effectid>
								<effectcategory>motion</effectcategory>
								<effecttype>motion</effecttype>
								<mediatype>video</mediatype>
								<parameter authoringApp="PremierePro">
									<parameterid>variablespeed</parameterid>
									<name>variablespeed</name>
									<valuemin>0</valuemin>
									<valuemax>1</valuemax>
									<value>0</value>
								</parameter>
								<parameter authoringApp="PremierePro">
									<parameterid>speed</parameterid>
									<name>speed</name>
									<valuemin>-100000</valuemin>
									<valuemax>100000</valuemax>
									<value>200</value>
								</parameter>
								<parameter authoringApp="PremierePro">
									<parameterid>reverse</parameterid>
									<name>reverse</name>
									<value>FALSE</value>
								</parameter>
								<parameter authoringApp="PremierePro">
									<parameterid>frameblending</parameterid>
									<name>frameblending</name>
									<value>FALSE</value>
								</parameter>
								<parameter authoringApp="PremierePro">
									<parameterid>graphdict</parameterid>
									<name>graphdict</name>
									<valuemin>0</valuemin>
									<valuemax>1776</valuemax>
									<value>0</value>
									<keyframe>
										<when>0</when>
										<value>0</value>
										<speedvirtualkf>TRUE</speedvirtualkf>
										<speedkfstart>TRUE</speedkfstart>
									</keyframe>
									<keyframe>
										<when>692</when>
										<value>1384</value>
										<speedvirtualkf>TRUE</speedvirtualkf>
										<speedkfin>TRUE</speedkfin>
									</keyframe>
									<keyframe>
										<when>703</when>
										<value>1406</value>
										<speedvirtualkf>TRUE</speedvirtualkf>
										<speedkfout>TRUE</speedkfout>
									</keyframe>
									<keyframe>
										<when>888</when>
										<value>1776</value>
										<speedvirtualkf>TRUE</speedvirtualkf>
										<speedkfend>TRUE</speedkfend>
									</keyframe>
									<interpolation>
										<name>FCPCurve</name>
									</interpolation>
								</parameter>
							</effect>
						</filter>
						<logginginfo>
							<description></description>
							<scene></scene>
							<shottake></shottake>
							<lognote></lognote>
							<good></good>
							<originalvideofilename></originalvideofilename>
							<originalaudiofilename></originalaudiofilename>
						</logginginfo>
						<colorinfo>
							<lut></lut>
							<lut1></lut1>
							<asc_sop></asc_sop>
							<asc_sat></asc_sat>
							<lut2></lut2>
						</colorinfo>
						<labels>
							<label2>Iris</label2>
						</labels>
					</clipitem>
					<clipitem id="clipitem-324">
						<masterclipid>masterclip-155</masterclipid>
						<name>A008_10281053_C118.mp4</name>
						<enabled>TRUE</enabled>
						<duration>6351</duration>
						<rate>
							<timebase>24</timebase>
							<ntsc>FALSE</ntsc>
						</rate>
						<start>26341</start>
						<end>26353</end>
						<in>3923</in>
						<out>3935</out>
						<pproTicksIn>41521032000000</pproTicksIn>
						<pproTicksOut>41648040000000</pproTicksOut>
						<alphatype>none</alphatype>
						<pixelaspectratio>square</pixelaspectratio>
						<anamorphic>FALSE</anamorphic>
						<file id="file-155">
							<name>A008_10281053_C118.mp4</name>
							<pathurl>file://localhost/F%3a/love%20song/neelavara%20bridge/A008_10281053_C118.mp4</pathurl>
							<rate>
								<timebase>24</timebase>
								<ntsc>FALSE</ntsc>
							</rate>
							<duration>6351</duration>
							<timecode>
								<rate>
									<timebase>24</timebase>
									<ntsc>FALSE</ntsc>
								</rate>
								<string>10:53:24:08</string>
								<frame>940904</frame>
								<displayformat>NDF</displayformat>
							</timecode>
							<media>
								<video>
									<samplecharacteristics>
										<rate>
											<timebase>24</timebase>
											<ntsc>FALSE</ntsc>
										</rate>
										<width>1920</width>
										<height>1080</height>
										<anamorphic>FALSE</anamorphic>
										<pixelaspectratio>square</pixelaspectratio>
										<fielddominance>none</fielddominance>
									</samplecharacteristics>
								</video>
								<audio>
									<samplecharacteristics>
										<depth>16</depth>
										<samplerate>48000</samplerate>
									</samplecharacteristics>
									<channelcount>2</channelcount>
								</audio>
							</media>
						</file>
						<logginginfo>
							<description></description>
							<scene></scene>
							<shottake></shottake>
							<lognote></lognote>
							<good></good>
							<originalvideofilename></originalvideofilename>
							<originalaudiofilename></originalaudiofilename>
						</logginginfo>
						<colorinfo>
							<lut></lut>
							<lut1></lut1>
							<asc_sop></asc_sop>
							<asc_sat></asc_sat>
							<lut2></lut2>
						</colorinfo>
						<labels>
							<label2>Iris</label2>
						</labels>
					</clipitem>
					<clipitem id="clipitem-325">
						<masterclipid>masterclip-156</masterclipid>
						<name>A008_10281038_C110.mp4</name>
						<enabled>TRUE</enabled>
						<duration>1101</duration>
						<rate>
							<timebase>24</timebase>
							<ntsc>FALSE</ntsc>
						</rate>
						<start>26353</start>
						<end>26365</end>
						<in>777</in>
						<out>789</out>
						<pproTicksIn>8223768000000</pproTicksIn>
						<pproTicksOut>8350776000000</pproTicksOut>
						<alphatype>none</alphatype>
						<pixelaspectratio>square</pixelaspectratio>
						<anamorphic>FALSE</anamorphic>
						<file id="file-156">
							<name>A008_10281038_C110.mp4</name>
							<pathurl>file://localhost/F%3a/love%20song/neelavara%20bridge/A008_10281038_C110.mp4</pathurl>
							<rate>
								<timebase>24</timebase>
								<ntsc>FALSE</ntsc>
							</rate>
							<duration>1101</duration>
							<timecode>
								<rate>
									<timebase>24</timebase>
									<ntsc>FALSE</ntsc>
								</rate>
								<string>10:38:32:23</string>
								<frame>919511</frame>
								<displayformat>NDF</displayformat>
							</timecode>
							<media>
								<video>
									<samplecharacteristics>
										<rate>
											<timebase>24</timebase>
											<ntsc>FALSE</ntsc>
										</rate>
										<width>1920</width>
										<height>1080</height>
										<anamorphic>FALSE</anamorphic>
										<pixelaspectratio>square</pixelaspectratio>
										<fielddominance>none</fielddominance>
									</samplecharacteristics>
								</video>
								<audio>
									<samplecharacteristics>
										<depth>16</depth>
										<samplerate>48000</samplerate>
									</samplecharacteristics>
									<channelcount>2</channelcount>
								</audio>
							</media>
						</file>
						<logginginfo>
							<description></description>
							<scene></scene>
							<shottake></shottake>
							<lognote></lognote>
							<good></good>
							<originalvideofilename></originalvideofilename>
							<originalaudiofilename></originalaudiofilename>
						</logginginfo>
						<colorinfo>
							<lut></lut>
							<lut1></lut1>
							<asc_sop></asc_sop>
							<asc_sat></asc_sat>
							<lut2></lut2>
						</colorinfo>
						<labels>
							<label2>Iris</label2>
						</labels>
					</clipitem>
					<clipitem id="clipitem-326">
						<masterclipid>masterclip-157</masterclipid>
						<name>DJI_0101.mov</name>
						<enabled>TRUE</enabled>
						<duration>1071</duration>
						<rate>
							<timebase>24</timebase>
							<ntsc>FALSE</ntsc>
						</rate>
						<start>26365</start>
						<end>26376</end>
						<in>354</in>
						<out>364</out>
						<pproTicksIn>5609520000000</pproTicksIn>
						<pproTicksOut>5784156000000</pproTicksOut>
						<alphatype>none</alphatype>
						<pixelaspectratio>square</pixelaspectratio>
						<anamorphic>FALSE</anamorphic>
						<file id="file-157">
							<name>DJI_0101.mov</name>
							<pathurl>file://localhost/F%3a/love%20song/bike%20ride%20(drone)/DJI_0101.mov</pathurl>
							<rate>
								<timebase>50</timebase>
								<ntsc>FALSE</ntsc>
							</rate>
							<duration>3348</duration>
							<timecode>
								<rate>
									<timebase>50</timebase>
									<ntsc>FALSE</ntsc>
								</rate>
								<string>00:00:00:00</string>
								<frame>0</frame>
								<displayformat>NDF</displayformat>
							</timecode>
							<media>
								<video>
									<samplecharacteristics>
										<rate>
											<timebase>50</timebase>
											<ntsc>FALSE</ntsc>
										</rate>
										<width>1920</width>
										<height>1080</height>
										<anamorphic>FALSE</anamorphic>
										<pixelaspectratio>square</pixelaspectratio>
										<fielddominance>none</fielddominance>
									</samplecharacteristics>
								</video>
								<audio>
									<samplecharacteristics>
										<depth>16</depth>
										<samplerate>48000</samplerate>
									</samplecharacteristics>
									<channelcount>2</channelcount>
								</audio>
							</media>
						</file>
						<filter>
							<effect>
								<name>Time Remap</name>
								<effectid>timeremap</effectid>
								<effectcategory>motion</effectcategory>
								<effecttype>motion</effecttype>
								<mediatype>video</mediatype>
								<parameter authoringApp="PremierePro">
									<parameterid>variablespeed</parameterid>
									<name>variablespeed</name>
									<valuemin>0</valuemin>
									<valuemax>1</valuemax>
									<value>0</value>
								</parameter>
								<parameter authoringApp="PremierePro">
									<parameterid>speed</parameterid>
									<name>speed</name>
									<valuemin>-100000</valuemin>
									<valuemax>100000</valuemax>
									<value>150</value>
								</parameter>
								<parameter authoringApp="PremierePro">
									<parameterid>reverse</parameterid>
									<name>reverse</name>
									<value>FALSE</value>
								</parameter>
								<parameter authoringApp="PremierePro">
									<parameterid>frameblending</parameterid>
									<name>frameblending</name>
									<value>FALSE</value>
								</parameter>
								<parameter authoringApp="PremierePro">
									<parameterid>graphdict</parameterid>
									<name>graphdict</name>
									<valuemin>0</valuemin>
									<valuemax>1606</valuemax>
									<value>0</value>
									<keyframe>
										<when>0</when>
										<value>0</value>
										<speedvirtualkf>TRUE</speedvirtualkf>
										<speedkfstart>TRUE</speedkfstart>
									</keyframe>
									<keyframe>
										<when>354</when>
										<value>531</value>
										<speedvirtualkf>TRUE</speedvirtualkf>
										<speedkfin>TRUE</speedkfin>
									</keyframe>
									<keyframe>
										<when>364</when>
										<value>546</value>
										<speedvirtualkf>TRUE</speedvirtualkf>
										<speedkfout>TRUE</speedkfout>
									</keyframe>
									<keyframe>
										<when>1071</when>
										<value>1606</value>
										<speedvirtualkf>TRUE</speedvirtualkf>
										<speedkfend>TRUE</speedkfend>
									</keyframe>
									<interpolation>
										<name>FCPCurve</name>
									</interpolation>
								</parameter>
							</effect>
						</filter>
						<logginginfo>
							<description></description>
							<scene></scene>
							<shottake></shottake>
							<lognote></lognote>
							<good></good>
							<originalvideofilename></originalvideofilename>
							<originalaudiofilename></originalaudiofilename>
						</logginginfo>
						<colorinfo>
							<lut></lut>
							<lut1></lut1>
							<asc_sop></asc_sop>
							<asc_sat></asc_sat>
							<lut2></lut2>
						</colorinfo>
						<labels>
							<label2>Iris</label2>
						</labels>
					</clipitem>
					<clipitem id="clipitem-327">
						<masterclipid>masterclip-158</masterclipid>
						<name>DJI_0103.mov</name>
						<enabled>TRUE</enabled>
						<duration>2098</duration>
						<rate>
							<timebase>24</timebase>
							<ntsc>FALSE</ntsc>
						</rate>
						<start>26376</start>
						<end>26389</end>
						<in>956</in>
						<out>968</out>
						<pproTicksIn>12637296000000</pproTicksIn>
						<pproTicksOut>12809286000000</pproTicksOut>
						<alphatype>none</alphatype>
						<pixelaspectratio>square</pixelaspectratio>
						<anamorphic>FALSE</anamorphic>
						<file id="file-158">
							<name>DJI_0103.mov</name>
							<pathurl>file://localhost/F%3a/love%20song/bike%20ride%20(drone)/DJI_0103.mov</pathurl>
							<rate>
								<timebase>50</timebase>
								<ntsc>FALSE</ntsc>
							</rate>
							<duration>5466</duration>
							<timecode>
								<rate>
									<timebase>50</timebase>
									<ntsc>FALSE</ntsc>
								</rate>
								<string>00:00:00:00</string>
								<frame>0</frame>
								<displayformat>NDF</displayformat>
							</timecode>
							<media>
								<video>
									<samplecharacteristics>
										<rate>
											<timebase>50</timebase>
											<ntsc>FALSE</ntsc>
										</rate>
										<width>1920</width>
										<height>1080</height>
										<anamorphic>FALSE</anamorphic>
										<pixelaspectratio>square</pixelaspectratio>
										<fielddominance>none</fielddominance>
									</samplecharacteristics>
								</video>
								<audio>
									<samplecharacteristics>
										<depth>16</depth>
										<samplerate>48000</samplerate>
									</samplecharacteristics>
									<channelcount>2</channelcount>
								</audio>
							</media>
						</file>
						<filter>
							<effect>
								<name>Time Remap</name>
								<effectid>timeremap</effectid>
								<effectcategory>motion</effectcategory>
								<effecttype>motion</effecttype>
								<mediatype>video</mediatype>
								<parameter authoringApp="PremierePro">
									<parameterid>variablespeed</parameterid>
									<name>variablespeed</name>
									<valuemin>0</valuemin>
									<valuemax>1</valuemax>
									<value>0</value>
								</parameter>
								<parameter authoringApp="PremierePro">
									<parameterid>speed</parameterid>
									<name>speed</name>
									<valuemin>-100000</valuemin>
									<valuemax>100000</valuemax>
									<value>125</value>
								</parameter>
								<parameter authoringApp="PremierePro">
									<parameterid>reverse</parameterid>
									<name>reverse</name>
									<value>FALSE</value>
								</parameter>
								<parameter authoringApp="PremierePro">
									<parameterid>frameblending</parameterid>
									<name>frameblending</name>
									<value>FALSE</value>
								</parameter>
								<parameter authoringApp="PremierePro">
									<parameterid>graphdict</parameterid>
									<name>graphdict</name>
									<valuemin>0</valuemin>
									<valuemax>2622</valuemax>
									<value>0</value>
									<keyframe>
										<when>0</when>
										<value>0</value>
										<speedvirtualkf>TRUE</speedvirtualkf>
										<speedkfstart>TRUE</speedkfstart>
									</keyframe>
									<keyframe>
										<when>956</when>
										<value>1195</value>
										<speedvirtualkf>TRUE</speedvirtualkf>
										<speedkfin>TRUE</speedkfin>
									</keyframe>
									<keyframe>
										<when>968</when>
										<value>1210</value>
										<speedvirtualkf>TRUE</speedvirtualkf>
										<speedkfout>TRUE</speedkfout>
									</keyframe>
									<keyframe>
										<when>2098</when>
										<value>2622</value>
										<speedvirtualkf>TRUE</speedvirtualkf>
										<speedkfend>TRUE</speedkfend>
									</keyframe>
									<interpolation>
										<name>FCPCurve</name>
									</interpolation>
								</parameter>
							</effect>
						</filter>
						<logginginfo>
							<description></description>
							<scene></scene>
							<shottake></shottake>
							<lognote></lognote>
							<good></good>
							<originalvideofilename></originalvideofilename>
							<originalaudiofilename></originalaudiofilename>
						</logginginfo>
						<colorinfo>
							<lut></lut>
							<lut1></lut1>
							<asc_sop></asc_sop>
							<asc_sat></asc_sat>
							<lut2></lut2>
						</colorinfo>
						<labels>
							<label2>Iris</label2>
						</labels>
					</clipitem>
					<clipitem id="clipitem-328">
						<masterclipid>masterclip-157</masterclipid>
						<name>DJI_0101.mov</name>
						<enabled>TRUE</enabled>
						<duration>1071</duration>
						<rate>
							<timebase>24</timebase>
							<ntsc>FALSE</ntsc>
						</rate>
						<start>26389</start>
						<end>26400</end>
						<in>658</in>
						<out>668</out>
						<pproTicksIn>10435824000000</pproTicksIn>
						<pproTicksOut>10610460000000</pproTicksOut>
						<alphatype>none</alphatype>
						<file id="file-157"/>
						<filter>
							<effect>
								<name>Time Remap</name>
								<effectid>timeremap</effectid>
								<effectcategory>motion</effectcategory>
								<effecttype>motion</effecttype>
								<mediatype>video</mediatype>
								<parameter authoringApp="PremierePro">
									<parameterid>variablespeed</parameterid>
									<name>variablespeed</name>
									<valuemin>0</valuemin>
									<valuemax>1</valuemax>
									<value>0</value>
								</parameter>
								<parameter authoringApp="PremierePro">
									<parameterid>speed</parameterid>
									<name>speed</name>
									<valuemin>-100000</valuemin>
									<valuemax>100000</valuemax>
									<value>150</value>
								</parameter>
								<parameter authoringApp="PremierePro">
									<parameterid>reverse</parameterid>
									<name>reverse</name>
									<value>FALSE</value>
								</parameter>
								<parameter authoringApp="PremierePro">
									<parameterid>frameblending</parameterid>
									<name>frameblending</name>
									<value>FALSE</value>
								</parameter>
								<parameter authoringApp="PremierePro">
									<parameterid>graphdict</parameterid>
									<name>graphdict</name>
									<valuemin>0</valuemin>
									<valuemax>1606</valuemax>
									<value>0</value>
									<keyframe>
										<when>0</when>
										<value>0</value>
										<speedvirtualkf>TRUE</speedvirtualkf>
										<speedkfstart>TRUE</speedkfstart>
									</keyframe>
									<keyframe>
										<when>658</when>
										<value>987</value>
										<speedvirtualkf>TRUE</speedvirtualkf>
										<speedkfin>TRUE</speedkfin>
									</keyframe>
									<keyframe>
										<when>668</when>
										<value>1002</value>
										<speedvirtualkf>TRUE</speedvirtualkf>
										<speedkfout>TRUE</speedkfout>
									</keyframe>
									<keyframe>
										<when>1071</when>
										<value>1606</value>
										<speedvirtualkf>TRUE</speedvirtualkf>
										<speedkfend>TRUE</speedkfend>
									</keyframe>
									<interpolation>
										<name>FCPCurve</name>
									</interpolation>
								</parameter>
							</effect>
						</filter>
						<logginginfo>
							<description></description>
							<scene></scene>
							<shottake></shottake>
							<lognote></lognote>
							<good></good>
							<originalvideofilename></originalvideofilename>
							<originalaudiofilename></originalaudiofilename>
						</logginginfo>
						<colorinfo>
							<lut></lut>
							<lut1></lut1>
							<asc_sop></asc_sop>
							<asc_sat></asc_sat>
							<lut2></lut2>
						</colorinfo>
						<labels>
							<label2>Iris</label2>
						</labels>
					</clipitem>
					<clipitem id="clipitem-329">
						<masterclipid>masterclip-158</masterclipid>
						<name>DJI_0103.mov</name>
						<enabled>TRUE</enabled>
						<duration>2185</duration>
						<rate>
							<timebase>24</timebase>
							<ntsc>FALSE</ntsc>
						</rate>
						<start>26400</start>
						<end>26413</end>
						<in>545</in>
						<out>557</out>
						<pproTicksIn>6913468800000</pproTicksIn>
						<pproTicksOut>7078579200000</pproTicksOut>
						<alphatype>none</alphatype>
						<file id="file-158"/>
						<filter>
							<effect>
								<name>Time Remap</name>
								<effectid>timeremap</effectid>
								<effectcategory>motion</effectcategory>
								<effecttype>motion</effecttype>
								<mediatype>video</mediatype>
								<parameter authoringApp="PremierePro">
									<parameterid>variablespeed</parameterid>
									<name>variablespeed</name>
									<valuemin>0</valuemin>
									<valuemax>1</valuemax>
									<value>0</value>
								</parameter>
								<parameter authoringApp="PremierePro">
									<parameterid>speed</parameterid>
									<name>speed</name>
									<valuemin>-100000</valuemin>
									<valuemax>100000</valuemax>
									<value>120</value>
								</parameter>
								<parameter authoringApp="PremierePro">
									<parameterid>reverse</parameterid>
									<name>reverse</name>
									<value>FALSE</value>
								</parameter>
								<parameter authoringApp="PremierePro">
									<parameterid>frameblending</parameterid>
									<name>frameblending</name>
									<value>FALSE</value>
								</parameter>
								<parameter authoringApp="PremierePro">
									<parameterid>graphdict</parameterid>
									<name>graphdict</name>
									<valuemin>0</valuemin>
									<valuemax>2622</valuemax>
									<value>0</value>
									<keyframe>
										<when>0</when>
										<value>0</value>
										<speedvirtualkf>TRUE</speedvirtualkf>
										<speedkfstart>TRUE</speedkfstart>
									</keyframe>
									<keyframe>
										<when>545</when>
										<value>654</value>
										<speedvirtualkf>TRUE</speedvirtualkf>
										<speedkfin>TRUE</speedkfin>
									</keyframe>
									<keyframe>
										<when>557</when>
										<value>668</value>
										<speedvirtualkf>TRUE</speedvirtualkf>
										<speedkfout>TRUE</speedkfout>
									</keyframe>
									<keyframe>
										<when>2185</when>
										<value>2622</value>
										<speedvirtualkf>TRUE</speedvirtualkf>
										<speedkfend>TRUE</speedkfend>
									</keyframe>
									<interpolation>
										<name>FCPCurve</name>
									</interpolation>
								</parameter>
							</effect>
						</filter>
						<logginginfo>
							<description></description>
							<scene></scene>
							<shottake></shottake>
							<lognote></lognote>
							<good></good>
							<originalvideofilename></originalvideofilename>
							<originalaudiofilename></originalaudiofilename>
						</logginginfo>
						<colorinfo>
							<lut></lut>
							<lut1></lut1>
							<asc_sop></asc_sop>
							<asc_sat></asc_sat>
							<lut2></lut2>
						</colorinfo>
						<labels>
							<label2>Iris</label2>
						</labels>
					</clipitem>
					<clipitem id="clipitem-330">
						<masterclipid>masterclip-159</masterclipid>
						<name>2021_12_14_13_55_45.mov</name>
						<enabled>TRUE</enabled>
						<duration>287</duration>
						<rate>
							<timebase>24</timebase>
							<ntsc>FALSE</ntsc>
						</rate>
						<start>26485</start>
						<end>26497</end>
						<in>242</in>
						<out>253</out>
						<pproTicksIn>5112072000000</pproTicksIn>
						<pproTicksOut>5366088000000</pproTicksOut>
						<alphatype>none</alphatype>
						<pixelaspectratio>square</pixelaspectratio>
						<anamorphic>FALSE</anamorphic>
						<file id="file-159">
							<name>2021_12_14_13_55_45.mov</name>
							<pathurl>file://localhost/F%3a/love%20song/harbour%20bridge(drone)/2021_12_14_13_55_45.mov</pathurl>
							<rate>
								<timebase>25</timebase>
								<ntsc>FALSE</ntsc>
							</rate>
							<duration>598</duration>
							<timecode>
								<rate>
									<timebase>25</timebase>
									<ntsc>FALSE</ntsc>
								</rate>
								<string>00:00:00:00</string>
								<frame>0</frame>
								<displayformat>NDF</displayformat>
							</timecode>
							<media>
								<video>
									<samplecharacteristics>
										<rate>
											<timebase>25</timebase>
											<ntsc>FALSE</ntsc>
										</rate>
										<width>1920</width>
										<height>1080</height>
										<anamorphic>FALSE</anamorphic>
										<pixelaspectratio>square</pixelaspectratio>
										<fielddominance>none</fielddominance>
									</samplecharacteristics>
								</video>
								<audio>
									<samplecharacteristics>
										<depth>16</depth>
										<samplerate>48000</samplerate>
									</samplecharacteristics>
									<channelcount>2</channelcount>
								</audio>
							</media>
						</file>
						<filter>
							<effect>
								<name>Time Remap</name>
								<effectid>timeremap</effectid>
								<effectcategory>motion</effectcategory>
								<effecttype>motion</effecttype>
								<mediatype>video</mediatype>
								<parameter authoringApp="PremierePro">
									<parameterid>variablespeed</parameterid>
									<name>variablespeed</name>
									<valuemin>0</valuemin>
									<valuemax>1</valuemax>
									<value>0</value>
								</parameter>
								<parameter authoringApp="PremierePro">
									<parameterid>speed</parameterid>
									<name>speed</name>
									<valuemin>-100000</valuemin>
									<valuemax>100000</valuemax>
									<value>200</value>
								</parameter>
								<parameter authoringApp="PremierePro">
									<parameterid>reverse</parameterid>
									<name>reverse</name>
									<value>FALSE</value>
								</parameter>
								<parameter authoringApp="PremierePro">
									<parameterid>frameblending</parameterid>
									<name>frameblending</name>
									<value>FALSE</value>
								</parameter>
								<parameter authoringApp="PremierePro">
									<parameterid>graphdict</parameterid>
									<name>graphdict</name>
									<valuemin>0</valuemin>
									<valuemax>574</valuemax>
									<value>0</value>
									<keyframe>
										<when>0</when>
										<value>0</value>
										<speedvirtualkf>TRUE</speedvirtualkf>
										<speedkfstart>TRUE</speedkfstart>
									</keyframe>
									<keyframe>
										<when>242</when>
										<value>484</value>
										<speedvirtualkf>TRUE</speedvirtualkf>
										<speedkfin>TRUE</speedkfin>
									</keyframe>
									<keyframe>
										<when>253</when>
										<value>506</value>
										<speedvirtualkf>TRUE</speedvirtualkf>
										<speedkfout>TRUE</speedkfout>
									</keyframe>
									<keyframe>
										<when>287</when>
										<value>574</value>
										<speedvirtualkf>TRUE</speedvirtualkf>
										<speedkfend>TRUE</speedkfend>
									</keyframe>
									<interpolation>
										<name>FCPCurve</name>
									</interpolation>
								</parameter>
							</effect>
						</filter>
						<logginginfo>
							<description></description>
							<scene></scene>
							<shottake></shottake>
							<lognote></lognote>
							<good></good>
							<originalvideofilename></originalvideofilename>
							<originalaudiofilename></originalaudiofilename>
						</logginginfo>
						<colorinfo>
							<lut></lut>
							<lut1></lut1>
							<asc_sop></asc_sop>
							<asc_sat></asc_sat>
							<lut2></lut2>
						</colorinfo>
						<labels>
							<label2>Iris</label2>
						</labels>
					</clipitem>
					<clipitem id="clipitem-331">
						<masterclipid>masterclip-160</masterclipid>
						<name>A012_10301007_C113.mp4</name>
						<enabled>TRUE</enabled>
						<duration>2261</duration>
						<rate>
							<timebase>24</timebase>
							<ntsc>FALSE</ntsc>
						</rate>
						<start>26497</start>
						<end>26509</end>
						<in>2117</in>
						<out>2129</out>
						<pproTicksIn>22406328000000</pproTicksIn>
						<pproTicksOut>22533336000000</pproTicksOut>
						<alphatype>none</alphatype>
						<pixelaspectratio>square</pixelaspectratio>
						<anamorphic>FALSE</anamorphic>
						<file id="file-160">
							<name>A012_10301007_C113.mp4</name>
							<pathurl>file://localhost/F%3a/love%20song/rotation%20and%20forest/A012_10301007_C113.mp4</pathurl>
							<rate>
								<timebase>24</timebase>
								<ntsc>FALSE</ntsc>
							</rate>
							<duration>2261</duration>
							<timecode>
								<rate>
									<timebase>24</timebase>
									<ntsc>FALSE</ntsc>
								</rate>
								<string>10:07:19:15</string>
								<frame>874551</frame>
								<displayformat>NDF</displayformat>
							</timecode>
							<media>
								<video>
									<samplecharacteristics>
										<rate>
											<timebase>24</timebase>
											<ntsc>FALSE</ntsc>
										</rate>
										<width>1920</width>
										<height>1080</height>
										<anamorphic>FALSE</anamorphic>
										<pixelaspectratio>square</pixelaspectratio>
										<fielddominance>none</fielddominance>
									</samplecharacteristics>
								</video>
								<audio>
									<samplecharacteristics>
										<depth>16</depth>
										<samplerate>48000</samplerate>
									</samplecharacteristics>
									<channelcount>2</channelcount>
								</audio>
							</media>
						</file>
						<logginginfo>
							<description></description>
							<scene></scene>
							<shottake></shottake>
							<lognote></lognote>
							<good></good>
							<originalvideofilename></originalvideofilename>
							<originalaudiofilename></originalaudiofilename>
						</logginginfo>
						<colorinfo>
							<lut></lut>
							<lut1></lut1>
							<asc_sop></asc_sop>
							<asc_sat></asc_sat>
							<lut2></lut2>
						</colorinfo>
						<labels>
							<label2>Iris</label2>
						</labels>
					</clipitem>
					<clipitem id="clipitem-332">
						<masterclipid>masterclip-161</masterclipid>
						<name>A011_10290846_C087.mp4</name>
						<enabled>TRUE</enabled>
						<duration>1234</duration>
						<rate>
							<timebase>24</timebase>
							<ntsc>FALSE</ntsc>
						</rate>
						<start>26509</start>
						<end>26521</end>
						<in>443</in>
						<out>455</out>
						<pproTicksIn>4688712000000</pproTicksIn>
						<pproTicksOut>4815720000000</pproTicksOut>
						<alphatype>none</alphatype>
						<pixelaspectratio>square</pixelaspectratio>
						<anamorphic>FALSE</anamorphic>
						<file id="file-161">
							<name>A011_10290846_C087.mp4</name>
							<pathurl>file://localhost/F%3a/love%20song/devara%20kone/A011_10290846_C087.mp4</pathurl>
							<rate>
								<timebase>24</timebase>
								<ntsc>FALSE</ntsc>
							</rate>
							<duration>1234</duration>
							<timecode>
								<rate>
									<timebase>24</timebase>
									<ntsc>FALSE</ntsc>
								</rate>
								<string>08:46:42:02</string>
								<frame>758450</frame>
								<displayformat>NDF</displayformat>
							</timecode>
							<media>
								<video>
									<samplecharacteristics>
										<rate>
											<timebase>24</timebase>
											<ntsc>FALSE</ntsc>
										</rate>
										<width>1920</width>
										<height>1080</height>
										<anamorphic>FALSE</anamorphic>
										<pixelaspectratio>square</pixelaspectratio>
										<fielddominance>none</fielddominance>
									</samplecharacteristics>
								</video>
								<audio>
									<samplecharacteristics>
										<depth>16</depth>
										<samplerate>48000</samplerate>
									</samplecharacteristics>
									<channelcount>2</channelcount>
								</audio>
							</media>
						</file>
						<logginginfo>
							<description></description>
							<scene></scene>
							<shottake></shottake>
							<lognote></lognote>
							<good></good>
							<originalvideofilename></originalvideofilename>
							<originalaudiofilename></originalaudiofilename>
						</logginginfo>
						<colorinfo>
							<lut></lut>
							<lut1></lut1>
							<asc_sop></asc_sop>
							<asc_sat></asc_sat>
							<lut2></lut2>
						</colorinfo>
						<labels>
							<label2>Iris</label2>
						</labels>
					</clipitem>
					<clipitem id="clipitem-333">
						<masterclipid>masterclip-161</masterclipid>
						<name>A011_10290846_C087.mp4</name>
						<enabled>TRUE</enabled>
						<duration>1234</duration>
						<rate>
							<timebase>24</timebase>
							<ntsc>FALSE</ntsc>
						</rate>
						<start>26521</start>
						<end>26533</end>
						<in>682</in>
						<out>694</out>
						<pproTicksIn>7218288000000</pproTicksIn>
						<pproTicksOut>7345296000000</pproTicksOut>
						<alphatype>none</alphatype>
						<file id="file-161"/>
						<logginginfo>
							<description></description>
							<scene></scene>
							<shottake></shottake>
							<lognote></lognote>
							<good></good>
							<originalvideofilename></originalvideofilename>
							<originalaudiofilename></originalaudiofilename>
						</logginginfo>
						<colorinfo>
							<lut></lut>
							<lut1></lut1>
							<asc_sop></asc_sop>
							<asc_sat></asc_sat>
							<lut2></lut2>
						</colorinfo>
						<labels>
							<label2>Iris</label2>
						</labels>
					</clipitem>
					<clipitem id="clipitem-334">
						<masterclipid>masterclip-161</masterclipid>
						<name>A011_10290846_C087.mp4</name>
						<enabled>TRUE</enabled>
						<duration>1234</duration>
						<rate>
							<timebase>24</timebase>
							<ntsc>FALSE</ntsc>
						</rate>
						<start>26533</start>
						<end>26544</end>
						<in>766</in>
						<out>777</out>
						<pproTicksIn>8107344000000</pproTicksIn>
						<pproTicksOut>8223768000000</pproTicksOut>
						<alphatype>none</alphatype>
						<file id="file-161"/>
						<logginginfo>
							<description></description>
							<scene></scene>
							<shottake></shottake>
							<lognote></lognote>
							<good></good>
							<originalvideofilename></originalvideofilename>
							<originalaudiofilename></originalaudiofilename>
						</logginginfo>
						<colorinfo>
							<lut></lut>
							<lut1></lut1>
							<asc_sop></asc_sop>
							<asc_sat></asc_sat>
							<lut2></lut2>
						</colorinfo>
						<labels>
							<label2>Iris</label2>
						</labels>
					</clipitem>
					<clipitem id="clipitem-335">
						<masterclipid>masterclip-161</masterclipid>
						<name>A011_10290846_C087.mp4</name>
						<enabled>TRUE</enabled>
						<duration>1234</duration>
						<rate>
							<timebase>24</timebase>
							<ntsc>FALSE</ntsc>
						</rate>
						<start>26544</start>
						<end>26557</end>
						<in>850</in>
						<out>863</out>
						<pproTicksIn>8996400000000</pproTicksIn>
						<pproTicksOut>9133992000000</pproTicksOut>
						<alphatype>none</alphatype>
						<file id="file-161"/>
						<logginginfo>
							<description></description>
							<scene></scene>
							<shottake></shottake>
							<lognote></lognote>
							<good></good>
							<originalvideofilename></originalvideofilename>
							<originalaudiofilename></originalaudiofilename>
						</logginginfo>
						<colorinfo>
							<lut></lut>
							<lut1></lut1>
							<asc_sop></asc_sop>
							<asc_sat></asc_sat>
							<lut2></lut2>
						</colorinfo>
						<labels>
							<label2>Iris</label2>
						</labels>
					</clipitem>
					<clipitem id="clipitem-336">
						<masterclipid>masterclip-161</masterclipid>
						<name>A011_10290846_C087.mp4</name>
						<enabled>TRUE</enabled>
						<duration>1234</duration>
						<rate>
							<timebase>24</timebase>
							<ntsc>FALSE</ntsc>
						</rate>
						<start>26557</start>
						<end>26569</end>
						<in>913</in>
						<out>925</out>
						<pproTicksIn>9663192000000</pproTicksIn>
						<pproTicksOut>9790200000000</pproTicksOut>
						<alphatype>none</alphatype>
						<file id="file-161"/>
						<logginginfo>
							<description></description>
							<scene></scene>
							<shottake></shottake>
							<lognote></lognote>
							<good></good>
							<originalvideofilename></originalvideofilename>
							<originalaudiofilename></originalaudiofilename>
						</logginginfo>
						<colorinfo>
							<lut></lut>
							<lut1></lut1>
							<asc_sop></asc_sop>
							<asc_sat></asc_sat>
							<lut2></lut2>
						</colorinfo>
						<labels>
							<label2>Iris</label2>
						</labels>
					</clipitem>
					<clipitem id="clipitem-337">
						<masterclipid>masterclip-161</masterclipid>
						<name>A011_10290846_C087.mp4</name>
						<enabled>TRUE</enabled>
						<duration>2468</duration>
						<rate>
							<timebase>24</timebase>
							<ntsc>FALSE</ntsc>
						</rate>
						<start>26569</start>
						<end>26590</end>
						<in>2235</in>
						<out>2256</out>
						<pproTicksIn>11827620000000</pproTicksIn>
						<pproTicksOut>11938752000000</pproTicksOut>
						<alphatype>none</alphatype>
						<file id="file-161"/>
						<filter>
							<effect>
								<name>Time Remap</name>
								<effectid>timeremap</effectid>
								<effectcategory>motion</effectcategory>
								<effecttype>motion</effecttype>
								<mediatype>video</mediatype>
								<parameter authoringApp="PremierePro">
									<parameterid>variablespeed</parameterid>
									<name>variablespeed</name>
									<valuemin>0</valuemin>
									<valuemax>1</valuemax>
									<value>0</value>
								</parameter>
								<parameter authoringApp="PremierePro">
									<parameterid>speed</parameterid>
									<name>speed</name>
									<valuemin>-100000</valuemin>
									<valuemax>100000</valuemax>
									<value>50</value>
								</parameter>
								<parameter authoringApp="PremierePro">
									<parameterid>reverse</parameterid>
									<name>reverse</name>
									<value>FALSE</value>
								</parameter>
								<parameter authoringApp="PremierePro">
									<parameterid>frameblending</parameterid>
									<name>frameblending</name>
									<value>FALSE</value>
								</parameter>
								<parameter authoringApp="PremierePro">
									<parameterid>graphdict</parameterid>
									<name>graphdict</name>
									<valuemin>0</valuemin>
									<valuemax>1234</valuemax>
									<value>0</value>
									<keyframe>
										<when>0</when>
										<value>0</value>
										<speedvirtualkf>TRUE</speedvirtualkf>
										<speedkfstart>TRUE</speedkfstart>
									</keyframe>
									<keyframe>
										<when>2235</when>
										<value>1117</value>
										<speedvirtualkf>TRUE</speedvirtualkf>
										<speedkfin>TRUE</speedkfin>
									</keyframe>
									<keyframe>
										<when>2256</when>
										<value>1128</value>
										<speedvirtualkf>TRUE</speedvirtualkf>
										<speedkfout>TRUE</speedkfout>
									</keyframe>
									<keyframe>
										<when>2468</when>
										<value>1234</value>
										<speedvirtualkf>TRUE</speedvirtualkf>
										<speedkfend>TRUE</speedkfend>
									</keyframe>
									<interpolation>
										<name>FCPCurve</name>
									</interpolation>
								</parameter>
							</effect>
						</filter>
						<logginginfo>
							<description></description>
							<scene></scene>
							<shottake></shottake>
							<lognote></lognote>
							<good></good>
							<originalvideofilename></originalvideofilename>
							<originalaudiofilename></originalaudiofilename>
						</logginginfo>
						<colorinfo>
							<lut></lut>
							<lut1></lut1>
							<asc_sop></asc_sop>
							<asc_sat></asc_sat>
							<lut2></lut2>
						</colorinfo>
						<labels>
							<label2>Iris</label2>
						</labels>
					</clipitem>
					<clipitem id="clipitem-338">
						<masterclipid>masterclip-162</masterclipid>
						<name>A025_11021407_C008.mp4</name>
						<enabled>TRUE</enabled>
						<duration>2189</duration>
						<rate>
							<timebase>24</timebase>
							<ntsc>FALSE</ntsc>
						</rate>
						<start>26590</start>
						<end>-1</end>
						<in>860</in>
						<out>907</out>
						<pproTicksIn>9102240000000</pproTicksIn>
						<pproTicksOut>9599688000000</pproTicksOut>
						<alphatype>none</alphatype>
						<pixelaspectratio>square</pixelaspectratio>
						<anamorphic>FALSE</anamorphic>
						<file id="file-162">
							<name>A025_11021407_C008.mp4</name>
							<pathurl>file://localhost/F%3a/love%20song/temple/A025_11021407_C008.mp4</pathurl>
							<rate>
								<timebase>24</timebase>
								<ntsc>FALSE</ntsc>
							</rate>
							<duration>2189</duration>
							<timecode>
								<rate>
									<timebase>24</timebase>
									<ntsc>FALSE</ntsc>
								</rate>
								<string>14:07:55:04</string>
								<frame>1221004</frame>
								<displayformat>NDF</displayformat>
							</timecode>
							<media>
								<video>
									<samplecharacteristics>
										<rate>
											<timebase>24</timebase>
											<ntsc>FALSE</ntsc>
										</rate>
										<width>1920</width>
										<height>1080</height>
										<anamorphic>FALSE</anamorphic>
										<pixelaspectratio>square</pixelaspectratio>
										<fielddominance>none</fielddominance>
									</samplecharacteristics>
								</video>
								<audio>
									<samplecharacteristics>
										<depth>16</depth>
										<samplerate>48000</samplerate>
									</samplecharacteristics>
									<channelcount>2</channelcount>
								</audio>
							</media>
						</file>
						<logginginfo>
							<description></description>
							<scene></scene>
							<shottake></shottake>
							<lognote></lognote>
							<good></good>
							<originalvideofilename></originalvideofilename>
							<originalaudiofilename></originalaudiofilename>
						</logginginfo>
						<colorinfo>
							<lut></lut>
							<lut1></lut1>
							<asc_sop></asc_sop>
							<asc_sat></asc_sat>
							<lut2></lut2>
						</colorinfo>
						<labels>
							<label2>Iris</label2>
						</labels>
					</clipitem>
					<transitionitem>
						<start>26607</start>
						<end>26637</end>
						<alignment>center</alignment>
						<cutPointTicks>158760000000</cutPointTicks>
						<rate>
							<timebase>24</timebase>
							<ntsc>FALSE</ntsc>
						</rate>
						<effect>
							<name>Cross Dissolve</name>
							<effectid>Cross Dissolve</effectid>
							<effectcategory>Dissolve</effectcategory>
							<effecttype>transition</effecttype>
							<mediatype>video</mediatype>
							<wipecode>0</wipecode>
							<wipeaccuracy>100</wipeaccuracy>
							<startratio>0</startratio>
							<endratio>1</endratio>
							<reverse>FALSE</reverse>
						</effect>
					</transitionitem>
					<clipitem id="clipitem-339">
						<masterclipid>masterclip-163</masterclipid>
						<name>A024_11021314_C001.mp4</name>
						<enabled>TRUE</enabled>
						<duration>11058</duration>
						<rate>
							<timebase>24</timebase>
							<ntsc>FALSE</ntsc>
						</rate>
						<start>-1</start>
						<end>26658</end>
						<in>503</in>
						<out>554</out>
						<pproTicksIn>5323752000000</pproTicksIn>
						<pproTicksOut>5863536000000</pproTicksOut>
						<alphatype>none</alphatype>
						<pixelaspectratio>square</pixelaspectratio>
						<anamorphic>FALSE</anamorphic>
						<file id="file-163">
							<name>A024_11021314_C001.mp4</name>
							<pathurl>file://localhost/F%3a/love%20song/temple/A024_11021314_C001.mp4</pathurl>
							<rate>
								<timebase>24</timebase>
								<ntsc>FALSE</ntsc>
							</rate>
							<duration>11058</duration>
							<timecode>
								<rate>
									<timebase>24</timebase>
									<ntsc>FALSE</ntsc>
								</rate>
								<string>13:14:08:04</string>
								<frame>1143556</frame>
								<displayformat>NDF</displayformat>
							</timecode>
							<media>
								<video>
									<samplecharacteristics>
										<rate>
											<timebase>24</timebase>
											<ntsc>FALSE</ntsc>
										</rate>
										<width>1920</width>
										<height>1080</height>
										<anamorphic>FALSE</anamorphic>
										<pixelaspectratio>square</pixelaspectratio>
										<fielddominance>none</fielddominance>
									</samplecharacteristics>
								</video>
								<audio>
									<samplecharacteristics>
										<depth>16</depth>
										<samplerate>48000</samplerate>
									</samplecharacteristics>
									<channelcount>2</channelcount>
								</audio>
							</media>
						</file>
						<filter>
							<effect>
								<name>Opacity</name>
								<effectid>opacity</effectid>
								<effectcategory>motion</effectcategory>
								<effecttype>motion</effecttype>
								<mediatype>video</mediatype>
								<pproBypass>false</pproBypass>
								<parameter authoringApp="PremierePro">
									<parameterid>opacity</parameterid>
									<name>opacity</name>
									<valuemin>0</valuemin>
									<valuemax>100</valuemax>
									<value>90.9091</value>
								</parameter>
							</effect>
						</filter>
						<logginginfo>
							<description></description>
							<scene></scene>
							<shottake></shottake>
							<lognote></lognote>
							<good></good>
							<originalvideofilename></originalvideofilename>
							<originalaudiofilename></originalaudiofilename>
						</logginginfo>
						<colorinfo>
							<lut></lut>
							<lut1></lut1>
							<asc_sop></asc_sop>
							<asc_sat></asc_sat>
							<lut2></lut2>
						</colorinfo>
						<labels>
							<label2>Iris</label2>
						</labels>
					</clipitem>
					<clipitem id="clipitem-340">
						<masterclipid>masterclip-164</masterclipid>
						<name>A025_11021411_C010.mp4</name>
						<enabled>TRUE</enabled>
						<duration>3423</duration>
						<rate>
							<timebase>24</timebase>
							<ntsc>FALSE</ntsc>
						</rate>
						<start>26658</start>
						<end>26709</end>
						<in>776</in>
						<out>827</out>
						<pproTicksIn>8213184000000</pproTicksIn>
						<pproTicksOut>8752968000000</pproTicksOut>
						<alphatype>none</alphatype>
						<pixelaspectratio>square</pixelaspectratio>
						<anamorphic>FALSE</anamorphic>
						<file id="file-164">
							<name>A025_11021411_C010.mp4</name>
							<pathurl>file://localhost/F%3a/love%20song/temple/A025_11021411_C010.mp4</pathurl>
							<rate>
								<timebase>24</timebase>
								<ntsc>FALSE</ntsc>
							</rate>
							<duration>3423</duration>
							<timecode>
								<rate>
									<timebase>24</timebase>
									<ntsc>FALSE</ntsc>
								</rate>
								<string>14:11:24:09</string>
								<frame>1226025</frame>
								<displayformat>NDF</displayformat>
							</timecode>
							<media>
								<video>
									<samplecharacteristics>
										<rate>
											<timebase>24</timebase>
											<ntsc>FALSE</ntsc>
										</rate>
										<width>1920</width>
										<height>1080</height>
										<anamorphic>FALSE</anamorphic>
										<pixelaspectratio>square</pixelaspectratio>
										<fielddominance>none</fielddominance>
									</samplecharacteristics>
								</video>
								<audio>
									<samplecharacteristics>
										<depth>16</depth>
										<samplerate>48000</samplerate>
									</samplecharacteristics>
									<channelcount>2</channelcount>
								</audio>
							</media>
						</file>
						<logginginfo>
							<description></description>
							<scene></scene>
							<shottake></shottake>
							<lognote></lognote>
							<good></good>
							<originalvideofilename></originalvideofilename>
							<originalaudiofilename></originalaudiofilename>
						</logginginfo>
						<colorinfo>
							<lut></lut>
							<lut1></lut1>
							<asc_sop></asc_sop>
							<asc_sat></asc_sat>
							<lut2></lut2>
						</colorinfo>
						<labels>
							<label2>Iris</label2>
						</labels>
					</clipitem>
					<clipitem id="clipitem-341">
						<masterclipid>masterclip-165</masterclipid>
						<name>A024_11021325_C002.mp4</name>
						<enabled>TRUE</enabled>
						<duration>6495</duration>
						<rate>
							<timebase>24</timebase>
							<ntsc>FALSE</ntsc>
						</rate>
						<start>26709</start>
						<end>26740</end>
						<in>813</in>
						<out>844</out>
						<pproTicksIn>8604792000000</pproTicksIn>
						<pproTicksOut>8932896000000</pproTicksOut>
						<alphatype>none</alphatype>
						<pixelaspectratio>square</pixelaspectratio>
						<anamorphic>FALSE</anamorphic>
						<file id="file-165">
							<name>A024_11021325_C002.mp4</name>
							<pathurl>file://localhost/F%3a/love%20song/temple/A024_11021325_C002.mp4</pathurl>
							<rate>
								<timebase>24</timebase>
								<ntsc>FALSE</ntsc>
							</rate>
							<duration>6495</duration>
							<timecode>
								<rate>
									<timebase>24</timebase>
									<ntsc>FALSE</ntsc>
								</rate>
								<string>13:25:50:09</string>
								<frame>1160409</frame>
								<displayformat>NDF</displayformat>
							</timecode>
							<media>
								<video>
									<samplecharacteristics>
										<rate>
											<timebase>24</timebase>
											<ntsc>FALSE</ntsc>
										</rate>
										<width>1920</width>
										<height>1080</height>
										<anamorphic>FALSE</anamorphic>
										<pixelaspectratio>square</pixelaspectratio>
										<fielddominance>none</fielddominance>
									</samplecharacteristics>
								</video>
								<audio>
									<samplecharacteristics>
										<depth>16</depth>
										<samplerate>48000</samplerate>
									</samplecharacteristics>
									<channelcount>2</channelcount>
								</audio>
							</media>
						</file>
						<logginginfo>
							<description></description>
							<scene></scene>
							<shottake></shottake>
							<lognote></lognote>
							<good></good>
							<originalvideofilename></originalvideofilename>
							<originalaudiofilename></originalaudiofilename>
						</logginginfo>
						<colorinfo>
							<lut></lut>
							<lut1></lut1>
							<asc_sop></asc_sop>
							<asc_sat></asc_sat>
							<lut2></lut2>
						</colorinfo>
						<labels>
							<label2>Iris</label2>
						</labels>
					</clipitem>
					<clipitem id="clipitem-342">
						<masterclipid>masterclip-166</masterclipid>
						<name>A025_11021338_C004.mp4</name>
						<enabled>TRUE</enabled>
						<duration>2552</duration>
						<rate>
							<timebase>24</timebase>
							<ntsc>FALSE</ntsc>
						</rate>
						<start>26740</start>
						<end>26791</end>
						<in>2087</in>
						<out>2138</out>
						<pproTicksIn>22088808000000</pproTicksIn>
						<pproTicksOut>22628592000000</pproTicksOut>
						<alphatype>none</alphatype>
						<pixelaspectratio>square</pixelaspectratio>
						<anamorphic>FALSE</anamorphic>
						<file id="file-166">
							<name>A025_11021338_C004.mp4</name>
							<pathurl>file://localhost/F%3a/love%20song/temple/A025_11021338_C004.mp4</pathurl>
							<rate>
								<timebase>24</timebase>
								<ntsc>FALSE</ntsc>
							</rate>
							<duration>2552</duration>
							<timecode>
								<rate>
									<timebase>24</timebase>
									<ntsc>FALSE</ntsc>
								</rate>
								<string>13:38:20:14</string>
								<frame>1178414</frame>
								<displayformat>NDF</displayformat>
							</timecode>
							<media>
								<video>
									<samplecharacteristics>
										<rate>
											<timebase>24</timebase>
											<ntsc>FALSE</ntsc>
										</rate>
										<width>1920</width>
										<height>1080</height>
										<anamorphic>FALSE</anamorphic>
										<pixelaspectratio>square</pixelaspectratio>
										<fielddominance>none</fielddominance>
									</samplecharacteristics>
								</video>
								<audio>
									<samplecharacteristics>
										<depth>16</depth>
										<samplerate>48000</samplerate>
									</samplecharacteristics>
									<channelcount>2</channelcount>
								</audio>
							</media>
						</file>
						<logginginfo>
							<description></description>
							<scene></scene>
							<shottake></shottake>
							<lognote></lognote>
							<good></good>
							<originalvideofilename></originalvideofilename>
							<originalaudiofilename></originalaudiofilename>
						</logginginfo>
						<colorinfo>
							<lut></lut>
							<lut1></lut1>
							<asc_sop></asc_sop>
							<asc_sat></asc_sat>
							<lut2></lut2>
						</colorinfo>
						<labels>
							<label2>Iris</label2>
						</labels>
					</clipitem>
					<clipitem id="clipitem-343">
						<masterclipid>masterclip-165</masterclipid>
						<name>A024_11021325_C002.mp4</name>
						<enabled>TRUE</enabled>
						<duration>6495</duration>
						<rate>
							<timebase>24</timebase>
							<ntsc>FALSE</ntsc>
						</rate>
						<start>26791</start>
						<end>26839</end>
						<in>4286</in>
						<out>4334</out>
						<pproTicksIn>45363024000000</pproTicksIn>
						<pproTicksOut>45871056000000</pproTicksOut>
						<alphatype>none</alphatype>
						<file id="file-165"/>
						<logginginfo>
							<description></description>
							<scene></scene>
							<shottake></shottake>
							<lognote></lognote>
							<good></good>
							<originalvideofilename></originalvideofilename>
							<originalaudiofilename></originalaudiofilename>
						</logginginfo>
						<colorinfo>
							<lut></lut>
							<lut1></lut1>
							<asc_sop></asc_sop>
							<asc_sat></asc_sat>
							<lut2></lut2>
						</colorinfo>
						<labels>
							<label2>Iris</label2>
						</labels>
					</clipitem>
					<clipitem id="clipitem-344">
						<masterclipid>masterclip-165</masterclipid>
						<name>A024_11021325_C002.mp4</name>
						<enabled>TRUE</enabled>
						<duration>6495</duration>
						<rate>
							<timebase>24</timebase>
							<ntsc>FALSE</ntsc>
						</rate>
						<start>26839</start>
						<end>26880</end>
						<in>4735</in>
						<out>4776</out>
						<pproTicksIn>50115240000000</pproTicksIn>
						<pproTicksOut>50549184000000</pproTicksOut>
						<alphatype>none</alphatype>
						<file id="file-165"/>
						<logginginfo>
							<description></description>
							<scene></scene>
							<shottake></shottake>
							<lognote></lognote>
							<good></good>
							<originalvideofilename></originalvideofilename>
							<originalaudiofilename></originalaudiofilename>
						</logginginfo>
						<colorinfo>
							<lut></lut>
							<lut1></lut1>
							<asc_sop></asc_sop>
							<asc_sat></asc_sat>
							<lut2></lut2>
						</colorinfo>
						<labels>
							<label2>Iris</label2>
						</labels>
					</clipitem>
					<clipitem id="clipitem-345">
						<masterclipid>masterclip-167</masterclipid>
						<name>A025_11021418_C012.mp4</name>
						<enabled>TRUE</enabled>
						<duration>3609</duration>
						<rate>
							<timebase>24</timebase>
							<ntsc>FALSE</ntsc>
						</rate>
						<start>26880</start>
						<end>26904</end>
						<in>1226</in>
						<out>1250</out>
						<pproTicksIn>12975984000000</pproTicksIn>
						<pproTicksOut>13230000000000</pproTicksOut>
						<alphatype>none</alphatype>
						<pixelaspectratio>square</pixelaspectratio>
						<anamorphic>FALSE</anamorphic>
						<file id="file-167">
							<name>A025_11021418_C012.mp4</name>
							<pathurl>file://localhost/F%3a/love%20song/temple/A025_11021418_C012.mp4</pathurl>
							<rate>
								<timebase>24</timebase>
								<ntsc>FALSE</ntsc>
							</rate>
							<duration>3609</duration>
							<timecode>
								<rate>
									<timebase>24</timebase>
									<ntsc>FALSE</ntsc>
								</rate>
								<string>14:18:43:01</string>
								<frame>1236553</frame>
								<displayformat>NDF</displayformat>
							</timecode>
							<media>
								<video>
									<samplecharacteristics>
										<rate>
											<timebase>24</timebase>
											<ntsc>FALSE</ntsc>
										</rate>
										<width>1920</width>
										<height>1080</height>
										<anamorphic>FALSE</anamorphic>
										<pixelaspectratio>square</pixelaspectratio>
										<fielddominance>none</fielddominance>
									</samplecharacteristics>
								</video>
								<audio>
									<samplecharacteristics>
										<depth>16</depth>
										<samplerate>48000</samplerate>
									</samplecharacteristics>
									<channelcount>2</channelcount>
								</audio>
							</media>
						</file>
						<logginginfo>
							<description></description>
							<scene></scene>
							<shottake></shottake>
							<lognote></lognote>
							<good></good>
							<originalvideofilename></originalvideofilename>
							<originalaudiofilename></originalaudiofilename>
						</logginginfo>
						<colorinfo>
							<lut></lut>
							<lut1></lut1>
							<asc_sop></asc_sop>
							<asc_sat></asc_sat>
							<lut2></lut2>
						</colorinfo>
						<labels>
							<label2>Iris</label2>
						</labels>
					</clipitem>
					<clipitem id="clipitem-346">
						<masterclipid>masterclip-167</masterclipid>
						<name>A025_11021418_C012.mp4</name>
						<enabled>TRUE</enabled>
						<duration>3609</duration>
						<rate>
							<timebase>24</timebase>
							<ntsc>FALSE</ntsc>
						</rate>
						<start>26904</start>
						<end>26928</end>
						<in>1506</in>
						<out>1530</out>
						<pproTicksIn>15939504000000</pproTicksIn>
						<pproTicksOut>16193520000000</pproTicksOut>
						<alphatype>none</alphatype>
						<file id="file-167"/>
						<logginginfo>
							<description></description>
							<scene></scene>
							<shottake></shottake>
							<lognote></lognote>
							<good></good>
							<originalvideofilename></originalvideofilename>
							<originalaudiofilename></originalaudiofilename>
						</logginginfo>
						<colorinfo>
							<lut></lut>
							<lut1></lut1>
							<asc_sop></asc_sop>
							<asc_sat></asc_sat>
							<lut2></lut2>
						</colorinfo>
						<labels>
							<label2>Iris</label2>
						</labels>
					</clipitem>
					<clipitem id="clipitem-347">
						<masterclipid>masterclip-167</masterclipid>
						<name>A025_11021418_C012.mp4</name>
						<enabled>TRUE</enabled>
						<duration>3609</duration>
						<rate>
							<timebase>24</timebase>
							<ntsc>FALSE</ntsc>
						</rate>
						<start>26949</start>
						<end>26977</end>
						<in>2006</in>
						<out>2034</out>
						<pproTicksIn>21231504000000</pproTicksIn>
						<pproTicksOut>21527856000000</pproTicksOut>
						<alphatype>none</alphatype>
						<file id="file-167"/>
						<logginginfo>
							<description></description>
							<scene></scene>
							<shottake></shottake>
							<lognote></lognote>
							<good></good>
							<originalvideofilename></originalvideofilename>
							<originalaudiofilename></originalaudiofilename>
						</logginginfo>
						<colorinfo>
							<lut></lut>
							<lut1></lut1>
							<asc_sop></asc_sop>
							<asc_sat></asc_sat>
							<lut2></lut2>
						</colorinfo>
						<labels>
							<label2>Iris</label2>
						</labels>
					</clipitem>
					<clipitem id="clipitem-348">
						<masterclipid>masterclip-168</masterclipid>
						<name>A026_11030114_C059.mp4</name>
						<enabled>TRUE</enabled>
						<duration>2174</duration>
						<rate>
							<timebase>24</timebase>
							<ntsc>FALSE</ntsc>
						</rate>
						<start>26977</start>
						<end>27001</end>
						<in>886</in>
						<out>910</out>
						<pproTicksIn>9377424000000</pproTicksIn>
						<pproTicksOut>9631440000000</pproTicksOut>
						<alphatype>none</alphatype>
						<pixelaspectratio>square</pixelaspectratio>
						<anamorphic>FALSE</anamorphic>
						<file id="file-168">
							<name>A026_11030114_C059.mp4</name>
							<pathurl>file://localhost/F%3a/love%20song/phonecalls/A026_11030114_C059.mp4</pathurl>
							<rate>
								<timebase>24</timebase>
								<ntsc>FALSE</ntsc>
							</rate>
							<duration>2174</duration>
							<timecode>
								<rate>
									<timebase>24</timebase>
									<ntsc>FALSE</ntsc>
								</rate>
								<string>01:14:55:21</string>
								<frame>107901</frame>
								<displayformat>NDF</displayformat>
							</timecode>
							<media>
								<video>
									<samplecharacteristics>
										<rate>
											<timebase>24</timebase>
											<ntsc>FALSE</ntsc>
										</rate>
										<width>1920</width>
										<height>1080</height>
										<anamorphic>FALSE</anamorphic>
										<pixelaspectratio>square</pixelaspectratio>
										<fielddominance>none</fielddominance>
									</samplecharacteristics>
								</video>
								<audio>
									<samplecharacteristics>
										<depth>16</depth>
										<samplerate>48000</samplerate>
									</samplecharacteristics>
									<channelcount>2</channelcount>
								</audio>
							</media>
						</file>
						<logginginfo>
							<description></description>
							<scene></scene>
							<shottake></shottake>
							<lognote></lognote>
							<good></good>
							<originalvideofilename></originalvideofilename>
							<originalaudiofilename></originalaudiofilename>
						</logginginfo>
						<colorinfo>
							<lut></lut>
							<lut1></lut1>
							<asc_sop></asc_sop>
							<asc_sat></asc_sat>
							<lut2></lut2>
						</colorinfo>
						<labels>
							<label2>Iris</label2>
						</labels>
					</clipitem>
					<clipitem id="clipitem-349">
						<masterclipid>masterclip-169</masterclipid>
						<name>A013_10310324_C016.mp4</name>
						<enabled>TRUE</enabled>
						<duration>4873</duration>
						<rate>
							<timebase>24</timebase>
							<ntsc>FALSE</ntsc>
						</rate>
						<start>27001</start>
						<end>27026</end>
						<in>4334</in>
						<out>4359</out>
						<pproTicksIn>45871056000000</pproTicksIn>
						<pproTicksOut>46135656000000</pproTicksOut>
						<alphatype>none</alphatype>
						<pixelaspectratio>square</pixelaspectratio>
						<anamorphic>FALSE</anamorphic>
						<file id="file-169">
							<name>A013_10310324_C016.mp4</name>
							<pathurl>file://localhost/F%3a/love%20song/phonecalls/A013_10310324_C016.mp4</pathurl>
							<rate>
								<timebase>24</timebase>
								<ntsc>FALSE</ntsc>
							</rate>
							<duration>4873</duration>
							<timecode>
								<rate>
									<timebase>24</timebase>
									<ntsc>FALSE</ntsc>
								</rate>
								<string>03:24:54:21</string>
								<frame>295077</frame>
								<displayformat>NDF</displayformat>
							</timecode>
							<media>
								<video>
									<samplecharacteristics>
										<rate>
											<timebase>24</timebase>
											<ntsc>FALSE</ntsc>
										</rate>
										<width>1920</width>
										<height>1080</height>
										<anamorphic>FALSE</anamorphic>
										<pixelaspectratio>square</pixelaspectratio>
										<fielddominance>none</fielddominance>
									</samplecharacteristics>
								</video>
								<audio>
									<samplecharacteristics>
										<depth>16</depth>
										<samplerate>48000</samplerate>
									</samplecharacteristics>
									<channelcount>2</channelcount>
								</audio>
							</media>
						</file>
						<logginginfo>
							<description></description>
							<scene></scene>
							<shottake></shottake>
							<lognote></lognote>
							<good></good>
							<originalvideofilename></originalvideofilename>
							<originalaudiofilename></originalaudiofilename>
						</logginginfo>
						<colorinfo>
							<lut></lut>
							<lut1></lut1>
							<asc_sop></asc_sop>
							<asc_sat></asc_sat>
							<lut2></lut2>
						</colorinfo>
						<labels>
							<label2>Iris</label2>
						</labels>
					</clipitem>
					<clipitem id="clipitem-350">
						<masterclipid>masterclip-170</masterclipid>
						<name>A026_11030113_C058.mp4</name>
						<enabled>TRUE</enabled>
						<duration>891</duration>
						<rate>
							<timebase>24</timebase>
							<ntsc>FALSE</ntsc>
						</rate>
						<start>27026</start>
						<end>27050</end>
						<in>306</in>
						<out>330</out>
						<pproTicksIn>3238704000000</pproTicksIn>
						<pproTicksOut>3492720000000</pproTicksOut>
						<alphatype>none</alphatype>
						<pixelaspectratio>square</pixelaspectratio>
						<anamorphic>FALSE</anamorphic>
						<file id="file-170">
							<name>A026_11030113_C058.mp4</name>
							<pathurl>file://localhost/F%3a/love%20song/phonecalls/A026_11030113_C058.mp4</pathurl>
							<rate>
								<timebase>24</timebase>
								<ntsc>FALSE</ntsc>
							</rate>
							<duration>891</duration>
							<timecode>
								<rate>
									<timebase>24</timebase>
									<ntsc>FALSE</ntsc>
								</rate>
								<string>01:13:16:11</string>
								<frame>105515</frame>
								<displayformat>NDF</displayformat>
							</timecode>
							<media>
								<video>
									<samplecharacteristics>
										<rate>
											<timebase>24</timebase>
											<ntsc>FALSE</ntsc>
										</rate>
										<width>1920</width>
										<height>1080</height>
										<anamorphic>FALSE</anamorphic>
										<pixelaspectratio>square</pixelaspectratio>
										<fielddominance>none</fielddominance>
									</samplecharacteristics>
								</video>
								<audio>
									<samplecharacteristics>
										<depth>16</depth>
										<samplerate>48000</samplerate>
									</samplecharacteristics>
									<channelcount>2</channelcount>
								</audio>
							</media>
						</file>
						<logginginfo>
							<description></description>
							<scene></scene>
							<shottake></shottake>
							<lognote></lognote>
							<good></good>
							<originalvideofilename></originalvideofilename>
							<originalaudiofilename></originalaudiofilename>
						</logginginfo>
						<colorinfo>
							<lut></lut>
							<lut1></lut1>
							<asc_sop></asc_sop>
							<asc_sat></asc_sat>
							<lut2></lut2>
						</colorinfo>
						<labels>
							<label2>Iris</label2>
						</labels>
					</clipitem>
					<clipitem id="clipitem-351">
						<masterclipid>masterclip-169</masterclipid>
						<name>A013_10310324_C016.mp4</name>
						<enabled>TRUE</enabled>
						<duration>4873</duration>
						<rate>
							<timebase>24</timebase>
							<ntsc>FALSE</ntsc>
						</rate>
						<start>27050</start>
						<end>27073</end>
						<in>2908</in>
						<out>2931</out>
						<pproTicksIn>30778272000000</pproTicksIn>
						<pproTicksOut>31021704000000</pproTicksOut>
						<alphatype>none</alphatype>
						<file id="file-169"/>
						<logginginfo>
							<description></description>
							<scene></scene>
							<shottake></shottake>
							<lognote></lognote>
							<good></good>
							<originalvideofilename></originalvideofilename>
							<originalaudiofilename></originalaudiofilename>
						</logginginfo>
						<colorinfo>
							<lut></lut>
							<lut1></lut1>
							<asc_sop></asc_sop>
							<asc_sat></asc_sat>
							<lut2></lut2>
						</colorinfo>
						<labels>
							<label2>Iris</label2>
						</labels>
					</clipitem>
					<clipitem id="clipitem-352">
						<masterclipid>masterclip-171</masterclipid>
						<name>A021_11020437_C047.mp4</name>
						<enabled>TRUE</enabled>
						<duration>1474</duration>
						<rate>
							<timebase>24</timebase>
							<ntsc>FALSE</ntsc>
						</rate>
						<start>27073</start>
						<end>27121</end>
						<in>497</in>
						<out>545</out>
						<pproTicksIn>5260248000000</pproTicksIn>
						<pproTicksOut>5768280000000</pproTicksOut>
						<alphatype>none</alphatype>
						<pixelaspectratio>square</pixelaspectratio>
						<anamorphic>FALSE</anamorphic>
						<file id="file-171">
							<name>A021_11020437_C047.mp4</name>
							<pathurl>file://localhost/F%3a/love%20song/bridge/A021_11020437_C047.mp4</pathurl>
							<rate>
								<timebase>24</timebase>
								<ntsc>FALSE</ntsc>
							</rate>
							<duration>1474</duration>
							<timecode>
								<rate>
									<timebase>24</timebase>
									<ntsc>FALSE</ntsc>
								</rate>
								<string>04:37:16:11</string>
								<frame>399275</frame>
								<displayformat>NDF</displayformat>
							</timecode>
							<media>
								<video>
									<samplecharacteristics>
										<rate>
											<timebase>24</timebase>
											<ntsc>FALSE</ntsc>
										</rate>
										<width>1920</width>
										<height>1080</height>
										<anamorphic>FALSE</anamorphic>
										<pixelaspectratio>square</pixelaspectratio>
										<fielddominance>none</fielddominance>
									</samplecharacteristics>
								</video>
								<audio>
									<samplecharacteristics>
										<depth>16</depth>
										<samplerate>48000</samplerate>
									</samplecharacteristics>
									<channelcount>2</channelcount>
								</audio>
							</media>
						</file>
						<logginginfo>
							<description></description>
							<scene></scene>
							<shottake></shottake>
							<lognote></lognote>
							<good></good>
							<originalvideofilename></originalvideofilename>
							<originalaudiofilename></originalaudiofilename>
						</logginginfo>
						<colorinfo>
							<lut></lut>
							<lut1></lut1>
							<asc_sop></asc_sop>
							<asc_sat></asc_sat>
							<lut2></lut2>
						</colorinfo>
						<labels>
							<label2>Iris</label2>
						</labels>
					</clipitem>
					<clipitem id="clipitem-353">
						<masterclipid>masterclip-172</masterclipid>
						<name>A021_11020439_C048.mp4</name>
						<enabled>TRUE</enabled>
						<duration>1762</duration>
						<rate>
							<timebase>24</timebase>
							<ntsc>FALSE</ntsc>
						</rate>
						<start>27121</start>
						<end>27168</end>
						<in>614</in>
						<out>661</out>
						<pproTicksIn>6498576000000</pproTicksIn>
						<pproTicksOut>6996024000000</pproTicksOut>
						<alphatype>none</alphatype>
						<pixelaspectratio>square</pixelaspectratio>
						<anamorphic>FALSE</anamorphic>
						<file id="file-172">
							<name>A021_11020439_C048.mp4</name>
							<pathurl>file://localhost/F%3a/love%20song/bridge/A021_11020439_C048.mp4</pathurl>
							<rate>
								<timebase>24</timebase>
								<ntsc>FALSE</ntsc>
							</rate>
							<duration>1762</duration>
							<timecode>
								<rate>
									<timebase>24</timebase>
									<ntsc>FALSE</ntsc>
								</rate>
								<string>04:39:36:02</string>
								<frame>402626</frame>
								<displayformat>NDF</displayformat>
							</timecode>
							<media>
								<video>
									<samplecharacteristics>
										<rate>
											<timebase>24</timebase>
											<ntsc>FALSE</ntsc>
										</rate>
										<width>1920</width>
										<height>1080</height>
										<anamorphic>FALSE</anamorphic>
										<pixelaspectratio>square</pixelaspectratio>
										<fielddominance>none</fielddominance>
									</samplecharacteristics>
								</video>
								<audio>
									<samplecharacteristics>
										<depth>16</depth>
										<samplerate>48000</samplerate>
									</samplecharacteristics>
									<channelcount>2</channelcount>
								</audio>
							</media>
						</file>
						<logginginfo>
							<description></description>
							<scene></scene>
							<shottake></shottake>
							<lognote></lognote>
							<good></good>
							<originalvideofilename></originalvideofilename>
							<originalaudiofilename></originalaudiofilename>
						</logginginfo>
						<colorinfo>
							<lut></lut>
							<lut1></lut1>
							<asc_sop></asc_sop>
							<asc_sat></asc_sat>
							<lut2></lut2>
						</colorinfo>
						<labels>
							<label2>Iris</label2>
						</labels>
					</clipitem>
					<clipitem id="clipitem-354">
						<masterclipid>masterclip-171</masterclipid>
						<name>A021_11020437_C047.mp4</name>
						<enabled>TRUE</enabled>
						<duration>1474</duration>
						<rate>
							<timebase>24</timebase>
							<ntsc>FALSE</ntsc>
						</rate>
						<start>27168</start>
						<end>27214</end>
						<in>789</in>
						<out>835</out>
						<pproTicksIn>8350776000000</pproTicksIn>
						<pproTicksOut>8837640000000</pproTicksOut>
						<alphatype>none</alphatype>
						<file id="file-171"/>
						<logginginfo>
							<description></description>
							<scene></scene>
							<shottake></shottake>
							<lognote></lognote>
							<good></good>
							<originalvideofilename></originalvideofilename>
							<originalaudiofilename></originalaudiofilename>
						</logginginfo>
						<colorinfo>
							<lut></lut>
							<lut1></lut1>
							<asc_sop></asc_sop>
							<asc_sat></asc_sat>
							<lut2></lut2>
						</colorinfo>
						<labels>
							<label2>Iris</label2>
						</labels>
					</clipitem>
					<clipitem id="clipitem-355">
						<masterclipid>masterclip-172</masterclipid>
						<name>A021_11020439_C048.mp4</name>
						<enabled>TRUE</enabled>
						<duration>1762</duration>
						<rate>
							<timebase>24</timebase>
							<ntsc>FALSE</ntsc>
						</rate>
						<start>27214</start>
						<end>27236</end>
						<in>1027</in>
						<out>1049</out>
						<pproTicksIn>10869768000000</pproTicksIn>
						<pproTicksOut>11102616000000</pproTicksOut>
						<alphatype>none</alphatype>
						<file id="file-172"/>
						<logginginfo>
							<description></description>
							<scene></scene>
							<shottake></shottake>
							<lognote></lognote>
							<good></good>
							<originalvideofilename></originalvideofilename>
							<originalaudiofilename></originalaudiofilename>
						</logginginfo>
						<colorinfo>
							<lut></lut>
							<lut1></lut1>
							<asc_sop></asc_sop>
							<asc_sat></asc_sat>
							<lut2></lut2>
						</colorinfo>
						<labels>
							<label2>Iris</label2>
						</labels>
					</clipitem>
					<clipitem id="clipitem-356">
						<masterclipid>masterclip-172</masterclipid>
						<name>A021_11020439_C048.mp4</name>
						<enabled>TRUE</enabled>
						<duration>1762</duration>
						<rate>
							<timebase>24</timebase>
							<ntsc>FALSE</ntsc>
						</rate>
						<start>27236</start>
						<end>27266</end>
						<in>1375</in>
						<out>1405</out>
						<pproTicksIn>14553000000000</pproTicksIn>
						<pproTicksOut>14870520000000</pproTicksOut>
						<alphatype>none</alphatype>
						<file id="file-172"/>
						<logginginfo>
							<description></description>
							<scene></scene>
							<shottake></shottake>
							<lognote></lognote>
							<good></good>
							<originalvideofilename></originalvideofilename>
							<originalaudiofilename></originalaudiofilename>
						</logginginfo>
						<colorinfo>
							<lut></lut>
							<lut1></lut1>
							<asc_sop></asc_sop>
							<asc_sat></asc_sat>
							<lut2></lut2>
						</colorinfo>
						<labels>
							<label2>Iris</label2>
						</labels>
					</clipitem>
					<clipitem id="clipitem-357">
						<masterclipid>masterclip-173</masterclipid>
						<name>A008_10281045_C116.mp4</name>
						<enabled>TRUE</enabled>
						<duration>2372</duration>
						<rate>
							<timebase>24</timebase>
							<ntsc>FALSE</ntsc>
						</rate>
						<start>27266</start>
						<end>27290</end>
						<in>1235</in>
						<out>1259</out>
						<pproTicksIn>13071240000000</pproTicksIn>
						<pproTicksOut>13325256000000</pproTicksOut>
						<alphatype>none</alphatype>
						<pixelaspectratio>square</pixelaspectratio>
						<anamorphic>FALSE</anamorphic>
						<file id="file-173">
							<name>A008_10281045_C116.mp4</name>
							<pathurl>file://localhost/F%3a/love%20song/neelavara%20bridge/A008_10281045_C116.mp4</pathurl>
							<rate>
								<timebase>24</timebase>
								<ntsc>FALSE</ntsc>
							</rate>
							<duration>2372</duration>
							<timecode>
								<rate>
									<timebase>24</timebase>
									<ntsc>FALSE</ntsc>
								</rate>
								<string>10:45:32:06</string>
								<frame>929574</frame>
								<displayformat>NDF</displayformat>
							</timecode>
							<media>
								<video>
									<samplecharacteristics>
										<rate>
											<timebase>24</timebase>
											<ntsc>FALSE</ntsc>
										</rate>
										<width>1920</width>
										<height>1080</height>
										<anamorphic>FALSE</anamorphic>
										<pixelaspectratio>square</pixelaspectratio>
										<fielddominance>none</fielddominance>
									</samplecharacteristics>
								</video>
								<audio>
									<samplecharacteristics>
										<depth>16</depth>
										<samplerate>48000</samplerate>
									</samplecharacteristics>
									<channelcount>2</channelcount>
								</audio>
							</media>
						</file>
						<logginginfo>
							<description></description>
							<scene></scene>
							<shottake></shottake>
							<lognote></lognote>
							<good></good>
							<originalvideofilename></originalvideofilename>
							<originalaudiofilename></originalaudiofilename>
						</logginginfo>
						<colorinfo>
							<lut></lut>
							<lut1></lut1>
							<asc_sop></asc_sop>
							<asc_sat></asc_sat>
							<lut2></lut2>
						</colorinfo>
						<labels>
							<label2>Iris</label2>
						</labels>
					</clipitem>
					<clipitem id="clipitem-358">
						<masterclipid>masterclip-173</masterclipid>
						<name>A008_10281045_C116.mp4</name>
						<enabled>TRUE</enabled>
						<duration>2372</duration>
						<rate>
							<timebase>24</timebase>
							<ntsc>FALSE</ntsc>
						</rate>
						<start>27290</start>
						<end>27311</end>
						<in>18</in>
						<out>39</out>
						<pproTicksIn>190512000000</pproTicksIn>
						<pproTicksOut>412776000000</pproTicksOut>
						<alphatype>none</alphatype>
						<file id="file-173"/>
						<logginginfo>
							<description></description>
							<scene></scene>
							<shottake></shottake>
							<lognote></lognote>
							<good></good>
							<originalvideofilename></originalvideofilename>
							<originalaudiofilename></originalaudiofilename>
						</logginginfo>
						<colorinfo>
							<lut></lut>
							<lut1></lut1>
							<asc_sop></asc_sop>
							<asc_sat></asc_sat>
							<lut2></lut2>
						</colorinfo>
						<labels>
							<label2>Iris</label2>
						</labels>
					</clipitem>
					<clipitem id="clipitem-359">
						<masterclipid>masterclip-173</masterclipid>
						<name>A008_10281045_C116.mp4</name>
						<enabled>TRUE</enabled>
						<duration>2372</duration>
						<rate>
							<timebase>24</timebase>
							<ntsc>FALSE</ntsc>
						</rate>
						<start>27311</start>
						<end>27336</end>
						<in>1781</in>
						<out>1806</out>
						<pproTicksIn>18850104000000</pproTicksIn>
						<pproTicksOut>19114704000000</pproTicksOut>
						<alphatype>none</alphatype>
						<file id="file-173"/>
						<logginginfo>
							<description></description>
							<scene></scene>
							<shottake></shottake>
							<lognote></lognote>
							<good></good>
							<originalvideofilename></originalvideofilename>
							<originalaudiofilename></originalaudiofilename>
						</logginginfo>
						<colorinfo>
							<lut></lut>
							<lut1></lut1>
							<asc_sop></asc_sop>
							<asc_sat></asc_sat>
							<lut2></lut2>
						</colorinfo>
						<labels>
							<label2>Iris</label2>
						</labels>
					</clipitem>
					<clipitem id="clipitem-360">
						<masterclipid>masterclip-173</masterclipid>
						<name>A008_10281045_C116.mp4</name>
						<enabled>TRUE</enabled>
						<duration>2372</duration>
						<rate>
							<timebase>24</timebase>
							<ntsc>FALSE</ntsc>
						</rate>
						<start>27336</start>
						<end>27410</end>
						<in>1872</in>
						<out>1946</out>
						<pproTicksIn>19813248000000</pproTicksIn>
						<pproTicksOut>20596464000000</pproTicksOut>
						<alphatype>none</alphatype>
						<file id="file-173"/>
						<logginginfo>
							<description></description>
							<scene></scene>
							<shottake></shottake>
							<lognote></lognote>
							<good></good>
							<originalvideofilename></originalvideofilename>
							<originalaudiofilename></originalaudiofilename>
						</logginginfo>
						<colorinfo>
							<lut></lut>
							<lut1></lut1>
							<asc_sop></asc_sop>
							<asc_sat></asc_sat>
							<lut2></lut2>
						</colorinfo>
						<labels>
							<label2>Green</label2>
						</labels>
					</clipitem>
					<clipitem id="clipitem-361">
						<masterclipid>masterclip-174</masterclipid>
						<name>A012_10300229_C040.mp4</name>
						<enabled>TRUE</enabled>
						<duration>768</duration>
						<rate>
							<timebase>24</timebase>
							<ntsc>FALSE</ntsc>
						</rate>
						<start>27410</start>
						<end>27439</end>
						<in>323</in>
						<out>352</out>
						<pproTicksIn>3418632000000</pproTicksIn>
						<pproTicksOut>3725568000000</pproTicksOut>
						<alphatype>none</alphatype>
						<pixelaspectratio>square</pixelaspectratio>
						<anamorphic>FALSE</anamorphic>
						<file id="file-174">
							<name>A012_10300229_C040.mp4</name>
							<pathurl>file://localhost/F%3a/love%20song/vigraha%20kaadu/A012_10300229_C040.mp4</pathurl>
							<rate>
								<timebase>24</timebase>
								<ntsc>FALSE</ntsc>
							</rate>
							<duration>768</duration>
							<timecode>
								<rate>
									<timebase>24</timebase>
									<ntsc>FALSE</ntsc>
								</rate>
								<string>02:29:08:14</string>
								<frame>214766</frame>
								<displayformat>NDF</displayformat>
							</timecode>
							<media>
								<video>
									<samplecharacteristics>
										<rate>
											<timebase>24</timebase>
											<ntsc>FALSE</ntsc>
										</rate>
										<width>1920</width>
										<height>1080</height>
										<anamorphic>FALSE</anamorphic>
										<pixelaspectratio>square</pixelaspectratio>
										<fielddominance>none</fielddominance>
									</samplecharacteristics>
								</video>
								<audio>
									<samplecharacteristics>
										<depth>16</depth>
										<samplerate>48000</samplerate>
									</samplecharacteristics>
									<channelcount>2</channelcount>
								</audio>
							</media>
						</file>
						<logginginfo>
							<description></description>
							<scene></scene>
							<shottake></shottake>
							<lognote></lognote>
							<good></good>
							<originalvideofilename></originalvideofilename>
							<originalaudiofilename></originalaudiofilename>
						</logginginfo>
						<colorinfo>
							<lut></lut>
							<lut1></lut1>
							<asc_sop></asc_sop>
							<asc_sat></asc_sat>
							<lut2></lut2>
						</colorinfo>
						<labels>
							<label2>Iris</label2>
						</labels>
					</clipitem>
					<clipitem id="clipitem-362">
						<masterclipid>masterclip-175</masterclipid>
						<name>A012_10300234_C041.mp4</name>
						<enabled>TRUE</enabled>
						<duration>1074</duration>
						<rate>
							<timebase>24</timebase>
							<ntsc>FALSE</ntsc>
						</rate>
						<start>27439</start>
						<end>27469</end>
						<in>267</in>
						<out>297</out>
						<pproTicksIn>2825928000000</pproTicksIn>
						<pproTicksOut>3143448000000</pproTicksOut>
						<alphatype>none</alphatype>
						<pixelaspectratio>square</pixelaspectratio>
						<anamorphic>FALSE</anamorphic>
						<file id="file-175">
							<name>A012_10300234_C041.mp4</name>
							<pathurl>file://localhost/F%3a/love%20song/vigraha%20kaadu/A012_10300234_C041.mp4</pathurl>
							<rate>
								<timebase>24</timebase>
								<ntsc>FALSE</ntsc>
							</rate>
							<duration>1074</duration>
							<timecode>
								<rate>
									<timebase>24</timebase>
									<ntsc>FALSE</ntsc>
								</rate>
								<string>02:34:15:13</string>
								<frame>222133</frame>
								<displayformat>NDF</displayformat>
							</timecode>
							<media>
								<video>
									<samplecharacteristics>
										<rate>
											<timebase>24</timebase>
											<ntsc>FALSE</ntsc>
										</rate>
										<width>1920</width>
										<height>1080</height>
										<anamorphic>FALSE</anamorphic>
										<pixelaspectratio>square</pixelaspectratio>
										<fielddominance>none</fielddominance>
									</samplecharacteristics>
								</video>
								<audio>
									<samplecharacteristics>
										<depth>16</depth>
										<samplerate>48000</samplerate>
									</samplecharacteristics>
									<channelcount>2</channelcount>
								</audio>
							</media>
						</file>
						<logginginfo>
							<description></description>
							<scene></scene>
							<shottake></shottake>
							<lognote></lognote>
							<good></good>
							<originalvideofilename></originalvideofilename>
							<originalaudiofilename></originalaudiofilename>
						</logginginfo>
						<colorinfo>
							<lut></lut>
							<lut1></lut1>
							<asc_sop></asc_sop>
							<asc_sat></asc_sat>
							<lut2></lut2>
						</colorinfo>
						<labels>
							<label2>Iris</label2>
						</labels>
					</clipitem>
					<clipitem id="clipitem-363">
						<masterclipid>masterclip-174</masterclipid>
						<name>A012_10300229_C040.mp4</name>
						<enabled>TRUE</enabled>
						<duration>768</duration>
						<rate>
							<timebase>24</timebase>
							<ntsc>FALSE</ntsc>
						</rate>
						<start>27469</start>
						<end>27517</end>
						<in>396</in>
						<out>444</out>
						<pproTicksIn>4191264000000</pproTicksIn>
						<pproTicksOut>4699296000000</pproTicksOut>
						<alphatype>none</alphatype>
						<file id="file-174"/>
						<logginginfo>
							<description></description>
							<scene></scene>
							<shottake></shottake>
							<lognote></lognote>
							<good></good>
							<originalvideofilename></originalvideofilename>
							<originalaudiofilename></originalaudiofilename>
						</logginginfo>
						<colorinfo>
							<lut></lut>
							<lut1></lut1>
							<asc_sop></asc_sop>
							<asc_sat></asc_sat>
							<lut2></lut2>
						</colorinfo>
						<labels>
							<label2>Iris</label2>
						</labels>
					</clipitem>
					<clipitem id="clipitem-364">
						<masterclipid>masterclip-176</masterclipid>
						<name>A012_10300250_C045.mp4</name>
						<enabled>TRUE</enabled>
						<duration>4341</duration>
						<rate>
							<timebase>24</timebase>
							<ntsc>FALSE</ntsc>
						</rate>
						<start>27517</start>
						<end>27565</end>
						<in>2691</in>
						<out>2739</out>
						<pproTicksIn>28481544000000</pproTicksIn>
						<pproTicksOut>28989576000000</pproTicksOut>
						<alphatype>none</alphatype>
						<pixelaspectratio>square</pixelaspectratio>
						<anamorphic>FALSE</anamorphic>
						<file id="file-176">
							<name>A012_10300250_C045.mp4</name>
							<pathurl>file://localhost/F%3a/love%20song/vigraha%20kaadu/A012_10300250_C045.mp4</pathurl>
							<rate>
								<timebase>24</timebase>
								<ntsc>FALSE</ntsc>
							</rate>
							<duration>4341</duration>
							<timecode>
								<rate>
									<timebase>24</timebase>
									<ntsc>FALSE</ntsc>
								</rate>
								<string>02:50:45:14</string>
								<frame>245894</frame>
								<displayformat>NDF</displayformat>
							</timecode>
							<media>
								<video>
									<samplecharacteristics>
										<rate>
											<timebase>24</timebase>
											<ntsc>FALSE</ntsc>
										</rate>
										<width>1920</width>
										<height>1080</height>
										<anamorphic>FALSE</anamorphic>
										<pixelaspectratio>square</pixelaspectratio>
										<fielddominance>none</fielddominance>
									</samplecharacteristics>
								</video>
								<audio>
									<samplecharacteristics>
										<depth>16</depth>
										<samplerate>48000</samplerate>
									</samplecharacteristics>
									<channelcount>2</channelcount>
								</audio>
							</media>
						</file>
						<logginginfo>
							<description></description>
							<scene></scene>
							<shottake></shottake>
							<lognote></lognote>
							<good></good>
							<originalvideofilename></originalvideofilename>
							<originalaudiofilename></originalaudiofilename>
						</logginginfo>
						<colorinfo>
							<lut></lut>
							<lut1></lut1>
							<asc_sop></asc_sop>
							<asc_sat></asc_sat>
							<lut2></lut2>
						</colorinfo>
						<labels>
							<label2>Iris</label2>
						</labels>
					</clipitem>
					<clipitem id="clipitem-365">
						<masterclipid>masterclip-176</masterclipid>
						<name>A012_10300250_C045.mp4</name>
						<enabled>TRUE</enabled>
						<duration>4341</duration>
						<rate>
							<timebase>24</timebase>
							<ntsc>FALSE</ntsc>
						</rate>
						<start>27565</start>
						<end>27612</end>
						<in>491</in>
						<out>538</out>
						<pproTicksIn>5196744000000</pproTicksIn>
						<pproTicksOut>5694192000000</pproTicksOut>
						<alphatype>none</alphatype>
						<file id="file-176"/>
						<logginginfo>
							<description></description>
							<scene></scene>
							<shottake></shottake>
							<lognote></lognote>
							<good></good>
							<originalvideofilename></originalvideofilename>
							<originalaudiofilename></originalaudiofilename>
						</logginginfo>
						<colorinfo>
							<lut></lut>
							<lut1></lut1>
							<asc_sop></asc_sop>
							<asc_sat></asc_sat>
							<lut2></lut2>
						</colorinfo>
						<labels>
							<label2>Iris</label2>
						</labels>
					</clipitem>
					<clipitem id="clipitem-366">
						<masterclipid>masterclip-176</masterclipid>
						<name>A012_10300250_C045.mp4</name>
						<enabled>TRUE</enabled>
						<duration>4341</duration>
						<rate>
							<timebase>24</timebase>
							<ntsc>FALSE</ntsc>
						</rate>
						<start>27612</start>
						<end>27663</end>
						<in>1998</in>
						<out>2049</out>
						<pproTicksIn>21146832000000</pproTicksIn>
						<pproTicksOut>21686616000000</pproTicksOut>
						<alphatype>none</alphatype>
						<file id="file-176"/>
						<logginginfo>
							<description></description>
							<scene></scene>
							<shottake></shottake>
							<lognote></lognote>
							<good></good>
							<originalvideofilename></originalvideofilename>
							<originalaudiofilename></originalaudiofilename>
						</logginginfo>
						<colorinfo>
							<lut></lut>
							<lut1></lut1>
							<asc_sop></asc_sop>
							<asc_sat></asc_sat>
							<lut2></lut2>
						</colorinfo>
						<labels>
							<label2>Iris</label2>
						</labels>
					</clipitem>
					<clipitem id="clipitem-367">
						<masterclipid>masterclip-176</masterclipid>
						<name>A012_10300250_C045.mp4</name>
						<enabled>TRUE</enabled>
						<duration>4341</duration>
						<rate>
							<timebase>24</timebase>
							<ntsc>FALSE</ntsc>
						</rate>
						<start>27663</start>
						<end>27709</end>
						<in>3890</in>
						<out>3936</out>
						<pproTicksIn>41171760000000</pproTicksIn>
						<pproTicksOut>41658624000000</pproTicksOut>
						<alphatype>none</alphatype>
						<file id="file-176"/>
						<logginginfo>
							<description></description>
							<scene></scene>
							<shottake></shottake>
							<lognote></lognote>
							<good></good>
							<originalvideofilename></originalvideofilename>
							<originalaudiofilename></originalaudiofilename>
						</logginginfo>
						<colorinfo>
							<lut></lut>
							<lut1></lut1>
							<asc_sop></asc_sop>
							<asc_sat></asc_sat>
							<lut2></lut2>
						</colorinfo>
						<labels>
							<label2>Iris</label2>
						</labels>
					</clipitem>
					<clipitem id="clipitem-368">
						<masterclipid>masterclip-177</masterclipid>
						<name>A012_10300159_C036.mp4</name>
						<enabled>TRUE</enabled>
						<duration>6023</duration>
						<rate>
							<timebase>24</timebase>
							<ntsc>FALSE</ntsc>
						</rate>
						<start>27709</start>
						<end>27769</end>
						<in>5042</in>
						<out>5102</out>
						<pproTicksIn>53364528000000</pproTicksIn>
						<pproTicksOut>53999568000000</pproTicksOut>
						<alphatype>none</alphatype>
						<pixelaspectratio>square</pixelaspectratio>
						<anamorphic>FALSE</anamorphic>
						<file id="file-177">
							<name>A012_10300159_C036.mp4</name>
							<pathurl>file://localhost/F%3a/love%20song/vigraha%20kaadu/A012_10300159_C036.mp4</pathurl>
							<rate>
								<timebase>24</timebase>
								<ntsc>FALSE</ntsc>
							</rate>
							<duration>6023</duration>
							<timecode>
								<rate>
									<timebase>24</timebase>
									<ntsc>FALSE</ntsc>
								</rate>
								<string>01:59:30:01</string>
								<frame>172081</frame>
								<displayformat>NDF</displayformat>
							</timecode>
							<media>
								<video>
									<samplecharacteristics>
										<rate>
											<timebase>24</timebase>
											<ntsc>FALSE</ntsc>
										</rate>
										<width>1920</width>
										<height>1080</height>
										<anamorphic>FALSE</anamorphic>
										<pixelaspectratio>square</pixelaspectratio>
										<fielddominance>none</fielddominance>
									</samplecharacteristics>
								</video>
								<audio>
									<samplecharacteristics>
										<depth>16</depth>
										<samplerate>48000</samplerate>
									</samplecharacteristics>
									<channelcount>2</channelcount>
								</audio>
							</media>
						</file>
						<logginginfo>
							<description></description>
							<scene></scene>
							<shottake></shottake>
							<lognote></lognote>
							<good></good>
							<originalvideofilename></originalvideofilename>
							<originalaudiofilename></originalaudiofilename>
						</logginginfo>
						<colorinfo>
							<lut></lut>
							<lut1></lut1>
							<asc_sop></asc_sop>
							<asc_sat></asc_sat>
							<lut2></lut2>
						</colorinfo>
						<labels>
							<label2>Iris</label2>
						</labels>
					</clipitem>
					<clipitem id="clipitem-369">
						<masterclipid>masterclip-178</masterclipid>
						<name>A012_10300212_C037.mp4</name>
						<enabled>TRUE</enabled>
						<duration>1738</duration>
						<rate>
							<timebase>24</timebase>
							<ntsc>FALSE</ntsc>
						</rate>
						<start>27769</start>
						<end>27781</end>
						<in>813</in>
						<out>825</out>
						<pproTicksIn>8604792000000</pproTicksIn>
						<pproTicksOut>8731800000000</pproTicksOut>
						<alphatype>none</alphatype>
						<pixelaspectratio>square</pixelaspectratio>
						<anamorphic>FALSE</anamorphic>
						<file id="file-178">
							<name>A012_10300212_C037.mp4</name>
							<pathurl>file://localhost/F%3a/love%20song/vigraha%20kaadu/A012_10300212_C037.mp4</pathurl>
							<rate>
								<timebase>24</timebase>
								<ntsc>FALSE</ntsc>
							</rate>
							<duration>1738</duration>
							<timecode>
								<rate>
									<timebase>24</timebase>
									<ntsc>FALSE</ntsc>
								</rate>
								<string>02:12:31:07</string>
								<frame>190831</frame>
								<displayformat>NDF</displayformat>
							</timecode>
							<media>
								<video>
									<samplecharacteristics>
										<rate>
											<timebase>24</timebase>
											<ntsc>FALSE</ntsc>
										</rate>
										<width>1920</width>
										<height>1080</height>
										<anamorphic>FALSE</anamorphic>
										<pixelaspectratio>square</pixelaspectratio>
										<fielddominance>none</fielddominance>
									</samplecharacteristics>
								</video>
								<audio>
									<samplecharacteristics>
										<depth>16</depth>
										<samplerate>48000</samplerate>
									</samplecharacteristics>
									<channelcount>2</channelcount>
								</audio>
							</media>
						</file>
						<logginginfo>
							<description></description>
							<scene></scene>
							<shottake></shottake>
							<lognote></lognote>
							<good></good>
							<originalvideofilename></originalvideofilename>
							<originalaudiofilename></originalaudiofilename>
						</logginginfo>
						<colorinfo>
							<lut></lut>
							<lut1></lut1>
							<asc_sop></asc_sop>
							<asc_sat></asc_sat>
							<lut2></lut2>
						</colorinfo>
						<labels>
							<label2>Iris</label2>
						</labels>
					</clipitem>
					<clipitem id="clipitem-370">
						<masterclipid>masterclip-178</masterclipid>
						<name>A012_10300212_C037.mp4</name>
						<enabled>TRUE</enabled>
						<duration>2482</duration>
						<rate>
							<timebase>24</timebase>
							<ntsc>FALSE</ntsc>
						</rate>
						<start>27781</start>
						<end>27834</end>
						<in>1179</in>
						<out>1231</out>
						<pproTicksIn>8731800000000</pproTicksIn>
						<pproTicksOut>9124466399999</pproTicksOut>
						<alphatype>none</alphatype>
						<file id="file-178"/>
						<filter>
							<effect>
								<name>Time Remap</name>
								<effectid>timeremap</effectid>
								<effectcategory>motion</effectcategory>
								<effecttype>motion</effecttype>
								<mediatype>video</mediatype>
								<parameter authoringApp="PremierePro">
									<parameterid>variablespeed</parameterid>
									<name>variablespeed</name>
									<valuemin>0</valuemin>
									<valuemax>1</valuemax>
									<value>0</value>
								</parameter>
								<parameter authoringApp="PremierePro">
									<parameterid>speed</parameterid>
									<name>speed</name>
									<valuemin>-100000</valuemin>
									<valuemax>100000</valuemax>
									<value>70</value>
								</parameter>
								<parameter authoringApp="PremierePro">
									<parameterid>reverse</parameterid>
									<name>reverse</name>
									<value>FALSE</value>
								</parameter>
								<parameter authoringApp="PremierePro">
									<parameterid>frameblending</parameterid>
									<name>frameblending</name>
									<value>FALSE</value>
								</parameter>
								<parameter authoringApp="PremierePro">
									<parameterid>graphdict</parameterid>
									<name>graphdict</name>
									<valuemin>0</valuemin>
									<valuemax>1737</valuemax>
									<value>0</value>
									<keyframe>
										<when>0</when>
										<value>0</value>
										<speedvirtualkf>TRUE</speedvirtualkf>
										<speedkfstart>TRUE</speedkfstart>
									</keyframe>
									<keyframe>
										<when>1179</when>
										<value>825</value>
										<speedvirtualkf>TRUE</speedvirtualkf>
										<speedkfin>TRUE</speedkfin>
									</keyframe>
									<keyframe>
										<when>1231</when>
										<value>861</value>
										<speedvirtualkf>TRUE</speedvirtualkf>
										<speedkfout>TRUE</speedkfout>
									</keyframe>
									<keyframe>
										<when>2482</when>
										<value>1737</value>
										<speedvirtualkf>TRUE</speedvirtualkf>
										<speedkfend>TRUE</speedkfend>
									</keyframe>
									<interpolation>
										<name>FCPCurve</name>
									</interpolation>
								</parameter>
							</effect>
						</filter>
						<logginginfo>
							<description></description>
							<scene></scene>
							<shottake></shottake>
							<lognote></lognote>
							<good></good>
							<originalvideofilename></originalvideofilename>
							<originalaudiofilename></originalaudiofilename>
						</logginginfo>
						<colorinfo>
							<lut></lut>
							<lut1></lut1>
							<asc_sop></asc_sop>
							<asc_sat></asc_sat>
							<lut2></lut2>
						</colorinfo>
						<labels>
							<label2>Iris</label2>
						</labels>
					</clipitem>
					<clipitem id="clipitem-371">
						<masterclipid>masterclip-136</masterclipid>
						<name>2021_12_14_16_10_51.mov</name>
						<enabled>TRUE</enabled>
						<duration>77</duration>
						<rate>
							<timebase>24</timebase>
							<ntsc>FALSE</ntsc>
						</rate>
						<start>27834</start>
						<end>27850</end>
						<in>60</in>
						<out>75</out>
						<pproTicksIn>3789072000000</pproTicksIn>
						<pproTicksOut>4805136000000</pproTicksOut>
						<alphatype>none</alphatype>
						<file id="file-136"/>
						<filter>
							<effect>
								<name>Time Remap</name>
								<effectid>timeremap</effectid>
								<effectcategory>motion</effectcategory>
								<effecttype>motion</effecttype>
								<mediatype>video</mediatype>
								<parameter authoringApp="PremierePro">
									<parameterid>variablespeed</parameterid>
									<name>variablespeed</name>
									<valuemin>0</valuemin>
									<valuemax>1</valuemax>
									<value>0</value>
								</parameter>
								<parameter authoringApp="PremierePro">
									<parameterid>speed</parameterid>
									<name>speed</name>
									<valuemin>-100000</valuemin>
									<valuemax>100000</valuemax>
									<value>600</value>
								</parameter>
								<parameter authoringApp="PremierePro">
									<parameterid>reverse</parameterid>
									<name>reverse</name>
									<value>FALSE</value>
								</parameter>
								<parameter authoringApp="PremierePro">
									<parameterid>frameblending</parameterid>
									<name>frameblending</name>
									<value>FALSE</value>
								</parameter>
								<parameter authoringApp="PremierePro">
									<parameterid>graphdict</parameterid>
									<name>graphdict</name>
									<valuemin>0</valuemin>
									<valuemax>462</valuemax>
									<value>0</value>
									<keyframe>
										<when>0</when>
										<value>0</value>
										<speedvirtualkf>TRUE</speedvirtualkf>
										<speedkfstart>TRUE</speedkfstart>
									</keyframe>
									<keyframe>
										<when>60</when>
										<value>360</value>
										<speedvirtualkf>TRUE</speedvirtualkf>
										<speedkfin>TRUE</speedkfin>
									</keyframe>
									<keyframe>
										<when>75</when>
										<value>450</value>
										<speedvirtualkf>TRUE</speedvirtualkf>
										<speedkfout>TRUE</speedkfout>
									</keyframe>
									<keyframe>
										<when>77</when>
										<value>462</value>
										<speedvirtualkf>TRUE</speedvirtualkf>
										<speedkfend>TRUE</speedkfend>
									</keyframe>
									<interpolation>
										<name>FCPCurve</name>
									</interpolation>
								</parameter>
							</effect>
						</filter>
						<logginginfo>
							<description></description>
							<scene></scene>
							<shottake></shottake>
							<lognote></lognote>
							<good></good>
							<originalvideofilename></originalvideofilename>
							<originalaudiofilename></originalaudiofilename>
						</logginginfo>
						<colorinfo>
							<lut></lut>
							<lut1></lut1>
							<asc_sop></asc_sop>
							<asc_sat></asc_sat>
							<lut2></lut2>
						</colorinfo>
						<labels>
							<label2>Iris</label2>
						</labels>
					</clipitem>
					<clipitem id="clipitem-372">
						<masterclipid>masterclip-179</masterclipid>
						<name>2021_12_14_13_51_02.mov</name>
						<enabled>TRUE</enabled>
						<duration>124</duration>
						<rate>
							<timebase>24</timebase>
							<ntsc>FALSE</ntsc>
						</rate>
						<start>27850</start>
						<end>27865</end>
						<in>107</in>
						<out>122</out>
						<pproTicksIn>6794928000000</pproTicksIn>
						<pproTicksOut>7747488000000</pproTicksOut>
						<alphatype>none</alphatype>
						<pixelaspectratio>square</pixelaspectratio>
						<anamorphic>FALSE</anamorphic>
						<file id="file-179">
							<name>2021_12_14_13_51_02.mov</name>
							<pathurl>file://localhost/F%3a/love%20song/harbour%20bridge(drone)/2021_12_14_13_51_02.mov</pathurl>
							<rate>
								<timebase>24</timebase>
								<ntsc>FALSE</ntsc>
							</rate>
							<duration>747</duration>
							<timecode>
								<rate>
									<timebase>24</timebase>
									<ntsc>FALSE</ntsc>
								</rate>
								<string>00:00:00:00</string>
								<frame>0</frame>
								<displayformat>NDF</displayformat>
							</timecode>
							<media>
								<video>
									<samplecharacteristics>
										<rate>
											<timebase>24</timebase>
											<ntsc>FALSE</ntsc>
										</rate>
										<width>1920</width>
										<height>1080</height>
										<anamorphic>FALSE</anamorphic>
										<pixelaspectratio>square</pixelaspectratio>
										<fielddominance>none</fielddominance>
									</samplecharacteristics>
								</video>
								<audio>
									<samplecharacteristics>
										<depth>16</depth>
										<samplerate>48000</samplerate>
									</samplecharacteristics>
									<channelcount>2</channelcount>
								</audio>
							</media>
						</file>
						<filter>
							<effect>
								<name>Time Remap</name>
								<effectid>timeremap</effectid>
								<effectcategory>motion</effectcategory>
								<effecttype>motion</effecttype>
								<mediatype>video</mediatype>
								<parameter authoringApp="PremierePro">
									<parameterid>variablespeed</parameterid>
									<name>variablespeed</name>
									<valuemin>0</valuemin>
									<valuemax>1</valuemax>
									<value>0</value>
								</parameter>
								<parameter authoringApp="PremierePro">
									<parameterid>speed</parameterid>
									<name>speed</name>
									<valuemin>-100000</valuemin>
									<valuemax>100000</valuemax>
									<value>600</value>
								</parameter>
								<parameter authoringApp="PremierePro">
									<parameterid>reverse</parameterid>
									<name>reverse</name>
									<value>FALSE</value>
								</parameter>
								<parameter authoringApp="PremierePro">
									<parameterid>frameblending</parameterid>
									<name>frameblending</name>
									<value>FALSE</value>
								</parameter>
								<parameter authoringApp="PremierePro">
									<parameterid>graphdict</parameterid>
									<name>graphdict</name>
									<valuemin>0</valuemin>
									<valuemax>744</valuemax>
									<value>0</value>
									<keyframe>
										<when>0</when>
										<value>0</value>
										<speedvirtualkf>TRUE</speedvirtualkf>
										<speedkfstart>TRUE</speedkfstart>
									</keyframe>
									<keyframe>
										<when>107</when>
										<value>642</value>
										<speedvirtualkf>TRUE</speedvirtualkf>
										<speedkfin>TRUE</speedkfin>
									</keyframe>
									<keyframe>
										<when>122</when>
										<value>732</value>
										<speedvirtualkf>TRUE</speedvirtualkf>
										<speedkfout>TRUE</speedkfout>
									</keyframe>
									<keyframe>
										<when>124</when>
										<value>744</value>
										<speedvirtualkf>TRUE</speedvirtualkf>
										<speedkfend>TRUE</speedkfend>
									</keyframe>
									<interpolation>
										<name>FCPCurve</name>
									</interpolation>
								</parameter>
							</effect>
						</filter>
						<logginginfo>
							<description></description>
							<scene></scene>
							<shottake></shottake>
							<lognote></lognote>
							<good></good>
							<originalvideofilename></originalvideofilename>
							<originalaudiofilename></originalaudiofilename>
						</logginginfo>
						<colorinfo>
							<lut></lut>
							<lut1></lut1>
							<asc_sop></asc_sop>
							<asc_sat></asc_sat>
							<lut2></lut2>
						</colorinfo>
						<labels>
							<label2>Iris</label2>
						</labels>
					</clipitem>
					<clipitem id="clipitem-373">
						<masterclipid>masterclip-180</masterclipid>
						<name>A021_11020117_C008.mp4</name>
						<enabled>TRUE</enabled>
						<duration>2277</duration>
						<rate>
							<timebase>24</timebase>
							<ntsc>FALSE</ntsc>
						</rate>
						<start>27865</start>
						<end>27869</end>
						<in>1523</in>
						<out>1527</out>
						<pproTicksIn>64477728000000</pproTicksIn>
						<pproTicksOut>64647072000000</pproTicksOut>
						<alphatype>none</alphatype>
						<pixelaspectratio>square</pixelaspectratio>
						<anamorphic>FALSE</anamorphic>
						<file id="file-180">
							<name>A021_11020117_C008.mp4</name>
							<pathurl>file://localhost/F%3a/love%20song/boating/A021_11020117_C008.mp4</pathurl>
							<rate>
								<timebase>24</timebase>
								<ntsc>FALSE</ntsc>
							</rate>
							<duration>9108</duration>
							<timecode>
								<rate>
									<timebase>24</timebase>
									<ntsc>FALSE</ntsc>
								</rate>
								<string>01:17:46:20</string>
								<frame>112004</frame>
								<displayformat>NDF</displayformat>
							</timecode>
							<media>
								<video>
									<samplecharacteristics>
										<rate>
											<timebase>24</timebase>
											<ntsc>FALSE</ntsc>
										</rate>
										<width>1920</width>
										<height>1080</height>
										<anamorphic>FALSE</anamorphic>
										<pixelaspectratio>square</pixelaspectratio>
										<fielddominance>none</fielddominance>
									</samplecharacteristics>
								</video>
								<audio>
									<samplecharacteristics>
										<depth>16</depth>
										<samplerate>48000</samplerate>
									</samplecharacteristics>
									<channelcount>2</channelcount>
								</audio>
							</media>
						</file>
						<filter>
							<effect>
								<name>Time Remap</name>
								<effectid>timeremap</effectid>
								<effectcategory>motion</effectcategory>
								<effecttype>motion</effecttype>
								<mediatype>video</mediatype>
								<parameter authoringApp="PremierePro">
									<parameterid>variablespeed</parameterid>
									<name>variablespeed</name>
									<valuemin>0</valuemin>
									<valuemax>1</valuemax>
									<value>0</value>
								</parameter>
								<parameter authoringApp="PremierePro">
									<parameterid>speed</parameterid>
									<name>speed</name>
									<valuemin>-100000</valuemin>
									<valuemax>100000</valuemax>
									<value>400</value>
								</parameter>
								<parameter authoringApp="PremierePro">
									<parameterid>reverse</parameterid>
									<name>reverse</name>
									<value>FALSE</value>
								</parameter>
								<parameter authoringApp="PremierePro">
									<parameterid>frameblending</parameterid>
									<name>frameblending</name>
									<value>FALSE</value>
								</parameter>
								<parameter authoringApp="PremierePro">
									<parameterid>graphdict</parameterid>
									<name>graphdict</name>
									<valuemin>0</valuemin>
									<valuemax>9108</valuemax>
									<value>0</value>
									<keyframe>
										<when>0</when>
										<value>0</value>
										<speedvirtualkf>TRUE</speedvirtualkf>
										<speedkfstart>TRUE</speedkfstart>
									</keyframe>
									<keyframe>
										<when>1523</when>
										<value>6092</value>
										<speedvirtualkf>TRUE</speedvirtualkf>
										<speedkfin>TRUE</speedkfin>
									</keyframe>
									<keyframe>
										<when>1527</when>
										<value>6108</value>
										<speedvirtualkf>TRUE</speedvirtualkf>
										<speedkfout>TRUE</speedkfout>
									</keyframe>
									<keyframe>
										<when>2277</when>
										<value>9108</value>
										<speedvirtualkf>TRUE</speedvirtualkf>
										<speedkfend>TRUE</speedkfend>
									</keyframe>
									<interpolation>
										<name>FCPCurve</name>
									</interpolation>
								</parameter>
							</effect>
						</filter>
						<logginginfo>
							<description></description>
							<scene></scene>
							<shottake></shottake>
							<lognote></lognote>
							<good></good>
							<originalvideofilename></originalvideofilename>
							<originalaudiofilename></originalaudiofilename>
						</logginginfo>
						<colorinfo>
							<lut></lut>
							<lut1></lut1>
							<asc_sop></asc_sop>
							<asc_sat></asc_sat>
							<lut2></lut2>
						</colorinfo>
						<labels>
							<label2>Iris</label2>
						</labels>
					</clipitem>
					<clipitem id="clipitem-374">
						<masterclipid>masterclip-180</masterclipid>
						<name>A021_11020117_C008.mp4</name>
						<enabled>TRUE</enabled>
						<duration>2277</duration>
						<rate>
							<timebase>24</timebase>
							<ntsc>FALSE</ntsc>
						</rate>
						<start>27869</start>
						<end>27873</end>
						<in>1540</in>
						<out>1543</out>
						<pproTicksIn>65186856000000</pproTicksIn>
						<pproTicksOut>65356200000000</pproTicksOut>
						<alphatype>none</alphatype>
						<file id="file-180"/>
						<filter>
							<effect>
								<name>Time Remap</name>
								<effectid>timeremap</effectid>
								<effectcategory>motion</effectcategory>
								<effecttype>motion</effecttype>
								<mediatype>video</mediatype>
								<parameter authoringApp="PremierePro">
									<parameterid>variablespeed</parameterid>
									<name>variablespeed</name>
									<valuemin>0</valuemin>
									<valuemax>1</valuemax>
									<value>0</value>
								</parameter>
								<parameter authoringApp="PremierePro">
									<parameterid>speed</parameterid>
									<name>speed</name>
									<valuemin>-100000</valuemin>
									<valuemax>100000</valuemax>
									<value>400</value>
								</parameter>
								<parameter authoringApp="PremierePro">
									<parameterid>reverse</parameterid>
									<name>reverse</name>
									<value>FALSE</value>
								</parameter>
								<parameter authoringApp="PremierePro">
									<parameterid>frameblending</parameterid>
									<name>frameblending</name>
									<value>FALSE</value>
								</parameter>
								<parameter authoringApp="PremierePro">
									<parameterid>graphdict</parameterid>
									<name>graphdict</name>
									<valuemin>0</valuemin>
									<valuemax>9108</valuemax>
									<value>0</value>
									<keyframe>
										<when>0</when>
										<value>0</value>
										<speedvirtualkf>TRUE</speedvirtualkf>
										<speedkfstart>TRUE</speedkfstart>
									</keyframe>
									<keyframe>
										<when>1540</when>
										<value>6160</value>
										<speedvirtualkf>TRUE</speedvirtualkf>
										<speedkfin>TRUE</speedkfin>
									</keyframe>
									<keyframe>
										<when>1543</when>
										<value>6172</value>
										<speedvirtualkf>TRUE</speedvirtualkf>
										<speedkfout>TRUE</speedkfout>
									</keyframe>
									<keyframe>
										<when>2277</when>
										<value>9108</value>
										<speedvirtualkf>TRUE</speedvirtualkf>
										<speedkfend>TRUE</speedkfend>
									</keyframe>
									<interpolation>
										<name>FCPCurve</name>
									</interpolation>
								</parameter>
							</effect>
						</filter>
						<logginginfo>
							<description></description>
							<scene></scene>
							<shottake></shottake>
							<lognote></lognote>
							<good></good>
							<originalvideofilename></originalvideofilename>
							<originalaudiofilename></originalaudiofilename>
						</logginginfo>
						<colorinfo>
							<lut></lut>
							<lut1></lut1>
							<asc_sop></asc_sop>
							<asc_sat></asc_sat>
							<lut2></lut2>
						</colorinfo>
						<labels>
							<label2>Iris</label2>
						</labels>
					</clipitem>
					<clipitem id="clipitem-375">
						<masterclipid>masterclip-180</masterclipid>
						<name>A021_11020117_C008.mp4</name>
						<enabled>TRUE</enabled>
						<duration>2277</duration>
						<rate>
							<timebase>24</timebase>
							<ntsc>FALSE</ntsc>
						</rate>
						<start>27873</start>
						<end>27877</end>
						<in>1708</in>
						<out>1712</out>
						<pproTicksIn>72309888000000</pproTicksIn>
						<pproTicksOut>72479232000000</pproTicksOut>
						<alphatype>none</alphatype>
						<file id="file-180"/>
						<filter>
							<effect>
								<name>Time Remap</name>
								<effectid>timeremap</effectid>
								<effectcategory>motion</effectcategory>
								<effecttype>motion</effecttype>
								<mediatype>video</mediatype>
								<parameter authoringApp="PremierePro">
									<parameterid>variablespeed</parameterid>
									<name>variablespeed</name>
									<valuemin>0</valuemin>
									<valuemax>1</valuemax>
									<value>0</value>
								</parameter>
								<parameter authoringApp="PremierePro">
									<parameterid>speed</parameterid>
									<name>speed</name>
									<valuemin>-100000</valuemin>
									<valuemax>100000</valuemax>
									<value>400</value>
								</parameter>
								<parameter authoringApp="PremierePro">
									<parameterid>reverse</parameterid>
									<name>reverse</name>
									<value>FALSE</value>
								</parameter>
								<parameter authoringApp="PremierePro">
									<parameterid>frameblending</parameterid>
									<name>frameblending</name>
									<value>FALSE</value>
								</parameter>
								<parameter authoringApp="PremierePro">
									<parameterid>graphdict</parameterid>
									<name>graphdict</name>
									<valuemin>0</valuemin>
									<valuemax>9108</valuemax>
									<value>0</value>
									<keyframe>
										<when>0</when>
										<value>0</value>
										<speedvirtualkf>TRUE</speedvirtualkf>
										<speedkfstart>TRUE</speedkfstart>
									</keyframe>
									<keyframe>
										<when>1708</when>
										<value>6832</value>
										<speedvirtualkf>TRUE</speedvirtualkf>
										<speedkfin>TRUE</speedkfin>
									</keyframe>
									<keyframe>
										<when>1712</when>
										<value>6848</value>
										<speedvirtualkf>TRUE</speedvirtualkf>
										<speedkfout>TRUE</speedkfout>
									</keyframe>
									<keyframe>
										<when>2277</when>
										<value>9108</value>
										<speedvirtualkf>TRUE</speedvirtualkf>
										<speedkfend>TRUE</speedkfend>
									</keyframe>
									<interpolation>
										<name>FCPCurve</name>
									</interpolation>
								</parameter>
							</effect>
						</filter>
						<logginginfo>
							<description></description>
							<scene></scene>
							<shottake></shottake>
							<lognote></lognote>
							<good></good>
							<originalvideofilename></originalvideofilename>
							<originalaudiofilename></originalaudiofilename>
						</logginginfo>
						<colorinfo>
							<lut></lut>
							<lut1></lut1>
							<asc_sop></asc_sop>
							<asc_sat></asc_sat>
							<lut2></lut2>
						</colorinfo>
						<labels>
							<label2>Iris</label2>
						</labels>
					</clipitem>
					<clipitem id="clipitem-376">
						<masterclipid>masterclip-180</masterclipid>
						<name>A021_11020117_C008.mp4</name>
						<enabled>TRUE</enabled>
						<duration>2277</duration>
						<rate>
							<timebase>24</timebase>
							<ntsc>FALSE</ntsc>
						</rate>
						<start>27877</start>
						<end>27883</end>
						<in>1729</in>
						<out>1735</out>
						<pproTicksIn>73198944000000</pproTicksIn>
						<pproTicksOut>73452960000000</pproTicksOut>
						<alphatype>none</alphatype>
						<file id="file-180"/>
						<filter>
							<effect>
								<name>Time Remap</name>
								<effectid>timeremap</effectid>
								<effectcategory>motion</effectcategory>
								<effecttype>motion</effecttype>
								<mediatype>video</mediatype>
								<parameter authoringApp="PremierePro">
									<parameterid>variablespeed</parameterid>
									<name>variablespeed</name>
									<valuemin>0</valuemin>
									<valuemax>1</valuemax>
									<value>0</value>
								</parameter>
								<parameter authoringApp="PremierePro">
									<parameterid>speed</parameterid>
									<name>speed</name>
									<valuemin>-100000</valuemin>
									<valuemax>100000</valuemax>
									<value>400</value>
								</parameter>
								<parameter authoringApp="PremierePro">
									<parameterid>reverse</parameterid>
									<name>reverse</name>
									<value>FALSE</value>
								</parameter>
								<parameter authoringApp="PremierePro">
									<parameterid>frameblending</parameterid>
									<name>frameblending</name>
									<value>FALSE</value>
								</parameter>
								<parameter authoringApp="PremierePro">
									<parameterid>graphdict</parameterid>
									<name>graphdict</name>
									<valuemin>0</valuemin>
									<valuemax>9108</valuemax>
									<value>0</value>
									<keyframe>
										<when>0</when>
										<value>0</value>
										<speedvirtualkf>TRUE</speedvirtualkf>
										<speedkfstart>TRUE</speedkfstart>
									</keyframe>
									<keyframe>
										<when>1729</when>
										<value>6916</value>
										<speedvirtualkf>TRUE</speedvirtualkf>
										<speedkfin>TRUE</speedkfin>
									</keyframe>
									<keyframe>
										<when>1735</when>
										<value>6940</value>
										<speedvirtualkf>TRUE</speedvirtualkf>
										<speedkfout>TRUE</speedkfout>
									</keyframe>
									<keyframe>
										<when>2277</when>
										<value>9108</value>
										<speedvirtualkf>TRUE</speedvirtualkf>
										<speedkfend>TRUE</speedkfend>
									</keyframe>
									<interpolation>
										<name>FCPCurve</name>
									</interpolation>
								</parameter>
							</effect>
						</filter>
						<logginginfo>
							<description></description>
							<scene></scene>
							<shottake></shottake>
							<lognote></lognote>
							<good></good>
							<originalvideofilename></originalvideofilename>
							<originalaudiofilename></originalaudiofilename>
						</logginginfo>
						<colorinfo>
							<lut></lut>
							<lut1></lut1>
							<asc_sop></asc_sop>
							<asc_sat></asc_sat>
							<lut2></lut2>
						</colorinfo>
						<labels>
							<label2>Iris</label2>
						</labels>
					</clipitem>
					<clipitem id="clipitem-377">
						<masterclipid>masterclip-180</masterclipid>
						<name>A021_11020117_C008.mp4</name>
						<enabled>TRUE</enabled>
						<duration>2277</duration>
						<rate>
							<timebase>24</timebase>
							<ntsc>FALSE</ntsc>
						</rate>
						<start>27883</start>
						<end>27887</end>
						<in>1813</in>
						<out>1817</out>
						<pproTicksIn>76755168000000</pproTicksIn>
						<pproTicksOut>76924512000000</pproTicksOut>
						<alphatype>none</alphatype>
						<file id="file-180"/>
						<filter>
							<effect>
								<name>Time Remap</name>
								<effectid>timeremap</effectid>
								<effectcategory>motion</effectcategory>
								<effecttype>motion</effecttype>
								<mediatype>video</mediatype>
								<parameter authoringApp="PremierePro">
									<parameterid>variablespeed</parameterid>
									<name>variablespeed</name>
									<valuemin>0</valuemin>
									<valuemax>1</valuemax>
									<value>0</value>
								</parameter>
								<parameter authoringApp="PremierePro">
									<parameterid>speed</parameterid>
									<name>speed</name>
									<valuemin>-100000</valuemin>
									<valuemax>100000</valuemax>
									<value>400</value>
								</parameter>
								<parameter authoringApp="PremierePro">
									<parameterid>reverse</parameterid>
									<name>reverse</name>
									<value>FALSE</value>
								</parameter>
								<parameter authoringApp="PremierePro">
									<parameterid>frameblending</parameterid>
									<name>frameblending</name>
									<value>FALSE</value>
								</parameter>
								<parameter authoringApp="PremierePro">
									<parameterid>graphdict</parameterid>
									<name>graphdict</name>
									<valuemin>0</valuemin>
									<valuemax>9108</valuemax>
									<value>0</value>
									<keyframe>
										<when>0</when>
										<value>0</value>
										<speedvirtualkf>TRUE</speedvirtualkf>
										<speedkfstart>TRUE</speedkfstart>
									</keyframe>
									<keyframe>
										<when>1813</when>
										<value>7252</value>
										<speedvirtualkf>TRUE</speedvirtualkf>
										<speedkfin>TRUE</speedkfin>
									</keyframe>
									<keyframe>
										<when>1817</when>
										<value>7268</value>
										<speedvirtualkf>TRUE</speedvirtualkf>
										<speedkfout>TRUE</speedkfout>
									</keyframe>
									<keyframe>
										<when>2277</when>
										<value>9108</value>
										<speedvirtualkf>TRUE</speedvirtualkf>
										<speedkfend>TRUE</speedkfend>
									</keyframe>
									<interpolation>
										<name>FCPCurve</name>
									</interpolation>
								</parameter>
							</effect>
						</filter>
						<logginginfo>
							<description></description>
							<scene></scene>
							<shottake></shottake>
							<lognote></lognote>
							<good></good>
							<originalvideofilename></originalvideofilename>
							<originalaudiofilename></originalaudiofilename>
						</logginginfo>
						<colorinfo>
							<lut></lut>
							<lut1></lut1>
							<asc_sop></asc_sop>
							<asc_sat></asc_sat>
							<lut2></lut2>
						</colorinfo>
						<labels>
							<label2>Iris</label2>
						</labels>
					</clipitem>
					<clipitem id="clipitem-378">
						<masterclipid>masterclip-181</masterclipid>
						<name>A021_11020458_C054.mp4</name>
						<enabled>TRUE</enabled>
						<duration>587</duration>
						<rate>
							<timebase>24</timebase>
							<ntsc>FALSE</ntsc>
						</rate>
						<start>27887</start>
						<end>27893</end>
						<in>68</in>
						<out>73</out>
						<pproTicksIn>1074276000000</pproTicksIn>
						<pproTicksOut>1169532000000</pproTicksOut>
						<alphatype>none</alphatype>
						<pixelaspectratio>square</pixelaspectratio>
						<anamorphic>FALSE</anamorphic>
						<file id="file-181">
							<name>A021_11020458_C054.mp4</name>
							<pathurl>file://localhost/F%3a/love%20song/bridge/A021_11020458_C054.mp4</pathurl>
							<rate>
								<timebase>24</timebase>
								<ntsc>FALSE</ntsc>
							</rate>
							<duration>881</duration>
							<timecode>
								<rate>
									<timebase>24</timebase>
									<ntsc>FALSE</ntsc>
								</rate>
								<string>04:58:44:22</string>
								<frame>430198</frame>
								<displayformat>NDF</displayformat>
							</timecode>
							<media>
								<video>
									<samplecharacteristics>
										<rate>
											<timebase>24</timebase>
											<ntsc>FALSE</ntsc>
										</rate>
										<width>1920</width>
										<height>1080</height>
										<anamorphic>FALSE</anamorphic>
										<pixelaspectratio>square</pixelaspectratio>
										<fielddominance>none</fielddominance>
									</samplecharacteristics>
								</video>
								<audio>
									<samplecharacteristics>
										<depth>16</depth>
										<samplerate>48000</samplerate>
									</samplecharacteristics>
									<channelcount>2</channelcount>
								</audio>
							</media>
						</file>
						<filter>
							<effect>
								<name>Time Remap</name>
								<effectid>timeremap</effectid>
								<effectcategory>motion</effectcategory>
								<effecttype>motion</effecttype>
								<mediatype>video</mediatype>
								<parameter authoringApp="PremierePro">
									<parameterid>variablespeed</parameterid>
									<name>variablespeed</name>
									<valuemin>0</valuemin>
									<valuemax>1</valuemax>
									<value>0</value>
								</parameter>
								<parameter authoringApp="PremierePro">
									<parameterid>speed</parameterid>
									<name>speed</name>
									<valuemin>-100000</valuemin>
									<valuemax>100000</valuemax>
									<value>150</value>
								</parameter>
								<parameter authoringApp="PremierePro">
									<parameterid>reverse</parameterid>
									<name>reverse</name>
									<value>FALSE</value>
								</parameter>
								<parameter authoringApp="PremierePro">
									<parameterid>frameblending</parameterid>
									<name>frameblending</name>
									<value>FALSE</value>
								</parameter>
								<parameter authoringApp="PremierePro">
									<parameterid>graphdict</parameterid>
									<name>graphdict</name>
									<valuemin>0</valuemin>
									<valuemax>880</valuemax>
									<value>0</value>
									<keyframe>
										<when>0</when>
										<value>0</value>
										<speedvirtualkf>TRUE</speedvirtualkf>
										<speedkfstart>TRUE</speedkfstart>
									</keyframe>
									<keyframe>
										<when>68</when>
										<value>102</value>
										<speedvirtualkf>TRUE</speedvirtualkf>
										<speedkfin>TRUE</speedkfin>
									</keyframe>
									<keyframe>
										<when>73</when>
										<value>109</value>
										<speedvirtualkf>TRUE</speedvirtualkf>
										<speedkfout>TRUE</speedkfout>
									</keyframe>
									<keyframe>
										<when>587</when>
										<value>880</value>
										<speedvirtualkf>TRUE</speedvirtualkf>
										<speedkfend>TRUE</speedkfend>
									</keyframe>
									<interpolation>
										<name>FCPCurve</name>
									</interpolation>
								</parameter>
							</effect>
						</filter>
						<logginginfo>
							<description></description>
							<scene></scene>
							<shottake></shottake>
							<lognote></lognote>
							<good></good>
							<originalvideofilename></originalvideofilename>
							<originalaudiofilename></originalaudiofilename>
						</logginginfo>
						<colorinfo>
							<lut></lut>
							<lut1></lut1>
							<asc_sop></asc_sop>
							<asc_sat></asc_sat>
							<lut2></lut2>
						</colorinfo>
						<labels>
							<label2>Iris</label2>
						</labels>
					</clipitem>
					<clipitem id="clipitem-379">
						<masterclipid>masterclip-181</masterclipid>
						<name>A021_11020458_C054.mp4</name>
						<enabled>TRUE</enabled>
						<duration>881</duration>
						<rate>
							<timebase>24</timebase>
							<ntsc>FALSE</ntsc>
						</rate>
						<start>27893</start>
						<end>27901</end>
						<in>111</in>
						<out>119</out>
						<pproTicksIn>1174824000000</pproTicksIn>
						<pproTicksOut>1259496000000</pproTicksOut>
						<alphatype>none</alphatype>
						<file id="file-181"/>
						<logginginfo>
							<description></description>
							<scene></scene>
							<shottake></shottake>
							<lognote></lognote>
							<good></good>
							<originalvideofilename></originalvideofilename>
							<originalaudiofilename></originalaudiofilename>
						</logginginfo>
						<colorinfo>
							<lut></lut>
							<lut1></lut1>
							<asc_sop></asc_sop>
							<asc_sat></asc_sat>
							<lut2></lut2>
						</colorinfo>
						<labels>
							<label2>Iris</label2>
						</labels>
					</clipitem>
					<clipitem id="clipitem-380">
						<masterclipid>masterclip-182</masterclipid>
						<name>A021_11020454_C051.mp4</name>
						<enabled>TRUE</enabled>
						<duration>2155</duration>
						<rate>
							<timebase>24</timebase>
							<ntsc>FALSE</ntsc>
						</rate>
						<start>27901</start>
						<end>27913</end>
						<in>1772</in>
						<out>1783</out>
						<pproTicksIn>11250792000000</pproTicksIn>
						<pproTicksOut>11326996800000</pproTicksOut>
						<alphatype>none</alphatype>
						<pixelaspectratio>square</pixelaspectratio>
						<anamorphic>FALSE</anamorphic>
						<file id="file-182">
							<name>A021_11020454_C051.mp4</name>
							<pathurl>file://localhost/F%3a/love%20song/bridge/A021_11020454_C051.mp4</pathurl>
							<rate>
								<timebase>24</timebase>
								<ntsc>FALSE</ntsc>
							</rate>
							<duration>1293</duration>
							<timecode>
								<rate>
									<timebase>24</timebase>
									<ntsc>FALSE</ntsc>
								</rate>
								<string>04:54:02:16</string>
								<frame>423424</frame>
								<displayformat>NDF</displayformat>
							</timecode>
							<media>
								<video>
									<samplecharacteristics>
										<rate>
											<timebase>24</timebase>
											<ntsc>FALSE</ntsc>
										</rate>
										<width>1920</width>
										<height>1080</height>
										<anamorphic>FALSE</anamorphic>
										<pixelaspectratio>square</pixelaspectratio>
										<fielddominance>none</fielddominance>
									</samplecharacteristics>
								</video>
								<audio>
									<samplecharacteristics>
										<depth>16</depth>
										<samplerate>48000</samplerate>
									</samplecharacteristics>
									<channelcount>2</channelcount>
								</audio>
							</media>
						</file>
						<filter>
							<effect>
								<name>Time Remap</name>
								<effectid>timeremap</effectid>
								<effectcategory>motion</effectcategory>
								<effecttype>motion</effecttype>
								<mediatype>video</mediatype>
								<parameter authoringApp="PremierePro">
									<parameterid>variablespeed</parameterid>
									<name>variablespeed</name>
									<valuemin>0</valuemin>
									<valuemax>1</valuemax>
									<value>0</value>
								</parameter>
								<parameter authoringApp="PremierePro">
									<parameterid>speed</parameterid>
									<name>speed</name>
									<valuemin>-100000</valuemin>
									<valuemax>100000</valuemax>
									<value>60</value>
								</parameter>
								<parameter authoringApp="PremierePro">
									<parameterid>reverse</parameterid>
									<name>reverse</name>
									<value>FALSE</value>
								</parameter>
								<parameter authoringApp="PremierePro">
									<parameterid>frameblending</parameterid>
									<name>frameblending</name>
									<value>FALSE</value>
								</parameter>
								<parameter authoringApp="PremierePro">
									<parameterid>graphdict</parameterid>
									<name>graphdict</name>
									<valuemin>0</valuemin>
									<valuemax>1293</valuemax>
									<value>0</value>
									<keyframe>
										<when>0</when>
										<value>0</value>
										<speedvirtualkf>TRUE</speedvirtualkf>
										<speedkfstart>TRUE</speedkfstart>
									</keyframe>
									<keyframe>
										<when>1772</when>
										<value>1063</value>
										<speedvirtualkf>TRUE</speedvirtualkf>
										<speedkfin>TRUE</speedkfin>
									</keyframe>
									<keyframe>
										<when>1783</when>
										<value>1069</value>
										<speedvirtualkf>TRUE</speedvirtualkf>
										<speedkfout>TRUE</speedkfout>
									</keyframe>
									<keyframe>
										<when>2155</when>
										<value>1293</value>
										<speedvirtualkf>TRUE</speedvirtualkf>
										<speedkfend>TRUE</speedkfend>
									</keyframe>
									<interpolation>
										<name>FCPCurve</name>
									</interpolation>
								</parameter>
							</effect>
						</filter>
						<logginginfo>
							<description></description>
							<scene></scene>
							<shottake></shottake>
							<lognote></lognote>
							<good></good>
							<originalvideofilename></originalvideofilename>
							<originalaudiofilename></originalaudiofilename>
						</logginginfo>
						<colorinfo>
							<lut></lut>
							<lut1></lut1>
							<asc_sop></asc_sop>
							<asc_sat></asc_sat>
							<lut2></lut2>
						</colorinfo>
						<labels>
							<label2>Iris</label2>
						</labels>
					</clipitem>
					<clipitem id="clipitem-381">
						<masterclipid>masterclip-183</masterclipid>
						<name>A021_11020113_C005.mp4</name>
						<enabled>TRUE</enabled>
						<duration>1215</duration>
						<rate>
							<timebase>24</timebase>
							<ntsc>FALSE</ntsc>
						</rate>
						<start>27913</start>
						<end>27917</end>
						<in>395</in>
						<out>399</out>
						<pproTicksIn>16722720000000</pproTicksIn>
						<pproTicksOut>16892064000000</pproTicksOut>
						<alphatype>none</alphatype>
						<pixelaspectratio>square</pixelaspectratio>
						<anamorphic>FALSE</anamorphic>
						<file id="file-183">
							<name>A021_11020113_C005.mp4</name>
							<pathurl>file://localhost/F%3a/love%20song/boating/A021_11020113_C005.mp4</pathurl>
							<rate>
								<timebase>24</timebase>
								<ntsc>FALSE</ntsc>
							</rate>
							<duration>4860</duration>
							<timecode>
								<rate>
									<timebase>24</timebase>
									<ntsc>FALSE</ntsc>
								</rate>
								<string>01:13:11:00</string>
								<frame>105384</frame>
								<displayformat>NDF</displayformat>
							</timecode>
							<media>
								<video>
									<samplecharacteristics>
										<rate>
											<timebase>24</timebase>
											<ntsc>FALSE</ntsc>
										</rate>
										<width>1920</width>
										<height>1080</height>
										<anamorphic>FALSE</anamorphic>
										<pixelaspectratio>square</pixelaspectratio>
										<fielddominance>none</fielddominance>
									</samplecharacteristics>
								</video>
								<audio>
									<samplecharacteristics>
										<depth>16</depth>
										<samplerate>48000</samplerate>
									</samplecharacteristics>
									<channelcount>2</channelcount>
								</audio>
							</media>
						</file>
						<filter>
							<effect>
								<name>Time Remap</name>
								<effectid>timeremap</effectid>
								<effectcategory>motion</effectcategory>
								<effecttype>motion</effecttype>
								<mediatype>video</mediatype>
								<parameter authoringApp="PremierePro">
									<parameterid>variablespeed</parameterid>
									<name>variablespeed</name>
									<valuemin>0</valuemin>
									<valuemax>1</valuemax>
									<value>0</value>
								</parameter>
								<parameter authoringApp="PremierePro">
									<parameterid>speed</parameterid>
									<name>speed</name>
									<valuemin>-100000</valuemin>
									<valuemax>100000</valuemax>
									<value>400</value>
								</parameter>
								<parameter authoringApp="PremierePro">
									<parameterid>reverse</parameterid>
									<name>reverse</name>
									<value>FALSE</value>
								</parameter>
								<parameter authoringApp="PremierePro">
									<parameterid>frameblending</parameterid>
									<name>frameblending</name>
									<value>FALSE</value>
								</parameter>
								<parameter authoringApp="PremierePro">
									<parameterid>graphdict</parameterid>
									<name>graphdict</name>
									<valuemin>0</valuemin>
									<valuemax>4860</valuemax>
									<value>0</value>
									<keyframe>
										<when>0</when>
										<value>0</value>
										<speedvirtualkf>TRUE</speedvirtualkf>
										<speedkfstart>TRUE</speedkfstart>
									</keyframe>
									<keyframe>
										<when>395</when>
										<value>1580</value>
										<speedvirtualkf>TRUE</speedvirtualkf>
										<speedkfin>TRUE</speedkfin>
									</keyframe>
									<keyframe>
										<when>399</when>
										<value>1596</value>
										<speedvirtualkf>TRUE</speedvirtualkf>
										<speedkfout>TRUE</speedkfout>
									</keyframe>
									<keyframe>
										<when>1215</when>
										<value>4860</value>
										<speedvirtualkf>TRUE</speedvirtualkf>
										<speedkfend>TRUE</speedkfend>
									</keyframe>
									<interpolation>
										<name>FCPCurve</name>
									</interpolation>
								</parameter>
							</effect>
						</filter>
						<logginginfo>
							<description></description>
							<scene></scene>
							<shottake></shottake>
							<lognote></lognote>
							<good></good>
							<originalvideofilename></originalvideofilename>
							<originalaudiofilename></originalaudiofilename>
						</logginginfo>
						<colorinfo>
							<lut></lut>
							<lut1></lut1>
							<asc_sop></asc_sop>
							<asc_sat></asc_sat>
							<lut2></lut2>
						</colorinfo>
						<labels>
							<label2>Iris</label2>
						</labels>
					</clipitem>
					<clipitem id="clipitem-382">
						<masterclipid>masterclip-183</masterclipid>
						<name>A021_11020113_C005.mp4</name>
						<enabled>TRUE</enabled>
						<duration>2430</duration>
						<rate>
							<timebase>24</timebase>
							<ntsc>FALSE</ntsc>
						</rate>
						<start>27917</start>
						<end>27921</end>
						<in>802</in>
						<out>806</out>
						<pproTicksIn>16976736000000</pproTicksIn>
						<pproTicksOut>17061408000000</pproTicksOut>
						<alphatype>none</alphatype>
						<file id="file-183"/>
						<filter>
							<effect>
								<name>Basic Motion</name>
								<effectid>basic</effectid>
								<effectcategory>motion</effectcategory>
								<effecttype>motion</effecttype>
								<mediatype>video</mediatype>
								<pproBypass>false</pproBypass>
								<parameter authoringApp="PremierePro">
									<parameterid>scale</parameterid>
									<name>Scale</name>
									<valuemin>0</valuemin>
									<valuemax>1000</valuemax>
									<value>125</value>
								</parameter>
								<parameter authoringApp="PremierePro">
									<parameterid>rotation</parameterid>
									<name>Rotation</name>
									<valuemin>-8640</valuemin>
									<valuemax>8640</valuemax>
									<value>0</value>
								</parameter>
								<parameter authoringApp="PremierePro">
									<parameterid>center</parameterid>
									<name>Center</name>
									<value>
										<horiz>0</horiz>
										<vert>0</vert>
									</value>
								</parameter>
								<parameter authoringApp="PremierePro">
									<parameterid>centerOffset</parameterid>
									<name>Anchor Point</name>
									<value>
										<horiz>0</horiz>
										<vert>0</vert>
									</value>
								</parameter>
								<parameter authoringApp="PremierePro">
									<parameterid>antiflicker</parameterid>
									<name>Anti-flicker Filter</name>
									<valuemin>0.0</valuemin>
									<valuemax>1.0</valuemax>
									<value>0</value>
								</parameter>
							</effect>
						</filter>
						<filter>
							<effect>
								<name>Time Remap</name>
								<effectid>timeremap</effectid>
								<effectcategory>motion</effectcategory>
								<effecttype>motion</effecttype>
								<mediatype>video</mediatype>
								<parameter authoringApp="PremierePro">
									<parameterid>variablespeed</parameterid>
									<name>variablespeed</name>
									<valuemin>0</valuemin>
									<valuemax>1</valuemax>
									<value>0</value>
								</parameter>
								<parameter authoringApp="PremierePro">
									<parameterid>speed</parameterid>
									<name>speed</name>
									<valuemin>-100000</valuemin>
									<valuemax>100000</valuemax>
									<value>200</value>
								</parameter>
								<parameter authoringApp="PremierePro">
									<parameterid>reverse</parameterid>
									<name>reverse</name>
									<value>FALSE</value>
								</parameter>
								<parameter authoringApp="PremierePro">
									<parameterid>frameblending</parameterid>
									<name>frameblending</name>
									<value>FALSE</value>
								</parameter>
								<parameter authoringApp="PremierePro">
									<parameterid>graphdict</parameterid>
									<name>graphdict</name>
									<valuemin>0</valuemin>
									<valuemax>4860</valuemax>
									<value>0</value>
									<keyframe>
										<when>0</when>
										<value>0</value>
										<speedvirtualkf>TRUE</speedvirtualkf>
										<speedkfstart>TRUE</speedkfstart>
									</keyframe>
									<keyframe>
										<when>802</when>
										<value>1604</value>
										<speedvirtualkf>TRUE</speedvirtualkf>
										<speedkfin>TRUE</speedkfin>
									</keyframe>
									<keyframe>
										<when>806</when>
										<value>1612</value>
										<speedvirtualkf>TRUE</speedvirtualkf>
										<speedkfout>TRUE</speedkfout>
									</keyframe>
									<keyframe>
										<when>2430</when>
										<value>4860</value>
										<speedvirtualkf>TRUE</speedvirtualkf>
										<speedkfend>TRUE</speedkfend>
									</keyframe>
									<interpolation>
										<name>FCPCurve</name>
									</interpolation>
								</parameter>
							</effect>
						</filter>
						<logginginfo>
							<description></description>
							<scene></scene>
							<shottake></shottake>
							<lognote></lognote>
							<good></good>
							<originalvideofilename></originalvideofilename>
							<originalaudiofilename></originalaudiofilename>
						</logginginfo>
						<colorinfo>
							<lut></lut>
							<lut1></lut1>
							<asc_sop></asc_sop>
							<asc_sat></asc_sat>
							<lut2></lut2>
						</colorinfo>
						<labels>
							<label2>Iris</label2>
						</labels>
					</clipitem>
					<clipitem id="clipitem-383">
						<masterclipid>masterclip-183</masterclipid>
						<name>A021_11020113_C005.mp4</name>
						<enabled>TRUE</enabled>
						<duration>2430</duration>
						<rate>
							<timebase>24</timebase>
							<ntsc>FALSE</ntsc>
						</rate>
						<start>27921</start>
						<end>27925</end>
						<in>868</in>
						<out>872</out>
						<pproTicksIn>18373824000000</pproTicksIn>
						<pproTicksOut>18458496000000</pproTicksOut>
						<alphatype>none</alphatype>
						<file id="file-183"/>
						<filter>
							<effect>
								<name>Time Remap</name>
								<effectid>timeremap</effectid>
								<effectcategory>motion</effectcategory>
								<effecttype>motion</effecttype>
								<mediatype>video</mediatype>
								<parameter authoringApp="PremierePro">
									<parameterid>variablespeed</parameterid>
									<name>variablespeed</name>
									<valuemin>0</valuemin>
									<valuemax>1</valuemax>
									<value>0</value>
								</parameter>
								<parameter authoringApp="PremierePro">
									<parameterid>speed</parameterid>
									<name>speed</name>
									<valuemin>-100000</valuemin>
									<valuemax>100000</valuemax>
									<value>200</value>
								</parameter>
								<parameter authoringApp="PremierePro">
									<parameterid>reverse</parameterid>
									<name>reverse</name>
									<value>FALSE</value>
								</parameter>
								<parameter authoringApp="PremierePro">
									<parameterid>frameblending</parameterid>
									<name>frameblending</name>
									<value>FALSE</value>
								</parameter>
								<parameter authoringApp="PremierePro">
									<parameterid>graphdict</parameterid>
									<name>graphdict</name>
									<valuemin>0</valuemin>
									<valuemax>4860</valuemax>
									<value>0</value>
									<keyframe>
										<when>0</when>
										<value>0</value>
										<speedvirtualkf>TRUE</speedvirtualkf>
										<speedkfstart>TRUE</speedkfstart>
									</keyframe>
									<keyframe>
										<when>868</when>
										<value>1736</value>
										<speedvirtualkf>TRUE</speedvirtualkf>
										<speedkfin>TRUE</speedkfin>
									</keyframe>
									<keyframe>
										<when>872</when>
										<value>1744</value>
										<speedvirtualkf>TRUE</speedvirtualkf>
										<speedkfout>TRUE</speedkfout>
									</keyframe>
									<keyframe>
										<when>2430</when>
										<value>4860</value>
										<speedvirtualkf>TRUE</speedvirtualkf>
										<speedkfend>TRUE</speedkfend>
									</keyframe>
									<interpolation>
										<name>FCPCurve</name>
									</interpolation>
								</parameter>
							</effect>
						</filter>
						<logginginfo>
							<description></description>
							<scene></scene>
							<shottake></shottake>
							<lognote></lognote>
							<good></good>
							<originalvideofilename></originalvideofilename>
							<originalaudiofilename></originalaudiofilename>
						</logginginfo>
						<colorinfo>
							<lut></lut>
							<lut1></lut1>
							<asc_sop></asc_sop>
							<asc_sat></asc_sat>
							<lut2></lut2>
						</colorinfo>
						<labels>
							<label2>Iris</label2>
						</labels>
					</clipitem>
					<clipitem id="clipitem-384">
						<masterclipid>masterclip-183</masterclipid>
						<name>A021_11020113_C005.mp4</name>
						<enabled>TRUE</enabled>
						<duration>2430</duration>
						<rate>
							<timebase>24</timebase>
							<ntsc>FALSE</ntsc>
						</rate>
						<start>27925</start>
						<end>27931</end>
						<in>983</in>
						<out>989</out>
						<pproTicksIn>20808144000000</pproTicksIn>
						<pproTicksOut>20935152000000</pproTicksOut>
						<alphatype>none</alphatype>
						<file id="file-183"/>
						<filter>
							<effect>
								<name>Time Remap</name>
								<effectid>timeremap</effectid>
								<effectcategory>motion</effectcategory>
								<effecttype>motion</effecttype>
								<mediatype>video</mediatype>
								<parameter authoringApp="PremierePro">
									<parameterid>variablespeed</parameterid>
									<name>variablespeed</name>
									<valuemin>0</valuemin>
									<valuemax>1</valuemax>
									<value>0</value>
								</parameter>
								<parameter authoringApp="PremierePro">
									<parameterid>speed</parameterid>
									<name>speed</name>
									<valuemin>-100000</valuemin>
									<valuemax>100000</valuemax>
									<value>200</value>
								</parameter>
								<parameter authoringApp="PremierePro">
									<parameterid>reverse</parameterid>
									<name>reverse</name>
									<value>FALSE</value>
								</parameter>
								<parameter authoringApp="PremierePro">
									<parameterid>frameblending</parameterid>
									<name>frameblending</name>
									<value>FALSE</value>
								</parameter>
								<parameter authoringApp="PremierePro">
									<parameterid>graphdict</parameterid>
									<name>graphdict</name>
									<valuemin>0</valuemin>
									<valuemax>4860</valuemax>
									<value>0</value>
									<keyframe>
										<when>0</when>
										<value>0</value>
										<speedvirtualkf>TRUE</speedvirtualkf>
										<speedkfstart>TRUE</speedkfstart>
									</keyframe>
									<keyframe>
										<when>983</when>
										<value>1966</value>
										<speedvirtualkf>TRUE</speedvirtualkf>
										<speedkfin>TRUE</speedkfin>
									</keyframe>
									<keyframe>
										<when>989</when>
										<value>1978</value>
										<speedvirtualkf>TRUE</speedvirtualkf>
										<speedkfout>TRUE</speedkfout>
									</keyframe>
									<keyframe>
										<when>2430</when>
										<value>4860</value>
										<speedvirtualkf>TRUE</speedvirtualkf>
										<speedkfend>TRUE</speedkfend>
									</keyframe>
									<interpolation>
										<name>FCPCurve</name>
									</interpolation>
								</parameter>
							</effect>
						</filter>
						<logginginfo>
							<description></description>
							<scene></scene>
							<shottake></shottake>
							<lognote></lognote>
							<good></good>
							<originalvideofilename></originalvideofilename>
							<originalaudiofilename></originalaudiofilename>
						</logginginfo>
						<colorinfo>
							<lut></lut>
							<lut1></lut1>
							<asc_sop></asc_sop>
							<asc_sat></asc_sat>
							<lut2></lut2>
						</colorinfo>
						<labels>
							<label2>Iris</label2>
						</labels>
					</clipitem>
					<clipitem id="clipitem-385">
						<masterclipid>masterclip-183</masterclipid>
						<name>A021_11020113_C005.mp4</name>
						<enabled>TRUE</enabled>
						<duration>2430</duration>
						<rate>
							<timebase>24</timebase>
							<ntsc>FALSE</ntsc>
						</rate>
						<start>27931</start>
						<end>27936</end>
						<in>1023</in>
						<out>1028</out>
						<pproTicksIn>21654864000000</pproTicksIn>
						<pproTicksOut>21760704000000</pproTicksOut>
						<alphatype>none</alphatype>
						<file id="file-183"/>
						<filter>
							<effect>
								<name>Time Remap</name>
								<effectid>timeremap</effectid>
								<effectcategory>motion</effectcategory>
								<effecttype>motion</effecttype>
								<mediatype>video</mediatype>
								<parameter authoringApp="PremierePro">
									<parameterid>variablespeed</parameterid>
									<name>variablespeed</name>
									<valuemin>0</valuemin>
									<valuemax>1</valuemax>
									<value>0</value>
								</parameter>
								<parameter authoringApp="PremierePro">
									<parameterid>speed</parameterid>
									<name>speed</name>
									<valuemin>-100000</valuemin>
									<valuemax>100000</valuemax>
									<value>200</value>
								</parameter>
								<parameter authoringApp="PremierePro">
									<parameterid>reverse</parameterid>
									<name>reverse</name>
									<value>FALSE</value>
								</parameter>
								<parameter authoringApp="PremierePro">
									<parameterid>frameblending</parameterid>
									<name>frameblending</name>
									<value>FALSE</value>
								</parameter>
								<parameter authoringApp="PremierePro">
									<parameterid>graphdict</parameterid>
									<name>graphdict</name>
									<valuemin>0</valuemin>
									<valuemax>4860</valuemax>
									<value>0</value>
									<keyframe>
										<when>0</when>
										<value>0</value>
										<speedvirtualkf>TRUE</speedvirtualkf>
										<speedkfstart>TRUE</speedkfstart>
									</keyframe>
									<keyframe>
										<when>1023</when>
										<value>2046</value>
										<speedvirtualkf>TRUE</speedvirtualkf>
										<speedkfin>TRUE</speedkfin>
									</keyframe>
									<keyframe>
										<when>1028</when>
										<value>2056</value>
										<speedvirtualkf>TRUE</speedvirtualkf>
										<speedkfout>TRUE</speedkfout>
									</keyframe>
									<keyframe>
										<when>2430</when>
										<value>4860</value>
										<speedvirtualkf>TRUE</speedvirtualkf>
										<speedkfend>TRUE</speedkfend>
									</keyframe>
									<interpolation>
										<name>FCPCurve</name>
									</interpolation>
								</parameter>
							</effect>
						</filter>
						<logginginfo>
							<description></description>
							<scene></scene>
							<shottake></shottake>
							<lognote></lognote>
							<good></good>
							<originalvideofilename></originalvideofilename>
							<originalaudiofilename></originalaudiofilename>
						</logginginfo>
						<colorinfo>
							<lut></lut>
							<lut1></lut1>
							<asc_sop></asc_sop>
							<asc_sat></asc_sat>
							<lut2></lut2>
						</colorinfo>
						<labels>
							<label2>Iris</label2>
						</labels>
					</clipitem>
					<clipitem id="clipitem-386">
						<masterclipid>masterclip-184</masterclipid>
						<name>DJI_0104.mov</name>
						<enabled>TRUE</enabled>
						<duration>867</duration>
						<rate>
							<timebase>24</timebase>
							<ntsc>FALSE</ntsc>
						</rate>
						<start>27936</start>
						<end>27949</end>
						<in>98</in>
						<out>110</out>
						<pproTicksIn>2063880000000</pproTicksIn>
						<pproTicksOut>2339064000000</pproTicksOut>
						<alphatype>none</alphatype>
						<pixelaspectratio>square</pixelaspectratio>
						<anamorphic>FALSE</anamorphic>
						<file id="file-184">
							<name>DJI_0104.mov</name>
							<pathurl>file://localhost/F%3a/love%20song/bike%20ride%20(drone)/DJI_0104.mov</pathurl>
							<rate>
								<timebase>50</timebase>
								<ntsc>FALSE</ntsc>
							</rate>
							<duration>3613</duration>
							<timecode>
								<rate>
									<timebase>50</timebase>
									<ntsc>FALSE</ntsc>
								</rate>
								<string>00:00:00:00</string>
								<frame>0</frame>
								<displayformat>NDF</displayformat>
							</timecode>
							<media>
								<video>
									<samplecharacteristics>
										<rate>
											<timebase>50</timebase>
											<ntsc>FALSE</ntsc>
										</rate>
										<width>1920</width>
										<height>1080</height>
										<anamorphic>FALSE</anamorphic>
										<pixelaspectratio>square</pixelaspectratio>
										<fielddominance>none</fielddominance>
									</samplecharacteristics>
								</video>
								<audio>
									<samplecharacteristics>
										<depth>16</depth>
										<samplerate>48000</samplerate>
									</samplecharacteristics>
									<channelcount>2</channelcount>
								</audio>
							</media>
						</file>
						<filter>
							<effect>
								<name>Time Remap</name>
								<effectid>timeremap</effectid>
								<effectcategory>motion</effectcategory>
								<effecttype>motion</effecttype>
								<mediatype>video</mediatype>
								<parameter authoringApp="PremierePro">
									<parameterid>variablespeed</parameterid>
									<name>variablespeed</name>
									<valuemin>0</valuemin>
									<valuemax>1</valuemax>
									<value>0</value>
								</parameter>
								<parameter authoringApp="PremierePro">
									<parameterid>speed</parameterid>
									<name>speed</name>
									<valuemin>-100000</valuemin>
									<valuemax>100000</valuemax>
									<value>200</value>
								</parameter>
								<parameter authoringApp="PremierePro">
									<parameterid>reverse</parameterid>
									<name>reverse</name>
									<value>FALSE</value>
								</parameter>
								<parameter authoringApp="PremierePro">
									<parameterid>frameblending</parameterid>
									<name>frameblending</name>
									<value>FALSE</value>
								</parameter>
								<parameter authoringApp="PremierePro">
									<parameterid>graphdict</parameterid>
									<name>graphdict</name>
									<valuemin>0</valuemin>
									<valuemax>1734</valuemax>
									<value>0</value>
									<keyframe>
										<when>0</when>
										<value>0</value>
										<speedvirtualkf>TRUE</speedvirtualkf>
										<speedkfstart>TRUE</speedkfstart>
									</keyframe>
									<keyframe>
										<when>98</when>
										<value>196</value>
										<speedvirtualkf>TRUE</speedvirtualkf>
										<speedkfin>TRUE</speedkfin>
									</keyframe>
									<keyframe>
										<when>110</when>
										<value>220</value>
										<speedvirtualkf>TRUE</speedvirtualkf>
										<speedkfout>TRUE</speedkfout>
									</keyframe>
									<keyframe>
										<when>867</when>
										<value>1734</value>
										<speedvirtualkf>TRUE</speedvirtualkf>
										<speedkfend>TRUE</speedkfend>
									</keyframe>
									<interpolation>
										<name>FCPCurve</name>
									</interpolation>
								</parameter>
							</effect>
						</filter>
						<logginginfo>
							<description></description>
							<scene></scene>
							<shottake></shottake>
							<lognote></lognote>
							<good></good>
							<originalvideofilename></originalvideofilename>
							<originalaudiofilename></originalaudiofilename>
						</logginginfo>
						<colorinfo>
							<lut></lut>
							<lut1></lut1>
							<asc_sop></asc_sop>
							<asc_sat></asc_sat>
							<lut2></lut2>
						</colorinfo>
						<labels>
							<label2>Iris</label2>
						</labels>
					</clipitem>
					<clipitem id="clipitem-387">
						<masterclipid>masterclip-184</masterclipid>
						<name>DJI_0104.mov</name>
						<enabled>TRUE</enabled>
						<duration>1734</duration>
						<rate>
							<timebase>24</timebase>
							<ntsc>FALSE</ntsc>
						</rate>
						<start>27949</start>
						<end>27958</end>
						<in>566</in>
						<out>575</out>
						<pproTicksIn>5990544000000</pproTicksIn>
						<pproTicksOut>6085800000000</pproTicksOut>
						<alphatype>none</alphatype>
						<file id="file-184"/>
						<logginginfo>
							<description></description>
							<scene></scene>
							<shottake></shottake>
							<lognote></lognote>
							<good></good>
							<originalvideofilename></originalvideofilename>
							<originalaudiofilename></originalaudiofilename>
						</logginginfo>
						<colorinfo>
							<lut></lut>
							<lut1></lut1>
							<asc_sop></asc_sop>
							<asc_sat></asc_sat>
							<lut2></lut2>
						</colorinfo>
						<labels>
							<label2>Iris</label2>
						</labels>
					</clipitem>
					<clipitem id="clipitem-388">
						<masterclipid>masterclip-184</masterclipid>
						<name>DJI_0104.mov</name>
						<enabled>TRUE</enabled>
						<duration>1734</duration>
						<rate>
							<timebase>24</timebase>
							<ntsc>FALSE</ntsc>
						</rate>
						<start>27958</start>
						<end>27966</end>
						<in>936</in>
						<out>944</out>
						<pproTicksIn>9906624000000</pproTicksIn>
						<pproTicksOut>9991296000000</pproTicksOut>
						<alphatype>none</alphatype>
						<file id="file-184"/>
						<logginginfo>
							<description></description>
							<scene></scene>
							<shottake></shottake>
							<lognote></lognote>
							<good></good>
							<originalvideofilename></originalvideofilename>
							<originalaudiofilename></originalaudiofilename>
						</logginginfo>
						<colorinfo>
							<lut></lut>
							<lut1></lut1>
							<asc_sop></asc_sop>
							<asc_sat></asc_sat>
							<lut2></lut2>
						</colorinfo>
						<labels>
							<label2>Iris</label2>
						</labels>
					</clipitem>
					<clipitem id="clipitem-389">
						<masterclipid>masterclip-184</masterclipid>
						<name>DJI_0104.mov</name>
						<enabled>TRUE</enabled>
						<duration>1734</duration>
						<rate>
							<timebase>24</timebase>
							<ntsc>FALSE</ntsc>
						</rate>
						<start>27966</start>
						<end>27973</end>
						<in>988</in>
						<out>995</out>
						<pproTicksIn>10456992000000</pproTicksIn>
						<pproTicksOut>10531080000000</pproTicksOut>
						<alphatype>none</alphatype>
						<file id="file-184"/>
						<logginginfo>
							<description></description>
							<scene></scene>
							<shottake></shottake>
							<lognote></lognote>
							<good></good>
							<originalvideofilename></originalvideofilename>
							<originalaudiofilename></originalaudiofilename>
						</logginginfo>
						<colorinfo>
							<lut></lut>
							<lut1></lut1>
							<asc_sop></asc_sop>
							<asc_sat></asc_sat>
							<lut2></lut2>
						</colorinfo>
						<labels>
							<label2>Iris</label2>
						</labels>
					</clipitem>
					<clipitem id="clipitem-390">
						<masterclipid>masterclip-184</masterclipid>
						<name>DJI_0104.mov</name>
						<enabled>TRUE</enabled>
						<duration>1734</duration>
						<rate>
							<timebase>24</timebase>
							<ntsc>FALSE</ntsc>
						</rate>
						<start>27973</start>
						<end>27986</end>
						<in>1088</in>
						<out>1101</out>
						<pproTicksIn>11515392000000</pproTicksIn>
						<pproTicksOut>11652984000000</pproTicksOut>
						<alphatype>none</alphatype>
						<file id="file-184"/>
						<logginginfo>
							<description></description>
							<scene></scene>
							<shottake></shottake>
							<lognote></lognote>
							<good></good>
							<originalvideofilename></originalvideofilename>
							<originalaudiofilename></originalaudiofilename>
						</logginginfo>
						<colorinfo>
							<lut></lut>
							<lut1></lut1>
							<asc_sop></asc_sop>
							<asc_sat></asc_sat>
							<lut2></lut2>
						</colorinfo>
						<labels>
							<label2>Iris</label2>
						</labels>
					</clipitem>
					<clipitem id="clipitem-391">
						<masterclipid>masterclip-185</masterclipid>
						<name>2021_12_14_13_50_28.mov</name>
						<enabled>TRUE</enabled>
						<duration>257</duration>
						<rate>
							<timebase>24</timebase>
							<ntsc>FALSE</ntsc>
						</rate>
						<start>27986</start>
						<end>27997</end>
						<in>89</in>
						<out>99</out>
						<pproTicksIn>1873368000000</pproTicksIn>
						<pproTicksOut>2106216000000</pproTicksOut>
						<alphatype>none</alphatype>
						<pixelaspectratio>square</pixelaspectratio>
						<anamorphic>FALSE</anamorphic>
						<file id="file-185">
							<name>2021_12_14_13_50_28.mov</name>
							<pathurl>file://localhost/F%3a/love%20song/harbour%20bridge(drone)/2021_12_14_13_50_28.mov</pathurl>
							<rate>
								<timebase>24</timebase>
								<ntsc>FALSE</ntsc>
							</rate>
							<duration>515</duration>
							<timecode>
								<rate>
									<timebase>24</timebase>
									<ntsc>FALSE</ntsc>
								</rate>
								<string>00:00:00:00</string>
								<frame>0</frame>
								<displayformat>NDF</displayformat>
							</timecode>
							<media>
								<video>
									<samplecharacteristics>
										<rate>
											<timebase>24</timebase>
											<ntsc>FALSE</ntsc>
										</rate>
										<width>1920</width>
										<height>1080</height>
										<anamorphic>FALSE</anamorphic>
										<pixelaspectratio>square</pixelaspectratio>
										<fielddominance>none</fielddominance>
									</samplecharacteristics>
								</video>
								<audio>
									<samplecharacteristics>
										<depth>16</depth>
										<samplerate>48000</samplerate>
									</samplecharacteristics>
									<channelcount>2</channelcount>
								</audio>
							</media>
						</file>
						<filter>
							<effect>
								<name>Time Remap</name>
								<effectid>timeremap</effectid>
								<effectcategory>motion</effectcategory>
								<effecttype>motion</effecttype>
								<mediatype>video</mediatype>
								<parameter authoringApp="PremierePro">
									<parameterid>variablespeed</parameterid>
									<name>variablespeed</name>
									<valuemin>0</valuemin>
									<valuemax>1</valuemax>
									<value>0</value>
								</parameter>
								<parameter authoringApp="PremierePro">
									<parameterid>speed</parameterid>
									<name>speed</name>
									<valuemin>-100000</valuemin>
									<valuemax>100000</valuemax>
									<value>200</value>
								</parameter>
								<parameter authoringApp="PremierePro">
									<parameterid>reverse</parameterid>
									<name>reverse</name>
									<value>FALSE</value>
								</parameter>
								<parameter authoringApp="PremierePro">
									<parameterid>frameblending</parameterid>
									<name>frameblending</name>
									<value>FALSE</value>
								</parameter>
								<parameter authoringApp="PremierePro">
									<parameterid>graphdict</parameterid>
									<name>graphdict</name>
									<valuemin>0</valuemin>
									<valuemax>514</valuemax>
									<value>0</value>
									<keyframe>
										<when>0</when>
										<value>0</value>
										<speedvirtualkf>TRUE</speedvirtualkf>
										<speedkfstart>TRUE</speedkfstart>
									</keyframe>
									<keyframe>
										<when>89</when>
										<value>178</value>
										<speedvirtualkf>TRUE</speedvirtualkf>
										<speedkfin>TRUE</speedkfin>
									</keyframe>
									<keyframe>
										<when>99</when>
										<value>198</value>
										<speedvirtualkf>TRUE</speedvirtualkf>
										<speedkfout>TRUE</speedkfout>
									</keyframe>
									<keyframe>
										<when>257</when>
										<value>514</value>
										<speedvirtualkf>TRUE</speedvirtualkf>
										<speedkfend>TRUE</speedkfend>
									</keyframe>
									<interpolation>
										<name>FCPCurve</name>
									</interpolation>
								</parameter>
							</effect>
						</filter>
						<logginginfo>
							<description></description>
							<scene></scene>
							<shottake></shottake>
							<lognote></lognote>
							<good></good>
							<originalvideofilename></originalvideofilename>
							<originalaudiofilename></originalaudiofilename>
						</logginginfo>
						<colorinfo>
							<lut></lut>
							<lut1></lut1>
							<asc_sop></asc_sop>
							<asc_sat></asc_sat>
							<lut2></lut2>
						</colorinfo>
						<labels>
							<label2>Iris</label2>
						</labels>
					</clipitem>
					<clipitem id="clipitem-392">
						<masterclipid>masterclip-186</masterclipid>
						<name>A008_10281030_C104.mp4</name>
						<enabled>TRUE</enabled>
						<duration>354</duration>
						<rate>
							<timebase>24</timebase>
							<ntsc>FALSE</ntsc>
						</rate>
						<start>27997</start>
						<end>28010</end>
						<in>53</in>
						<out>65</out>
						<pproTicksIn>1111320000000</pproTicksIn>
						<pproTicksOut>1386504000000</pproTicksOut>
						<alphatype>none</alphatype>
						<pixelaspectratio>square</pixelaspectratio>
						<anamorphic>FALSE</anamorphic>
						<file id="file-186">
							<name>A008_10281030_C104.mp4</name>
							<pathurl>file://localhost/F%3a/love%20song/neelavara%20bridge/A008_10281030_C104.mp4</pathurl>
							<rate>
								<timebase>24</timebase>
								<ntsc>FALSE</ntsc>
							</rate>
							<duration>708</duration>
							<timecode>
								<rate>
									<timebase>24</timebase>
									<ntsc>FALSE</ntsc>
								</rate>
								<string>10:30:42:08</string>
								<frame>908216</frame>
								<displayformat>NDF</displayformat>
							</timecode>
							<media>
								<video>
									<samplecharacteristics>
										<rate>
											<timebase>24</timebase>
											<ntsc>FALSE</ntsc>
										</rate>
										<width>1920</width>
										<height>1080</height>
										<anamorphic>FALSE</anamorphic>
										<pixelaspectratio>square</pixelaspectratio>
										<fielddominance>none</fielddominance>
									</samplecharacteristics>
								</video>
								<audio>
									<samplecharacteristics>
										<depth>16</depth>
										<samplerate>48000</samplerate>
									</samplecharacteristics>
									<channelcount>2</channelcount>
								</audio>
							</media>
						</file>
						<filter>
							<effect>
								<name>Time Remap</name>
								<effectid>timeremap</effectid>
								<effectcategory>motion</effectcategory>
								<effecttype>motion</effecttype>
								<mediatype>video</mediatype>
								<parameter authoringApp="PremierePro">
									<parameterid>variablespeed</parameterid>
									<name>variablespeed</name>
									<valuemin>0</valuemin>
									<valuemax>1</valuemax>
									<value>0</value>
								</parameter>
								<parameter authoringApp="PremierePro">
									<parameterid>speed</parameterid>
									<name>speed</name>
									<valuemin>-100000</valuemin>
									<valuemax>100000</valuemax>
									<value>200</value>
								</parameter>
								<parameter authoringApp="PremierePro">
									<parameterid>reverse</parameterid>
									<name>reverse</name>
									<value>FALSE</value>
								</parameter>
								<parameter authoringApp="PremierePro">
									<parameterid>frameblending</parameterid>
									<name>frameblending</name>
									<value>FALSE</value>
								</parameter>
								<parameter authoringApp="PremierePro">
									<parameterid>graphdict</parameterid>
									<name>graphdict</name>
									<valuemin>0</valuemin>
									<valuemax>708</valuemax>
									<value>0</value>
									<keyframe>
										<when>0</when>
										<value>0</value>
										<speedvirtualkf>TRUE</speedvirtualkf>
										<speedkfstart>TRUE</speedkfstart>
									</keyframe>
									<keyframe>
										<when>53</when>
										<value>106</value>
										<speedvirtualkf>TRUE</speedvirtualkf>
										<speedkfin>TRUE</speedkfin>
									</keyframe>
									<keyframe>
										<when>65</when>
										<value>130</value>
										<speedvirtualkf>TRUE</speedvirtualkf>
										<speedkfout>TRUE</speedkfout>
									</keyframe>
									<keyframe>
										<when>354</when>
										<value>708</value>
										<speedvirtualkf>TRUE</speedvirtualkf>
										<speedkfend>TRUE</speedkfend>
									</keyframe>
									<interpolation>
										<name>FCPCurve</name>
									</interpolation>
								</parameter>
							</effect>
						</filter>
						<logginginfo>
							<description></description>
							<scene></scene>
							<shottake></shottake>
							<lognote></lognote>
							<good></good>
							<originalvideofilename></originalvideofilename>
							<originalaudiofilename></originalaudiofilename>
						</logginginfo>
						<colorinfo>
							<lut></lut>
							<lut1></lut1>
							<asc_sop></asc_sop>
							<asc_sat></asc_sat>
							<lut2></lut2>
						</colorinfo>
						<labels>
							<label2>Iris</label2>
						</labels>
					</clipitem>
					<clipitem id="clipitem-393">
						<masterclipid>masterclip-136</masterclipid>
						<name>2021_12_14_16_10_51.mov</name>
						<enabled>TRUE</enabled>
						<duration>233</duration>
						<rate>
							<timebase>24</timebase>
							<ntsc>FALSE</ntsc>
						</rate>
						<start>28010</start>
						<end>28019</end>
						<in>106</in>
						<out>115</out>
						<pproTicksIn>2243808000000</pproTicksIn>
						<pproTicksOut>2434320000000</pproTicksOut>
						<alphatype>none</alphatype>
						<file id="file-136"/>
						<filter>
							<effect>
								<name>Time Remap</name>
								<effectid>timeremap</effectid>
								<effectcategory>motion</effectcategory>
								<effecttype>motion</effecttype>
								<mediatype>video</mediatype>
								<parameter authoringApp="PremierePro">
									<parameterid>variablespeed</parameterid>
									<name>variablespeed</name>
									<valuemin>0</valuemin>
									<valuemax>1</valuemax>
									<value>0</value>
								</parameter>
								<parameter authoringApp="PremierePro">
									<parameterid>speed</parameterid>
									<name>speed</name>
									<valuemin>-100000</valuemin>
									<valuemax>100000</valuemax>
									<value>200</value>
								</parameter>
								<parameter authoringApp="PremierePro">
									<parameterid>reverse</parameterid>
									<name>reverse</name>
									<value>FALSE</value>
								</parameter>
								<parameter authoringApp="PremierePro">
									<parameterid>frameblending</parameterid>
									<name>frameblending</name>
									<value>FALSE</value>
								</parameter>
								<parameter authoringApp="PremierePro">
									<parameterid>graphdict</parameterid>
									<name>graphdict</name>
									<valuemin>0</valuemin>
									<valuemax>466</valuemax>
									<value>0</value>
									<keyframe>
										<when>0</when>
										<value>0</value>
										<speedvirtualkf>TRUE</speedvirtualkf>
										<speedkfstart>TRUE</speedkfstart>
									</keyframe>
									<keyframe>
										<when>106</when>
										<value>212</value>
										<speedvirtualkf>TRUE</speedvirtualkf>
										<speedkfin>TRUE</speedkfin>
									</keyframe>
									<keyframe>
										<when>115</when>
										<value>230</value>
										<speedvirtualkf>TRUE</speedvirtualkf>
										<speedkfout>TRUE</speedkfout>
									</keyframe>
									<keyframe>
										<when>233</when>
										<value>466</value>
										<speedvirtualkf>TRUE</speedvirtualkf>
										<speedkfend>TRUE</speedkfend>
									</keyframe>
									<interpolation>
										<name>FCPCurve</name>
									</interpolation>
								</parameter>
							</effect>
						</filter>
						<logginginfo>
							<description></description>
							<scene></scene>
							<shottake></shottake>
							<lognote></lognote>
							<good></good>
							<originalvideofilename></originalvideofilename>
							<originalaudiofilename></originalaudiofilename>
						</logginginfo>
						<colorinfo>
							<lut></lut>
							<lut1></lut1>
							<asc_sop></asc_sop>
							<asc_sat></asc_sat>
							<lut2></lut2>
						</colorinfo>
						<labels>
							<label2>Iris</label2>
						</labels>
					</clipitem>
					<clipitem id="clipitem-394">
						<masterclipid>masterclip-187</masterclipid>
						<name>2021_12_14_08_42_52.mov</name>
						<enabled>TRUE</enabled>
						<duration>106</duration>
						<rate>
							<timebase>24</timebase>
							<ntsc>FALSE</ntsc>
						</rate>
						<start>28019</start>
						<end>28032</end>
						<in>63</in>
						<out>75</out>
						<pproTicksIn>3312792000000</pproTicksIn>
						<pproTicksOut>4000752000000</pproTicksOut>
						<alphatype>none</alphatype>
						<pixelaspectratio>square</pixelaspectratio>
						<anamorphic>FALSE</anamorphic>
						<file id="file-187">
							<name>2021_12_14_08_42_52.mov</name>
							<pathurl>file://localhost/F%3a/love%20song/boating/offline/2021_12_14_08_42_52.mov</pathurl>
							<rate>
								<timebase>25</timebase>
								<ntsc>FALSE</ntsc>
							</rate>
							<duration>554</duration>
							<timecode>
								<rate>
									<timebase>25</timebase>
									<ntsc>FALSE</ntsc>
								</rate>
								<string>00:00:00:00</string>
								<frame>0</frame>
								<displayformat>NDF</displayformat>
							</timecode>
							<media>
								<video>
									<samplecharacteristics>
										<rate>
											<timebase>25</timebase>
											<ntsc>FALSE</ntsc>
										</rate>
										<width>1920</width>
										<height>1080</height>
										<anamorphic>FALSE</anamorphic>
										<pixelaspectratio>square</pixelaspectratio>
										<fielddominance>none</fielddominance>
									</samplecharacteristics>
								</video>
								<audio>
									<samplecharacteristics>
										<depth>16</depth>
										<samplerate>48000</samplerate>
									</samplecharacteristics>
									<channelcount>2</channelcount>
								</audio>
							</media>
						</file>
						<filter>
							<effect>
								<name>Time Remap</name>
								<effectid>timeremap</effectid>
								<effectcategory>motion</effectcategory>
								<effecttype>motion</effecttype>
								<mediatype>video</mediatype>
								<parameter authoringApp="PremierePro">
									<parameterid>variablespeed</parameterid>
									<name>variablespeed</name>
									<valuemin>0</valuemin>
									<valuemax>1</valuemax>
									<value>0</value>
								</parameter>
								<parameter authoringApp="PremierePro">
									<parameterid>speed</parameterid>
									<name>speed</name>
									<valuemin>-100000</valuemin>
									<valuemax>100000</valuemax>
									<value>500</value>
								</parameter>
								<parameter authoringApp="PremierePro">
									<parameterid>reverse</parameterid>
									<name>reverse</name>
									<value>FALSE</value>
								</parameter>
								<parameter authoringApp="PremierePro">
									<parameterid>frameblending</parameterid>
									<name>frameblending</name>
									<value>FALSE</value>
								</parameter>
								<parameter authoringApp="PremierePro">
									<parameterid>graphdict</parameterid>
									<name>graphdict</name>
									<valuemin>0</valuemin>
									<valuemax>530</valuemax>
									<value>0</value>
									<keyframe>
										<when>0</when>
										<value>0</value>
										<speedvirtualkf>TRUE</speedvirtualkf>
										<speedkfstart>TRUE</speedkfstart>
									</keyframe>
									<keyframe>
										<when>63</when>
										<value>315</value>
										<speedvirtualkf>TRUE</speedvirtualkf>
										<speedkfin>TRUE</speedkfin>
									</keyframe>
									<keyframe>
										<when>75</when>
										<value>375</value>
										<speedvirtualkf>TRUE</speedvirtualkf>
										<speedkfout>TRUE</speedkfout>
									</keyframe>
									<keyframe>
										<when>106</when>
										<value>530</value>
										<speedvirtualkf>TRUE</speedvirtualkf>
										<speedkfend>TRUE</speedkfend>
									</keyframe>
									<interpolation>
										<name>FCPCurve</name>
									</interpolation>
								</parameter>
							</effect>
						</filter>
						<logginginfo>
							<description></description>
							<scene></scene>
							<shottake></shottake>
							<lognote></lognote>
							<good></good>
							<originalvideofilename></originalvideofilename>
							<originalaudiofilename></originalaudiofilename>
						</logginginfo>
						<colorinfo>
							<lut></lut>
							<lut1></lut1>
							<asc_sop></asc_sop>
							<asc_sat></asc_sat>
							<lut2></lut2>
						</colorinfo>
						<labels>
							<label2>Iris</label2>
						</labels>
					</clipitem>
					<clipitem id="clipitem-395">
						<masterclipid>masterclip-151</masterclipid>
						<name>DJI_0091.mov</name>
						<enabled>TRUE</enabled>
						<duration>768</duration>
						<rate>
							<timebase>24</timebase>
							<ntsc>FALSE</ntsc>
						</rate>
						<start>28032</start>
						<end>28044</end>
						<in>641</in>
						<out>652</out>
						<pproTicksIn>8477784000000</pproTicksIn>
						<pproTicksOut>8636544000000</pproTicksOut>
						<alphatype>none</alphatype>
						<file id="file-151"/>
						<filter>
							<effect>
								<name>Time Remap</name>
								<effectid>timeremap</effectid>
								<effectcategory>motion</effectcategory>
								<effecttype>motion</effecttype>
								<mediatype>video</mediatype>
								<parameter authoringApp="PremierePro">
									<parameterid>variablespeed</parameterid>
									<name>variablespeed</name>
									<valuemin>0</valuemin>
									<valuemax>1</valuemax>
									<value>0</value>
								</parameter>
								<parameter authoringApp="PremierePro">
									<parameterid>speed</parameterid>
									<name>speed</name>
									<valuemin>-100000</valuemin>
									<valuemax>100000</valuemax>
									<value>125</value>
								</parameter>
								<parameter authoringApp="PremierePro">
									<parameterid>reverse</parameterid>
									<name>reverse</name>
									<value>FALSE</value>
								</parameter>
								<parameter authoringApp="PremierePro">
									<parameterid>frameblending</parameterid>
									<name>frameblending</name>
									<value>FALSE</value>
								</parameter>
								<parameter authoringApp="PremierePro">
									<parameterid>graphdict</parameterid>
									<name>graphdict</name>
									<valuemin>0</valuemin>
									<valuemax>960</valuemax>
									<value>0</value>
									<keyframe>
										<when>0</when>
										<value>0</value>
										<speedvirtualkf>TRUE</speedvirtualkf>
										<speedkfstart>TRUE</speedkfstart>
									</keyframe>
									<keyframe>
										<when>641</when>
										<value>801</value>
										<speedvirtualkf>TRUE</speedvirtualkf>
										<speedkfin>TRUE</speedkfin>
									</keyframe>
									<keyframe>
										<when>652</when>
										<value>815</value>
										<speedvirtualkf>TRUE</speedvirtualkf>
										<speedkfout>TRUE</speedkfout>
									</keyframe>
									<keyframe>
										<when>768</when>
										<value>960</value>
										<speedvirtualkf>TRUE</speedvirtualkf>
										<speedkfend>TRUE</speedkfend>
									</keyframe>
									<interpolation>
										<name>FCPCurve</name>
									</interpolation>
								</parameter>
							</effect>
						</filter>
						<logginginfo>
							<description></description>
							<scene></scene>
							<shottake></shottake>
							<lognote></lognote>
							<good></good>
							<originalvideofilename></originalvideofilename>
							<originalaudiofilename></originalaudiofilename>
						</logginginfo>
						<colorinfo>
							<lut></lut>
							<lut1></lut1>
							<asc_sop></asc_sop>
							<asc_sat></asc_sat>
							<lut2></lut2>
						</colorinfo>
						<labels>
							<label2>Iris</label2>
						</labels>
					</clipitem>
					<clipitem id="clipitem-396">
						<masterclipid>masterclip-188</masterclipid>
						<name>DJI_0082.mov</name>
						<enabled>TRUE</enabled>
						<duration>897</duration>
						<rate>
							<timebase>24</timebase>
							<ntsc>FALSE</ntsc>
						</rate>
						<start>28044</start>
						<end>28057</end>
						<in>603</in>
						<out>615</out>
						<pproTicksIn>7975044000000</pproTicksIn>
						<pproTicksOut>8147034000000</pproTicksOut>
						<alphatype>none</alphatype>
						<pixelaspectratio>square</pixelaspectratio>
						<anamorphic>FALSE</anamorphic>
						<file id="file-188">
							<name>DJI_0082.mov</name>
							<pathurl>file://localhost/F%3a/love%20song/bike%20ride%20(drone)/DJI_0082.mov</pathurl>
							<rate>
								<timebase>50</timebase>
								<ntsc>FALSE</ntsc>
							</rate>
							<duration>2338</duration>
							<timecode>
								<rate>
									<timebase>50</timebase>
									<ntsc>FALSE</ntsc>
								</rate>
								<string>00:00:00:00</string>
								<frame>0</frame>
								<displayformat>NDF</displayformat>
							</timecode>
							<media>
								<video>
									<samplecharacteristics>
										<rate>
											<timebase>50</timebase>
											<ntsc>FALSE</ntsc>
										</rate>
										<width>1920</width>
										<height>1080</height>
										<anamorphic>FALSE</anamorphic>
										<pixelaspectratio>square</pixelaspectratio>
										<fielddominance>none</fielddominance>
									</samplecharacteristics>
								</video>
								<audio>
									<samplecharacteristics>
										<depth>16</depth>
										<samplerate>48000</samplerate>
									</samplecharacteristics>
									<channelcount>2</channelcount>
								</audio>
							</media>
						</file>
						<filter>
							<effect>
								<name>Time Remap</name>
								<effectid>timeremap</effectid>
								<effectcategory>motion</effectcategory>
								<effecttype>motion</effecttype>
								<mediatype>video</mediatype>
								<parameter authoringApp="PremierePro">
									<parameterid>variablespeed</parameterid>
									<name>variablespeed</name>
									<valuemin>0</valuemin>
									<valuemax>1</valuemax>
									<value>0</value>
								</parameter>
								<parameter authoringApp="PremierePro">
									<parameterid>speed</parameterid>
									<name>speed</name>
									<valuemin>-100000</valuemin>
									<valuemax>100000</valuemax>
									<value>125</value>
								</parameter>
								<parameter authoringApp="PremierePro">
									<parameterid>reverse</parameterid>
									<name>reverse</name>
									<value>FALSE</value>
								</parameter>
								<parameter authoringApp="PremierePro">
									<parameterid>frameblending</parameterid>
									<name>frameblending</name>
									<value>FALSE</value>
								</parameter>
								<parameter authoringApp="PremierePro">
									<parameterid>graphdict</parameterid>
									<name>graphdict</name>
									<valuemin>0</valuemin>
									<valuemax>1121</valuemax>
									<value>0</value>
									<keyframe>
										<when>0</when>
										<value>0</value>
										<speedvirtualkf>TRUE</speedvirtualkf>
										<speedkfstart>TRUE</speedkfstart>
									</keyframe>
									<keyframe>
										<when>603</when>
										<value>753</value>
										<speedvirtualkf>TRUE</speedvirtualkf>
										<speedkfin>TRUE</speedkfin>
									</keyframe>
									<keyframe>
										<when>615</when>
										<value>768</value>
										<speedvirtualkf>TRUE</speedvirtualkf>
										<speedkfout>TRUE</speedkfout>
									</keyframe>
									<keyframe>
										<when>897</when>
										<value>1121</value>
										<speedvirtualkf>TRUE</speedvirtualkf>
										<speedkfend>TRUE</speedkfend>
									</keyframe>
									<interpolation>
										<name>FCPCurve</name>
									</interpolation>
								</parameter>
							</effect>
						</filter>
						<logginginfo>
							<description></description>
							<scene></scene>
							<shottake></shottake>
							<lognote></lognote>
							<good></good>
							<originalvideofilename></originalvideofilename>
							<originalaudiofilename></originalaudiofilename>
						</logginginfo>
						<colorinfo>
							<lut></lut>
							<lut1></lut1>
							<asc_sop></asc_sop>
							<asc_sat></asc_sat>
							<lut2></lut2>
						</colorinfo>
						<labels>
							<label2>Iris</label2>
						</labels>
					</clipitem>
					<clipitem id="clipitem-397">
						<masterclipid>masterclip-150</masterclipid>
						<name>DJI_0081.mov</name>
						<enabled>TRUE</enabled>
						<duration>740</duration>
						<rate>
							<timebase>24</timebase>
							<ntsc>FALSE</ntsc>
						</rate>
						<start>28057</start>
						<end>28076</end>
						<in>461</in>
						<out>480</out>
						<pproTicksIn>4879224000000</pproTicksIn>
						<pproTicksOut>5080320000000</pproTicksOut>
						<alphatype>none</alphatype>
						<file id="file-150"/>
						<logginginfo>
							<description></description>
							<scene></scene>
							<shottake></shottake>
							<lognote></lognote>
							<good></good>
							<originalvideofilename></originalvideofilename>
							<originalaudiofilename></originalaudiofilename>
						</logginginfo>
						<colorinfo>
							<lut></lut>
							<lut1></lut1>
							<asc_sop></asc_sop>
							<asc_sat></asc_sat>
							<lut2></lut2>
						</colorinfo>
						<labels>
							<label2>Iris</label2>
						</labels>
					</clipitem>
					<clipitem id="clipitem-398">
						<masterclipid>masterclip-189</masterclipid>
						<name>A013_10311329_C132.mp4</name>
						<enabled>TRUE</enabled>
						<duration>408</duration>
						<rate>
							<timebase>24</timebase>
							<ntsc>FALSE</ntsc>
						</rate>
						<start>28076</start>
						<end>28099</end>
						<in>180</in>
						<out>203</out>
						<pproTicksIn>1905120000000</pproTicksIn>
						<pproTicksOut>2148552000000</pproTicksOut>
						<alphatype>none</alphatype>
						<pixelaspectratio>square</pixelaspectratio>
						<anamorphic>FALSE</anamorphic>
						<file id="file-189">
							<name>A013_10311329_C132.mp4</name>
							<pathurl>file://localhost/F%3a/love%20song/meera%20room/A013_10311329_C132.mp4</pathurl>
							<rate>
								<timebase>24</timebase>
								<ntsc>FALSE</ntsc>
							</rate>
							<duration>408</duration>
							<timecode>
								<rate>
									<timebase>24</timebase>
									<ntsc>FALSE</ntsc>
								</rate>
								<string>13:29:24:01</string>
								<frame>1165537</frame>
								<displayformat>NDF</displayformat>
							</timecode>
							<media>
								<video>
									<samplecharacteristics>
										<rate>
											<timebase>24</timebase>
											<ntsc>FALSE</ntsc>
										</rate>
										<width>1920</width>
										<height>1080</height>
										<anamorphic>FALSE</anamorphic>
										<pixelaspectratio>square</pixelaspectratio>
										<fielddominance>none</fielddominance>
									</samplecharacteristics>
								</video>
								<audio>
									<samplecharacteristics>
										<depth>16</depth>
										<samplerate>48000</samplerate>
									</samplecharacteristics>
									<channelcount>2</channelcount>
								</audio>
							</media>
						</file>
						<logginginfo>
							<description></description>
							<scene></scene>
							<shottake></shottake>
							<lognote></lognote>
							<good></good>
							<originalvideofilename></originalvideofilename>
							<originalaudiofilename></originalaudiofilename>
						</logginginfo>
						<colorinfo>
							<lut></lut>
							<lut1></lut1>
							<asc_sop></asc_sop>
							<asc_sat></asc_sat>
							<lut2></lut2>
						</colorinfo>
						<labels>
							<label2>Iris</label2>
						</labels>
					</clipitem>
					<clipitem id="clipitem-399">
						<masterclipid>masterclip-190</masterclipid>
						<name>A013_10311326_C131.mp4</name>
						<enabled>TRUE</enabled>
						<duration>584</duration>
						<rate>
							<timebase>24</timebase>
							<ntsc>FALSE</ntsc>
						</rate>
						<start>28099</start>
						<end>28123</end>
						<in>356</in>
						<out>380</out>
						<pproTicksIn>3767904000000</pproTicksIn>
						<pproTicksOut>4021920000000</pproTicksOut>
						<alphatype>none</alphatype>
						<pixelaspectratio>square</pixelaspectratio>
						<anamorphic>FALSE</anamorphic>
						<file id="file-190">
							<name>A013_10311326_C131.mp4</name>
							<pathurl>file://localhost/F%3a/love%20song/meera%20room/A013_10311326_C131.mp4</pathurl>
							<rate>
								<timebase>24</timebase>
								<ntsc>FALSE</ntsc>
							</rate>
							<duration>584</duration>
							<timecode>
								<rate>
									<timebase>24</timebase>
									<ntsc>FALSE</ntsc>
								</rate>
								<string>13:26:58:12</string>
								<frame>1162044</frame>
								<displayformat>NDF</displayformat>
							</timecode>
							<media>
								<video>
									<samplecharacteristics>
										<rate>
											<timebase>24</timebase>
											<ntsc>FALSE</ntsc>
										</rate>
										<width>1920</width>
										<height>1080</height>
										<anamorphic>FALSE</anamorphic>
										<pixelaspectratio>square</pixelaspectratio>
										<fielddominance>none</fielddominance>
									</samplecharacteristics>
								</video>
								<audio>
									<samplecharacteristics>
										<depth>16</depth>
										<samplerate>48000</samplerate>
									</samplecharacteristics>
									<channelcount>2</channelcount>
								</audio>
							</media>
						</file>
						<logginginfo>
							<description></description>
							<scene></scene>
							<shottake></shottake>
							<lognote></lognote>
							<good></good>
							<originalvideofilename></originalvideofilename>
							<originalaudiofilename></originalaudiofilename>
						</logginginfo>
						<colorinfo>
							<lut></lut>
							<lut1></lut1>
							<asc_sop></asc_sop>
							<asc_sat></asc_sat>
							<lut2></lut2>
						</colorinfo>
						<labels>
							<label2>Iris</label2>
						</labels>
					</clipitem>
					<clipitem id="clipitem-400">
						<masterclipid>masterclip-191</masterclipid>
						<name>2021_12_14_08_19_11.mov</name>
						<enabled>TRUE</enabled>
						<duration>555</duration>
						<rate>
							<timebase>24</timebase>
							<ntsc>FALSE</ntsc>
						</rate>
						<start>28123</start>
						<end>28148</end>
						<in>409</in>
						<out>434</out>
						<pproTicksIn>4328856000000</pproTicksIn>
						<pproTicksOut>4593456000000</pproTicksOut>
						<alphatype>none</alphatype>
						<pixelaspectratio>square</pixelaspectratio>
						<anamorphic>FALSE</anamorphic>
						<file id="file-191">
							<name>2021_12_14_08_19_11.mov</name>
							<pathurl>file://localhost/F%3a/love%20song/boating/offline/2021_12_14_08_19_11.mov</pathurl>
							<rate>
								<timebase>24</timebase>
								<ntsc>FALSE</ntsc>
							</rate>
							<duration>555</duration>
							<timecode>
								<rate>
									<timebase>24</timebase>
									<ntsc>FALSE</ntsc>
								</rate>
								<string>00:00:00:00</string>
								<frame>0</frame>
								<displayformat>NDF</displayformat>
							</timecode>
							<media>
								<video>
									<samplecharacteristics>
										<rate>
											<timebase>24</timebase>
											<ntsc>FALSE</ntsc>
										</rate>
										<width>1920</width>
										<height>1080</height>
										<anamorphic>FALSE</anamorphic>
										<pixelaspectratio>square</pixelaspectratio>
										<fielddominance>none</fielddominance>
									</samplecharacteristics>
								</video>
								<audio>
									<samplecharacteristics>
										<depth>16</depth>
										<samplerate>48000</samplerate>
									</samplecharacteristics>
									<channelcount>2</channelcount>
								</audio>
							</media>
						</file>
						<logginginfo>
							<description></description>
							<scene></scene>
							<shottake></shottake>
							<lognote></lognote>
							<good></good>
							<originalvideofilename></originalvideofilename>
							<originalaudiofilename></originalaudiofilename>
						</logginginfo>
						<colorinfo>
							<lut></lut>
							<lut1></lut1>
							<asc_sop></asc_sop>
							<asc_sat></asc_sat>
							<lut2></lut2>
						</colorinfo>
						<labels>
							<label2>Iris</label2>
						</labels>
					</clipitem>
					<clipitem id="clipitem-401">
						<masterclipid>masterclip-192</masterclipid>
						<name>A008_10281041_C114.mp4</name>
						<enabled>TRUE</enabled>
						<duration>1476</duration>
						<rate>
							<timebase>24</timebase>
							<ntsc>FALSE</ntsc>
						</rate>
						<start>28148</start>
						<end>28160</end>
						<in>767</in>
						<out>779</out>
						<pproTicksIn>8117928000000</pproTicksIn>
						<pproTicksOut>8244936000000</pproTicksOut>
						<alphatype>none</alphatype>
						<pixelaspectratio>square</pixelaspectratio>
						<anamorphic>FALSE</anamorphic>
						<file id="file-192">
							<name>A008_10281041_C114.mp4</name>
							<pathurl>file://localhost/F%3a/love%20song/neelavara%20bridge/A008_10281041_C114.mp4</pathurl>
							<rate>
								<timebase>24</timebase>
								<ntsc>FALSE</ntsc>
							</rate>
							<duration>1476</duration>
							<timecode>
								<rate>
									<timebase>24</timebase>
									<ntsc>FALSE</ntsc>
								</rate>
								<string>10:41:40:07</string>
								<frame>924007</frame>
								<displayformat>NDF</displayformat>
							</timecode>
							<media>
								<video>
									<samplecharacteristics>
										<rate>
											<timebase>24</timebase>
											<ntsc>FALSE</ntsc>
										</rate>
										<width>1920</width>
										<height>1080</height>
										<anamorphic>FALSE</anamorphic>
										<pixelaspectratio>square</pixelaspectratio>
										<fielddominance>none</fielddominance>
									</samplecharacteristics>
								</video>
								<audio>
									<samplecharacteristics>
										<depth>16</depth>
										<samplerate>48000</samplerate>
									</samplecharacteristics>
									<channelcount>2</channelcount>
								</audio>
							</media>
						</file>
						<logginginfo>
							<description></description>
							<scene></scene>
							<shottake></shottake>
							<lognote></lognote>
							<good></good>
							<originalvideofilename></originalvideofilename>
							<originalaudiofilename></originalaudiofilename>
						</logginginfo>
						<colorinfo>
							<lut></lut>
							<lut1></lut1>
							<asc_sop></asc_sop>
							<asc_sat></asc_sat>
							<lut2></lut2>
						</colorinfo>
						<labels>
							<label2>Iris</label2>
						</labels>
					</clipitem>
					<clipitem id="clipitem-402">
						<masterclipid>masterclip-193</masterclipid>
						<name>2021_12_14_09_06_06.mov</name>
						<enabled>TRUE</enabled>
						<duration>410</duration>
						<rate>
							<timebase>24</timebase>
							<ntsc>FALSE</ntsc>
						</rate>
						<start>28182</start>
						<end>28224</end>
						<in>179</in>
						<out>221</out>
						<pproTicksIn>1894536000000</pproTicksIn>
						<pproTicksOut>2339064000000</pproTicksOut>
						<alphatype>none</alphatype>
						<pixelaspectratio>square</pixelaspectratio>
						<anamorphic>FALSE</anamorphic>
						<file id="file-193">
							<name>2021_12_14_09_06_06.mov</name>
							<pathurl>file://localhost/F%3a/love%20song/boating/offline/2021_12_14_09_06_06.mov</pathurl>
							<rate>
								<timebase>24</timebase>
								<ntsc>FALSE</ntsc>
							</rate>
							<duration>410</duration>
							<timecode>
								<rate>
									<timebase>24</timebase>
									<ntsc>FALSE</ntsc>
								</rate>
								<string>00:00:00:00</string>
								<frame>0</frame>
								<displayformat>NDF</displayformat>
							</timecode>
							<media>
								<video>
									<samplecharacteristics>
										<rate>
											<timebase>24</timebase>
											<ntsc>FALSE</ntsc>
										</rate>
										<width>1920</width>
										<height>1080</height>
										<anamorphic>FALSE</anamorphic>
										<pixelaspectratio>square</pixelaspectratio>
										<fielddominance>none</fielddominance>
									</samplecharacteristics>
								</video>
								<audio>
									<samplecharacteristics>
										<depth>16</depth>
										<samplerate>48000</samplerate>
									</samplecharacteristics>
									<channelcount>2</channelcount>
								</audio>
							</media>
						</file>
						<logginginfo>
							<description></description>
							<scene></scene>
							<shottake></shottake>
							<lognote></lognote>
							<good></good>
							<originalvideofilename></originalvideofilename>
							<originalaudiofilename></originalaudiofilename>
						</logginginfo>
						<colorinfo>
							<lut></lut>
							<lut1></lut1>
							<asc_sop></asc_sop>
							<asc_sat></asc_sat>
							<lut2></lut2>
						</colorinfo>
						<labels>
							<label2>Iris</label2>
						</labels>
					</clipitem>
					<clipitem id="clipitem-403">
						<masterclipid>masterclip-194</masterclipid>
						<name>DJI_0115.mov</name>
						<enabled>TRUE</enabled>
						<duration>478</duration>
						<rate>
							<timebase>24</timebase>
							<ntsc>FALSE</ntsc>
						</rate>
						<start>28224</start>
						<end>28267</end>
						<in>184</in>
						<out>227</out>
						<pproTicksIn>1947456000000</pproTicksIn>
						<pproTicksOut>2402568000000</pproTicksOut>
						<alphatype>none</alphatype>
						<pixelaspectratio>square</pixelaspectratio>
						<anamorphic>FALSE</anamorphic>
						<file id="file-194">
							<name>DJI_0115.mov</name>
							<pathurl>file://localhost/F%3a/love%20song/walking%20gadde%20(drone)/DJI_0115.mov</pathurl>
							<rate>
								<timebase>50</timebase>
								<ntsc>FALSE</ntsc>
							</rate>
							<duration>997</duration>
							<timecode>
								<rate>
									<timebase>50</timebase>
									<ntsc>FALSE</ntsc>
								</rate>
								<string>00:00:00:00</string>
								<frame>0</frame>
								<displayformat>NDF</displayformat>
							</timecode>
							<media>
								<video>
									<samplecharacteristics>
										<rate>
											<timebase>50</timebase>
											<ntsc>FALSE</ntsc>
										</rate>
										<width>1920</width>
										<height>1080</height>
										<anamorphic>FALSE</anamorphic>
										<pixelaspectratio>square</pixelaspectratio>
										<fielddominance>none</fielddominance>
									</samplecharacteristics>
								</video>
								<audio>
									<samplecharacteristics>
										<depth>16</depth>
										<samplerate>48000</samplerate>
									</samplecharacteristics>
									<channelcount>2</channelcount>
								</audio>
							</media>
						</file>
						<logginginfo>
							<description></description>
							<scene></scene>
							<shottake></shottake>
							<lognote></lognote>
							<good></good>
							<originalvideofilename></originalvideofilename>
							<originalaudiofilename></originalaudiofilename>
						</logginginfo>
						<colorinfo>
							<lut></lut>
							<lut1></lut1>
							<asc_sop></asc_sop>
							<asc_sat></asc_sat>
							<lut2></lut2>
						</colorinfo>
						<labels>
							<label2>Iris</label2>
						</labels>
					</clipitem>
					<clipitem id="clipitem-404">
						<masterclipid>masterclip-195</masterclipid>
						<name>DJI_0116.mov</name>
						<enabled>TRUE</enabled>
						<duration>1092</duration>
						<rate>
							<timebase>24</timebase>
							<ntsc>FALSE</ntsc>
						</rate>
						<start>28267</start>
						<end>28316</end>
						<in>887</in>
						<out>936</out>
						<pproTicksIn>9388008000000</pproTicksIn>
						<pproTicksOut>9906624000000</pproTicksOut>
						<alphatype>none</alphatype>
						<pixelaspectratio>square</pixelaspectratio>
						<anamorphic>FALSE</anamorphic>
						<file id="file-195">
							<name>DJI_0116.mov</name>
							<pathurl>file://localhost/F%3a/love%20song/walking%20gadde%20(drone)/DJI_0116.mov</pathurl>
							<rate>
								<timebase>50</timebase>
								<ntsc>FALSE</ntsc>
							</rate>
							<duration>2276</duration>
							<timecode>
								<rate>
									<timebase>50</timebase>
									<ntsc>FALSE</ntsc>
								</rate>
								<string>00:00:00:00</string>
								<frame>0</frame>
								<displayformat>NDF</displayformat>
							</timecode>
							<media>
								<video>
									<samplecharacteristics>
										<rate>
											<timebase>50</timebase>
											<ntsc>FALSE</ntsc>
										</rate>
										<width>1920</width>
										<height>1080</height>
										<anamorphic>FALSE</anamorphic>
										<pixelaspectratio>square</pixelaspectratio>
										<fielddominance>none</fielddominance>
									</samplecharacteristics>
								</video>
								<audio>
									<samplecharacteristics>
										<depth>16</depth>
										<samplerate>48000</samplerate>
									</samplecharacteristics>
									<channelcount>2</channelcount>
								</audio>
							</media>
						</file>
						<logginginfo>
							<description></description>
							<scene></scene>
							<shottake></shottake>
							<lognote></lognote>
							<good></good>
							<originalvideofilename></originalvideofilename>
							<originalaudiofilename></originalaudiofilename>
						</logginginfo>
						<colorinfo>
							<lut></lut>
							<lut1></lut1>
							<asc_sop></asc_sop>
							<asc_sat></asc_sat>
							<lut2></lut2>
						</colorinfo>
						<labels>
							<label2>Iris</label2>
						</labels>
					</clipitem>
					<clipitem id="clipitem-405">
						<masterclipid>masterclip-196</masterclipid>
						<name>A008_10281032_C105.mp4</name>
						<enabled>TRUE</enabled>
						<duration>2042</duration>
						<rate>
							<timebase>24</timebase>
							<ntsc>FALSE</ntsc>
						</rate>
						<start>28316</start>
						<end>28345</end>
						<in>145</in>
						<out>173</out>
						<pproTicksIn>2296728000000</pproTicksIn>
						<pproTicksOut>2757132000000</pproTicksOut>
						<alphatype>none</alphatype>
						<pixelaspectratio>square</pixelaspectratio>
						<anamorphic>FALSE</anamorphic>
						<file id="file-196">
							<name>A008_10281032_C105.mp4</name>
							<pathurl>file://localhost/F%3a/love%20song/neelavara%20bridge/A008_10281032_C105.mp4</pathurl>
							<rate>
								<timebase>24</timebase>
								<ntsc>FALSE</ntsc>
							</rate>
							<duration>3064</duration>
							<timecode>
								<rate>
									<timebase>24</timebase>
									<ntsc>FALSE</ntsc>
								</rate>
								<string>10:32:33:10</string>
								<frame>910882</frame>
								<displayformat>NDF</displayformat>
							</timecode>
							<media>
								<video>
									<samplecharacteristics>
										<rate>
											<timebase>24</timebase>
											<ntsc>FALSE</ntsc>
										</rate>
										<width>1920</width>
										<height>1080</height>
										<anamorphic>FALSE</anamorphic>
										<pixelaspectratio>square</pixelaspectratio>
										<fielddominance>none</fielddominance>
									</samplecharacteristics>
								</video>
								<audio>
									<samplecharacteristics>
										<depth>16</depth>
										<samplerate>48000</samplerate>
									</samplecharacteristics>
									<channelcount>2</channelcount>
								</audio>
							</media>
						</file>
						<filter>
							<effect>
								<name>Time Remap</name>
								<effectid>timeremap</effectid>
								<effectcategory>motion</effectcategory>
								<effecttype>motion</effecttype>
								<mediatype>video</mediatype>
								<parameter authoringApp="PremierePro">
									<parameterid>variablespeed</parameterid>
									<name>variablespeed</name>
									<valuemin>0</valuemin>
									<valuemax>1</valuemax>
									<value>0</value>
								</parameter>
								<parameter authoringApp="PremierePro">
									<parameterid>speed</parameterid>
									<name>speed</name>
									<valuemin>-100000</valuemin>
									<valuemax>100000</valuemax>
									<value>150</value>
								</parameter>
								<parameter authoringApp="PremierePro">
									<parameterid>reverse</parameterid>
									<name>reverse</name>
									<value>FALSE</value>
								</parameter>
								<parameter authoringApp="PremierePro">
									<parameterid>frameblending</parameterid>
									<name>frameblending</name>
									<value>FALSE</value>
								</parameter>
								<parameter authoringApp="PremierePro">
									<parameterid>graphdict</parameterid>
									<name>graphdict</name>
									<valuemin>0</valuemin>
									<valuemax>3063</valuemax>
									<value>0</value>
									<keyframe>
										<when>0</when>
										<value>0</value>
										<speedvirtualkf>TRUE</speedvirtualkf>
										<speedkfstart>TRUE</speedkfstart>
									</keyframe>
									<keyframe>
										<when>145</when>
										<value>217</value>
										<speedvirtualkf>TRUE</speedvirtualkf>
										<speedkfin>TRUE</speedkfin>
									</keyframe>
									<keyframe>
										<when>173</when>
										<value>259</value>
										<speedvirtualkf>TRUE</speedvirtualkf>
										<speedkfout>TRUE</speedkfout>
									</keyframe>
									<keyframe>
										<when>2042</when>
										<value>3063</value>
										<speedvirtualkf>TRUE</speedvirtualkf>
										<speedkfend>TRUE</speedkfend>
									</keyframe>
									<interpolation>
										<name>FCPCurve</name>
									</interpolation>
								</parameter>
							</effect>
						</filter>
						<logginginfo>
							<description></description>
							<scene></scene>
							<shottake></shottake>
							<lognote></lognote>
							<good></good>
							<originalvideofilename></originalvideofilename>
							<originalaudiofilename></originalaudiofilename>
						</logginginfo>
						<colorinfo>
							<lut></lut>
							<lut1></lut1>
							<asc_sop></asc_sop>
							<asc_sat></asc_sat>
							<lut2></lut2>
						</colorinfo>
						<labels>
							<label2>Iris</label2>
						</labels>
					</clipitem>
					<clipitem id="clipitem-406">
						<masterclipid>masterclip-197</masterclipid>
						<name>A008_10281055_C119.mp4</name>
						<enabled>TRUE</enabled>
						<duration>4016</duration>
						<rate>
							<timebase>24</timebase>
							<ntsc>FALSE</ntsc>
						</rate>
						<start>28417</start>
						<end>28427</end>
						<in>2162</in>
						<out>2172</out>
						<pproTicksIn>22882608000000</pproTicksIn>
						<pproTicksOut>22988448000000</pproTicksOut>
						<alphatype>none</alphatype>
						<pixelaspectratio>square</pixelaspectratio>
						<anamorphic>FALSE</anamorphic>
						<file id="file-197">
							<name>A008_10281055_C119.mp4</name>
							<pathurl>file://localhost/F%3a/love%20song/neelavara%20bridge/A008_10281055_C119.mp4</pathurl>
							<rate>
								<timebase>24</timebase>
								<ntsc>FALSE</ntsc>
							</rate>
							<duration>4016</duration>
							<timecode>
								<rate>
									<timebase>24</timebase>
									<ntsc>FALSE</ntsc>
								</rate>
								<string>10:55:45:15</string>
								<frame>944295</frame>
								<displayformat>NDF</displayformat>
							</timecode>
							<media>
								<video>
									<samplecharacteristics>
										<rate>
											<timebase>24</timebase>
											<ntsc>FALSE</ntsc>
										</rate>
										<width>1920</width>
										<height>1080</height>
										<anamorphic>FALSE</anamorphic>
										<pixelaspectratio>square</pixelaspectratio>
										<fielddominance>none</fielddominance>
									</samplecharacteristics>
								</video>
								<audio>
									<samplecharacteristics>
										<depth>16</depth>
										<samplerate>48000</samplerate>
									</samplecharacteristics>
									<channelcount>2</channelcount>
								</audio>
							</media>
						</file>
						<logginginfo>
							<description></description>
							<scene></scene>
							<shottake></shottake>
							<lognote></lognote>
							<good></good>
							<originalvideofilename></originalvideofilename>
							<originalaudiofilename></originalaudiofilename>
						</logginginfo>
						<colorinfo>
							<lut></lut>
							<lut1></lut1>
							<asc_sop></asc_sop>
							<asc_sat></asc_sat>
							<lut2></lut2>
						</colorinfo>
						<labels>
							<label2>Iris</label2>
						</labels>
					</clipitem>
					<clipitem id="clipitem-407">
						<masterclipid>masterclip-198</masterclipid>
						<name>DJI_0090.mov</name>
						<enabled>TRUE</enabled>
						<duration>148</duration>
						<rate>
							<timebase>24</timebase>
							<ntsc>FALSE</ntsc>
						</rate>
						<start>28508</start>
						<end>28547</end>
						<in>39</in>
						<out>78</out>
						<pproTicksIn>412776000000</pproTicksIn>
						<pproTicksOut>825552000000</pproTicksOut>
						<alphatype>none</alphatype>
						<pixelaspectratio>square</pixelaspectratio>
						<anamorphic>FALSE</anamorphic>
						<file id="file-198">
							<name>DJI_0090.mov</name>
							<pathurl>file://localhost/F%3a/love%20song/bike%20ride%20(drone)/DJI_0090.mov</pathurl>
							<rate>
								<timebase>50</timebase>
								<ntsc>FALSE</ntsc>
							</rate>
							<duration>310</duration>
							<timecode>
								<rate>
									<timebase>50</timebase>
									<ntsc>FALSE</ntsc>
								</rate>
								<string>00:00:00:00</string>
								<frame>0</frame>
								<displayformat>NDF</displayformat>
							</timecode>
							<media>
								<video>
									<samplecharacteristics>
										<rate>
											<timebase>50</timebase>
											<ntsc>FALSE</ntsc>
										</rate>
										<width>1920</width>
										<height>1080</height>
										<anamorphic>FALSE</anamorphic>
										<pixelaspectratio>square</pixelaspectratio>
										<fielddominance>none</fielddominance>
									</samplecharacteristics>
								</video>
								<audio>
									<samplecharacteristics>
										<depth>16</depth>
										<samplerate>48000</samplerate>
									</samplecharacteristics>
									<channelcount>2</channelcount>
								</audio>
							</media>
						</file>
						<logginginfo>
							<description></description>
							<scene></scene>
							<shottake></shottake>
							<lognote></lognote>
							<good></good>
							<originalvideofilename></originalvideofilename>
							<originalaudiofilename></originalaudiofilename>
						</logginginfo>
						<colorinfo>
							<lut></lut>
							<lut1></lut1>
							<asc_sop></asc_sop>
							<asc_sat></asc_sat>
							<lut2></lut2>
						</colorinfo>
						<labels>
							<label2>Iris</label2>
						</labels>
					</clipitem>
					<clipitem id="clipitem-408">
						<masterclipid>masterclip-199</masterclipid>
						<name>2021_12_14_08_41_28.mov</name>
						<enabled>TRUE</enabled>
						<duration>301</duration>
						<rate>
							<timebase>24</timebase>
							<ntsc>FALSE</ntsc>
						</rate>
						<start>28609</start>
						<end>28835</end>
						<in>75</in>
						<out>301</out>
						<pproTicksIn>793800000000</pproTicksIn>
						<pproTicksOut>3185784000000</pproTicksOut>
						<alphatype>none</alphatype>
						<pixelaspectratio>square</pixelaspectratio>
						<anamorphic>FALSE</anamorphic>
						<file id="file-199">
							<name>2021_12_14_08_41_28.mov</name>
							<pathurl>file://localhost/F%3a/love%20song/boating/offline/2021_12_14_08_41_28.mov</pathurl>
							<rate>
								<timebase>25</timebase>
								<ntsc>FALSE</ntsc>
							</rate>
							<duration>314</duration>
							<timecode>
								<rate>
									<timebase>25</timebase>
									<ntsc>FALSE</ntsc>
								</rate>
								<string>00:00:00:00</string>
								<frame>0</frame>
								<displayformat>NDF</displayformat>
							</timecode>
							<media>
								<video>
									<samplecharacteristics>
										<rate>
											<timebase>25</timebase>
											<ntsc>FALSE</ntsc>
										</rate>
										<width>1920</width>
										<height>1080</height>
										<anamorphic>FALSE</anamorphic>
										<pixelaspectratio>square</pixelaspectratio>
										<fielddominance>none</fielddominance>
									</samplecharacteristics>
								</video>
								<audio>
									<samplecharacteristics>
										<depth>16</depth>
										<samplerate>48000</samplerate>
									</samplecharacteristics>
									<channelcount>2</channelcount>
								</audio>
							</media>
						</file>
						<logginginfo>
							<description></description>
							<scene></scene>
							<shottake></shottake>
							<lognote></lognote>
							<good></good>
							<originalvideofilename></originalvideofilename>
							<originalaudiofilename></originalaudiofilename>
						</logginginfo>
						<colorinfo>
							<lut></lut>
							<lut1></lut1>
							<asc_sop></asc_sop>
							<asc_sat></asc_sat>
							<lut2></lut2>
						</colorinfo>
						<labels>
							<label2>Iris</label2>
						</labels>
					</clipitem>
					<clipitem id="clipitem-409">
						<masterclipid>masterclip-200</masterclipid>
						<name>A011_10290401_C035.mp4</name>
						<enabled>TRUE</enabled>
						<duration>427</duration>
						<rate>
							<timebase>24</timebase>
							<ntsc>FALSE</ntsc>
						</rate>
						<start>28835</start>
						<end>28911</end>
						<in>84</in>
						<out>160</out>
						<pproTicksIn>889056000000</pproTicksIn>
						<pproTicksOut>1693440000000</pproTicksOut>
						<alphatype>none</alphatype>
						<pixelaspectratio>square</pixelaspectratio>
						<anamorphic>FALSE</anamorphic>
						<file id="file-200">
							<name>A011_10290401_C035.mp4</name>
							<pathurl>file://localhost/F%3a/After%20bengaluru%20udupi/scene%2047/A011_10290401_C035.mp4</pathurl>
							<rate>
								<timebase>24</timebase>
								<ntsc>FALSE</ntsc>
							</rate>
							<duration>427</duration>
							<timecode>
								<rate>
									<timebase>24</timebase>
									<ntsc>FALSE</ntsc>
								</rate>
								<string>04:01:15:05</string>
								<frame>347405</frame>
								<displayformat>NDF</displayformat>
							</timecode>
							<media>
								<video>
									<samplecharacteristics>
										<rate>
											<timebase>24</timebase>
											<ntsc>FALSE</ntsc>
										</rate>
										<width>1920</width>
										<height>1080</height>
										<anamorphic>FALSE</anamorphic>
										<pixelaspectratio>square</pixelaspectratio>
										<fielddominance>none</fielddominance>
									</samplecharacteristics>
								</video>
								<audio>
									<samplecharacteristics>
										<depth>16</depth>
										<samplerate>48000</samplerate>
									</samplecharacteristics>
									<channelcount>2</channelcount>
								</audio>
							</media>
						</file>
						<logginginfo>
							<description></description>
							<scene></scene>
							<shottake></shottake>
							<lognote></lognote>
							<good></good>
							<originalvideofilename></originalvideofilename>
							<originalaudiofilename></originalaudiofilename>
						</logginginfo>
						<colorinfo>
							<lut></lut>
							<lut1></lut1>
							<asc_sop></asc_sop>
							<asc_sat></asc_sat>
							<lut2></lut2>
						</colorinfo>
						<labels>
							<label2>Iris</label2>
						</labels>
					</clipitem>
					<clipitem id="clipitem-410">
						<masterclipid>masterclip-201</masterclipid>
						<name>A011_10290409_C042.mp4</name>
						<enabled>TRUE</enabled>
						<duration>1398</duration>
						<rate>
							<timebase>24</timebase>
							<ntsc>FALSE</ntsc>
						</rate>
						<start>28911</start>
						<end>28959</end>
						<in>114</in>
						<out>162</out>
						<pproTicksIn>1206576000000</pproTicksIn>
						<pproTicksOut>1714608000000</pproTicksOut>
						<alphatype>none</alphatype>
						<pixelaspectratio>square</pixelaspectratio>
						<anamorphic>FALSE</anamorphic>
						<file id="file-201">
							<name>A011_10290409_C042.mp4</name>
							<pathurl>file://localhost/F%3a/After%20bengaluru%20udupi/scene%2047/A011_10290409_C042.mp4</pathurl>
							<rate>
								<timebase>24</timebase>
								<ntsc>FALSE</ntsc>
							</rate>
							<duration>1398</duration>
							<timecode>
								<rate>
									<timebase>24</timebase>
									<ntsc>FALSE</ntsc>
								</rate>
								<string>04:09:02:20</string>
								<frame>358628</frame>
								<displayformat>NDF</displayformat>
							</timecode>
							<media>
								<video>
									<samplecharacteristics>
										<rate>
											<timebase>24</timebase>
											<ntsc>FALSE</ntsc>
										</rate>
										<width>1920</width>
										<height>1080</height>
										<anamorphic>FALSE</anamorphic>
										<pixelaspectratio>square</pixelaspectratio>
										<fielddominance>none</fielddominance>
									</samplecharacteristics>
								</video>
								<audio>
									<samplecharacteristics>
										<depth>16</depth>
										<samplerate>48000</samplerate>
									</samplecharacteristics>
									<channelcount>2</channelcount>
								</audio>
							</media>
						</file>
						<logginginfo>
							<description></description>
							<scene></scene>
							<shottake></shottake>
							<lognote></lognote>
							<good></good>
							<originalvideofilename></originalvideofilename>
							<originalaudiofilename></originalaudiofilename>
						</logginginfo>
						<colorinfo>
							<lut></lut>
							<lut1></lut1>
							<asc_sop></asc_sop>
							<asc_sat></asc_sat>
							<lut2></lut2>
						</colorinfo>
						<labels>
							<label2>Iris</label2>
						</labels>
					</clipitem>
					<clipitem id="clipitem-411">
						<masterclipid>masterclip-202</masterclipid>
						<name>A011_10290315_C015.mp4</name>
						<enabled>TRUE</enabled>
						<duration>1533</duration>
						<rate>
							<timebase>24</timebase>
							<ntsc>FALSE</ntsc>
						</rate>
						<start>28959</start>
						<end>29025</end>
						<in>105</in>
						<out>171</out>
						<pproTicksIn>1111320000000</pproTicksIn>
						<pproTicksOut>1809864000000</pproTicksOut>
						<alphatype>none</alphatype>
						<pixelaspectratio>square</pixelaspectratio>
						<anamorphic>FALSE</anamorphic>
						<file id="file-202">
							<name>A011_10290315_C015.mp4</name>
							<pathurl>file://localhost/F%3a/After%20bengaluru%20udupi/scene%2047/A011_10290315_C015.mp4</pathurl>
							<rate>
								<timebase>24</timebase>
								<ntsc>FALSE</ntsc>
							</rate>
							<duration>1533</duration>
							<timecode>
								<rate>
									<timebase>24</timebase>
									<ntsc>FALSE</ntsc>
								</rate>
								<string>03:15:50:17</string>
								<frame>282017</frame>
								<displayformat>NDF</displayformat>
							</timecode>
							<media>
								<video>
									<samplecharacteristics>
										<rate>
											<timebase>24</timebase>
											<ntsc>FALSE</ntsc>
										</rate>
										<width>1920</width>
										<height>1080</height>
										<anamorphic>FALSE</anamorphic>
										<pixelaspectratio>square</pixelaspectratio>
										<fielddominance>none</fielddominance>
									</samplecharacteristics>
								</video>
								<audio>
									<samplecharacteristics>
										<depth>16</depth>
										<samplerate>48000</samplerate>
									</samplecharacteristics>
									<channelcount>2</channelcount>
								</audio>
							</media>
						</file>
						<logginginfo>
							<description></description>
							<scene></scene>
							<shottake></shottake>
							<lognote></lognote>
							<good></good>
							<originalvideofilename></originalvideofilename>
							<originalaudiofilename></originalaudiofilename>
						</logginginfo>
						<colorinfo>
							<lut></lut>
							<lut1></lut1>
							<asc_sop></asc_sop>
							<asc_sat></asc_sat>
							<lut2></lut2>
						</colorinfo>
						<labels>
							<label2>Iris</label2>
						</labels>
					</clipitem>
					<clipitem id="clipitem-412">
						<masterclipid>masterclip-201</masterclipid>
						<name>A011_10290409_C042.mp4</name>
						<enabled>TRUE</enabled>
						<duration>1398</duration>
						<rate>
							<timebase>24</timebase>
							<ntsc>FALSE</ntsc>
						</rate>
						<start>29025</start>
						<end>29139</end>
						<in>229</in>
						<out>343</out>
						<pproTicksIn>2423736000000</pproTicksIn>
						<pproTicksOut>3630312000000</pproTicksOut>
						<alphatype>none</alphatype>
						<file id="file-201"/>
						<link>
							<linkclipref>clipitem-412</linkclipref>
							<mediatype>video</mediatype>
							<trackindex>1</trackindex>
							<clipindex>458</clipindex>
						</link>
						<link>
							<linkclipref>clipitem-629</linkclipref>
							<mediatype>audio</mediatype>
							<trackindex>1</trackindex>
							<clipindex>153</clipindex>
							<groupindex>1</groupindex>
						</link>
						<link>
							<linkclipref>clipitem-793</linkclipref>
							<mediatype>audio</mediatype>
							<trackindex>2</trackindex>
							<clipindex>153</clipindex>
							<groupindex>1</groupindex>
						</link>
						<logginginfo>
							<description></description>
							<scene></scene>
							<shottake></shottake>
							<lognote></lognote>
							<good></good>
							<originalvideofilename></originalvideofilename>
							<originalaudiofilename></originalaudiofilename>
						</logginginfo>
						<colorinfo>
							<lut></lut>
							<lut1></lut1>
							<asc_sop></asc_sop>
							<asc_sat></asc_sat>
							<lut2></lut2>
						</colorinfo>
						<labels>
							<label2>Iris</label2>
						</labels>
					</clipitem>
					<clipitem id="clipitem-413">
						<masterclipid>masterclip-203</masterclipid>
						<name>A011_10290358_C033.mp4</name>
						<enabled>TRUE</enabled>
						<duration>1498</duration>
						<rate>
							<timebase>24</timebase>
							<ntsc>FALSE</ntsc>
						</rate>
						<start>29139</start>
						<end>29220</end>
						<in>373</in>
						<out>454</out>
						<pproTicksIn>3947832000000</pproTicksIn>
						<pproTicksOut>4805136000000</pproTicksOut>
						<alphatype>none</alphatype>
						<pixelaspectratio>square</pixelaspectratio>
						<anamorphic>FALSE</anamorphic>
						<file id="file-203">
							<name>A011_10290358_C033.mp4</name>
							<pathurl>file://localhost/F%3a/After%20bengaluru%20udupi/scene%2047/A011_10290358_C033.mp4</pathurl>
							<rate>
								<timebase>24</timebase>
								<ntsc>FALSE</ntsc>
							</rate>
							<duration>1498</duration>
							<timecode>
								<rate>
									<timebase>24</timebase>
									<ntsc>FALSE</ntsc>
								</rate>
								<string>03:58:28:01</string>
								<frame>343393</frame>
								<displayformat>NDF</displayformat>
							</timecode>
							<media>
								<video>
									<samplecharacteristics>
										<rate>
											<timebase>24</timebase>
											<ntsc>FALSE</ntsc>
										</rate>
										<width>1920</width>
										<height>1080</height>
										<anamorphic>FALSE</anamorphic>
										<pixelaspectratio>square</pixelaspectratio>
										<fielddominance>none</fielddominance>
									</samplecharacteristics>
								</video>
								<audio>
									<samplecharacteristics>
										<depth>16</depth>
										<samplerate>48000</samplerate>
									</samplecharacteristics>
									<channelcount>2</channelcount>
								</audio>
							</media>
						</file>
						<link>
							<linkclipref>clipitem-413</linkclipref>
							<mediatype>video</mediatype>
							<trackindex>1</trackindex>
							<clipindex>459</clipindex>
						</link>
						<link>
							<linkclipref>clipitem-630</linkclipref>
							<mediatype>audio</mediatype>
							<trackindex>1</trackindex>
							<clipindex>154</clipindex>
							<groupindex>1</groupindex>
						</link>
						<link>
							<linkclipref>clipitem-794</linkclipref>
							<mediatype>audio</mediatype>
							<trackindex>2</trackindex>
							<clipindex>154</clipindex>
							<groupindex>1</groupindex>
						</link>
						<logginginfo>
							<description></description>
							<scene></scene>
							<shottake></shottake>
							<lognote></lognote>
							<good></good>
							<originalvideofilename></originalvideofilename>
							<originalaudiofilename></originalaudiofilename>
						</logginginfo>
						<colorinfo>
							<lut></lut>
							<lut1></lut1>
							<asc_sop></asc_sop>
							<asc_sat></asc_sat>
							<lut2></lut2>
						</colorinfo>
						<labels>
							<label2>Iris</label2>
						</labels>
					</clipitem>
					<clipitem id="clipitem-414">
						<masterclipid>masterclip-204</masterclipid>
						<name>A011_10290336_C021.mp4</name>
						<enabled>TRUE</enabled>
						<duration>1791</duration>
						<rate>
							<timebase>24</timebase>
							<ntsc>FALSE</ntsc>
						</rate>
						<start>29220</start>
						<end>29276</end>
						<in>747</in>
						<out>803</out>
						<pproTicksIn>7906248000000</pproTicksIn>
						<pproTicksOut>8498952000000</pproTicksOut>
						<alphatype>none</alphatype>
						<pixelaspectratio>square</pixelaspectratio>
						<anamorphic>FALSE</anamorphic>
						<file id="file-204">
							<name>A011_10290336_C021.mp4</name>
							<pathurl>file://localhost/F%3a/After%20bengaluru%20udupi/scene%2047/A011_10290336_C021.mp4</pathurl>
							<rate>
								<timebase>24</timebase>
								<ntsc>FALSE</ntsc>
							</rate>
							<duration>1791</duration>
							<timecode>
								<rate>
									<timebase>24</timebase>
									<ntsc>FALSE</ntsc>
								</rate>
								<string>03:36:24:15</string>
								<frame>311631</frame>
								<displayformat>NDF</displayformat>
							</timecode>
							<media>
								<video>
									<samplecharacteristics>
										<rate>
											<timebase>24</timebase>
											<ntsc>FALSE</ntsc>
										</rate>
										<width>1920</width>
										<height>1080</height>
										<anamorphic>FALSE</anamorphic>
										<pixelaspectratio>square</pixelaspectratio>
										<fielddominance>none</fielddominance>
									</samplecharacteristics>
								</video>
								<audio>
									<samplecharacteristics>
										<depth>16</depth>
										<samplerate>48000</samplerate>
									</samplecharacteristics>
									<channelcount>2</channelcount>
								</audio>
							</media>
						</file>
						<link>
							<linkclipref>clipitem-414</linkclipref>
							<mediatype>video</mediatype>
							<trackindex>1</trackindex>
							<clipindex>460</clipindex>
						</link>
						<link>
							<linkclipref>clipitem-631</linkclipref>
							<mediatype>audio</mediatype>
							<trackindex>1</trackindex>
							<clipindex>155</clipindex>
							<groupindex>1</groupindex>
						</link>
						<link>
							<linkclipref>clipitem-795</linkclipref>
							<mediatype>audio</mediatype>
							<trackindex>2</trackindex>
							<clipindex>155</clipindex>
							<groupindex>1</groupindex>
						</link>
						<logginginfo>
							<description></description>
							<scene></scene>
							<shottake></shottake>
							<lognote></lognote>
							<good></good>
							<originalvideofilename></originalvideofilename>
							<originalaudiofilename></originalaudiofilename>
						</logginginfo>
						<colorinfo>
							<lut></lut>
							<lut1></lut1>
							<asc_sop></asc_sop>
							<asc_sat></asc_sat>
							<lut2></lut2>
						</colorinfo>
						<labels>
							<label2>Iris</label2>
						</labels>
					</clipitem>
					<clipitem id="clipitem-415">
						<masterclipid>masterclip-205</masterclipid>
						<name>A011_10290325_C016.mp4</name>
						<enabled>TRUE</enabled>
						<duration>1686</duration>
						<rate>
							<timebase>24</timebase>
							<ntsc>FALSE</ntsc>
						</rate>
						<start>29276</start>
						<end>29384</end>
						<in>706</in>
						<out>814</out>
						<pproTicksIn>7472304000000</pproTicksIn>
						<pproTicksOut>8615376000000</pproTicksOut>
						<alphatype>none</alphatype>
						<pixelaspectratio>square</pixelaspectratio>
						<anamorphic>FALSE</anamorphic>
						<file id="file-205">
							<name>A011_10290325_C016.mp4</name>
							<pathurl>file://localhost/F%3a/After%20bengaluru%20udupi/scene%2047/A011_10290325_C016.mp4</pathurl>
							<rate>
								<timebase>24</timebase>
								<ntsc>FALSE</ntsc>
							</rate>
							<duration>1686</duration>
							<timecode>
								<rate>
									<timebase>24</timebase>
									<ntsc>FALSE</ntsc>
								</rate>
								<string>03:25:12:01</string>
								<frame>295489</frame>
								<displayformat>NDF</displayformat>
							</timecode>
							<media>
								<video>
									<samplecharacteristics>
										<rate>
											<timebase>24</timebase>
											<ntsc>FALSE</ntsc>
										</rate>
										<width>1920</width>
										<height>1080</height>
										<anamorphic>FALSE</anamorphic>
										<pixelaspectratio>square</pixelaspectratio>
										<fielddominance>none</fielddominance>
									</samplecharacteristics>
								</video>
								<audio>
									<samplecharacteristics>
										<depth>16</depth>
										<samplerate>48000</samplerate>
									</samplecharacteristics>
									<channelcount>2</channelcount>
								</audio>
							</media>
						</file>
						<link>
							<linkclipref>clipitem-415</linkclipref>
							<mediatype>video</mediatype>
							<trackindex>1</trackindex>
							<clipindex>461</clipindex>
						</link>
						<link>
							<linkclipref>clipitem-632</linkclipref>
							<mediatype>audio</mediatype>
							<trackindex>1</trackindex>
							<clipindex>156</clipindex>
							<groupindex>1</groupindex>
						</link>
						<link>
							<linkclipref>clipitem-796</linkclipref>
							<mediatype>audio</mediatype>
							<trackindex>2</trackindex>
							<clipindex>156</clipindex>
							<groupindex>1</groupindex>
						</link>
						<logginginfo>
							<description></description>
							<scene></scene>
							<shottake></shottake>
							<lognote></lognote>
							<good></good>
							<originalvideofilename></originalvideofilename>
							<originalaudiofilename></originalaudiofilename>
						</logginginfo>
						<colorinfo>
							<lut></lut>
							<lut1></lut1>
							<asc_sop></asc_sop>
							<asc_sat></asc_sat>
							<lut2></lut2>
						</colorinfo>
						<labels>
							<label2>Iris</label2>
						</labels>
					</clipitem>
					<clipitem id="clipitem-416">
						<masterclipid>masterclip-204</masterclipid>
						<name>A011_10290336_C021.mp4</name>
						<enabled>TRUE</enabled>
						<duration>1791</duration>
						<rate>
							<timebase>24</timebase>
							<ntsc>FALSE</ntsc>
						</rate>
						<start>29384</start>
						<end>29459</end>
						<in>892</in>
						<out>967</out>
						<pproTicksIn>9440928000000</pproTicksIn>
						<pproTicksOut>10234728000000</pproTicksOut>
						<alphatype>none</alphatype>
						<file id="file-204"/>
						<link>
							<linkclipref>clipitem-416</linkclipref>
							<mediatype>video</mediatype>
							<trackindex>1</trackindex>
							<clipindex>462</clipindex>
						</link>
						<link>
							<linkclipref>clipitem-633</linkclipref>
							<mediatype>audio</mediatype>
							<trackindex>1</trackindex>
							<clipindex>157</clipindex>
							<groupindex>1</groupindex>
						</link>
						<link>
							<linkclipref>clipitem-797</linkclipref>
							<mediatype>audio</mediatype>
							<trackindex>2</trackindex>
							<clipindex>157</clipindex>
							<groupindex>1</groupindex>
						</link>
						<logginginfo>
							<description></description>
							<scene></scene>
							<shottake></shottake>
							<lognote></lognote>
							<good></good>
							<originalvideofilename></originalvideofilename>
							<originalaudiofilename></originalaudiofilename>
						</logginginfo>
						<colorinfo>
							<lut></lut>
							<lut1></lut1>
							<asc_sop></asc_sop>
							<asc_sat></asc_sat>
							<lut2></lut2>
						</colorinfo>
						<labels>
							<label2>Iris</label2>
						</labels>
					</clipitem>
					<clipitem id="clipitem-417">
						<masterclipid>masterclip-205</masterclipid>
						<name>A011_10290325_C016.mp4</name>
						<enabled>TRUE</enabled>
						<duration>1686</duration>
						<rate>
							<timebase>24</timebase>
							<ntsc>FALSE</ntsc>
						</rate>
						<start>29459</start>
						<end>29573</end>
						<in>875</in>
						<out>989</out>
						<pproTicksIn>9261000000000</pproTicksIn>
						<pproTicksOut>10467576000000</pproTicksOut>
						<alphatype>none</alphatype>
						<file id="file-205"/>
						<link>
							<linkclipref>clipitem-417</linkclipref>
							<mediatype>video</mediatype>
							<trackindex>1</trackindex>
							<clipindex>463</clipindex>
						</link>
						<link>
							<linkclipref>clipitem-634</linkclipref>
							<mediatype>audio</mediatype>
							<trackindex>1</trackindex>
							<clipindex>158</clipindex>
							<groupindex>1</groupindex>
						</link>
						<link>
							<linkclipref>clipitem-798</linkclipref>
							<mediatype>audio</mediatype>
							<trackindex>2</trackindex>
							<clipindex>158</clipindex>
							<groupindex>1</groupindex>
						</link>
						<logginginfo>
							<description></description>
							<scene></scene>
							<shottake></shottake>
							<lognote></lognote>
							<good></good>
							<originalvideofilename></originalvideofilename>
							<originalaudiofilename></originalaudiofilename>
						</logginginfo>
						<colorinfo>
							<lut></lut>
							<lut1></lut1>
							<asc_sop></asc_sop>
							<asc_sat></asc_sat>
							<lut2></lut2>
						</colorinfo>
						<labels>
							<label2>Iris</label2>
						</labels>
					</clipitem>
					<clipitem id="clipitem-418">
						<masterclipid>masterclip-205</masterclipid>
						<name>A011_10290325_C016.mp4</name>
						<enabled>TRUE</enabled>
						<duration>1686</duration>
						<rate>
							<timebase>24</timebase>
							<ntsc>FALSE</ntsc>
						</rate>
						<start>29573</start>
						<end>29609</end>
						<in>989</in>
						<out>1025</out>
						<pproTicksIn>10467576000000</pproTicksIn>
						<pproTicksOut>10848600000000</pproTicksOut>
						<alphatype>none</alphatype>
						<file id="file-205"/>
						<link>
							<linkclipref>clipitem-418</linkclipref>
							<mediatype>video</mediatype>
							<trackindex>1</trackindex>
							<clipindex>464</clipindex>
						</link>
						<link>
							<linkclipref>clipitem-635</linkclipref>
							<mediatype>audio</mediatype>
							<trackindex>1</trackindex>
							<clipindex>159</clipindex>
							<groupindex>1</groupindex>
						</link>
						<link>
							<linkclipref>clipitem-799</linkclipref>
							<mediatype>audio</mediatype>
							<trackindex>2</trackindex>
							<clipindex>159</clipindex>
							<groupindex>1</groupindex>
						</link>
						<logginginfo>
							<description></description>
							<scene></scene>
							<shottake></shottake>
							<lognote></lognote>
							<good></good>
							<originalvideofilename></originalvideofilename>
							<originalaudiofilename></originalaudiofilename>
						</logginginfo>
						<colorinfo>
							<lut></lut>
							<lut1></lut1>
							<asc_sop></asc_sop>
							<asc_sat></asc_sat>
							<lut2></lut2>
						</colorinfo>
						<labels>
							<label2>Iris</label2>
						</labels>
					</clipitem>
					<clipitem id="clipitem-419">
						<masterclipid>masterclip-204</masterclipid>
						<name>A011_10290336_C021.mp4</name>
						<enabled>TRUE</enabled>
						<duration>1791</duration>
						<rate>
							<timebase>24</timebase>
							<ntsc>FALSE</ntsc>
						</rate>
						<start>29609</start>
						<end>29734</end>
						<in>1103</in>
						<out>1228</out>
						<pproTicksIn>11674152000000</pproTicksIn>
						<pproTicksOut>12997152000000</pproTicksOut>
						<alphatype>none</alphatype>
						<file id="file-204"/>
						<link>
							<linkclipref>clipitem-419</linkclipref>
							<mediatype>video</mediatype>
							<trackindex>1</trackindex>
							<clipindex>465</clipindex>
						</link>
						<link>
							<linkclipref>clipitem-636</linkclipref>
							<mediatype>audio</mediatype>
							<trackindex>1</trackindex>
							<clipindex>160</clipindex>
							<groupindex>1</groupindex>
						</link>
						<link>
							<linkclipref>clipitem-800</linkclipref>
							<mediatype>audio</mediatype>
							<trackindex>2</trackindex>
							<clipindex>160</clipindex>
							<groupindex>1</groupindex>
						</link>
						<logginginfo>
							<description></description>
							<scene></scene>
							<shottake></shottake>
							<lognote></lognote>
							<good></good>
							<originalvideofilename></originalvideofilename>
							<originalaudiofilename></originalaudiofilename>
						</logginginfo>
						<colorinfo>
							<lut></lut>
							<lut1></lut1>
							<asc_sop></asc_sop>
							<asc_sat></asc_sat>
							<lut2></lut2>
						</colorinfo>
						<labels>
							<label2>Iris</label2>
						</labels>
					</clipitem>
					<clipitem id="clipitem-420">
						<masterclipid>masterclip-205</masterclipid>
						<name>A011_10290325_C016.mp4</name>
						<enabled>TRUE</enabled>
						<duration>1686</duration>
						<rate>
							<timebase>24</timebase>
							<ntsc>FALSE</ntsc>
						</rate>
						<start>29734</start>
						<end>29773</end>
						<in>1130</in>
						<out>1169</out>
						<pproTicksIn>11959920000000</pproTicksIn>
						<pproTicksOut>12372696000000</pproTicksOut>
						<alphatype>none</alphatype>
						<file id="file-205"/>
						<logginginfo>
							<description></description>
							<scene></scene>
							<shottake></shottake>
							<lognote></lognote>
							<good></good>
							<originalvideofilename></originalvideofilename>
							<originalaudiofilename></originalaudiofilename>
						</logginginfo>
						<colorinfo>
							<lut></lut>
							<lut1></lut1>
							<asc_sop></asc_sop>
							<asc_sat></asc_sat>
							<lut2></lut2>
						</colorinfo>
						<labels>
							<label2>Iris</label2>
						</labels>
					</clipitem>
					<clipitem id="clipitem-421">
						<masterclipid>masterclip-206</masterclipid>
						<name>A011_10290339_C025.mp4</name>
						<enabled>TRUE</enabled>
						<duration>915</duration>
						<rate>
							<timebase>24</timebase>
							<ntsc>FALSE</ntsc>
						</rate>
						<start>29773</start>
						<end>29924</end>
						<in>377</in>
						<out>528</out>
						<pproTicksIn>3990168000000</pproTicksIn>
						<pproTicksOut>5588352000000</pproTicksOut>
						<alphatype>none</alphatype>
						<pixelaspectratio>square</pixelaspectratio>
						<anamorphic>FALSE</anamorphic>
						<file id="file-206">
							<name>A011_10290339_C025.mp4</name>
							<pathurl>file://localhost/F%3a/After%20bengaluru%20udupi/scene%2047/A011_10290339_C025.mp4</pathurl>
							<rate>
								<timebase>24</timebase>
								<ntsc>FALSE</ntsc>
							</rate>
							<duration>915</duration>
							<timecode>
								<rate>
									<timebase>24</timebase>
									<ntsc>FALSE</ntsc>
								</rate>
								<string>03:39:49:10</string>
								<frame>316546</frame>
								<displayformat>NDF</displayformat>
							</timecode>
							<media>
								<video>
									<samplecharacteristics>
										<rate>
											<timebase>24</timebase>
											<ntsc>FALSE</ntsc>
										</rate>
										<width>1920</width>
										<height>1080</height>
										<anamorphic>FALSE</anamorphic>
										<pixelaspectratio>square</pixelaspectratio>
										<fielddominance>none</fielddominance>
									</samplecharacteristics>
								</video>
								<audio>
									<samplecharacteristics>
										<depth>16</depth>
										<samplerate>48000</samplerate>
									</samplecharacteristics>
									<channelcount>2</channelcount>
								</audio>
							</media>
						</file>
						<link>
							<linkclipref>clipitem-421</linkclipref>
							<mediatype>video</mediatype>
							<trackindex>1</trackindex>
							<clipindex>467</clipindex>
						</link>
						<link>
							<linkclipref>clipitem-637</linkclipref>
							<mediatype>audio</mediatype>
							<trackindex>1</trackindex>
							<clipindex>161</clipindex>
							<groupindex>1</groupindex>
						</link>
						<link>
							<linkclipref>clipitem-801</linkclipref>
							<mediatype>audio</mediatype>
							<trackindex>2</trackindex>
							<clipindex>161</clipindex>
							<groupindex>1</groupindex>
						</link>
						<logginginfo>
							<description></description>
							<scene></scene>
							<shottake></shottake>
							<lognote></lognote>
							<good></good>
							<originalvideofilename></originalvideofilename>
							<originalaudiofilename></originalaudiofilename>
						</logginginfo>
						<colorinfo>
							<lut></lut>
							<lut1></lut1>
							<asc_sop></asc_sop>
							<asc_sat></asc_sat>
							<lut2></lut2>
						</colorinfo>
						<labels>
							<label2>Iris</label2>
						</labels>
					</clipitem>
					<clipitem id="clipitem-422">
						<masterclipid>masterclip-206</masterclipid>
						<name>A011_10290339_C025.mp4</name>
						<enabled>TRUE</enabled>
						<duration>915</duration>
						<rate>
							<timebase>24</timebase>
							<ntsc>FALSE</ntsc>
						</rate>
						<start>29924</start>
						<end>30092</end>
						<in>528</in>
						<out>696</out>
						<pproTicksIn>5588352000000</pproTicksIn>
						<pproTicksOut>7366464000000</pproTicksOut>
						<alphatype>none</alphatype>
						<file id="file-206"/>
						<link>
							<linkclipref>clipitem-422</linkclipref>
							<mediatype>video</mediatype>
							<trackindex>1</trackindex>
							<clipindex>468</clipindex>
						</link>
						<link>
							<linkclipref>clipitem-638</linkclipref>
							<mediatype>audio</mediatype>
							<trackindex>1</trackindex>
							<clipindex>162</clipindex>
							<groupindex>1</groupindex>
						</link>
						<link>
							<linkclipref>clipitem-802</linkclipref>
							<mediatype>audio</mediatype>
							<trackindex>2</trackindex>
							<clipindex>162</clipindex>
							<groupindex>1</groupindex>
						</link>
						<logginginfo>
							<description></description>
							<scene></scene>
							<shottake></shottake>
							<lognote></lognote>
							<good></good>
							<originalvideofilename></originalvideofilename>
							<originalaudiofilename></originalaudiofilename>
						</logginginfo>
						<colorinfo>
							<lut></lut>
							<lut1></lut1>
							<asc_sop></asc_sop>
							<asc_sat></asc_sat>
							<lut2></lut2>
						</colorinfo>
						<labels>
							<label2>Iris</label2>
						</labels>
					</clipitem>
					<clipitem id="clipitem-423">
						<masterclipid>masterclip-201</masterclipid>
						<name>A011_10290409_C042.mp4</name>
						<enabled>TRUE</enabled>
						<duration>1398</duration>
						<rate>
							<timebase>24</timebase>
							<ntsc>FALSE</ntsc>
						</rate>
						<start>30092</start>
						<end>30135</end>
						<in>1190</in>
						<out>1233</out>
						<pproTicksIn>12594960000000</pproTicksIn>
						<pproTicksOut>13050072000000</pproTicksOut>
						<alphatype>none</alphatype>
						<file id="file-201"/>
						<link>
							<linkclipref>clipitem-423</linkclipref>
							<mediatype>video</mediatype>
							<trackindex>1</trackindex>
							<clipindex>469</clipindex>
						</link>
						<link>
							<linkclipref>clipitem-639</linkclipref>
							<mediatype>audio</mediatype>
							<trackindex>1</trackindex>
							<clipindex>163</clipindex>
							<groupindex>1</groupindex>
						</link>
						<link>
							<linkclipref>clipitem-803</linkclipref>
							<mediatype>audio</mediatype>
							<trackindex>2</trackindex>
							<clipindex>163</clipindex>
							<groupindex>1</groupindex>
						</link>
						<logginginfo>
							<description></description>
							<scene></scene>
							<shottake></shottake>
							<lognote></lognote>
							<good></good>
							<originalvideofilename></originalvideofilename>
							<originalaudiofilename></originalaudiofilename>
						</logginginfo>
						<colorinfo>
							<lut></lut>
							<lut1></lut1>
							<asc_sop></asc_sop>
							<asc_sat></asc_sat>
							<lut2></lut2>
						</colorinfo>
						<labels>
							<label2>Iris</label2>
						</labels>
					</clipitem>
					<clipitem id="clipitem-424">
						<masterclipid>masterclip-202</masterclipid>
						<name>A011_10290315_C015.mp4</name>
						<enabled>TRUE</enabled>
						<duration>1533</duration>
						<rate>
							<timebase>24</timebase>
							<ntsc>FALSE</ntsc>
						</rate>
						<start>30135</start>
						<end>-1</end>
						<in>1379</in>
						<out>1500</out>
						<pproTicksIn>14595336000000</pproTicksIn>
						<pproTicksOut>15876000000000</pproTicksOut>
						<alphatype>none</alphatype>
						<file id="file-202"/>
						<logginginfo>
							<description></description>
							<scene></scene>
							<shottake></shottake>
							<lognote></lognote>
							<good></good>
							<originalvideofilename></originalvideofilename>
							<originalaudiofilename></originalaudiofilename>
						</logginginfo>
						<colorinfo>
							<lut></lut>
							<lut1></lut1>
							<asc_sop></asc_sop>
							<asc_sat></asc_sat>
							<lut2></lut2>
						</colorinfo>
						<labels>
							<label2>Iris</label2>
						</labels>
					</clipitem>
					<transitionitem>
						<start>30226</start>
						<end>30256</end>
						<alignment>end-black</alignment>
						<cutPointTicks>317520000000</cutPointTicks>
						<rate>
							<timebase>24</timebase>
							<ntsc>FALSE</ntsc>
						</rate>
						<effect>
							<name>Cross Dissolve</name>
							<effectid>Cross Dissolve</effectid>
							<effectcategory>Dissolve</effectcategory>
							<effecttype>transition</effecttype>
							<mediatype>video</mediatype>
							<wipecode>0</wipecode>
							<wipeaccuracy>100</wipeaccuracy>
							<startratio>0</startratio>
							<endratio>1</endratio>
							<reverse>FALSE</reverse>
						</effect>
					</transitionitem>
					<clipitem id="clipitem-425">
						<masterclipid>masterclip-1</masterclipid>
						<name>Graphic</name>
						<enabled>TRUE</enabled>
						<duration>1036800</duration>
						<rate>
							<timebase>24</timebase>
							<ntsc>FALSE</ntsc>
						</rate>
						<start>30256</start>
						<end>30303</end>
						<in>86473</in>
						<out>86520</out>
						<pproTicksIn>915230232000000</pproTicksIn>
						<pproTicksOut>915727680000000</pproTicksOut>
						<alphatype>straight</alphatype>
						<file id="file-1"/>
						<filter>
							<effect>
								<name>REEL 05</name>
								<effectid>GraphicAndType</effectid>
								<effectcategory>graphic</effectcategory>
								<effecttype>filter</effecttype>
								<mediatype>video</mediatype>
								<pproBypass>false</pproBypass>
								<parameter authoringApp="PremierePro">
									<parameterid>1</parameterid>
									<name>Source Text</name>
									<hash>4235c8a0-7f29-56ca-74cf-3eb1000000d0</hash>
								</parameter>
								<parameter authoringApp="PremierePro">
									<parameterid>2</parameterid>
									<name>Transform</name>
									<IsTimeVarying>false</IsTimeVarying>
									<ParameterControlType>11</ParameterControlType>
									<LowerBound>false</LowerBound>
									<UpperBound>false</UpperBound>
									<value>-91445760000000000,false,0,0,0,0,0,0</value>
								</parameter>
								<parameter authoringApp="PremierePro">
									<parameterid>3</parameterid>
									<name>Position</name>
									<IsTimeVarying>false</IsTimeVarying>
									<value>-91445760000000000,0.37948718667030334:0.49202734231948853,0,0,0,0,0,0,5,4,0,0,0,0</value>
								</parameter>
								<parameter authoringApp="PremierePro">
									<parameterid>4</parameterid>
									<name>Scale</name>
									<IsTimeVarying>false</IsTimeVarying>
									<ParameterControlType>2</ParameterControlType>
									<LowerBound>0</LowerBound>
									<UpperBound>4000</UpperBound>
									<value>-91445760000000000,100.,0,0,0,0,0,0</value>
								</parameter>
								<parameter authoringApp="PremierePro">
									<parameterid>5</parameterid>
									<name>Horizontal Scale</name>
									<IsTimeVarying>false</IsTimeVarying>
									<ParameterControlType>2</ParameterControlType>
									<LowerBound>0</LowerBound>
									<UpperBound>4000</UpperBound>
									<value>-91445760000000000,100.,0,0,0,0,0,0</value>
								</parameter>
								<parameter authoringApp="PremierePro">
									<parameterid>6</parameterid>
									<name> </name>
									<IsTimeVarying>false</IsTimeVarying>
									<ParameterControlType>4</ParameterControlType>
									<LowerBound>false</LowerBound>
									<UpperBound>true</UpperBound>
									<value>-91445760000000000,true,0,0,0,0,0,0</value>
								</parameter>
								<parameter authoringApp="PremierePro">
									<parameterid>7</parameterid>
									<name>Rotation</name>
									<IsTimeVarying>false</IsTimeVarying>
									<ParameterControlType>3</ParameterControlType>
									<LowerBound>-32768</LowerBound>
									<UpperBound>32767</UpperBound>
									<value>-91445760000000000,0.,0,0,0,0,0,0</value>
								</parameter>
								<parameter authoringApp="PremierePro">
									<parameterid>8</parameterid>
									<name>Opacity</name>
									<IsTimeVarying>false</IsTimeVarying>
									<ParameterControlType>2</ParameterControlType>
									<LowerBound>0</LowerBound>
									<UpperBound>100</UpperBound>
									<value>-91445760000000000,100.,0,0,0,0,0,0</value>
								</parameter>
								<parameter authoringApp="PremierePro">
									<parameterid>9</parameterid>
									<name>Anchor Point</name>
									<IsTimeVarying>false</IsTimeVarying>
									<value>-91445760000000000,0:0,0,0,0,0,0,0,5,4,0,0,0,0</value>
								</parameter>
								<parameter authoringApp="PremierePro">
									<parameterid>10</parameterid>
									<name></name>
									<IsTimeVarying>false</IsTimeVarying>
									<ParameterControlType>12</ParameterControlType>
									<LowerBound>false</LowerBound>
									<UpperBound>false</UpperBound>
									<value>-91445760000000000,false,0,0,0,0,0,0</value>
								</parameter>
								<parameter authoringApp="PremierePro">
									<parameterid>11</parameterid>
									<name> </name>
									<IsTimeVarying>false</IsTimeVarying>
									<ParameterControlType>8</ParameterControlType>
									<LowerBound>0</LowerBound>
									<UpperBound>32768</UpperBound>
									<value>-91445760000000000,0.,0,0,0,0,0,0</value>
								</parameter>
								<parameter authoringApp="PremierePro">
									<parameterid>12</parameterid>
									<name> </name>
									<IsTimeVarying>false</IsTimeVarying>
									<ParameterControlType>8</ParameterControlType>
									<LowerBound>0</LowerBound>
									<UpperBound>32768</UpperBound>
									<value>-91445760000000000,0.,0,0,0,0,0,0</value>
								</parameter>
								<parameter authoringApp="PremierePro">
									<parameterid>13</parameterid>
									<name>start</name>
									<IsTimeVarying>false</IsTimeVarying>
									<ParameterControlType>8</ParameterControlType>
									<LowerBound>-100</LowerBound>
									<UpperBound>1000000000</UpperBound>
									<value>-91445760000000000,7.,0,0,0,0,0,0</value>
								</parameter>
								<parameter authoringApp="PremierePro">
									<parameterid>14</parameterid>
									<name>end</name>
									<IsTimeVarying>false</IsTimeVarying>
									<ParameterControlType>8</ParameterControlType>
									<LowerBound>-100</LowerBound>
									<UpperBound>1000000000</UpperBound>
									<value>-91445760000000000,7.,0,0,0,0,0,0</value>
								</parameter>
								<parameter authoringApp="PremierePro">
									<parameterid>15</parameterid>
									<name> </name>
									<IsTimeVarying>false</IsTimeVarying>
									<ParameterControlType>4</ParameterControlType>
									<LowerBound>false</LowerBound>
									<UpperBound>true</UpperBound>
									<value>-91445760000000000,false,0,0,0,0,0,0</value>
								</parameter>
								<parameter authoringApp="PremierePro">
									<parameterid>16</parameterid>
									<name> </name>
									<IsTimeVarying>false</IsTimeVarying>
									<ParameterControlType>4</ParameterControlType>
									<LowerBound>false</LowerBound>
									<UpperBound>true</UpperBound>
									<value>-91445760000000000,false,0,0,0,0,0,0</value>
								</parameter>
								<parameter authoringApp="PremierePro">
									<parameterid>17</parameterid>
									<name> </name>
									<IsTimeVarying>false</IsTimeVarying>
									<ParameterControlType>4</ParameterControlType>
									<LowerBound>false</LowerBound>
									<UpperBound>true</UpperBound>
									<value>-91445760000000000,false,0,0,0,0,0,0</value>
								</parameter>
								<parameter authoringApp="PremierePro">
									<parameterid>18</parameterid>
									<name> </name>
									<IsTimeVarying>false</IsTimeVarying>
									<ParameterControlType>4</ParameterControlType>
									<LowerBound>false</LowerBound>
									<UpperBound>true</UpperBound>
									<value>-91445760000000000,false,0,0,0,0,0,0</value>
								</parameter>
								<parameter authoringApp="PremierePro">
									<parameterid>19</parameterid>
									<name>Parent Width</name>
									<IsTimeVarying>false</IsTimeVarying>
									<ParameterControlType>2</ParameterControlType>
									<LowerBound>0</LowerBound>
									<UpperBound>20000</UpperBound>
									<value>-91445760000000000,0.,0,0,0,0,0,0</value>
								</parameter>
								<parameter authoringApp="PremierePro">
									<parameterid>20</parameterid>
									<name>Parent Height</name>
									<IsTimeVarying>false</IsTimeVarying>
									<ParameterControlType>2</ParameterControlType>
									<LowerBound>0</LowerBound>
									<UpperBound>20000</UpperBound>
									<value>-91445760000000000,0.,0,0,0,0,0,0</value>
								</parameter>
								<parameter authoringApp="PremierePro">
									<parameterid>21</parameterid>
									<name>Parent Rotation</name>
									<IsTimeVarying>false</IsTimeVarying>
									<ParameterControlType>3</ParameterControlType>
									<LowerBound>-32768</LowerBound>
									<UpperBound>32767</UpperBound>
									<value>-91445760000000000,0.,0,0,0,0,0,0</value>
								</parameter>
							</effect>
						</filter>
						<logginginfo>
							<description></description>
							<scene></scene>
							<shottake></shottake>
							<lognote></lognote>
							<good></good>
							<originalvideofilename></originalvideofilename>
							<originalaudiofilename></originalaudiofilename>
						</logginginfo>
						<colorinfo>
							<lut></lut>
							<lut1></lut1>
							<asc_sop></asc_sop>
							<asc_sat></asc_sat>
							<lut2></lut2>
						</colorinfo>
						<labels>
						</labels>
					</clipitem>
					<clipitem id="clipitem-426">
						<masterclipid>masterclip-1</masterclipid>
						<name>Graphic</name>
						<enabled>TRUE</enabled>
						<duration>1036800</duration>
						<rate>
							<timebase>24</timebase>
							<ntsc>FALSE</ntsc>
						</rate>
						<start>30303</start>
						<end>30304</end>
						<in>86472</in>
						<out>86473</out>
						<pproTicksIn>915219648000000</pproTicksIn>
						<pproTicksOut>915230232000000</pproTicksOut>
						<alphatype>straight</alphatype>
						<file id="file-1"/>
						<filter>
							<effect>
								<name></name>
								<effectid>GraphicAndType</effectid>
								<effectcategory>graphic</effectcategory>
								<effecttype>filter</effecttype>
								<mediatype>video</mediatype>
								<pproBypass>false</pproBypass>
								<parameter authoringApp="PremierePro">
									<parameterid>1</parameterid>
									<name>Source Text</name>
									<hash>2f2e6d16-ff3d-3a1c-8ced-8541000000d4</hash>
								</parameter>
								<parameter authoringApp="PremierePro">
									<parameterid>2</parameterid>
									<name>Transform</name>
									<IsTimeVarying>false</IsTimeVarying>
									<ParameterControlType>11</ParameterControlType>
									<LowerBound>false</LowerBound>
									<UpperBound>false</UpperBound>
									<value>-91445760000000000,false,0,0,0,0,0,0</value>
								</parameter>
								<parameter authoringApp="PremierePro">
									<parameterid>3</parameterid>
									<name>Position</name>
									<IsTimeVarying>false</IsTimeVarying>
									<value>-91445760000000000,0.70364582538604736:0.46851852536201477,0,0,0,0,0,0,5,4,0,0,0,0</value>
								</parameter>
								<parameter authoringApp="PremierePro">
									<parameterid>4</parameterid>
									<name>Scale</name>
									<IsTimeVarying>false</IsTimeVarying>
									<ParameterControlType>2</ParameterControlType>
									<LowerBound>0</LowerBound>
									<UpperBound>4000</UpperBound>
									<value>-91445760000000000,100.,0,0,0,0,0,0</value>
								</parameter>
								<parameter authoringApp="PremierePro">
									<parameterid>5</parameterid>
									<name>Horizontal Scale</name>
									<IsTimeVarying>false</IsTimeVarying>
									<ParameterControlType>2</ParameterControlType>
									<LowerBound>0</LowerBound>
									<UpperBound>4000</UpperBound>
									<value>-91445760000000000,100.,0,0,0,0,0,0</value>
								</parameter>
								<parameter authoringApp="PremierePro">
									<parameterid>6</parameterid>
									<name> </name>
									<IsTimeVarying>false</IsTimeVarying>
									<ParameterControlType>4</ParameterControlType>
									<LowerBound>false</LowerBound>
									<UpperBound>true</UpperBound>
									<value>-91445760000000000,true,0,0,0,0,0,0</value>
								</parameter>
								<parameter authoringApp="PremierePro">
									<parameterid>7</parameterid>
									<name>Rotation</name>
									<IsTimeVarying>false</IsTimeVarying>
									<ParameterControlType>3</ParameterControlType>
									<LowerBound>-32768</LowerBound>
									<UpperBound>32767</UpperBound>
									<value>-91445760000000000,0.,0,0,0,0,0,0</value>
								</parameter>
								<parameter authoringApp="PremierePro">
									<parameterid>8</parameterid>
									<name>Opacity</name>
									<IsTimeVarying>false</IsTimeVarying>
									<ParameterControlType>2</ParameterControlType>
									<LowerBound>0</LowerBound>
									<UpperBound>100</UpperBound>
									<value>-91445760000000000,100.,0,0,0,0,0,0</value>
								</parameter>
								<parameter authoringApp="PremierePro">
									<parameterid>9</parameterid>
									<name>Anchor Point</name>
									<IsTimeVarying>false</IsTimeVarying>
									<value>-91445760000000000,0:0,0,0,0,0,0,0,5,4,0,0,0,0</value>
								</parameter>
								<parameter authoringApp="PremierePro">
									<parameterid>10</parameterid>
									<name></name>
									<IsTimeVarying>false</IsTimeVarying>
									<ParameterControlType>12</ParameterControlType>
									<LowerBound>false</LowerBound>
									<UpperBound>false</UpperBound>
									<value>-91445760000000000,false,0,0,0,0,0,0</value>
								</parameter>
								<parameter authoringApp="PremierePro">
									<parameterid>11</parameterid>
									<name> </name>
									<IsTimeVarying>false</IsTimeVarying>
									<ParameterControlType>8</ParameterControlType>
									<LowerBound>0</LowerBound>
									<UpperBound>32768</UpperBound>
									<value>-91445760000000000,0.,0,0,0,0,0,0</value>
								</parameter>
								<parameter authoringApp="PremierePro">
									<parameterid>12</parameterid>
									<name> </name>
									<IsTimeVarying>false</IsTimeVarying>
									<ParameterControlType>8</ParameterControlType>
									<LowerBound>0</LowerBound>
									<UpperBound>32768</UpperBound>
									<value>-91445760000000000,0.,0,0,0,0,0,0</value>
								</parameter>
								<parameter authoringApp="PremierePro">
									<parameterid>13</parameterid>
									<name>start</name>
									<IsTimeVarying>false</IsTimeVarying>
									<ParameterControlType>8</ParameterControlType>
									<LowerBound>-100</LowerBound>
									<UpperBound>1000000000</UpperBound>
									<value>-91445760000000000,0.,0,0,0,0,0,0</value>
								</parameter>
								<parameter authoringApp="PremierePro">
									<parameterid>14</parameterid>
									<name>end</name>
									<IsTimeVarying>false</IsTimeVarying>
									<ParameterControlType>8</ParameterControlType>
									<LowerBound>-100</LowerBound>
									<UpperBound>1000000000</UpperBound>
									<value>-91445760000000000,0.,0,0,0,0,0,0</value>
								</parameter>
								<parameter authoringApp="PremierePro">
									<parameterid>15</parameterid>
									<name> </name>
									<IsTimeVarying>false</IsTimeVarying>
									<ParameterControlType>4</ParameterControlType>
									<LowerBound>false</LowerBound>
									<UpperBound>true</UpperBound>
									<value>-91445760000000000,false,0,0,0,0,0,0</value>
								</parameter>
								<parameter authoringApp="PremierePro">
									<parameterid>16</parameterid>
									<name> </name>
									<IsTimeVarying>false</IsTimeVarying>
									<ParameterControlType>4</ParameterControlType>
									<LowerBound>false</LowerBound>
									<UpperBound>true</UpperBound>
									<value>-91445760000000000,false,0,0,0,0,0,0</value>
								</parameter>
								<parameter authoringApp="PremierePro">
									<parameterid>17</parameterid>
									<name> </name>
									<IsTimeVarying>false</IsTimeVarying>
									<ParameterControlType>4</ParameterControlType>
									<LowerBound>false</LowerBound>
									<UpperBound>true</UpperBound>
									<value>-91445760000000000,false,0,0,0,0,0,0</value>
								</parameter>
								<parameter authoringApp="PremierePro">
									<parameterid>18</parameterid>
									<name> </name>
									<IsTimeVarying>false</IsTimeVarying>
									<ParameterControlType>4</ParameterControlType>
									<LowerBound>false</LowerBound>
									<UpperBound>true</UpperBound>
									<value>-91445760000000000,false,0,0,0,0,0,0</value>
								</parameter>
								<parameter authoringApp="PremierePro">
									<parameterid>19</parameterid>
									<name>Parent Width</name>
									<IsTimeVarying>false</IsTimeVarying>
									<ParameterControlType>2</ParameterControlType>
									<LowerBound>0</LowerBound>
									<UpperBound>20000</UpperBound>
									<value>-91445760000000000,0.,0,0,0,0,0,0</value>
								</parameter>
								<parameter authoringApp="PremierePro">
									<parameterid>20</parameterid>
									<name>Parent Height</name>
									<IsTimeVarying>false</IsTimeVarying>
									<ParameterControlType>2</ParameterControlType>
									<LowerBound>0</LowerBound>
									<UpperBound>20000</UpperBound>
									<value>-91445760000000000,0.,0,0,0,0,0,0</value>
								</parameter>
								<parameter authoringApp="PremierePro">
									<parameterid>21</parameterid>
									<name>Parent Rotation</name>
									<IsTimeVarying>false</IsTimeVarying>
									<ParameterControlType>3</ParameterControlType>
									<LowerBound>-32768</LowerBound>
									<UpperBound>32767</UpperBound>
									<value>-91445760000000000,0.,0,0,0,0,0,0</value>
								</parameter>
							</effect>
						</filter>
						<filter>
							<effect>
								<name>BEEP</name>
								<effectid>GraphicAndType</effectid>
								<effectcategory>graphic</effectcategory>
								<effecttype>filter</effecttype>
								<mediatype>video</mediatype>
								<pproBypass>false</pproBypass>
								<parameter authoringApp="PremierePro">
									<parameterid>1</parameterid>
									<name>Source Text</name>
									<hash>0c799f11-534c-3970-224a-1386000000d0</hash>
								</parameter>
								<parameter authoringApp="PremierePro">
									<parameterid>2</parameterid>
									<name>Transform</name>
									<IsTimeVarying>false</IsTimeVarying>
									<ParameterControlType>11</ParameterControlType>
									<LowerBound>false</LowerBound>
									<UpperBound>false</UpperBound>
									<value>-91445760000000000,false,0,0,0,0,0,0</value>
								</parameter>
								<parameter authoringApp="PremierePro">
									<parameterid>3</parameterid>
									<name>Position</name>
									<IsTimeVarying>false</IsTimeVarying>
									<value>-91445760000000000,0.37948718667030334:0.49202734231948853,0,0,0,0,0,0,5,4,0,0,0,0</value>
								</parameter>
								<parameter authoringApp="PremierePro">
									<parameterid>4</parameterid>
									<name>Scale</name>
									<IsTimeVarying>false</IsTimeVarying>
									<ParameterControlType>2</ParameterControlType>
									<LowerBound>0</LowerBound>
									<UpperBound>4000</UpperBound>
									<value>-91445760000000000,100.,0,0,0,0,0,0</value>
								</parameter>
								<parameter authoringApp="PremierePro">
									<parameterid>5</parameterid>
									<name>Horizontal Scale</name>
									<IsTimeVarying>false</IsTimeVarying>
									<ParameterControlType>2</ParameterControlType>
									<LowerBound>0</LowerBound>
									<UpperBound>4000</UpperBound>
									<value>-91445760000000000,100.,0,0,0,0,0,0</value>
								</parameter>
								<parameter authoringApp="PremierePro">
									<parameterid>6</parameterid>
									<name> </name>
									<IsTimeVarying>false</IsTimeVarying>
									<ParameterControlType>4</ParameterControlType>
									<LowerBound>false</LowerBound>
									<UpperBound>true</UpperBound>
									<value>-91445760000000000,true,0,0,0,0,0,0</value>
								</parameter>
								<parameter authoringApp="PremierePro">
									<parameterid>7</parameterid>
									<name>Rotation</name>
									<IsTimeVarying>false</IsTimeVarying>
									<ParameterControlType>3</ParameterControlType>
									<LowerBound>-32768</LowerBound>
									<UpperBound>32767</UpperBound>
									<value>-91445760000000000,0.,0,0,0,0,0,0</value>
								</parameter>
								<parameter authoringApp="PremierePro">
									<parameterid>8</parameterid>
									<name>Opacity</name>
									<IsTimeVarying>false</IsTimeVarying>
									<ParameterControlType>2</ParameterControlType>
									<LowerBound>0</LowerBound>
									<UpperBound>100</UpperBound>
									<value>-91445760000000000,100.,0,0,0,0,0,0</value>
								</parameter>
								<parameter authoringApp="PremierePro">
									<parameterid>9</parameterid>
									<name>Anchor Point</name>
									<IsTimeVarying>false</IsTimeVarying>
									<value>-91445760000000000,0:0,0,0,0,0,0,0,5,4,0,0,0,0</value>
								</parameter>
								<parameter authoringApp="PremierePro">
									<parameterid>10</parameterid>
									<name></name>
									<IsTimeVarying>false</IsTimeVarying>
									<ParameterControlType>12</ParameterControlType>
									<LowerBound>false</LowerBound>
									<UpperBound>false</UpperBound>
									<value>-91445760000000000,false,0,0,0,0,0,0</value>
								</parameter>
								<parameter authoringApp="PremierePro">
									<parameterid>11</parameterid>
									<name> </name>
									<IsTimeVarying>false</IsTimeVarying>
									<ParameterControlType>8</ParameterControlType>
									<LowerBound>0</LowerBound>
									<UpperBound>32768</UpperBound>
									<value>-91445760000000000,0.,0,0,0,0,0,0</value>
								</parameter>
								<parameter authoringApp="PremierePro">
									<parameterid>12</parameterid>
									<name> </name>
									<IsTimeVarying>false</IsTimeVarying>
									<ParameterControlType>8</ParameterControlType>
									<LowerBound>0</LowerBound>
									<UpperBound>32768</UpperBound>
									<value>-91445760000000000,0.,0,0,0,0,0,0</value>
								</parameter>
								<parameter authoringApp="PremierePro">
									<parameterid>13</parameterid>
									<name>start</name>
									<IsTimeVarying>false</IsTimeVarying>
									<ParameterControlType>8</ParameterControlType>
									<LowerBound>-100</LowerBound>
									<UpperBound>1000000000</UpperBound>
									<value>-91445760000000000,4.,0,0,0,0,0,0</value>
								</parameter>
								<parameter authoringApp="PremierePro">
									<parameterid>14</parameterid>
									<name>end</name>
									<IsTimeVarying>false</IsTimeVarying>
									<ParameterControlType>8</ParameterControlType>
									<LowerBound>-100</LowerBound>
									<UpperBound>1000000000</UpperBound>
									<value>-91445760000000000,4.,0,0,0,0,0,0</value>
								</parameter>
								<parameter authoringApp="PremierePro">
									<parameterid>15</parameterid>
									<name> </name>
									<IsTimeVarying>false</IsTimeVarying>
									<ParameterControlType>4</ParameterControlType>
									<LowerBound>false</LowerBound>
									<UpperBound>true</UpperBound>
									<value>-91445760000000000,false,0,0,0,0,0,0</value>
								</parameter>
								<parameter authoringApp="PremierePro">
									<parameterid>16</parameterid>
									<name> </name>
									<IsTimeVarying>false</IsTimeVarying>
									<ParameterControlType>4</ParameterControlType>
									<LowerBound>false</LowerBound>
									<UpperBound>true</UpperBound>
									<value>-91445760000000000,false,0,0,0,0,0,0</value>
								</parameter>
								<parameter authoringApp="PremierePro">
									<parameterid>17</parameterid>
									<name> </name>
									<IsTimeVarying>false</IsTimeVarying>
									<ParameterControlType>4</ParameterControlType>
									<LowerBound>false</LowerBound>
									<UpperBound>true</UpperBound>
									<value>-91445760000000000,false,0,0,0,0,0,0</value>
								</parameter>
								<parameter authoringApp="PremierePro">
									<parameterid>18</parameterid>
									<name> </name>
									<IsTimeVarying>false</IsTimeVarying>
									<ParameterControlType>4</ParameterControlType>
									<LowerBound>false</LowerBound>
									<UpperBound>true</UpperBound>
									<value>-91445760000000000,false,0,0,0,0,0,0</value>
								</parameter>
								<parameter authoringApp="PremierePro">
									<parameterid>19</parameterid>
									<name>Parent Width</name>
									<IsTimeVarying>false</IsTimeVarying>
									<ParameterControlType>2</ParameterControlType>
									<LowerBound>0</LowerBound>
									<UpperBound>20000</UpperBound>
									<value>-91445760000000000,0.,0,0,0,0,0,0</value>
								</parameter>
								<parameter authoringApp="PremierePro">
									<parameterid>20</parameterid>
									<name>Parent Height</name>
									<IsTimeVarying>false</IsTimeVarying>
									<ParameterControlType>2</ParameterControlType>
									<LowerBound>0</LowerBound>
									<UpperBound>20000</UpperBound>
									<value>-91445760000000000,0.,0,0,0,0,0,0</value>
								</parameter>
								<parameter authoringApp="PremierePro">
									<parameterid>21</parameterid>
									<name>Parent Rotation</name>
									<IsTimeVarying>false</IsTimeVarying>
									<ParameterControlType>3</ParameterControlType>
									<LowerBound>-32768</LowerBound>
									<UpperBound>32767</UpperBound>
									<value>-91445760000000000,0.,0,0,0,0,0,0</value>
								</parameter>
							</effect>
						</filter>
						<logginginfo>
							<description></description>
							<scene></scene>
							<shottake></shottake>
							<lognote></lognote>
							<good></good>
							<originalvideofilename></originalvideofilename>
							<originalaudiofilename></originalaudiofilename>
						</logginginfo>
						<colorinfo>
							<lut></lut>
							<lut1></lut1>
							<asc_sop></asc_sop>
							<asc_sat></asc_sat>
							<lut2></lut2>
						</colorinfo>
						<labels>
						</labels>
					</clipitem>
					<clipitem id="clipitem-427">
						<masterclipid>masterclip-1</masterclipid>
						<name>Graphic</name>
						<enabled>TRUE</enabled>
						<duration>1036800</duration>
						<rate>
							<timebase>24</timebase>
							<ntsc>FALSE</ntsc>
						</rate>
						<start>30304</start>
						<end>30376</end>
						<in>86400</in>
						<out>86472</out>
						<pproTicksIn>914457600000000</pproTicksIn>
						<pproTicksOut>915219648000000</pproTicksOut>
						<alphatype>straight</alphatype>
						<file id="file-1"/>
						<filter>
							<effect>
								<name>REEL 05</name>
								<effectid>GraphicAndType</effectid>
								<effectcategory>graphic</effectcategory>
								<effecttype>filter</effecttype>
								<mediatype>video</mediatype>
								<pproBypass>false</pproBypass>
								<parameter authoringApp="PremierePro">
									<parameterid>1</parameterid>
									<name>Source Text</name>
									<hash>4235c8a0-7f29-56ca-74cf-3eb1000000d0</hash>
								</parameter>
								<parameter authoringApp="PremierePro">
									<parameterid>2</parameterid>
									<name>Transform</name>
									<IsTimeVarying>false</IsTimeVarying>
									<ParameterControlType>11</ParameterControlType>
									<LowerBound>false</LowerBound>
									<UpperBound>false</UpperBound>
									<value>-91445760000000000,false,0,0,0,0,0,0</value>
								</parameter>
								<parameter authoringApp="PremierePro">
									<parameterid>3</parameterid>
									<name>Position</name>
									<IsTimeVarying>false</IsTimeVarying>
									<value>-91445760000000000,0.379486083984375:0.497589111328125,0,0,0,0,0,0,5,4,0,0,0,0</value>
								</parameter>
								<parameter authoringApp="PremierePro">
									<parameterid>4</parameterid>
									<name>Scale</name>
									<IsTimeVarying>false</IsTimeVarying>
									<ParameterControlType>2</ParameterControlType>
									<LowerBound>0</LowerBound>
									<UpperBound>4000</UpperBound>
									<value>-91445760000000000,100.,0,0,0,0,0,0</value>
								</parameter>
								<parameter authoringApp="PremierePro">
									<parameterid>5</parameterid>
									<name>Horizontal Scale</name>
									<IsTimeVarying>false</IsTimeVarying>
									<ParameterControlType>2</ParameterControlType>
									<LowerBound>0</LowerBound>
									<UpperBound>4000</UpperBound>
									<value>-91445760000000000,100.,0,0,0,0,0,0</value>
								</parameter>
								<parameter authoringApp="PremierePro">
									<parameterid>6</parameterid>
									<name> </name>
									<IsTimeVarying>false</IsTimeVarying>
									<ParameterControlType>4</ParameterControlType>
									<LowerBound>false</LowerBound>
									<UpperBound>true</UpperBound>
									<value>-91445760000000000,true,0,0,0,0,0,0</value>
								</parameter>
								<parameter authoringApp="PremierePro">
									<parameterid>7</parameterid>
									<name>Rotation</name>
									<IsTimeVarying>false</IsTimeVarying>
									<ParameterControlType>3</ParameterControlType>
									<LowerBound>-32768</LowerBound>
									<UpperBound>32767</UpperBound>
									<value>-91445760000000000,0.,0,0,0,0,0,0</value>
								</parameter>
								<parameter authoringApp="PremierePro">
									<parameterid>8</parameterid>
									<name>Opacity</name>
									<IsTimeVarying>false</IsTimeVarying>
									<ParameterControlType>2</ParameterControlType>
									<LowerBound>0</LowerBound>
									<UpperBound>100</UpperBound>
									<value>-91445760000000000,100.,0,0,0,0,0,0</value>
								</parameter>
								<parameter authoringApp="PremierePro">
									<parameterid>9</parameterid>
									<name>Anchor Point</name>
									<IsTimeVarying>false</IsTimeVarying>
									<value>-91445760000000000,0:0,0,0,0,0,0,0,5,4,0,0,0,0</value>
								</parameter>
								<parameter authoringApp="PremierePro">
									<parameterid>10</parameterid>
									<name></name>
									<IsTimeVarying>false</IsTimeVarying>
									<ParameterControlType>12</ParameterControlType>
									<LowerBound>false</LowerBound>
									<UpperBound>false</UpperBound>
									<value>-91445760000000000,false,0,0,0,0,0,0</value>
								</parameter>
								<parameter authoringApp="PremierePro">
									<parameterid>11</parameterid>
									<name> </name>
									<IsTimeVarying>false</IsTimeVarying>
									<ParameterControlType>8</ParameterControlType>
									<LowerBound>0</LowerBound>
									<UpperBound>32768</UpperBound>
									<value>-91445760000000000,0.,0,0,0,0,0,0</value>
								</parameter>
								<parameter authoringApp="PremierePro">
									<parameterid>12</parameterid>
									<name> </name>
									<IsTimeVarying>false</IsTimeVarying>
									<ParameterControlType>8</ParameterControlType>
									<LowerBound>0</LowerBound>
									<UpperBound>32768</UpperBound>
									<value>-91445760000000000,0.,0,0,0,0,0,0</value>
								</parameter>
								<parameter authoringApp="PremierePro">
									<parameterid>13</parameterid>
									<name>start</name>
									<IsTimeVarying>false</IsTimeVarying>
									<ParameterControlType>8</ParameterControlType>
									<LowerBound>-100</LowerBound>
									<UpperBound>1000000000</UpperBound>
									<value>-91445760000000000,7.,0,0,0,0,0,0</value>
								</parameter>
								<parameter authoringApp="PremierePro">
									<parameterid>14</parameterid>
									<name>end</name>
									<IsTimeVarying>false</IsTimeVarying>
									<ParameterControlType>8</ParameterControlType>
									<LowerBound>-100</LowerBound>
									<UpperBound>1000000000</UpperBound>
									<value>-91445760000000000,7.,0,0,0,0,0,0</value>
								</parameter>
								<parameter authoringApp="PremierePro">
									<parameterid>15</parameterid>
									<name> </name>
									<IsTimeVarying>false</IsTimeVarying>
									<ParameterControlType>4</ParameterControlType>
									<LowerBound>false</LowerBound>
									<UpperBound>true</UpperBound>
									<value>-91445760000000000,false,0,0,0,0,0,0</value>
								</parameter>
								<parameter authoringApp="PremierePro">
									<parameterid>16</parameterid>
									<name> </name>
									<IsTimeVarying>false</IsTimeVarying>
									<ParameterControlType>4</ParameterControlType>
									<LowerBound>false</LowerBound>
									<UpperBound>true</UpperBound>
									<value>-91445760000000000,false,0,0,0,0,0,0</value>
								</parameter>
								<parameter authoringApp="PremierePro">
									<parameterid>17</parameterid>
									<name> </name>
									<IsTimeVarying>false</IsTimeVarying>
									<ParameterControlType>4</ParameterControlType>
									<LowerBound>false</LowerBound>
									<UpperBound>true</UpperBound>
									<value>-91445760000000000,false,0,0,0,0,0,0</value>
								</parameter>
								<parameter authoringApp="PremierePro">
									<parameterid>18</parameterid>
									<name> </name>
									<IsTimeVarying>false</IsTimeVarying>
									<ParameterControlType>4</ParameterControlType>
									<LowerBound>false</LowerBound>
									<UpperBound>true</UpperBound>
									<value>-91445760000000000,false,0,0,0,0,0,0</value>
								</parameter>
								<parameter authoringApp="PremierePro">
									<parameterid>19</parameterid>
									<name>Parent Width</name>
									<IsTimeVarying>false</IsTimeVarying>
									<ParameterControlType>2</ParameterControlType>
									<LowerBound>0</LowerBound>
									<UpperBound>20000</UpperBound>
									<value>-91445760000000000,0.,0,0,0,0,0,0</value>
								</parameter>
								<parameter authoringApp="PremierePro">
									<parameterid>20</parameterid>
									<name>Parent Height</name>
									<IsTimeVarying>false</IsTimeVarying>
									<ParameterControlType>2</ParameterControlType>
									<LowerBound>0</LowerBound>
									<UpperBound>20000</UpperBound>
									<value>-91445760000000000,0.,0,0,0,0,0,0</value>
								</parameter>
								<parameter authoringApp="PremierePro">
									<parameterid>21</parameterid>
									<name>Parent Rotation</name>
									<IsTimeVarying>false</IsTimeVarying>
									<ParameterControlType>3</ParameterControlType>
									<LowerBound>-32768</LowerBound>
									<UpperBound>32767</UpperBound>
									<value>-91445760000000000,0.,0,0,0,0,0,0</value>
								</parameter>
							</effect>
						</filter>
						<logginginfo>
							<description></description>
							<scene></scene>
							<shottake></shottake>
							<lognote></lognote>
							<good></good>
							<originalvideofilename></originalvideofilename>
							<originalaudiofilename></originalaudiofilename>
						</logginginfo>
						<colorinfo>
							<lut></lut>
							<lut1></lut1>
							<asc_sop></asc_sop>
							<asc_sat></asc_sat>
							<lut2></lut2>
						</colorinfo>
						<labels>
						</labels>
					</clipitem>
					<enabled>TRUE</enabled>
					<locked>FALSE</locked>
				</track>
				<track TL.SQTrackShy="0" TL.SQTrackExpandedHeight="15" TL.SQTrackExpanded="0" MZ.TrackTargeted="0">
					<clipitem id="clipitem-428">
						<masterclipid>masterclip-23</masterclipid>
						<name>A006_06192126_C199.mp4</name>
						<enabled>FALSE</enabled>
						<duration>922</duration>
						<rate>
							<timebase>24</timebase>
							<ntsc>FALSE</ntsc>
						</rate>
						<start>3903</start>
						<end>3973</end>
						<in>243</in>
						<out>313</out>
						<pproTicksIn>2571912000000</pproTicksIn>
						<pproTicksOut>3312792000000</pproTicksOut>
						<alphatype>none</alphatype>
						<file id="file-23"/>
						<logginginfo>
							<description></description>
							<scene></scene>
							<shottake></shottake>
							<lognote></lognote>
							<good></good>
							<originalvideofilename></originalvideofilename>
							<originalaudiofilename></originalaudiofilename>
						</logginginfo>
						<colorinfo>
							<lut></lut>
							<lut1></lut1>
							<asc_sop></asc_sop>
							<asc_sat></asc_sat>
							<lut2></lut2>
						</colorinfo>
						<labels>
							<label2>Iris</label2>
						</labels>
					</clipitem>
					<clipitem id="clipitem-429">
						<masterclipid>masterclip-23</masterclipid>
						<name>A006_06192126_C199.mp4</name>
						<enabled>TRUE</enabled>
						<duration>922</duration>
						<rate>
							<timebase>24</timebase>
							<ntsc>FALSE</ntsc>
						</rate>
						<start>4103</start>
						<end>4152</end>
						<in>432</in>
						<out>481</out>
						<pproTicksIn>4572288000000</pproTicksIn>
						<pproTicksOut>5090904000000</pproTicksOut>
						<alphatype>none</alphatype>
						<file id="file-23"/>
						<logginginfo>
							<description></description>
							<scene></scene>
							<shottake></shottake>
							<lognote></lognote>
							<good></good>
							<originalvideofilename></originalvideofilename>
							<originalaudiofilename></originalaudiofilename>
						</logginginfo>
						<colorinfo>
							<lut></lut>
							<lut1></lut1>
							<asc_sop></asc_sop>
							<asc_sat></asc_sat>
							<lut2></lut2>
						</colorinfo>
						<labels>
							<label2>Iris</label2>
						</labels>
					</clipitem>
					<clipitem id="clipitem-430">
						<masterclipid>masterclip-59</masterclipid>
						<name>A002_05280718_C094.mp4</name>
						<enabled>TRUE</enabled>
						<duration>1337</duration>
						<rate>
							<timebase>24</timebase>
							<ntsc>FALSE</ntsc>
						</rate>
						<start>13866</start>
						<end>14030</end>
						<in>1028</in>
						<out>1192</out>
						<pproTicksIn>10880352000000</pproTicksIn>
						<pproTicksOut>12616128000000</pproTicksOut>
						<alphatype>none</alphatype>
						<file id="file-59"/>
						<logginginfo>
							<description></description>
							<scene></scene>
							<shottake></shottake>
							<lognote></lognote>
							<good></good>
							<originalvideofilename></originalvideofilename>
							<originalaudiofilename></originalaudiofilename>
						</logginginfo>
						<colorinfo>
							<lut></lut>
							<lut1></lut1>
							<asc_sop></asc_sop>
							<asc_sat></asc_sat>
							<lut2></lut2>
						</colorinfo>
						<labels>
							<label2>Iris</label2>
						</labels>
					</clipitem>
					<clipitem id="clipitem-431">
						<masterclipid>masterclip-72</masterclipid>
						<name>A003_05300925_C085.mp4</name>
						<enabled>TRUE</enabled>
						<duration>752</duration>
						<rate>
							<timebase>24</timebase>
							<ntsc>FALSE</ntsc>
						</rate>
						<start>16357</start>
						<end>16388</end>
						<in>702</in>
						<out>733</out>
						<pproTicksIn>7429968000000</pproTicksIn>
						<pproTicksOut>7758072000000</pproTicksOut>
						<alphatype>none</alphatype>
						<file id="file-72"/>
						<logginginfo>
							<description></description>
							<scene></scene>
							<shottake></shottake>
							<lognote></lognote>
							<good></good>
							<originalvideofilename></originalvideofilename>
							<originalaudiofilename></originalaudiofilename>
						</logginginfo>
						<colorinfo>
							<lut></lut>
							<lut1></lut1>
							<asc_sop></asc_sop>
							<asc_sat></asc_sat>
							<lut2></lut2>
						</colorinfo>
						<labels>
							<label2>Iris</label2>
						</labels>
					</clipitem>
					<clipitem id="clipitem-432">
						<masterclipid>masterclip-76</masterclipid>
						<name>A003_05301000_C105.mp4</name>
						<enabled>TRUE</enabled>
						<duration>1746</duration>
						<rate>
							<timebase>24</timebase>
							<ntsc>FALSE</ntsc>
						</rate>
						<start>16433</start>
						<end>16445</end>
						<in>314</in>
						<out>326</out>
						<pproTicksIn>3323376000000</pproTicksIn>
						<pproTicksOut>3450384000000</pproTicksOut>
						<alphatype>none</alphatype>
						<file id="file-76"/>
						<logginginfo>
							<description></description>
							<scene></scene>
							<shottake></shottake>
							<lognote></lognote>
							<good></good>
							<originalvideofilename></originalvideofilename>
							<originalaudiofilename></originalaudiofilename>
						</logginginfo>
						<colorinfo>
							<lut></lut>
							<lut1></lut1>
							<asc_sop></asc_sop>
							<asc_sat></asc_sat>
							<lut2></lut2>
						</colorinfo>
						<labels>
							<label2>Iris</label2>
						</labels>
					</clipitem>
					<clipitem id="clipitem-433">
						<masterclipid>masterclip-79</masterclipid>
						<name>A003_05301044_C122.mp4</name>
						<enabled>FALSE</enabled>
						<duration>2688</duration>
						<rate>
							<timebase>24</timebase>
							<ntsc>FALSE</ntsc>
						</rate>
						<start>18887</start>
						<end>18966</end>
						<in>1966</in>
						<out>2044</out>
						<pproTicksIn>41616287999998</pproTicksIn>
						<pproTicksOut>43288559999998</pproTicksOut>
						<alphatype>none</alphatype>
						<file id="file-79"/>
						<filter>
							<effect>
								<name>Time Remap</name>
								<effectid>timeremap</effectid>
								<effectcategory>motion</effectcategory>
								<effecttype>motion</effecttype>
								<mediatype>video</mediatype>
								<parameter authoringApp="PremierePro">
									<parameterid>variablespeed</parameterid>
									<name>variablespeed</name>
									<valuemin>0</valuemin>
									<valuemax>1</valuemax>
									<value>0</value>
								</parameter>
								<parameter authoringApp="PremierePro">
									<parameterid>speed</parameterid>
									<name>speed</name>
									<valuemin>-100000</valuemin>
									<valuemax>100000</valuemax>
									<value>200</value>
								</parameter>
								<parameter authoringApp="PremierePro">
									<parameterid>reverse</parameterid>
									<name>reverse</name>
									<value>FALSE</value>
								</parameter>
								<parameter authoringApp="PremierePro">
									<parameterid>frameblending</parameterid>
									<name>frameblending</name>
									<value>FALSE</value>
								</parameter>
								<parameter authoringApp="PremierePro">
									<parameterid>graphdict</parameterid>
									<name>graphdict</name>
									<valuemin>0</valuemin>
									<valuemax>5376</valuemax>
									<value>0</value>
									<keyframe>
										<when>0</when>
										<value>0</value>
										<speedvirtualkf>TRUE</speedvirtualkf>
										<speedkfstart>TRUE</speedkfstart>
									</keyframe>
									<keyframe>
										<when>1966</when>
										<value>3932</value>
										<speedvirtualkf>TRUE</speedvirtualkf>
										<speedkfin>TRUE</speedkfin>
									</keyframe>
									<keyframe>
										<when>2044</when>
										<value>4088</value>
										<speedvirtualkf>TRUE</speedvirtualkf>
										<speedkfout>TRUE</speedkfout>
									</keyframe>
									<keyframe>
										<when>2688</when>
										<value>5376</value>
										<speedvirtualkf>TRUE</speedvirtualkf>
										<speedkfend>TRUE</speedkfend>
									</keyframe>
									<interpolation>
										<name>FCPCurve</name>
									</interpolation>
								</parameter>
							</effect>
						</filter>
						<logginginfo>
							<description></description>
							<scene></scene>
							<shottake></shottake>
							<lognote></lognote>
							<good></good>
							<originalvideofilename></originalvideofilename>
							<originalaudiofilename></originalaudiofilename>
						</logginginfo>
						<colorinfo>
							<lut></lut>
							<lut1></lut1>
							<asc_sop></asc_sop>
							<asc_sat></asc_sat>
							<lut2></lut2>
						</colorinfo>
						<labels>
							<label2>Iris</label2>
						</labels>
					</clipitem>
					<clipitem id="clipitem-434">
						<masterclipid>masterclip-207</masterclipid>
						<name>A003_05301022_C114.mp4</name>
						<enabled>FALSE</enabled>
						<duration>634</duration>
						<rate>
							<timebase>24</timebase>
							<ntsc>FALSE</ntsc>
						</rate>
						<start>19682</start>
						<end>19786</end>
						<in>80</in>
						<out>184</out>
						<pproTicksIn>846720000000</pproTicksIn>
						<pproTicksOut>1947456000000</pproTicksOut>
						<alphatype>none</alphatype>
						<pixelaspectratio>square</pixelaspectratio>
						<anamorphic>FALSE</anamorphic>
						<file id="file-207">
							<name>A003_05301022_C114.mp4</name>
							<pathurl>file://localhost/F%3a/bengaluru%20scenes/scene%2043/A003_05301022_C114.mp4</pathurl>
							<rate>
								<timebase>24</timebase>
								<ntsc>FALSE</ntsc>
							</rate>
							<duration>634</duration>
							<timecode>
								<rate>
									<timebase>24</timebase>
									<ntsc>FALSE</ntsc>
								</rate>
								<string>00:00:00:00</string>
								<frame>0</frame>
								<displayformat>NDF</displayformat>
							</timecode>
							<media>
								<video>
									<samplecharacteristics>
										<rate>
											<timebase>24</timebase>
											<ntsc>FALSE</ntsc>
										</rate>
										<width>1920</width>
										<height>1080</height>
										<anamorphic>FALSE</anamorphic>
										<pixelaspectratio>square</pixelaspectratio>
										<fielddominance>none</fielddominance>
									</samplecharacteristics>
								</video>
								<audio>
									<samplecharacteristics>
										<depth>16</depth>
										<samplerate>48000</samplerate>
									</samplecharacteristics>
									<channelcount>2</channelcount>
								</audio>
							</media>
						</file>
						<logginginfo>
							<description></description>
							<scene></scene>
							<shottake></shottake>
							<lognote></lognote>
							<good></good>
							<originalvideofilename></originalvideofilename>
							<originalaudiofilename></originalaudiofilename>
						</logginginfo>
						<colorinfo>
							<lut></lut>
							<lut1></lut1>
							<asc_sop></asc_sop>
							<asc_sat></asc_sat>
							<lut2></lut2>
						</colorinfo>
						<labels>
							<label2>Iris</label2>
						</labels>
					</clipitem>
					<clipitem id="clipitem-435">
						<masterclipid>masterclip-208</masterclipid>
						<name>A016_11010636_C034.mp4</name>
						<enabled>TRUE</enabled>
						<duration>1150</duration>
						<rate>
							<timebase>24</timebase>
							<ntsc>FALSE</ntsc>
						</rate>
						<start>23031</start>
						<end>23056</end>
						<in>257</in>
						<out>282</out>
						<pproTicksIn>2720088000000</pproTicksIn>
						<pproTicksOut>2984688000000</pproTicksOut>
						<alphatype>none</alphatype>
						<pixelaspectratio>square</pixelaspectratio>
						<anamorphic>FALSE</anamorphic>
						<file id="file-208">
							<name>A016_11010636_C034.mp4</name>
							<pathurl>file://localhost/F%3a/starting%20until%20flashback%20opens/scene%2004/from%20and%20after%20saree%20clips/A016_11010636_C034.mp4</pathurl>
							<rate>
								<timebase>24</timebase>
								<ntsc>FALSE</ntsc>
							</rate>
							<duration>1150</duration>
							<timecode>
								<rate>
									<timebase>24</timebase>
									<ntsc>FALSE</ntsc>
								</rate>
								<string>06:36:23:08</string>
								<frame>570800</frame>
								<displayformat>NDF</displayformat>
							</timecode>
							<media>
								<video>
									<samplecharacteristics>
										<rate>
											<timebase>24</timebase>
											<ntsc>FALSE</ntsc>
										</rate>
										<width>1920</width>
										<height>1080</height>
										<anamorphic>FALSE</anamorphic>
										<pixelaspectratio>square</pixelaspectratio>
										<fielddominance>none</fielddominance>
									</samplecharacteristics>
								</video>
								<audio>
									<samplecharacteristics>
										<depth>16</depth>
										<samplerate>48000</samplerate>
									</samplecharacteristics>
									<channelcount>2</channelcount>
								</audio>
							</media>
						</file>
						<logginginfo>
							<description></description>
							<scene></scene>
							<shottake></shottake>
							<lognote></lognote>
							<good></good>
							<originalvideofilename></originalvideofilename>
							<originalaudiofilename></originalaudiofilename>
						</logginginfo>
						<colorinfo>
							<lut></lut>
							<lut1></lut1>
							<asc_sop></asc_sop>
							<asc_sat></asc_sat>
							<lut2></lut2>
						</colorinfo>
						<labels>
							<label2>Iris</label2>
						</labels>
					</clipitem>
					<clipitem id="clipitem-436">
						<masterclipid>masterclip-209</masterclipid>
						<name>A012_10300739_C097.mp4</name>
						<enabled>TRUE</enabled>
						<duration>903</duration>
						<rate>
							<timebase>24</timebase>
							<ntsc>FALSE</ntsc>
						</rate>
						<start>23073</start>
						<end>23091</end>
						<in>297</in>
						<out>315</out>
						<pproTicksIn>3143448000000</pproTicksIn>
						<pproTicksOut>3333960000000</pproTicksOut>
						<alphatype>none</alphatype>
						<pixelaspectratio>square</pixelaspectratio>
						<anamorphic>FALSE</anamorphic>
						<file id="file-209">
							<name>A012_10300739_C097.mp4</name>
							<pathurl>file://localhost/F%3a/after%201st%20aara%20flashback%20present/scene%2027%20and%2027A/27A/A012_10300739_C097.mp4</pathurl>
							<rate>
								<timebase>24</timebase>
								<ntsc>FALSE</ntsc>
							</rate>
							<duration>903</duration>
							<timecode>
								<rate>
									<timebase>24</timebase>
									<ntsc>FALSE</ntsc>
								</rate>
								<string>07:39:01:19</string>
								<frame>661003</frame>
								<displayformat>NDF</displayformat>
							</timecode>
							<media>
								<video>
									<samplecharacteristics>
										<rate>
											<timebase>24</timebase>
											<ntsc>FALSE</ntsc>
										</rate>
										<width>1920</width>
										<height>1080</height>
										<anamorphic>FALSE</anamorphic>
										<pixelaspectratio>square</pixelaspectratio>
										<fielddominance>none</fielddominance>
									</samplecharacteristics>
								</video>
								<audio>
									<samplecharacteristics>
										<depth>16</depth>
										<samplerate>48000</samplerate>
									</samplecharacteristics>
									<channelcount>2</channelcount>
								</audio>
							</media>
						</file>
						<logginginfo>
							<description></description>
							<scene></scene>
							<shottake></shottake>
							<lognote></lognote>
							<good></good>
							<originalvideofilename></originalvideofilename>
							<originalaudiofilename></originalaudiofilename>
						</logginginfo>
						<colorinfo>
							<lut></lut>
							<lut1></lut1>
							<asc_sop></asc_sop>
							<asc_sat></asc_sat>
							<lut2></lut2>
						</colorinfo>
						<labels>
							<label2>Iris</label2>
						</labels>
					</clipitem>
					<clipitem id="clipitem-437">
						<masterclipid>masterclip-210</masterclipid>
						<name>A012_10300718_C091.mp4</name>
						<enabled>TRUE</enabled>
						<duration>819</duration>
						<rate>
							<timebase>24</timebase>
							<ntsc>FALSE</ntsc>
						</rate>
						<start>23111</start>
						<end>23134</end>
						<in>466</in>
						<out>489</out>
						<pproTicksIn>4932144000000</pproTicksIn>
						<pproTicksOut>5175576000000</pproTicksOut>
						<alphatype>none</alphatype>
						<pixelaspectratio>square</pixelaspectratio>
						<anamorphic>FALSE</anamorphic>
						<file id="file-210">
							<name>A012_10300718_C091.mp4</name>
							<pathurl>file://localhost/F%3a/after%201st%20aara%20flashback%20present/scene%2027%20and%2027A/27A/A012_10300718_C091.mp4</pathurl>
							<rate>
								<timebase>24</timebase>
								<ntsc>FALSE</ntsc>
							</rate>
							<duration>819</duration>
							<timecode>
								<rate>
									<timebase>24</timebase>
									<ntsc>FALSE</ntsc>
								</rate>
								<string>07:18:18:12</string>
								<frame>631164</frame>
								<displayformat>NDF</displayformat>
							</timecode>
							<media>
								<video>
									<samplecharacteristics>
										<rate>
											<timebase>24</timebase>
											<ntsc>FALSE</ntsc>
										</rate>
										<width>1920</width>
										<height>1080</height>
										<anamorphic>FALSE</anamorphic>
										<pixelaspectratio>square</pixelaspectratio>
										<fielddominance>none</fielddominance>
									</samplecharacteristics>
								</video>
								<audio>
									<samplecharacteristics>
										<depth>16</depth>
										<samplerate>48000</samplerate>
									</samplecharacteristics>
									<channelcount>2</channelcount>
								</audio>
							</media>
						</file>
						<logginginfo>
							<description></description>
							<scene></scene>
							<shottake></shottake>
							<lognote></lognote>
							<good></good>
							<originalvideofilename></originalvideofilename>
							<originalaudiofilename></originalaudiofilename>
						</logginginfo>
						<colorinfo>
							<lut></lut>
							<lut1></lut1>
							<asc_sop></asc_sop>
							<asc_sat></asc_sat>
							<lut2></lut2>
						</colorinfo>
						<labels>
							<label2>Iris</label2>
						</labels>
					</clipitem>
					<clipitem id="clipitem-438">
						<masterclipid>masterclip-211</masterclipid>
						<name>A012_10300800_C102.mp4</name>
						<enabled>TRUE</enabled>
						<duration>1061</duration>
						<rate>
							<timebase>24</timebase>
							<ntsc>FALSE</ntsc>
						</rate>
						<start>23144</start>
						<end>23162</end>
						<in>114</in>
						<out>132</out>
						<pproTicksIn>1206576000000</pproTicksIn>
						<pproTicksOut>1397088000000</pproTicksOut>
						<alphatype>none</alphatype>
						<pixelaspectratio>square</pixelaspectratio>
						<anamorphic>FALSE</anamorphic>
						<file id="file-211">
							<name>A012_10300800_C102.mp4</name>
							<pathurl>file://localhost/F%3a/after%201st%20aara%20flashback%20present/scene%2027%20and%2027A/27A/A012_10300800_C102.mp4</pathurl>
							<rate>
								<timebase>24</timebase>
								<ntsc>FALSE</ntsc>
							</rate>
							<duration>1061</duration>
							<timecode>
								<rate>
									<timebase>24</timebase>
									<ntsc>FALSE</ntsc>
								</rate>
								<string>08:00:46:13</string>
								<frame>692317</frame>
								<displayformat>NDF</displayformat>
							</timecode>
							<media>
								<video>
									<samplecharacteristics>
										<rate>
											<timebase>24</timebase>
											<ntsc>FALSE</ntsc>
										</rate>
										<width>1920</width>
										<height>1080</height>
										<anamorphic>FALSE</anamorphic>
										<pixelaspectratio>square</pixelaspectratio>
										<fielddominance>none</fielddominance>
									</samplecharacteristics>
								</video>
								<audio>
									<samplecharacteristics>
										<depth>16</depth>
										<samplerate>48000</samplerate>
									</samplecharacteristics>
									<channelcount>2</channelcount>
								</audio>
							</media>
						</file>
						<logginginfo>
							<description></description>
							<scene></scene>
							<shottake></shottake>
							<lognote></lognote>
							<good></good>
							<originalvideofilename></originalvideofilename>
							<originalaudiofilename></originalaudiofilename>
						</logginginfo>
						<colorinfo>
							<lut></lut>
							<lut1></lut1>
							<asc_sop></asc_sop>
							<asc_sat></asc_sat>
							<lut2></lut2>
						</colorinfo>
						<labels>
							<label2>Iris</label2>
						</labels>
					</clipitem>
					<clipitem id="clipitem-439">
						<masterclipid>masterclip-112</masterclipid>
						<name>A016_11010327_C010.mp4</name>
						<enabled>TRUE</enabled>
						<duration>3134</duration>
						<rate>
							<timebase>24</timebase>
							<ntsc>FALSE</ntsc>
						</rate>
						<start>24061</start>
						<end>24177</end>
						<in>1197</in>
						<out>1313</out>
						<pproTicksIn>12669048000000</pproTicksIn>
						<pproTicksOut>13896792000000</pproTicksOut>
						<alphatype>none</alphatype>
						<file id="file-112"/>
						<filter>
							<effect>
								<name>Opacity</name>
								<effectid>opacity</effectid>
								<effectcategory>motion</effectcategory>
								<effecttype>motion</effecttype>
								<mediatype>video</mediatype>
								<pproBypass>false</pproBypass>
								<parameter authoringApp="PremierePro">
									<parameterid>opacity</parameterid>
									<name>opacity</name>
									<valuemin>0</valuemin>
									<valuemax>100</valuemax>
									<value>100</value>
									<keyframe>
										<when>1285</when>
										<value>100</value>
									</keyframe>
									<keyframe>
										<when>1313</when>
										<value>0</value>
									</keyframe>
								</parameter>
							</effect>
						</filter>
						<logginginfo>
							<description></description>
							<scene></scene>
							<shottake></shottake>
							<lognote></lognote>
							<good></good>
							<originalvideofilename></originalvideofilename>
							<originalaudiofilename></originalaudiofilename>
						</logginginfo>
						<colorinfo>
							<lut></lut>
							<lut1></lut1>
							<asc_sop></asc_sop>
							<asc_sat></asc_sat>
							<lut2></lut2>
						</colorinfo>
						<labels>
							<label2>Iris</label2>
						</labels>
					</clipitem>
					<clipitem id="clipitem-440">
						<masterclipid>masterclip-212</masterclipid>
						<name>A021_11020051_C002.mp4</name>
						<enabled>TRUE</enabled>
						<duration>2712</duration>
						<rate>
							<timebase>24</timebase>
							<ntsc>FALSE</ntsc>
						</rate>
						<start>25020</start>
						<end>25083</end>
						<in>298</in>
						<out>361</out>
						<pproTicksIn>3154032000000</pproTicksIn>
						<pproTicksOut>3820824000000</pproTicksOut>
						<alphatype>none</alphatype>
						<pixelaspectratio>square</pixelaspectratio>
						<anamorphic>FALSE</anamorphic>
						<file id="file-212">
							<name>A021_11020051_C002.mp4</name>
							<pathurl>file://localhost/F%3a/love%20song/boating/A021_11020051_C002.mp4</pathurl>
							<rate>
								<timebase>24</timebase>
								<ntsc>FALSE</ntsc>
							</rate>
							<duration>2712</duration>
							<timecode>
								<rate>
									<timebase>24</timebase>
									<ntsc>FALSE</ntsc>
								</rate>
								<string>00:51:28:00</string>
								<frame>74112</frame>
								<displayformat>NDF</displayformat>
							</timecode>
							<media>
								<video>
									<samplecharacteristics>
										<rate>
											<timebase>24</timebase>
											<ntsc>FALSE</ntsc>
										</rate>
										<width>1920</width>
										<height>1080</height>
										<anamorphic>FALSE</anamorphic>
										<pixelaspectratio>square</pixelaspectratio>
										<fielddominance>none</fielddominance>
									</samplecharacteristics>
								</video>
								<audio>
									<samplecharacteristics>
										<depth>16</depth>
										<samplerate>48000</samplerate>
									</samplecharacteristics>
									<channelcount>2</channelcount>
								</audio>
							</media>
						</file>
						<filter>
							<effect>
								<name>Opacity</name>
								<effectid>opacity</effectid>
								<effectcategory>motion</effectcategory>
								<effecttype>motion</effecttype>
								<mediatype>video</mediatype>
								<pproBypass>false</pproBypass>
								<parameter authoringApp="PremierePro">
									<parameterid>opacity</parameterid>
									<name>opacity</name>
									<valuemin>0</valuemin>
									<valuemax>100</valuemax>
									<value>100</value>
									<keyframe>
										<when>307</when>
										<value>100</value>
									</keyframe>
									<keyframe>
										<when>357</when>
										<value>100</value>
									</keyframe>
									<keyframe>
										<when>371</when>
										<value>0</value>
									</keyframe>
								</parameter>
							</effect>
						</filter>
						<logginginfo>
							<description></description>
							<scene></scene>
							<shottake></shottake>
							<lognote></lognote>
							<good></good>
							<originalvideofilename></originalvideofilename>
							<originalaudiofilename></originalaudiofilename>
						</logginginfo>
						<colorinfo>
							<lut></lut>
							<lut1></lut1>
							<asc_sop></asc_sop>
							<asc_sat></asc_sat>
							<lut2></lut2>
						</colorinfo>
						<labels>
							<label2>Iris</label2>
						</labels>
					</clipitem>
					<clipitem id="clipitem-441">
						<masterclipid>masterclip-213</masterclipid>
						<name>A021_11020206_C018.mp4</name>
						<enabled>TRUE</enabled>
						<duration>2157</duration>
						<rate>
							<timebase>24</timebase>
							<ntsc>FALSE</ntsc>
						</rate>
						<start>25166</start>
						<end>25213</end>
						<in>779</in>
						<out>826</out>
						<pproTicksIn>8244936000000</pproTicksIn>
						<pproTicksOut>8742384000000</pproTicksOut>
						<alphatype>none</alphatype>
						<pixelaspectratio>square</pixelaspectratio>
						<anamorphic>FALSE</anamorphic>
						<file id="file-213">
							<name>A021_11020206_C018.mp4</name>
							<pathurl>file://localhost/F%3a/love%20song/boating/A021_11020206_C018.mp4</pathurl>
							<rate>
								<timebase>24</timebase>
								<ntsc>FALSE</ntsc>
							</rate>
							<duration>2157</duration>
							<timecode>
								<rate>
									<timebase>24</timebase>
									<ntsc>FALSE</ntsc>
								</rate>
								<string>02:06:06:20</string>
								<frame>181604</frame>
								<displayformat>NDF</displayformat>
							</timecode>
							<media>
								<video>
									<samplecharacteristics>
										<rate>
											<timebase>24</timebase>
											<ntsc>FALSE</ntsc>
										</rate>
										<width>1920</width>
										<height>1080</height>
										<anamorphic>FALSE</anamorphic>
										<pixelaspectratio>square</pixelaspectratio>
										<fielddominance>none</fielddominance>
									</samplecharacteristics>
								</video>
								<audio>
									<samplecharacteristics>
										<depth>16</depth>
										<samplerate>48000</samplerate>
									</samplecharacteristics>
									<channelcount>2</channelcount>
								</audio>
							</media>
						</file>
						<logginginfo>
							<description></description>
							<scene></scene>
							<shottake></shottake>
							<lognote></lognote>
							<good></good>
							<originalvideofilename></originalvideofilename>
							<originalaudiofilename></originalaudiofilename>
						</logginginfo>
						<colorinfo>
							<lut></lut>
							<lut1></lut1>
							<asc_sop></asc_sop>
							<asc_sat></asc_sat>
							<lut2></lut2>
						</colorinfo>
						<labels>
							<label2>Iris</label2>
						</labels>
					</clipitem>
					<clipitem id="clipitem-442">
						<masterclipid>masterclip-141</masterclipid>
						<name>2021_12_14_17_03_43.mov</name>
						<enabled>TRUE</enabled>
						<duration>400</duration>
						<rate>
							<timebase>24</timebase>
							<ntsc>FALSE</ntsc>
						</rate>
						<start>25753</start>
						<end>25789</end>
						<in>77</in>
						<out>113</out>
						<pproTicksIn>1629936000000</pproTicksIn>
						<pproTicksOut>2391984000000</pproTicksOut>
						<alphatype>none</alphatype>
						<file id="file-141"/>
						<filter>
							<effect>
								<name>Time Remap</name>
								<effectid>timeremap</effectid>
								<effectcategory>motion</effectcategory>
								<effecttype>motion</effecttype>
								<mediatype>video</mediatype>
								<parameter authoringApp="PremierePro">
									<parameterid>variablespeed</parameterid>
									<name>variablespeed</name>
									<valuemin>0</valuemin>
									<valuemax>1</valuemax>
									<value>0</value>
								</parameter>
								<parameter authoringApp="PremierePro">
									<parameterid>speed</parameterid>
									<name>speed</name>
									<valuemin>-100000</valuemin>
									<valuemax>100000</valuemax>
									<value>200</value>
								</parameter>
								<parameter authoringApp="PremierePro">
									<parameterid>reverse</parameterid>
									<name>reverse</name>
									<value>FALSE</value>
								</parameter>
								<parameter authoringApp="PremierePro">
									<parameterid>frameblending</parameterid>
									<name>frameblending</name>
									<value>FALSE</value>
								</parameter>
								<parameter authoringApp="PremierePro">
									<parameterid>graphdict</parameterid>
									<name>graphdict</name>
									<valuemin>0</valuemin>
									<valuemax>800</valuemax>
									<value>0</value>
									<keyframe>
										<when>0</when>
										<value>0</value>
										<speedvirtualkf>TRUE</speedvirtualkf>
										<speedkfstart>TRUE</speedkfstart>
									</keyframe>
									<keyframe>
										<when>77</when>
										<value>154</value>
										<speedvirtualkf>TRUE</speedvirtualkf>
										<speedkfin>TRUE</speedkfin>
									</keyframe>
									<keyframe>
										<when>113</when>
										<value>226</value>
										<speedvirtualkf>TRUE</speedvirtualkf>
										<speedkfout>TRUE</speedkfout>
									</keyframe>
									<keyframe>
										<when>400</when>
										<value>800</value>
										<speedvirtualkf>TRUE</speedvirtualkf>
										<speedkfend>TRUE</speedkfend>
									</keyframe>
									<interpolation>
										<name>FCPCurve</name>
									</interpolation>
								</parameter>
							</effect>
						</filter>
						<logginginfo>
							<description></description>
							<scene></scene>
							<shottake></shottake>
							<lognote></lognote>
							<good></good>
							<originalvideofilename></originalvideofilename>
							<originalaudiofilename></originalaudiofilename>
						</logginginfo>
						<colorinfo>
							<lut></lut>
							<lut1></lut1>
							<asc_sop></asc_sop>
							<asc_sat></asc_sat>
							<lut2></lut2>
						</colorinfo>
						<labels>
							<label2>Iris</label2>
						</labels>
					</clipitem>
					<clipitem id="clipitem-443">
						<masterclipid>masterclip-214</masterclipid>
						<name>A013_10311312_C126.mp4</name>
						<enabled>TRUE</enabled>
						<duration>2135</duration>
						<rate>
							<timebase>24</timebase>
							<ntsc>FALSE</ntsc>
						</rate>
						<start>25836</start>
						<end>25887</end>
						<in>984</in>
						<out>1035</out>
						<pproTicksIn>10414656000000</pproTicksIn>
						<pproTicksOut>10954440000000</pproTicksOut>
						<alphatype>none</alphatype>
						<pixelaspectratio>square</pixelaspectratio>
						<anamorphic>FALSE</anamorphic>
						<file id="file-214">
							<name>A013_10311312_C126.mp4</name>
							<pathurl>file://localhost/F%3a/love%20song/meera%20room/A013_10311312_C126.mp4</pathurl>
							<rate>
								<timebase>24</timebase>
								<ntsc>FALSE</ntsc>
							</rate>
							<duration>2135</duration>
							<timecode>
								<rate>
									<timebase>24</timebase>
									<ntsc>FALSE</ntsc>
								</rate>
								<string>13:12:05:14</string>
								<frame>1140614</frame>
								<displayformat>NDF</displayformat>
							</timecode>
							<media>
								<video>
									<samplecharacteristics>
										<rate>
											<timebase>24</timebase>
											<ntsc>FALSE</ntsc>
										</rate>
										<width>1920</width>
										<height>1080</height>
										<anamorphic>FALSE</anamorphic>
										<pixelaspectratio>square</pixelaspectratio>
										<fielddominance>none</fielddominance>
									</samplecharacteristics>
								</video>
								<audio>
									<samplecharacteristics>
										<depth>16</depth>
										<samplerate>48000</samplerate>
									</samplecharacteristics>
									<channelcount>2</channelcount>
								</audio>
							</media>
						</file>
						<logginginfo>
							<description></description>
							<scene></scene>
							<shottake></shottake>
							<lognote></lognote>
							<good></good>
							<originalvideofilename></originalvideofilename>
							<originalaudiofilename></originalaudiofilename>
						</logginginfo>
						<colorinfo>
							<lut></lut>
							<lut1></lut1>
							<asc_sop></asc_sop>
							<asc_sat></asc_sat>
							<lut2></lut2>
						</colorinfo>
						<labels>
							<label2>Iris</label2>
						</labels>
					</clipitem>
					<clipitem id="clipitem-444">
						<masterclipid>masterclip-145</masterclipid>
						<name>A013_10311230_C116.mp4</name>
						<enabled>TRUE</enabled>
						<duration>1285</duration>
						<rate>
							<timebase>24</timebase>
							<ntsc>FALSE</ntsc>
						</rate>
						<start>26005</start>
						<end>26029</end>
						<in>806</in>
						<out>830</out>
						<pproTicksIn>8530704000000</pproTicksIn>
						<pproTicksOut>8784720000000</pproTicksOut>
						<alphatype>none</alphatype>
						<file id="file-145"/>
						<logginginfo>
							<description></description>
							<scene></scene>
							<shottake></shottake>
							<lognote></lognote>
							<good></good>
							<originalvideofilename></originalvideofilename>
							<originalaudiofilename></originalaudiofilename>
						</logginginfo>
						<colorinfo>
							<lut></lut>
							<lut1></lut1>
							<asc_sop></asc_sop>
							<asc_sat></asc_sat>
							<lut2></lut2>
						</colorinfo>
						<labels>
							<label2>Iris</label2>
						</labels>
					</clipitem>
					<clipitem id="clipitem-445">
						<masterclipid>masterclip-157</masterclipid>
						<name>DJI_0101.mov</name>
						<enabled>TRUE</enabled>
						<duration>1071</duration>
						<rate>
							<timebase>24</timebase>
							<ntsc>FALSE</ntsc>
						</rate>
						<start>26400</start>
						<end>26413</end>
						<in>853</in>
						<out>865</out>
						<pproTicksIn>13536936000000</pproTicksIn>
						<pproTicksOut>13743324000000</pproTicksOut>
						<alphatype>none</alphatype>
						<file id="file-157"/>
						<filter>
							<effect>
								<name>Time Remap</name>
								<effectid>timeremap</effectid>
								<effectcategory>motion</effectcategory>
								<effecttype>motion</effecttype>
								<mediatype>video</mediatype>
								<parameter authoringApp="PremierePro">
									<parameterid>variablespeed</parameterid>
									<name>variablespeed</name>
									<valuemin>0</valuemin>
									<valuemax>1</valuemax>
									<value>0</value>
								</parameter>
								<parameter authoringApp="PremierePro">
									<parameterid>speed</parameterid>
									<name>speed</name>
									<valuemin>-100000</valuemin>
									<valuemax>100000</valuemax>
									<value>150</value>
								</parameter>
								<parameter authoringApp="PremierePro">
									<parameterid>reverse</parameterid>
									<name>reverse</name>
									<value>FALSE</value>
								</parameter>
								<parameter authoringApp="PremierePro">
									<parameterid>frameblending</parameterid>
									<name>frameblending</name>
									<value>FALSE</value>
								</parameter>
								<parameter authoringApp="PremierePro">
									<parameterid>graphdict</parameterid>
									<name>graphdict</name>
									<valuemin>0</valuemin>
									<valuemax>1606</valuemax>
									<value>0</value>
									<keyframe>
										<when>0</when>
										<value>0</value>
										<speedvirtualkf>TRUE</speedvirtualkf>
										<speedkfstart>TRUE</speedkfstart>
									</keyframe>
									<keyframe>
										<when>853</when>
										<value>1279</value>
										<speedvirtualkf>TRUE</speedvirtualkf>
										<speedkfin>TRUE</speedkfin>
									</keyframe>
									<keyframe>
										<when>865</when>
										<value>1297</value>
										<speedvirtualkf>TRUE</speedvirtualkf>
										<speedkfout>TRUE</speedkfout>
									</keyframe>
									<keyframe>
										<when>1071</when>
										<value>1606</value>
										<speedvirtualkf>TRUE</speedvirtualkf>
										<speedkfend>TRUE</speedkfend>
									</keyframe>
									<interpolation>
										<name>FCPCurve</name>
									</interpolation>
								</parameter>
							</effect>
						</filter>
						<logginginfo>
							<description></description>
							<scene></scene>
							<shottake></shottake>
							<lognote></lognote>
							<good></good>
							<originalvideofilename></originalvideofilename>
							<originalaudiofilename></originalaudiofilename>
						</logginginfo>
						<colorinfo>
							<lut></lut>
							<lut1></lut1>
							<asc_sop></asc_sop>
							<asc_sat></asc_sat>
							<lut2></lut2>
						</colorinfo>
						<labels>
							<label2>Iris</label2>
						</labels>
					</clipitem>
					<clipitem id="clipitem-446">
						<masterclipid>masterclip-159</masterclipid>
						<name>2021_12_14_13_55_45.mov</name>
						<enabled>TRUE</enabled>
						<duration>287</duration>
						<rate>
							<timebase>24</timebase>
							<ntsc>FALSE</ntsc>
						</rate>
						<start>26413</start>
						<end>26425</end>
						<in>133</in>
						<out>144</out>
						<pproTicksIn>2804760000000</pproTicksIn>
						<pproTicksOut>3058776000000</pproTicksOut>
						<alphatype>none</alphatype>
						<file id="file-159"/>
						<filter>
							<effect>
								<name>Time Remap</name>
								<effectid>timeremap</effectid>
								<effectcategory>motion</effectcategory>
								<effecttype>motion</effecttype>
								<mediatype>video</mediatype>
								<parameter authoringApp="PremierePro">
									<parameterid>variablespeed</parameterid>
									<name>variablespeed</name>
									<valuemin>0</valuemin>
									<valuemax>1</valuemax>
									<value>0</value>
								</parameter>
								<parameter authoringApp="PremierePro">
									<parameterid>speed</parameterid>
									<name>speed</name>
									<valuemin>-100000</valuemin>
									<valuemax>100000</valuemax>
									<value>200</value>
								</parameter>
								<parameter authoringApp="PremierePro">
									<parameterid>reverse</parameterid>
									<name>reverse</name>
									<value>FALSE</value>
								</parameter>
								<parameter authoringApp="PremierePro">
									<parameterid>frameblending</parameterid>
									<name>frameblending</name>
									<value>FALSE</value>
								</parameter>
								<parameter authoringApp="PremierePro">
									<parameterid>graphdict</parameterid>
									<name>graphdict</name>
									<valuemin>0</valuemin>
									<valuemax>574</valuemax>
									<value>0</value>
									<keyframe>
										<when>0</when>
										<value>0</value>
										<speedvirtualkf>TRUE</speedvirtualkf>
										<speedkfstart>TRUE</speedkfstart>
									</keyframe>
									<keyframe>
										<when>133</when>
										<value>266</value>
										<speedvirtualkf>TRUE</speedvirtualkf>
										<speedkfin>TRUE</speedkfin>
									</keyframe>
									<keyframe>
										<when>144</when>
										<value>288</value>
										<speedvirtualkf>TRUE</speedvirtualkf>
										<speedkfout>TRUE</speedkfout>
									</keyframe>
									<keyframe>
										<when>287</when>
										<value>574</value>
										<speedvirtualkf>TRUE</speedvirtualkf>
										<speedkfend>TRUE</speedkfend>
									</keyframe>
									<interpolation>
										<name>FCPCurve</name>
									</interpolation>
								</parameter>
							</effect>
						</filter>
						<logginginfo>
							<description></description>
							<scene></scene>
							<shottake></shottake>
							<lognote></lognote>
							<good></good>
							<originalvideofilename></originalvideofilename>
							<originalaudiofilename></originalaudiofilename>
						</logginginfo>
						<colorinfo>
							<lut></lut>
							<lut1></lut1>
							<asc_sop></asc_sop>
							<asc_sat></asc_sat>
							<lut2></lut2>
						</colorinfo>
						<labels>
							<label2>Iris</label2>
						</labels>
					</clipitem>
					<clipitem id="clipitem-447">
						<masterclipid>masterclip-215</masterclipid>
						<name>A012_10301008_C114.mp4</name>
						<enabled>TRUE</enabled>
						<duration>993</duration>
						<rate>
							<timebase>24</timebase>
							<ntsc>FALSE</ntsc>
						</rate>
						<start>26425</start>
						<end>26437</end>
						<in>649</in>
						<out>661</out>
						<pproTicksIn>13738032000000</pproTicksIn>
						<pproTicksOut>13992048000000</pproTicksOut>
						<alphatype>none</alphatype>
						<pixelaspectratio>square</pixelaspectratio>
						<anamorphic>FALSE</anamorphic>
						<file id="file-215">
							<name>A012_10301008_C114.mp4</name>
							<pathurl>file://localhost/F%3a/love%20song/rotation%20and%20forest/A012_10301008_C114.mp4</pathurl>
							<rate>
								<timebase>24</timebase>
								<ntsc>FALSE</ntsc>
							</rate>
							<duration>1987</duration>
							<timecode>
								<rate>
									<timebase>24</timebase>
									<ntsc>FALSE</ntsc>
								</rate>
								<string>10:08:08:01</string>
								<frame>875713</frame>
								<displayformat>NDF</displayformat>
							</timecode>
							<media>
								<video>
									<samplecharacteristics>
										<rate>
											<timebase>24</timebase>
											<ntsc>FALSE</ntsc>
										</rate>
										<width>1920</width>
										<height>1080</height>
										<anamorphic>FALSE</anamorphic>
										<pixelaspectratio>square</pixelaspectratio>
										<fielddominance>none</fielddominance>
									</samplecharacteristics>
								</video>
								<audio>
									<samplecharacteristics>
										<depth>16</depth>
										<samplerate>48000</samplerate>
									</samplecharacteristics>
									<channelcount>2</channelcount>
								</audio>
							</media>
						</file>
						<filter>
							<effect>
								<name>Time Remap</name>
								<effectid>timeremap</effectid>
								<effectcategory>motion</effectcategory>
								<effecttype>motion</effecttype>
								<mediatype>video</mediatype>
								<parameter authoringApp="PremierePro">
									<parameterid>variablespeed</parameterid>
									<name>variablespeed</name>
									<valuemin>0</valuemin>
									<valuemax>1</valuemax>
									<value>0</value>
								</parameter>
								<parameter authoringApp="PremierePro">
									<parameterid>speed</parameterid>
									<name>speed</name>
									<valuemin>-100000</valuemin>
									<valuemax>100000</valuemax>
									<value>200</value>
								</parameter>
								<parameter authoringApp="PremierePro">
									<parameterid>reverse</parameterid>
									<name>reverse</name>
									<value>FALSE</value>
								</parameter>
								<parameter authoringApp="PremierePro">
									<parameterid>frameblending</parameterid>
									<name>frameblending</name>
									<value>FALSE</value>
								</parameter>
								<parameter authoringApp="PremierePro">
									<parameterid>graphdict</parameterid>
									<name>graphdict</name>
									<valuemin>0</valuemin>
									<valuemax>1986</valuemax>
									<value>0</value>
									<keyframe>
										<when>0</when>
										<value>0</value>
										<speedvirtualkf>TRUE</speedvirtualkf>
										<speedkfstart>TRUE</speedkfstart>
									</keyframe>
									<keyframe>
										<when>649</when>
										<value>1298</value>
										<speedvirtualkf>TRUE</speedvirtualkf>
										<speedkfin>TRUE</speedkfin>
									</keyframe>
									<keyframe>
										<when>661</when>
										<value>1322</value>
										<speedvirtualkf>TRUE</speedvirtualkf>
										<speedkfout>TRUE</speedkfout>
									</keyframe>
									<keyframe>
										<when>993</when>
										<value>1986</value>
										<speedvirtualkf>TRUE</speedvirtualkf>
										<speedkfend>TRUE</speedkfend>
									</keyframe>
									<interpolation>
										<name>FCPCurve</name>
									</interpolation>
								</parameter>
							</effect>
						</filter>
						<logginginfo>
							<description></description>
							<scene></scene>
							<shottake></shottake>
							<lognote></lognote>
							<good></good>
							<originalvideofilename></originalvideofilename>
							<originalaudiofilename></originalaudiofilename>
						</logginginfo>
						<colorinfo>
							<lut></lut>
							<lut1></lut1>
							<asc_sop></asc_sop>
							<asc_sat></asc_sat>
							<lut2></lut2>
						</colorinfo>
						<labels>
							<label2>Iris</label2>
						</labels>
					</clipitem>
					<clipitem id="clipitem-448">
						<masterclipid>masterclip-159</masterclipid>
						<name>2021_12_14_13_55_45.mov</name>
						<enabled>TRUE</enabled>
						<duration>287</duration>
						<rate>
							<timebase>24</timebase>
							<ntsc>FALSE</ntsc>
						</rate>
						<start>26437</start>
						<end>26449</end>
						<in>182</in>
						<out>193</out>
						<pproTicksIn>3841992000000</pproTicksIn>
						<pproTicksOut>4096008000000</pproTicksOut>
						<alphatype>none</alphatype>
						<file id="file-159"/>
						<filter>
							<effect>
								<name>Time Remap</name>
								<effectid>timeremap</effectid>
								<effectcategory>motion</effectcategory>
								<effecttype>motion</effecttype>
								<mediatype>video</mediatype>
								<parameter authoringApp="PremierePro">
									<parameterid>variablespeed</parameterid>
									<name>variablespeed</name>
									<valuemin>0</valuemin>
									<valuemax>1</valuemax>
									<value>0</value>
								</parameter>
								<parameter authoringApp="PremierePro">
									<parameterid>speed</parameterid>
									<name>speed</name>
									<valuemin>-100000</valuemin>
									<valuemax>100000</valuemax>
									<value>200</value>
								</parameter>
								<parameter authoringApp="PremierePro">
									<parameterid>reverse</parameterid>
									<name>reverse</name>
									<value>FALSE</value>
								</parameter>
								<parameter authoringApp="PremierePro">
									<parameterid>frameblending</parameterid>
									<name>frameblending</name>
									<value>FALSE</value>
								</parameter>
								<parameter authoringApp="PremierePro">
									<parameterid>graphdict</parameterid>
									<name>graphdict</name>
									<valuemin>0</valuemin>
									<valuemax>574</valuemax>
									<value>0</value>
									<keyframe>
										<when>0</when>
										<value>0</value>
										<speedvirtualkf>TRUE</speedvirtualkf>
										<speedkfstart>TRUE</speedkfstart>
									</keyframe>
									<keyframe>
										<when>182</when>
										<value>364</value>
										<speedvirtualkf>TRUE</speedvirtualkf>
										<speedkfin>TRUE</speedkfin>
									</keyframe>
									<keyframe>
										<when>193</when>
										<value>386</value>
										<speedvirtualkf>TRUE</speedvirtualkf>
										<speedkfout>TRUE</speedkfout>
									</keyframe>
									<keyframe>
										<when>287</when>
										<value>574</value>
										<speedvirtualkf>TRUE</speedvirtualkf>
										<speedkfend>TRUE</speedkfend>
									</keyframe>
									<interpolation>
										<name>FCPCurve</name>
									</interpolation>
								</parameter>
							</effect>
						</filter>
						<logginginfo>
							<description></description>
							<scene></scene>
							<shottake></shottake>
							<lognote></lognote>
							<good></good>
							<originalvideofilename></originalvideofilename>
							<originalaudiofilename></originalaudiofilename>
						</logginginfo>
						<colorinfo>
							<lut></lut>
							<lut1></lut1>
							<asc_sop></asc_sop>
							<asc_sat></asc_sat>
							<lut2></lut2>
						</colorinfo>
						<labels>
							<label2>Iris</label2>
						</labels>
					</clipitem>
					<clipitem id="clipitem-449">
						<masterclipid>masterclip-160</masterclipid>
						<name>A012_10301007_C113.mp4</name>
						<enabled>TRUE</enabled>
						<duration>2261</duration>
						<rate>
							<timebase>24</timebase>
							<ntsc>FALSE</ntsc>
						</rate>
						<start>26449</start>
						<end>26461</end>
						<in>1851</in>
						<out>1863</out>
						<pproTicksIn>19590984000000</pproTicksIn>
						<pproTicksOut>19717992000000</pproTicksOut>
						<alphatype>none</alphatype>
						<file id="file-160"/>
						<logginginfo>
							<description></description>
							<scene></scene>
							<shottake></shottake>
							<lognote></lognote>
							<good></good>
							<originalvideofilename></originalvideofilename>
							<originalaudiofilename></originalaudiofilename>
						</logginginfo>
						<colorinfo>
							<lut></lut>
							<lut1></lut1>
							<asc_sop></asc_sop>
							<asc_sat></asc_sat>
							<lut2></lut2>
						</colorinfo>
						<labels>
							<label2>Iris</label2>
						</labels>
					</clipitem>
					<clipitem id="clipitem-450">
						<masterclipid>masterclip-159</masterclipid>
						<name>2021_12_14_13_55_45.mov</name>
						<enabled>TRUE</enabled>
						<duration>287</duration>
						<rate>
							<timebase>24</timebase>
							<ntsc>FALSE</ntsc>
						</rate>
						<start>26461</start>
						<end>26473</end>
						<in>206</in>
						<out>217</out>
						<pproTicksIn>4350024000000</pproTicksIn>
						<pproTicksOut>4604040000000</pproTicksOut>
						<alphatype>none</alphatype>
						<file id="file-159"/>
						<filter>
							<effect>
								<name>Time Remap</name>
								<effectid>timeremap</effectid>
								<effectcategory>motion</effectcategory>
								<effecttype>motion</effecttype>
								<mediatype>video</mediatype>
								<parameter authoringApp="PremierePro">
									<parameterid>variablespeed</parameterid>
									<name>variablespeed</name>
									<valuemin>0</valuemin>
									<valuemax>1</valuemax>
									<value>0</value>
								</parameter>
								<parameter authoringApp="PremierePro">
									<parameterid>speed</parameterid>
									<name>speed</name>
									<valuemin>-100000</valuemin>
									<valuemax>100000</valuemax>
									<value>200</value>
								</parameter>
								<parameter authoringApp="PremierePro">
									<parameterid>reverse</parameterid>
									<name>reverse</name>
									<value>FALSE</value>
								</parameter>
								<parameter authoringApp="PremierePro">
									<parameterid>frameblending</parameterid>
									<name>frameblending</name>
									<value>FALSE</value>
								</parameter>
								<parameter authoringApp="PremierePro">
									<parameterid>graphdict</parameterid>
									<name>graphdict</name>
									<valuemin>0</valuemin>
									<valuemax>574</valuemax>
									<value>0</value>
									<keyframe>
										<when>0</when>
										<value>0</value>
										<speedvirtualkf>TRUE</speedvirtualkf>
										<speedkfstart>TRUE</speedkfstart>
									</keyframe>
									<keyframe>
										<when>206</when>
										<value>412</value>
										<speedvirtualkf>TRUE</speedvirtualkf>
										<speedkfin>TRUE</speedkfin>
									</keyframe>
									<keyframe>
										<when>217</when>
										<value>434</value>
										<speedvirtualkf>TRUE</speedvirtualkf>
										<speedkfout>TRUE</speedkfout>
									</keyframe>
									<keyframe>
										<when>287</when>
										<value>574</value>
										<speedvirtualkf>TRUE</speedvirtualkf>
										<speedkfend>TRUE</speedkfend>
									</keyframe>
									<interpolation>
										<name>FCPCurve</name>
									</interpolation>
								</parameter>
							</effect>
						</filter>
						<logginginfo>
							<description></description>
							<scene></scene>
							<shottake></shottake>
							<lognote></lognote>
							<good></good>
							<originalvideofilename></originalvideofilename>
							<originalaudiofilename></originalaudiofilename>
						</logginginfo>
						<colorinfo>
							<lut></lut>
							<lut1></lut1>
							<asc_sop></asc_sop>
							<asc_sat></asc_sat>
							<lut2></lut2>
						</colorinfo>
						<labels>
							<label2>Iris</label2>
						</labels>
					</clipitem>
					<clipitem id="clipitem-451">
						<masterclipid>masterclip-160</masterclipid>
						<name>A012_10301007_C113.mp4</name>
						<enabled>TRUE</enabled>
						<duration>2261</duration>
						<rate>
							<timebase>24</timebase>
							<ntsc>FALSE</ntsc>
						</rate>
						<start>26473</start>
						<end>26485</end>
						<in>1870</in>
						<out>1882</out>
						<pproTicksIn>19792080000000</pproTicksIn>
						<pproTicksOut>19919088000000</pproTicksOut>
						<alphatype>none</alphatype>
						<file id="file-160"/>
						<logginginfo>
							<description></description>
							<scene></scene>
							<shottake></shottake>
							<lognote></lognote>
							<good></good>
							<originalvideofilename></originalvideofilename>
							<originalaudiofilename></originalaudiofilename>
						</logginginfo>
						<colorinfo>
							<lut></lut>
							<lut1></lut1>
							<asc_sop></asc_sop>
							<asc_sat></asc_sat>
							<lut2></lut2>
						</colorinfo>
						<labels>
							<label2>Iris</label2>
						</labels>
					</clipitem>
					<clipitem id="clipitem-452">
						<masterclipid>masterclip-164</masterclipid>
						<name>A025_11021411_C010.mp4</name>
						<enabled>TRUE</enabled>
						<duration>3423</duration>
						<rate>
							<timebase>24</timebase>
							<ntsc>FALSE</ntsc>
						</rate>
						<start>26658</start>
						<end>26709</end>
						<in>2354</in>
						<out>2405</out>
						<pproTicksIn>24914736000000</pproTicksIn>
						<pproTicksOut>25454520000000</pproTicksOut>
						<alphatype>none</alphatype>
						<file id="file-164"/>
						<logginginfo>
							<description></description>
							<scene></scene>
							<shottake></shottake>
							<lognote></lognote>
							<good></good>
							<originalvideofilename></originalvideofilename>
							<originalaudiofilename></originalaudiofilename>
						</logginginfo>
						<colorinfo>
							<lut></lut>
							<lut1></lut1>
							<asc_sop></asc_sop>
							<asc_sat></asc_sat>
							<lut2></lut2>
						</colorinfo>
						<labels>
							<label2>Iris</label2>
						</labels>
					</clipitem>
					<clipitem id="clipitem-453">
						<masterclipid>masterclip-163</masterclipid>
						<name>A024_11021314_C001.mp4</name>
						<enabled>TRUE</enabled>
						<duration>11058</duration>
						<rate>
							<timebase>24</timebase>
							<ntsc>FALSE</ntsc>
						</rate>
						<start>26709</start>
						<end>26740</end>
						<in>1565</in>
						<out>1596</out>
						<pproTicksIn>16563960000000</pproTicksIn>
						<pproTicksOut>16892064000000</pproTicksOut>
						<alphatype>none</alphatype>
						<file id="file-163"/>
						<logginginfo>
							<description></description>
							<scene></scene>
							<shottake></shottake>
							<lognote></lognote>
							<good></good>
							<originalvideofilename></originalvideofilename>
							<originalaudiofilename></originalaudiofilename>
						</logginginfo>
						<colorinfo>
							<lut></lut>
							<lut1></lut1>
							<asc_sop></asc_sop>
							<asc_sat></asc_sat>
							<lut2></lut2>
						</colorinfo>
						<labels>
							<label2>Iris</label2>
						</labels>
					</clipitem>
					<clipitem id="clipitem-454">
						<masterclipid>masterclip-165</masterclipid>
						<name>A024_11021325_C002.mp4</name>
						<enabled>TRUE</enabled>
						<duration>6495</duration>
						<rate>
							<timebase>24</timebase>
							<ntsc>FALSE</ntsc>
						</rate>
						<start>26740</start>
						<end>26765</end>
						<in>2660</in>
						<out>2685</out>
						<pproTicksIn>28153440000000</pproTicksIn>
						<pproTicksOut>28418040000000</pproTicksOut>
						<alphatype>none</alphatype>
						<file id="file-165"/>
						<logginginfo>
							<description></description>
							<scene></scene>
							<shottake></shottake>
							<lognote></lognote>
							<good></good>
							<originalvideofilename></originalvideofilename>
							<originalaudiofilename></originalaudiofilename>
						</logginginfo>
						<colorinfo>
							<lut></lut>
							<lut1></lut1>
							<asc_sop></asc_sop>
							<asc_sat></asc_sat>
							<lut2></lut2>
						</colorinfo>
						<labels>
							<label2>Iris</label2>
						</labels>
					</clipitem>
					<clipitem id="clipitem-455">
						<masterclipid>masterclip-165</masterclipid>
						<name>A024_11021325_C002.mp4</name>
						<enabled>TRUE</enabled>
						<duration>6495</duration>
						<rate>
							<timebase>24</timebase>
							<ntsc>FALSE</ntsc>
						</rate>
						<start>26765</start>
						<end>26791</end>
						<in>2953</in>
						<out>2979</out>
						<pproTicksIn>31254552000000</pproTicksIn>
						<pproTicksOut>31529736000000</pproTicksOut>
						<alphatype>none</alphatype>
						<file id="file-165"/>
						<logginginfo>
							<description></description>
							<scene></scene>
							<shottake></shottake>
							<lognote></lognote>
							<good></good>
							<originalvideofilename></originalvideofilename>
							<originalaudiofilename></originalaudiofilename>
						</logginginfo>
						<colorinfo>
							<lut></lut>
							<lut1></lut1>
							<asc_sop></asc_sop>
							<asc_sat></asc_sat>
							<lut2></lut2>
						</colorinfo>
						<labels>
							<label2>Iris</label2>
						</labels>
					</clipitem>
					<clipitem id="clipitem-456">
						<masterclipid>masterclip-165</masterclipid>
						<name>A024_11021325_C002.mp4</name>
						<enabled>TRUE</enabled>
						<duration>6495</duration>
						<rate>
							<timebase>24</timebase>
							<ntsc>FALSE</ntsc>
						</rate>
						<start>26791</start>
						<end>26839</end>
						<in>4511</in>
						<out>4559</out>
						<pproTicksIn>47744424000000</pproTicksIn>
						<pproTicksOut>48252456000000</pproTicksOut>
						<alphatype>none</alphatype>
						<file id="file-165"/>
						<logginginfo>
							<description></description>
							<scene></scene>
							<shottake></shottake>
							<lognote></lognote>
							<good></good>
							<originalvideofilename></originalvideofilename>
							<originalaudiofilename></originalaudiofilename>
						</logginginfo>
						<colorinfo>
							<lut></lut>
							<lut1></lut1>
							<asc_sop></asc_sop>
							<asc_sat></asc_sat>
							<lut2></lut2>
						</colorinfo>
						<labels>
							<label2>Iris</label2>
						</labels>
					</clipitem>
					<clipitem id="clipitem-457">
						<masterclipid>masterclip-216</masterclipid>
						<name>A025_11021341_C005.mp4</name>
						<enabled>TRUE</enabled>
						<duration>1840</duration>
						<rate>
							<timebase>24</timebase>
							<ntsc>FALSE</ntsc>
						</rate>
						<start>26839</start>
						<end>26880</end>
						<in>697</in>
						<out>738</out>
						<pproTicksIn>7377048000000</pproTicksIn>
						<pproTicksOut>7810992000000</pproTicksOut>
						<alphatype>none</alphatype>
						<pixelaspectratio>square</pixelaspectratio>
						<anamorphic>FALSE</anamorphic>
						<file id="file-216">
							<name>A025_11021341_C005.mp4</name>
							<pathurl>file://localhost/F%3a/love%20song/temple/A025_11021341_C005.mp4</pathurl>
							<rate>
								<timebase>24</timebase>
								<ntsc>FALSE</ntsc>
							</rate>
							<duration>1840</duration>
							<timecode>
								<rate>
									<timebase>24</timebase>
									<ntsc>FALSE</ntsc>
								</rate>
								<string>13:41:14:20</string>
								<frame>1182596</frame>
								<displayformat>NDF</displayformat>
							</timecode>
							<media>
								<video>
									<samplecharacteristics>
										<rate>
											<timebase>24</timebase>
											<ntsc>FALSE</ntsc>
										</rate>
										<width>1920</width>
										<height>1080</height>
										<anamorphic>FALSE</anamorphic>
										<pixelaspectratio>square</pixelaspectratio>
										<fielddominance>none</fielddominance>
									</samplecharacteristics>
								</video>
								<audio>
									<samplecharacteristics>
										<depth>16</depth>
										<samplerate>48000</samplerate>
									</samplecharacteristics>
									<channelcount>2</channelcount>
								</audio>
							</media>
						</file>
						<logginginfo>
							<description></description>
							<scene></scene>
							<shottake></shottake>
							<lognote></lognote>
							<good></good>
							<originalvideofilename></originalvideofilename>
							<originalaudiofilename></originalaudiofilename>
						</logginginfo>
						<colorinfo>
							<lut></lut>
							<lut1></lut1>
							<asc_sop></asc_sop>
							<asc_sat></asc_sat>
							<lut2></lut2>
						</colorinfo>
						<labels>
							<label2>Iris</label2>
						</labels>
					</clipitem>
					<clipitem id="clipitem-458">
						<masterclipid>masterclip-167</masterclipid>
						<name>A025_11021418_C012.mp4</name>
						<enabled>TRUE</enabled>
						<duration>3609</duration>
						<rate>
							<timebase>24</timebase>
							<ntsc>FALSE</ntsc>
						</rate>
						<start>26928</start>
						<end>26977</end>
						<in>1639</in>
						<out>1688</out>
						<pproTicksIn>17347176000000</pproTicksIn>
						<pproTicksOut>17865792000000</pproTicksOut>
						<alphatype>none</alphatype>
						<file id="file-167"/>
						<filter>
							<effect>
								<name>Opacity</name>
								<effectid>opacity</effectid>
								<effectcategory>motion</effectcategory>
								<effecttype>motion</effecttype>
								<mediatype>video</mediatype>
								<pproBypass>false</pproBypass>
								<parameter authoringApp="PremierePro">
									<parameterid>opacity</parameterid>
									<name>opacity</name>
									<valuemin>0</valuemin>
									<valuemax>100</valuemax>
									<value>100</value>
									<keyframe>
										<when>1660</when>
										<value>100</value>
									</keyframe>
									<keyframe>
										<when>1675</when>
										<value>0</value>
									</keyframe>
								</parameter>
							</effect>
						</filter>
						<logginginfo>
							<description></description>
							<scene></scene>
							<shottake></shottake>
							<lognote></lognote>
							<good></good>
							<originalvideofilename></originalvideofilename>
							<originalaudiofilename></originalaudiofilename>
						</logginginfo>
						<colorinfo>
							<lut></lut>
							<lut1></lut1>
							<asc_sop></asc_sop>
							<asc_sat></asc_sat>
							<lut2></lut2>
						</colorinfo>
						<labels>
							<label2>Iris</label2>
						</labels>
					</clipitem>
					<clipitem id="clipitem-459">
						<masterclipid>masterclip-174</masterclipid>
						<name>A012_10300229_C040.mp4</name>
						<enabled>TRUE</enabled>
						<duration>768</duration>
						<rate>
							<timebase>24</timebase>
							<ntsc>FALSE</ntsc>
						</rate>
						<start>27469</start>
						<end>27517</end>
						<in>454</in>
						<out>502</out>
						<pproTicksIn>4805136000000</pproTicksIn>
						<pproTicksOut>5313168000000</pproTicksOut>
						<alphatype>none</alphatype>
						<file id="file-174"/>
						<logginginfo>
							<description></description>
							<scene></scene>
							<shottake></shottake>
							<lognote></lognote>
							<good></good>
							<originalvideofilename></originalvideofilename>
							<originalaudiofilename></originalaudiofilename>
						</logginginfo>
						<colorinfo>
							<lut></lut>
							<lut1></lut1>
							<asc_sop></asc_sop>
							<asc_sat></asc_sat>
							<lut2></lut2>
						</colorinfo>
						<labels>
							<label2>Iris</label2>
						</labels>
					</clipitem>
					<clipitem id="clipitem-460">
						<masterclipid>masterclip-176</masterclipid>
						<name>A012_10300250_C045.mp4</name>
						<enabled>TRUE</enabled>
						<duration>4341</duration>
						<rate>
							<timebase>24</timebase>
							<ntsc>FALSE</ntsc>
						</rate>
						<start>27612</start>
						<end>27663</end>
						<in>3251</in>
						<out>3302</out>
						<pproTicksIn>34408584000000</pproTicksIn>
						<pproTicksOut>34948368000000</pproTicksOut>
						<alphatype>none</alphatype>
						<file id="file-176"/>
						<logginginfo>
							<description></description>
							<scene></scene>
							<shottake></shottake>
							<lognote></lognote>
							<good></good>
							<originalvideofilename></originalvideofilename>
							<originalaudiofilename></originalaudiofilename>
						</logginginfo>
						<colorinfo>
							<lut></lut>
							<lut1></lut1>
							<asc_sop></asc_sop>
							<asc_sat></asc_sat>
							<lut2></lut2>
						</colorinfo>
						<labels>
							<label2>Iris</label2>
						</labels>
					</clipitem>
					<clipitem id="clipitem-461">
						<masterclipid>masterclip-191</masterclipid>
						<name>2021_12_14_08_19_11.mov</name>
						<enabled>FALSE</enabled>
						<duration>555</duration>
						<rate>
							<timebase>24</timebase>
							<ntsc>FALSE</ntsc>
						</rate>
						<start>28123</start>
						<end>28148</end>
						<in>369</in>
						<out>394</out>
						<pproTicksIn>3905496000000</pproTicksIn>
						<pproTicksOut>4170096000000</pproTicksOut>
						<alphatype>none</alphatype>
						<file id="file-191"/>
						<logginginfo>
							<description></description>
							<scene></scene>
							<shottake></shottake>
							<lognote></lognote>
							<good></good>
							<originalvideofilename></originalvideofilename>
							<originalaudiofilename></originalaudiofilename>
						</logginginfo>
						<colorinfo>
							<lut></lut>
							<lut1></lut1>
							<asc_sop></asc_sop>
							<asc_sat></asc_sat>
							<lut2></lut2>
						</colorinfo>
						<labels>
							<label2>Iris</label2>
						</labels>
					</clipitem>
					<clipitem id="clipitem-462">
						<masterclipid>masterclip-217</masterclipid>
						<name>A008_10281037_C109.mp4</name>
						<enabled>TRUE</enabled>
						<duration>1466</duration>
						<rate>
							<timebase>24</timebase>
							<ntsc>FALSE</ntsc>
						</rate>
						<start>28148</start>
						<end>28165</end>
						<in>496</in>
						<out>513</out>
						<pproTicksIn>5249664000000</pproTicksIn>
						<pproTicksOut>5429592000000</pproTicksOut>
						<alphatype>none</alphatype>
						<pixelaspectratio>square</pixelaspectratio>
						<anamorphic>FALSE</anamorphic>
						<file id="file-217">
							<name>A008_10281037_C109.mp4</name>
							<pathurl>file://localhost/F%3a/love%20song/neelavara%20bridge/A008_10281037_C109.mp4</pathurl>
							<rate>
								<timebase>24</timebase>
								<ntsc>FALSE</ntsc>
							</rate>
							<duration>1466</duration>
							<timecode>
								<rate>
									<timebase>24</timebase>
									<ntsc>FALSE</ntsc>
								</rate>
								<string>10:37:40:06</string>
								<frame>918246</frame>
								<displayformat>NDF</displayformat>
							</timecode>
							<media>
								<video>
									<samplecharacteristics>
										<rate>
											<timebase>24</timebase>
											<ntsc>FALSE</ntsc>
										</rate>
										<width>1920</width>
										<height>1080</height>
										<anamorphic>FALSE</anamorphic>
										<pixelaspectratio>square</pixelaspectratio>
										<fielddominance>none</fielddominance>
									</samplecharacteristics>
								</video>
								<audio>
									<samplecharacteristics>
										<depth>16</depth>
										<samplerate>48000</samplerate>
									</samplecharacteristics>
									<channelcount>2</channelcount>
								</audio>
							</media>
						</file>
						<logginginfo>
							<description></description>
							<scene></scene>
							<shottake></shottake>
							<lognote></lognote>
							<good></good>
							<originalvideofilename></originalvideofilename>
							<originalaudiofilename></originalaudiofilename>
						</logginginfo>
						<colorinfo>
							<lut></lut>
							<lut1></lut1>
							<asc_sop></asc_sop>
							<asc_sat></asc_sat>
							<lut2></lut2>
						</colorinfo>
						<labels>
							<label2>Iris</label2>
						</labels>
					</clipitem>
					<clipitem id="clipitem-463">
						<masterclipid>masterclip-218</masterclipid>
						<name>A008_10281039_C111.mp4</name>
						<enabled>TRUE</enabled>
						<duration>1571</duration>
						<rate>
							<timebase>24</timebase>
							<ntsc>FALSE</ntsc>
						</rate>
						<start>28165</start>
						<end>28182</end>
						<in>799</in>
						<out>816</out>
						<pproTicksIn>8456616000000</pproTicksIn>
						<pproTicksOut>8636544000000</pproTicksOut>
						<alphatype>none</alphatype>
						<pixelaspectratio>square</pixelaspectratio>
						<anamorphic>FALSE</anamorphic>
						<file id="file-218">
							<name>A008_10281039_C111.mp4</name>
							<pathurl>file://localhost/F%3a/love%20song/neelavara%20bridge/A008_10281039_C111.mp4</pathurl>
							<rate>
								<timebase>24</timebase>
								<ntsc>FALSE</ntsc>
							</rate>
							<duration>1571</duration>
							<timecode>
								<rate>
									<timebase>24</timebase>
									<ntsc>FALSE</ntsc>
								</rate>
								<string>10:39:03:15</string>
								<frame>920247</frame>
								<displayformat>NDF</displayformat>
							</timecode>
							<media>
								<video>
									<samplecharacteristics>
										<rate>
											<timebase>24</timebase>
											<ntsc>FALSE</ntsc>
										</rate>
										<width>1920</width>
										<height>1080</height>
										<anamorphic>FALSE</anamorphic>
										<pixelaspectratio>square</pixelaspectratio>
										<fielddominance>none</fielddominance>
									</samplecharacteristics>
								</video>
								<audio>
									<samplecharacteristics>
										<depth>16</depth>
										<samplerate>48000</samplerate>
									</samplecharacteristics>
									<channelcount>2</channelcount>
								</audio>
							</media>
						</file>
						<logginginfo>
							<description></description>
							<scene></scene>
							<shottake></shottake>
							<lognote></lognote>
							<good></good>
							<originalvideofilename></originalvideofilename>
							<originalaudiofilename></originalaudiofilename>
						</logginginfo>
						<colorinfo>
							<lut></lut>
							<lut1></lut1>
							<asc_sop></asc_sop>
							<asc_sat></asc_sat>
							<lut2></lut2>
						</colorinfo>
						<labels>
							<label2>Iris</label2>
						</labels>
					</clipitem>
					<clipitem id="clipitem-464">
						<masterclipid>masterclip-196</masterclipid>
						<name>A008_10281032_C105.mp4</name>
						<enabled>TRUE</enabled>
						<duration>2042</duration>
						<rate>
							<timebase>24</timebase>
							<ntsc>FALSE</ntsc>
						</rate>
						<start>28316</start>
						<end>28345</end>
						<in>578</in>
						<out>607</out>
						<pproTicksIn>9176328000000</pproTicksIn>
						<pproTicksOut>9636732000000</pproTicksOut>
						<alphatype>none</alphatype>
						<file id="file-196"/>
						<filter>
							<effect>
								<name>Time Remap</name>
								<effectid>timeremap</effectid>
								<effectcategory>motion</effectcategory>
								<effecttype>motion</effecttype>
								<mediatype>video</mediatype>
								<parameter authoringApp="PremierePro">
									<parameterid>variablespeed</parameterid>
									<name>variablespeed</name>
									<valuemin>0</valuemin>
									<valuemax>1</valuemax>
									<value>0</value>
								</parameter>
								<parameter authoringApp="PremierePro">
									<parameterid>speed</parameterid>
									<name>speed</name>
									<valuemin>-100000</valuemin>
									<valuemax>100000</valuemax>
									<value>150</value>
								</parameter>
								<parameter authoringApp="PremierePro">
									<parameterid>reverse</parameterid>
									<name>reverse</name>
									<value>FALSE</value>
								</parameter>
								<parameter authoringApp="PremierePro">
									<parameterid>frameblending</parameterid>
									<name>frameblending</name>
									<value>FALSE</value>
								</parameter>
								<parameter authoringApp="PremierePro">
									<parameterid>graphdict</parameterid>
									<name>graphdict</name>
									<valuemin>0</valuemin>
									<valuemax>3063</valuemax>
									<value>0</value>
									<keyframe>
										<when>0</when>
										<value>0</value>
										<speedvirtualkf>TRUE</speedvirtualkf>
										<speedkfstart>TRUE</speedkfstart>
									</keyframe>
									<keyframe>
										<when>578</when>
										<value>867</value>
										<speedvirtualkf>TRUE</speedvirtualkf>
										<speedkfin>TRUE</speedkfin>
									</keyframe>
									<keyframe>
										<when>607</when>
										<value>910</value>
										<speedvirtualkf>TRUE</speedvirtualkf>
										<speedkfout>TRUE</speedkfout>
									</keyframe>
									<keyframe>
										<when>2042</when>
										<value>3063</value>
										<speedvirtualkf>TRUE</speedvirtualkf>
										<speedkfend>TRUE</speedkfend>
									</keyframe>
									<interpolation>
										<name>FCPCurve</name>
									</interpolation>
								</parameter>
							</effect>
						</filter>
						<logginginfo>
							<description></description>
							<scene></scene>
							<shottake></shottake>
							<lognote></lognote>
							<good></good>
							<originalvideofilename></originalvideofilename>
							<originalaudiofilename></originalaudiofilename>
						</logginginfo>
						<colorinfo>
							<lut></lut>
							<lut1></lut1>
							<asc_sop></asc_sop>
							<asc_sat></asc_sat>
							<lut2></lut2>
						</colorinfo>
						<labels>
							<label2>Iris</label2>
						</labels>
					</clipitem>
					<clipitem id="clipitem-465">
						<masterclipid>masterclip-219</masterclipid>
						<name>2021_12_14_09_10_42.mov</name>
						<enabled>TRUE</enabled>
						<duration>189</duration>
						<rate>
							<timebase>24</timebase>
							<ntsc>FALSE</ntsc>
						</rate>
						<start>28345</start>
						<end>28371</end>
						<in>121</in>
						<out>147</out>
						<pproTicksIn>1536796800000</pproTicksIn>
						<pproTicksOut>1867017600000</pproTicksOut>
						<alphatype>none</alphatype>
						<pixelaspectratio>square</pixelaspectratio>
						<anamorphic>FALSE</anamorphic>
						<file id="file-219">
							<name>2021_12_14_09_10_42.mov</name>
							<pathurl>file://localhost/F%3a/love%20song/boating/offline/2021_12_14_09_10_42.mov</pathurl>
							<rate>
								<timebase>25</timebase>
								<ntsc>FALSE</ntsc>
							</rate>
							<duration>237</duration>
							<timecode>
								<rate>
									<timebase>25</timebase>
									<ntsc>FALSE</ntsc>
								</rate>
								<string>00:00:00:00</string>
								<frame>0</frame>
								<displayformat>NDF</displayformat>
							</timecode>
							<media>
								<video>
									<samplecharacteristics>
										<rate>
											<timebase>25</timebase>
											<ntsc>FALSE</ntsc>
										</rate>
										<width>1920</width>
										<height>1080</height>
										<anamorphic>FALSE</anamorphic>
										<pixelaspectratio>square</pixelaspectratio>
										<fielddominance>none</fielddominance>
									</samplecharacteristics>
								</video>
								<audio>
									<samplecharacteristics>
										<depth>16</depth>
										<samplerate>48000</samplerate>
									</samplecharacteristics>
									<channelcount>2</channelcount>
								</audio>
							</media>
						</file>
						<filter>
							<effect>
								<name>Time Remap</name>
								<effectid>timeremap</effectid>
								<effectcategory>motion</effectcategory>
								<effecttype>motion</effecttype>
								<mediatype>video</mediatype>
								<parameter authoringApp="PremierePro">
									<parameterid>variablespeed</parameterid>
									<name>variablespeed</name>
									<valuemin>0</valuemin>
									<valuemax>1</valuemax>
									<value>0</value>
								</parameter>
								<parameter authoringApp="PremierePro">
									<parameterid>speed</parameterid>
									<name>speed</name>
									<valuemin>-100000</valuemin>
									<valuemax>100000</valuemax>
									<value>120</value>
								</parameter>
								<parameter authoringApp="PremierePro">
									<parameterid>reverse</parameterid>
									<name>reverse</name>
									<value>FALSE</value>
								</parameter>
								<parameter authoringApp="PremierePro">
									<parameterid>frameblending</parameterid>
									<name>frameblending</name>
									<value>FALSE</value>
								</parameter>
								<parameter authoringApp="PremierePro">
									<parameterid>graphdict</parameterid>
									<name>graphdict</name>
									<valuemin>0</valuemin>
									<valuemax>226</valuemax>
									<value>0</value>
									<keyframe>
										<when>0</when>
										<value>0</value>
										<speedvirtualkf>TRUE</speedvirtualkf>
										<speedkfstart>TRUE</speedkfstart>
									</keyframe>
									<keyframe>
										<when>121</when>
										<value>145</value>
										<speedvirtualkf>TRUE</speedvirtualkf>
										<speedkfin>TRUE</speedkfin>
									</keyframe>
									<keyframe>
										<when>147</when>
										<value>176</value>
										<speedvirtualkf>TRUE</speedvirtualkf>
										<speedkfout>TRUE</speedkfout>
									</keyframe>
									<keyframe>
										<when>189</when>
										<value>226</value>
										<speedvirtualkf>TRUE</speedvirtualkf>
										<speedkfend>TRUE</speedkfend>
									</keyframe>
									<interpolation>
										<name>FCPCurve</name>
									</interpolation>
								</parameter>
							</effect>
						</filter>
						<logginginfo>
							<description></description>
							<scene></scene>
							<shottake></shottake>
							<lognote></lognote>
							<good></good>
							<originalvideofilename></originalvideofilename>
							<originalaudiofilename></originalaudiofilename>
						</logginginfo>
						<colorinfo>
							<lut></lut>
							<lut1></lut1>
							<asc_sop></asc_sop>
							<asc_sat></asc_sat>
							<lut2></lut2>
						</colorinfo>
						<labels>
							<label2>Iris</label2>
						</labels>
					</clipitem>
					<clipitem id="clipitem-466">
						<masterclipid>masterclip-197</masterclipid>
						<name>A008_10281055_C119.mp4</name>
						<enabled>TRUE</enabled>
						<duration>4016</duration>
						<rate>
							<timebase>24</timebase>
							<ntsc>FALSE</ntsc>
						</rate>
						<start>28371</start>
						<end>28403</end>
						<in>3089</in>
						<out>3121</out>
						<pproTicksIn>32693976000000</pproTicksIn>
						<pproTicksOut>33032664000000</pproTicksOut>
						<alphatype>none</alphatype>
						<file id="file-197"/>
						<logginginfo>
							<description></description>
							<scene></scene>
							<shottake></shottake>
							<lognote></lognote>
							<good></good>
							<originalvideofilename></originalvideofilename>
							<originalaudiofilename></originalaudiofilename>
						</logginginfo>
						<colorinfo>
							<lut></lut>
							<lut1></lut1>
							<asc_sop></asc_sop>
							<asc_sat></asc_sat>
							<lut2></lut2>
						</colorinfo>
						<labels>
							<label2>Iris</label2>
						</labels>
					</clipitem>
					<clipitem id="clipitem-467">
						<masterclipid>masterclip-197</masterclipid>
						<name>A008_10281055_C119.mp4</name>
						<enabled>TRUE</enabled>
						<duration>4016</duration>
						<rate>
							<timebase>24</timebase>
							<ntsc>FALSE</ntsc>
						</rate>
						<start>28403</start>
						<end>28417</end>
						<in>2148</in>
						<out>2162</out>
						<pproTicksIn>22734432000000</pproTicksIn>
						<pproTicksOut>22882608000000</pproTicksOut>
						<alphatype>none</alphatype>
						<file id="file-197"/>
						<logginginfo>
							<description></description>
							<scene></scene>
							<shottake></shottake>
							<lognote></lognote>
							<good></good>
							<originalvideofilename></originalvideofilename>
							<originalaudiofilename></originalaudiofilename>
						</logginginfo>
						<colorinfo>
							<lut></lut>
							<lut1></lut1>
							<asc_sop></asc_sop>
							<asc_sat></asc_sat>
							<lut2></lut2>
						</colorinfo>
						<labels>
							<label2>Iris</label2>
						</labels>
					</clipitem>
					<clipitem id="clipitem-468">
						<masterclipid>masterclip-155</masterclipid>
						<name>A008_10281053_C118.mp4</name>
						<enabled>TRUE</enabled>
						<duration>6351</duration>
						<rate>
							<timebase>24</timebase>
							<ntsc>FALSE</ntsc>
						</rate>
						<start>28417</start>
						<end>28461</end>
						<in>3964</in>
						<out>4008</out>
						<pproTicksIn>41954976000000</pproTicksIn>
						<pproTicksOut>42420672000000</pproTicksOut>
						<alphatype>none</alphatype>
						<file id="file-155"/>
						<logginginfo>
							<description></description>
							<scene></scene>
							<shottake></shottake>
							<lognote></lognote>
							<good></good>
							<originalvideofilename></originalvideofilename>
							<originalaudiofilename></originalaudiofilename>
						</logginginfo>
						<colorinfo>
							<lut></lut>
							<lut1></lut1>
							<asc_sop></asc_sop>
							<asc_sat></asc_sat>
							<lut2></lut2>
						</colorinfo>
						<labels>
							<label2>Iris</label2>
						</labels>
					</clipitem>
					<clipitem id="clipitem-469">
						<masterclipid>masterclip-131</masterclipid>
						<name>2021_12_14_16_11_55.mov</name>
						<enabled>TRUE</enabled>
						<duration>423</duration>
						<rate>
							<timebase>24</timebase>
							<ntsc>FALSE</ntsc>
						</rate>
						<start>28461</start>
						<end>28508</end>
						<in>174</in>
						<out>221</out>
						<pproTicksIn>1841616000000</pproTicksIn>
						<pproTicksOut>2339064000000</pproTicksOut>
						<alphatype>none</alphatype>
						<file id="file-131"/>
						<logginginfo>
							<description></description>
							<scene></scene>
							<shottake></shottake>
							<lognote></lognote>
							<good></good>
							<originalvideofilename></originalvideofilename>
							<originalaudiofilename></originalaudiofilename>
						</logginginfo>
						<colorinfo>
							<lut></lut>
							<lut1></lut1>
							<asc_sop></asc_sop>
							<asc_sat></asc_sat>
							<lut2></lut2>
						</colorinfo>
						<labels>
							<label2>Iris</label2>
						</labels>
					</clipitem>
					<clipitem id="clipitem-470">
						<masterclipid>masterclip-220</masterclipid>
						<name>2021_12_14_16_05_57.mov</name>
						<enabled>TRUE</enabled>
						<duration>157</duration>
						<rate>
							<timebase>24</timebase>
							<ntsc>FALSE</ntsc>
						</rate>
						<start>28537</start>
						<end>28609</end>
						<in>85</in>
						<out>157</out>
						<pproTicksIn>899640000000</pproTicksIn>
						<pproTicksOut>1661688000000</pproTicksOut>
						<alphatype>none</alphatype>
						<pixelaspectratio>square</pixelaspectratio>
						<anamorphic>FALSE</anamorphic>
						<file id="file-220">
							<name>2021_12_14_16_05_57.mov</name>
							<pathurl>file://localhost/F%3a/love%20song/beach/offline/2021_12_14_16_05_57.mov</pathurl>
							<rate>
								<timebase>25</timebase>
								<ntsc>FALSE</ntsc>
							</rate>
							<duration>164</duration>
							<timecode>
								<rate>
									<timebase>25</timebase>
									<ntsc>FALSE</ntsc>
								</rate>
								<string>00:00:00:00</string>
								<frame>0</frame>
								<displayformat>NDF</displayformat>
							</timecode>
							<media>
								<video>
									<samplecharacteristics>
										<rate>
											<timebase>25</timebase>
											<ntsc>FALSE</ntsc>
										</rate>
										<width>1920</width>
										<height>1080</height>
										<anamorphic>FALSE</anamorphic>
										<pixelaspectratio>square</pixelaspectratio>
										<fielddominance>none</fielddominance>
									</samplecharacteristics>
								</video>
								<audio>
									<samplecharacteristics>
										<depth>16</depth>
										<samplerate>48000</samplerate>
									</samplecharacteristics>
									<channelcount>2</channelcount>
								</audio>
							</media>
						</file>
						<logginginfo>
							<description></description>
							<scene></scene>
							<shottake></shottake>
							<lognote></lognote>
							<good></good>
							<originalvideofilename></originalvideofilename>
							<originalaudiofilename></originalaudiofilename>
						</logginginfo>
						<colorinfo>
							<lut></lut>
							<lut1></lut1>
							<asc_sop></asc_sop>
							<asc_sat></asc_sat>
							<lut2></lut2>
						</colorinfo>
						<labels>
							<label2>Iris</label2>
						</labels>
					</clipitem>
					<enabled>TRUE</enabled>
					<locked>FALSE</locked>
				</track>
				<track TL.SQTrackShy="0" TL.SQTrackExpandedHeight="15" TL.SQTrackExpanded="0" MZ.TrackTargeted="0">
					<clipitem id="clipitem-471">
						<masterclipid>masterclip-221</masterclipid>
						<name>A016_11010314_C004.mp4</name>
						<enabled>TRUE</enabled>
						<duration>2862</duration>
						<rate>
							<timebase>24</timebase>
							<ntsc>FALSE</ntsc>
						</rate>
						<start>23997</start>
						<end>24090</end>
						<in>1589</in>
						<out>1682</out>
						<pproTicksIn>16817976000000</pproTicksIn>
						<pproTicksOut>17802288000000</pproTicksOut>
						<alphatype>none</alphatype>
						<pixelaspectratio>square</pixelaspectratio>
						<anamorphic>FALSE</anamorphic>
						<file id="file-221">
							<name>A016_11010314_C004.mp4</name>
							<pathurl>file://localhost/F%3a/love%20song/song%20lead%20and%20starting/A016_11010314_C004.mp4</pathurl>
							<rate>
								<timebase>24</timebase>
								<ntsc>FALSE</ntsc>
							</rate>
							<duration>2862</duration>
							<timecode>
								<rate>
									<timebase>24</timebase>
									<ntsc>FALSE</ntsc>
								</rate>
								<string>03:14:17:19</string>
								<frame>279787</frame>
								<displayformat>NDF</displayformat>
							</timecode>
							<media>
								<video>
									<samplecharacteristics>
										<rate>
											<timebase>24</timebase>
											<ntsc>FALSE</ntsc>
										</rate>
										<width>1920</width>
										<height>1080</height>
										<anamorphic>FALSE</anamorphic>
										<pixelaspectratio>square</pixelaspectratio>
										<fielddominance>none</fielddominance>
									</samplecharacteristics>
								</video>
								<audio>
									<samplecharacteristics>
										<depth>16</depth>
										<samplerate>48000</samplerate>
									</samplecharacteristics>
									<channelcount>2</channelcount>
								</audio>
							</media>
						</file>
						<filter>
							<effect>
								<name>Opacity</name>
								<effectid>opacity</effectid>
								<effectcategory>motion</effectcategory>
								<effecttype>motion</effecttype>
								<mediatype>video</mediatype>
								<pproBypass>false</pproBypass>
								<parameter authoringApp="PremierePro">
									<parameterid>opacity</parameterid>
									<name>opacity</name>
									<valuemin>0</valuemin>
									<valuemax>100</valuemax>
									<value>100</value>
									<keyframe>
										<when>1653</when>
										<value>100</value>
									</keyframe>
									<keyframe>
										<when>1679</when>
										<value>0</value>
									</keyframe>
								</parameter>
							</effect>
						</filter>
						<logginginfo>
							<description></description>
							<scene></scene>
							<shottake></shottake>
							<lognote></lognote>
							<good></good>
							<originalvideofilename></originalvideofilename>
							<originalaudiofilename></originalaudiofilename>
						</logginginfo>
						<colorinfo>
							<lut></lut>
							<lut1></lut1>
							<asc_sop></asc_sop>
							<asc_sat></asc_sat>
							<lut2></lut2>
						</colorinfo>
						<labels>
							<label2>Iris</label2>
						</labels>
					</clipitem>
					<enabled>TRUE</enabled>
					<locked>FALSE</locked>
				</track>
				<track TL.SQTrackShy="0" TL.SQTrackExpandedHeight="15" TL.SQTrackExpanded="0" MZ.TrackTargeted="0">
					<clipitem id="clipitem-472">
						<masterclipid>masterclip-222</masterclipid>
						<name>A016_11010323_C008.mp4</name>
						<enabled>TRUE</enabled>
						<duration>1562</duration>
						<rate>
							<timebase>24</timebase>
							<ntsc>FALSE</ntsc>
						</rate>
						<start>23857</start>
						<end>23997</end>
						<in>193</in>
						<out>333</out>
						<pproTicksIn>2042712000000</pproTicksIn>
						<pproTicksOut>3524472000000</pproTicksOut>
						<alphatype>none</alphatype>
						<pixelaspectratio>square</pixelaspectratio>
						<anamorphic>FALSE</anamorphic>
						<file id="file-222">
							<name>A016_11010323_C008.mp4</name>
							<pathurl>file://localhost/F%3a/After%20bengaluru%20udupi/scene%2045A/A016_11010323_C008.mp4</pathurl>
							<rate>
								<timebase>24</timebase>
								<ntsc>FALSE</ntsc>
							</rate>
							<duration>1562</duration>
							<timecode>
								<rate>
									<timebase>24</timebase>
									<ntsc>FALSE</ntsc>
								</rate>
								<string>03:23:33:11</string>
								<frame>293123</frame>
								<displayformat>NDF</displayformat>
							</timecode>
							<media>
								<video>
									<samplecharacteristics>
										<rate>
											<timebase>24</timebase>
											<ntsc>FALSE</ntsc>
										</rate>
										<width>1920</width>
										<height>1080</height>
										<anamorphic>FALSE</anamorphic>
										<pixelaspectratio>square</pixelaspectratio>
										<fielddominance>none</fielddominance>
									</samplecharacteristics>
								</video>
								<audio>
									<samplecharacteristics>
										<depth>16</depth>
										<samplerate>48000</samplerate>
									</samplecharacteristics>
									<channelcount>2</channelcount>
								</audio>
							</media>
						</file>
						<filter>
							<effect>
								<name>Opacity</name>
								<effectid>opacity</effectid>
								<effectcategory>motion</effectcategory>
								<effecttype>motion</effecttype>
								<mediatype>video</mediatype>
								<pproBypass>false</pproBypass>
								<parameter authoringApp="PremierePro">
									<parameterid>opacity</parameterid>
									<name>opacity</name>
									<valuemin>0</valuemin>
									<valuemax>100</valuemax>
									<value>100</value>
									<keyframe>
										<when>333</when>
										<value>100</value>
									</keyframe>
									<keyframe>
										<when>377</when>
										<value>0</value>
									</keyframe>
								</parameter>
							</effect>
						</filter>
						<logginginfo>
							<description></description>
							<scene></scene>
							<shottake></shottake>
							<lognote></lognote>
							<good></good>
							<originalvideofilename></originalvideofilename>
							<originalaudiofilename></originalaudiofilename>
						</logginginfo>
						<colorinfo>
							<lut></lut>
							<lut1></lut1>
							<asc_sop></asc_sop>
							<asc_sat></asc_sat>
							<lut2></lut2>
						</colorinfo>
						<labels>
							<label2>Iris</label2>
						</labels>
					</clipitem>
					<clipitem id="clipitem-473">
						<masterclipid>masterclip-222</masterclipid>
						<name>A016_11010323_C008.mp4</name>
						<enabled>TRUE</enabled>
						<duration>1562</duration>
						<rate>
							<timebase>24</timebase>
							<ntsc>FALSE</ntsc>
						</rate>
						<start>23997</start>
						<end>24041</end>
						<in>333</in>
						<out>377</out>
						<pproTicksIn>3524472000000</pproTicksIn>
						<pproTicksOut>3990168000000</pproTicksOut>
						<alphatype>none</alphatype>
						<file id="file-222"/>
						<filter>
							<effect>
								<name>Opacity</name>
								<effectid>opacity</effectid>
								<effectcategory>motion</effectcategory>
								<effecttype>motion</effecttype>
								<mediatype>video</mediatype>
								<pproBypass>false</pproBypass>
								<parameter authoringApp="PremierePro">
									<parameterid>opacity</parameterid>
									<name>opacity</name>
									<valuemin>0</valuemin>
									<valuemax>100</valuemax>
									<value>100</value>
									<keyframe>
										<when>333</when>
										<value>100</value>
									</keyframe>
									<keyframe>
										<when>377</when>
										<value>0</value>
									</keyframe>
								</parameter>
							</effect>
						</filter>
						<logginginfo>
							<description></description>
							<scene></scene>
							<shottake></shottake>
							<lognote></lognote>
							<good></good>
							<originalvideofilename></originalvideofilename>
							<originalaudiofilename></originalaudiofilename>
						</logginginfo>
						<colorinfo>
							<lut></lut>
							<lut1></lut1>
							<asc_sop></asc_sop>
							<asc_sat></asc_sat>
							<lut2></lut2>
						</colorinfo>
						<labels>
							<label2>Iris</label2>
						</labels>
					</clipitem>
					<enabled>TRUE</enabled>
					<locked>FALSE</locked>
				</track>
				<track TL.SQTrackShy="0" TL.SQTrackExpandedHeight="15" TL.SQTrackExpanded="0" MZ.TrackTargeted="0">
					<clipitem id="clipitem-474">
						<masterclipid>masterclip-1</masterclipid>
						<name>Graphic</name>
						<enabled>TRUE</enabled>
						<duration>1036800</duration>
						<rate>
							<timebase>24</timebase>
							<ntsc>FALSE</ntsc>
						</rate>
						<start>14730</start>
						<end>15258</end>
						<in>113135</in>
						<out>113663</out>
						<pproTicksIn>1197420840000000</pproTicksIn>
						<pproTicksOut>1203009192000000</pproTicksOut>
						<alphatype>straight</alphatype>
						<file id="file-1"/>
						<filter>
							<effect>
								<name>Basic Motion</name>
								<effectid>basic</effectid>
								<effectcategory>motion</effectcategory>
								<effecttype>motion</effecttype>
								<mediatype>video</mediatype>
								<pproBypass>false</pproBypass>
								<parameter authoringApp="PremierePro">
									<parameterid>scale</parameterid>
									<name>Scale</name>
									<valuemin>0</valuemin>
									<valuemax>1000</valuemax>
									<value>100</value>
								</parameter>
								<parameter authoringApp="PremierePro">
									<parameterid>rotation</parameterid>
									<name>Rotation</name>
									<valuemin>-8640</valuemin>
									<valuemax>8640</valuemax>
									<value>0</value>
								</parameter>
								<parameter authoringApp="PremierePro">
									<parameterid>center</parameterid>
									<name>Center</name>
									<value>
										<horiz>-0.0791663</horiz>
										<vert>-0.177778</vert>
									</value>
								</parameter>
								<parameter authoringApp="PremierePro">
									<parameterid>centerOffset</parameterid>
									<name>Anchor Point</name>
									<value>
										<horiz>-0.272917</horiz>
										<vert>0.205556</vert>
									</value>
								</parameter>
								<parameter authoringApp="PremierePro">
									<parameterid>antiflicker</parameterid>
									<name>Anti-flicker Filter</name>
									<valuemin>0.0</valuemin>
									<valuemax>1.0</valuemax>
									<value>0</value>
								</parameter>
							</effect>
						</filter>
						<filter>
							<effect>
								<name>Night  </name>
								<effectid>GraphicAndType</effectid>
								<effectcategory>graphic</effectcategory>
								<effecttype>filter</effecttype>
								<mediatype>video</mediatype>
								<pproBypass>false</pproBypass>
								<parameter authoringApp="PremierePro">
									<parameterid>1</parameterid>
									<name>Source Text</name>
									<hash>32f70d3e-9b2d-a667-a581-8561000000d4</hash>
									<value>vAAAAAAAAABEMyIRDAAAAAAABgAIAAQABgAAAAwAAAAIAAwACAAEAAgAAAAUAAAAKAAAAID///+E////iP///wEAAAAEAAAACwAAAFRhaG9tYS1Cb2xkAAEAAAAMAAAACAAMAAQACAAIAAAAUAAAADQAAAAwAAgAAAAAAAAAAAAAAAAAAAAAAAAAAAAAAAAAAAAAAAAAAAAAAAAAAAAAAAAABAAwAAAABAAAAPj////8////BAAEAAQAAAAHAAAATmlnaHQgIAA=</value>
								</parameter>
								<parameter authoringApp="PremierePro">
									<parameterid>2</parameterid>
									<name>Transform</name>
									<IsTimeVarying>false</IsTimeVarying>
									<ParameterControlType>11</ParameterControlType>
									<LowerBound>false</LowerBound>
									<UpperBound>false</UpperBound>
									<value>-91445760000000000,false,0,0,0,0,0,0</value>
								</parameter>
								<parameter authoringApp="PremierePro">
									<parameterid>3</parameterid>
									<name>Position</name>
									<IsTimeVarying>false</IsTimeVarying>
									<value>-91445760000000000,0.8831787109375:0.7511138916015625,0,0,0,0,0,0,5,4,0,0,0,0</value>
								</parameter>
								<parameter authoringApp="PremierePro">
									<parameterid>4</parameterid>
									<name>Scale</name>
									<IsTimeVarying>false</IsTimeVarying>
									<ParameterControlType>2</ParameterControlType>
									<LowerBound>0</LowerBound>
									<UpperBound>4000</UpperBound>
									<value>-91445760000000000,64.485961914062,0,0,0,0,0,0</value>
								</parameter>
								<parameter authoringApp="PremierePro">
									<parameterid>5</parameterid>
									<name>Horizontal Scale</name>
									<IsTimeVarying>false</IsTimeVarying>
									<ParameterControlType>2</ParameterControlType>
									<LowerBound>0</LowerBound>
									<UpperBound>4000</UpperBound>
									<value>-91445760000000000,64.485961914062,0,0,0,0,0,0</value>
								</parameter>
								<parameter authoringApp="PremierePro">
									<parameterid>6</parameterid>
									<name> </name>
									<IsTimeVarying>false</IsTimeVarying>
									<ParameterControlType>4</ParameterControlType>
									<LowerBound>false</LowerBound>
									<UpperBound>true</UpperBound>
									<value>-91445760000000000,true,0,0,0,0,0,0</value>
								</parameter>
								<parameter authoringApp="PremierePro">
									<parameterid>7</parameterid>
									<name>Rotation</name>
									<IsTimeVarying>false</IsTimeVarying>
									<ParameterControlType>3</ParameterControlType>
									<LowerBound>-32768</LowerBound>
									<UpperBound>32767</UpperBound>
									<value>-91445760000000000,0.,0,0,0,0,0,0</value>
								</parameter>
								<parameter authoringApp="PremierePro">
									<parameterid>8</parameterid>
									<name>Opacity</name>
									<IsTimeVarying>false</IsTimeVarying>
									<ParameterControlType>2</ParameterControlType>
									<LowerBound>0</LowerBound>
									<UpperBound>100</UpperBound>
									<value>-91445760000000000,100.,0,0,0,0,0,0</value>
								</parameter>
								<parameter authoringApp="PremierePro">
									<parameterid>9</parameterid>
									<name>Anchor Point</name>
									<IsTimeVarying>false</IsTimeVarying>
									<value>-91445760000000000,0:0,0,0,0,0,0,0,5,4,0,0,0,0</value>
								</parameter>
								<parameter authoringApp="PremierePro">
									<parameterid>10</parameterid>
									<name></name>
									<IsTimeVarying>false</IsTimeVarying>
									<ParameterControlType>12</ParameterControlType>
									<LowerBound>false</LowerBound>
									<UpperBound>false</UpperBound>
									<value>-91445760000000000,false,0,0,0,0,0,0</value>
								</parameter>
								<parameter authoringApp="PremierePro">
									<parameterid>11</parameterid>
									<name> </name>
									<IsTimeVarying>false</IsTimeVarying>
									<ParameterControlType>8</ParameterControlType>
									<LowerBound>0</LowerBound>
									<UpperBound>32768</UpperBound>
									<value>-91445760000000000,0.,0,0,0,0,0,0</value>
								</parameter>
								<parameter authoringApp="PremierePro">
									<parameterid>12</parameterid>
									<name> </name>
									<IsTimeVarying>false</IsTimeVarying>
									<ParameterControlType>8</ParameterControlType>
									<LowerBound>0</LowerBound>
									<UpperBound>32768</UpperBound>
									<value>-91445760000000000,0.,0,0,0,0,0,0</value>
								</parameter>
								<parameter authoringApp="PremierePro">
									<parameterid>13</parameterid>
									<name>start</name>
									<IsTimeVarying>false</IsTimeVarying>
									<ParameterControlType>8</ParameterControlType>
									<LowerBound>-100</LowerBound>
									<UpperBound>1000000000</UpperBound>
									<value>-91445760000000000,6.,0,0,0,0,0,0</value>
								</parameter>
								<parameter authoringApp="PremierePro">
									<parameterid>14</parameterid>
									<name>end</name>
									<IsTimeVarying>false</IsTimeVarying>
									<ParameterControlType>8</ParameterControlType>
									<LowerBound>-100</LowerBound>
									<UpperBound>1000000000</UpperBound>
									<value>-91445760000000000,6.,0,0,0,0,0,0</value>
								</parameter>
								<parameter authoringApp="PremierePro">
									<parameterid>15</parameterid>
									<name> </name>
									<IsTimeVarying>false</IsTimeVarying>
									<ParameterControlType>4</ParameterControlType>
									<LowerBound>false</LowerBound>
									<UpperBound>true</UpperBound>
									<value>-91445760000000000,false,0,0,0,0,0,0</value>
								</parameter>
								<parameter authoringApp="PremierePro">
									<parameterid>16</parameterid>
									<name> </name>
									<IsTimeVarying>false</IsTimeVarying>
									<ParameterControlType>4</ParameterControlType>
									<LowerBound>false</LowerBound>
									<UpperBound>true</UpperBound>
									<value>-91445760000000000,false,0,0,0,0,0,0</value>
								</parameter>
								<parameter authoringApp="PremierePro">
									<parameterid>17</parameterid>
									<name> </name>
									<IsTimeVarying>false</IsTimeVarying>
									<ParameterControlType>4</ParameterControlType>
									<LowerBound>false</LowerBound>
									<UpperBound>true</UpperBound>
									<value>-91445760000000000,false,0,0,0,0,0,0</value>
								</parameter>
								<parameter authoringApp="PremierePro">
									<parameterid>18</parameterid>
									<name> </name>
									<IsTimeVarying>false</IsTimeVarying>
									<ParameterControlType>4</ParameterControlType>
									<LowerBound>false</LowerBound>
									<UpperBound>true</UpperBound>
									<value>-91445760000000000,false,0,0,0,0,0,0</value>
								</parameter>
								<parameter authoringApp="PremierePro">
									<parameterid>19</parameterid>
									<name>Parent Width</name>
									<IsTimeVarying>false</IsTimeVarying>
									<ParameterControlType>2</ParameterControlType>
									<LowerBound>0</LowerBound>
									<UpperBound>20000</UpperBound>
									<value>-91445760000000000,0.,0,0,0,0,0,0</value>
								</parameter>
								<parameter authoringApp="PremierePro">
									<parameterid>20</parameterid>
									<name>Parent Height</name>
									<IsTimeVarying>false</IsTimeVarying>
									<ParameterControlType>2</ParameterControlType>
									<LowerBound>0</LowerBound>
									<UpperBound>20000</UpperBound>
									<value>-91445760000000000,0.,0,0,0,0,0,0</value>
								</parameter>
								<parameter authoringApp="PremierePro">
									<parameterid>21</parameterid>
									<name>Parent Rotation</name>
									<IsTimeVarying>false</IsTimeVarying>
									<ParameterControlType>3</ParameterControlType>
									<LowerBound>-32768</LowerBound>
									<UpperBound>32767</UpperBound>
									<value>-91445760000000000,0.,0,0,0,0,0,0</value>
								</parameter>
							</effect>
						</filter>
						<logginginfo>
							<description></description>
							<scene></scene>
							<shottake></shottake>
							<lognote></lognote>
							<good></good>
							<originalvideofilename></originalvideofilename>
							<originalaudiofilename></originalaudiofilename>
						</logginginfo>
						<colorinfo>
							<lut></lut>
							<lut1></lut1>
							<asc_sop></asc_sop>
							<asc_sat></asc_sat>
							<lut2></lut2>
						</colorinfo>
						<labels>
						</labels>
					</clipitem>
					<enabled>FALSE</enabled>
					<locked>FALSE</locked>
				</track>
				<track TL.SQTrackShy="0" TL.SQTrackExpandedHeight="15" TL.SQTrackExpanded="0" MZ.TrackTargeted="0">
					<clipitem id="clipitem-475">
						<masterclipid>masterclip-1</masterclipid>
						<name>Graphic</name>
						<enabled>TRUE</enabled>
						<duration>1036800</duration>
						<rate>
							<timebase>24</timebase>
							<ntsc>FALSE</ntsc>
						</rate>
						<start>0</start>
						<end>30376</end>
						<in>85943</in>
						<out>116319</out>
						<pproTicksIn>909620712000000</pproTicksIn>
						<pproTicksOut>1231120296000000</pproTicksOut>
						<alphatype>straight</alphatype>
						<file id="file-1"/>
						<filter>
							<effect>
								<name>Basic Motion</name>
								<effectid>basic</effectid>
								<effectcategory>motion</effectcategory>
								<effecttype>motion</effecttype>
								<mediatype>video</mediatype>
								<pproBypass>false</pproBypass>
								<parameter authoringApp="PremierePro">
									<parameterid>scale</parameterid>
									<name>Scale</name>
									<valuemin>0</valuemin>
									<valuemax>1000</valuemax>
									<value>76</value>
								</parameter>
								<parameter authoringApp="PremierePro">
									<parameterid>rotation</parameterid>
									<name>Rotation</name>
									<valuemin>-8640</valuemin>
									<valuemax>8640</valuemax>
									<value>0</value>
								</parameter>
								<parameter authoringApp="PremierePro">
									<parameterid>center</parameterid>
									<name>Center</name>
									<value>
										<horiz>-0.348958</horiz>
										<vert>0.0277778</vert>
									</value>
								</parameter>
								<parameter authoringApp="PremierePro">
									<parameterid>centerOffset</parameterid>
									<name>Anchor Point</name>
									<value>
										<horiz>0</horiz>
										<vert>0</vert>
									</value>
								</parameter>
								<parameter authoringApp="PremierePro">
									<parameterid>antiflicker</parameterid>
									<name>Anti-flicker Filter</name>
									<valuemin>0.0</valuemin>
									<valuemax>1.0</valuemax>
									<value>0</value>
								</parameter>
							</effect>
						</filter>
						<filter>
							<effect>
								<name>Opacity</name>
								<effectid>opacity</effectid>
								<effectcategory>motion</effectcategory>
								<effecttype>motion</effecttype>
								<mediatype>video</mediatype>
								<pproBypass>false</pproBypass>
								<parameter authoringApp="PremierePro">
									<parameterid>opacity</parameterid>
									<name>opacity</name>
									<valuemin>0</valuemin>
									<valuemax>100</valuemax>
									<value>40</value>
								</parameter>
							</effect>
						</filter>
						<filter>
							<effect>
								<name>FOR BGM &amp; DI</name>
								<effectid>GraphicAndType</effectid>
								<effectcategory>graphic</effectcategory>
								<effecttype>filter</effecttype>
								<mediatype>video</mediatype>
								<pproBypass>false</pproBypass>
								<parameter authoringApp="PremierePro">
									<parameterid>1</parameterid>
									<name>Source Text</name>
									<hash>483335ac-a9d5-6dec-9232-c1c90000014c</hash>
									<value>NAEAAAAAAABEMyIRDAAAAAAABgAKAAQABgAAABwAAAAAABYAEAAMAAQAAAAAAAAAAAAAAAAACAAWAAAAGAAAACwAAACAAAAAJP///yj///8s////AQAAAAQAAAALAAAAVGFob21hLUJvbGQAoP///wgAAAA8AAAAAAAAAAAAAAAwAAgAAAAAAAAAAAAAAAAAAAAAAAAAAAAAAAAAAAAAAAAAAAAAAAAAAAAAAAAABAAwAAAABAAAAJT///+Y////nP///wEAAAAMAAAACAAMAAQACAAIAAAAVAAAADQAAAAwAAwAAAAIAAAAAAAAAAAAAAAAAAAAAAAAAAAAAAAAAAAAAAAAAAAAAAAAAAAABAAwAAAACAAAAM3MxkL4/////P///wQABAAEAAAADAAAAEZPUiBCR00gJiBESQAAAAA=</value>
								</parameter>
								<parameter authoringApp="PremierePro">
									<parameterid>2</parameterid>
									<name>Transform</name>
									<IsTimeVarying>false</IsTimeVarying>
									<ParameterControlType>11</ParameterControlType>
									<LowerBound>false</LowerBound>
									<UpperBound>false</UpperBound>
									<value>-91445760000000000,false,0,0,0,0,0,0</value>
								</parameter>
								<parameter authoringApp="PremierePro">
									<parameterid>3</parameterid>
									<name>Position</name>
									<IsTimeVarying>false</IsTimeVarying>
									<value>-91445760000000000,0.340911865234375:0.7798309326171875,0,0,0,0,0,0,5,4,0,0,0,0</value>
								</parameter>
								<parameter authoringApp="PremierePro">
									<parameterid>4</parameterid>
									<name>Scale</name>
									<IsTimeVarying>false</IsTimeVarying>
									<ParameterControlType>2</ParameterControlType>
									<LowerBound>0</LowerBound>
									<UpperBound>4000</UpperBound>
									<value>-91445760000000000,100.,0,0,0,0,0,0</value>
								</parameter>
								<parameter authoringApp="PremierePro">
									<parameterid>5</parameterid>
									<name>Horizontal Scale</name>
									<IsTimeVarying>false</IsTimeVarying>
									<ParameterControlType>2</ParameterControlType>
									<LowerBound>0</LowerBound>
									<UpperBound>4000</UpperBound>
									<value>-91445760000000000,100.,0,0,0,0,0,0</value>
								</parameter>
								<parameter authoringApp="PremierePro">
									<parameterid>6</parameterid>
									<name> </name>
									<IsTimeVarying>false</IsTimeVarying>
									<ParameterControlType>4</ParameterControlType>
									<LowerBound>false</LowerBound>
									<UpperBound>true</UpperBound>
									<value>-91445760000000000,true,0,0,0,0,0,0</value>
								</parameter>
								<parameter authoringApp="PremierePro">
									<parameterid>7</parameterid>
									<name>Rotation</name>
									<IsTimeVarying>false</IsTimeVarying>
									<ParameterControlType>3</ParameterControlType>
									<LowerBound>-32768</LowerBound>
									<UpperBound>32767</UpperBound>
									<value>-91445760000000000,0.,0,0,0,0,0,0</value>
								</parameter>
								<parameter authoringApp="PremierePro">
									<parameterid>8</parameterid>
									<name>Opacity</name>
									<IsTimeVarying>false</IsTimeVarying>
									<ParameterControlType>2</ParameterControlType>
									<LowerBound>0</LowerBound>
									<UpperBound>100</UpperBound>
									<value>-91445760000000000,30.593605041504,0,0,0,0,0,0</value>
								</parameter>
								<parameter authoringApp="PremierePro">
									<parameterid>9</parameterid>
									<name>Anchor Point</name>
									<IsTimeVarying>false</IsTimeVarying>
									<value>-91445760000000000,0:0,0,0,0,0,0,0,5,4,0,0,0,0</value>
								</parameter>
								<parameter authoringApp="PremierePro">
									<parameterid>10</parameterid>
									<name></name>
									<IsTimeVarying>false</IsTimeVarying>
									<ParameterControlType>12</ParameterControlType>
									<LowerBound>false</LowerBound>
									<UpperBound>false</UpperBound>
									<value>-91445760000000000,false,0,0,0,0,0,0</value>
								</parameter>
								<parameter authoringApp="PremierePro">
									<parameterid>11</parameterid>
									<name> </name>
									<IsTimeVarying>false</IsTimeVarying>
									<ParameterControlType>8</ParameterControlType>
									<LowerBound>0</LowerBound>
									<UpperBound>32768</UpperBound>
									<value>-91445760000000000,0.,0,0,0,0,0,0</value>
								</parameter>
								<parameter authoringApp="PremierePro">
									<parameterid>12</parameterid>
									<name> </name>
									<IsTimeVarying>false</IsTimeVarying>
									<ParameterControlType>8</ParameterControlType>
									<LowerBound>0</LowerBound>
									<UpperBound>32768</UpperBound>
									<value>-91445760000000000,0.,0,0,0,0,0,0</value>
								</parameter>
								<parameter authoringApp="PremierePro">
									<parameterid>13</parameterid>
									<name>start</name>
									<IsTimeVarying>false</IsTimeVarying>
									<ParameterControlType>8</ParameterControlType>
									<LowerBound>-100</LowerBound>
									<UpperBound>1000000000</UpperBound>
									<value>-91445760000000000,12.,0,0,0,0,0,0</value>
								</parameter>
								<parameter authoringApp="PremierePro">
									<parameterid>14</parameterid>
									<name>end</name>
									<IsTimeVarying>false</IsTimeVarying>
									<ParameterControlType>8</ParameterControlType>
									<LowerBound>-100</LowerBound>
									<UpperBound>1000000000</UpperBound>
									<value>-91445760000000000,12.,0,0,0,0,0,0</value>
								</parameter>
								<parameter authoringApp="PremierePro">
									<parameterid>15</parameterid>
									<name> </name>
									<IsTimeVarying>false</IsTimeVarying>
									<ParameterControlType>4</ParameterControlType>
									<LowerBound>false</LowerBound>
									<UpperBound>true</UpperBound>
									<value>-91445760000000000,false,0,0,0,0,0,0</value>
								</parameter>
								<parameter authoringApp="PremierePro">
									<parameterid>16</parameterid>
									<name> </name>
									<IsTimeVarying>false</IsTimeVarying>
									<ParameterControlType>4</ParameterControlType>
									<LowerBound>false</LowerBound>
									<UpperBound>true</UpperBound>
									<value>-91445760000000000,false,0,0,0,0,0,0</value>
								</parameter>
								<parameter authoringApp="PremierePro">
									<parameterid>17</parameterid>
									<name> </name>
									<IsTimeVarying>false</IsTimeVarying>
									<ParameterControlType>4</ParameterControlType>
									<LowerBound>false</LowerBound>
									<UpperBound>true</UpperBound>
									<value>-91445760000000000,false,0,0,0,0,0,0</value>
								</parameter>
								<parameter authoringApp="PremierePro">
									<parameterid>18</parameterid>
									<name> </name>
									<IsTimeVarying>false</IsTimeVarying>
									<ParameterControlType>4</ParameterControlType>
									<LowerBound>false</LowerBound>
									<UpperBound>true</UpperBound>
									<value>-91445760000000000,false,0,0,0,0,0,0</value>
								</parameter>
								<parameter authoringApp="PremierePro">
									<parameterid>19</parameterid>
									<name>Parent Width</name>
									<IsTimeVarying>false</IsTimeVarying>
									<ParameterControlType>2</ParameterControlType>
									<LowerBound>0</LowerBound>
									<UpperBound>20000</UpperBound>
									<value>-91445760000000000,0.,0,0,0,0,0,0</value>
								</parameter>
								<parameter authoringApp="PremierePro">
									<parameterid>20</parameterid>
									<name>Parent Height</name>
									<IsTimeVarying>false</IsTimeVarying>
									<ParameterControlType>2</ParameterControlType>
									<LowerBound>0</LowerBound>
									<UpperBound>20000</UpperBound>
									<value>-91445760000000000,0.,0,0,0,0,0,0</value>
								</parameter>
								<parameter authoringApp="PremierePro">
									<parameterid>21</parameterid>
									<name>Parent Rotation</name>
									<IsTimeVarying>false</IsTimeVarying>
									<ParameterControlType>3</ParameterControlType>
									<LowerBound>-32768</LowerBound>
									<UpperBound>32767</UpperBound>
									<value>-91445760000000000,0.,0,0,0,0,0,0</value>
								</parameter>
							</effect>
						</filter>
						<logginginfo>
							<description></description>
							<scene></scene>
							<shottake></shottake>
							<lognote></lognote>
							<good></good>
							<originalvideofilename></originalvideofilename>
							<originalaudiofilename></originalaudiofilename>
						</logginginfo>
						<colorinfo>
							<lut></lut>
							<lut1></lut1>
							<asc_sop></asc_sop>
							<asc_sat></asc_sat>
							<lut2></lut2>
						</colorinfo>
						<labels>
						</labels>
					</clipitem>
					<enabled>TRUE</enabled>
					<locked>FALSE</locked>
				</track>
				<track TL.SQTrackShy="0" TL.SQTrackExpandedHeight="15" TL.SQTrackExpanded="0" MZ.TrackTargeted="0">
					<clipitem id="clipitem-476">
						<masterclipid>masterclip-223</masterclipid>
						<name>Adjustment Layer</name>
						<enabled>TRUE</enabled>
						<duration>1036800</duration>
						<rate>
							<timebase>24</timebase>
							<ntsc>FALSE</ntsc>
						</rate>
						<start>0</start>
						<end>30376</end>
						<in>112834</in>
						<out>143210</out>
						<pproTicksIn>1194235056000000</pproTicksIn>
						<pproTicksOut>1515734640000000</pproTicksOut>
						<alphatype>none</alphatype>
						<pixelaspectratio>square</pixelaspectratio>
						<anamorphic>FALSE</anamorphic>
						<file id="file-223">
							<name>Black Video</name>
							<mediaSource>Slug</mediaSource>
							<rate>
								<timebase>30</timebase>
								<ntsc>TRUE</ntsc>
							</rate>
							<timecode>
								<rate>
									<timebase>30</timebase>
									<ntsc>TRUE</ntsc>
								</rate>
								<string>00;00;00;00</string>
								<frame>0</frame>
								<displayformat>DF</displayformat>
							</timecode>
							<media>
								<video>
									<samplecharacteristics>
										<rate>
											<timebase>30</timebase>
											<ntsc>TRUE</ntsc>
										</rate>
										<width>1920</width>
										<height>1080</height>
										<anamorphic>FALSE</anamorphic>
										<pixelaspectratio>square</pixelaspectratio>
										<fielddominance>none</fielddominance>
									</samplecharacteristics>
								</video>
							</media>
						</file>
						<filter>
							<effect>
								<name>Crop</name>
								<effectid>crop</effectid>
								<effectcategory>motion</effectcategory>
								<effecttype>motion</effecttype>
								<mediatype>video</mediatype>
								<pproBypass>false</pproBypass>
								<parameter authoringApp="PremierePro">
									<parameterid>left</parameterid>
									<name>left</name>
									<valuemin>0</valuemin>
									<valuemax>100</valuemax>
									<value>0</value>
								</parameter>
								<parameter authoringApp="PremierePro">
									<parameterid>right</parameterid>
									<name>right</name>
									<valuemin>0</valuemin>
									<valuemax>100</valuemax>
									<value>0</value>
								</parameter>
								<parameter authoringApp="PremierePro">
									<parameterid>top</parameterid>
									<name>top</name>
									<valuemin>0</valuemin>
									<valuemax>100</valuemax>
									<value>6</value>
								</parameter>
								<parameter authoringApp="PremierePro">
									<parameterid>bottom</parameterid>
									<name>bottom</name>
									<valuemin>0</valuemin>
									<valuemax>100</valuemax>
									<value>6</value>
								</parameter>
							</effect>
						</filter>
						<logginginfo>
							<description></description>
							<scene></scene>
							<shottake></shottake>
							<lognote></lognote>
							<good></good>
							<originalvideofilename></originalvideofilename>
							<originalaudiofilename></originalaudiofilename>
						</logginginfo>
						<colorinfo>
							<lut></lut>
							<lut1></lut1>
							<asc_sop></asc_sop>
							<asc_sat></asc_sat>
							<lut2></lut2>
						</colorinfo>
						<labels>
							<label2>Lavender</label2>
						</labels>
					</clipitem>
					<enabled>FALSE</enabled>
					<locked>FALSE</locked>
				</track>
				<track TL.SQTrackShy="0" TL.SQTrackExpandedHeight="15" TL.SQTrackExpanded="0" MZ.TrackTargeted="0">
					<enabled>TRUE</enabled>
					<locked>FALSE</locked>
				</track>
				<track TL.SQTrackShy="0" TL.SQTrackExpandedHeight="15" TL.SQTrackExpanded="0" MZ.TrackTargeted="0">
					<enabled>TRUE</enabled>
					<locked>FALSE</locked>
				</track>
				<track TL.SQTrackShy="0" TL.SQTrackExpandedHeight="15" TL.SQTrackExpanded="0" MZ.TrackTargeted="0">
					<enabled>TRUE</enabled>
					<locked>FALSE</locked>
				</track>
			</video>
			<audio>
				<numOutputChannels>2</numOutputChannels>
				<format>
					<samplecharacteristics>
						<depth>16</depth>
						<samplerate>48000</samplerate>
					</samplecharacteristics>
				</format>
				<outputs>
					<group>
						<index>1</index>
						<numchannels>1</numchannels>
						<downmix>0</downmix>
						<channel>
							<index>1</index>
						</channel>
					</group>
					<group>
						<index>2</index>
						<numchannels>1</numchannels>
						<downmix>0</downmix>
						<channel>
							<index>2</index>
						</channel>
					</group>
				</outputs>
				<track TL.SQTrackAudioKeyframeStyle="0" TL.SQTrackShy="0" TL.SQTrackExpandedHeight="15" TL.SQTrackExpanded="0" MZ.TrackTargeted="1" PannerCurrentValue="0.5" PannerIsInverted="true" PannerStartKeyframe="-91445760000000000,0.5,0,0,0,0,0,0" PannerName="Balance" currentExplodedTrackIndex="0" totalExplodedTrackCount="2" premiereTrackType="Stereo">
					<clipitem id="clipitem-477" premiereChannelType="stereo">
						<masterclipid>masterclip-3</masterclipid>
						<name>A006_06191704_C135.mp4</name>
						<enabled>TRUE</enabled>
						<duration>726</duration>
						<rate>
							<timebase>24</timebase>
							<ntsc>FALSE</ntsc>
						</rate>
						<start>595</start>
						<end>907</end>
						<in>116</in>
						<out>428</out>
						<pproTicksIn>1227744000000</pproTicksIn>
						<pproTicksOut>4529952000000</pproTicksOut>
						<file id="file-3"/>
						<sourcetrack>
							<mediatype>audio</mediatype>
							<trackindex>1</trackindex>
						</sourcetrack>
						<link>
							<linkclipref>clipitem-5</linkclipref>
							<mediatype>video</mediatype>
							<trackindex>1</trackindex>
							<clipindex>5</clipindex>
						</link>
						<link>
							<linkclipref>clipitem-477</linkclipref>
							<mediatype>audio</mediatype>
							<trackindex>1</trackindex>
							<clipindex>1</clipindex>
							<groupindex>1</groupindex>
						</link>
						<link>
							<linkclipref>clipitem-641</linkclipref>
							<mediatype>audio</mediatype>
							<trackindex>2</trackindex>
							<clipindex>1</clipindex>
							<groupindex>1</groupindex>
						</link>
						<logginginfo>
							<description></description>
							<scene></scene>
							<shottake></shottake>
							<lognote></lognote>
							<good></good>
							<originalvideofilename></originalvideofilename>
							<originalaudiofilename></originalaudiofilename>
						</logginginfo>
						<colorinfo>
							<lut></lut>
							<lut1></lut1>
							<asc_sop></asc_sop>
							<asc_sat></asc_sat>
							<lut2></lut2>
						</colorinfo>
						<labels>
							<label2>Iris</label2>
						</labels>
					</clipitem>
					<clipitem id="clipitem-478" premiereChannelType="stereo">
						<masterclipid>masterclip-224</masterclipid>
						<name>Audio 3_26.wav</name>
						<enabled>TRUE</enabled>
						<duration>156</duration>
						<rate>
							<timebase>24</timebase>
							<ntsc>FALSE</ntsc>
						</rate>
						<start>1391</start>
						<end>1519</end>
						<in>10</in>
						<out>139</out>
						<pproTicksIn>105840000000</pproTicksIn>
						<pproTicksOut>1471176000000</pproTicksOut>
						<file id="file-224">
							<name>Audio 3_26.wav</name>
							<pathurl>file://localhost/D%3a/aura%20premier%20pro/Adobe%20Premiere%20Pro%20Captured%20Audio/TESTING_MADESH/Audio%203_26.wav</pathurl>
							<rate>
								<timebase>30</timebase>
								<ntsc>TRUE</ntsc>
							</rate>
							<duration>195</duration>
							<timecode>
								<rate>
									<timebase>30</timebase>
									<ntsc>TRUE</ntsc>
								</rate>
								<string>00;00;00;00</string>
								<frame>0</frame>
								<displayformat>DF</displayformat>
							</timecode>
							<media>
								<audio>
									<samplecharacteristics>
										<depth>16</depth>
										<samplerate>48000</samplerate>
									</samplecharacteristics>
									<channelcount>2</channelcount>
								</audio>
							</media>
						</file>
						<sourcetrack>
							<mediatype>audio</mediatype>
							<trackindex>1</trackindex>
						</sourcetrack>
						<filter>
							<effect>
								<name>Audio Levels</name>
								<effectid>audiolevels</effectid>
								<effectcategory>audiolevels</effectcategory>
								<effecttype>audiolevels</effecttype>
								<mediatype>audio</mediatype>
								<pproBypass>false</pproBypass>
								<parameter authoringApp="PremierePro">
									<parameterid>level</parameterid>
									<name>Level</name>
									<valuemin>0</valuemin>
									<valuemax>3.98109</valuemax>
									<value>0.0498738</value>
								</parameter>
							</effect>
						</filter>
						<link>
							<linkclipref>clipitem-478</linkclipref>
							<mediatype>audio</mediatype>
							<trackindex>1</trackindex>
							<clipindex>2</clipindex>
							<groupindex>1</groupindex>
						</link>
						<link>
							<linkclipref>clipitem-642</linkclipref>
							<mediatype>audio</mediatype>
							<trackindex>2</trackindex>
							<clipindex>2</clipindex>
							<groupindex>1</groupindex>
						</link>
						<logginginfo>
							<description></description>
							<scene></scene>
							<shottake></shottake>
							<lognote></lognote>
							<good></good>
							<originalvideofilename></originalvideofilename>
							<originalaudiofilename></originalaudiofilename>
						</logginginfo>
						<colorinfo>
							<lut></lut>
							<lut1></lut1>
							<asc_sop></asc_sop>
							<asc_sat></asc_sat>
							<lut2></lut2>
						</colorinfo>
						<labels>
							<label2>Caribbean</label2>
						</labels>
					</clipitem>
					<clipitem id="clipitem-479" premiereChannelType="stereo">
						<masterclipid>masterclip-8</masterclipid>
						<name>A006_06191824_C179.mp4</name>
						<enabled>TRUE</enabled>
						<duration>926</duration>
						<rate>
							<timebase>24</timebase>
							<ntsc>FALSE</ntsc>
						</rate>
						<start>1687</start>
						<end>1834</end>
						<in>637</in>
						<out>784</out>
						<pproTicksIn>6742008000000</pproTicksIn>
						<pproTicksOut>8297856000000</pproTicksOut>
						<file id="file-8"/>
						<sourcetrack>
							<mediatype>audio</mediatype>
							<trackindex>1</trackindex>
						</sourcetrack>
						<link>
							<linkclipref>clipitem-479</linkclipref>
							<mediatype>audio</mediatype>
							<trackindex>1</trackindex>
							<clipindex>3</clipindex>
							<groupindex>1</groupindex>
						</link>
						<link>
							<linkclipref>clipitem-643</linkclipref>
							<mediatype>audio</mediatype>
							<trackindex>2</trackindex>
							<clipindex>3</clipindex>
							<groupindex>1</groupindex>
						</link>
						<logginginfo>
							<description></description>
							<scene></scene>
							<shottake></shottake>
							<lognote></lognote>
							<good></good>
							<originalvideofilename></originalvideofilename>
							<originalaudiofilename></originalaudiofilename>
						</logginginfo>
						<colorinfo>
							<lut></lut>
							<lut1></lut1>
							<asc_sop></asc_sop>
							<asc_sat></asc_sat>
							<lut2></lut2>
						</colorinfo>
						<labels>
							<label2>Iris</label2>
						</labels>
					</clipitem>
					<clipitem id="clipitem-480" premiereChannelType="stereo">
						<masterclipid>masterclip-225</masterclipid>
						<name>Audio 3_28.wav</name>
						<enabled>TRUE</enabled>
						<duration>189</duration>
						<rate>
							<timebase>24</timebase>
							<ntsc>FALSE</ntsc>
						</rate>
						<start>1906</start>
						<end>2048</end>
						<in>33</in>
						<out>175</out>
						<pproTicksIn>349272000000</pproTicksIn>
						<pproTicksOut>1852200000000</pproTicksOut>
						<file id="file-225">
							<name>Audio 3_28.wav</name>
							<pathurl>file://localhost/D%3a/aura%20premier%20pro/Adobe%20Premiere%20Pro%20Captured%20Audio/TESTING_MADESH/Audio%203_28.wav</pathurl>
							<rate>
								<timebase>30</timebase>
								<ntsc>TRUE</ntsc>
							</rate>
							<duration>236</duration>
							<timecode>
								<rate>
									<timebase>30</timebase>
									<ntsc>TRUE</ntsc>
								</rate>
								<string>00;00;00;00</string>
								<frame>0</frame>
								<displayformat>DF</displayformat>
							</timecode>
							<media>
								<audio>
									<samplecharacteristics>
										<depth>16</depth>
										<samplerate>48000</samplerate>
									</samplecharacteristics>
									<channelcount>2</channelcount>
								</audio>
							</media>
						</file>
						<sourcetrack>
							<mediatype>audio</mediatype>
							<trackindex>1</trackindex>
						</sourcetrack>
						<filter>
							<effect>
								<name>Audio Levels</name>
								<effectid>audiolevels</effectid>
								<effectcategory>audiolevels</effectcategory>
								<effecttype>audiolevels</effecttype>
								<mediatype>audio</mediatype>
								<pproBypass>false</pproBypass>
								<parameter authoringApp="PremierePro">
									<parameterid>level</parameterid>
									<name>Level</name>
									<valuemin>0</valuemin>
									<valuemax>3.98109</valuemax>
									<value>0.0864718</value>
								</parameter>
							</effect>
						</filter>
						<link>
							<linkclipref>clipitem-480</linkclipref>
							<mediatype>audio</mediatype>
							<trackindex>1</trackindex>
							<clipindex>4</clipindex>
							<groupindex>1</groupindex>
						</link>
						<link>
							<linkclipref>clipitem-644</linkclipref>
							<mediatype>audio</mediatype>
							<trackindex>2</trackindex>
							<clipindex>4</clipindex>
							<groupindex>1</groupindex>
						</link>
						<logginginfo>
							<description></description>
							<scene></scene>
							<shottake></shottake>
							<lognote></lognote>
							<good></good>
							<originalvideofilename></originalvideofilename>
							<originalaudiofilename></originalaudiofilename>
						</logginginfo>
						<colorinfo>
							<lut></lut>
							<lut1></lut1>
							<asc_sop></asc_sop>
							<asc_sat></asc_sat>
							<lut2></lut2>
						</colorinfo>
						<labels>
							<label2>Caribbean</label2>
						</labels>
					</clipitem>
					<clipitem id="clipitem-481" premiereChannelType="stereo">
						<masterclipid>masterclip-10</masterclipid>
						<name>A006_06191811_C170.mp4</name>
						<enabled>TRUE</enabled>
						<duration>1508</duration>
						<rate>
							<timebase>24</timebase>
							<ntsc>FALSE</ntsc>
						</rate>
						<start>2279</start>
						<end>2336</end>
						<in>874</in>
						<out>931</out>
						<pproTicksIn>9250416000000</pproTicksIn>
						<pproTicksOut>9853704000000</pproTicksOut>
						<file id="file-10"/>
						<sourcetrack>
							<mediatype>audio</mediatype>
							<trackindex>1</trackindex>
						</sourcetrack>
						<link>
							<linkclipref>clipitem-30</linkclipref>
							<mediatype>video</mediatype>
							<trackindex>1</trackindex>
							<clipindex>30</clipindex>
						</link>
						<link>
							<linkclipref>clipitem-481</linkclipref>
							<mediatype>audio</mediatype>
							<trackindex>1</trackindex>
							<clipindex>5</clipindex>
							<groupindex>1</groupindex>
						</link>
						<link>
							<linkclipref>clipitem-645</linkclipref>
							<mediatype>audio</mediatype>
							<trackindex>2</trackindex>
							<clipindex>5</clipindex>
							<groupindex>1</groupindex>
						</link>
						<logginginfo>
							<description></description>
							<scene></scene>
							<shottake></shottake>
							<lognote></lognote>
							<good></good>
							<originalvideofilename></originalvideofilename>
							<originalaudiofilename></originalaudiofilename>
						</logginginfo>
						<colorinfo>
							<lut></lut>
							<lut1></lut1>
							<asc_sop></asc_sop>
							<asc_sat></asc_sat>
							<lut2></lut2>
						</colorinfo>
						<labels>
							<label2>Iris</label2>
						</labels>
					</clipitem>
					<clipitem id="clipitem-482" premiereChannelType="stereo">
						<masterclipid>masterclip-13</masterclipid>
						<name>A006_06191753_C159.mp4</name>
						<enabled>TRUE</enabled>
						<duration>1055</duration>
						<rate>
							<timebase>24</timebase>
							<ntsc>FALSE</ntsc>
						</rate>
						<start>2731</start>
						<end>2955</end>
						<in>744</in>
						<out>968</out>
						<pproTicksIn>7874496000000</pproTicksIn>
						<pproTicksOut>10245312000000</pproTicksOut>
						<file id="file-13"/>
						<sourcetrack>
							<mediatype>audio</mediatype>
							<trackindex>1</trackindex>
						</sourcetrack>
						<link>
							<linkclipref>clipitem-482</linkclipref>
							<mediatype>audio</mediatype>
							<trackindex>1</trackindex>
							<clipindex>6</clipindex>
							<groupindex>1</groupindex>
						</link>
						<link>
							<linkclipref>clipitem-646</linkclipref>
							<mediatype>audio</mediatype>
							<trackindex>2</trackindex>
							<clipindex>6</clipindex>
							<groupindex>1</groupindex>
						</link>
						<logginginfo>
							<description></description>
							<scene></scene>
							<shottake></shottake>
							<lognote></lognote>
							<good></good>
							<originalvideofilename></originalvideofilename>
							<originalaudiofilename></originalaudiofilename>
						</logginginfo>
						<colorinfo>
							<lut></lut>
							<lut1></lut1>
							<asc_sop></asc_sop>
							<asc_sat></asc_sat>
							<lut2></lut2>
						</colorinfo>
						<labels>
							<label2>Iris</label2>
						</labels>
					</clipitem>
					<clipitem id="clipitem-483" premiereChannelType="stereo">
						<masterclipid>masterclip-14</masterclipid>
						<name>A006_06192107_C191.mp4</name>
						<enabled>TRUE</enabled>
						<duration>1308</duration>
						<rate>
							<timebase>24</timebase>
							<ntsc>FALSE</ntsc>
						</rate>
						<start>2955</start>
						<end>3075</end>
						<in>116</in>
						<out>236</out>
						<pproTicksIn>1227744000000</pproTicksIn>
						<pproTicksOut>2497824000000</pproTicksOut>
						<file id="file-14"/>
						<sourcetrack>
							<mediatype>audio</mediatype>
							<trackindex>1</trackindex>
						</sourcetrack>
						<link>
							<linkclipref>clipitem-483</linkclipref>
							<mediatype>audio</mediatype>
							<trackindex>1</trackindex>
							<clipindex>7</clipindex>
							<groupindex>1</groupindex>
						</link>
						<link>
							<linkclipref>clipitem-647</linkclipref>
							<mediatype>audio</mediatype>
							<trackindex>2</trackindex>
							<clipindex>7</clipindex>
							<groupindex>1</groupindex>
						</link>
						<logginginfo>
							<description></description>
							<scene></scene>
							<shottake></shottake>
							<lognote></lognote>
							<good></good>
							<originalvideofilename></originalvideofilename>
							<originalaudiofilename></originalaudiofilename>
						</logginginfo>
						<colorinfo>
							<lut></lut>
							<lut1></lut1>
							<asc_sop></asc_sop>
							<asc_sat></asc_sat>
							<lut2></lut2>
						</colorinfo>
						<labels>
							<label2>Iris</label2>
						</labels>
					</clipitem>
					<clipitem id="clipitem-484" premiereChannelType="stereo">
						<masterclipid>masterclip-15</masterclipid>
						<name>A006_06192251_C247.mp4</name>
						<enabled>TRUE</enabled>
						<duration>3563</duration>
						<rate>
							<timebase>24</timebase>
							<ntsc>FALSE</ntsc>
						</rate>
						<start>3075</start>
						<end>3171</end>
						<in>179</in>
						<out>275</out>
						<pproTicksIn>1894536000000</pproTicksIn>
						<pproTicksOut>2910600000000</pproTicksOut>
						<file id="file-15"/>
						<sourcetrack>
							<mediatype>audio</mediatype>
							<trackindex>1</trackindex>
						</sourcetrack>
						<link>
							<linkclipref>clipitem-38</linkclipref>
							<mediatype>video</mediatype>
							<trackindex>1</trackindex>
							<clipindex>38</clipindex>
						</link>
						<link>
							<linkclipref>clipitem-484</linkclipref>
							<mediatype>audio</mediatype>
							<trackindex>1</trackindex>
							<clipindex>8</clipindex>
							<groupindex>1</groupindex>
						</link>
						<link>
							<linkclipref>clipitem-648</linkclipref>
							<mediatype>audio</mediatype>
							<trackindex>2</trackindex>
							<clipindex>8</clipindex>
							<groupindex>1</groupindex>
						</link>
						<logginginfo>
							<description></description>
							<scene></scene>
							<shottake></shottake>
							<lognote></lognote>
							<good></good>
							<originalvideofilename></originalvideofilename>
							<originalaudiofilename></originalaudiofilename>
						</logginginfo>
						<colorinfo>
							<lut></lut>
							<lut1></lut1>
							<asc_sop></asc_sop>
							<asc_sat></asc_sat>
							<lut2></lut2>
						</colorinfo>
						<labels>
							<label2>Iris</label2>
						</labels>
					</clipitem>
					<clipitem id="clipitem-485" premiereChannelType="stereo">
						<masterclipid>masterclip-226</masterclipid>
						<name>Audio 3_29.wav</name>
						<enabled>TRUE</enabled>
						<duration>183</duration>
						<rate>
							<timebase>24</timebase>
							<ntsc>FALSE</ntsc>
						</rate>
						<start>3398</start>
						<end>3464</end>
						<in>20</in>
						<out>86</out>
						<pproTicksIn>211680000000</pproTicksIn>
						<pproTicksOut>910224000000</pproTicksOut>
						<file id="file-226">
							<name>Audio 3_29.wav</name>
							<pathurl>file://localhost/D%3a/aura%20premier%20pro/Adobe%20Premiere%20Pro%20Captured%20Audio/TESTING_MADESH/Audio%203_29.wav</pathurl>
							<rate>
								<timebase>30</timebase>
								<ntsc>TRUE</ntsc>
							</rate>
							<duration>228</duration>
							<timecode>
								<rate>
									<timebase>30</timebase>
									<ntsc>TRUE</ntsc>
								</rate>
								<string>00;00;00;00</string>
								<frame>0</frame>
								<displayformat>DF</displayformat>
							</timecode>
							<media>
								<audio>
									<samplecharacteristics>
										<depth>16</depth>
										<samplerate>48000</samplerate>
									</samplecharacteristics>
									<channelcount>2</channelcount>
								</audio>
							</media>
						</file>
						<sourcetrack>
							<mediatype>audio</mediatype>
							<trackindex>1</trackindex>
						</sourcetrack>
						<filter>
							<effect>
								<name>Audio Levels</name>
								<effectid>audiolevels</effectid>
								<effectcategory>audiolevels</effectcategory>
								<effecttype>audiolevels</effecttype>
								<mediatype>audio</mediatype>
								<pproBypass>false</pproBypass>
								<parameter authoringApp="PremierePro">
									<parameterid>level</parameterid>
									<name>Level</name>
									<valuemin>0</valuemin>
									<valuemax>3.98109</valuemax>
									<value>0.0667907</value>
								</parameter>
							</effect>
						</filter>
						<link>
							<linkclipref>clipitem-485</linkclipref>
							<mediatype>audio</mediatype>
							<trackindex>1</trackindex>
							<clipindex>9</clipindex>
							<groupindex>1</groupindex>
						</link>
						<link>
							<linkclipref>clipitem-649</linkclipref>
							<mediatype>audio</mediatype>
							<trackindex>2</trackindex>
							<clipindex>9</clipindex>
							<groupindex>1</groupindex>
						</link>
						<logginginfo>
							<description></description>
							<scene></scene>
							<shottake></shottake>
							<lognote></lognote>
							<good></good>
							<originalvideofilename></originalvideofilename>
							<originalaudiofilename></originalaudiofilename>
						</logginginfo>
						<colorinfo>
							<lut></lut>
							<lut1></lut1>
							<asc_sop></asc_sop>
							<asc_sat></asc_sat>
							<lut2></lut2>
						</colorinfo>
						<labels>
							<label2>Caribbean</label2>
						</labels>
					</clipitem>
					<clipitem id="clipitem-486" premiereChannelType="stereo">
						<masterclipid>masterclip-226</masterclipid>
						<name>Audio 3_29.wav</name>
						<enabled>TRUE</enabled>
						<duration>183</duration>
						<rate>
							<timebase>24</timebase>
							<ntsc>FALSE</ntsc>
						</rate>
						<start>3480</start>
						<end>3544</end>
						<in>92</in>
						<out>156</out>
						<pproTicksIn>973728000000</pproTicksIn>
						<pproTicksOut>1651104000000</pproTicksOut>
						<file id="file-226"/>
						<sourcetrack>
							<mediatype>audio</mediatype>
							<trackindex>1</trackindex>
						</sourcetrack>
						<filter>
							<effect>
								<name>Audio Levels</name>
								<effectid>audiolevels</effectid>
								<effectcategory>audiolevels</effectcategory>
								<effecttype>audiolevels</effecttype>
								<mediatype>audio</mediatype>
								<pproBypass>false</pproBypass>
								<parameter authoringApp="PremierePro">
									<parameterid>level</parameterid>
									<name>Level</name>
									<valuemin>0</valuemin>
									<valuemax>3.98109</valuemax>
									<value>0.351456</value>
								</parameter>
							</effect>
						</filter>
						<link>
							<linkclipref>clipitem-486</linkclipref>
							<mediatype>audio</mediatype>
							<trackindex>1</trackindex>
							<clipindex>10</clipindex>
							<groupindex>1</groupindex>
						</link>
						<link>
							<linkclipref>clipitem-650</linkclipref>
							<mediatype>audio</mediatype>
							<trackindex>2</trackindex>
							<clipindex>10</clipindex>
							<groupindex>1</groupindex>
						</link>
						<logginginfo>
							<description></description>
							<scene></scene>
							<shottake></shottake>
							<lognote></lognote>
							<good></good>
							<originalvideofilename></originalvideofilename>
							<originalaudiofilename></originalaudiofilename>
						</logginginfo>
						<colorinfo>
							<lut></lut>
							<lut1></lut1>
							<asc_sop></asc_sop>
							<asc_sat></asc_sat>
							<lut2></lut2>
						</colorinfo>
						<labels>
							<label2>Caribbean</label2>
						</labels>
					</clipitem>
					<clipitem id="clipitem-487" premiereChannelType="stereo">
						<masterclipid>masterclip-19</masterclipid>
						<name>A006_06191855_C187.mp4</name>
						<enabled>TRUE</enabled>
						<duration>1238</duration>
						<rate>
							<timebase>24</timebase>
							<ntsc>FALSE</ntsc>
						</rate>
						<start>3585</start>
						<end>3677</end>
						<in>120</in>
						<out>212</out>
						<pproTicksIn>1270080000000</pproTicksIn>
						<pproTicksOut>2243808000000</pproTicksOut>
						<file id="file-19"/>
						<sourcetrack>
							<mediatype>audio</mediatype>
							<trackindex>1</trackindex>
						</sourcetrack>
						<link>
							<linkclipref>clipitem-45</linkclipref>
							<mediatype>video</mediatype>
							<trackindex>1</trackindex>
							<clipindex>47</clipindex>
						</link>
						<link>
							<linkclipref>clipitem-487</linkclipref>
							<mediatype>audio</mediatype>
							<trackindex>1</trackindex>
							<clipindex>11</clipindex>
							<groupindex>1</groupindex>
						</link>
						<link>
							<linkclipref>clipitem-651</linkclipref>
							<mediatype>audio</mediatype>
							<trackindex>2</trackindex>
							<clipindex>11</clipindex>
							<groupindex>1</groupindex>
						</link>
						<logginginfo>
							<description></description>
							<scene></scene>
							<shottake></shottake>
							<lognote></lognote>
							<good></good>
							<originalvideofilename></originalvideofilename>
							<originalaudiofilename></originalaudiofilename>
						</logginginfo>
						<colorinfo>
							<lut></lut>
							<lut1></lut1>
							<asc_sop></asc_sop>
							<asc_sat></asc_sat>
							<lut2></lut2>
						</colorinfo>
						<labels>
							<label2>Iris</label2>
						</labels>
					</clipitem>
					<clipitem id="clipitem-488" premiereChannelType="stereo">
						<masterclipid>masterclip-20</masterclipid>
						<name>A006_06192131_C203.mp4</name>
						<enabled>TRUE</enabled>
						<duration>707</duration>
						<rate>
							<timebase>24</timebase>
							<ntsc>FALSE</ntsc>
						</rate>
						<start>3681</start>
						<end>3727</end>
						<in>57</in>
						<out>103</out>
						<pproTicksIn>603288000000</pproTicksIn>
						<pproTicksOut>1090152000000</pproTicksOut>
						<file id="file-20"/>
						<sourcetrack>
							<mediatype>audio</mediatype>
							<trackindex>1</trackindex>
						</sourcetrack>
						<link>
							<linkclipref>clipitem-46</linkclipref>
							<mediatype>video</mediatype>
							<trackindex>1</trackindex>
							<clipindex>48</clipindex>
						</link>
						<link>
							<linkclipref>clipitem-488</linkclipref>
							<mediatype>audio</mediatype>
							<trackindex>1</trackindex>
							<clipindex>12</clipindex>
							<groupindex>1</groupindex>
						</link>
						<link>
							<linkclipref>clipitem-652</linkclipref>
							<mediatype>audio</mediatype>
							<trackindex>2</trackindex>
							<clipindex>12</clipindex>
							<groupindex>1</groupindex>
						</link>
						<logginginfo>
							<description></description>
							<scene></scene>
							<shottake></shottake>
							<lognote></lognote>
							<good></good>
							<originalvideofilename></originalvideofilename>
							<originalaudiofilename></originalaudiofilename>
						</logginginfo>
						<colorinfo>
							<lut></lut>
							<lut1></lut1>
							<asc_sop></asc_sop>
							<asc_sat></asc_sat>
							<lut2></lut2>
						</colorinfo>
						<labels>
							<label2>Iris</label2>
						</labels>
					</clipitem>
					<clipitem id="clipitem-489" premiereChannelType="stereo">
						<masterclipid>masterclip-21</masterclipid>
						<name>A006_06192138_C206.mp4</name>
						<enabled>TRUE</enabled>
						<duration>3995</duration>
						<rate>
							<timebase>24</timebase>
							<ntsc>FALSE</ntsc>
						</rate>
						<start>3727</start>
						<end>3795</end>
						<in>220</in>
						<out>288</out>
						<pproTicksIn>2328480000000</pproTicksIn>
						<pproTicksOut>3048192000000</pproTicksOut>
						<file id="file-21"/>
						<sourcetrack>
							<mediatype>audio</mediatype>
							<trackindex>1</trackindex>
						</sourcetrack>
						<link>
							<linkclipref>clipitem-47</linkclipref>
							<mediatype>video</mediatype>
							<trackindex>1</trackindex>
							<clipindex>49</clipindex>
						</link>
						<link>
							<linkclipref>clipitem-489</linkclipref>
							<mediatype>audio</mediatype>
							<trackindex>1</trackindex>
							<clipindex>13</clipindex>
							<groupindex>1</groupindex>
						</link>
						<link>
							<linkclipref>clipitem-653</linkclipref>
							<mediatype>audio</mediatype>
							<trackindex>2</trackindex>
							<clipindex>13</clipindex>
							<groupindex>1</groupindex>
						</link>
						<logginginfo>
							<description></description>
							<scene></scene>
							<shottake></shottake>
							<lognote></lognote>
							<good></good>
							<originalvideofilename></originalvideofilename>
							<originalaudiofilename></originalaudiofilename>
						</logginginfo>
						<colorinfo>
							<lut></lut>
							<lut1></lut1>
							<asc_sop></asc_sop>
							<asc_sat></asc_sat>
							<lut2></lut2>
						</colorinfo>
						<labels>
							<label2>Iris</label2>
						</labels>
					</clipitem>
					<clipitem id="clipitem-490" premiereChannelType="stereo">
						<masterclipid>masterclip-22</masterclipid>
						<name>A006_06192120_C197.mp4</name>
						<enabled>TRUE</enabled>
						<duration>988</duration>
						<rate>
							<timebase>24</timebase>
							<ntsc>FALSE</ntsc>
						</rate>
						<start>3822</start>
						<end>3925</end>
						<in>149</in>
						<out>252</out>
						<pproTicksIn>1577016000000</pproTicksIn>
						<pproTicksOut>2667168000000</pproTicksOut>
						<file id="file-22"/>
						<sourcetrack>
							<mediatype>audio</mediatype>
							<trackindex>1</trackindex>
						</sourcetrack>
						<link>
							<linkclipref>clipitem-48</linkclipref>
							<mediatype>video</mediatype>
							<trackindex>1</trackindex>
							<clipindex>50</clipindex>
						</link>
						<link>
							<linkclipref>clipitem-490</linkclipref>
							<mediatype>audio</mediatype>
							<trackindex>1</trackindex>
							<clipindex>14</clipindex>
							<groupindex>1</groupindex>
						</link>
						<link>
							<linkclipref>clipitem-654</linkclipref>
							<mediatype>audio</mediatype>
							<trackindex>2</trackindex>
							<clipindex>14</clipindex>
							<groupindex>1</groupindex>
						</link>
						<logginginfo>
							<description></description>
							<scene></scene>
							<shottake></shottake>
							<lognote></lognote>
							<good></good>
							<originalvideofilename></originalvideofilename>
							<originalaudiofilename></originalaudiofilename>
						</logginginfo>
						<colorinfo>
							<lut></lut>
							<lut1></lut1>
							<asc_sop></asc_sop>
							<asc_sat></asc_sat>
							<lut2></lut2>
						</colorinfo>
						<labels>
							<label2>Iris</label2>
						</labels>
					</clipitem>
					<clipitem id="clipitem-491" premiereChannelType="stereo">
						<masterclipid>masterclip-22</masterclipid>
						<name>A006_06192120_C197.mp4</name>
						<enabled>TRUE</enabled>
						<duration>988</duration>
						<rate>
							<timebase>24</timebase>
							<ntsc>FALSE</ntsc>
						</rate>
						<start>3925</start>
						<end>4103</end>
						<in>252</in>
						<out>430</out>
						<pproTicksIn>2667168000000</pproTicksIn>
						<pproTicksOut>4551120000000</pproTicksOut>
						<file id="file-22"/>
						<sourcetrack>
							<mediatype>audio</mediatype>
							<trackindex>1</trackindex>
						</sourcetrack>
						<link>
							<linkclipref>clipitem-491</linkclipref>
							<mediatype>audio</mediatype>
							<trackindex>1</trackindex>
							<clipindex>15</clipindex>
							<groupindex>1</groupindex>
						</link>
						<link>
							<linkclipref>clipitem-655</linkclipref>
							<mediatype>audio</mediatype>
							<trackindex>2</trackindex>
							<clipindex>15</clipindex>
							<groupindex>1</groupindex>
						</link>
						<logginginfo>
							<description></description>
							<scene></scene>
							<shottake></shottake>
							<lognote></lognote>
							<good></good>
							<originalvideofilename></originalvideofilename>
							<originalaudiofilename></originalaudiofilename>
						</logginginfo>
						<colorinfo>
							<lut></lut>
							<lut1></lut1>
							<asc_sop></asc_sop>
							<asc_sat></asc_sat>
							<lut2></lut2>
						</colorinfo>
						<labels>
							<label2>Iris</label2>
						</labels>
					</clipitem>
					<clipitem id="clipitem-492" premiereChannelType="stereo">
						<masterclipid>masterclip-22</masterclipid>
						<name>A006_06192120_C197.mp4</name>
						<enabled>TRUE</enabled>
						<duration>988</duration>
						<rate>
							<timebase>24</timebase>
							<ntsc>FALSE</ntsc>
						</rate>
						<start>4103</start>
						<end>4285</end>
						<in>430</in>
						<out>612</out>
						<pproTicksIn>4551120000000</pproTicksIn>
						<pproTicksOut>6477408000000</pproTicksOut>
						<file id="file-22"/>
						<sourcetrack>
							<mediatype>audio</mediatype>
							<trackindex>1</trackindex>
						</sourcetrack>
						<link>
							<linkclipref>clipitem-50</linkclipref>
							<mediatype>video</mediatype>
							<trackindex>1</trackindex>
							<clipindex>52</clipindex>
						</link>
						<link>
							<linkclipref>clipitem-492</linkclipref>
							<mediatype>audio</mediatype>
							<trackindex>1</trackindex>
							<clipindex>16</clipindex>
							<groupindex>1</groupindex>
						</link>
						<link>
							<linkclipref>clipitem-656</linkclipref>
							<mediatype>audio</mediatype>
							<trackindex>2</trackindex>
							<clipindex>16</clipindex>
							<groupindex>1</groupindex>
						</link>
						<logginginfo>
							<description></description>
							<scene></scene>
							<shottake></shottake>
							<lognote></lognote>
							<good></good>
							<originalvideofilename></originalvideofilename>
							<originalaudiofilename></originalaudiofilename>
						</logginginfo>
						<colorinfo>
							<lut></lut>
							<lut1></lut1>
							<asc_sop></asc_sop>
							<asc_sat></asc_sat>
							<lut2></lut2>
						</colorinfo>
						<labels>
							<label2>Iris</label2>
						</labels>
					</clipitem>
					<clipitem id="clipitem-493" premiereChannelType="stereo">
						<masterclipid>masterclip-23</masterclipid>
						<name>A006_06192126_C199.mp4</name>
						<enabled>TRUE</enabled>
						<duration>922</duration>
						<rate>
							<timebase>24</timebase>
							<ntsc>FALSE</ntsc>
						</rate>
						<start>4285</start>
						<end>4351</end>
						<in>688</in>
						<out>754</out>
						<pproTicksIn>7281792000000</pproTicksIn>
						<pproTicksOut>7980336000000</pproTicksOut>
						<file id="file-23"/>
						<sourcetrack>
							<mediatype>audio</mediatype>
							<trackindex>1</trackindex>
						</sourcetrack>
						<link>
							<linkclipref>clipitem-51</linkclipref>
							<mediatype>video</mediatype>
							<trackindex>1</trackindex>
							<clipindex>53</clipindex>
						</link>
						<link>
							<linkclipref>clipitem-493</linkclipref>
							<mediatype>audio</mediatype>
							<trackindex>1</trackindex>
							<clipindex>17</clipindex>
							<groupindex>1</groupindex>
						</link>
						<link>
							<linkclipref>clipitem-657</linkclipref>
							<mediatype>audio</mediatype>
							<trackindex>2</trackindex>
							<clipindex>17</clipindex>
							<groupindex>1</groupindex>
						</link>
						<logginginfo>
							<description></description>
							<scene></scene>
							<shottake></shottake>
							<lognote></lognote>
							<good></good>
							<originalvideofilename></originalvideofilename>
							<originalaudiofilename></originalaudiofilename>
						</logginginfo>
						<colorinfo>
							<lut></lut>
							<lut1></lut1>
							<asc_sop></asc_sop>
							<asc_sat></asc_sat>
							<lut2></lut2>
						</colorinfo>
						<labels>
							<label2>Iris</label2>
						</labels>
					</clipitem>
					<clipitem id="clipitem-494" premiereChannelType="stereo">
						<masterclipid>masterclip-24</masterclipid>
						<name>A006_06192132_C204.mp4</name>
						<enabled>TRUE</enabled>
						<duration>526</duration>
						<rate>
							<timebase>24</timebase>
							<ntsc>FALSE</ntsc>
						</rate>
						<start>4351</start>
						<end>4438</end>
						<in>234</in>
						<out>321</out>
						<pproTicksIn>2476656000000</pproTicksIn>
						<pproTicksOut>3397464000000</pproTicksOut>
						<file id="file-24"/>
						<sourcetrack>
							<mediatype>audio</mediatype>
							<trackindex>1</trackindex>
						</sourcetrack>
						<link>
							<linkclipref>clipitem-52</linkclipref>
							<mediatype>video</mediatype>
							<trackindex>1</trackindex>
							<clipindex>54</clipindex>
						</link>
						<link>
							<linkclipref>clipitem-494</linkclipref>
							<mediatype>audio</mediatype>
							<trackindex>1</trackindex>
							<clipindex>18</clipindex>
							<groupindex>1</groupindex>
						</link>
						<link>
							<linkclipref>clipitem-658</linkclipref>
							<mediatype>audio</mediatype>
							<trackindex>2</trackindex>
							<clipindex>18</clipindex>
							<groupindex>1</groupindex>
						</link>
						<logginginfo>
							<description></description>
							<scene></scene>
							<shottake></shottake>
							<lognote></lognote>
							<good></good>
							<originalvideofilename></originalvideofilename>
							<originalaudiofilename></originalaudiofilename>
						</logginginfo>
						<colorinfo>
							<lut></lut>
							<lut1></lut1>
							<asc_sop></asc_sop>
							<asc_sat></asc_sat>
							<lut2></lut2>
						</colorinfo>
						<labels>
							<label2>Iris</label2>
						</labels>
					</clipitem>
					<clipitem id="clipitem-495" premiereChannelType="stereo">
						<masterclipid>masterclip-21</masterclipid>
						<name>A006_06192138_C206.mp4</name>
						<enabled>TRUE</enabled>
						<duration>3995</duration>
						<rate>
							<timebase>24</timebase>
							<ntsc>FALSE</ntsc>
						</rate>
						<start>4438</start>
						<end>4761</end>
						<in>1031</in>
						<out>1354</out>
						<pproTicksIn>10912104000000</pproTicksIn>
						<pproTicksOut>14330736000000</pproTicksOut>
						<file id="file-21"/>
						<sourcetrack>
							<mediatype>audio</mediatype>
							<trackindex>1</trackindex>
						</sourcetrack>
						<link>
							<linkclipref>clipitem-53</linkclipref>
							<mediatype>video</mediatype>
							<trackindex>1</trackindex>
							<clipindex>55</clipindex>
						</link>
						<link>
							<linkclipref>clipitem-495</linkclipref>
							<mediatype>audio</mediatype>
							<trackindex>1</trackindex>
							<clipindex>19</clipindex>
							<groupindex>1</groupindex>
						</link>
						<link>
							<linkclipref>clipitem-659</linkclipref>
							<mediatype>audio</mediatype>
							<trackindex>2</trackindex>
							<clipindex>19</clipindex>
							<groupindex>1</groupindex>
						</link>
						<logginginfo>
							<description></description>
							<scene></scene>
							<shottake></shottake>
							<lognote></lognote>
							<good></good>
							<originalvideofilename></originalvideofilename>
							<originalaudiofilename></originalaudiofilename>
						</logginginfo>
						<colorinfo>
							<lut></lut>
							<lut1></lut1>
							<asc_sop></asc_sop>
							<asc_sat></asc_sat>
							<lut2></lut2>
						</colorinfo>
						<labels>
							<label2>Iris</label2>
						</labels>
					</clipitem>
					<clipitem id="clipitem-496" premiereChannelType="stereo">
						<masterclipid>masterclip-25</masterclipid>
						<name>A006_06192211_C220.mp4</name>
						<enabled>TRUE</enabled>
						<duration>1671</duration>
						<rate>
							<timebase>24</timebase>
							<ntsc>FALSE</ntsc>
						</rate>
						<start>4761</start>
						<end>4800</end>
						<in>46</in>
						<out>85</out>
						<pproTicksIn>486864000000</pproTicksIn>
						<pproTicksOut>899640000000</pproTicksOut>
						<file id="file-25"/>
						<sourcetrack>
							<mediatype>audio</mediatype>
							<trackindex>1</trackindex>
						</sourcetrack>
						<link>
							<linkclipref>clipitem-54</linkclipref>
							<mediatype>video</mediatype>
							<trackindex>1</trackindex>
							<clipindex>56</clipindex>
						</link>
						<link>
							<linkclipref>clipitem-496</linkclipref>
							<mediatype>audio</mediatype>
							<trackindex>1</trackindex>
							<clipindex>20</clipindex>
							<groupindex>1</groupindex>
						</link>
						<link>
							<linkclipref>clipitem-660</linkclipref>
							<mediatype>audio</mediatype>
							<trackindex>2</trackindex>
							<clipindex>20</clipindex>
							<groupindex>1</groupindex>
						</link>
						<logginginfo>
							<description></description>
							<scene></scene>
							<shottake></shottake>
							<lognote></lognote>
							<good></good>
							<originalvideofilename></originalvideofilename>
							<originalaudiofilename></originalaudiofilename>
						</logginginfo>
						<colorinfo>
							<lut></lut>
							<lut1></lut1>
							<asc_sop></asc_sop>
							<asc_sat></asc_sat>
							<lut2></lut2>
						</colorinfo>
						<labels>
							<label2>Iris</label2>
						</labels>
					</clipitem>
					<clipitem id="clipitem-497" premiereChannelType="stereo">
						<masterclipid>masterclip-26</masterclipid>
						<name>A006_06192148_C207.mp4</name>
						<enabled>TRUE</enabled>
						<duration>2744</duration>
						<rate>
							<timebase>24</timebase>
							<ntsc>FALSE</ntsc>
						</rate>
						<start>4800</start>
						<end>4948</end>
						<in>358</in>
						<out>506</out>
						<pproTicksIn>3789072000000</pproTicksIn>
						<pproTicksOut>5355504000000</pproTicksOut>
						<file id="file-26"/>
						<sourcetrack>
							<mediatype>audio</mediatype>
							<trackindex>1</trackindex>
						</sourcetrack>
						<link>
							<linkclipref>clipitem-55</linkclipref>
							<mediatype>video</mediatype>
							<trackindex>1</trackindex>
							<clipindex>57</clipindex>
						</link>
						<link>
							<linkclipref>clipitem-497</linkclipref>
							<mediatype>audio</mediatype>
							<trackindex>1</trackindex>
							<clipindex>21</clipindex>
							<groupindex>1</groupindex>
						</link>
						<link>
							<linkclipref>clipitem-661</linkclipref>
							<mediatype>audio</mediatype>
							<trackindex>2</trackindex>
							<clipindex>21</clipindex>
							<groupindex>1</groupindex>
						</link>
						<logginginfo>
							<description></description>
							<scene></scene>
							<shottake></shottake>
							<lognote></lognote>
							<good></good>
							<originalvideofilename></originalvideofilename>
							<originalaudiofilename></originalaudiofilename>
						</logginginfo>
						<colorinfo>
							<lut></lut>
							<lut1></lut1>
							<asc_sop></asc_sop>
							<asc_sat></asc_sat>
							<lut2></lut2>
						</colorinfo>
						<labels>
							<label2>Iris</label2>
						</labels>
					</clipitem>
					<clipitem id="clipitem-498" premiereChannelType="stereo">
						<masterclipid>masterclip-26</masterclipid>
						<name>A006_06192148_C207.mp4</name>
						<enabled>TRUE</enabled>
						<duration>2744</duration>
						<rate>
							<timebase>24</timebase>
							<ntsc>FALSE</ntsc>
						</rate>
						<start>4948</start>
						<end>4989</end>
						<in>506</in>
						<out>547</out>
						<pproTicksIn>5355504000000</pproTicksIn>
						<pproTicksOut>5789448000000</pproTicksOut>
						<file id="file-26"/>
						<sourcetrack>
							<mediatype>audio</mediatype>
							<trackindex>1</trackindex>
						</sourcetrack>
						<link>
							<linkclipref>clipitem-56</linkclipref>
							<mediatype>video</mediatype>
							<trackindex>1</trackindex>
							<clipindex>58</clipindex>
						</link>
						<link>
							<linkclipref>clipitem-498</linkclipref>
							<mediatype>audio</mediatype>
							<trackindex>1</trackindex>
							<clipindex>22</clipindex>
							<groupindex>1</groupindex>
						</link>
						<link>
							<linkclipref>clipitem-662</linkclipref>
							<mediatype>audio</mediatype>
							<trackindex>2</trackindex>
							<clipindex>22</clipindex>
							<groupindex>1</groupindex>
						</link>
						<logginginfo>
							<description></description>
							<scene></scene>
							<shottake></shottake>
							<lognote></lognote>
							<good></good>
							<originalvideofilename></originalvideofilename>
							<originalaudiofilename></originalaudiofilename>
						</logginginfo>
						<colorinfo>
							<lut></lut>
							<lut1></lut1>
							<asc_sop></asc_sop>
							<asc_sat></asc_sat>
							<lut2></lut2>
						</colorinfo>
						<labels>
							<label2>Iris</label2>
						</labels>
					</clipitem>
					<clipitem id="clipitem-499" premiereChannelType="stereo">
						<masterclipid>masterclip-25</masterclipid>
						<name>A006_06192211_C220.mp4</name>
						<enabled>TRUE</enabled>
						<duration>1671</duration>
						<rate>
							<timebase>24</timebase>
							<ntsc>FALSE</ntsc>
						</rate>
						<start>4989</start>
						<end>5081</end>
						<in>157</in>
						<out>249</out>
						<pproTicksIn>1661688000000</pproTicksIn>
						<pproTicksOut>2635416000000</pproTicksOut>
						<file id="file-25"/>
						<sourcetrack>
							<mediatype>audio</mediatype>
							<trackindex>1</trackindex>
						</sourcetrack>
						<link>
							<linkclipref>clipitem-57</linkclipref>
							<mediatype>video</mediatype>
							<trackindex>1</trackindex>
							<clipindex>59</clipindex>
						</link>
						<link>
							<linkclipref>clipitem-499</linkclipref>
							<mediatype>audio</mediatype>
							<trackindex>1</trackindex>
							<clipindex>23</clipindex>
							<groupindex>1</groupindex>
						</link>
						<link>
							<linkclipref>clipitem-663</linkclipref>
							<mediatype>audio</mediatype>
							<trackindex>2</trackindex>
							<clipindex>23</clipindex>
							<groupindex>1</groupindex>
						</link>
						<logginginfo>
							<description></description>
							<scene></scene>
							<shottake></shottake>
							<lognote></lognote>
							<good></good>
							<originalvideofilename></originalvideofilename>
							<originalaudiofilename></originalaudiofilename>
						</logginginfo>
						<colorinfo>
							<lut></lut>
							<lut1></lut1>
							<asc_sop></asc_sop>
							<asc_sat></asc_sat>
							<lut2></lut2>
						</colorinfo>
						<labels>
							<label2>Iris</label2>
						</labels>
					</clipitem>
					<clipitem id="clipitem-500" premiereChannelType="stereo">
						<masterclipid>masterclip-27</masterclipid>
						<name>A006_06192156_C209.mp4</name>
						<enabled>TRUE</enabled>
						<duration>2522</duration>
						<rate>
							<timebase>24</timebase>
							<ntsc>FALSE</ntsc>
						</rate>
						<start>5081</start>
						<end>5157</end>
						<in>632</in>
						<out>708</out>
						<pproTicksIn>6689088000000</pproTicksIn>
						<pproTicksOut>7493472000000</pproTicksOut>
						<file id="file-27"/>
						<sourcetrack>
							<mediatype>audio</mediatype>
							<trackindex>1</trackindex>
						</sourcetrack>
						<link>
							<linkclipref>clipitem-58</linkclipref>
							<mediatype>video</mediatype>
							<trackindex>1</trackindex>
							<clipindex>60</clipindex>
						</link>
						<link>
							<linkclipref>clipitem-500</linkclipref>
							<mediatype>audio</mediatype>
							<trackindex>1</trackindex>
							<clipindex>24</clipindex>
							<groupindex>1</groupindex>
						</link>
						<link>
							<linkclipref>clipitem-664</linkclipref>
							<mediatype>audio</mediatype>
							<trackindex>2</trackindex>
							<clipindex>24</clipindex>
							<groupindex>1</groupindex>
						</link>
						<logginginfo>
							<description></description>
							<scene></scene>
							<shottake></shottake>
							<lognote></lognote>
							<good></good>
							<originalvideofilename></originalvideofilename>
							<originalaudiofilename></originalaudiofilename>
						</logginginfo>
						<colorinfo>
							<lut></lut>
							<lut1></lut1>
							<asc_sop></asc_sop>
							<asc_sat></asc_sat>
							<lut2></lut2>
						</colorinfo>
						<labels>
							<label2>Iris</label2>
						</labels>
					</clipitem>
					<clipitem id="clipitem-501" premiereChannelType="stereo">
						<masterclipid>masterclip-26</masterclipid>
						<name>A006_06192148_C207.mp4</name>
						<enabled>TRUE</enabled>
						<duration>2744</duration>
						<rate>
							<timebase>24</timebase>
							<ntsc>FALSE</ntsc>
						</rate>
						<start>5157</start>
						<end>5262</end>
						<in>819</in>
						<out>924</out>
						<pproTicksIn>8668296000000</pproTicksIn>
						<pproTicksOut>9779616000000</pproTicksOut>
						<file id="file-26"/>
						<sourcetrack>
							<mediatype>audio</mediatype>
							<trackindex>1</trackindex>
						</sourcetrack>
						<link>
							<linkclipref>clipitem-59</linkclipref>
							<mediatype>video</mediatype>
							<trackindex>1</trackindex>
							<clipindex>61</clipindex>
						</link>
						<link>
							<linkclipref>clipitem-501</linkclipref>
							<mediatype>audio</mediatype>
							<trackindex>1</trackindex>
							<clipindex>25</clipindex>
							<groupindex>1</groupindex>
						</link>
						<link>
							<linkclipref>clipitem-665</linkclipref>
							<mediatype>audio</mediatype>
							<trackindex>2</trackindex>
							<clipindex>25</clipindex>
							<groupindex>1</groupindex>
						</link>
						<logginginfo>
							<description></description>
							<scene></scene>
							<shottake></shottake>
							<lognote></lognote>
							<good></good>
							<originalvideofilename></originalvideofilename>
							<originalaudiofilename></originalaudiofilename>
						</logginginfo>
						<colorinfo>
							<lut></lut>
							<lut1></lut1>
							<asc_sop></asc_sop>
							<asc_sat></asc_sat>
							<lut2></lut2>
						</colorinfo>
						<labels>
							<label2>Iris</label2>
						</labels>
					</clipitem>
					<clipitem id="clipitem-502" premiereChannelType="stereo">
						<masterclipid>masterclip-27</masterclipid>
						<name>A006_06192156_C209.mp4</name>
						<enabled>TRUE</enabled>
						<duration>2522</duration>
						<rate>
							<timebase>24</timebase>
							<ntsc>FALSE</ntsc>
						</rate>
						<start>5262</start>
						<end>5411</end>
						<in>850</in>
						<out>999</out>
						<pproTicksIn>8996400000000</pproTicksIn>
						<pproTicksOut>10573416000000</pproTicksOut>
						<file id="file-27"/>
						<sourcetrack>
							<mediatype>audio</mediatype>
							<trackindex>1</trackindex>
						</sourcetrack>
						<link>
							<linkclipref>clipitem-60</linkclipref>
							<mediatype>video</mediatype>
							<trackindex>1</trackindex>
							<clipindex>62</clipindex>
						</link>
						<link>
							<linkclipref>clipitem-502</linkclipref>
							<mediatype>audio</mediatype>
							<trackindex>1</trackindex>
							<clipindex>26</clipindex>
							<groupindex>1</groupindex>
						</link>
						<link>
							<linkclipref>clipitem-666</linkclipref>
							<mediatype>audio</mediatype>
							<trackindex>2</trackindex>
							<clipindex>26</clipindex>
							<groupindex>1</groupindex>
						</link>
						<logginginfo>
							<description></description>
							<scene></scene>
							<shottake></shottake>
							<lognote></lognote>
							<good></good>
							<originalvideofilename></originalvideofilename>
							<originalaudiofilename></originalaudiofilename>
						</logginginfo>
						<colorinfo>
							<lut></lut>
							<lut1></lut1>
							<asc_sop></asc_sop>
							<asc_sat></asc_sat>
							<lut2></lut2>
						</colorinfo>
						<labels>
							<label2>Iris</label2>
						</labels>
					</clipitem>
					<clipitem id="clipitem-503" premiereChannelType="stereo">
						<masterclipid>masterclip-27</masterclipid>
						<name>A006_06192156_C209.mp4</name>
						<enabled>TRUE</enabled>
						<duration>2522</duration>
						<rate>
							<timebase>24</timebase>
							<ntsc>FALSE</ntsc>
						</rate>
						<start>5469</start>
						<end>5578</end>
						<in>1066</in>
						<out>1175</out>
						<pproTicksIn>11282544000000</pproTicksIn>
						<pproTicksOut>12436200000000</pproTicksOut>
						<file id="file-27"/>
						<sourcetrack>
							<mediatype>audio</mediatype>
							<trackindex>1</trackindex>
						</sourcetrack>
						<link>
							<linkclipref>clipitem-62</linkclipref>
							<mediatype>video</mediatype>
							<trackindex>1</trackindex>
							<clipindex>64</clipindex>
						</link>
						<link>
							<linkclipref>clipitem-503</linkclipref>
							<mediatype>audio</mediatype>
							<trackindex>1</trackindex>
							<clipindex>27</clipindex>
							<groupindex>1</groupindex>
						</link>
						<link>
							<linkclipref>clipitem-667</linkclipref>
							<mediatype>audio</mediatype>
							<trackindex>2</trackindex>
							<clipindex>27</clipindex>
							<groupindex>1</groupindex>
						</link>
						<logginginfo>
							<description></description>
							<scene></scene>
							<shottake></shottake>
							<lognote></lognote>
							<good></good>
							<originalvideofilename></originalvideofilename>
							<originalaudiofilename></originalaudiofilename>
						</logginginfo>
						<colorinfo>
							<lut></lut>
							<lut1></lut1>
							<asc_sop></asc_sop>
							<asc_sat></asc_sat>
							<lut2></lut2>
						</colorinfo>
						<labels>
							<label2>Iris</label2>
						</labels>
					</clipitem>
					<clipitem id="clipitem-504" premiereChannelType="stereo">
						<masterclipid>masterclip-26</masterclipid>
						<name>A006_06192148_C207.mp4</name>
						<enabled>TRUE</enabled>
						<duration>2744</duration>
						<rate>
							<timebase>24</timebase>
							<ntsc>FALSE</ntsc>
						</rate>
						<start>5578</start>
						<end>5849</end>
						<in>1196</in>
						<out>1467</out>
						<pproTicksIn>12658464000000</pproTicksIn>
						<pproTicksOut>15526728000000</pproTicksOut>
						<file id="file-26"/>
						<sourcetrack>
							<mediatype>audio</mediatype>
							<trackindex>1</trackindex>
						</sourcetrack>
						<link>
							<linkclipref>clipitem-63</linkclipref>
							<mediatype>video</mediatype>
							<trackindex>1</trackindex>
							<clipindex>65</clipindex>
						</link>
						<link>
							<linkclipref>clipitem-504</linkclipref>
							<mediatype>audio</mediatype>
							<trackindex>1</trackindex>
							<clipindex>28</clipindex>
							<groupindex>1</groupindex>
						</link>
						<link>
							<linkclipref>clipitem-668</linkclipref>
							<mediatype>audio</mediatype>
							<trackindex>2</trackindex>
							<clipindex>28</clipindex>
							<groupindex>1</groupindex>
						</link>
						<logginginfo>
							<description></description>
							<scene></scene>
							<shottake></shottake>
							<lognote></lognote>
							<good></good>
							<originalvideofilename></originalvideofilename>
							<originalaudiofilename></originalaudiofilename>
						</logginginfo>
						<colorinfo>
							<lut></lut>
							<lut1></lut1>
							<asc_sop></asc_sop>
							<asc_sat></asc_sat>
							<lut2></lut2>
						</colorinfo>
						<labels>
							<label2>Iris</label2>
						</labels>
					</clipitem>
					<clipitem id="clipitem-505" premiereChannelType="stereo">
						<masterclipid>masterclip-26</masterclipid>
						<name>A006_06192148_C207.mp4</name>
						<enabled>TRUE</enabled>
						<duration>2744</duration>
						<rate>
							<timebase>24</timebase>
							<ntsc>FALSE</ntsc>
						</rate>
						<start>5915</start>
						<end>6015</end>
						<in>1517</in>
						<out>1617</out>
						<pproTicksIn>16055928000000</pproTicksIn>
						<pproTicksOut>17114328000000</pproTicksOut>
						<file id="file-26"/>
						<sourcetrack>
							<mediatype>audio</mediatype>
							<trackindex>1</trackindex>
						</sourcetrack>
						<link>
							<linkclipref>clipitem-65</linkclipref>
							<mediatype>video</mediatype>
							<trackindex>1</trackindex>
							<clipindex>67</clipindex>
						</link>
						<link>
							<linkclipref>clipitem-505</linkclipref>
							<mediatype>audio</mediatype>
							<trackindex>1</trackindex>
							<clipindex>29</clipindex>
							<groupindex>1</groupindex>
						</link>
						<link>
							<linkclipref>clipitem-669</linkclipref>
							<mediatype>audio</mediatype>
							<trackindex>2</trackindex>
							<clipindex>29</clipindex>
							<groupindex>1</groupindex>
						</link>
						<logginginfo>
							<description></description>
							<scene></scene>
							<shottake></shottake>
							<lognote></lognote>
							<good></good>
							<originalvideofilename></originalvideofilename>
							<originalaudiofilename></originalaudiofilename>
						</logginginfo>
						<colorinfo>
							<lut></lut>
							<lut1></lut1>
							<asc_sop></asc_sop>
							<asc_sat></asc_sat>
							<lut2></lut2>
						</colorinfo>
						<labels>
							<label2>Iris</label2>
						</labels>
					</clipitem>
					<clipitem id="clipitem-506" premiereChannelType="stereo">
						<masterclipid>masterclip-28</masterclipid>
						<name>A006_06192201_C212.mp4</name>
						<enabled>TRUE</enabled>
						<duration>1523</duration>
						<rate>
							<timebase>24</timebase>
							<ntsc>FALSE</ntsc>
						</rate>
						<start>6015</start>
						<end>6116</end>
						<in>579</in>
						<out>680</out>
						<pproTicksIn>6128136000000</pproTicksIn>
						<pproTicksOut>7197120000000</pproTicksOut>
						<file id="file-28"/>
						<sourcetrack>
							<mediatype>audio</mediatype>
							<trackindex>1</trackindex>
						</sourcetrack>
						<link>
							<linkclipref>clipitem-66</linkclipref>
							<mediatype>video</mediatype>
							<trackindex>1</trackindex>
							<clipindex>68</clipindex>
						</link>
						<link>
							<linkclipref>clipitem-506</linkclipref>
							<mediatype>audio</mediatype>
							<trackindex>1</trackindex>
							<clipindex>30</clipindex>
							<groupindex>1</groupindex>
						</link>
						<link>
							<linkclipref>clipitem-670</linkclipref>
							<mediatype>audio</mediatype>
							<trackindex>2</trackindex>
							<clipindex>30</clipindex>
							<groupindex>1</groupindex>
						</link>
						<logginginfo>
							<description></description>
							<scene></scene>
							<shottake></shottake>
							<lognote></lognote>
							<good></good>
							<originalvideofilename></originalvideofilename>
							<originalaudiofilename></originalaudiofilename>
						</logginginfo>
						<colorinfo>
							<lut></lut>
							<lut1></lut1>
							<asc_sop></asc_sop>
							<asc_sat></asc_sat>
							<lut2></lut2>
						</colorinfo>
						<labels>
							<label2>Iris</label2>
						</labels>
					</clipitem>
					<clipitem id="clipitem-507" premiereChannelType="stereo">
						<masterclipid>masterclip-26</masterclipid>
						<name>A006_06192148_C207.mp4</name>
						<enabled>TRUE</enabled>
						<duration>2744</duration>
						<rate>
							<timebase>24</timebase>
							<ntsc>FALSE</ntsc>
						</rate>
						<start>6116</start>
						<end>6253</end>
						<in>1884</in>
						<out>2021</out>
						<pproTicksIn>19940256000000</pproTicksIn>
						<pproTicksOut>21390264000000</pproTicksOut>
						<file id="file-26"/>
						<sourcetrack>
							<mediatype>audio</mediatype>
							<trackindex>1</trackindex>
						</sourcetrack>
						<link>
							<linkclipref>clipitem-67</linkclipref>
							<mediatype>video</mediatype>
							<trackindex>1</trackindex>
							<clipindex>69</clipindex>
						</link>
						<link>
							<linkclipref>clipitem-507</linkclipref>
							<mediatype>audio</mediatype>
							<trackindex>1</trackindex>
							<clipindex>31</clipindex>
							<groupindex>1</groupindex>
						</link>
						<link>
							<linkclipref>clipitem-671</linkclipref>
							<mediatype>audio</mediatype>
							<trackindex>2</trackindex>
							<clipindex>31</clipindex>
							<groupindex>1</groupindex>
						</link>
						<logginginfo>
							<description></description>
							<scene></scene>
							<shottake></shottake>
							<lognote></lognote>
							<good></good>
							<originalvideofilename></originalvideofilename>
							<originalaudiofilename></originalaudiofilename>
						</logginginfo>
						<colorinfo>
							<lut></lut>
							<lut1></lut1>
							<asc_sop></asc_sop>
							<asc_sat></asc_sat>
							<lut2></lut2>
						</colorinfo>
						<labels>
							<label2>Iris</label2>
						</labels>
					</clipitem>
					<clipitem id="clipitem-508" premiereChannelType="stereo">
						<masterclipid>masterclip-28</masterclipid>
						<name>A006_06192201_C212.mp4</name>
						<enabled>TRUE</enabled>
						<duration>1523</duration>
						<rate>
							<timebase>24</timebase>
							<ntsc>FALSE</ntsc>
						</rate>
						<start>6253</start>
						<end>6537</end>
						<in>945</in>
						<out>1229</out>
						<pproTicksIn>10001880000000</pproTicksIn>
						<pproTicksOut>13007736000000</pproTicksOut>
						<file id="file-28"/>
						<sourcetrack>
							<mediatype>audio</mediatype>
							<trackindex>1</trackindex>
						</sourcetrack>
						<link>
							<linkclipref>clipitem-68</linkclipref>
							<mediatype>video</mediatype>
							<trackindex>1</trackindex>
							<clipindex>70</clipindex>
						</link>
						<link>
							<linkclipref>clipitem-508</linkclipref>
							<mediatype>audio</mediatype>
							<trackindex>1</trackindex>
							<clipindex>32</clipindex>
							<groupindex>1</groupindex>
						</link>
						<link>
							<linkclipref>clipitem-672</linkclipref>
							<mediatype>audio</mediatype>
							<trackindex>2</trackindex>
							<clipindex>32</clipindex>
							<groupindex>1</groupindex>
						</link>
						<logginginfo>
							<description></description>
							<scene></scene>
							<shottake></shottake>
							<lognote></lognote>
							<good></good>
							<originalvideofilename></originalvideofilename>
							<originalaudiofilename></originalaudiofilename>
						</logginginfo>
						<colorinfo>
							<lut></lut>
							<lut1></lut1>
							<asc_sop></asc_sop>
							<asc_sat></asc_sat>
							<lut2></lut2>
						</colorinfo>
						<labels>
							<label2>Iris</label2>
						</labels>
					</clipitem>
					<clipitem id="clipitem-509" premiereChannelType="stereo">
						<masterclipid>masterclip-29</masterclipid>
						<name>A006_06192216_C221.mp4</name>
						<enabled>TRUE</enabled>
						<duration>557</duration>
						<rate>
							<timebase>24</timebase>
							<ntsc>FALSE</ntsc>
						</rate>
						<start>6597</start>
						<end>6647</end>
						<in>287</in>
						<out>337</out>
						<pproTicksIn>3037608000000</pproTicksIn>
						<pproTicksOut>3566808000000</pproTicksOut>
						<file id="file-29"/>
						<sourcetrack>
							<mediatype>audio</mediatype>
							<trackindex>1</trackindex>
						</sourcetrack>
						<link>
							<linkclipref>clipitem-70</linkclipref>
							<mediatype>video</mediatype>
							<trackindex>1</trackindex>
							<clipindex>72</clipindex>
						</link>
						<link>
							<linkclipref>clipitem-509</linkclipref>
							<mediatype>audio</mediatype>
							<trackindex>1</trackindex>
							<clipindex>33</clipindex>
							<groupindex>1</groupindex>
						</link>
						<link>
							<linkclipref>clipitem-673</linkclipref>
							<mediatype>audio</mediatype>
							<trackindex>2</trackindex>
							<clipindex>33</clipindex>
							<groupindex>1</groupindex>
						</link>
						<logginginfo>
							<description></description>
							<scene></scene>
							<shottake></shottake>
							<lognote></lognote>
							<good></good>
							<originalvideofilename></originalvideofilename>
							<originalaudiofilename></originalaudiofilename>
						</logginginfo>
						<colorinfo>
							<lut></lut>
							<lut1></lut1>
							<asc_sop></asc_sop>
							<asc_sat></asc_sat>
							<lut2></lut2>
						</colorinfo>
						<labels>
							<label2>Iris</label2>
						</labels>
					</clipitem>
					<clipitem id="clipitem-510" premiereChannelType="stereo">
						<masterclipid>masterclip-30</masterclipid>
						<name>A002_05290123_C138.mp4</name>
						<enabled>TRUE</enabled>
						<duration>364</duration>
						<rate>
							<timebase>24</timebase>
							<ntsc>FALSE</ntsc>
						</rate>
						<start>6647</start>
						<end>6942</end>
						<in>42</in>
						<out>337</out>
						<pproTicksIn>444528000000</pproTicksIn>
						<pproTicksOut>3566808000000</pproTicksOut>
						<file id="file-30"/>
						<sourcetrack>
							<mediatype>audio</mediatype>
							<trackindex>1</trackindex>
						</sourcetrack>
						<link>
							<linkclipref>clipitem-71</linkclipref>
							<mediatype>video</mediatype>
							<trackindex>1</trackindex>
							<clipindex>73</clipindex>
						</link>
						<link>
							<linkclipref>clipitem-510</linkclipref>
							<mediatype>audio</mediatype>
							<trackindex>1</trackindex>
							<clipindex>34</clipindex>
							<groupindex>1</groupindex>
						</link>
						<link>
							<linkclipref>clipitem-674</linkclipref>
							<mediatype>audio</mediatype>
							<trackindex>2</trackindex>
							<clipindex>34</clipindex>
							<groupindex>1</groupindex>
						</link>
						<logginginfo>
							<description></description>
							<scene></scene>
							<shottake></shottake>
							<lognote></lognote>
							<good></good>
							<originalvideofilename></originalvideofilename>
							<originalaudiofilename></originalaudiofilename>
						</logginginfo>
						<colorinfo>
							<lut></lut>
							<lut1></lut1>
							<asc_sop></asc_sop>
							<asc_sat></asc_sat>
							<lut2></lut2>
						</colorinfo>
						<labels>
							<label2>Iris</label2>
						</labels>
					</clipitem>
					<clipitem id="clipitem-511" premiereChannelType="stereo">
						<masterclipid>masterclip-31</masterclipid>
						<name>A006_06192217_C223.mp4</name>
						<enabled>TRUE</enabled>
						<duration>180</duration>
						<rate>
							<timebase>24</timebase>
							<ntsc>FALSE</ntsc>
						</rate>
						<start>6942</start>
						<end>6977</end>
						<in>56</in>
						<out>91</out>
						<pproTicksIn>592704000000</pproTicksIn>
						<pproTicksOut>963144000000</pproTicksOut>
						<file id="file-31"/>
						<sourcetrack>
							<mediatype>audio</mediatype>
							<trackindex>1</trackindex>
						</sourcetrack>
						<link>
							<linkclipref>clipitem-72</linkclipref>
							<mediatype>video</mediatype>
							<trackindex>1</trackindex>
							<clipindex>74</clipindex>
						</link>
						<link>
							<linkclipref>clipitem-511</linkclipref>
							<mediatype>audio</mediatype>
							<trackindex>1</trackindex>
							<clipindex>35</clipindex>
							<groupindex>1</groupindex>
						</link>
						<link>
							<linkclipref>clipitem-675</linkclipref>
							<mediatype>audio</mediatype>
							<trackindex>2</trackindex>
							<clipindex>35</clipindex>
							<groupindex>1</groupindex>
						</link>
						<logginginfo>
							<description></description>
							<scene></scene>
							<shottake></shottake>
							<lognote></lognote>
							<good></good>
							<originalvideofilename></originalvideofilename>
							<originalaudiofilename></originalaudiofilename>
						</logginginfo>
						<colorinfo>
							<lut></lut>
							<lut1></lut1>
							<asc_sop></asc_sop>
							<asc_sat></asc_sat>
							<lut2></lut2>
						</colorinfo>
						<labels>
							<label2>Iris</label2>
						</labels>
					</clipitem>
					<clipitem id="clipitem-512" premiereChannelType="stereo">
						<masterclipid>masterclip-36</masterclipid>
						<name>A002_05290147_C148.mp4</name>
						<enabled>TRUE</enabled>
						<duration>502</duration>
						<rate>
							<timebase>24</timebase>
							<ntsc>FALSE</ntsc>
						</rate>
						<start>7301</start>
						<end>7307</end>
						<in>42</in>
						<out>48</out>
						<pproTicksIn>444528000000</pproTicksIn>
						<pproTicksOut>508032000000</pproTicksOut>
						<file id="file-36"/>
						<sourcetrack>
							<mediatype>audio</mediatype>
							<trackindex>1</trackindex>
						</sourcetrack>
						<link>
							<linkclipref>clipitem-79</linkclipref>
							<mediatype>video</mediatype>
							<trackindex>1</trackindex>
							<clipindex>81</clipindex>
						</link>
						<link>
							<linkclipref>clipitem-512</linkclipref>
							<mediatype>audio</mediatype>
							<trackindex>1</trackindex>
							<clipindex>36</clipindex>
							<groupindex>1</groupindex>
						</link>
						<link>
							<linkclipref>clipitem-676</linkclipref>
							<mediatype>audio</mediatype>
							<trackindex>2</trackindex>
							<clipindex>36</clipindex>
							<groupindex>1</groupindex>
						</link>
						<logginginfo>
							<description></description>
							<scene></scene>
							<shottake></shottake>
							<lognote></lognote>
							<good></good>
							<originalvideofilename></originalvideofilename>
							<originalaudiofilename></originalaudiofilename>
						</logginginfo>
						<colorinfo>
							<lut></lut>
							<lut1></lut1>
							<asc_sop></asc_sop>
							<asc_sat></asc_sat>
							<lut2></lut2>
						</colorinfo>
						<labels>
							<label2>Iris</label2>
						</labels>
					</clipitem>
					<clipitem id="clipitem-513" premiereChannelType="stereo">
						<masterclipid>masterclip-36</masterclipid>
						<name>A002_05290147_C148.mp4</name>
						<enabled>TRUE</enabled>
						<duration>502</duration>
						<rate>
							<timebase>24</timebase>
							<ntsc>FALSE</ntsc>
						</rate>
						<start>7307</start>
						<end>7419</end>
						<in>125</in>
						<out>237</out>
						<pproTicksIn>1323000000000</pproTicksIn>
						<pproTicksOut>2508408000000</pproTicksOut>
						<file id="file-36"/>
						<sourcetrack>
							<mediatype>audio</mediatype>
							<trackindex>1</trackindex>
						</sourcetrack>
						<link>
							<linkclipref>clipitem-80</linkclipref>
							<mediatype>video</mediatype>
							<trackindex>1</trackindex>
							<clipindex>82</clipindex>
						</link>
						<link>
							<linkclipref>clipitem-513</linkclipref>
							<mediatype>audio</mediatype>
							<trackindex>1</trackindex>
							<clipindex>37</clipindex>
							<groupindex>1</groupindex>
						</link>
						<link>
							<linkclipref>clipitem-677</linkclipref>
							<mediatype>audio</mediatype>
							<trackindex>2</trackindex>
							<clipindex>37</clipindex>
							<groupindex>1</groupindex>
						</link>
						<logginginfo>
							<description></description>
							<scene></scene>
							<shottake></shottake>
							<lognote></lognote>
							<good></good>
							<originalvideofilename></originalvideofilename>
							<originalaudiofilename></originalaudiofilename>
						</logginginfo>
						<colorinfo>
							<lut></lut>
							<lut1></lut1>
							<asc_sop></asc_sop>
							<asc_sat></asc_sat>
							<lut2></lut2>
						</colorinfo>
						<labels>
							<label2>Iris</label2>
						</labels>
					</clipitem>
					<clipitem id="clipitem-514" premiereChannelType="stereo">
						<masterclipid>masterclip-36</masterclipid>
						<name>A002_05290147_C148.mp4</name>
						<enabled>TRUE</enabled>
						<duration>502</duration>
						<rate>
							<timebase>24</timebase>
							<ntsc>FALSE</ntsc>
						</rate>
						<start>7419</start>
						<end>7545</end>
						<in>340</in>
						<out>466</out>
						<pproTicksIn>3598560000000</pproTicksIn>
						<pproTicksOut>4932144000000</pproTicksOut>
						<file id="file-36"/>
						<sourcetrack>
							<mediatype>audio</mediatype>
							<trackindex>1</trackindex>
						</sourcetrack>
						<link>
							<linkclipref>clipitem-81</linkclipref>
							<mediatype>video</mediatype>
							<trackindex>1</trackindex>
							<clipindex>83</clipindex>
						</link>
						<link>
							<linkclipref>clipitem-514</linkclipref>
							<mediatype>audio</mediatype>
							<trackindex>1</trackindex>
							<clipindex>38</clipindex>
							<groupindex>1</groupindex>
						</link>
						<link>
							<linkclipref>clipitem-678</linkclipref>
							<mediatype>audio</mediatype>
							<trackindex>2</trackindex>
							<clipindex>38</clipindex>
							<groupindex>1</groupindex>
						</link>
						<logginginfo>
							<description></description>
							<scene></scene>
							<shottake></shottake>
							<lognote></lognote>
							<good></good>
							<originalvideofilename></originalvideofilename>
							<originalaudiofilename></originalaudiofilename>
						</logginginfo>
						<colorinfo>
							<lut></lut>
							<lut1></lut1>
							<asc_sop></asc_sop>
							<asc_sat></asc_sat>
							<lut2></lut2>
						</colorinfo>
						<labels>
							<label2>Iris</label2>
						</labels>
					</clipitem>
					<clipitem id="clipitem-515" premiereChannelType="stereo">
						<masterclipid>masterclip-37</masterclipid>
						<name>A006_06192218_C226.mp4</name>
						<enabled>TRUE</enabled>
						<duration>234</duration>
						<rate>
							<timebase>24</timebase>
							<ntsc>FALSE</ntsc>
						</rate>
						<start>7545</start>
						<end>7629</end>
						<in>58</in>
						<out>142</out>
						<pproTicksIn>613872000000</pproTicksIn>
						<pproTicksOut>1502928000000</pproTicksOut>
						<file id="file-37"/>
						<sourcetrack>
							<mediatype>audio</mediatype>
							<trackindex>1</trackindex>
						</sourcetrack>
						<link>
							<linkclipref>clipitem-82</linkclipref>
							<mediatype>video</mediatype>
							<trackindex>1</trackindex>
							<clipindex>84</clipindex>
						</link>
						<link>
							<linkclipref>clipitem-515</linkclipref>
							<mediatype>audio</mediatype>
							<trackindex>1</trackindex>
							<clipindex>39</clipindex>
							<groupindex>1</groupindex>
						</link>
						<link>
							<linkclipref>clipitem-679</linkclipref>
							<mediatype>audio</mediatype>
							<trackindex>2</trackindex>
							<clipindex>39</clipindex>
							<groupindex>1</groupindex>
						</link>
						<logginginfo>
							<description></description>
							<scene></scene>
							<shottake></shottake>
							<lognote></lognote>
							<good></good>
							<originalvideofilename></originalvideofilename>
							<originalaudiofilename></originalaudiofilename>
						</logginginfo>
						<colorinfo>
							<lut></lut>
							<lut1></lut1>
							<asc_sop></asc_sop>
							<asc_sat></asc_sat>
							<lut2></lut2>
						</colorinfo>
						<labels>
							<label2>Iris</label2>
						</labels>
					</clipitem>
					<clipitem id="clipitem-516" premiereChannelType="stereo">
						<masterclipid>masterclip-38</masterclipid>
						<name>A002_05290628_C208.mp4</name>
						<enabled>TRUE</enabled>
						<duration>357</duration>
						<rate>
							<timebase>24</timebase>
							<ntsc>FALSE</ntsc>
						</rate>
						<start>7629</start>
						<end>7910</end>
						<in>45</in>
						<out>326</out>
						<pproTicksIn>476280000000</pproTicksIn>
						<pproTicksOut>3450384000000</pproTicksOut>
						<file id="file-38"/>
						<sourcetrack>
							<mediatype>audio</mediatype>
							<trackindex>1</trackindex>
						</sourcetrack>
						<link>
							<linkclipref>clipitem-83</linkclipref>
							<mediatype>video</mediatype>
							<trackindex>1</trackindex>
							<clipindex>85</clipindex>
						</link>
						<link>
							<linkclipref>clipitem-516</linkclipref>
							<mediatype>audio</mediatype>
							<trackindex>1</trackindex>
							<clipindex>40</clipindex>
							<groupindex>1</groupindex>
						</link>
						<link>
							<linkclipref>clipitem-680</linkclipref>
							<mediatype>audio</mediatype>
							<trackindex>2</trackindex>
							<clipindex>40</clipindex>
							<groupindex>1</groupindex>
						</link>
						<logginginfo>
							<description></description>
							<scene></scene>
							<shottake></shottake>
							<lognote></lognote>
							<good></good>
							<originalvideofilename></originalvideofilename>
							<originalaudiofilename></originalaudiofilename>
						</logginginfo>
						<colorinfo>
							<lut></lut>
							<lut1></lut1>
							<asc_sop></asc_sop>
							<asc_sat></asc_sat>
							<lut2></lut2>
						</colorinfo>
						<labels>
							<label2>Iris</label2>
						</labels>
					</clipitem>
					<clipitem id="clipitem-517" premiereChannelType="stereo">
						<masterclipid>masterclip-39</masterclipid>
						<name>A002_05290604_C206.mp4</name>
						<enabled>TRUE</enabled>
						<duration>286</duration>
						<rate>
							<timebase>24</timebase>
							<ntsc>FALSE</ntsc>
						</rate>
						<start>7910</start>
						<end>8115</end>
						<in>52</in>
						<out>257</out>
						<pproTicksIn>550368000000</pproTicksIn>
						<pproTicksOut>2720088000000</pproTicksOut>
						<file id="file-39"/>
						<sourcetrack>
							<mediatype>audio</mediatype>
							<trackindex>1</trackindex>
						</sourcetrack>
						<link>
							<linkclipref>clipitem-84</linkclipref>
							<mediatype>video</mediatype>
							<trackindex>1</trackindex>
							<clipindex>86</clipindex>
						</link>
						<link>
							<linkclipref>clipitem-517</linkclipref>
							<mediatype>audio</mediatype>
							<trackindex>1</trackindex>
							<clipindex>41</clipindex>
							<groupindex>1</groupindex>
						</link>
						<link>
							<linkclipref>clipitem-681</linkclipref>
							<mediatype>audio</mediatype>
							<trackindex>2</trackindex>
							<clipindex>41</clipindex>
							<groupindex>1</groupindex>
						</link>
						<logginginfo>
							<description></description>
							<scene></scene>
							<shottake></shottake>
							<lognote></lognote>
							<good></good>
							<originalvideofilename></originalvideofilename>
							<originalaudiofilename></originalaudiofilename>
						</logginginfo>
						<colorinfo>
							<lut></lut>
							<lut1></lut1>
							<asc_sop></asc_sop>
							<asc_sat></asc_sat>
							<lut2></lut2>
						</colorinfo>
						<labels>
							<label2>Iris</label2>
						</labels>
					</clipitem>
					<clipitem id="clipitem-518" premiereChannelType="stereo">
						<masterclipid>masterclip-40</masterclipid>
						<name>A002_05290643_C214.mp4</name>
						<enabled>TRUE</enabled>
						<duration>291</duration>
						<rate>
							<timebase>24</timebase>
							<ntsc>FALSE</ntsc>
						</rate>
						<start>8115</start>
						<end>8324</end>
						<in>53</in>
						<out>262</out>
						<pproTicksIn>560952000000</pproTicksIn>
						<pproTicksOut>2773008000000</pproTicksOut>
						<file id="file-40"/>
						<sourcetrack>
							<mediatype>audio</mediatype>
							<trackindex>1</trackindex>
						</sourcetrack>
						<link>
							<linkclipref>clipitem-85</linkclipref>
							<mediatype>video</mediatype>
							<trackindex>1</trackindex>
							<clipindex>87</clipindex>
						</link>
						<link>
							<linkclipref>clipitem-518</linkclipref>
							<mediatype>audio</mediatype>
							<trackindex>1</trackindex>
							<clipindex>42</clipindex>
							<groupindex>1</groupindex>
						</link>
						<link>
							<linkclipref>clipitem-682</linkclipref>
							<mediatype>audio</mediatype>
							<trackindex>2</trackindex>
							<clipindex>42</clipindex>
							<groupindex>1</groupindex>
						</link>
						<logginginfo>
							<description></description>
							<scene></scene>
							<shottake></shottake>
							<lognote></lognote>
							<good></good>
							<originalvideofilename></originalvideofilename>
							<originalaudiofilename></originalaudiofilename>
						</logginginfo>
						<colorinfo>
							<lut></lut>
							<lut1></lut1>
							<asc_sop></asc_sop>
							<asc_sat></asc_sat>
							<lut2></lut2>
						</colorinfo>
						<labels>
							<label2>Iris</label2>
						</labels>
					</clipitem>
					<clipitem id="clipitem-519" premiereChannelType="stereo">
						<masterclipid>masterclip-227</masterclipid>
						<name>A006_06192218_C227.mp4</name>
						<enabled>TRUE</enabled>
						<duration>148</duration>
						<rate>
							<timebase>24</timebase>
							<ntsc>FALSE</ntsc>
						</rate>
						<start>8355</start>
						<end>8405</end>
						<in>18</in>
						<out>68</out>
						<pproTicksIn>190512000000</pproTicksIn>
						<pproTicksOut>719712000000</pproTicksOut>
						<pixelaspectratio>square</pixelaspectratio>
						<anamorphic>FALSE</anamorphic>
						<file id="file-227">
							<name>A006_06192218_C227.mp4</name>
							<pathurl>file://localhost/F%3a/bengaluru%20scenes/scene%2037B%20INT%20of%2039/A006_06192218_C227.mp4</pathurl>
							<rate>
								<timebase>24</timebase>
								<ntsc>FALSE</ntsc>
							</rate>
							<duration>148</duration>
							<timecode>
								<rate>
									<timebase>24</timebase>
									<ntsc>FALSE</ntsc>
								</rate>
								<string>22:18:53:16</string>
								<frame>1928008</frame>
								<displayformat>NDF</displayformat>
							</timecode>
							<media>
								<video>
									<samplecharacteristics>
										<rate>
											<timebase>24</timebase>
											<ntsc>FALSE</ntsc>
										</rate>
										<width>1920</width>
										<height>1080</height>
										<anamorphic>FALSE</anamorphic>
										<pixelaspectratio>square</pixelaspectratio>
										<fielddominance>none</fielddominance>
									</samplecharacteristics>
								</video>
								<audio>
									<samplecharacteristics>
										<depth>16</depth>
										<samplerate>48000</samplerate>
									</samplecharacteristics>
									<channelcount>2</channelcount>
								</audio>
							</media>
						</file>
						<sourcetrack>
							<mediatype>audio</mediatype>
							<trackindex>1</trackindex>
						</sourcetrack>
						<filter>
							<effect>
								<name>Audio Levels</name>
								<effectid>audiolevels</effectid>
								<effectcategory>audiolevels</effectcategory>
								<effecttype>audiolevels</effecttype>
								<mediatype>audio</mediatype>
								<pproBypass>false</pproBypass>
								<parameter authoringApp="PremierePro">
									<parameterid>level</parameterid>
									<name>Level</name>
									<valuemin>0</valuemin>
									<valuemax>3.98109</valuemax>
									<value>3.98109</value>
								</parameter>
							</effect>
						</filter>
						<link>
							<linkclipref>clipitem-519</linkclipref>
							<mediatype>audio</mediatype>
							<trackindex>1</trackindex>
							<clipindex>43</clipindex>
							<groupindex>1</groupindex>
						</link>
						<link>
							<linkclipref>clipitem-683</linkclipref>
							<mediatype>audio</mediatype>
							<trackindex>2</trackindex>
							<clipindex>43</clipindex>
							<groupindex>1</groupindex>
						</link>
						<logginginfo>
							<description></description>
							<scene></scene>
							<shottake></shottake>
							<lognote></lognote>
							<good></good>
							<originalvideofilename></originalvideofilename>
							<originalaudiofilename></originalaudiofilename>
						</logginginfo>
						<colorinfo>
							<lut></lut>
							<lut1></lut1>
							<asc_sop></asc_sop>
							<asc_sat></asc_sat>
							<lut2></lut2>
						</colorinfo>
						<labels>
							<label2>Iris</label2>
						</labels>
					</clipitem>
					<clipitem id="clipitem-520" premiereChannelType="stereo">
						<masterclipid>masterclip-42</masterclipid>
						<name>A002_05290241_C167.mp4</name>
						<enabled>TRUE</enabled>
						<duration>749</duration>
						<rate>
							<timebase>24</timebase>
							<ntsc>FALSE</ntsc>
						</rate>
						<start>8405</start>
						<end>9012</end>
						<in>96</in>
						<out>703</out>
						<pproTicksIn>1016064000000</pproTicksIn>
						<pproTicksOut>7440552000000</pproTicksOut>
						<file id="file-42"/>
						<sourcetrack>
							<mediatype>audio</mediatype>
							<trackindex>1</trackindex>
						</sourcetrack>
						<link>
							<linkclipref>clipitem-87</linkclipref>
							<mediatype>video</mediatype>
							<trackindex>1</trackindex>
							<clipindex>89</clipindex>
						</link>
						<link>
							<linkclipref>clipitem-520</linkclipref>
							<mediatype>audio</mediatype>
							<trackindex>1</trackindex>
							<clipindex>44</clipindex>
							<groupindex>1</groupindex>
						</link>
						<link>
							<linkclipref>clipitem-684</linkclipref>
							<mediatype>audio</mediatype>
							<trackindex>2</trackindex>
							<clipindex>44</clipindex>
							<groupindex>1</groupindex>
						</link>
						<logginginfo>
							<description></description>
							<scene></scene>
							<shottake></shottake>
							<lognote></lognote>
							<good></good>
							<originalvideofilename></originalvideofilename>
							<originalaudiofilename></originalaudiofilename>
						</logginginfo>
						<colorinfo>
							<lut></lut>
							<lut1></lut1>
							<asc_sop></asc_sop>
							<asc_sat></asc_sat>
							<lut2></lut2>
						</colorinfo>
						<labels>
							<label2>Iris</label2>
						</labels>
					</clipitem>
					<clipitem id="clipitem-521" premiereChannelType="stereo">
						<masterclipid>masterclip-43</masterclipid>
						<name>A002_05290803_C231.mp4</name>
						<enabled>TRUE</enabled>
						<duration>388</duration>
						<rate>
							<timebase>24</timebase>
							<ntsc>FALSE</ntsc>
						</rate>
						<start>9012</start>
						<end>9304</end>
						<in>67</in>
						<out>359</out>
						<pproTicksIn>709128000000</pproTicksIn>
						<pproTicksOut>3799656000000</pproTicksOut>
						<file id="file-43"/>
						<sourcetrack>
							<mediatype>audio</mediatype>
							<trackindex>1</trackindex>
						</sourcetrack>
						<link>
							<linkclipref>clipitem-88</linkclipref>
							<mediatype>video</mediatype>
							<trackindex>1</trackindex>
							<clipindex>90</clipindex>
						</link>
						<link>
							<linkclipref>clipitem-521</linkclipref>
							<mediatype>audio</mediatype>
							<trackindex>1</trackindex>
							<clipindex>45</clipindex>
							<groupindex>1</groupindex>
						</link>
						<link>
							<linkclipref>clipitem-685</linkclipref>
							<mediatype>audio</mediatype>
							<trackindex>2</trackindex>
							<clipindex>45</clipindex>
							<groupindex>1</groupindex>
						</link>
						<logginginfo>
							<description></description>
							<scene></scene>
							<shottake></shottake>
							<lognote></lognote>
							<good></good>
							<originalvideofilename></originalvideofilename>
							<originalaudiofilename></originalaudiofilename>
						</logginginfo>
						<colorinfo>
							<lut></lut>
							<lut1></lut1>
							<asc_sop></asc_sop>
							<asc_sat></asc_sat>
							<lut2></lut2>
						</colorinfo>
						<labels>
							<label2>Iris</label2>
						</labels>
					</clipitem>
					<clipitem id="clipitem-522" premiereChannelType="stereo">
						<masterclipid>masterclip-44</masterclipid>
						<name>A006_06192219_C228.mp4</name>
						<enabled>TRUE</enabled>
						<duration>674</duration>
						<rate>
							<timebase>24</timebase>
							<ntsc>FALSE</ntsc>
						</rate>
						<start>9304</start>
						<end>9430</end>
						<in>344</in>
						<out>470</out>
						<pproTicksIn>3640896000000</pproTicksIn>
						<pproTicksOut>4974480000000</pproTicksOut>
						<file id="file-44"/>
						<sourcetrack>
							<mediatype>audio</mediatype>
							<trackindex>1</trackindex>
						</sourcetrack>
						<link>
							<linkclipref>clipitem-89</linkclipref>
							<mediatype>video</mediatype>
							<trackindex>1</trackindex>
							<clipindex>91</clipindex>
						</link>
						<link>
							<linkclipref>clipitem-522</linkclipref>
							<mediatype>audio</mediatype>
							<trackindex>1</trackindex>
							<clipindex>46</clipindex>
							<groupindex>1</groupindex>
						</link>
						<link>
							<linkclipref>clipitem-686</linkclipref>
							<mediatype>audio</mediatype>
							<trackindex>2</trackindex>
							<clipindex>46</clipindex>
							<groupindex>1</groupindex>
						</link>
						<logginginfo>
							<description></description>
							<scene></scene>
							<shottake></shottake>
							<lognote></lognote>
							<good></good>
							<originalvideofilename></originalvideofilename>
							<originalaudiofilename></originalaudiofilename>
						</logginginfo>
						<colorinfo>
							<lut></lut>
							<lut1></lut1>
							<asc_sop></asc_sop>
							<asc_sat></asc_sat>
							<lut2></lut2>
						</colorinfo>
						<labels>
							<label2>Iris</label2>
						</labels>
					</clipitem>
					<clipitem id="clipitem-523" premiereChannelType="stereo">
						<masterclipid>masterclip-45</masterclipid>
						<name>A002_05290216_C161.mp4</name>
						<enabled>TRUE</enabled>
						<duration>349</duration>
						<rate>
							<timebase>24</timebase>
							<ntsc>FALSE</ntsc>
						</rate>
						<start>9430</start>
						<end>9708</end>
						<in>36</in>
						<out>314</out>
						<pproTicksIn>381024000000</pproTicksIn>
						<pproTicksOut>3323376000000</pproTicksOut>
						<file id="file-45"/>
						<sourcetrack>
							<mediatype>audio</mediatype>
							<trackindex>1</trackindex>
						</sourcetrack>
						<link>
							<linkclipref>clipitem-90</linkclipref>
							<mediatype>video</mediatype>
							<trackindex>1</trackindex>
							<clipindex>92</clipindex>
						</link>
						<link>
							<linkclipref>clipitem-523</linkclipref>
							<mediatype>audio</mediatype>
							<trackindex>1</trackindex>
							<clipindex>47</clipindex>
							<groupindex>1</groupindex>
						</link>
						<link>
							<linkclipref>clipitem-687</linkclipref>
							<mediatype>audio</mediatype>
							<trackindex>2</trackindex>
							<clipindex>47</clipindex>
							<groupindex>1</groupindex>
						</link>
						<logginginfo>
							<description></description>
							<scene></scene>
							<shottake></shottake>
							<lognote></lognote>
							<good></good>
							<originalvideofilename></originalvideofilename>
							<originalaudiofilename></originalaudiofilename>
						</logginginfo>
						<colorinfo>
							<lut></lut>
							<lut1></lut1>
							<asc_sop></asc_sop>
							<asc_sat></asc_sat>
							<lut2></lut2>
						</colorinfo>
						<labels>
							<label2>Iris</label2>
						</labels>
					</clipitem>
					<clipitem id="clipitem-524" premiereChannelType="stereo">
						<masterclipid>masterclip-46</masterclipid>
						<name>A002_05290158_C153.mp4</name>
						<enabled>TRUE</enabled>
						<duration>291</duration>
						<rate>
							<timebase>24</timebase>
							<ntsc>FALSE</ntsc>
						</rate>
						<start>9708</start>
						<end>9909</end>
						<in>58</in>
						<out>259</out>
						<pproTicksIn>613872000000</pproTicksIn>
						<pproTicksOut>2741256000000</pproTicksOut>
						<file id="file-46"/>
						<sourcetrack>
							<mediatype>audio</mediatype>
							<trackindex>1</trackindex>
						</sourcetrack>
						<link>
							<linkclipref>clipitem-91</linkclipref>
							<mediatype>video</mediatype>
							<trackindex>1</trackindex>
							<clipindex>93</clipindex>
						</link>
						<link>
							<linkclipref>clipitem-524</linkclipref>
							<mediatype>audio</mediatype>
							<trackindex>1</trackindex>
							<clipindex>48</clipindex>
							<groupindex>1</groupindex>
						</link>
						<link>
							<linkclipref>clipitem-688</linkclipref>
							<mediatype>audio</mediatype>
							<trackindex>2</trackindex>
							<clipindex>48</clipindex>
							<groupindex>1</groupindex>
						</link>
						<logginginfo>
							<description></description>
							<scene></scene>
							<shottake></shottake>
							<lognote></lognote>
							<good></good>
							<originalvideofilename></originalvideofilename>
							<originalaudiofilename></originalaudiofilename>
						</logginginfo>
						<colorinfo>
							<lut></lut>
							<lut1></lut1>
							<asc_sop></asc_sop>
							<asc_sat></asc_sat>
							<lut2></lut2>
						</colorinfo>
						<labels>
							<label2>Iris</label2>
						</labels>
					</clipitem>
					<clipitem id="clipitem-525" premiereChannelType="stereo">
						<masterclipid>masterclip-47</masterclipid>
						<name>A006_06192206_C216.mp4</name>
						<enabled>TRUE</enabled>
						<duration>435</duration>
						<rate>
							<timebase>24</timebase>
							<ntsc>FALSE</ntsc>
						</rate>
						<start>9909</start>
						<end>9974</end>
						<in>133</in>
						<out>198</out>
						<pproTicksIn>1407672000000</pproTicksIn>
						<pproTicksOut>2095632000000</pproTicksOut>
						<file id="file-47"/>
						<sourcetrack>
							<mediatype>audio</mediatype>
							<trackindex>1</trackindex>
						</sourcetrack>
						<link>
							<linkclipref>clipitem-92</linkclipref>
							<mediatype>video</mediatype>
							<trackindex>1</trackindex>
							<clipindex>94</clipindex>
						</link>
						<link>
							<linkclipref>clipitem-525</linkclipref>
							<mediatype>audio</mediatype>
							<trackindex>1</trackindex>
							<clipindex>49</clipindex>
							<groupindex>1</groupindex>
						</link>
						<link>
							<linkclipref>clipitem-689</linkclipref>
							<mediatype>audio</mediatype>
							<trackindex>2</trackindex>
							<clipindex>49</clipindex>
							<groupindex>1</groupindex>
						</link>
						<logginginfo>
							<description></description>
							<scene></scene>
							<shottake></shottake>
							<lognote></lognote>
							<good></good>
							<originalvideofilename></originalvideofilename>
							<originalaudiofilename></originalaudiofilename>
						</logginginfo>
						<colorinfo>
							<lut></lut>
							<lut1></lut1>
							<asc_sop></asc_sop>
							<asc_sat></asc_sat>
							<lut2></lut2>
						</colorinfo>
						<labels>
							<label2>Iris</label2>
						</labels>
					</clipitem>
					<clipitem id="clipitem-526" premiereChannelType="stereo">
						<masterclipid>masterclip-48</masterclipid>
						<name>A002_05290539_C200.mp4</name>
						<enabled>TRUE</enabled>
						<duration>292</duration>
						<rate>
							<timebase>24</timebase>
							<ntsc>FALSE</ntsc>
						</rate>
						<start>9974</start>
						<end>10192</end>
						<in>50</in>
						<out>268</out>
						<pproTicksIn>529200000000</pproTicksIn>
						<pproTicksOut>2836512000000</pproTicksOut>
						<file id="file-48"/>
						<sourcetrack>
							<mediatype>audio</mediatype>
							<trackindex>1</trackindex>
						</sourcetrack>
						<link>
							<linkclipref>clipitem-93</linkclipref>
							<mediatype>video</mediatype>
							<trackindex>1</trackindex>
							<clipindex>95</clipindex>
						</link>
						<link>
							<linkclipref>clipitem-526</linkclipref>
							<mediatype>audio</mediatype>
							<trackindex>1</trackindex>
							<clipindex>50</clipindex>
							<groupindex>1</groupindex>
						</link>
						<link>
							<linkclipref>clipitem-690</linkclipref>
							<mediatype>audio</mediatype>
							<trackindex>2</trackindex>
							<clipindex>50</clipindex>
							<groupindex>1</groupindex>
						</link>
						<logginginfo>
							<description></description>
							<scene></scene>
							<shottake></shottake>
							<lognote></lognote>
							<good></good>
							<originalvideofilename></originalvideofilename>
							<originalaudiofilename></originalaudiofilename>
						</logginginfo>
						<colorinfo>
							<lut></lut>
							<lut1></lut1>
							<asc_sop></asc_sop>
							<asc_sat></asc_sat>
							<lut2></lut2>
						</colorinfo>
						<labels>
							<label2>Iris</label2>
						</labels>
					</clipitem>
					<clipitem id="clipitem-527" premiereChannelType="stereo">
						<masterclipid>masterclip-49</masterclipid>
						<name>A002_05290708_C223.mp4</name>
						<enabled>TRUE</enabled>
						<duration>405</duration>
						<rate>
							<timebase>24</timebase>
							<ntsc>FALSE</ntsc>
						</rate>
						<start>10192</start>
						<end>10503</end>
						<in>67</in>
						<out>378</out>
						<pproTicksIn>709128000000</pproTicksIn>
						<pproTicksOut>4000752000000</pproTicksOut>
						<file id="file-49"/>
						<sourcetrack>
							<mediatype>audio</mediatype>
							<trackindex>1</trackindex>
						</sourcetrack>
						<link>
							<linkclipref>clipitem-94</linkclipref>
							<mediatype>video</mediatype>
							<trackindex>1</trackindex>
							<clipindex>96</clipindex>
						</link>
						<link>
							<linkclipref>clipitem-527</linkclipref>
							<mediatype>audio</mediatype>
							<trackindex>1</trackindex>
							<clipindex>51</clipindex>
							<groupindex>1</groupindex>
						</link>
						<link>
							<linkclipref>clipitem-691</linkclipref>
							<mediatype>audio</mediatype>
							<trackindex>2</trackindex>
							<clipindex>51</clipindex>
							<groupindex>1</groupindex>
						</link>
						<logginginfo>
							<description></description>
							<scene></scene>
							<shottake></shottake>
							<lognote></lognote>
							<good></good>
							<originalvideofilename></originalvideofilename>
							<originalaudiofilename></originalaudiofilename>
						</logginginfo>
						<colorinfo>
							<lut></lut>
							<lut1></lut1>
							<asc_sop></asc_sop>
							<asc_sat></asc_sat>
							<lut2></lut2>
						</colorinfo>
						<labels>
							<label2>Iris</label2>
						</labels>
					</clipitem>
					<clipitem id="clipitem-528" premiereChannelType="stereo">
						<masterclipid>masterclip-50</masterclipid>
						<name>A006_06192207_C217.mp4</name>
						<enabled>TRUE</enabled>
						<duration>849</duration>
						<rate>
							<timebase>24</timebase>
							<ntsc>FALSE</ntsc>
						</rate>
						<start>10503</start>
						<end>10607</end>
						<in>621</in>
						<out>725</out>
						<pproTicksIn>6572664000000</pproTicksIn>
						<pproTicksOut>7673400000000</pproTicksOut>
						<file id="file-50"/>
						<sourcetrack>
							<mediatype>audio</mediatype>
							<trackindex>1</trackindex>
						</sourcetrack>
						<link>
							<linkclipref>clipitem-95</linkclipref>
							<mediatype>video</mediatype>
							<trackindex>1</trackindex>
							<clipindex>97</clipindex>
						</link>
						<link>
							<linkclipref>clipitem-528</linkclipref>
							<mediatype>audio</mediatype>
							<trackindex>1</trackindex>
							<clipindex>52</clipindex>
							<groupindex>1</groupindex>
						</link>
						<link>
							<linkclipref>clipitem-692</linkclipref>
							<mediatype>audio</mediatype>
							<trackindex>2</trackindex>
							<clipindex>52</clipindex>
							<groupindex>1</groupindex>
						</link>
						<logginginfo>
							<description></description>
							<scene></scene>
							<shottake></shottake>
							<lognote></lognote>
							<good></good>
							<originalvideofilename></originalvideofilename>
							<originalaudiofilename></originalaudiofilename>
						</logginginfo>
						<colorinfo>
							<lut></lut>
							<lut1></lut1>
							<asc_sop></asc_sop>
							<asc_sat></asc_sat>
							<lut2></lut2>
						</colorinfo>
						<labels>
							<label2>Iris</label2>
						</labels>
					</clipitem>
					<clipitem id="clipitem-529" premiereChannelType="stereo">
						<masterclipid>masterclip-51</masterclipid>
						<name>A002_05290306_C180.mp4</name>
						<enabled>TRUE</enabled>
						<duration>733</duration>
						<rate>
							<timebase>24</timebase>
							<ntsc>FALSE</ntsc>
						</rate>
						<start>10607</start>
						<end>11072</end>
						<in>61</in>
						<out>526</out>
						<pproTicksIn>645624000000</pproTicksIn>
						<pproTicksOut>5567184000000</pproTicksOut>
						<file id="file-51"/>
						<sourcetrack>
							<mediatype>audio</mediatype>
							<trackindex>1</trackindex>
						</sourcetrack>
						<link>
							<linkclipref>clipitem-96</linkclipref>
							<mediatype>video</mediatype>
							<trackindex>1</trackindex>
							<clipindex>98</clipindex>
						</link>
						<link>
							<linkclipref>clipitem-529</linkclipref>
							<mediatype>audio</mediatype>
							<trackindex>1</trackindex>
							<clipindex>53</clipindex>
							<groupindex>1</groupindex>
						</link>
						<link>
							<linkclipref>clipitem-693</linkclipref>
							<mediatype>audio</mediatype>
							<trackindex>2</trackindex>
							<clipindex>53</clipindex>
							<groupindex>1</groupindex>
						</link>
						<logginginfo>
							<description></description>
							<scene></scene>
							<shottake></shottake>
							<lognote></lognote>
							<good></good>
							<originalvideofilename></originalvideofilename>
							<originalaudiofilename></originalaudiofilename>
						</logginginfo>
						<colorinfo>
							<lut></lut>
							<lut1></lut1>
							<asc_sop></asc_sop>
							<asc_sat></asc_sat>
							<lut2></lut2>
						</colorinfo>
						<labels>
							<label2>Iris</label2>
						</labels>
					</clipitem>
					<clipitem id="clipitem-530" premiereChannelType="stereo">
						<masterclipid>masterclip-52</masterclipid>
						<name>A015_03071919_C154.mov</name>
						<enabled>TRUE</enabled>
						<duration>2517</duration>
						<rate>
							<timebase>24</timebase>
							<ntsc>FALSE</ntsc>
						</rate>
						<start>11343</start>
						<end>11468</end>
						<in>119</in>
						<out>244</out>
						<pproTicksIn>1259496000000</pproTicksIn>
						<pproTicksOut>2582496000000</pproTicksOut>
						<file id="file-52"/>
						<sourcetrack>
							<mediatype>audio</mediatype>
							<trackindex>1</trackindex>
						</sourcetrack>
						<link>
							<linkclipref>clipitem-97</linkclipref>
							<mediatype>video</mediatype>
							<trackindex>1</trackindex>
							<clipindex>99</clipindex>
						</link>
						<link>
							<linkclipref>clipitem-530</linkclipref>
							<mediatype>audio</mediatype>
							<trackindex>1</trackindex>
							<clipindex>54</clipindex>
							<groupindex>1</groupindex>
						</link>
						<link>
							<linkclipref>clipitem-694</linkclipref>
							<mediatype>audio</mediatype>
							<trackindex>2</trackindex>
							<clipindex>54</clipindex>
							<groupindex>1</groupindex>
						</link>
						<logginginfo>
							<description></description>
							<scene></scene>
							<shottake></shottake>
							<lognote></lognote>
							<good></good>
							<originalvideofilename></originalvideofilename>
							<originalaudiofilename></originalaudiofilename>
						</logginginfo>
						<colorinfo>
							<lut></lut>
							<lut1></lut1>
							<asc_sop></asc_sop>
							<asc_sat></asc_sat>
							<lut2></lut2>
						</colorinfo>
						<labels>
							<label2>Iris</label2>
						</labels>
					</clipitem>
					<clipitem id="clipitem-531" premiereChannelType="stereo">
						<masterclipid>masterclip-53</masterclipid>
						<name>A015_03071929_C156.mov</name>
						<enabled>TRUE</enabled>
						<duration>2423</duration>
						<rate>
							<timebase>24</timebase>
							<ntsc>FALSE</ntsc>
						</rate>
						<start>11468</start>
						<end>11682</end>
						<in>362</in>
						<out>576</out>
						<pproTicksIn>3831408000000</pproTicksIn>
						<pproTicksOut>6096384000000</pproTicksOut>
						<file id="file-53"/>
						<sourcetrack>
							<mediatype>audio</mediatype>
							<trackindex>1</trackindex>
						</sourcetrack>
						<link>
							<linkclipref>clipitem-98</linkclipref>
							<mediatype>video</mediatype>
							<trackindex>1</trackindex>
							<clipindex>100</clipindex>
						</link>
						<link>
							<linkclipref>clipitem-531</linkclipref>
							<mediatype>audio</mediatype>
							<trackindex>1</trackindex>
							<clipindex>55</clipindex>
							<groupindex>1</groupindex>
						</link>
						<link>
							<linkclipref>clipitem-695</linkclipref>
							<mediatype>audio</mediatype>
							<trackindex>2</trackindex>
							<clipindex>55</clipindex>
							<groupindex>1</groupindex>
						</link>
						<logginginfo>
							<description></description>
							<scene></scene>
							<shottake></shottake>
							<lognote></lognote>
							<good></good>
							<originalvideofilename></originalvideofilename>
							<originalaudiofilename></originalaudiofilename>
						</logginginfo>
						<colorinfo>
							<lut></lut>
							<lut1></lut1>
							<asc_sop></asc_sop>
							<asc_sat></asc_sat>
							<lut2></lut2>
						</colorinfo>
						<labels>
							<label2>Iris</label2>
						</labels>
					</clipitem>
					<clipitem id="clipitem-532" premiereChannelType="stereo">
						<masterclipid>masterclip-55</masterclipid>
						<name>A002_05280722_C096.mp4</name>
						<enabled>TRUE</enabled>
						<duration>1368</duration>
						<rate>
							<timebase>24</timebase>
							<ntsc>FALSE</ntsc>
						</rate>
						<start>11854</start>
						<end>11909</end>
						<in>324</in>
						<out>379</out>
						<pproTicksIn>3429216000000</pproTicksIn>
						<pproTicksOut>4011336000000</pproTicksOut>
						<file id="file-55"/>
						<sourcetrack>
							<mediatype>audio</mediatype>
							<trackindex>1</trackindex>
						</sourcetrack>
						<link>
							<linkclipref>clipitem-532</linkclipref>
							<mediatype>audio</mediatype>
							<trackindex>1</trackindex>
							<clipindex>56</clipindex>
							<groupindex>1</groupindex>
						</link>
						<link>
							<linkclipref>clipitem-696</linkclipref>
							<mediatype>audio</mediatype>
							<trackindex>2</trackindex>
							<clipindex>56</clipindex>
							<groupindex>1</groupindex>
						</link>
						<logginginfo>
							<description></description>
							<scene></scene>
							<shottake></shottake>
							<lognote></lognote>
							<good></good>
							<originalvideofilename></originalvideofilename>
							<originalaudiofilename></originalaudiofilename>
						</logginginfo>
						<colorinfo>
							<lut></lut>
							<lut1></lut1>
							<asc_sop></asc_sop>
							<asc_sat></asc_sat>
							<lut2></lut2>
						</colorinfo>
						<labels>
							<label2>Iris</label2>
						</labels>
					</clipitem>
					<clipitem id="clipitem-533" premiereChannelType="stereo">
						<masterclipid>masterclip-56</masterclipid>
						<name>A002_05280725_C099.mp4</name>
						<enabled>TRUE</enabled>
						<duration>1303</duration>
						<rate>
							<timebase>24</timebase>
							<ntsc>FALSE</ntsc>
						</rate>
						<start>11909</start>
						<end>11997</end>
						<in>297</in>
						<out>385</out>
						<pproTicksIn>3143448000000</pproTicksIn>
						<pproTicksOut>4074840000000</pproTicksOut>
						<file id="file-56"/>
						<sourcetrack>
							<mediatype>audio</mediatype>
							<trackindex>1</trackindex>
						</sourcetrack>
						<link>
							<linkclipref>clipitem-101</linkclipref>
							<mediatype>video</mediatype>
							<trackindex>1</trackindex>
							<clipindex>103</clipindex>
						</link>
						<link>
							<linkclipref>clipitem-533</linkclipref>
							<mediatype>audio</mediatype>
							<trackindex>1</trackindex>
							<clipindex>57</clipindex>
							<groupindex>1</groupindex>
						</link>
						<link>
							<linkclipref>clipitem-697</linkclipref>
							<mediatype>audio</mediatype>
							<trackindex>2</trackindex>
							<clipindex>57</clipindex>
							<groupindex>1</groupindex>
						</link>
						<logginginfo>
							<description></description>
							<scene></scene>
							<shottake></shottake>
							<lognote></lognote>
							<good></good>
							<originalvideofilename></originalvideofilename>
							<originalaudiofilename></originalaudiofilename>
						</logginginfo>
						<colorinfo>
							<lut></lut>
							<lut1></lut1>
							<asc_sop></asc_sop>
							<asc_sat></asc_sat>
							<lut2></lut2>
						</colorinfo>
						<labels>
							<label2>Iris</label2>
						</labels>
					</clipitem>
					<clipitem id="clipitem-534" premiereChannelType="stereo">
						<masterclipid>masterclip-55</masterclipid>
						<name>A002_05280722_C096.mp4</name>
						<enabled>TRUE</enabled>
						<duration>1368</duration>
						<rate>
							<timebase>24</timebase>
							<ntsc>FALSE</ntsc>
						</rate>
						<start>11997</start>
						<end>12054</end>
						<in>467</in>
						<out>524</out>
						<pproTicksIn>4942728000000</pproTicksIn>
						<pproTicksOut>5546016000000</pproTicksOut>
						<file id="file-55"/>
						<sourcetrack>
							<mediatype>audio</mediatype>
							<trackindex>1</trackindex>
						</sourcetrack>
						<link>
							<linkclipref>clipitem-102</linkclipref>
							<mediatype>video</mediatype>
							<trackindex>1</trackindex>
							<clipindex>104</clipindex>
						</link>
						<link>
							<linkclipref>clipitem-534</linkclipref>
							<mediatype>audio</mediatype>
							<trackindex>1</trackindex>
							<clipindex>58</clipindex>
							<groupindex>1</groupindex>
						</link>
						<link>
							<linkclipref>clipitem-698</linkclipref>
							<mediatype>audio</mediatype>
							<trackindex>2</trackindex>
							<clipindex>58</clipindex>
							<groupindex>1</groupindex>
						</link>
						<logginginfo>
							<description></description>
							<scene></scene>
							<shottake></shottake>
							<lognote></lognote>
							<good></good>
							<originalvideofilename></originalvideofilename>
							<originalaudiofilename></originalaudiofilename>
						</logginginfo>
						<colorinfo>
							<lut></lut>
							<lut1></lut1>
							<asc_sop></asc_sop>
							<asc_sat></asc_sat>
							<lut2></lut2>
						</colorinfo>
						<labels>
							<label2>Iris</label2>
						</labels>
					</clipitem>
					<clipitem id="clipitem-535" premiereChannelType="stereo">
						<masterclipid>masterclip-55</masterclipid>
						<name>A002_05280722_C096.mp4</name>
						<enabled>TRUE</enabled>
						<duration>1368</duration>
						<rate>
							<timebase>24</timebase>
							<ntsc>FALSE</ntsc>
						</rate>
						<start>12054</start>
						<end>12149</end>
						<in>524</in>
						<out>619</out>
						<pproTicksIn>5546016000000</pproTicksIn>
						<pproTicksOut>6551496000000</pproTicksOut>
						<file id="file-55"/>
						<sourcetrack>
							<mediatype>audio</mediatype>
							<trackindex>1</trackindex>
						</sourcetrack>
						<link>
							<linkclipref>clipitem-103</linkclipref>
							<mediatype>video</mediatype>
							<trackindex>1</trackindex>
							<clipindex>105</clipindex>
						</link>
						<link>
							<linkclipref>clipitem-535</linkclipref>
							<mediatype>audio</mediatype>
							<trackindex>1</trackindex>
							<clipindex>59</clipindex>
							<groupindex>1</groupindex>
						</link>
						<link>
							<linkclipref>clipitem-699</linkclipref>
							<mediatype>audio</mediatype>
							<trackindex>2</trackindex>
							<clipindex>59</clipindex>
							<groupindex>1</groupindex>
						</link>
						<logginginfo>
							<description></description>
							<scene></scene>
							<shottake></shottake>
							<lognote></lognote>
							<good></good>
							<originalvideofilename></originalvideofilename>
							<originalaudiofilename></originalaudiofilename>
						</logginginfo>
						<colorinfo>
							<lut></lut>
							<lut1></lut1>
							<asc_sop></asc_sop>
							<asc_sat></asc_sat>
							<lut2></lut2>
						</colorinfo>
						<labels>
							<label2>Iris</label2>
						</labels>
					</clipitem>
					<clipitem id="clipitem-536" premiereChannelType="stereo">
						<masterclipid>masterclip-52</masterclipid>
						<name>A015_03071919_C154.mov</name>
						<enabled>TRUE</enabled>
						<duration>2517</duration>
						<rate>
							<timebase>24</timebase>
							<ntsc>FALSE</ntsc>
						</rate>
						<start>12149</start>
						<end>12202</end>
						<in>490</in>
						<out>543</out>
						<pproTicksIn>5186160000000</pproTicksIn>
						<pproTicksOut>5747112000000</pproTicksOut>
						<file id="file-52"/>
						<sourcetrack>
							<mediatype>audio</mediatype>
							<trackindex>1</trackindex>
						</sourcetrack>
						<link>
							<linkclipref>clipitem-104</linkclipref>
							<mediatype>video</mediatype>
							<trackindex>1</trackindex>
							<clipindex>106</clipindex>
						</link>
						<link>
							<linkclipref>clipitem-536</linkclipref>
							<mediatype>audio</mediatype>
							<trackindex>1</trackindex>
							<clipindex>60</clipindex>
							<groupindex>1</groupindex>
						</link>
						<link>
							<linkclipref>clipitem-700</linkclipref>
							<mediatype>audio</mediatype>
							<trackindex>2</trackindex>
							<clipindex>60</clipindex>
							<groupindex>1</groupindex>
						</link>
						<logginginfo>
							<description></description>
							<scene></scene>
							<shottake></shottake>
							<lognote></lognote>
							<good></good>
							<originalvideofilename></originalvideofilename>
							<originalaudiofilename></originalaudiofilename>
						</logginginfo>
						<colorinfo>
							<lut></lut>
							<lut1></lut1>
							<asc_sop></asc_sop>
							<asc_sat></asc_sat>
							<lut2></lut2>
						</colorinfo>
						<labels>
							<label2>Iris</label2>
						</labels>
					</clipitem>
					<clipitem id="clipitem-537" premiereChannelType="stereo">
						<masterclipid>masterclip-57</masterclipid>
						<name>A015_03071937_C162.mp4</name>
						<enabled>TRUE</enabled>
						<duration>2480</duration>
						<rate>
							<timebase>24</timebase>
							<ntsc>FALSE</ntsc>
						</rate>
						<start>12202</start>
						<end>12323</end>
						<in>68</in>
						<out>189</out>
						<pproTicksIn>719712000000</pproTicksIn>
						<pproTicksOut>2000376000000</pproTicksOut>
						<file id="file-57"/>
						<sourcetrack>
							<mediatype>audio</mediatype>
							<trackindex>1</trackindex>
						</sourcetrack>
						<link>
							<linkclipref>clipitem-105</linkclipref>
							<mediatype>video</mediatype>
							<trackindex>1</trackindex>
							<clipindex>107</clipindex>
						</link>
						<link>
							<linkclipref>clipitem-537</linkclipref>
							<mediatype>audio</mediatype>
							<trackindex>1</trackindex>
							<clipindex>61</clipindex>
							<groupindex>1</groupindex>
						</link>
						<link>
							<linkclipref>clipitem-701</linkclipref>
							<mediatype>audio</mediatype>
							<trackindex>2</trackindex>
							<clipindex>61</clipindex>
							<groupindex>1</groupindex>
						</link>
						<logginginfo>
							<description></description>
							<scene></scene>
							<shottake></shottake>
							<lognote></lognote>
							<good></good>
							<originalvideofilename></originalvideofilename>
							<originalaudiofilename></originalaudiofilename>
						</logginginfo>
						<colorinfo>
							<lut></lut>
							<lut1></lut1>
							<asc_sop></asc_sop>
							<asc_sat></asc_sat>
							<lut2></lut2>
						</colorinfo>
						<labels>
							<label2>Iris</label2>
						</labels>
					</clipitem>
					<clipitem id="clipitem-538" premiereChannelType="stereo">
						<masterclipid>masterclip-52</masterclipid>
						<name>A015_03071919_C154.mov</name>
						<enabled>TRUE</enabled>
						<duration>2517</duration>
						<rate>
							<timebase>24</timebase>
							<ntsc>FALSE</ntsc>
						</rate>
						<start>12323</start>
						<end>12474</end>
						<in>707</in>
						<out>858</out>
						<pproTicksIn>7482888000000</pproTicksIn>
						<pproTicksOut>9081072000000</pproTicksOut>
						<file id="file-52"/>
						<sourcetrack>
							<mediatype>audio</mediatype>
							<trackindex>1</trackindex>
						</sourcetrack>
						<link>
							<linkclipref>clipitem-106</linkclipref>
							<mediatype>video</mediatype>
							<trackindex>1</trackindex>
							<clipindex>108</clipindex>
						</link>
						<link>
							<linkclipref>clipitem-538</linkclipref>
							<mediatype>audio</mediatype>
							<trackindex>1</trackindex>
							<clipindex>62</clipindex>
							<groupindex>1</groupindex>
						</link>
						<link>
							<linkclipref>clipitem-702</linkclipref>
							<mediatype>audio</mediatype>
							<trackindex>2</trackindex>
							<clipindex>62</clipindex>
							<groupindex>1</groupindex>
						</link>
						<logginginfo>
							<description></description>
							<scene></scene>
							<shottake></shottake>
							<lognote></lognote>
							<good></good>
							<originalvideofilename></originalvideofilename>
							<originalaudiofilename></originalaudiofilename>
						</logginginfo>
						<colorinfo>
							<lut></lut>
							<lut1></lut1>
							<asc_sop></asc_sop>
							<asc_sat></asc_sat>
							<lut2></lut2>
						</colorinfo>
						<labels>
							<label2>Iris</label2>
						</labels>
					</clipitem>
					<clipitem id="clipitem-539" premiereChannelType="stereo">
						<masterclipid>masterclip-58</masterclipid>
						<name>A015_03071947_C167.mov</name>
						<enabled>TRUE</enabled>
						<duration>1892</duration>
						<rate>
							<timebase>24</timebase>
							<ntsc>FALSE</ntsc>
						</rate>
						<start>12474</start>
						<end>12669</end>
						<in>418</in>
						<out>613</out>
						<pproTicksIn>4424112000000</pproTicksIn>
						<pproTicksOut>6487992000000</pproTicksOut>
						<file id="file-58"/>
						<sourcetrack>
							<mediatype>audio</mediatype>
							<trackindex>1</trackindex>
						</sourcetrack>
						<link>
							<linkclipref>clipitem-107</linkclipref>
							<mediatype>video</mediatype>
							<trackindex>1</trackindex>
							<clipindex>109</clipindex>
						</link>
						<link>
							<linkclipref>clipitem-539</linkclipref>
							<mediatype>audio</mediatype>
							<trackindex>1</trackindex>
							<clipindex>63</clipindex>
							<groupindex>1</groupindex>
						</link>
						<link>
							<linkclipref>clipitem-703</linkclipref>
							<mediatype>audio</mediatype>
							<trackindex>2</trackindex>
							<clipindex>63</clipindex>
							<groupindex>1</groupindex>
						</link>
						<logginginfo>
							<description></description>
							<scene></scene>
							<shottake></shottake>
							<lognote></lognote>
							<good></good>
							<originalvideofilename></originalvideofilename>
							<originalaudiofilename></originalaudiofilename>
						</logginginfo>
						<colorinfo>
							<lut></lut>
							<lut1></lut1>
							<asc_sop></asc_sop>
							<asc_sat></asc_sat>
							<lut2></lut2>
						</colorinfo>
						<labels>
							<label2>Iris</label2>
						</labels>
					</clipitem>
					<clipitem id="clipitem-540" premiereChannelType="stereo">
						<masterclipid>masterclip-52</masterclipid>
						<name>A015_03071919_C154.mov</name>
						<enabled>TRUE</enabled>
						<duration>2517</duration>
						<rate>
							<timebase>24</timebase>
							<ntsc>FALSE</ntsc>
						</rate>
						<start>12669</start>
						<end>12725</end>
						<in>1036</in>
						<out>1092</out>
						<pproTicksIn>10965024000000</pproTicksIn>
						<pproTicksOut>11557728000000</pproTicksOut>
						<file id="file-52"/>
						<sourcetrack>
							<mediatype>audio</mediatype>
							<trackindex>1</trackindex>
						</sourcetrack>
						<link>
							<linkclipref>clipitem-108</linkclipref>
							<mediatype>video</mediatype>
							<trackindex>1</trackindex>
							<clipindex>110</clipindex>
						</link>
						<link>
							<linkclipref>clipitem-540</linkclipref>
							<mediatype>audio</mediatype>
							<trackindex>1</trackindex>
							<clipindex>64</clipindex>
							<groupindex>1</groupindex>
						</link>
						<link>
							<linkclipref>clipitem-704</linkclipref>
							<mediatype>audio</mediatype>
							<trackindex>2</trackindex>
							<clipindex>64</clipindex>
							<groupindex>1</groupindex>
						</link>
						<logginginfo>
							<description></description>
							<scene></scene>
							<shottake></shottake>
							<lognote></lognote>
							<good></good>
							<originalvideofilename></originalvideofilename>
							<originalaudiofilename></originalaudiofilename>
						</logginginfo>
						<colorinfo>
							<lut></lut>
							<lut1></lut1>
							<asc_sop></asc_sop>
							<asc_sat></asc_sat>
							<lut2></lut2>
						</colorinfo>
						<labels>
							<label2>Iris</label2>
						</labels>
					</clipitem>
					<clipitem id="clipitem-541" premiereChannelType="stereo">
						<masterclipid>masterclip-52</masterclipid>
						<name>A015_03071919_C154.mov</name>
						<enabled>TRUE</enabled>
						<duration>2517</duration>
						<rate>
							<timebase>24</timebase>
							<ntsc>FALSE</ntsc>
						</rate>
						<start>12725</start>
						<end>12815</end>
						<in>1092</in>
						<out>1182</out>
						<pproTicksIn>11557728000000</pproTicksIn>
						<pproTicksOut>12510288000000</pproTicksOut>
						<file id="file-52"/>
						<sourcetrack>
							<mediatype>audio</mediatype>
							<trackindex>1</trackindex>
						</sourcetrack>
						<link>
							<linkclipref>clipitem-109</linkclipref>
							<mediatype>video</mediatype>
							<trackindex>1</trackindex>
							<clipindex>111</clipindex>
						</link>
						<link>
							<linkclipref>clipitem-541</linkclipref>
							<mediatype>audio</mediatype>
							<trackindex>1</trackindex>
							<clipindex>65</clipindex>
							<groupindex>1</groupindex>
						</link>
						<link>
							<linkclipref>clipitem-705</linkclipref>
							<mediatype>audio</mediatype>
							<trackindex>2</trackindex>
							<clipindex>65</clipindex>
							<groupindex>1</groupindex>
						</link>
						<logginginfo>
							<description></description>
							<scene></scene>
							<shottake></shottake>
							<lognote></lognote>
							<good></good>
							<originalvideofilename></originalvideofilename>
							<originalaudiofilename></originalaudiofilename>
						</logginginfo>
						<colorinfo>
							<lut></lut>
							<lut1></lut1>
							<asc_sop></asc_sop>
							<asc_sat></asc_sat>
							<lut2></lut2>
						</colorinfo>
						<labels>
							<label2>Iris</label2>
						</labels>
					</clipitem>
					<clipitem id="clipitem-542" premiereChannelType="stereo">
						<masterclipid>masterclip-53</masterclipid>
						<name>A015_03071929_C156.mov</name>
						<enabled>TRUE</enabled>
						<duration>2423</duration>
						<rate>
							<timebase>24</timebase>
							<ntsc>FALSE</ntsc>
						</rate>
						<start>12815</start>
						<end>12889</end>
						<in>1279</in>
						<out>1353</out>
						<pproTicksIn>13536936000000</pproTicksIn>
						<pproTicksOut>14320152000000</pproTicksOut>
						<file id="file-53"/>
						<sourcetrack>
							<mediatype>audio</mediatype>
							<trackindex>1</trackindex>
						</sourcetrack>
						<link>
							<linkclipref>clipitem-110</linkclipref>
							<mediatype>video</mediatype>
							<trackindex>1</trackindex>
							<clipindex>112</clipindex>
						</link>
						<link>
							<linkclipref>clipitem-542</linkclipref>
							<mediatype>audio</mediatype>
							<trackindex>1</trackindex>
							<clipindex>66</clipindex>
							<groupindex>1</groupindex>
						</link>
						<link>
							<linkclipref>clipitem-706</linkclipref>
							<mediatype>audio</mediatype>
							<trackindex>2</trackindex>
							<clipindex>66</clipindex>
							<groupindex>1</groupindex>
						</link>
						<logginginfo>
							<description></description>
							<scene></scene>
							<shottake></shottake>
							<lognote></lognote>
							<good></good>
							<originalvideofilename></originalvideofilename>
							<originalaudiofilename></originalaudiofilename>
						</logginginfo>
						<colorinfo>
							<lut></lut>
							<lut1></lut1>
							<asc_sop></asc_sop>
							<asc_sat></asc_sat>
							<lut2></lut2>
						</colorinfo>
						<labels>
							<label2>Iris</label2>
						</labels>
					</clipitem>
					<clipitem id="clipitem-543" premiereChannelType="stereo">
						<masterclipid>masterclip-52</masterclipid>
						<name>A015_03071919_C154.mov</name>
						<enabled>TRUE</enabled>
						<duration>2517</duration>
						<rate>
							<timebase>24</timebase>
							<ntsc>FALSE</ntsc>
						</rate>
						<start>12889</start>
						<end>12994</end>
						<in>1248</in>
						<out>1353</out>
						<pproTicksIn>13208832000000</pproTicksIn>
						<pproTicksOut>14320152000000</pproTicksOut>
						<file id="file-52"/>
						<sourcetrack>
							<mediatype>audio</mediatype>
							<trackindex>1</trackindex>
						</sourcetrack>
						<link>
							<linkclipref>clipitem-111</linkclipref>
							<mediatype>video</mediatype>
							<trackindex>1</trackindex>
							<clipindex>113</clipindex>
						</link>
						<link>
							<linkclipref>clipitem-543</linkclipref>
							<mediatype>audio</mediatype>
							<trackindex>1</trackindex>
							<clipindex>67</clipindex>
							<groupindex>1</groupindex>
						</link>
						<link>
							<linkclipref>clipitem-707</linkclipref>
							<mediatype>audio</mediatype>
							<trackindex>2</trackindex>
							<clipindex>67</clipindex>
							<groupindex>1</groupindex>
						</link>
						<logginginfo>
							<description></description>
							<scene></scene>
							<shottake></shottake>
							<lognote></lognote>
							<good></good>
							<originalvideofilename></originalvideofilename>
							<originalaudiofilename></originalaudiofilename>
						</logginginfo>
						<colorinfo>
							<lut></lut>
							<lut1></lut1>
							<asc_sop></asc_sop>
							<asc_sat></asc_sat>
							<lut2></lut2>
						</colorinfo>
						<labels>
							<label2>Iris</label2>
						</labels>
					</clipitem>
					<clipitem id="clipitem-544" premiereChannelType="stereo">
						<masterclipid>masterclip-55</masterclipid>
						<name>A002_05280722_C096.mp4</name>
						<enabled>TRUE</enabled>
						<duration>1368</duration>
						<rate>
							<timebase>24</timebase>
							<ntsc>FALSE</ntsc>
						</rate>
						<start>13162</start>
						<end>13205</end>
						<in>649</in>
						<out>692</out>
						<pproTicksIn>6869016000000</pproTicksIn>
						<pproTicksOut>7324128000000</pproTicksOut>
						<file id="file-55"/>
						<sourcetrack>
							<mediatype>audio</mediatype>
							<trackindex>1</trackindex>
						</sourcetrack>
						<link>
							<linkclipref>clipitem-112</linkclipref>
							<mediatype>video</mediatype>
							<trackindex>1</trackindex>
							<clipindex>114</clipindex>
						</link>
						<link>
							<linkclipref>clipitem-544</linkclipref>
							<mediatype>audio</mediatype>
							<trackindex>1</trackindex>
							<clipindex>68</clipindex>
							<groupindex>1</groupindex>
						</link>
						<link>
							<linkclipref>clipitem-708</linkclipref>
							<mediatype>audio</mediatype>
							<trackindex>2</trackindex>
							<clipindex>68</clipindex>
							<groupindex>1</groupindex>
						</link>
						<logginginfo>
							<description></description>
							<scene></scene>
							<shottake></shottake>
							<lognote></lognote>
							<good></good>
							<originalvideofilename></originalvideofilename>
							<originalaudiofilename></originalaudiofilename>
						</logginginfo>
						<colorinfo>
							<lut></lut>
							<lut1></lut1>
							<asc_sop></asc_sop>
							<asc_sat></asc_sat>
							<lut2></lut2>
						</colorinfo>
						<labels>
							<label2>Iris</label2>
						</labels>
					</clipitem>
					<clipitem id="clipitem-545" premiereChannelType="stereo">
						<masterclipid>masterclip-58</masterclipid>
						<name>A015_03071947_C167.mov</name>
						<enabled>TRUE</enabled>
						<duration>1892</duration>
						<rate>
							<timebase>24</timebase>
							<ntsc>FALSE</ntsc>
						</rate>
						<start>13205</start>
						<end>13220</end>
						<in>1112</in>
						<out>1127</out>
						<pproTicksIn>11769408000000</pproTicksIn>
						<pproTicksOut>11928168000000</pproTicksOut>
						<file id="file-58"/>
						<sourcetrack>
							<mediatype>audio</mediatype>
							<trackindex>1</trackindex>
						</sourcetrack>
						<link>
							<linkclipref>clipitem-113</linkclipref>
							<mediatype>video</mediatype>
							<trackindex>1</trackindex>
							<clipindex>115</clipindex>
						</link>
						<link>
							<linkclipref>clipitem-545</linkclipref>
							<mediatype>audio</mediatype>
							<trackindex>1</trackindex>
							<clipindex>69</clipindex>
							<groupindex>1</groupindex>
						</link>
						<link>
							<linkclipref>clipitem-709</linkclipref>
							<mediatype>audio</mediatype>
							<trackindex>2</trackindex>
							<clipindex>69</clipindex>
							<groupindex>1</groupindex>
						</link>
						<logginginfo>
							<description></description>
							<scene></scene>
							<shottake></shottake>
							<lognote></lognote>
							<good></good>
							<originalvideofilename></originalvideofilename>
							<originalaudiofilename></originalaudiofilename>
						</logginginfo>
						<colorinfo>
							<lut></lut>
							<lut1></lut1>
							<asc_sop></asc_sop>
							<asc_sat></asc_sat>
							<lut2></lut2>
						</colorinfo>
						<labels>
							<label2>Iris</label2>
						</labels>
					</clipitem>
					<clipitem id="clipitem-546" premiereChannelType="stereo">
						<masterclipid>masterclip-58</masterclipid>
						<name>A015_03071947_C167.mov</name>
						<enabled>TRUE</enabled>
						<duration>1892</duration>
						<rate>
							<timebase>24</timebase>
							<ntsc>FALSE</ntsc>
						</rate>
						<start>13220</start>
						<end>13273</end>
						<in>1127</in>
						<out>1180</out>
						<pproTicksIn>11928168000000</pproTicksIn>
						<pproTicksOut>12489120000000</pproTicksOut>
						<file id="file-58"/>
						<sourcetrack>
							<mediatype>audio</mediatype>
							<trackindex>1</trackindex>
						</sourcetrack>
						<link>
							<linkclipref>clipitem-114</linkclipref>
							<mediatype>video</mediatype>
							<trackindex>1</trackindex>
							<clipindex>116</clipindex>
						</link>
						<link>
							<linkclipref>clipitem-546</linkclipref>
							<mediatype>audio</mediatype>
							<trackindex>1</trackindex>
							<clipindex>70</clipindex>
							<groupindex>1</groupindex>
						</link>
						<link>
							<linkclipref>clipitem-710</linkclipref>
							<mediatype>audio</mediatype>
							<trackindex>2</trackindex>
							<clipindex>70</clipindex>
							<groupindex>1</groupindex>
						</link>
						<logginginfo>
							<description></description>
							<scene></scene>
							<shottake></shottake>
							<lognote></lognote>
							<good></good>
							<originalvideofilename></originalvideofilename>
							<originalaudiofilename></originalaudiofilename>
						</logginginfo>
						<colorinfo>
							<lut></lut>
							<lut1></lut1>
							<asc_sop></asc_sop>
							<asc_sat></asc_sat>
							<lut2></lut2>
						</colorinfo>
						<labels>
							<label2>Iris</label2>
						</labels>
					</clipitem>
					<clipitem id="clipitem-547" premiereChannelType="stereo">
						<masterclipid>masterclip-56</masterclipid>
						<name>A002_05280725_C099.mp4</name>
						<enabled>TRUE</enabled>
						<duration>1303</duration>
						<rate>
							<timebase>24</timebase>
							<ntsc>FALSE</ntsc>
						</rate>
						<start>13273</start>
						<end>13299</end>
						<in>667</in>
						<out>693</out>
						<pproTicksIn>7059528000000</pproTicksIn>
						<pproTicksOut>7334712000000</pproTicksOut>
						<file id="file-56"/>
						<sourcetrack>
							<mediatype>audio</mediatype>
							<trackindex>1</trackindex>
						</sourcetrack>
						<link>
							<linkclipref>clipitem-115</linkclipref>
							<mediatype>video</mediatype>
							<trackindex>1</trackindex>
							<clipindex>117</clipindex>
						</link>
						<link>
							<linkclipref>clipitem-547</linkclipref>
							<mediatype>audio</mediatype>
							<trackindex>1</trackindex>
							<clipindex>71</clipindex>
							<groupindex>1</groupindex>
						</link>
						<link>
							<linkclipref>clipitem-711</linkclipref>
							<mediatype>audio</mediatype>
							<trackindex>2</trackindex>
							<clipindex>71</clipindex>
							<groupindex>1</groupindex>
						</link>
						<logginginfo>
							<description></description>
							<scene></scene>
							<shottake></shottake>
							<lognote></lognote>
							<good></good>
							<originalvideofilename></originalvideofilename>
							<originalaudiofilename></originalaudiofilename>
						</logginginfo>
						<colorinfo>
							<lut></lut>
							<lut1></lut1>
							<asc_sop></asc_sop>
							<asc_sat></asc_sat>
							<lut2></lut2>
						</colorinfo>
						<labels>
							<label2>Iris</label2>
						</labels>
					</clipitem>
					<clipitem id="clipitem-548" premiereChannelType="stereo">
						<masterclipid>masterclip-58</masterclipid>
						<name>A015_03071947_C167.mov</name>
						<enabled>TRUE</enabled>
						<duration>1892</duration>
						<rate>
							<timebase>24</timebase>
							<ntsc>FALSE</ntsc>
						</rate>
						<start>13299</start>
						<end>13327</end>
						<in>1251</in>
						<out>1279</out>
						<pproTicksIn>13240584000000</pproTicksIn>
						<pproTicksOut>13536936000000</pproTicksOut>
						<file id="file-58"/>
						<sourcetrack>
							<mediatype>audio</mediatype>
							<trackindex>1</trackindex>
						</sourcetrack>
						<link>
							<linkclipref>clipitem-116</linkclipref>
							<mediatype>video</mediatype>
							<trackindex>1</trackindex>
							<clipindex>118</clipindex>
						</link>
						<link>
							<linkclipref>clipitem-548</linkclipref>
							<mediatype>audio</mediatype>
							<trackindex>1</trackindex>
							<clipindex>72</clipindex>
							<groupindex>1</groupindex>
						</link>
						<link>
							<linkclipref>clipitem-712</linkclipref>
							<mediatype>audio</mediatype>
							<trackindex>2</trackindex>
							<clipindex>72</clipindex>
							<groupindex>1</groupindex>
						</link>
						<logginginfo>
							<description></description>
							<scene></scene>
							<shottake></shottake>
							<lognote></lognote>
							<good></good>
							<originalvideofilename></originalvideofilename>
							<originalaudiofilename></originalaudiofilename>
						</logginginfo>
						<colorinfo>
							<lut></lut>
							<lut1></lut1>
							<asc_sop></asc_sop>
							<asc_sat></asc_sat>
							<lut2></lut2>
						</colorinfo>
						<labels>
							<label2>Iris</label2>
						</labels>
					</clipitem>
					<clipitem id="clipitem-549" premiereChannelType="stereo">
						<masterclipid>masterclip-56</masterclipid>
						<name>A002_05280725_C099.mp4</name>
						<enabled>TRUE</enabled>
						<duration>1303</duration>
						<rate>
							<timebase>24</timebase>
							<ntsc>FALSE</ntsc>
						</rate>
						<start>13327</start>
						<end>13362</end>
						<in>710</in>
						<out>745</out>
						<pproTicksIn>7514640000000</pproTicksIn>
						<pproTicksOut>7885080000000</pproTicksOut>
						<file id="file-56"/>
						<sourcetrack>
							<mediatype>audio</mediatype>
							<trackindex>1</trackindex>
						</sourcetrack>
						<link>
							<linkclipref>clipitem-117</linkclipref>
							<mediatype>video</mediatype>
							<trackindex>1</trackindex>
							<clipindex>119</clipindex>
						</link>
						<link>
							<linkclipref>clipitem-549</linkclipref>
							<mediatype>audio</mediatype>
							<trackindex>1</trackindex>
							<clipindex>73</clipindex>
							<groupindex>1</groupindex>
						</link>
						<link>
							<linkclipref>clipitem-713</linkclipref>
							<mediatype>audio</mediatype>
							<trackindex>2</trackindex>
							<clipindex>73</clipindex>
							<groupindex>1</groupindex>
						</link>
						<logginginfo>
							<description></description>
							<scene></scene>
							<shottake></shottake>
							<lognote></lognote>
							<good></good>
							<originalvideofilename></originalvideofilename>
							<originalaudiofilename></originalaudiofilename>
						</logginginfo>
						<colorinfo>
							<lut></lut>
							<lut1></lut1>
							<asc_sop></asc_sop>
							<asc_sat></asc_sat>
							<lut2></lut2>
						</colorinfo>
						<labels>
							<label2>Iris</label2>
						</labels>
					</clipitem>
					<clipitem id="clipitem-550" premiereChannelType="stereo">
						<masterclipid>masterclip-58</masterclipid>
						<name>A015_03071947_C167.mov</name>
						<enabled>TRUE</enabled>
						<duration>1892</duration>
						<rate>
							<timebase>24</timebase>
							<ntsc>FALSE</ntsc>
						</rate>
						<start>13362</start>
						<end>13402</end>
						<in>1346</in>
						<out>1386</out>
						<pproTicksIn>14246064000000</pproTicksIn>
						<pproTicksOut>14669424000000</pproTicksOut>
						<file id="file-58"/>
						<sourcetrack>
							<mediatype>audio</mediatype>
							<trackindex>1</trackindex>
						</sourcetrack>
						<link>
							<linkclipref>clipitem-118</linkclipref>
							<mediatype>video</mediatype>
							<trackindex>1</trackindex>
							<clipindex>120</clipindex>
						</link>
						<link>
							<linkclipref>clipitem-550</linkclipref>
							<mediatype>audio</mediatype>
							<trackindex>1</trackindex>
							<clipindex>74</clipindex>
							<groupindex>1</groupindex>
						</link>
						<link>
							<linkclipref>clipitem-714</linkclipref>
							<mediatype>audio</mediatype>
							<trackindex>2</trackindex>
							<clipindex>74</clipindex>
							<groupindex>1</groupindex>
						</link>
						<logginginfo>
							<description></description>
							<scene></scene>
							<shottake></shottake>
							<lognote></lognote>
							<good></good>
							<originalvideofilename></originalvideofilename>
							<originalaudiofilename></originalaudiofilename>
						</logginginfo>
						<colorinfo>
							<lut></lut>
							<lut1></lut1>
							<asc_sop></asc_sop>
							<asc_sat></asc_sat>
							<lut2></lut2>
						</colorinfo>
						<labels>
							<label2>Iris</label2>
						</labels>
					</clipitem>
					<clipitem id="clipitem-551" premiereChannelType="stereo">
						<masterclipid>masterclip-60</masterclipid>
						<name>A002_05280727_C101.mp4</name>
						<enabled>TRUE</enabled>
						<duration>1127</duration>
						<rate>
							<timebase>24</timebase>
							<ntsc>FALSE</ntsc>
						</rate>
						<start>13422</start>
						<end>13464</end>
						<in>665</in>
						<out>707</out>
						<pproTicksIn>7038360000000</pproTicksIn>
						<pproTicksOut>7482888000000</pproTicksOut>
						<file id="file-60"/>
						<sourcetrack>
							<mediatype>audio</mediatype>
							<trackindex>1</trackindex>
						</sourcetrack>
						<link>
							<linkclipref>clipitem-120</linkclipref>
							<mediatype>video</mediatype>
							<trackindex>1</trackindex>
							<clipindex>122</clipindex>
						</link>
						<link>
							<linkclipref>clipitem-551</linkclipref>
							<mediatype>audio</mediatype>
							<trackindex>1</trackindex>
							<clipindex>75</clipindex>
							<groupindex>1</groupindex>
						</link>
						<link>
							<linkclipref>clipitem-715</linkclipref>
							<mediatype>audio</mediatype>
							<trackindex>2</trackindex>
							<clipindex>75</clipindex>
							<groupindex>1</groupindex>
						</link>
						<logginginfo>
							<description></description>
							<scene></scene>
							<shottake></shottake>
							<lognote></lognote>
							<good></good>
							<originalvideofilename></originalvideofilename>
							<originalaudiofilename></originalaudiofilename>
						</logginginfo>
						<colorinfo>
							<lut></lut>
							<lut1></lut1>
							<asc_sop></asc_sop>
							<asc_sat></asc_sat>
							<lut2></lut2>
						</colorinfo>
						<labels>
							<label2>Iris</label2>
						</labels>
					</clipitem>
					<clipitem id="clipitem-552" premiereChannelType="stereo">
						<masterclipid>masterclip-56</masterclipid>
						<name>A002_05280725_C099.mp4</name>
						<enabled>TRUE</enabled>
						<duration>1303</duration>
						<rate>
							<timebase>24</timebase>
							<ntsc>FALSE</ntsc>
						</rate>
						<start>13488</start>
						<end>13519</end>
						<in>841</in>
						<out>872</out>
						<pproTicksIn>8901144000000</pproTicksIn>
						<pproTicksOut>9229248000000</pproTicksOut>
						<file id="file-56"/>
						<sourcetrack>
							<mediatype>audio</mediatype>
							<trackindex>1</trackindex>
						</sourcetrack>
						<link>
							<linkclipref>clipitem-121</linkclipref>
							<mediatype>video</mediatype>
							<trackindex>1</trackindex>
							<clipindex>123</clipindex>
						</link>
						<link>
							<linkclipref>clipitem-552</linkclipref>
							<mediatype>audio</mediatype>
							<trackindex>1</trackindex>
							<clipindex>76</clipindex>
							<groupindex>1</groupindex>
						</link>
						<link>
							<linkclipref>clipitem-716</linkclipref>
							<mediatype>audio</mediatype>
							<trackindex>2</trackindex>
							<clipindex>76</clipindex>
							<groupindex>1</groupindex>
						</link>
						<logginginfo>
							<description></description>
							<scene></scene>
							<shottake></shottake>
							<lognote></lognote>
							<good></good>
							<originalvideofilename></originalvideofilename>
							<originalaudiofilename></originalaudiofilename>
						</logginginfo>
						<colorinfo>
							<lut></lut>
							<lut1></lut1>
							<asc_sop></asc_sop>
							<asc_sat></asc_sat>
							<lut2></lut2>
						</colorinfo>
						<labels>
							<label2>Iris</label2>
						</labels>
					</clipitem>
					<clipitem id="clipitem-553" premiereChannelType="stereo">
						<masterclipid>masterclip-58</masterclipid>
						<name>A015_03071947_C167.mov</name>
						<enabled>TRUE</enabled>
						<duration>1892</duration>
						<rate>
							<timebase>24</timebase>
							<ntsc>FALSE</ntsc>
						</rate>
						<start>13519</start>
						<end>13557</end>
						<in>1463</in>
						<out>1501</out>
						<pproTicksIn>15484392000000</pproTicksIn>
						<pproTicksOut>15886584000000</pproTicksOut>
						<file id="file-58"/>
						<sourcetrack>
							<mediatype>audio</mediatype>
							<trackindex>1</trackindex>
						</sourcetrack>
						<link>
							<linkclipref>clipitem-122</linkclipref>
							<mediatype>video</mediatype>
							<trackindex>1</trackindex>
							<clipindex>124</clipindex>
						</link>
						<link>
							<linkclipref>clipitem-553</linkclipref>
							<mediatype>audio</mediatype>
							<trackindex>1</trackindex>
							<clipindex>77</clipindex>
							<groupindex>1</groupindex>
						</link>
						<link>
							<linkclipref>clipitem-717</linkclipref>
							<mediatype>audio</mediatype>
							<trackindex>2</trackindex>
							<clipindex>77</clipindex>
							<groupindex>1</groupindex>
						</link>
						<logginginfo>
							<description></description>
							<scene></scene>
							<shottake></shottake>
							<lognote></lognote>
							<good></good>
							<originalvideofilename></originalvideofilename>
							<originalaudiofilename></originalaudiofilename>
						</logginginfo>
						<colorinfo>
							<lut></lut>
							<lut1></lut1>
							<asc_sop></asc_sop>
							<asc_sat></asc_sat>
							<lut2></lut2>
						</colorinfo>
						<labels>
							<label2>Iris</label2>
						</labels>
					</clipitem>
					<clipitem id="clipitem-554" premiereChannelType="stereo">
						<masterclipid>masterclip-56</masterclipid>
						<name>A002_05280725_C099.mp4</name>
						<enabled>TRUE</enabled>
						<duration>1303</duration>
						<rate>
							<timebase>24</timebase>
							<ntsc>FALSE</ntsc>
						</rate>
						<start>13557</start>
						<end>13582</end>
						<in>885</in>
						<out>910</out>
						<pproTicksIn>9366840000000</pproTicksIn>
						<pproTicksOut>9631440000000</pproTicksOut>
						<file id="file-56"/>
						<sourcetrack>
							<mediatype>audio</mediatype>
							<trackindex>1</trackindex>
						</sourcetrack>
						<link>
							<linkclipref>clipitem-123</linkclipref>
							<mediatype>video</mediatype>
							<trackindex>1</trackindex>
							<clipindex>125</clipindex>
						</link>
						<link>
							<linkclipref>clipitem-554</linkclipref>
							<mediatype>audio</mediatype>
							<trackindex>1</trackindex>
							<clipindex>78</clipindex>
							<groupindex>1</groupindex>
						</link>
						<link>
							<linkclipref>clipitem-718</linkclipref>
							<mediatype>audio</mediatype>
							<trackindex>2</trackindex>
							<clipindex>78</clipindex>
							<groupindex>1</groupindex>
						</link>
						<logginginfo>
							<description></description>
							<scene></scene>
							<shottake></shottake>
							<lognote></lognote>
							<good></good>
							<originalvideofilename></originalvideofilename>
							<originalaudiofilename></originalaudiofilename>
						</logginginfo>
						<colorinfo>
							<lut></lut>
							<lut1></lut1>
							<asc_sop></asc_sop>
							<asc_sat></asc_sat>
							<lut2></lut2>
						</colorinfo>
						<labels>
							<label2>Iris</label2>
						</labels>
					</clipitem>
					<clipitem id="clipitem-555" premiereChannelType="stereo">
						<masterclipid>masterclip-55</masterclipid>
						<name>A002_05280722_C096.mp4</name>
						<enabled>TRUE</enabled>
						<duration>1368</duration>
						<rate>
							<timebase>24</timebase>
							<ntsc>FALSE</ntsc>
						</rate>
						<start>13582</start>
						<end>13631</end>
						<in>981</in>
						<out>1030</out>
						<pproTicksIn>10382904000000</pproTicksIn>
						<pproTicksOut>10901520000000</pproTicksOut>
						<file id="file-55"/>
						<sourcetrack>
							<mediatype>audio</mediatype>
							<trackindex>1</trackindex>
						</sourcetrack>
						<link>
							<linkclipref>clipitem-555</linkclipref>
							<mediatype>audio</mediatype>
							<trackindex>1</trackindex>
							<clipindex>79</clipindex>
							<groupindex>1</groupindex>
						</link>
						<link>
							<linkclipref>clipitem-719</linkclipref>
							<mediatype>audio</mediatype>
							<trackindex>2</trackindex>
							<clipindex>79</clipindex>
							<groupindex>1</groupindex>
						</link>
						<logginginfo>
							<description></description>
							<scene></scene>
							<shottake></shottake>
							<lognote></lognote>
							<good></good>
							<originalvideofilename></originalvideofilename>
							<originalaudiofilename></originalaudiofilename>
						</logginginfo>
						<colorinfo>
							<lut></lut>
							<lut1></lut1>
							<asc_sop></asc_sop>
							<asc_sat></asc_sat>
							<lut2></lut2>
						</colorinfo>
						<labels>
							<label2>Iris</label2>
						</labels>
					</clipitem>
					<clipitem id="clipitem-556" premiereChannelType="stereo">
						<masterclipid>masterclip-58</masterclipid>
						<name>A015_03071947_C167.mov</name>
						<enabled>TRUE</enabled>
						<duration>1892</duration>
						<rate>
							<timebase>24</timebase>
							<ntsc>FALSE</ntsc>
						</rate>
						<start>13631</start>
						<end>13757</end>
						<in>1559</in>
						<out>1685</out>
						<pproTicksIn>16500456000000</pproTicksIn>
						<pproTicksOut>17834040000000</pproTicksOut>
						<file id="file-58"/>
						<sourcetrack>
							<mediatype>audio</mediatype>
							<trackindex>1</trackindex>
						</sourcetrack>
						<link>
							<linkclipref>clipitem-125</linkclipref>
							<mediatype>video</mediatype>
							<trackindex>1</trackindex>
							<clipindex>127</clipindex>
						</link>
						<link>
							<linkclipref>clipitem-556</linkclipref>
							<mediatype>audio</mediatype>
							<trackindex>1</trackindex>
							<clipindex>80</clipindex>
							<groupindex>1</groupindex>
						</link>
						<link>
							<linkclipref>clipitem-720</linkclipref>
							<mediatype>audio</mediatype>
							<trackindex>2</trackindex>
							<clipindex>80</clipindex>
							<groupindex>1</groupindex>
						</link>
						<logginginfo>
							<description></description>
							<scene></scene>
							<shottake></shottake>
							<lognote></lognote>
							<good></good>
							<originalvideofilename></originalvideofilename>
							<originalaudiofilename></originalaudiofilename>
						</logginginfo>
						<colorinfo>
							<lut></lut>
							<lut1></lut1>
							<asc_sop></asc_sop>
							<asc_sat></asc_sat>
							<lut2></lut2>
						</colorinfo>
						<labels>
							<label2>Iris</label2>
						</labels>
					</clipitem>
					<clipitem id="clipitem-557" premiereChannelType="stereo">
						<masterclipid>masterclip-53</masterclipid>
						<name>A015_03071929_C156.mov</name>
						<enabled>TRUE</enabled>
						<duration>2423</duration>
						<rate>
							<timebase>24</timebase>
							<ntsc>FALSE</ntsc>
						</rate>
						<start>13757</start>
						<end>13818</end>
						<in>2198</in>
						<out>2259</out>
						<pproTicksIn>23263632000000</pproTicksIn>
						<pproTicksOut>23909256000000</pproTicksOut>
						<file id="file-53"/>
						<sourcetrack>
							<mediatype>audio</mediatype>
							<trackindex>1</trackindex>
						</sourcetrack>
						<link>
							<linkclipref>clipitem-126</linkclipref>
							<mediatype>video</mediatype>
							<trackindex>1</trackindex>
							<clipindex>128</clipindex>
						</link>
						<link>
							<linkclipref>clipitem-557</linkclipref>
							<mediatype>audio</mediatype>
							<trackindex>1</trackindex>
							<clipindex>81</clipindex>
							<groupindex>1</groupindex>
						</link>
						<link>
							<linkclipref>clipitem-721</linkclipref>
							<mediatype>audio</mediatype>
							<trackindex>2</trackindex>
							<clipindex>81</clipindex>
							<groupindex>1</groupindex>
						</link>
						<logginginfo>
							<description></description>
							<scene></scene>
							<shottake></shottake>
							<lognote></lognote>
							<good></good>
							<originalvideofilename></originalvideofilename>
							<originalaudiofilename></originalaudiofilename>
						</logginginfo>
						<colorinfo>
							<lut></lut>
							<lut1></lut1>
							<asc_sop></asc_sop>
							<asc_sat></asc_sat>
							<lut2></lut2>
						</colorinfo>
						<labels>
							<label2>Iris</label2>
						</labels>
					</clipitem>
					<clipitem id="clipitem-558" premiereChannelType="stereo">
						<masterclipid>masterclip-55</masterclipid>
						<name>A002_05280722_C096.mp4</name>
						<enabled>TRUE</enabled>
						<duration>1368</duration>
						<rate>
							<timebase>24</timebase>
							<ntsc>FALSE</ntsc>
						</rate>
						<start>13866</start>
						<end>13951</end>
						<in>1030</in>
						<out>1115</out>
						<pproTicksIn>10901520000000</pproTicksIn>
						<pproTicksOut>11801160000000</pproTicksOut>
						<file id="file-55"/>
						<sourcetrack>
							<mediatype>audio</mediatype>
							<trackindex>1</trackindex>
						</sourcetrack>
						<link>
							<linkclipref>clipitem-558</linkclipref>
							<mediatype>audio</mediatype>
							<trackindex>1</trackindex>
							<clipindex>82</clipindex>
							<groupindex>1</groupindex>
						</link>
						<link>
							<linkclipref>clipitem-722</linkclipref>
							<mediatype>audio</mediatype>
							<trackindex>2</trackindex>
							<clipindex>82</clipindex>
							<groupindex>1</groupindex>
						</link>
						<logginginfo>
							<description></description>
							<scene></scene>
							<shottake></shottake>
							<lognote></lognote>
							<good></good>
							<originalvideofilename></originalvideofilename>
							<originalaudiofilename></originalaudiofilename>
						</logginginfo>
						<colorinfo>
							<lut></lut>
							<lut1></lut1>
							<asc_sop></asc_sop>
							<asc_sat></asc_sat>
							<lut2></lut2>
						</colorinfo>
						<labels>
							<label2>Iris</label2>
						</labels>
					</clipitem>
					<clipitem id="clipitem-559" premiereChannelType="stereo">
						<masterclipid>masterclip-228</masterclipid>
						<name>Audio 3_30.wav</name>
						<enabled>TRUE</enabled>
						<duration>109</duration>
						<rate>
							<timebase>24</timebase>
							<ntsc>FALSE</ntsc>
						</rate>
						<start>13951</start>
						<end>14030</end>
						<in>10</in>
						<out>89</out>
						<pproTicksIn>105840000000</pproTicksIn>
						<pproTicksOut>941976000000</pproTicksOut>
						<file id="file-228">
							<name>Audio 3_30.wav</name>
							<pathurl>file://localhost/D%3a/aura%20premier%20pro/Adobe%20Premiere%20Pro%20Captured%20Audio/TESTING_MADESH/Audio%203_30.wav</pathurl>
							<rate>
								<timebase>30</timebase>
								<ntsc>TRUE</ntsc>
							</rate>
							<duration>137</duration>
							<timecode>
								<rate>
									<timebase>30</timebase>
									<ntsc>TRUE</ntsc>
								</rate>
								<string>00;00;00;00</string>
								<frame>0</frame>
								<displayformat>DF</displayformat>
							</timecode>
							<media>
								<audio>
									<samplecharacteristics>
										<depth>16</depth>
										<samplerate>48000</samplerate>
									</samplecharacteristics>
									<channelcount>2</channelcount>
								</audio>
							</media>
						</file>
						<sourcetrack>
							<mediatype>audio</mediatype>
							<trackindex>1</trackindex>
						</sourcetrack>
						<filter>
							<effect>
								<name>Audio Levels</name>
								<effectid>audiolevels</effectid>
								<effectcategory>audiolevels</effectcategory>
								<effecttype>audiolevels</effecttype>
								<mediatype>audio</mediatype>
								<pproBypass>false</pproBypass>
								<parameter authoringApp="PremierePro">
									<parameterid>level</parameterid>
									<name>Level</name>
									<valuemin>0</valuemin>
									<valuemax>3.98109</valuemax>
									<value>0.0356379</value>
								</parameter>
							</effect>
						</filter>
						<link>
							<linkclipref>clipitem-559</linkclipref>
							<mediatype>audio</mediatype>
							<trackindex>1</trackindex>
							<clipindex>83</clipindex>
							<groupindex>1</groupindex>
						</link>
						<link>
							<linkclipref>clipitem-723</linkclipref>
							<mediatype>audio</mediatype>
							<trackindex>2</trackindex>
							<clipindex>83</clipindex>
							<groupindex>1</groupindex>
						</link>
						<logginginfo>
							<description></description>
							<scene></scene>
							<shottake></shottake>
							<lognote></lognote>
							<good></good>
							<originalvideofilename></originalvideofilename>
							<originalaudiofilename></originalaudiofilename>
						</logginginfo>
						<colorinfo>
							<lut></lut>
							<lut1></lut1>
							<asc_sop></asc_sop>
							<asc_sat></asc_sat>
							<lut2></lut2>
						</colorinfo>
						<labels>
							<label2>Caribbean</label2>
						</labels>
					</clipitem>
					<clipitem id="clipitem-560" premiereChannelType="stereo">
						<masterclipid>masterclip-229</masterclipid>
						<name>A002_05291154_C279.mp4</name>
						<enabled>TRUE</enabled>
						<duration>482</duration>
						<rate>
							<timebase>24</timebase>
							<ntsc>FALSE</ntsc>
						</rate>
						<start>14118</start>
						<end>14450</end>
						<in>60</in>
						<out>392</out>
						<pproTicksIn>635040000000</pproTicksIn>
						<pproTicksOut>4148928000000</pproTicksOut>
						<pixelaspectratio>square</pixelaspectratio>
						<anamorphic>FALSE</anamorphic>
						<file id="file-229">
							<name>A002_05291154_C279.mp4</name>
							<pathurl>file://localhost/F%3a/bengaluru%20scenes/scene%2042/A002_05291154_C279.mp4</pathurl>
							<rate>
								<timebase>24</timebase>
								<ntsc>FALSE</ntsc>
							</rate>
							<duration>482</duration>
							<timecode>
								<rate>
									<timebase>24</timebase>
									<ntsc>FALSE</ntsc>
								</rate>
								<string>00:00:00:00</string>
								<frame>0</frame>
								<displayformat>NDF</displayformat>
							</timecode>
							<media>
								<video>
									<samplecharacteristics>
										<rate>
											<timebase>24</timebase>
											<ntsc>FALSE</ntsc>
										</rate>
										<width>1920</width>
										<height>1080</height>
										<anamorphic>FALSE</anamorphic>
										<pixelaspectratio>square</pixelaspectratio>
										<fielddominance>none</fielddominance>
									</samplecharacteristics>
								</video>
								<audio>
									<samplecharacteristics>
										<depth>16</depth>
										<samplerate>48000</samplerate>
									</samplecharacteristics>
									<channelcount>2</channelcount>
								</audio>
							</media>
						</file>
						<sourcetrack>
							<mediatype>audio</mediatype>
							<trackindex>1</trackindex>
						</sourcetrack>
						<link>
							<linkclipref>clipitem-560</linkclipref>
							<mediatype>audio</mediatype>
							<trackindex>1</trackindex>
							<clipindex>84</clipindex>
							<groupindex>1</groupindex>
						</link>
						<link>
							<linkclipref>clipitem-724</linkclipref>
							<mediatype>audio</mediatype>
							<trackindex>2</trackindex>
							<clipindex>84</clipindex>
							<groupindex>1</groupindex>
						</link>
						<logginginfo>
							<description></description>
							<scene></scene>
							<shottake></shottake>
							<lognote></lognote>
							<good></good>
							<originalvideofilename></originalvideofilename>
							<originalaudiofilename></originalaudiofilename>
						</logginginfo>
						<colorinfo>
							<lut></lut>
							<lut1></lut1>
							<asc_sop></asc_sop>
							<asc_sat></asc_sat>
							<lut2></lut2>
						</colorinfo>
						<labels>
							<label2>Iris</label2>
						</labels>
					</clipitem>
					<clipitem id="clipitem-561" premiereChannelType="stereo">
						<masterclipid>masterclip-66</masterclipid>
						<name>A002_05291230_C294.mp4</name>
						<enabled>TRUE</enabled>
						<duration>780</duration>
						<rate>
							<timebase>24</timebase>
							<ntsc>FALSE</ntsc>
						</rate>
						<start>14545</start>
						<end>14730</end>
						<in>126</in>
						<out>311</out>
						<pproTicksIn>1333584000000</pproTicksIn>
						<pproTicksOut>3291624000000</pproTicksOut>
						<file id="file-66"/>
						<sourcetrack>
							<mediatype>audio</mediatype>
							<trackindex>1</trackindex>
						</sourcetrack>
						<link>
							<linkclipref>clipitem-135</linkclipref>
							<mediatype>video</mediatype>
							<trackindex>1</trackindex>
							<clipindex>137</clipindex>
						</link>
						<link>
							<linkclipref>clipitem-561</linkclipref>
							<mediatype>audio</mediatype>
							<trackindex>1</trackindex>
							<clipindex>85</clipindex>
							<groupindex>1</groupindex>
						</link>
						<link>
							<linkclipref>clipitem-725</linkclipref>
							<mediatype>audio</mediatype>
							<trackindex>2</trackindex>
							<clipindex>85</clipindex>
							<groupindex>1</groupindex>
						</link>
						<logginginfo>
							<description></description>
							<scene></scene>
							<shottake></shottake>
							<lognote></lognote>
							<good></good>
							<originalvideofilename></originalvideofilename>
							<originalaudiofilename></originalaudiofilename>
						</logginginfo>
						<colorinfo>
							<lut></lut>
							<lut1></lut1>
							<asc_sop></asc_sop>
							<asc_sat></asc_sat>
							<lut2></lut2>
						</colorinfo>
						<labels>
							<label2>Iris</label2>
						</labels>
					</clipitem>
					<clipitem id="clipitem-562" premiereChannelType="stereo">
						<masterclipid>masterclip-67</masterclipid>
						<name>A008_10150358_C135.mov</name>
						<enabled>TRUE</enabled>
						<duration>740</duration>
						<rate>
							<timebase>24</timebase>
							<ntsc>FALSE</ntsc>
						</rate>
						<start>14730</start>
						<end>14824</end>
						<in>67</in>
						<out>161</out>
						<pproTicksIn>709128000000</pproTicksIn>
						<pproTicksOut>1704024000000</pproTicksOut>
						<file id="file-67"/>
						<sourcetrack>
							<mediatype>audio</mediatype>
							<trackindex>1</trackindex>
						</sourcetrack>
						<link>
							<linkclipref>clipitem-136</linkclipref>
							<mediatype>video</mediatype>
							<trackindex>1</trackindex>
							<clipindex>138</clipindex>
						</link>
						<link>
							<linkclipref>clipitem-562</linkclipref>
							<mediatype>audio</mediatype>
							<trackindex>1</trackindex>
							<clipindex>86</clipindex>
							<groupindex>1</groupindex>
						</link>
						<link>
							<linkclipref>clipitem-726</linkclipref>
							<mediatype>audio</mediatype>
							<trackindex>2</trackindex>
							<clipindex>86</clipindex>
							<groupindex>1</groupindex>
						</link>
						<logginginfo>
							<description></description>
							<scene></scene>
							<shottake></shottake>
							<lognote></lognote>
							<good></good>
							<originalvideofilename></originalvideofilename>
							<originalaudiofilename></originalaudiofilename>
						</logginginfo>
						<colorinfo>
							<lut></lut>
							<lut1></lut1>
							<asc_sop></asc_sop>
							<asc_sat></asc_sat>
							<lut2></lut2>
						</colorinfo>
						<labels>
							<label2>Iris</label2>
						</labels>
					</clipitem>
					<clipitem id="clipitem-563" premiereChannelType="stereo">
						<masterclipid>masterclip-66</masterclipid>
						<name>A002_05291230_C294.mp4</name>
						<enabled>TRUE</enabled>
						<duration>780</duration>
						<rate>
							<timebase>24</timebase>
							<ntsc>FALSE</ntsc>
						</rate>
						<start>14824</start>
						<end>14959</end>
						<in>387</in>
						<out>522</out>
						<pproTicksIn>4096008000000</pproTicksIn>
						<pproTicksOut>5524848000000</pproTicksOut>
						<file id="file-66"/>
						<sourcetrack>
							<mediatype>audio</mediatype>
							<trackindex>1</trackindex>
						</sourcetrack>
						<link>
							<linkclipref>clipitem-137</linkclipref>
							<mediatype>video</mediatype>
							<trackindex>1</trackindex>
							<clipindex>139</clipindex>
						</link>
						<link>
							<linkclipref>clipitem-563</linkclipref>
							<mediatype>audio</mediatype>
							<trackindex>1</trackindex>
							<clipindex>87</clipindex>
							<groupindex>1</groupindex>
						</link>
						<link>
							<linkclipref>clipitem-727</linkclipref>
							<mediatype>audio</mediatype>
							<trackindex>2</trackindex>
							<clipindex>87</clipindex>
							<groupindex>1</groupindex>
						</link>
						<logginginfo>
							<description></description>
							<scene></scene>
							<shottake></shottake>
							<lognote></lognote>
							<good></good>
							<originalvideofilename></originalvideofilename>
							<originalaudiofilename></originalaudiofilename>
						</logginginfo>
						<colorinfo>
							<lut></lut>
							<lut1></lut1>
							<asc_sop></asc_sop>
							<asc_sat></asc_sat>
							<lut2></lut2>
						</colorinfo>
						<labels>
							<label2>Iris</label2>
						</labels>
					</clipitem>
					<clipitem id="clipitem-564" premiereChannelType="stereo">
						<masterclipid>masterclip-67</masterclipid>
						<name>A008_10150358_C135.mov</name>
						<enabled>TRUE</enabled>
						<duration>740</duration>
						<rate>
							<timebase>24</timebase>
							<ntsc>FALSE</ntsc>
						</rate>
						<start>15028</start>
						<end>15248</end>
						<in>309</in>
						<out>529</out>
						<pproTicksIn>3270456000000</pproTicksIn>
						<pproTicksOut>5598936000000</pproTicksOut>
						<file id="file-67"/>
						<sourcetrack>
							<mediatype>audio</mediatype>
							<trackindex>1</trackindex>
						</sourcetrack>
						<link>
							<linkclipref>clipitem-140</linkclipref>
							<mediatype>video</mediatype>
							<trackindex>1</trackindex>
							<clipindex>142</clipindex>
						</link>
						<link>
							<linkclipref>clipitem-564</linkclipref>
							<mediatype>audio</mediatype>
							<trackindex>1</trackindex>
							<clipindex>88</clipindex>
							<groupindex>1</groupindex>
						</link>
						<link>
							<linkclipref>clipitem-728</linkclipref>
							<mediatype>audio</mediatype>
							<trackindex>2</trackindex>
							<clipindex>88</clipindex>
							<groupindex>1</groupindex>
						</link>
						<logginginfo>
							<description></description>
							<scene></scene>
							<shottake></shottake>
							<lognote></lognote>
							<good></good>
							<originalvideofilename></originalvideofilename>
							<originalaudiofilename></originalaudiofilename>
						</logginginfo>
						<colorinfo>
							<lut></lut>
							<lut1></lut1>
							<asc_sop></asc_sop>
							<asc_sat></asc_sat>
							<lut2></lut2>
						</colorinfo>
						<labels>
							<label2>Iris</label2>
						</labels>
					</clipitem>
					<clipitem id="clipitem-565" premiereChannelType="stereo">
						<masterclipid>masterclip-230</masterclipid>
						<name>Audio 3_31.wav</name>
						<enabled>TRUE</enabled>
						<duration>182</duration>
						<rate>
							<timebase>24</timebase>
							<ntsc>FALSE</ntsc>
						</rate>
						<start>15265</start>
						<end>15387</end>
						<in>17</in>
						<out>140</out>
						<pproTicksIn>179928000000</pproTicksIn>
						<pproTicksOut>1481760000000</pproTicksOut>
						<file id="file-230">
							<name>Audio 3_31.wav</name>
							<pathurl>file://localhost/D%3a/aura%20premier%20pro/Adobe%20Premiere%20Pro%20Captured%20Audio/TESTING_MADESH/Audio%203_31.wav</pathurl>
							<rate>
								<timebase>30</timebase>
								<ntsc>TRUE</ntsc>
							</rate>
							<duration>228</duration>
							<timecode>
								<rate>
									<timebase>30</timebase>
									<ntsc>TRUE</ntsc>
								</rate>
								<string>00;00;00;00</string>
								<frame>0</frame>
								<displayformat>DF</displayformat>
							</timecode>
							<media>
								<audio>
									<samplecharacteristics>
										<depth>16</depth>
										<samplerate>48000</samplerate>
									</samplecharacteristics>
									<channelcount>2</channelcount>
								</audio>
							</media>
						</file>
						<sourcetrack>
							<mediatype>audio</mediatype>
							<trackindex>1</trackindex>
						</sourcetrack>
						<filter>
							<effect>
								<name>Audio Levels</name>
								<effectid>audiolevels</effectid>
								<effectcategory>audiolevels</effectcategory>
								<effecttype>audiolevels</effecttype>
								<mediatype>audio</mediatype>
								<pproBypass>false</pproBypass>
								<parameter authoringApp="PremierePro">
									<parameterid>level</parameterid>
									<name>Level</name>
									<valuemin>0</valuemin>
									<valuemax>3.98109</valuemax>
									<value>0.0667907</value>
								</parameter>
							</effect>
						</filter>
						<link>
							<linkclipref>clipitem-565</linkclipref>
							<mediatype>audio</mediatype>
							<trackindex>1</trackindex>
							<clipindex>89</clipindex>
							<groupindex>1</groupindex>
						</link>
						<link>
							<linkclipref>clipitem-729</linkclipref>
							<mediatype>audio</mediatype>
							<trackindex>2</trackindex>
							<clipindex>89</clipindex>
							<groupindex>1</groupindex>
						</link>
						<logginginfo>
							<description></description>
							<scene></scene>
							<shottake></shottake>
							<lognote></lognote>
							<good></good>
							<originalvideofilename></originalvideofilename>
							<originalaudiofilename></originalaudiofilename>
						</logginginfo>
						<colorinfo>
							<lut></lut>
							<lut1></lut1>
							<asc_sop></asc_sop>
							<asc_sat></asc_sat>
							<lut2></lut2>
						</colorinfo>
						<labels>
							<label2>Caribbean</label2>
						</labels>
					</clipitem>
					<clipitem id="clipitem-566" premiereChannelType="stereo">
						<masterclipid>masterclip-231</masterclipid>
						<name>Audio 3_32.wav</name>
						<enabled>TRUE</enabled>
						<duration>129</duration>
						<rate>
							<timebase>24</timebase>
							<ntsc>FALSE</ntsc>
						</rate>
						<start>15550</start>
						<end>15639</end>
						<in>14</in>
						<out>103</out>
						<pproTicksIn>148176000000</pproTicksIn>
						<pproTicksOut>1090152000000</pproTicksOut>
						<file id="file-231">
							<name>Audio 3_32.wav</name>
							<pathurl>file://localhost/D%3a/aura%20premier%20pro/Adobe%20Premiere%20Pro%20Captured%20Audio/TESTING_MADESH/Audio%203_32.wav</pathurl>
							<rate>
								<timebase>30</timebase>
								<ntsc>TRUE</ntsc>
							</rate>
							<duration>162</duration>
							<timecode>
								<rate>
									<timebase>30</timebase>
									<ntsc>TRUE</ntsc>
								</rate>
								<string>00;00;00;00</string>
								<frame>0</frame>
								<displayformat>DF</displayformat>
							</timecode>
							<media>
								<audio>
									<samplecharacteristics>
										<depth>16</depth>
										<samplerate>48000</samplerate>
									</samplecharacteristics>
									<channelcount>2</channelcount>
								</audio>
							</media>
						</file>
						<sourcetrack>
							<mediatype>audio</mediatype>
							<trackindex>1</trackindex>
						</sourcetrack>
						<filter>
							<effect>
								<name>Audio Levels</name>
								<effectid>audiolevels</effectid>
								<effectcategory>audiolevels</effectcategory>
								<effecttype>audiolevels</effecttype>
								<mediatype>audio</mediatype>
								<pproBypass>false</pproBypass>
								<parameter authoringApp="PremierePro">
									<parameterid>level</parameterid>
									<name>Level</name>
									<valuemin>0</valuemin>
									<valuemax>3.98109</valuemax>
									<value>0.0667907</value>
								</parameter>
							</effect>
						</filter>
						<link>
							<linkclipref>clipitem-566</linkclipref>
							<mediatype>audio</mediatype>
							<trackindex>1</trackindex>
							<clipindex>90</clipindex>
							<groupindex>1</groupindex>
						</link>
						<link>
							<linkclipref>clipitem-730</linkclipref>
							<mediatype>audio</mediatype>
							<trackindex>2</trackindex>
							<clipindex>90</clipindex>
							<groupindex>1</groupindex>
						</link>
						<logginginfo>
							<description></description>
							<scene></scene>
							<shottake></shottake>
							<lognote></lognote>
							<good></good>
							<originalvideofilename></originalvideofilename>
							<originalaudiofilename></originalaudiofilename>
						</logginginfo>
						<colorinfo>
							<lut></lut>
							<lut1></lut1>
							<asc_sop></asc_sop>
							<asc_sat></asc_sat>
							<lut2></lut2>
						</colorinfo>
						<labels>
							<label2>Caribbean</label2>
						</labels>
					</clipitem>
					<clipitem id="clipitem-567" premiereChannelType="stereo">
						<masterclipid>masterclip-232</masterclipid>
						<name>Audio 3_33.wav</name>
						<enabled>TRUE</enabled>
						<duration>79</duration>
						<rate>
							<timebase>24</timebase>
							<ntsc>FALSE</ntsc>
						</rate>
						<start>15639</start>
						<end>15679</end>
						<in>20</in>
						<out>60</out>
						<pproTicksIn>211680000000</pproTicksIn>
						<pproTicksOut>635040000000</pproTicksOut>
						<file id="file-232">
							<name>Audio 3_33.wav</name>
							<pathurl>file://localhost/D%3a/aura%20premier%20pro/Adobe%20Premiere%20Pro%20Captured%20Audio/TESTING_MADESH/Audio%203_33.wav</pathurl>
							<rate>
								<timebase>30</timebase>
								<ntsc>TRUE</ntsc>
							</rate>
							<duration>98</duration>
							<timecode>
								<rate>
									<timebase>30</timebase>
									<ntsc>TRUE</ntsc>
								</rate>
								<string>00;00;00;00</string>
								<frame>0</frame>
								<displayformat>DF</displayformat>
							</timecode>
							<media>
								<audio>
									<samplecharacteristics>
										<depth>16</depth>
										<samplerate>48000</samplerate>
									</samplecharacteristics>
									<channelcount>2</channelcount>
								</audio>
							</media>
						</file>
						<sourcetrack>
							<mediatype>audio</mediatype>
							<trackindex>1</trackindex>
						</sourcetrack>
						<filter>
							<effect>
								<name>Audio Levels</name>
								<effectid>audiolevels</effectid>
								<effectcategory>audiolevels</effectcategory>
								<effecttype>audiolevels</effecttype>
								<mediatype>audio</mediatype>
								<pproBypass>false</pproBypass>
								<parameter authoringApp="PremierePro">
									<parameterid>level</parameterid>
									<name>Level</name>
									<valuemin>0</valuemin>
									<valuemax>3.98109</valuemax>
									<value>0.0667907</value>
								</parameter>
							</effect>
						</filter>
						<link>
							<linkclipref>clipitem-567</linkclipref>
							<mediatype>audio</mediatype>
							<trackindex>1</trackindex>
							<clipindex>91</clipindex>
							<groupindex>1</groupindex>
						</link>
						<link>
							<linkclipref>clipitem-731</linkclipref>
							<mediatype>audio</mediatype>
							<trackindex>2</trackindex>
							<clipindex>91</clipindex>
							<groupindex>1</groupindex>
						</link>
						<logginginfo>
							<description></description>
							<scene></scene>
							<shottake></shottake>
							<lognote></lognote>
							<good></good>
							<originalvideofilename></originalvideofilename>
							<originalaudiofilename></originalaudiofilename>
						</logginginfo>
						<colorinfo>
							<lut></lut>
							<lut1></lut1>
							<asc_sop></asc_sop>
							<asc_sat></asc_sat>
							<lut2></lut2>
						</colorinfo>
						<labels>
							<label2>Caribbean</label2>
						</labels>
					</clipitem>
					<clipitem id="clipitem-568" premiereChannelType="stereo">
						<masterclipid>masterclip-69</masterclipid>
						<name>A003_05300849_C080.mp4</name>
						<enabled>TRUE</enabled>
						<duration>3599</duration>
						<rate>
							<timebase>24</timebase>
							<ntsc>FALSE</ntsc>
						</rate>
						<start>15679</start>
						<end>15692</end>
						<in>421</in>
						<out>434</out>
						<pproTicksIn>4455864000000</pproTicksIn>
						<pproTicksOut>4593456000000</pproTicksOut>
						<file id="file-69"/>
						<sourcetrack>
							<mediatype>audio</mediatype>
							<trackindex>1</trackindex>
						</sourcetrack>
						<link>
							<linkclipref>clipitem-568</linkclipref>
							<mediatype>audio</mediatype>
							<trackindex>1</trackindex>
							<clipindex>92</clipindex>
							<groupindex>1</groupindex>
						</link>
						<link>
							<linkclipref>clipitem-732</linkclipref>
							<mediatype>audio</mediatype>
							<trackindex>2</trackindex>
							<clipindex>92</clipindex>
							<groupindex>1</groupindex>
						</link>
						<logginginfo>
							<description></description>
							<scene></scene>
							<shottake></shottake>
							<lognote></lognote>
							<good></good>
							<originalvideofilename></originalvideofilename>
							<originalaudiofilename></originalaudiofilename>
						</logginginfo>
						<colorinfo>
							<lut></lut>
							<lut1></lut1>
							<asc_sop></asc_sop>
							<asc_sat></asc_sat>
							<lut2></lut2>
						</colorinfo>
						<labels>
							<label2>Iris</label2>
						</labels>
					</clipitem>
					<clipitem id="clipitem-569" premiereChannelType="stereo">
						<masterclipid>masterclip-69</masterclipid>
						<name>A003_05300849_C080.mp4</name>
						<enabled>TRUE</enabled>
						<duration>3599</duration>
						<rate>
							<timebase>24</timebase>
							<ntsc>FALSE</ntsc>
						</rate>
						<start>15692</start>
						<end>15783</end>
						<in>434</in>
						<out>525</out>
						<pproTicksIn>4593456000000</pproTicksIn>
						<pproTicksOut>5556600000000</pproTicksOut>
						<file id="file-69"/>
						<sourcetrack>
							<mediatype>audio</mediatype>
							<trackindex>1</trackindex>
						</sourcetrack>
						<link>
							<linkclipref>clipitem-143</linkclipref>
							<mediatype>video</mediatype>
							<trackindex>1</trackindex>
							<clipindex>145</clipindex>
						</link>
						<link>
							<linkclipref>clipitem-569</linkclipref>
							<mediatype>audio</mediatype>
							<trackindex>1</trackindex>
							<clipindex>93</clipindex>
							<groupindex>1</groupindex>
						</link>
						<link>
							<linkclipref>clipitem-733</linkclipref>
							<mediatype>audio</mediatype>
							<trackindex>2</trackindex>
							<clipindex>93</clipindex>
							<groupindex>1</groupindex>
						</link>
						<logginginfo>
							<description></description>
							<scene></scene>
							<shottake></shottake>
							<lognote></lognote>
							<good></good>
							<originalvideofilename></originalvideofilename>
							<originalaudiofilename></originalaudiofilename>
						</logginginfo>
						<colorinfo>
							<lut></lut>
							<lut1></lut1>
							<asc_sop></asc_sop>
							<asc_sat></asc_sat>
							<lut2></lut2>
						</colorinfo>
						<labels>
							<label2>Iris</label2>
						</labels>
					</clipitem>
					<clipitem id="clipitem-570" premiereChannelType="stereo">
						<masterclipid>masterclip-69</masterclipid>
						<name>A003_05300849_C080.mp4</name>
						<enabled>TRUE</enabled>
						<duration>3599</duration>
						<rate>
							<timebase>24</timebase>
							<ntsc>FALSE</ntsc>
						</rate>
						<start>16006</start>
						<end>16034</end>
						<in>786</in>
						<out>814</out>
						<pproTicksIn>8319024000000</pproTicksIn>
						<pproTicksOut>8615376000000</pproTicksOut>
						<file id="file-69"/>
						<sourcetrack>
							<mediatype>audio</mediatype>
							<trackindex>1</trackindex>
						</sourcetrack>
						<link>
							<linkclipref>clipitem-570</linkclipref>
							<mediatype>audio</mediatype>
							<trackindex>1</trackindex>
							<clipindex>94</clipindex>
							<groupindex>1</groupindex>
						</link>
						<link>
							<linkclipref>clipitem-734</linkclipref>
							<mediatype>audio</mediatype>
							<trackindex>2</trackindex>
							<clipindex>94</clipindex>
							<groupindex>1</groupindex>
						</link>
						<logginginfo>
							<description></description>
							<scene></scene>
							<shottake></shottake>
							<lognote></lognote>
							<good></good>
							<originalvideofilename></originalvideofilename>
							<originalaudiofilename></originalaudiofilename>
						</logginginfo>
						<colorinfo>
							<lut></lut>
							<lut1></lut1>
							<asc_sop></asc_sop>
							<asc_sat></asc_sat>
							<lut2></lut2>
						</colorinfo>
						<labels>
							<label2>Iris</label2>
						</labels>
					</clipitem>
					<clipitem id="clipitem-571" premiereChannelType="stereo">
						<masterclipid>masterclip-69</masterclipid>
						<name>A003_05300849_C080.mp4</name>
						<enabled>TRUE</enabled>
						<duration>3599</duration>
						<rate>
							<timebase>24</timebase>
							<ntsc>FALSE</ntsc>
						</rate>
						<start>16034</start>
						<end>16067</end>
						<in>814</in>
						<out>847</out>
						<pproTicksIn>8615376000000</pproTicksIn>
						<pproTicksOut>8964648000000</pproTicksOut>
						<file id="file-69"/>
						<sourcetrack>
							<mediatype>audio</mediatype>
							<trackindex>1</trackindex>
						</sourcetrack>
						<link>
							<linkclipref>clipitem-571</linkclipref>
							<mediatype>audio</mediatype>
							<trackindex>1</trackindex>
							<clipindex>95</clipindex>
							<groupindex>1</groupindex>
						</link>
						<link>
							<linkclipref>clipitem-735</linkclipref>
							<mediatype>audio</mediatype>
							<trackindex>2</trackindex>
							<clipindex>95</clipindex>
							<groupindex>1</groupindex>
						</link>
						<logginginfo>
							<description></description>
							<scene></scene>
							<shottake></shottake>
							<lognote></lognote>
							<good></good>
							<originalvideofilename></originalvideofilename>
							<originalaudiofilename></originalaudiofilename>
						</logginginfo>
						<colorinfo>
							<lut></lut>
							<lut1></lut1>
							<asc_sop></asc_sop>
							<asc_sat></asc_sat>
							<lut2></lut2>
						</colorinfo>
						<labels>
							<label2>Iris</label2>
						</labels>
					</clipitem>
					<clipitem id="clipitem-572" premiereChannelType="stereo">
						<masterclipid>masterclip-69</masterclipid>
						<name>A003_05300849_C080.mp4</name>
						<enabled>TRUE</enabled>
						<duration>3599</duration>
						<rate>
							<timebase>24</timebase>
							<ntsc>FALSE</ntsc>
						</rate>
						<start>16067</start>
						<end>16120</end>
						<in>847</in>
						<out>900</out>
						<pproTicksIn>8964648000000</pproTicksIn>
						<pproTicksOut>9525600000000</pproTicksOut>
						<file id="file-69"/>
						<sourcetrack>
							<mediatype>audio</mediatype>
							<trackindex>1</trackindex>
						</sourcetrack>
						<link>
							<linkclipref>clipitem-149</linkclipref>
							<mediatype>video</mediatype>
							<trackindex>1</trackindex>
							<clipindex>151</clipindex>
						</link>
						<link>
							<linkclipref>clipitem-572</linkclipref>
							<mediatype>audio</mediatype>
							<trackindex>1</trackindex>
							<clipindex>96</clipindex>
							<groupindex>1</groupindex>
						</link>
						<link>
							<linkclipref>clipitem-736</linkclipref>
							<mediatype>audio</mediatype>
							<trackindex>2</trackindex>
							<clipindex>96</clipindex>
							<groupindex>1</groupindex>
						</link>
						<logginginfo>
							<description></description>
							<scene></scene>
							<shottake></shottake>
							<lognote></lognote>
							<good></good>
							<originalvideofilename></originalvideofilename>
							<originalaudiofilename></originalaudiofilename>
						</logginginfo>
						<colorinfo>
							<lut></lut>
							<lut1></lut1>
							<asc_sop></asc_sop>
							<asc_sat></asc_sat>
							<lut2></lut2>
						</colorinfo>
						<labels>
							<label2>Iris</label2>
						</labels>
					</clipitem>
					<clipitem id="clipitem-573" premiereChannelType="stereo">
						<masterclipid>masterclip-72</masterclipid>
						<name>A003_05300925_C085.mp4</name>
						<enabled>TRUE</enabled>
						<duration>752</duration>
						<rate>
							<timebase>24</timebase>
							<ntsc>FALSE</ntsc>
						</rate>
						<start>16120</start>
						<end>16225</end>
						<in>505</in>
						<out>610</out>
						<pproTicksIn>5344920000000</pproTicksIn>
						<pproTicksOut>6456240000000</pproTicksOut>
						<file id="file-72"/>
						<sourcetrack>
							<mediatype>audio</mediatype>
							<trackindex>1</trackindex>
						</sourcetrack>
						<link>
							<linkclipref>clipitem-150</linkclipref>
							<mediatype>video</mediatype>
							<trackindex>1</trackindex>
							<clipindex>152</clipindex>
						</link>
						<link>
							<linkclipref>clipitem-573</linkclipref>
							<mediatype>audio</mediatype>
							<trackindex>1</trackindex>
							<clipindex>97</clipindex>
							<groupindex>1</groupindex>
						</link>
						<link>
							<linkclipref>clipitem-737</linkclipref>
							<mediatype>audio</mediatype>
							<trackindex>2</trackindex>
							<clipindex>97</clipindex>
							<groupindex>1</groupindex>
						</link>
						<logginginfo>
							<description></description>
							<scene></scene>
							<shottake></shottake>
							<lognote></lognote>
							<good></good>
							<originalvideofilename></originalvideofilename>
							<originalaudiofilename></originalaudiofilename>
						</logginginfo>
						<colorinfo>
							<lut></lut>
							<lut1></lut1>
							<asc_sop></asc_sop>
							<asc_sat></asc_sat>
							<lut2></lut2>
						</colorinfo>
						<labels>
							<label2>Iris</label2>
						</labels>
					</clipitem>
					<clipitem id="clipitem-574" premiereChannelType="stereo">
						<masterclipid>masterclip-69</masterclipid>
						<name>A003_05300849_C080.mp4</name>
						<enabled>TRUE</enabled>
						<duration>3599</duration>
						<rate>
							<timebase>24</timebase>
							<ntsc>FALSE</ntsc>
						</rate>
						<start>16225</start>
						<end>16259</end>
						<in>980</in>
						<out>1014</out>
						<pproTicksIn>10372320000000</pproTicksIn>
						<pproTicksOut>10732176000000</pproTicksOut>
						<file id="file-69"/>
						<sourcetrack>
							<mediatype>audio</mediatype>
							<trackindex>1</trackindex>
						</sourcetrack>
						<link>
							<linkclipref>clipitem-151</linkclipref>
							<mediatype>video</mediatype>
							<trackindex>1</trackindex>
							<clipindex>153</clipindex>
						</link>
						<link>
							<linkclipref>clipitem-574</linkclipref>
							<mediatype>audio</mediatype>
							<trackindex>1</trackindex>
							<clipindex>98</clipindex>
							<groupindex>1</groupindex>
						</link>
						<link>
							<linkclipref>clipitem-738</linkclipref>
							<mediatype>audio</mediatype>
							<trackindex>2</trackindex>
							<clipindex>98</clipindex>
							<groupindex>1</groupindex>
						</link>
						<logginginfo>
							<description></description>
							<scene></scene>
							<shottake></shottake>
							<lognote></lognote>
							<good></good>
							<originalvideofilename></originalvideofilename>
							<originalaudiofilename></originalaudiofilename>
						</logginginfo>
						<colorinfo>
							<lut></lut>
							<lut1></lut1>
							<asc_sop></asc_sop>
							<asc_sat></asc_sat>
							<lut2></lut2>
						</colorinfo>
						<labels>
							<label2>Iris</label2>
						</labels>
					</clipitem>
					<clipitem id="clipitem-575" premiereChannelType="stereo">
						<masterclipid>masterclip-69</masterclipid>
						<name>A003_05300849_C080.mp4</name>
						<enabled>TRUE</enabled>
						<duration>3599</duration>
						<rate>
							<timebase>24</timebase>
							<ntsc>FALSE</ntsc>
						</rate>
						<start>16357</start>
						<end>16414</end>
						<in>1077</in>
						<out>1134</out>
						<pproTicksIn>11398968000000</pproTicksIn>
						<pproTicksOut>12002256000000</pproTicksOut>
						<file id="file-69"/>
						<sourcetrack>
							<mediatype>audio</mediatype>
							<trackindex>1</trackindex>
						</sourcetrack>
						<link>
							<linkclipref>clipitem-156</linkclipref>
							<mediatype>video</mediatype>
							<trackindex>1</trackindex>
							<clipindex>158</clipindex>
						</link>
						<link>
							<linkclipref>clipitem-575</linkclipref>
							<mediatype>audio</mediatype>
							<trackindex>1</trackindex>
							<clipindex>99</clipindex>
							<groupindex>1</groupindex>
						</link>
						<link>
							<linkclipref>clipitem-739</linkclipref>
							<mediatype>audio</mediatype>
							<trackindex>2</trackindex>
							<clipindex>99</clipindex>
							<groupindex>1</groupindex>
						</link>
						<logginginfo>
							<description></description>
							<scene></scene>
							<shottake></shottake>
							<lognote></lognote>
							<good></good>
							<originalvideofilename></originalvideofilename>
							<originalaudiofilename></originalaudiofilename>
						</logginginfo>
						<colorinfo>
							<lut></lut>
							<lut1></lut1>
							<asc_sop></asc_sop>
							<asc_sat></asc_sat>
							<lut2></lut2>
						</colorinfo>
						<labels>
							<label2>Iris</label2>
						</labels>
					</clipitem>
					<clipitem id="clipitem-576" premiereChannelType="stereo">
						<masterclipid>masterclip-69</masterclipid>
						<name>A003_05300849_C080.mp4</name>
						<enabled>TRUE</enabled>
						<duration>3599</duration>
						<rate>
							<timebase>24</timebase>
							<ntsc>FALSE</ntsc>
						</rate>
						<start>16414</start>
						<end>16449</end>
						<in>1134</in>
						<out>1169</out>
						<pproTicksIn>12002256000000</pproTicksIn>
						<pproTicksOut>12372696000000</pproTicksOut>
						<file id="file-69"/>
						<sourcetrack>
							<mediatype>audio</mediatype>
							<trackindex>1</trackindex>
						</sourcetrack>
						<link>
							<linkclipref>clipitem-576</linkclipref>
							<mediatype>audio</mediatype>
							<trackindex>1</trackindex>
							<clipindex>100</clipindex>
							<groupindex>1</groupindex>
						</link>
						<link>
							<linkclipref>clipitem-740</linkclipref>
							<mediatype>audio</mediatype>
							<trackindex>2</trackindex>
							<clipindex>100</clipindex>
							<groupindex>1</groupindex>
						</link>
						<logginginfo>
							<description></description>
							<scene></scene>
							<shottake></shottake>
							<lognote></lognote>
							<good></good>
							<originalvideofilename></originalvideofilename>
							<originalaudiofilename></originalaudiofilename>
						</logginginfo>
						<colorinfo>
							<lut></lut>
							<lut1></lut1>
							<asc_sop></asc_sop>
							<asc_sat></asc_sat>
							<lut2></lut2>
						</colorinfo>
						<labels>
							<label2>Iris</label2>
						</labels>
					</clipitem>
					<clipitem id="clipitem-577" premiereChannelType="stereo">
						<masterclipid>masterclip-69</masterclipid>
						<name>A003_05300849_C080.mp4</name>
						<enabled>TRUE</enabled>
						<duration>3599</duration>
						<rate>
							<timebase>24</timebase>
							<ntsc>FALSE</ntsc>
						</rate>
						<start>16449</start>
						<end>16481</end>
						<in>1169</in>
						<out>1201</out>
						<pproTicksIn>12372696000000</pproTicksIn>
						<pproTicksOut>12711384000000</pproTicksOut>
						<file id="file-69"/>
						<sourcetrack>
							<mediatype>audio</mediatype>
							<trackindex>1</trackindex>
						</sourcetrack>
						<link>
							<linkclipref>clipitem-577</linkclipref>
							<mediatype>audio</mediatype>
							<trackindex>1</trackindex>
							<clipindex>101</clipindex>
							<groupindex>1</groupindex>
						</link>
						<link>
							<linkclipref>clipitem-741</linkclipref>
							<mediatype>audio</mediatype>
							<trackindex>2</trackindex>
							<clipindex>101</clipindex>
							<groupindex>1</groupindex>
						</link>
						<logginginfo>
							<description></description>
							<scene></scene>
							<shottake></shottake>
							<lognote></lognote>
							<good></good>
							<originalvideofilename></originalvideofilename>
							<originalaudiofilename></originalaudiofilename>
						</logginginfo>
						<colorinfo>
							<lut></lut>
							<lut1></lut1>
							<asc_sop></asc_sop>
							<asc_sat></asc_sat>
							<lut2></lut2>
						</colorinfo>
						<labels>
							<label2>Iris</label2>
						</labels>
					</clipitem>
					<clipitem id="clipitem-578" premiereChannelType="stereo">
						<masterclipid>masterclip-76</masterclipid>
						<name>A003_05301000_C105.mp4</name>
						<enabled>TRUE</enabled>
						<duration>1746</duration>
						<rate>
							<timebase>24</timebase>
							<ntsc>FALSE</ntsc>
						</rate>
						<start>16536</start>
						<end>16621</end>
						<in>379</in>
						<out>464</out>
						<pproTicksIn>4011336000000</pproTicksIn>
						<pproTicksOut>4910976000000</pproTicksOut>
						<file id="file-76"/>
						<sourcetrack>
							<mediatype>audio</mediatype>
							<trackindex>1</trackindex>
						</sourcetrack>
						<link>
							<linkclipref>clipitem-161</linkclipref>
							<mediatype>video</mediatype>
							<trackindex>1</trackindex>
							<clipindex>163</clipindex>
						</link>
						<link>
							<linkclipref>clipitem-578</linkclipref>
							<mediatype>audio</mediatype>
							<trackindex>1</trackindex>
							<clipindex>102</clipindex>
							<groupindex>1</groupindex>
						</link>
						<link>
							<linkclipref>clipitem-742</linkclipref>
							<mediatype>audio</mediatype>
							<trackindex>2</trackindex>
							<clipindex>102</clipindex>
							<groupindex>1</groupindex>
						</link>
						<logginginfo>
							<description></description>
							<scene></scene>
							<shottake></shottake>
							<lognote></lognote>
							<good></good>
							<originalvideofilename></originalvideofilename>
							<originalaudiofilename></originalaudiofilename>
						</logginginfo>
						<colorinfo>
							<lut></lut>
							<lut1></lut1>
							<asc_sop></asc_sop>
							<asc_sat></asc_sat>
							<lut2></lut2>
						</colorinfo>
						<labels>
							<label2>Iris</label2>
						</labels>
					</clipitem>
					<clipitem id="clipitem-579" premiereChannelType="stereo">
						<masterclipid>masterclip-69</masterclipid>
						<name>A003_05300849_C080.mp4</name>
						<enabled>TRUE</enabled>
						<duration>3599</duration>
						<rate>
							<timebase>24</timebase>
							<ntsc>FALSE</ntsc>
						</rate>
						<start>16676</start>
						<end>16747</end>
						<in>1322</in>
						<out>1393</out>
						<pproTicksIn>13992048000000</pproTicksIn>
						<pproTicksOut>14743512000000</pproTicksOut>
						<file id="file-69"/>
						<sourcetrack>
							<mediatype>audio</mediatype>
							<trackindex>1</trackindex>
						</sourcetrack>
						<link>
							<linkclipref>clipitem-163</linkclipref>
							<mediatype>video</mediatype>
							<trackindex>1</trackindex>
							<clipindex>165</clipindex>
						</link>
						<link>
							<linkclipref>clipitem-579</linkclipref>
							<mediatype>audio</mediatype>
							<trackindex>1</trackindex>
							<clipindex>103</clipindex>
							<groupindex>1</groupindex>
						</link>
						<link>
							<linkclipref>clipitem-743</linkclipref>
							<mediatype>audio</mediatype>
							<trackindex>2</trackindex>
							<clipindex>103</clipindex>
							<groupindex>1</groupindex>
						</link>
						<logginginfo>
							<description></description>
							<scene></scene>
							<shottake></shottake>
							<lognote></lognote>
							<good></good>
							<originalvideofilename></originalvideofilename>
							<originalaudiofilename></originalaudiofilename>
						</logginginfo>
						<colorinfo>
							<lut></lut>
							<lut1></lut1>
							<asc_sop></asc_sop>
							<asc_sat></asc_sat>
							<lut2></lut2>
						</colorinfo>
						<labels>
							<label2>Iris</label2>
						</labels>
					</clipitem>
					<clipitem id="clipitem-580" premiereChannelType="stereo">
						<masterclipid>masterclip-76</masterclipid>
						<name>A003_05301000_C105.mp4</name>
						<enabled>TRUE</enabled>
						<duration>1746</duration>
						<rate>
							<timebase>24</timebase>
							<ntsc>FALSE</ntsc>
						</rate>
						<start>16776</start>
						<end>16865</end>
						<in>558</in>
						<out>647</out>
						<pproTicksIn>5905872000000</pproTicksIn>
						<pproTicksOut>6847848000000</pproTicksOut>
						<file id="file-76"/>
						<sourcetrack>
							<mediatype>audio</mediatype>
							<trackindex>1</trackindex>
						</sourcetrack>
						<link>
							<linkclipref>clipitem-165</linkclipref>
							<mediatype>video</mediatype>
							<trackindex>1</trackindex>
							<clipindex>167</clipindex>
						</link>
						<link>
							<linkclipref>clipitem-580</linkclipref>
							<mediatype>audio</mediatype>
							<trackindex>1</trackindex>
							<clipindex>104</clipindex>
							<groupindex>1</groupindex>
						</link>
						<link>
							<linkclipref>clipitem-744</linkclipref>
							<mediatype>audio</mediatype>
							<trackindex>2</trackindex>
							<clipindex>104</clipindex>
							<groupindex>1</groupindex>
						</link>
						<logginginfo>
							<description></description>
							<scene></scene>
							<shottake></shottake>
							<lognote></lognote>
							<good></good>
							<originalvideofilename></originalvideofilename>
							<originalaudiofilename></originalaudiofilename>
						</logginginfo>
						<colorinfo>
							<lut></lut>
							<lut1></lut1>
							<asc_sop></asc_sop>
							<asc_sat></asc_sat>
							<lut2></lut2>
						</colorinfo>
						<labels>
							<label2>Iris</label2>
						</labels>
					</clipitem>
					<clipitem id="clipitem-581" premiereChannelType="stereo">
						<masterclipid>masterclip-76</masterclipid>
						<name>A003_05301000_C105.mp4</name>
						<enabled>TRUE</enabled>
						<duration>1746</duration>
						<rate>
							<timebase>24</timebase>
							<ntsc>FALSE</ntsc>
						</rate>
						<start>16865</start>
						<end>16918</end>
						<in>647</in>
						<out>700</out>
						<pproTicksIn>6847848000000</pproTicksIn>
						<pproTicksOut>7408800000000</pproTicksOut>
						<file id="file-76"/>
						<sourcetrack>
							<mediatype>audio</mediatype>
							<trackindex>1</trackindex>
						</sourcetrack>
						<link>
							<linkclipref>clipitem-166</linkclipref>
							<mediatype>video</mediatype>
							<trackindex>1</trackindex>
							<clipindex>168</clipindex>
						</link>
						<link>
							<linkclipref>clipitem-581</linkclipref>
							<mediatype>audio</mediatype>
							<trackindex>1</trackindex>
							<clipindex>105</clipindex>
							<groupindex>1</groupindex>
						</link>
						<link>
							<linkclipref>clipitem-745</linkclipref>
							<mediatype>audio</mediatype>
							<trackindex>2</trackindex>
							<clipindex>105</clipindex>
							<groupindex>1</groupindex>
						</link>
						<logginginfo>
							<description></description>
							<scene></scene>
							<shottake></shottake>
							<lognote></lognote>
							<good></good>
							<originalvideofilename></originalvideofilename>
							<originalaudiofilename></originalaudiofilename>
						</logginginfo>
						<colorinfo>
							<lut></lut>
							<lut1></lut1>
							<asc_sop></asc_sop>
							<asc_sat></asc_sat>
							<lut2></lut2>
						</colorinfo>
						<labels>
							<label2>Iris</label2>
						</labels>
					</clipitem>
					<clipitem id="clipitem-582" premiereChannelType="stereo">
						<masterclipid>masterclip-76</masterclipid>
						<name>A003_05301000_C105.mp4</name>
						<enabled>TRUE</enabled>
						<duration>1746</duration>
						<rate>
							<timebase>24</timebase>
							<ntsc>FALSE</ntsc>
						</rate>
						<start>16918</start>
						<end>16929</end>
						<in>700</in>
						<out>711</out>
						<pproTicksIn>7408800000000</pproTicksIn>
						<pproTicksOut>7525224000000</pproTicksOut>
						<file id="file-76"/>
						<sourcetrack>
							<mediatype>audio</mediatype>
							<trackindex>1</trackindex>
						</sourcetrack>
						<link>
							<linkclipref>clipitem-167</linkclipref>
							<mediatype>video</mediatype>
							<trackindex>1</trackindex>
							<clipindex>169</clipindex>
						</link>
						<link>
							<linkclipref>clipitem-582</linkclipref>
							<mediatype>audio</mediatype>
							<trackindex>1</trackindex>
							<clipindex>106</clipindex>
							<groupindex>1</groupindex>
						</link>
						<link>
							<linkclipref>clipitem-746</linkclipref>
							<mediatype>audio</mediatype>
							<trackindex>2</trackindex>
							<clipindex>106</clipindex>
							<groupindex>1</groupindex>
						</link>
						<logginginfo>
							<description></description>
							<scene></scene>
							<shottake></shottake>
							<lognote></lognote>
							<good></good>
							<originalvideofilename></originalvideofilename>
							<originalaudiofilename></originalaudiofilename>
						</logginginfo>
						<colorinfo>
							<lut></lut>
							<lut1></lut1>
							<asc_sop></asc_sop>
							<asc_sat></asc_sat>
							<lut2></lut2>
						</colorinfo>
						<labels>
							<label2>Iris</label2>
						</labels>
					</clipitem>
					<clipitem id="clipitem-583" premiereChannelType="stereo">
						<masterclipid>masterclip-80</masterclipid>
						<name>A008_10160005_C166.mov</name>
						<enabled>TRUE</enabled>
						<duration>8440</duration>
						<rate>
							<timebase>24</timebase>
							<ntsc>FALSE</ntsc>
						</rate>
						<start>17112</start>
						<end>17187</end>
						<in>6507</in>
						<out>6582</out>
						<pproTicksIn>68870088000000</pproTicksIn>
						<pproTicksOut>69663888000000</pproTicksOut>
						<file id="file-80"/>
						<sourcetrack>
							<mediatype>audio</mediatype>
							<trackindex>1</trackindex>
						</sourcetrack>
						<link>
							<linkclipref>clipitem-583</linkclipref>
							<mediatype>audio</mediatype>
							<trackindex>1</trackindex>
							<clipindex>107</clipindex>
							<groupindex>1</groupindex>
						</link>
						<link>
							<linkclipref>clipitem-747</linkclipref>
							<mediatype>audio</mediatype>
							<trackindex>2</trackindex>
							<clipindex>107</clipindex>
							<groupindex>1</groupindex>
						</link>
						<logginginfo>
							<description></description>
							<scene></scene>
							<shottake></shottake>
							<lognote></lognote>
							<good></good>
							<originalvideofilename></originalvideofilename>
							<originalaudiofilename></originalaudiofilename>
						</logginginfo>
						<colorinfo>
							<lut></lut>
							<lut1></lut1>
							<asc_sop></asc_sop>
							<asc_sat></asc_sat>
							<lut2></lut2>
						</colorinfo>
						<labels>
							<label2>Iris</label2>
						</labels>
					</clipitem>
					<clipitem id="clipitem-584" premiereChannelType="stereo">
						<masterclipid>masterclip-88</masterclipid>
						<name>A002_05291105_C271.mp4</name>
						<enabled>TRUE</enabled>
						<duration>833</duration>
						<rate>
							<timebase>24</timebase>
							<ntsc>FALSE</ntsc>
						</rate>
						<start>17734</start>
						<end>17814</end>
						<in>175</in>
						<out>255</out>
						<pproTicksIn>1852200000000</pproTicksIn>
						<pproTicksOut>2698920000000</pproTicksOut>
						<file id="file-88"/>
						<sourcetrack>
							<mediatype>audio</mediatype>
							<trackindex>1</trackindex>
						</sourcetrack>
						<link>
							<linkclipref>clipitem-187</linkclipref>
							<mediatype>video</mediatype>
							<trackindex>1</trackindex>
							<clipindex>195</clipindex>
						</link>
						<link>
							<linkclipref>clipitem-584</linkclipref>
							<mediatype>audio</mediatype>
							<trackindex>1</trackindex>
							<clipindex>108</clipindex>
							<groupindex>1</groupindex>
						</link>
						<link>
							<linkclipref>clipitem-748</linkclipref>
							<mediatype>audio</mediatype>
							<trackindex>2</trackindex>
							<clipindex>108</clipindex>
							<groupindex>1</groupindex>
						</link>
						<logginginfo>
							<description></description>
							<scene></scene>
							<shottake></shottake>
							<lognote></lognote>
							<good></good>
							<originalvideofilename></originalvideofilename>
							<originalaudiofilename></originalaudiofilename>
						</logginginfo>
						<colorinfo>
							<lut></lut>
							<lut1></lut1>
							<asc_sop></asc_sop>
							<asc_sat></asc_sat>
							<lut2></lut2>
						</colorinfo>
						<labels>
							<label2>Iris</label2>
						</labels>
					</clipitem>
					<clipitem id="clipitem-585" premiereChannelType="stereo">
						<masterclipid>masterclip-28</masterclipid>
						<name>A006_06192201_C212.mp4</name>
						<enabled>TRUE</enabled>
						<duration>1523</duration>
						<rate>
							<timebase>24</timebase>
							<ntsc>FALSE</ntsc>
						</rate>
						<start>17814</start>
						<end>17861</end>
						<in>1007</in>
						<out>1054</out>
						<pproTicksIn>10658088000000</pproTicksIn>
						<pproTicksOut>11155536000000</pproTicksOut>
						<file id="file-28"/>
						<sourcetrack>
							<mediatype>audio</mediatype>
							<trackindex>1</trackindex>
						</sourcetrack>
						<link>
							<linkclipref>clipitem-188</linkclipref>
							<mediatype>video</mediatype>
							<trackindex>1</trackindex>
							<clipindex>197</clipindex>
						</link>
						<link>
							<linkclipref>clipitem-585</linkclipref>
							<mediatype>audio</mediatype>
							<trackindex>1</trackindex>
							<clipindex>109</clipindex>
							<groupindex>1</groupindex>
						</link>
						<link>
							<linkclipref>clipitem-749</linkclipref>
							<mediatype>audio</mediatype>
							<trackindex>2</trackindex>
							<clipindex>109</clipindex>
							<groupindex>1</groupindex>
						</link>
						<logginginfo>
							<description></description>
							<scene></scene>
							<shottake></shottake>
							<lognote></lognote>
							<good></good>
							<originalvideofilename></originalvideofilename>
							<originalaudiofilename></originalaudiofilename>
						</logginginfo>
						<colorinfo>
							<lut></lut>
							<lut1></lut1>
							<asc_sop></asc_sop>
							<asc_sat></asc_sat>
							<lut2></lut2>
						</colorinfo>
						<labels>
							<label2>Iris</label2>
						</labels>
					</clipitem>
					<clipitem id="clipitem-586" premiereChannelType="stereo">
						<masterclipid>masterclip-233</masterclipid>
						<name>Audio 3_57.wav</name>
						<enabled>TRUE</enabled>
						<duration>297</duration>
						<rate>
							<timebase>24</timebase>
							<ntsc>FALSE</ntsc>
						</rate>
						<start>18280</start>
						<end>18497</end>
						<in>45</in>
						<out>262</out>
						<pproTicksIn>476280000000</pproTicksIn>
						<pproTicksOut>2773008000000</pproTicksOut>
						<file id="file-233">
							<name>Audio 3_57.wav</name>
							<pathurl>file://localhost/D%3a/aura%20premier%20pro/Adobe%20Premiere%20Pro%20Captured%20Audio/TESTING_MADESH/Audio%203_57.wav</pathurl>
							<rate>
								<timebase>30</timebase>
								<ntsc>TRUE</ntsc>
							</rate>
							<duration>371</duration>
							<timecode>
								<rate>
									<timebase>30</timebase>
									<ntsc>TRUE</ntsc>
								</rate>
								<string>00;00;00;00</string>
								<frame>0</frame>
								<displayformat>DF</displayformat>
							</timecode>
							<media>
								<audio>
									<samplecharacteristics>
										<depth>16</depth>
										<samplerate>48000</samplerate>
									</samplecharacteristics>
									<channelcount>2</channelcount>
								</audio>
							</media>
						</file>
						<sourcetrack>
							<mediatype>audio</mediatype>
							<trackindex>1</trackindex>
						</sourcetrack>
						<link>
							<linkclipref>clipitem-586</linkclipref>
							<mediatype>audio</mediatype>
							<trackindex>1</trackindex>
							<clipindex>110</clipindex>
							<groupindex>1</groupindex>
						</link>
						<link>
							<linkclipref>clipitem-750</linkclipref>
							<mediatype>audio</mediatype>
							<trackindex>2</trackindex>
							<clipindex>110</clipindex>
							<groupindex>1</groupindex>
						</link>
						<logginginfo>
							<description></description>
							<scene></scene>
							<shottake></shottake>
							<lognote></lognote>
							<good></good>
							<originalvideofilename></originalvideofilename>
							<originalaudiofilename></originalaudiofilename>
						</logginginfo>
						<colorinfo>
							<lut></lut>
							<lut1></lut1>
							<asc_sop></asc_sop>
							<asc_sat></asc_sat>
							<lut2></lut2>
						</colorinfo>
						<labels>
							<label2>Caribbean</label2>
						</labels>
					</clipitem>
					<clipitem id="clipitem-587" premiereChannelType="stereo">
						<masterclipid>masterclip-91</masterclipid>
						<name>A003_05301013_C111.mp4</name>
						<enabled>TRUE</enabled>
						<duration>1075</duration>
						<rate>
							<timebase>24</timebase>
							<ntsc>FALSE</ntsc>
						</rate>
						<start>18883</start>
						<end>18954</end>
						<in>250</in>
						<out>321</out>
						<pproTicksIn>2646000000000</pproTicksIn>
						<pproTicksOut>3397464000000</pproTicksOut>
						<file id="file-91"/>
						<sourcetrack>
							<mediatype>audio</mediatype>
							<trackindex>1</trackindex>
						</sourcetrack>
						<filter>
							<effect>
								<name>Audio Levels</name>
								<effectid>audiolevels</effectid>
								<effectcategory>audiolevels</effectcategory>
								<effecttype>audiolevels</effecttype>
								<mediatype>audio</mediatype>
								<pproBypass>false</pproBypass>
								<parameter authoringApp="PremierePro">
									<parameterid>level</parameterid>
									<name>Level</name>
									<valuemin>0</valuemin>
									<valuemax>3.98109</valuemax>
									<value>0.074327</value>
								</parameter>
							</effect>
						</filter>
						<link>
							<linkclipref>clipitem-197</linkclipref>
							<mediatype>video</mediatype>
							<trackindex>1</trackindex>
							<clipindex>209</clipindex>
						</link>
						<link>
							<linkclipref>clipitem-587</linkclipref>
							<mediatype>audio</mediatype>
							<trackindex>1</trackindex>
							<clipindex>111</clipindex>
							<groupindex>1</groupindex>
						</link>
						<link>
							<linkclipref>clipitem-751</linkclipref>
							<mediatype>audio</mediatype>
							<trackindex>2</trackindex>
							<clipindex>111</clipindex>
							<groupindex>1</groupindex>
						</link>
						<logginginfo>
							<description></description>
							<scene></scene>
							<shottake></shottake>
							<lognote></lognote>
							<good></good>
							<originalvideofilename></originalvideofilename>
							<originalaudiofilename></originalaudiofilename>
						</logginginfo>
						<colorinfo>
							<lut></lut>
							<lut1></lut1>
							<asc_sop></asc_sop>
							<asc_sat></asc_sat>
							<lut2></lut2>
						</colorinfo>
						<labels>
							<label2>Iris</label2>
						</labels>
					</clipitem>
					<clipitem id="clipitem-588" premiereChannelType="stereo">
						<masterclipid>masterclip-69</masterclipid>
						<name>A003_05300849_C080.mp4</name>
						<enabled>TRUE</enabled>
						<duration>3599</duration>
						<rate>
							<timebase>24</timebase>
							<ntsc>FALSE</ntsc>
						</rate>
						<start>18966</start>
						<end>19190</end>
						<in>2160</in>
						<out>2384</out>
						<pproTicksIn>22861440000000</pproTicksIn>
						<pproTicksOut>25232256000000</pproTicksOut>
						<file id="file-69"/>
						<sourcetrack>
							<mediatype>audio</mediatype>
							<trackindex>1</trackindex>
						</sourcetrack>
						<link>
							<linkclipref>clipitem-198</linkclipref>
							<mediatype>video</mediatype>
							<trackindex>1</trackindex>
							<clipindex>210</clipindex>
						</link>
						<link>
							<linkclipref>clipitem-588</linkclipref>
							<mediatype>audio</mediatype>
							<trackindex>1</trackindex>
							<clipindex>112</clipindex>
							<groupindex>1</groupindex>
						</link>
						<link>
							<linkclipref>clipitem-752</linkclipref>
							<mediatype>audio</mediatype>
							<trackindex>2</trackindex>
							<clipindex>112</clipindex>
							<groupindex>1</groupindex>
						</link>
						<logginginfo>
							<description></description>
							<scene></scene>
							<shottake></shottake>
							<lognote></lognote>
							<good></good>
							<originalvideofilename></originalvideofilename>
							<originalaudiofilename></originalaudiofilename>
						</logginginfo>
						<colorinfo>
							<lut></lut>
							<lut1></lut1>
							<asc_sop></asc_sop>
							<asc_sat></asc_sat>
							<lut2></lut2>
						</colorinfo>
						<labels>
							<label2>Iris</label2>
						</labels>
					</clipitem>
					<clipitem id="clipitem-589" premiereChannelType="stereo">
						<masterclipid>masterclip-93</masterclipid>
						<name>A003_05301049_C127.mp4</name>
						<enabled>TRUE</enabled>
						<duration>422</duration>
						<rate>
							<timebase>24</timebase>
							<ntsc>FALSE</ntsc>
						</rate>
						<start>19190</start>
						<end>19354</end>
						<in>76</in>
						<out>240</out>
						<pproTicksIn>804384000000</pproTicksIn>
						<pproTicksOut>2540160000000</pproTicksOut>
						<file id="file-93"/>
						<sourcetrack>
							<mediatype>audio</mediatype>
							<trackindex>1</trackindex>
						</sourcetrack>
						<link>
							<linkclipref>clipitem-199</linkclipref>
							<mediatype>video</mediatype>
							<trackindex>1</trackindex>
							<clipindex>211</clipindex>
						</link>
						<link>
							<linkclipref>clipitem-589</linkclipref>
							<mediatype>audio</mediatype>
							<trackindex>1</trackindex>
							<clipindex>113</clipindex>
							<groupindex>1</groupindex>
						</link>
						<link>
							<linkclipref>clipitem-753</linkclipref>
							<mediatype>audio</mediatype>
							<trackindex>2</trackindex>
							<clipindex>113</clipindex>
							<groupindex>1</groupindex>
						</link>
						<logginginfo>
							<description></description>
							<scene></scene>
							<shottake></shottake>
							<lognote></lognote>
							<good></good>
							<originalvideofilename></originalvideofilename>
							<originalaudiofilename></originalaudiofilename>
						</logginginfo>
						<colorinfo>
							<lut></lut>
							<lut1></lut1>
							<asc_sop></asc_sop>
							<asc_sat></asc_sat>
							<lut2></lut2>
						</colorinfo>
						<labels>
							<label2>Iris</label2>
						</labels>
					</clipitem>
					<clipitem id="clipitem-590" premiereChannelType="stereo">
						<masterclipid>masterclip-79</masterclipid>
						<name>A003_05301044_C122.mp4</name>
						<enabled>TRUE</enabled>
						<duration>5376</duration>
						<rate>
							<timebase>24</timebase>
							<ntsc>FALSE</ntsc>
						</rate>
						<start>19403</start>
						<end>19432</end>
						<in>2367</in>
						<out>2396</out>
						<pproTicksIn>25052328000000</pproTicksIn>
						<pproTicksOut>25359264000000</pproTicksOut>
						<file id="file-79"/>
						<sourcetrack>
							<mediatype>audio</mediatype>
							<trackindex>1</trackindex>
						</sourcetrack>
						<link>
							<linkclipref>clipitem-590</linkclipref>
							<mediatype>audio</mediatype>
							<trackindex>1</trackindex>
							<clipindex>114</clipindex>
							<groupindex>1</groupindex>
						</link>
						<link>
							<linkclipref>clipitem-754</linkclipref>
							<mediatype>audio</mediatype>
							<trackindex>2</trackindex>
							<clipindex>114</clipindex>
							<groupindex>1</groupindex>
						</link>
						<logginginfo>
							<description></description>
							<scene></scene>
							<shottake></shottake>
							<lognote></lognote>
							<good></good>
							<originalvideofilename></originalvideofilename>
							<originalaudiofilename></originalaudiofilename>
						</logginginfo>
						<colorinfo>
							<lut></lut>
							<lut1></lut1>
							<asc_sop></asc_sop>
							<asc_sat></asc_sat>
							<lut2></lut2>
						</colorinfo>
						<labels>
							<label2>Iris</label2>
						</labels>
					</clipitem>
					<clipitem id="clipitem-591" premiereChannelType="stereo">
						<masterclipid>masterclip-79</masterclipid>
						<name>A003_05301044_C122.mp4</name>
						<enabled>TRUE</enabled>
						<duration>5376</duration>
						<rate>
							<timebase>24</timebase>
							<ntsc>FALSE</ntsc>
						</rate>
						<start>19432</start>
						<end>19462</end>
						<in>2396</in>
						<out>2426</out>
						<pproTicksIn>25359264000000</pproTicksIn>
						<pproTicksOut>25676784000000</pproTicksOut>
						<file id="file-79"/>
						<sourcetrack>
							<mediatype>audio</mediatype>
							<trackindex>1</trackindex>
						</sourcetrack>
						<link>
							<linkclipref>clipitem-591</linkclipref>
							<mediatype>audio</mediatype>
							<trackindex>1</trackindex>
							<clipindex>115</clipindex>
							<groupindex>1</groupindex>
						</link>
						<link>
							<linkclipref>clipitem-755</linkclipref>
							<mediatype>audio</mediatype>
							<trackindex>2</trackindex>
							<clipindex>115</clipindex>
							<groupindex>1</groupindex>
						</link>
						<logginginfo>
							<description></description>
							<scene></scene>
							<shottake></shottake>
							<lognote></lognote>
							<good></good>
							<originalvideofilename></originalvideofilename>
							<originalaudiofilename></originalaudiofilename>
						</logginginfo>
						<colorinfo>
							<lut></lut>
							<lut1></lut1>
							<asc_sop></asc_sop>
							<asc_sat></asc_sat>
							<lut2></lut2>
						</colorinfo>
						<labels>
							<label2>Iris</label2>
						</labels>
					</clipitem>
					<clipitem id="clipitem-592" premiereChannelType="stereo">
						<masterclipid>masterclip-79</masterclipid>
						<name>A003_05301044_C122.mp4</name>
						<enabled>TRUE</enabled>
						<duration>5376</duration>
						<rate>
							<timebase>24</timebase>
							<ntsc>FALSE</ntsc>
						</rate>
						<start>19462</start>
						<end>19471</end>
						<in>2426</in>
						<out>2435</out>
						<pproTicksIn>25676784000000</pproTicksIn>
						<pproTicksOut>25772040000000</pproTicksOut>
						<file id="file-79"/>
						<sourcetrack>
							<mediatype>audio</mediatype>
							<trackindex>1</trackindex>
						</sourcetrack>
						<link>
							<linkclipref>clipitem-592</linkclipref>
							<mediatype>audio</mediatype>
							<trackindex>1</trackindex>
							<clipindex>116</clipindex>
							<groupindex>1</groupindex>
						</link>
						<link>
							<linkclipref>clipitem-756</linkclipref>
							<mediatype>audio</mediatype>
							<trackindex>2</trackindex>
							<clipindex>116</clipindex>
							<groupindex>1</groupindex>
						</link>
						<logginginfo>
							<description></description>
							<scene></scene>
							<shottake></shottake>
							<lognote></lognote>
							<good></good>
							<originalvideofilename></originalvideofilename>
							<originalaudiofilename></originalaudiofilename>
						</logginginfo>
						<colorinfo>
							<lut></lut>
							<lut1></lut1>
							<asc_sop></asc_sop>
							<asc_sat></asc_sat>
							<lut2></lut2>
						</colorinfo>
						<labels>
							<label2>Iris</label2>
						</labels>
					</clipitem>
					<clipitem id="clipitem-593" premiereChannelType="stereo">
						<masterclipid>masterclip-94</masterclipid>
						<name>A003_05301026_C116.mp4</name>
						<enabled>TRUE</enabled>
						<duration>1975</duration>
						<rate>
							<timebase>24</timebase>
							<ntsc>FALSE</ntsc>
						</rate>
						<start>19502</start>
						<end>19651</end>
						<in>1106</in>
						<out>1255</out>
						<pproTicksIn>11705904000000</pproTicksIn>
						<pproTicksOut>13282920000000</pproTicksOut>
						<file id="file-94"/>
						<sourcetrack>
							<mediatype>audio</mediatype>
							<trackindex>1</trackindex>
						</sourcetrack>
						<link>
							<linkclipref>clipitem-593</linkclipref>
							<mediatype>audio</mediatype>
							<trackindex>1</trackindex>
							<clipindex>117</clipindex>
							<groupindex>1</groupindex>
						</link>
						<link>
							<linkclipref>clipitem-757</linkclipref>
							<mediatype>audio</mediatype>
							<trackindex>2</trackindex>
							<clipindex>117</clipindex>
							<groupindex>1</groupindex>
						</link>
						<logginginfo>
							<description></description>
							<scene></scene>
							<shottake></shottake>
							<lognote></lognote>
							<good></good>
							<originalvideofilename></originalvideofilename>
							<originalaudiofilename></originalaudiofilename>
						</logginginfo>
						<colorinfo>
							<lut></lut>
							<lut1></lut1>
							<asc_sop></asc_sop>
							<asc_sat></asc_sat>
							<lut2></lut2>
						</colorinfo>
						<labels>
							<label2>Iris</label2>
						</labels>
					</clipitem>
					<clipitem id="clipitem-594" premiereChannelType="stereo">
						<masterclipid>masterclip-69</masterclipid>
						<name>A003_05300849_C080.mp4</name>
						<enabled>TRUE</enabled>
						<duration>3599</duration>
						<rate>
							<timebase>24</timebase>
							<ntsc>FALSE</ntsc>
						</rate>
						<start>19682</start>
						<end>19786</end>
						<in>2965</in>
						<out>3069</out>
						<pproTicksIn>31381560000000</pproTicksIn>
						<pproTicksOut>32482296000000</pproTicksOut>
						<file id="file-69"/>
						<sourcetrack>
							<mediatype>audio</mediatype>
							<trackindex>1</trackindex>
						</sourcetrack>
						<link>
							<linkclipref>clipitem-594</linkclipref>
							<mediatype>audio</mediatype>
							<trackindex>1</trackindex>
							<clipindex>118</clipindex>
							<groupindex>1</groupindex>
						</link>
						<link>
							<linkclipref>clipitem-758</linkclipref>
							<mediatype>audio</mediatype>
							<trackindex>2</trackindex>
							<clipindex>118</clipindex>
							<groupindex>1</groupindex>
						</link>
						<logginginfo>
							<description></description>
							<scene></scene>
							<shottake></shottake>
							<lognote></lognote>
							<good></good>
							<originalvideofilename></originalvideofilename>
							<originalaudiofilename></originalaudiofilename>
						</logginginfo>
						<colorinfo>
							<lut></lut>
							<lut1></lut1>
							<asc_sop></asc_sop>
							<asc_sat></asc_sat>
							<lut2></lut2>
						</colorinfo>
						<labels>
							<label2>Iris</label2>
						</labels>
					</clipitem>
					<clipitem id="clipitem-595" premiereChannelType="stereo">
						<masterclipid>masterclip-69</masterclipid>
						<name>A003_05300849_C080.mp4</name>
						<enabled>TRUE</enabled>
						<duration>3599</duration>
						<rate>
							<timebase>24</timebase>
							<ntsc>FALSE</ntsc>
						</rate>
						<start>19786</start>
						<end>20040</end>
						<in>3100</in>
						<out>3354</out>
						<pproTicksIn>32810400000000</pproTicksIn>
						<pproTicksOut>35498736000000</pproTicksOut>
						<file id="file-69"/>
						<sourcetrack>
							<mediatype>audio</mediatype>
							<trackindex>1</trackindex>
						</sourcetrack>
						<link>
							<linkclipref>clipitem-595</linkclipref>
							<mediatype>audio</mediatype>
							<trackindex>1</trackindex>
							<clipindex>119</clipindex>
							<groupindex>1</groupindex>
						</link>
						<link>
							<linkclipref>clipitem-759</linkclipref>
							<mediatype>audio</mediatype>
							<trackindex>2</trackindex>
							<clipindex>119</clipindex>
							<groupindex>1</groupindex>
						</link>
						<logginginfo>
							<description></description>
							<scene></scene>
							<shottake></shottake>
							<lognote></lognote>
							<good></good>
							<originalvideofilename></originalvideofilename>
							<originalaudiofilename></originalaudiofilename>
						</logginginfo>
						<colorinfo>
							<lut></lut>
							<lut1></lut1>
							<asc_sop></asc_sop>
							<asc_sat></asc_sat>
							<lut2></lut2>
						</colorinfo>
						<labels>
							<label2>Iris</label2>
						</labels>
					</clipitem>
					<clipitem id="clipitem-596" premiereChannelType="stereo">
						<masterclipid>masterclip-234</masterclipid>
						<name>Audio 3_34.wav</name>
						<enabled>TRUE</enabled>
						<duration>2052</duration>
						<rate>
							<timebase>24</timebase>
							<ntsc>FALSE</ntsc>
						</rate>
						<start>20360</start>
						<end>20466</end>
						<in>31</in>
						<out>138</out>
						<pproTicksIn>328104000000</pproTicksIn>
						<pproTicksOut>1460592000000</pproTicksOut>
						<file id="file-234">
							<name>Audio 3_34.wav</name>
							<pathurl>file://localhost/D%3a/aura%20premier%20pro/Adobe%20Premiere%20Pro%20Captured%20Audio/TESTING_MADESH/Audio%203_34.wav</pathurl>
							<rate>
								<timebase>30</timebase>
								<ntsc>TRUE</ntsc>
							</rate>
							<duration>2563</duration>
							<timecode>
								<rate>
									<timebase>30</timebase>
									<ntsc>TRUE</ntsc>
								</rate>
								<string>00;00;00;00</string>
								<frame>0</frame>
								<displayformat>DF</displayformat>
							</timecode>
							<media>
								<audio>
									<samplecharacteristics>
										<depth>16</depth>
										<samplerate>48000</samplerate>
									</samplecharacteristics>
									<channelcount>2</channelcount>
								</audio>
							</media>
						</file>
						<sourcetrack>
							<mediatype>audio</mediatype>
							<trackindex>1</trackindex>
						</sourcetrack>
						<filter>
							<effect>
								<name>Audio Levels</name>
								<effectid>audiolevels</effectid>
								<effectcategory>audiolevels</effectcategory>
								<effecttype>audiolevels</effecttype>
								<mediatype>audio</mediatype>
								<pproBypass>false</pproBypass>
								<parameter authoringApp="PremierePro">
									<parameterid>level</parameterid>
									<name>Level</name>
									<valuemin>0</valuemin>
									<valuemax>3.98109</valuemax>
									<value>0.612214</value>
								</parameter>
							</effect>
						</filter>
						<link>
							<linkclipref>clipitem-596</linkclipref>
							<mediatype>audio</mediatype>
							<trackindex>1</trackindex>
							<clipindex>120</clipindex>
							<groupindex>1</groupindex>
						</link>
						<link>
							<linkclipref>clipitem-760</linkclipref>
							<mediatype>audio</mediatype>
							<trackindex>2</trackindex>
							<clipindex>120</clipindex>
							<groupindex>1</groupindex>
						</link>
						<logginginfo>
							<description></description>
							<scene></scene>
							<shottake></shottake>
							<lognote></lognote>
							<good></good>
							<originalvideofilename></originalvideofilename>
							<originalaudiofilename></originalaudiofilename>
						</logginginfo>
						<colorinfo>
							<lut></lut>
							<lut1></lut1>
							<asc_sop></asc_sop>
							<asc_sat></asc_sat>
							<lut2></lut2>
						</colorinfo>
						<labels>
							<label2>Caribbean</label2>
						</labels>
					</clipitem>
					<clipitem id="clipitem-597" premiereChannelType="stereo">
						<masterclipid>masterclip-234</masterclipid>
						<name>Audio 3_34.wav</name>
						<enabled>TRUE</enabled>
						<duration>2052</duration>
						<rate>
							<timebase>24</timebase>
							<ntsc>FALSE</ntsc>
						</rate>
						<start>20590</start>
						<end>20804</end>
						<in>274</in>
						<out>489</out>
						<pproTicksIn>2900016000000</pproTicksIn>
						<pproTicksOut>5175576000000</pproTicksOut>
						<file id="file-234"/>
						<sourcetrack>
							<mediatype>audio</mediatype>
							<trackindex>1</trackindex>
						</sourcetrack>
						<filter>
							<effect>
								<name>Audio Levels</name>
								<effectid>audiolevels</effectid>
								<effectcategory>audiolevels</effectcategory>
								<effecttype>audiolevels</effecttype>
								<mediatype>audio</mediatype>
								<pproBypass>false</pproBypass>
								<parameter authoringApp="PremierePro">
									<parameterid>level</parameterid>
									<name>Level</name>
									<valuemin>0</valuemin>
									<valuemax>3.98109</valuemax>
									<value>0.0864718</value>
								</parameter>
							</effect>
						</filter>
						<link>
							<linkclipref>clipitem-597</linkclipref>
							<mediatype>audio</mediatype>
							<trackindex>1</trackindex>
							<clipindex>121</clipindex>
							<groupindex>1</groupindex>
						</link>
						<link>
							<linkclipref>clipitem-761</linkclipref>
							<mediatype>audio</mediatype>
							<trackindex>2</trackindex>
							<clipindex>121</clipindex>
							<groupindex>1</groupindex>
						</link>
						<logginginfo>
							<description></description>
							<scene></scene>
							<shottake></shottake>
							<lognote></lognote>
							<good></good>
							<originalvideofilename></originalvideofilename>
							<originalaudiofilename></originalaudiofilename>
						</logginginfo>
						<colorinfo>
							<lut></lut>
							<lut1></lut1>
							<asc_sop></asc_sop>
							<asc_sat></asc_sat>
							<lut2></lut2>
						</colorinfo>
						<labels>
							<label2>Caribbean</label2>
						</labels>
					</clipitem>
					<clipitem id="clipitem-598" premiereChannelType="stereo">
						<masterclipid>masterclip-234</masterclipid>
						<name>Audio 3_34.wav</name>
						<enabled>TRUE</enabled>
						<duration>2052</duration>
						<rate>
							<timebase>24</timebase>
							<ntsc>FALSE</ntsc>
						</rate>
						<start>20842</start>
						<end>20889</end>
						<in>566</in>
						<out>614</out>
						<pproTicksIn>5990544000000</pproTicksIn>
						<pproTicksOut>6498576000000</pproTicksOut>
						<file id="file-234"/>
						<sourcetrack>
							<mediatype>audio</mediatype>
							<trackindex>1</trackindex>
						</sourcetrack>
						<filter>
							<effect>
								<name>Audio Levels</name>
								<effectid>audiolevels</effectid>
								<effectcategory>audiolevels</effectcategory>
								<effecttype>audiolevels</effecttype>
								<mediatype>audio</mediatype>
								<pproBypass>false</pproBypass>
								<parameter authoringApp="PremierePro">
									<parameterid>level</parameterid>
									<name>Level</name>
									<valuemin>0</valuemin>
									<valuemax>3.98109</valuemax>
									<value>0.0667907</value>
								</parameter>
							</effect>
						</filter>
						<link>
							<linkclipref>clipitem-598</linkclipref>
							<mediatype>audio</mediatype>
							<trackindex>1</trackindex>
							<clipindex>122</clipindex>
							<groupindex>1</groupindex>
						</link>
						<link>
							<linkclipref>clipitem-762</linkclipref>
							<mediatype>audio</mediatype>
							<trackindex>2</trackindex>
							<clipindex>122</clipindex>
							<groupindex>1</groupindex>
						</link>
						<logginginfo>
							<description></description>
							<scene></scene>
							<shottake></shottake>
							<lognote></lognote>
							<good></good>
							<originalvideofilename></originalvideofilename>
							<originalaudiofilename></originalaudiofilename>
						</logginginfo>
						<colorinfo>
							<lut></lut>
							<lut1></lut1>
							<asc_sop></asc_sop>
							<asc_sat></asc_sat>
							<lut2></lut2>
						</colorinfo>
						<labels>
							<label2>Caribbean</label2>
						</labels>
					</clipitem>
					<clipitem id="clipitem-599" premiereChannelType="stereo">
						<masterclipid>masterclip-234</masterclipid>
						<name>Audio 3_34.wav</name>
						<enabled>TRUE</enabled>
						<duration>2052</duration>
						<rate>
							<timebase>24</timebase>
							<ntsc>FALSE</ntsc>
						</rate>
						<start>20889</start>
						<end>20950</end>
						<in>732</in>
						<out>794</out>
						<pproTicksIn>7747488000000</pproTicksIn>
						<pproTicksOut>8403696000000</pproTicksOut>
						<file id="file-234"/>
						<sourcetrack>
							<mediatype>audio</mediatype>
							<trackindex>1</trackindex>
						</sourcetrack>
						<filter>
							<effect>
								<name>Audio Levels</name>
								<effectid>audiolevels</effectid>
								<effectcategory>audiolevels</effectcategory>
								<effecttype>audiolevels</effecttype>
								<mediatype>audio</mediatype>
								<pproBypass>false</pproBypass>
								<parameter authoringApp="PremierePro">
									<parameterid>level</parameterid>
									<name>Level</name>
									<valuemin>0</valuemin>
									<valuemax>3.98109</valuemax>
									<value>0.0498738</value>
								</parameter>
							</effect>
						</filter>
						<link>
							<linkclipref>clipitem-599</linkclipref>
							<mediatype>audio</mediatype>
							<trackindex>1</trackindex>
							<clipindex>123</clipindex>
							<groupindex>1</groupindex>
						</link>
						<link>
							<linkclipref>clipitem-763</linkclipref>
							<mediatype>audio</mediatype>
							<trackindex>2</trackindex>
							<clipindex>123</clipindex>
							<groupindex>1</groupindex>
						</link>
						<logginginfo>
							<description></description>
							<scene></scene>
							<shottake></shottake>
							<lognote></lognote>
							<good></good>
							<originalvideofilename></originalvideofilename>
							<originalaudiofilename></originalaudiofilename>
						</logginginfo>
						<colorinfo>
							<lut></lut>
							<lut1></lut1>
							<asc_sop></asc_sop>
							<asc_sat></asc_sat>
							<lut2></lut2>
						</colorinfo>
						<labels>
							<label2>Caribbean</label2>
						</labels>
					</clipitem>
					<clipitem id="clipitem-600" premiereChannelType="stereo">
						<masterclipid>masterclip-235</masterclipid>
						<name>Audio 3_62.wav</name>
						<enabled>TRUE</enabled>
						<duration>120</duration>
						<rate>
							<timebase>24</timebase>
							<ntsc>FALSE</ntsc>
						</rate>
						<start>21039</start>
						<end>21130</end>
						<in>10</in>
						<out>102</out>
						<pproTicksIn>105840000000</pproTicksIn>
						<pproTicksOut>1079568000000</pproTicksOut>
						<file id="file-235">
							<name>Audio 3_62.wav</name>
							<pathurl>file://localhost/D%3a/aura%20premier%20pro/Adobe%20Premiere%20Pro%20Captured%20Audio/TESTING_MADESH/Audio%203_62.wav</pathurl>
							<rate>
								<timebase>30</timebase>
								<ntsc>TRUE</ntsc>
							</rate>
							<duration>150</duration>
							<timecode>
								<rate>
									<timebase>30</timebase>
									<ntsc>TRUE</ntsc>
								</rate>
								<string>00;00;00;00</string>
								<frame>0</frame>
								<displayformat>DF</displayformat>
							</timecode>
							<media>
								<audio>
									<samplecharacteristics>
										<depth>16</depth>
										<samplerate>48000</samplerate>
									</samplecharacteristics>
									<channelcount>2</channelcount>
								</audio>
							</media>
						</file>
						<sourcetrack>
							<mediatype>audio</mediatype>
							<trackindex>1</trackindex>
						</sourcetrack>
						<filter>
							<effect>
								<name>Audio Levels</name>
								<effectid>audiolevels</effectid>
								<effectcategory>audiolevels</effectcategory>
								<effecttype>audiolevels</effecttype>
								<mediatype>audio</mediatype>
								<pproBypass>false</pproBypass>
								<parameter authoringApp="PremierePro">
									<parameterid>level</parameterid>
									<name>Level</name>
									<valuemin>0</valuemin>
									<valuemax>3.98109</valuemax>
									<value>0.326122</value>
								</parameter>
							</effect>
						</filter>
						<link>
							<linkclipref>clipitem-600</linkclipref>
							<mediatype>audio</mediatype>
							<trackindex>1</trackindex>
							<clipindex>124</clipindex>
							<groupindex>1</groupindex>
						</link>
						<link>
							<linkclipref>clipitem-764</linkclipref>
							<mediatype>audio</mediatype>
							<trackindex>2</trackindex>
							<clipindex>124</clipindex>
							<groupindex>1</groupindex>
						</link>
						<logginginfo>
							<description></description>
							<scene></scene>
							<shottake></shottake>
							<lognote></lognote>
							<good></good>
							<originalvideofilename></originalvideofilename>
							<originalaudiofilename></originalaudiofilename>
						</logginginfo>
						<colorinfo>
							<lut></lut>
							<lut1></lut1>
							<asc_sop></asc_sop>
							<asc_sat></asc_sat>
							<lut2></lut2>
						</colorinfo>
						<labels>
							<label2>Caribbean</label2>
						</labels>
					</clipitem>
					<clipitem id="clipitem-601" premiereChannelType="stereo">
						<masterclipid>masterclip-234</masterclipid>
						<name>Audio 3_34.wav</name>
						<enabled>TRUE</enabled>
						<duration>2052</duration>
						<rate>
							<timebase>24</timebase>
							<ntsc>FALSE</ntsc>
						</rate>
						<start>21152</start>
						<end>21233</end>
						<in>926</in>
						<out>1008</out>
						<pproTicksIn>9800784000000</pproTicksIn>
						<pproTicksOut>10668672000000</pproTicksOut>
						<file id="file-234"/>
						<sourcetrack>
							<mediatype>audio</mediatype>
							<trackindex>1</trackindex>
						</sourcetrack>
						<filter>
							<effect>
								<name>Audio Levels</name>
								<effectid>audiolevels</effectid>
								<effectcategory>audiolevels</effectcategory>
								<effecttype>audiolevels</effecttype>
								<mediatype>audio</mediatype>
								<pproBypass>false</pproBypass>
								<parameter authoringApp="PremierePro">
									<parameterid>level</parameterid>
									<name>Level</name>
									<valuemin>0</valuemin>
									<valuemax>3.98109</valuemax>
									<value>0.0667907</value>
								</parameter>
							</effect>
						</filter>
						<link>
							<linkclipref>clipitem-601</linkclipref>
							<mediatype>audio</mediatype>
							<trackindex>1</trackindex>
							<clipindex>125</clipindex>
							<groupindex>1</groupindex>
						</link>
						<link>
							<linkclipref>clipitem-765</linkclipref>
							<mediatype>audio</mediatype>
							<trackindex>2</trackindex>
							<clipindex>125</clipindex>
							<groupindex>1</groupindex>
						</link>
						<logginginfo>
							<description></description>
							<scene></scene>
							<shottake></shottake>
							<lognote></lognote>
							<good></good>
							<originalvideofilename></originalvideofilename>
							<originalaudiofilename></originalaudiofilename>
						</logginginfo>
						<colorinfo>
							<lut></lut>
							<lut1></lut1>
							<asc_sop></asc_sop>
							<asc_sat></asc_sat>
							<lut2></lut2>
						</colorinfo>
						<labels>
							<label2>Caribbean</label2>
						</labels>
					</clipitem>
					<clipitem id="clipitem-602" premiereChannelType="stereo">
						<masterclipid>masterclip-234</masterclipid>
						<name>Audio 3_34.wav</name>
						<enabled>TRUE</enabled>
						<duration>2052</duration>
						<rate>
							<timebase>24</timebase>
							<ntsc>FALSE</ntsc>
						</rate>
						<start>21245</start>
						<end>21283</end>
						<in>1224</in>
						<out>1263</out>
						<pproTicksIn>12954816000000</pproTicksIn>
						<pproTicksOut>13367592000000</pproTicksOut>
						<file id="file-234"/>
						<sourcetrack>
							<mediatype>audio</mediatype>
							<trackindex>1</trackindex>
						</sourcetrack>
						<filter>
							<effect>
								<name>Audio Levels</name>
								<effectid>audiolevels</effectid>
								<effectcategory>audiolevels</effectcategory>
								<effecttype>audiolevels</effecttype>
								<mediatype>audio</mediatype>
								<pproBypass>false</pproBypass>
								<parameter authoringApp="PremierePro">
									<parameterid>level</parameterid>
									<name>Level</name>
									<valuemin>0</valuemin>
									<valuemax>3.98109</valuemax>
									<value>0.0498738</value>
								</parameter>
							</effect>
						</filter>
						<link>
							<linkclipref>clipitem-602</linkclipref>
							<mediatype>audio</mediatype>
							<trackindex>1</trackindex>
							<clipindex>126</clipindex>
							<groupindex>1</groupindex>
						</link>
						<link>
							<linkclipref>clipitem-766</linkclipref>
							<mediatype>audio</mediatype>
							<trackindex>2</trackindex>
							<clipindex>126</clipindex>
							<groupindex>1</groupindex>
						</link>
						<logginginfo>
							<description></description>
							<scene></scene>
							<shottake></shottake>
							<lognote></lognote>
							<good></good>
							<originalvideofilename></originalvideofilename>
							<originalaudiofilename></originalaudiofilename>
						</logginginfo>
						<colorinfo>
							<lut></lut>
							<lut1></lut1>
							<asc_sop></asc_sop>
							<asc_sat></asc_sat>
							<lut2></lut2>
						</colorinfo>
						<labels>
							<label2>Caribbean</label2>
						</labels>
					</clipitem>
					<clipitem id="clipitem-603" premiereChannelType="stereo">
						<masterclipid>masterclip-234</masterclipid>
						<name>Audio 3_34.wav</name>
						<enabled>TRUE</enabled>
						<duration>2052</duration>
						<rate>
							<timebase>24</timebase>
							<ntsc>FALSE</ntsc>
						</rate>
						<start>21283</start>
						<end>21385</end>
						<in>1354</in>
						<out>1457</out>
						<pproTicksIn>14330736000000</pproTicksIn>
						<pproTicksOut>15420888000000</pproTicksOut>
						<file id="file-234"/>
						<sourcetrack>
							<mediatype>audio</mediatype>
							<trackindex>1</trackindex>
						</sourcetrack>
						<filter>
							<effect>
								<name>Audio Levels</name>
								<effectid>audiolevels</effectid>
								<effectcategory>audiolevels</effectcategory>
								<effecttype>audiolevels</effecttype>
								<mediatype>audio</mediatype>
								<pproBypass>false</pproBypass>
								<parameter authoringApp="PremierePro">
									<parameterid>level</parameterid>
									<name>Level</name>
									<valuemin>0</valuemin>
									<valuemax>3.98109</valuemax>
									<value>0.0498738</value>
								</parameter>
							</effect>
						</filter>
						<link>
							<linkclipref>clipitem-603</linkclipref>
							<mediatype>audio</mediatype>
							<trackindex>1</trackindex>
							<clipindex>127</clipindex>
							<groupindex>1</groupindex>
						</link>
						<link>
							<linkclipref>clipitem-767</linkclipref>
							<mediatype>audio</mediatype>
							<trackindex>2</trackindex>
							<clipindex>127</clipindex>
							<groupindex>1</groupindex>
						</link>
						<logginginfo>
							<description></description>
							<scene></scene>
							<shottake></shottake>
							<lognote></lognote>
							<good></good>
							<originalvideofilename></originalvideofilename>
							<originalaudiofilename></originalaudiofilename>
						</logginginfo>
						<colorinfo>
							<lut></lut>
							<lut1></lut1>
							<asc_sop></asc_sop>
							<asc_sat></asc_sat>
							<lut2></lut2>
						</colorinfo>
						<labels>
							<label2>Caribbean</label2>
						</labels>
					</clipitem>
					<clipitem id="clipitem-604" premiereChannelType="stereo">
						<masterclipid>masterclip-236</masterclipid>
						<name>A015_03071552_C128.mp4</name>
						<enabled>TRUE</enabled>
						<duration>1512</duration>
						<rate>
							<timebase>24</timebase>
							<ntsc>FALSE</ntsc>
						</rate>
						<start>21508</start>
						<end>21526</end>
						<in>833</in>
						<out>851</out>
						<pproTicksIn>8816472000000</pproTicksIn>
						<pproTicksOut>9006984000000</pproTicksOut>
						<pixelaspectratio>square</pixelaspectratio>
						<anamorphic>FALSE</anamorphic>
						<file id="file-236">
							<name>A015_03071552_C128.mp4</name>
							<pathurl>file://localhost/F%3a/bengaluru%20scenes/scene%2035/A015_03071552_C128.mp4</pathurl>
							<rate>
								<timebase>24</timebase>
								<ntsc>FALSE</ntsc>
							</rate>
							<duration>1512</duration>
							<timecode>
								<rate>
									<timebase>24</timebase>
									<ntsc>FALSE</ntsc>
								</rate>
								<string>00:00:00:00</string>
								<frame>0</frame>
								<displayformat>NDF</displayformat>
							</timecode>
							<media>
								<video>
									<samplecharacteristics>
										<rate>
											<timebase>24</timebase>
											<ntsc>FALSE</ntsc>
										</rate>
										<width>1280</width>
										<height>1080</height>
										<anamorphic>FALSE</anamorphic>
										<pixelaspectratio>square</pixelaspectratio>
										<fielddominance>none</fielddominance>
									</samplecharacteristics>
								</video>
								<audio>
									<samplecharacteristics>
										<depth>16</depth>
										<samplerate>48000</samplerate>
									</samplecharacteristics>
									<channelcount>2</channelcount>
								</audio>
							</media>
						</file>
						<sourcetrack>
							<mediatype>audio</mediatype>
							<trackindex>1</trackindex>
						</sourcetrack>
						<link>
							<linkclipref>clipitem-604</linkclipref>
							<mediatype>audio</mediatype>
							<trackindex>1</trackindex>
							<clipindex>128</clipindex>
							<groupindex>1</groupindex>
						</link>
						<link>
							<linkclipref>clipitem-768</linkclipref>
							<mediatype>audio</mediatype>
							<trackindex>2</trackindex>
							<clipindex>128</clipindex>
							<groupindex>1</groupindex>
						</link>
						<logginginfo>
							<description></description>
							<scene></scene>
							<shottake></shottake>
							<lognote></lognote>
							<good></good>
							<originalvideofilename></originalvideofilename>
							<originalaudiofilename></originalaudiofilename>
						</logginginfo>
						<colorinfo>
							<lut></lut>
							<lut1></lut1>
							<asc_sop></asc_sop>
							<asc_sat></asc_sat>
							<lut2></lut2>
						</colorinfo>
						<labels>
							<label2>Iris</label2>
						</labels>
					</clipitem>
					<clipitem id="clipitem-605" premiereChannelType="stereo">
						<masterclipid>masterclip-236</masterclipid>
						<name>A015_03071552_C128.mp4</name>
						<enabled>TRUE</enabled>
						<duration>1512</duration>
						<rate>
							<timebase>24</timebase>
							<ntsc>FALSE</ntsc>
						</rate>
						<start>21526</start>
						<end>21606</end>
						<in>851</in>
						<out>931</out>
						<pproTicksIn>9006984000000</pproTicksIn>
						<pproTicksOut>9853704000000</pproTicksOut>
						<file id="file-236"/>
						<sourcetrack>
							<mediatype>audio</mediatype>
							<trackindex>1</trackindex>
						</sourcetrack>
						<link>
							<linkclipref>clipitem-605</linkclipref>
							<mediatype>audio</mediatype>
							<trackindex>1</trackindex>
							<clipindex>129</clipindex>
							<groupindex>1</groupindex>
						</link>
						<link>
							<linkclipref>clipitem-769</linkclipref>
							<mediatype>audio</mediatype>
							<trackindex>2</trackindex>
							<clipindex>129</clipindex>
							<groupindex>1</groupindex>
						</link>
						<logginginfo>
							<description></description>
							<scene></scene>
							<shottake></shottake>
							<lognote></lognote>
							<good></good>
							<originalvideofilename></originalvideofilename>
							<originalaudiofilename></originalaudiofilename>
						</logginginfo>
						<colorinfo>
							<lut></lut>
							<lut1></lut1>
							<asc_sop></asc_sop>
							<asc_sat></asc_sat>
							<lut2></lut2>
						</colorinfo>
						<labels>
							<label2>Iris</label2>
						</labels>
					</clipitem>
					<clipitem id="clipitem-606" premiereChannelType="stereo">
						<masterclipid>masterclip-234</masterclipid>
						<name>Audio 3_34.wav</name>
						<enabled>TRUE</enabled>
						<duration>2052</duration>
						<rate>
							<timebase>24</timebase>
							<ntsc>FALSE</ntsc>
						</rate>
						<start>21908</start>
						<end>22009</end>
						<in>1906</in>
						<out>2008</out>
						<pproTicksIn>20173104000000</pproTicksIn>
						<pproTicksOut>21252672000000</pproTicksOut>
						<file id="file-234"/>
						<sourcetrack>
							<mediatype>audio</mediatype>
							<trackindex>1</trackindex>
						</sourcetrack>
						<filter>
							<effect>
								<name>Audio Levels</name>
								<effectid>audiolevels</effectid>
								<effectcategory>audiolevels</effectcategory>
								<effecttype>audiolevels</effecttype>
								<mediatype>audio</mediatype>
								<pproBypass>false</pproBypass>
								<parameter authoringApp="PremierePro">
									<parameterid>level</parameterid>
									<name>Level</name>
									<valuemin>0</valuemin>
									<valuemax>3.98109</valuemax>
									<value>0.0864718</value>
								</parameter>
							</effect>
						</filter>
						<link>
							<linkclipref>clipitem-606</linkclipref>
							<mediatype>audio</mediatype>
							<trackindex>1</trackindex>
							<clipindex>130</clipindex>
							<groupindex>1</groupindex>
						</link>
						<link>
							<linkclipref>clipitem-770</linkclipref>
							<mediatype>audio</mediatype>
							<trackindex>2</trackindex>
							<clipindex>130</clipindex>
							<groupindex>1</groupindex>
						</link>
						<logginginfo>
							<description></description>
							<scene></scene>
							<shottake></shottake>
							<lognote></lognote>
							<good></good>
							<originalvideofilename></originalvideofilename>
							<originalaudiofilename></originalaudiofilename>
						</logginginfo>
						<colorinfo>
							<lut></lut>
							<lut1></lut1>
							<asc_sop></asc_sop>
							<asc_sat></asc_sat>
							<lut2></lut2>
						</colorinfo>
						<labels>
							<label2>Caribbean</label2>
						</labels>
					</clipitem>
					<clipitem id="clipitem-607" premiereChannelType="stereo">
						<masterclipid>masterclip-106</masterclipid>
						<name>A005_10250841_C138.mp4</name>
						<enabled>TRUE</enabled>
						<duration>681</duration>
						<rate>
							<timebase>24</timebase>
							<ntsc>FALSE</ntsc>
						</rate>
						<start>22054</start>
						<end>22107</end>
						<in>338</in>
						<out>391</out>
						<pproTicksIn>3577392000000</pproTicksIn>
						<pproTicksOut>4138344000000</pproTicksOut>
						<file id="file-106"/>
						<sourcetrack>
							<mediatype>audio</mediatype>
							<trackindex>1</trackindex>
						</sourcetrack>
						<link>
							<linkclipref>clipitem-607</linkclipref>
							<mediatype>audio</mediatype>
							<trackindex>1</trackindex>
							<clipindex>131</clipindex>
							<groupindex>1</groupindex>
						</link>
						<link>
							<linkclipref>clipitem-771</linkclipref>
							<mediatype>audio</mediatype>
							<trackindex>2</trackindex>
							<clipindex>131</clipindex>
							<groupindex>1</groupindex>
						</link>
						<logginginfo>
							<description></description>
							<scene></scene>
							<shottake></shottake>
							<lognote></lognote>
							<good></good>
							<originalvideofilename></originalvideofilename>
							<originalaudiofilename></originalaudiofilename>
						</logginginfo>
						<colorinfo>
							<lut></lut>
							<lut1></lut1>
							<asc_sop></asc_sop>
							<asc_sat></asc_sat>
							<lut2></lut2>
						</colorinfo>
						<labels>
							<label2>Iris</label2>
						</labels>
					</clipitem>
					<clipitem id="clipitem-608" premiereChannelType="stereo">
						<masterclipid>masterclip-109</masterclipid>
						<name>A008_10280532_C038.mp4</name>
						<enabled>TRUE</enabled>
						<duration>1656</duration>
						<rate>
							<timebase>24</timebase>
							<ntsc>FALSE</ntsc>
						</rate>
						<start>22394</start>
						<end>22586</end>
						<in>218</in>
						<out>410</out>
						<pproTicksIn>2307312000000</pproTicksIn>
						<pproTicksOut>4339440000000</pproTicksOut>
						<file id="file-109"/>
						<sourcetrack>
							<mediatype>audio</mediatype>
							<trackindex>1</trackindex>
						</sourcetrack>
						<link>
							<linkclipref>clipitem-225</linkclipref>
							<mediatype>video</mediatype>
							<trackindex>1</trackindex>
							<clipindex>269</clipindex>
						</link>
						<link>
							<linkclipref>clipitem-608</linkclipref>
							<mediatype>audio</mediatype>
							<trackindex>1</trackindex>
							<clipindex>132</clipindex>
							<groupindex>1</groupindex>
						</link>
						<link>
							<linkclipref>clipitem-772</linkclipref>
							<mediatype>audio</mediatype>
							<trackindex>2</trackindex>
							<clipindex>132</clipindex>
							<groupindex>1</groupindex>
						</link>
						<logginginfo>
							<description></description>
							<scene></scene>
							<shottake></shottake>
							<lognote></lognote>
							<good></good>
							<originalvideofilename></originalvideofilename>
							<originalaudiofilename></originalaudiofilename>
						</logginginfo>
						<colorinfo>
							<lut></lut>
							<lut1></lut1>
							<asc_sop></asc_sop>
							<asc_sat></asc_sat>
							<lut2></lut2>
						</colorinfo>
						<labels>
							<label2>Iris</label2>
						</labels>
					</clipitem>
					<clipitem id="clipitem-609" premiereChannelType="stereo">
						<masterclipid>masterclip-109</masterclipid>
						<name>A008_10280532_C038.mp4</name>
						<enabled>TRUE</enabled>
						<duration>1656</duration>
						<rate>
							<timebase>24</timebase>
							<ntsc>FALSE</ntsc>
						</rate>
						<start>22586</start>
						<end>22635</end>
						<in>410</in>
						<out>459</out>
						<pproTicksIn>4339440000000</pproTicksIn>
						<pproTicksOut>4858056000000</pproTicksOut>
						<file id="file-109"/>
						<sourcetrack>
							<mediatype>audio</mediatype>
							<trackindex>1</trackindex>
						</sourcetrack>
						<link>
							<linkclipref>clipitem-226</linkclipref>
							<mediatype>video</mediatype>
							<trackindex>1</trackindex>
							<clipindex>270</clipindex>
						</link>
						<link>
							<linkclipref>clipitem-609</linkclipref>
							<mediatype>audio</mediatype>
							<trackindex>1</trackindex>
							<clipindex>133</clipindex>
							<groupindex>1</groupindex>
						</link>
						<link>
							<linkclipref>clipitem-773</linkclipref>
							<mediatype>audio</mediatype>
							<trackindex>2</trackindex>
							<clipindex>133</clipindex>
							<groupindex>1</groupindex>
						</link>
						<logginginfo>
							<description></description>
							<scene></scene>
							<shottake></shottake>
							<lognote></lognote>
							<good></good>
							<originalvideofilename></originalvideofilename>
							<originalaudiofilename></originalaudiofilename>
						</logginginfo>
						<colorinfo>
							<lut></lut>
							<lut1></lut1>
							<asc_sop></asc_sop>
							<asc_sat></asc_sat>
							<lut2></lut2>
						</colorinfo>
						<labels>
							<label2>Iris</label2>
						</labels>
					</clipitem>
					<clipitem id="clipitem-610" premiereChannelType="stereo">
						<masterclipid>masterclip-110</masterclipid>
						<name>A008_10280608_C051.mp4</name>
						<enabled>TRUE</enabled>
						<duration>1519</duration>
						<rate>
							<timebase>24</timebase>
							<ntsc>FALSE</ntsc>
						</rate>
						<start>22635</start>
						<end>22704</end>
						<in>222</in>
						<out>291</out>
						<pproTicksIn>2349648000000</pproTicksIn>
						<pproTicksOut>3079944000000</pproTicksOut>
						<file id="file-110"/>
						<sourcetrack>
							<mediatype>audio</mediatype>
							<trackindex>1</trackindex>
						</sourcetrack>
						<link>
							<linkclipref>clipitem-610</linkclipref>
							<mediatype>audio</mediatype>
							<trackindex>1</trackindex>
							<clipindex>134</clipindex>
							<groupindex>1</groupindex>
						</link>
						<link>
							<linkclipref>clipitem-774</linkclipref>
							<mediatype>audio</mediatype>
							<trackindex>2</trackindex>
							<clipindex>134</clipindex>
							<groupindex>1</groupindex>
						</link>
						<logginginfo>
							<description></description>
							<scene></scene>
							<shottake></shottake>
							<lognote></lognote>
							<good></good>
							<originalvideofilename></originalvideofilename>
							<originalaudiofilename></originalaudiofilename>
						</logginginfo>
						<colorinfo>
							<lut></lut>
							<lut1></lut1>
							<asc_sop></asc_sop>
							<asc_sat></asc_sat>
							<lut2></lut2>
						</colorinfo>
						<labels>
							<label2>Iris</label2>
						</labels>
					</clipitem>
					<clipitem id="clipitem-611" premiereChannelType="stereo">
						<masterclipid>masterclip-109</masterclipid>
						<name>A008_10280532_C038.mp4</name>
						<enabled>TRUE</enabled>
						<duration>1656</duration>
						<rate>
							<timebase>24</timebase>
							<ntsc>FALSE</ntsc>
						</rate>
						<start>22704</start>
						<end>22783</end>
						<in>509</in>
						<out>588</out>
						<pproTicksIn>5387256000000</pproTicksIn>
						<pproTicksOut>6223392000000</pproTicksOut>
						<file id="file-109"/>
						<sourcetrack>
							<mediatype>audio</mediatype>
							<trackindex>1</trackindex>
						</sourcetrack>
						<link>
							<linkclipref>clipitem-228</linkclipref>
							<mediatype>video</mediatype>
							<trackindex>1</trackindex>
							<clipindex>272</clipindex>
						</link>
						<link>
							<linkclipref>clipitem-611</linkclipref>
							<mediatype>audio</mediatype>
							<trackindex>1</trackindex>
							<clipindex>135</clipindex>
							<groupindex>1</groupindex>
						</link>
						<link>
							<linkclipref>clipitem-775</linkclipref>
							<mediatype>audio</mediatype>
							<trackindex>2</trackindex>
							<clipindex>135</clipindex>
							<groupindex>1</groupindex>
						</link>
						<logginginfo>
							<description></description>
							<scene></scene>
							<shottake></shottake>
							<lognote></lognote>
							<good></good>
							<originalvideofilename></originalvideofilename>
							<originalaudiofilename></originalaudiofilename>
						</logginginfo>
						<colorinfo>
							<lut></lut>
							<lut1></lut1>
							<asc_sop></asc_sop>
							<asc_sat></asc_sat>
							<lut2></lut2>
						</colorinfo>
						<labels>
							<label2>Iris</label2>
						</labels>
					</clipitem>
					<clipitem id="clipitem-612" premiereChannelType="stereo">
						<masterclipid>masterclip-110</masterclipid>
						<name>A008_10280608_C051.mp4</name>
						<enabled>TRUE</enabled>
						<duration>1519</duration>
						<rate>
							<timebase>24</timebase>
							<ntsc>FALSE</ntsc>
						</rate>
						<start>22787</start>
						<end>22828</end>
						<in>365</in>
						<out>406</out>
						<pproTicksIn>3863160000000</pproTicksIn>
						<pproTicksOut>4297104000000</pproTicksOut>
						<file id="file-110"/>
						<sourcetrack>
							<mediatype>audio</mediatype>
							<trackindex>1</trackindex>
						</sourcetrack>
						<link>
							<linkclipref>clipitem-229</linkclipref>
							<mediatype>video</mediatype>
							<trackindex>1</trackindex>
							<clipindex>273</clipindex>
						</link>
						<link>
							<linkclipref>clipitem-612</linkclipref>
							<mediatype>audio</mediatype>
							<trackindex>1</trackindex>
							<clipindex>136</clipindex>
							<groupindex>1</groupindex>
						</link>
						<link>
							<linkclipref>clipitem-776</linkclipref>
							<mediatype>audio</mediatype>
							<trackindex>2</trackindex>
							<clipindex>136</clipindex>
							<groupindex>1</groupindex>
						</link>
						<logginginfo>
							<description></description>
							<scene></scene>
							<shottake></shottake>
							<lognote></lognote>
							<good></good>
							<originalvideofilename></originalvideofilename>
							<originalaudiofilename></originalaudiofilename>
						</logginginfo>
						<colorinfo>
							<lut></lut>
							<lut1></lut1>
							<asc_sop></asc_sop>
							<asc_sat></asc_sat>
							<lut2></lut2>
						</colorinfo>
						<labels>
							<label2>Iris</label2>
						</labels>
					</clipitem>
					<clipitem id="clipitem-613" premiereChannelType="stereo">
						<masterclipid>masterclip-109</masterclipid>
						<name>A008_10280532_C038.mp4</name>
						<enabled>TRUE</enabled>
						<duration>1656</duration>
						<rate>
							<timebase>24</timebase>
							<ntsc>FALSE</ntsc>
						</rate>
						<start>22828</start>
						<end>22953</end>
						<in>623</in>
						<out>748</out>
						<pproTicksIn>6593832000000</pproTicksIn>
						<pproTicksOut>7916832000000</pproTicksOut>
						<file id="file-109"/>
						<sourcetrack>
							<mediatype>audio</mediatype>
							<trackindex>1</trackindex>
						</sourcetrack>
						<link>
							<linkclipref>clipitem-230</linkclipref>
							<mediatype>video</mediatype>
							<trackindex>1</trackindex>
							<clipindex>274</clipindex>
						</link>
						<link>
							<linkclipref>clipitem-613</linkclipref>
							<mediatype>audio</mediatype>
							<trackindex>1</trackindex>
							<clipindex>137</clipindex>
							<groupindex>1</groupindex>
						</link>
						<link>
							<linkclipref>clipitem-777</linkclipref>
							<mediatype>audio</mediatype>
							<trackindex>2</trackindex>
							<clipindex>137</clipindex>
							<groupindex>1</groupindex>
						</link>
						<logginginfo>
							<description></description>
							<scene></scene>
							<shottake></shottake>
							<lognote></lognote>
							<good></good>
							<originalvideofilename></originalvideofilename>
							<originalaudiofilename></originalaudiofilename>
						</logginginfo>
						<colorinfo>
							<lut></lut>
							<lut1></lut1>
							<asc_sop></asc_sop>
							<asc_sat></asc_sat>
							<lut2></lut2>
						</colorinfo>
						<labels>
							<label2>Iris</label2>
						</labels>
					</clipitem>
					<clipitem id="clipitem-614" premiereChannelType="stereo">
						<masterclipid>masterclip-110</masterclipid>
						<name>A008_10280608_C051.mp4</name>
						<enabled>TRUE</enabled>
						<duration>1519</duration>
						<rate>
							<timebase>24</timebase>
							<ntsc>FALSE</ntsc>
						</rate>
						<start>22967</start>
						<end>23000</end>
						<in>515</in>
						<out>548</out>
						<pproTicksIn>5450760000000</pproTicksIn>
						<pproTicksOut>5800032000000</pproTicksOut>
						<file id="file-110"/>
						<sourcetrack>
							<mediatype>audio</mediatype>
							<trackindex>1</trackindex>
						</sourcetrack>
						<link>
							<linkclipref>clipitem-231</linkclipref>
							<mediatype>video</mediatype>
							<trackindex>1</trackindex>
							<clipindex>275</clipindex>
						</link>
						<link>
							<linkclipref>clipitem-614</linkclipref>
							<mediatype>audio</mediatype>
							<trackindex>1</trackindex>
							<clipindex>138</clipindex>
							<groupindex>1</groupindex>
						</link>
						<link>
							<linkclipref>clipitem-778</linkclipref>
							<mediatype>audio</mediatype>
							<trackindex>2</trackindex>
							<clipindex>138</clipindex>
							<groupindex>1</groupindex>
						</link>
						<logginginfo>
							<description></description>
							<scene></scene>
							<shottake></shottake>
							<lognote></lognote>
							<good></good>
							<originalvideofilename></originalvideofilename>
							<originalaudiofilename></originalaudiofilename>
						</logginginfo>
						<colorinfo>
							<lut></lut>
							<lut1></lut1>
							<asc_sop></asc_sop>
							<asc_sat></asc_sat>
							<lut2></lut2>
						</colorinfo>
						<labels>
							<label2>Iris</label2>
						</labels>
					</clipitem>
					<clipitem id="clipitem-615" premiereChannelType="stereo">
						<masterclipid>masterclip-109</masterclipid>
						<name>A008_10280532_C038.mp4</name>
						<enabled>TRUE</enabled>
						<duration>1656</duration>
						<rate>
							<timebase>24</timebase>
							<ntsc>FALSE</ntsc>
						</rate>
						<start>23000</start>
						<end>23024</end>
						<in>782</in>
						<out>806</out>
						<pproTicksIn>8276688000000</pproTicksIn>
						<pproTicksOut>8530704000000</pproTicksOut>
						<file id="file-109"/>
						<sourcetrack>
							<mediatype>audio</mediatype>
							<trackindex>1</trackindex>
						</sourcetrack>
						<link>
							<linkclipref>clipitem-232</linkclipref>
							<mediatype>video</mediatype>
							<trackindex>1</trackindex>
							<clipindex>276</clipindex>
						</link>
						<link>
							<linkclipref>clipitem-615</linkclipref>
							<mediatype>audio</mediatype>
							<trackindex>1</trackindex>
							<clipindex>139</clipindex>
							<groupindex>1</groupindex>
						</link>
						<link>
							<linkclipref>clipitem-779</linkclipref>
							<mediatype>audio</mediatype>
							<trackindex>2</trackindex>
							<clipindex>139</clipindex>
							<groupindex>1</groupindex>
						</link>
						<logginginfo>
							<description></description>
							<scene></scene>
							<shottake></shottake>
							<lognote></lognote>
							<good></good>
							<originalvideofilename></originalvideofilename>
							<originalaudiofilename></originalaudiofilename>
						</logginginfo>
						<colorinfo>
							<lut></lut>
							<lut1></lut1>
							<asc_sop></asc_sop>
							<asc_sat></asc_sat>
							<lut2></lut2>
						</colorinfo>
						<labels>
							<label2>Iris</label2>
						</labels>
					</clipitem>
					<clipitem id="clipitem-616" premiereChannelType="stereo">
						<masterclipid>masterclip-109</masterclipid>
						<name>A008_10280532_C038.mp4</name>
						<enabled>TRUE</enabled>
						<duration>1656</duration>
						<rate>
							<timebase>24</timebase>
							<ntsc>FALSE</ntsc>
						</rate>
						<start>23024</start>
						<end>23031</end>
						<in>806</in>
						<out>813</out>
						<pproTicksIn>8530704000000</pproTicksIn>
						<pproTicksOut>8604792000000</pproTicksOut>
						<file id="file-109"/>
						<sourcetrack>
							<mediatype>audio</mediatype>
							<trackindex>1</trackindex>
						</sourcetrack>
						<link>
							<linkclipref>clipitem-233</linkclipref>
							<mediatype>video</mediatype>
							<trackindex>1</trackindex>
							<clipindex>277</clipindex>
						</link>
						<link>
							<linkclipref>clipitem-616</linkclipref>
							<mediatype>audio</mediatype>
							<trackindex>1</trackindex>
							<clipindex>140</clipindex>
							<groupindex>1</groupindex>
						</link>
						<link>
							<linkclipref>clipitem-780</linkclipref>
							<mediatype>audio</mediatype>
							<trackindex>2</trackindex>
							<clipindex>140</clipindex>
							<groupindex>1</groupindex>
						</link>
						<logginginfo>
							<description></description>
							<scene></scene>
							<shottake></shottake>
							<lognote></lognote>
							<good></good>
							<originalvideofilename></originalvideofilename>
							<originalaudiofilename></originalaudiofilename>
						</logginginfo>
						<colorinfo>
							<lut></lut>
							<lut1></lut1>
							<asc_sop></asc_sop>
							<asc_sat></asc_sat>
							<lut2></lut2>
						</colorinfo>
						<labels>
							<label2>Iris</label2>
						</labels>
					</clipitem>
					<clipitem id="clipitem-617" premiereChannelType="stereo">
						<masterclipid>masterclip-109</masterclipid>
						<name>A008_10280532_C038.mp4</name>
						<enabled>TRUE</enabled>
						<duration>1656</duration>
						<rate>
							<timebase>24</timebase>
							<ntsc>FALSE</ntsc>
						</rate>
						<start>23031</start>
						<end>23056</end>
						<in>813</in>
						<out>838</out>
						<pproTicksIn>8604792000000</pproTicksIn>
						<pproTicksOut>8869392000000</pproTicksOut>
						<file id="file-109"/>
						<sourcetrack>
							<mediatype>audio</mediatype>
							<trackindex>1</trackindex>
						</sourcetrack>
						<link>
							<linkclipref>clipitem-234</linkclipref>
							<mediatype>video</mediatype>
							<trackindex>1</trackindex>
							<clipindex>278</clipindex>
						</link>
						<link>
							<linkclipref>clipitem-617</linkclipref>
							<mediatype>audio</mediatype>
							<trackindex>1</trackindex>
							<clipindex>141</clipindex>
							<groupindex>1</groupindex>
						</link>
						<link>
							<linkclipref>clipitem-781</linkclipref>
							<mediatype>audio</mediatype>
							<trackindex>2</trackindex>
							<clipindex>141</clipindex>
							<groupindex>1</groupindex>
						</link>
						<logginginfo>
							<description></description>
							<scene></scene>
							<shottake></shottake>
							<lognote></lognote>
							<good></good>
							<originalvideofilename></originalvideofilename>
							<originalaudiofilename></originalaudiofilename>
						</logginginfo>
						<colorinfo>
							<lut></lut>
							<lut1></lut1>
							<asc_sop></asc_sop>
							<asc_sat></asc_sat>
							<lut2></lut2>
						</colorinfo>
						<labels>
							<label2>Iris</label2>
						</labels>
					</clipitem>
					<clipitem id="clipitem-618" premiereChannelType="stereo">
						<masterclipid>masterclip-109</masterclipid>
						<name>A008_10280532_C038.mp4</name>
						<enabled>TRUE</enabled>
						<duration>1656</duration>
						<rate>
							<timebase>24</timebase>
							<ntsc>FALSE</ntsc>
						</rate>
						<start>23056</start>
						<end>23073</end>
						<in>838</in>
						<out>855</out>
						<pproTicksIn>8869392000000</pproTicksIn>
						<pproTicksOut>9049320000000</pproTicksOut>
						<file id="file-109"/>
						<sourcetrack>
							<mediatype>audio</mediatype>
							<trackindex>1</trackindex>
						</sourcetrack>
						<link>
							<linkclipref>clipitem-235</linkclipref>
							<mediatype>video</mediatype>
							<trackindex>1</trackindex>
							<clipindex>279</clipindex>
						</link>
						<link>
							<linkclipref>clipitem-618</linkclipref>
							<mediatype>audio</mediatype>
							<trackindex>1</trackindex>
							<clipindex>142</clipindex>
							<groupindex>1</groupindex>
						</link>
						<link>
							<linkclipref>clipitem-782</linkclipref>
							<mediatype>audio</mediatype>
							<trackindex>2</trackindex>
							<clipindex>142</clipindex>
							<groupindex>1</groupindex>
						</link>
						<logginginfo>
							<description></description>
							<scene></scene>
							<shottake></shottake>
							<lognote></lognote>
							<good></good>
							<originalvideofilename></originalvideofilename>
							<originalaudiofilename></originalaudiofilename>
						</logginginfo>
						<colorinfo>
							<lut></lut>
							<lut1></lut1>
							<asc_sop></asc_sop>
							<asc_sat></asc_sat>
							<lut2></lut2>
						</colorinfo>
						<labels>
							<label2>Iris</label2>
						</labels>
					</clipitem>
					<clipitem id="clipitem-619" premiereChannelType="stereo">
						<masterclipid>masterclip-109</masterclipid>
						<name>A008_10280532_C038.mp4</name>
						<enabled>TRUE</enabled>
						<duration>1656</duration>
						<rate>
							<timebase>24</timebase>
							<ntsc>FALSE</ntsc>
						</rate>
						<start>23073</start>
						<end>23091</end>
						<in>855</in>
						<out>873</out>
						<pproTicksIn>9049320000000</pproTicksIn>
						<pproTicksOut>9239832000000</pproTicksOut>
						<file id="file-109"/>
						<sourcetrack>
							<mediatype>audio</mediatype>
							<trackindex>1</trackindex>
						</sourcetrack>
						<link>
							<linkclipref>clipitem-236</linkclipref>
							<mediatype>video</mediatype>
							<trackindex>1</trackindex>
							<clipindex>280</clipindex>
						</link>
						<link>
							<linkclipref>clipitem-619</linkclipref>
							<mediatype>audio</mediatype>
							<trackindex>1</trackindex>
							<clipindex>143</clipindex>
							<groupindex>1</groupindex>
						</link>
						<link>
							<linkclipref>clipitem-783</linkclipref>
							<mediatype>audio</mediatype>
							<trackindex>2</trackindex>
							<clipindex>143</clipindex>
							<groupindex>1</groupindex>
						</link>
						<logginginfo>
							<description></description>
							<scene></scene>
							<shottake></shottake>
							<lognote></lognote>
							<good></good>
							<originalvideofilename></originalvideofilename>
							<originalaudiofilename></originalaudiofilename>
						</logginginfo>
						<colorinfo>
							<lut></lut>
							<lut1></lut1>
							<asc_sop></asc_sop>
							<asc_sat></asc_sat>
							<lut2></lut2>
						</colorinfo>
						<labels>
							<label2>Iris</label2>
						</labels>
					</clipitem>
					<clipitem id="clipitem-620" premiereChannelType="stereo">
						<masterclipid>masterclip-109</masterclipid>
						<name>A008_10280532_C038.mp4</name>
						<enabled>TRUE</enabled>
						<duration>1656</duration>
						<rate>
							<timebase>24</timebase>
							<ntsc>FALSE</ntsc>
						</rate>
						<start>23091</start>
						<end>23196</end>
						<in>873</in>
						<out>978</out>
						<pproTicksIn>9239832000000</pproTicksIn>
						<pproTicksOut>10351152000000</pproTicksOut>
						<file id="file-109"/>
						<sourcetrack>
							<mediatype>audio</mediatype>
							<trackindex>1</trackindex>
						</sourcetrack>
						<link>
							<linkclipref>clipitem-237</linkclipref>
							<mediatype>video</mediatype>
							<trackindex>1</trackindex>
							<clipindex>281</clipindex>
						</link>
						<link>
							<linkclipref>clipitem-620</linkclipref>
							<mediatype>audio</mediatype>
							<trackindex>1</trackindex>
							<clipindex>144</clipindex>
							<groupindex>1</groupindex>
						</link>
						<link>
							<linkclipref>clipitem-784</linkclipref>
							<mediatype>audio</mediatype>
							<trackindex>2</trackindex>
							<clipindex>144</clipindex>
							<groupindex>1</groupindex>
						</link>
						<logginginfo>
							<description></description>
							<scene></scene>
							<shottake></shottake>
							<lognote></lognote>
							<good></good>
							<originalvideofilename></originalvideofilename>
							<originalaudiofilename></originalaudiofilename>
						</logginginfo>
						<colorinfo>
							<lut></lut>
							<lut1></lut1>
							<asc_sop></asc_sop>
							<asc_sat></asc_sat>
							<lut2></lut2>
						</colorinfo>
						<labels>
							<label2>Iris</label2>
						</labels>
					</clipitem>
					<clipitem id="clipitem-621" premiereChannelType="stereo">
						<masterclipid>masterclip-110</masterclipid>
						<name>A008_10280608_C051.mp4</name>
						<enabled>TRUE</enabled>
						<duration>1519</duration>
						<rate>
							<timebase>24</timebase>
							<ntsc>FALSE</ntsc>
						</rate>
						<start>23226</start>
						<end>23298</end>
						<in>770</in>
						<out>842</out>
						<pproTicksIn>8149680000000</pproTicksIn>
						<pproTicksOut>8911728000000</pproTicksOut>
						<file id="file-110"/>
						<sourcetrack>
							<mediatype>audio</mediatype>
							<trackindex>1</trackindex>
						</sourcetrack>
						<link>
							<linkclipref>clipitem-242</linkclipref>
							<mediatype>video</mediatype>
							<trackindex>1</trackindex>
							<clipindex>286</clipindex>
						</link>
						<link>
							<linkclipref>clipitem-621</linkclipref>
							<mediatype>audio</mediatype>
							<trackindex>1</trackindex>
							<clipindex>145</clipindex>
							<groupindex>1</groupindex>
						</link>
						<link>
							<linkclipref>clipitem-785</linkclipref>
							<mediatype>audio</mediatype>
							<trackindex>2</trackindex>
							<clipindex>145</clipindex>
							<groupindex>1</groupindex>
						</link>
						<logginginfo>
							<description></description>
							<scene></scene>
							<shottake></shottake>
							<lognote></lognote>
							<good></good>
							<originalvideofilename></originalvideofilename>
							<originalaudiofilename></originalaudiofilename>
						</logginginfo>
						<colorinfo>
							<lut></lut>
							<lut1></lut1>
							<asc_sop></asc_sop>
							<asc_sat></asc_sat>
							<lut2></lut2>
						</colorinfo>
						<labels>
							<label2>Iris</label2>
						</labels>
					</clipitem>
					<clipitem id="clipitem-622" premiereChannelType="stereo">
						<masterclipid>masterclip-109</masterclipid>
						<name>A008_10280532_C038.mp4</name>
						<enabled>TRUE</enabled>
						<duration>1656</duration>
						<rate>
							<timebase>24</timebase>
							<ntsc>FALSE</ntsc>
						</rate>
						<start>23298</start>
						<end>23389</end>
						<in>1053</in>
						<out>1144</out>
						<pproTicksIn>11144952000000</pproTicksIn>
						<pproTicksOut>12108096000000</pproTicksOut>
						<file id="file-109"/>
						<sourcetrack>
							<mediatype>audio</mediatype>
							<trackindex>1</trackindex>
						</sourcetrack>
						<link>
							<linkclipref>clipitem-243</linkclipref>
							<mediatype>video</mediatype>
							<trackindex>1</trackindex>
							<clipindex>287</clipindex>
						</link>
						<link>
							<linkclipref>clipitem-622</linkclipref>
							<mediatype>audio</mediatype>
							<trackindex>1</trackindex>
							<clipindex>146</clipindex>
							<groupindex>1</groupindex>
						</link>
						<link>
							<linkclipref>clipitem-786</linkclipref>
							<mediatype>audio</mediatype>
							<trackindex>2</trackindex>
							<clipindex>146</clipindex>
							<groupindex>1</groupindex>
						</link>
						<logginginfo>
							<description></description>
							<scene></scene>
							<shottake></shottake>
							<lognote></lognote>
							<good></good>
							<originalvideofilename></originalvideofilename>
							<originalaudiofilename></originalaudiofilename>
						</logginginfo>
						<colorinfo>
							<lut></lut>
							<lut1></lut1>
							<asc_sop></asc_sop>
							<asc_sat></asc_sat>
							<lut2></lut2>
						</colorinfo>
						<labels>
							<label2>Iris</label2>
						</labels>
					</clipitem>
					<clipitem id="clipitem-623" premiereChannelType="stereo">
						<masterclipid>masterclip-111</masterclipid>
						<name>A008_10280614_C052.mp4</name>
						<enabled>TRUE</enabled>
						<duration>782</duration>
						<rate>
							<timebase>24</timebase>
							<ntsc>FALSE</ntsc>
						</rate>
						<start>23389</start>
						<end>23483</end>
						<in>252</in>
						<out>346</out>
						<pproTicksIn>2667168000000</pproTicksIn>
						<pproTicksOut>3662064000000</pproTicksOut>
						<file id="file-111"/>
						<sourcetrack>
							<mediatype>audio</mediatype>
							<trackindex>1</trackindex>
						</sourcetrack>
						<link>
							<linkclipref>clipitem-244</linkclipref>
							<mediatype>video</mediatype>
							<trackindex>1</trackindex>
							<clipindex>288</clipindex>
						</link>
						<link>
							<linkclipref>clipitem-623</linkclipref>
							<mediatype>audio</mediatype>
							<trackindex>1</trackindex>
							<clipindex>147</clipindex>
							<groupindex>1</groupindex>
						</link>
						<link>
							<linkclipref>clipitem-787</linkclipref>
							<mediatype>audio</mediatype>
							<trackindex>2</trackindex>
							<clipindex>147</clipindex>
							<groupindex>1</groupindex>
						</link>
						<logginginfo>
							<description></description>
							<scene></scene>
							<shottake></shottake>
							<lognote></lognote>
							<good></good>
							<originalvideofilename></originalvideofilename>
							<originalaudiofilename></originalaudiofilename>
						</logginginfo>
						<colorinfo>
							<lut></lut>
							<lut1></lut1>
							<asc_sop></asc_sop>
							<asc_sat></asc_sat>
							<lut2></lut2>
						</colorinfo>
						<labels>
							<label2>Iris</label2>
						</labels>
					</clipitem>
					<clipitem id="clipitem-624" premiereChannelType="stereo">
						<masterclipid>masterclip-109</masterclipid>
						<name>A008_10280532_C038.mp4</name>
						<enabled>TRUE</enabled>
						<duration>1656</duration>
						<rate>
							<timebase>24</timebase>
							<ntsc>FALSE</ntsc>
						</rate>
						<start>23483</start>
						<end>23571</end>
						<in>1227</in>
						<out>1315</out>
						<pproTicksIn>12986568000000</pproTicksIn>
						<pproTicksOut>13917960000000</pproTicksOut>
						<file id="file-109"/>
						<sourcetrack>
							<mediatype>audio</mediatype>
							<trackindex>1</trackindex>
						</sourcetrack>
						<link>
							<linkclipref>clipitem-245</linkclipref>
							<mediatype>video</mediatype>
							<trackindex>1</trackindex>
							<clipindex>289</clipindex>
						</link>
						<link>
							<linkclipref>clipitem-624</linkclipref>
							<mediatype>audio</mediatype>
							<trackindex>1</trackindex>
							<clipindex>148</clipindex>
							<groupindex>1</groupindex>
						</link>
						<link>
							<linkclipref>clipitem-788</linkclipref>
							<mediatype>audio</mediatype>
							<trackindex>2</trackindex>
							<clipindex>148</clipindex>
							<groupindex>1</groupindex>
						</link>
						<logginginfo>
							<description></description>
							<scene></scene>
							<shottake></shottake>
							<lognote></lognote>
							<good></good>
							<originalvideofilename></originalvideofilename>
							<originalaudiofilename></originalaudiofilename>
						</logginginfo>
						<colorinfo>
							<lut></lut>
							<lut1></lut1>
							<asc_sop></asc_sop>
							<asc_sat></asc_sat>
							<lut2></lut2>
						</colorinfo>
						<labels>
							<label2>Iris</label2>
						</labels>
					</clipitem>
					<clipitem id="clipitem-625" premiereChannelType="stereo">
						<masterclipid>masterclip-110</masterclipid>
						<name>A008_10280608_C051.mp4</name>
						<enabled>TRUE</enabled>
						<duration>1519</duration>
						<rate>
							<timebase>24</timebase>
							<ntsc>FALSE</ntsc>
						</rate>
						<start>23571</start>
						<end>23627</end>
						<in>1138</in>
						<out>1194</out>
						<pproTicksIn>12044592000000</pproTicksIn>
						<pproTicksOut>12637296000000</pproTicksOut>
						<file id="file-110"/>
						<sourcetrack>
							<mediatype>audio</mediatype>
							<trackindex>1</trackindex>
						</sourcetrack>
						<link>
							<linkclipref>clipitem-246</linkclipref>
							<mediatype>video</mediatype>
							<trackindex>1</trackindex>
							<clipindex>290</clipindex>
						</link>
						<link>
							<linkclipref>clipitem-625</linkclipref>
							<mediatype>audio</mediatype>
							<trackindex>1</trackindex>
							<clipindex>149</clipindex>
							<groupindex>1</groupindex>
						</link>
						<link>
							<linkclipref>clipitem-789</linkclipref>
							<mediatype>audio</mediatype>
							<trackindex>2</trackindex>
							<clipindex>149</clipindex>
							<groupindex>1</groupindex>
						</link>
						<logginginfo>
							<description></description>
							<scene></scene>
							<shottake></shottake>
							<lognote></lognote>
							<good></good>
							<originalvideofilename></originalvideofilename>
							<originalaudiofilename></originalaudiofilename>
						</logginginfo>
						<colorinfo>
							<lut></lut>
							<lut1></lut1>
							<asc_sop></asc_sop>
							<asc_sat></asc_sat>
							<lut2></lut2>
						</colorinfo>
						<labels>
							<label2>Iris</label2>
						</labels>
					</clipitem>
					<clipitem id="clipitem-626" premiereChannelType="stereo">
						<masterclipid>masterclip-109</masterclipid>
						<name>A008_10280532_C038.mp4</name>
						<enabled>TRUE</enabled>
						<duration>1656</duration>
						<rate>
							<timebase>24</timebase>
							<ntsc>FALSE</ntsc>
						</rate>
						<start>23627</start>
						<end>23650</end>
						<in>1395</in>
						<out>1418</out>
						<pproTicksIn>14764680000000</pproTicksIn>
						<pproTicksOut>15008112000000</pproTicksOut>
						<file id="file-109"/>
						<sourcetrack>
							<mediatype>audio</mediatype>
							<trackindex>1</trackindex>
						</sourcetrack>
						<link>
							<linkclipref>clipitem-247</linkclipref>
							<mediatype>video</mediatype>
							<trackindex>1</trackindex>
							<clipindex>291</clipindex>
						</link>
						<link>
							<linkclipref>clipitem-626</linkclipref>
							<mediatype>audio</mediatype>
							<trackindex>1</trackindex>
							<clipindex>150</clipindex>
							<groupindex>1</groupindex>
						</link>
						<link>
							<linkclipref>clipitem-790</linkclipref>
							<mediatype>audio</mediatype>
							<trackindex>2</trackindex>
							<clipindex>150</clipindex>
							<groupindex>1</groupindex>
						</link>
						<logginginfo>
							<description></description>
							<scene></scene>
							<shottake></shottake>
							<lognote></lognote>
							<good></good>
							<originalvideofilename></originalvideofilename>
							<originalaudiofilename></originalaudiofilename>
						</logginginfo>
						<colorinfo>
							<lut></lut>
							<lut1></lut1>
							<asc_sop></asc_sop>
							<asc_sat></asc_sat>
							<lut2></lut2>
						</colorinfo>
						<labels>
							<label2>Iris</label2>
						</labels>
					</clipitem>
					<clipitem id="clipitem-627" premiereChannelType="stereo">
						<masterclipid>masterclip-110</masterclipid>
						<name>A008_10280608_C051.mp4</name>
						<enabled>TRUE</enabled>
						<duration>1519</duration>
						<rate>
							<timebase>24</timebase>
							<ntsc>FALSE</ntsc>
						</rate>
						<start>23650</start>
						<end>23707</end>
						<in>1227</in>
						<out>1284</out>
						<pproTicksIn>12986568000000</pproTicksIn>
						<pproTicksOut>13589856000000</pproTicksOut>
						<file id="file-110"/>
						<sourcetrack>
							<mediatype>audio</mediatype>
							<trackindex>1</trackindex>
						</sourcetrack>
						<link>
							<linkclipref>clipitem-248</linkclipref>
							<mediatype>video</mediatype>
							<trackindex>1</trackindex>
							<clipindex>292</clipindex>
						</link>
						<link>
							<linkclipref>clipitem-627</linkclipref>
							<mediatype>audio</mediatype>
							<trackindex>1</trackindex>
							<clipindex>151</clipindex>
							<groupindex>1</groupindex>
						</link>
						<link>
							<linkclipref>clipitem-791</linkclipref>
							<mediatype>audio</mediatype>
							<trackindex>2</trackindex>
							<clipindex>151</clipindex>
							<groupindex>1</groupindex>
						</link>
						<logginginfo>
							<description></description>
							<scene></scene>
							<shottake></shottake>
							<lognote></lognote>
							<good></good>
							<originalvideofilename></originalvideofilename>
							<originalaudiofilename></originalaudiofilename>
						</logginginfo>
						<colorinfo>
							<lut></lut>
							<lut1></lut1>
							<asc_sop></asc_sop>
							<asc_sat></asc_sat>
							<lut2></lut2>
						</colorinfo>
						<labels>
							<label2>Iris</label2>
						</labels>
					</clipitem>
					<clipitem id="clipitem-628" premiereChannelType="stereo">
						<masterclipid>masterclip-237</masterclipid>
						<name>Audio 4_56.wav</name>
						<enabled>TRUE</enabled>
						<duration>164</duration>
						<rate>
							<timebase>24</timebase>
							<ntsc>FALSE</ntsc>
						</rate>
						<start>28838</start>
						<end>28959</end>
						<in>44</in>
						<out>165</out>
						<pproTicksIn>465696000000</pproTicksIn>
						<pproTicksOut>1746360000000</pproTicksOut>
						<file id="file-237">
							<name>Audio 4_56.wav</name>
							<pathurl>file://localhost/D%3a/aura%20premier%20pro/Adobe%20Premiere%20Pro%20Captured%20Audio/TESTING_MADESH/Audio%204_56.wav</pathurl>
							<rate>
								<timebase>30</timebase>
								<ntsc>TRUE</ntsc>
							</rate>
							<duration>205</duration>
							<timecode>
								<rate>
									<timebase>30</timebase>
									<ntsc>TRUE</ntsc>
								</rate>
								<string>00;00;00;00</string>
								<frame>0</frame>
								<displayformat>DF</displayformat>
							</timecode>
							<media>
								<audio>
									<samplecharacteristics>
										<depth>16</depth>
										<samplerate>48000</samplerate>
									</samplecharacteristics>
									<channelcount>2</channelcount>
								</audio>
							</media>
						</file>
						<sourcetrack>
							<mediatype>audio</mediatype>
							<trackindex>1</trackindex>
						</sourcetrack>
						<link>
							<linkclipref>clipitem-628</linkclipref>
							<mediatype>audio</mediatype>
							<trackindex>1</trackindex>
							<clipindex>152</clipindex>
							<groupindex>1</groupindex>
						</link>
						<link>
							<linkclipref>clipitem-792</linkclipref>
							<mediatype>audio</mediatype>
							<trackindex>2</trackindex>
							<clipindex>152</clipindex>
							<groupindex>1</groupindex>
						</link>
						<logginginfo>
							<description></description>
							<scene></scene>
							<shottake></shottake>
							<lognote></lognote>
							<good></good>
							<originalvideofilename></originalvideofilename>
							<originalaudiofilename></originalaudiofilename>
						</logginginfo>
						<colorinfo>
							<lut></lut>
							<lut1></lut1>
							<asc_sop></asc_sop>
							<asc_sat></asc_sat>
							<lut2></lut2>
						</colorinfo>
						<labels>
							<label2>Blue</label2>
						</labels>
					</clipitem>
					<clipitem id="clipitem-629" premiereChannelType="stereo">
						<masterclipid>masterclip-201</masterclipid>
						<name>A011_10290409_C042.mp4</name>
						<enabled>TRUE</enabled>
						<duration>1398</duration>
						<rate>
							<timebase>24</timebase>
							<ntsc>FALSE</ntsc>
						</rate>
						<start>29025</start>
						<end>29139</end>
						<in>229</in>
						<out>343</out>
						<pproTicksIn>2423736000000</pproTicksIn>
						<pproTicksOut>3630312000000</pproTicksOut>
						<file id="file-201"/>
						<sourcetrack>
							<mediatype>audio</mediatype>
							<trackindex>1</trackindex>
						</sourcetrack>
						<link>
							<linkclipref>clipitem-412</linkclipref>
							<mediatype>video</mediatype>
							<trackindex>1</trackindex>
							<clipindex>458</clipindex>
						</link>
						<link>
							<linkclipref>clipitem-629</linkclipref>
							<mediatype>audio</mediatype>
							<trackindex>1</trackindex>
							<clipindex>153</clipindex>
							<groupindex>1</groupindex>
						</link>
						<link>
							<linkclipref>clipitem-793</linkclipref>
							<mediatype>audio</mediatype>
							<trackindex>2</trackindex>
							<clipindex>153</clipindex>
							<groupindex>1</groupindex>
						</link>
						<logginginfo>
							<description></description>
							<scene></scene>
							<shottake></shottake>
							<lognote></lognote>
							<good></good>
							<originalvideofilename></originalvideofilename>
							<originalaudiofilename></originalaudiofilename>
						</logginginfo>
						<colorinfo>
							<lut></lut>
							<lut1></lut1>
							<asc_sop></asc_sop>
							<asc_sat></asc_sat>
							<lut2></lut2>
						</colorinfo>
						<labels>
							<label2>Iris</label2>
						</labels>
					</clipitem>
					<clipitem id="clipitem-630" premiereChannelType="stereo">
						<masterclipid>masterclip-203</masterclipid>
						<name>A011_10290358_C033.mp4</name>
						<enabled>TRUE</enabled>
						<duration>1498</duration>
						<rate>
							<timebase>24</timebase>
							<ntsc>FALSE</ntsc>
						</rate>
						<start>29139</start>
						<end>29220</end>
						<in>373</in>
						<out>454</out>
						<pproTicksIn>3947832000000</pproTicksIn>
						<pproTicksOut>4805136000000</pproTicksOut>
						<file id="file-203"/>
						<sourcetrack>
							<mediatype>audio</mediatype>
							<trackindex>1</trackindex>
						</sourcetrack>
						<link>
							<linkclipref>clipitem-413</linkclipref>
							<mediatype>video</mediatype>
							<trackindex>1</trackindex>
							<clipindex>459</clipindex>
						</link>
						<link>
							<linkclipref>clipitem-630</linkclipref>
							<mediatype>audio</mediatype>
							<trackindex>1</trackindex>
							<clipindex>154</clipindex>
							<groupindex>1</groupindex>
						</link>
						<link>
							<linkclipref>clipitem-794</linkclipref>
							<mediatype>audio</mediatype>
							<trackindex>2</trackindex>
							<clipindex>154</clipindex>
							<groupindex>1</groupindex>
						</link>
						<logginginfo>
							<description></description>
							<scene></scene>
							<shottake></shottake>
							<lognote></lognote>
							<good></good>
							<originalvideofilename></originalvideofilename>
							<originalaudiofilename></originalaudiofilename>
						</logginginfo>
						<colorinfo>
							<lut></lut>
							<lut1></lut1>
							<asc_sop></asc_sop>
							<asc_sat></asc_sat>
							<lut2></lut2>
						</colorinfo>
						<labels>
							<label2>Iris</label2>
						</labels>
					</clipitem>
					<clipitem id="clipitem-631" premiereChannelType="stereo">
						<masterclipid>masterclip-204</masterclipid>
						<name>A011_10290336_C021.mp4</name>
						<enabled>TRUE</enabled>
						<duration>1791</duration>
						<rate>
							<timebase>24</timebase>
							<ntsc>FALSE</ntsc>
						</rate>
						<start>29220</start>
						<end>29276</end>
						<in>747</in>
						<out>803</out>
						<pproTicksIn>7906248000000</pproTicksIn>
						<pproTicksOut>8498952000000</pproTicksOut>
						<file id="file-204"/>
						<sourcetrack>
							<mediatype>audio</mediatype>
							<trackindex>1</trackindex>
						</sourcetrack>
						<link>
							<linkclipref>clipitem-414</linkclipref>
							<mediatype>video</mediatype>
							<trackindex>1</trackindex>
							<clipindex>460</clipindex>
						</link>
						<link>
							<linkclipref>clipitem-631</linkclipref>
							<mediatype>audio</mediatype>
							<trackindex>1</trackindex>
							<clipindex>155</clipindex>
							<groupindex>1</groupindex>
						</link>
						<link>
							<linkclipref>clipitem-795</linkclipref>
							<mediatype>audio</mediatype>
							<trackindex>2</trackindex>
							<clipindex>155</clipindex>
							<groupindex>1</groupindex>
						</link>
						<logginginfo>
							<description></description>
							<scene></scene>
							<shottake></shottake>
							<lognote></lognote>
							<good></good>
							<originalvideofilename></originalvideofilename>
							<originalaudiofilename></originalaudiofilename>
						</logginginfo>
						<colorinfo>
							<lut></lut>
							<lut1></lut1>
							<asc_sop></asc_sop>
							<asc_sat></asc_sat>
							<lut2></lut2>
						</colorinfo>
						<labels>
							<label2>Iris</label2>
						</labels>
					</clipitem>
					<clipitem id="clipitem-632" premiereChannelType="stereo">
						<masterclipid>masterclip-205</masterclipid>
						<name>A011_10290325_C016.mp4</name>
						<enabled>TRUE</enabled>
						<duration>1686</duration>
						<rate>
							<timebase>24</timebase>
							<ntsc>FALSE</ntsc>
						</rate>
						<start>29276</start>
						<end>29384</end>
						<in>706</in>
						<out>814</out>
						<pproTicksIn>7472304000000</pproTicksIn>
						<pproTicksOut>8615376000000</pproTicksOut>
						<file id="file-205"/>
						<sourcetrack>
							<mediatype>audio</mediatype>
							<trackindex>1</trackindex>
						</sourcetrack>
						<link>
							<linkclipref>clipitem-415</linkclipref>
							<mediatype>video</mediatype>
							<trackindex>1</trackindex>
							<clipindex>461</clipindex>
						</link>
						<link>
							<linkclipref>clipitem-632</linkclipref>
							<mediatype>audio</mediatype>
							<trackindex>1</trackindex>
							<clipindex>156</clipindex>
							<groupindex>1</groupindex>
						</link>
						<link>
							<linkclipref>clipitem-796</linkclipref>
							<mediatype>audio</mediatype>
							<trackindex>2</trackindex>
							<clipindex>156</clipindex>
							<groupindex>1</groupindex>
						</link>
						<logginginfo>
							<description></description>
							<scene></scene>
							<shottake></shottake>
							<lognote></lognote>
							<good></good>
							<originalvideofilename></originalvideofilename>
							<originalaudiofilename></originalaudiofilename>
						</logginginfo>
						<colorinfo>
							<lut></lut>
							<lut1></lut1>
							<asc_sop></asc_sop>
							<asc_sat></asc_sat>
							<lut2></lut2>
						</colorinfo>
						<labels>
							<label2>Iris</label2>
						</labels>
					</clipitem>
					<clipitem id="clipitem-633" premiereChannelType="stereo">
						<masterclipid>masterclip-204</masterclipid>
						<name>A011_10290336_C021.mp4</name>
						<enabled>TRUE</enabled>
						<duration>1791</duration>
						<rate>
							<timebase>24</timebase>
							<ntsc>FALSE</ntsc>
						</rate>
						<start>29384</start>
						<end>29459</end>
						<in>892</in>
						<out>967</out>
						<pproTicksIn>9440928000000</pproTicksIn>
						<pproTicksOut>10234728000000</pproTicksOut>
						<file id="file-204"/>
						<sourcetrack>
							<mediatype>audio</mediatype>
							<trackindex>1</trackindex>
						</sourcetrack>
						<link>
							<linkclipref>clipitem-416</linkclipref>
							<mediatype>video</mediatype>
							<trackindex>1</trackindex>
							<clipindex>462</clipindex>
						</link>
						<link>
							<linkclipref>clipitem-633</linkclipref>
							<mediatype>audio</mediatype>
							<trackindex>1</trackindex>
							<clipindex>157</clipindex>
							<groupindex>1</groupindex>
						</link>
						<link>
							<linkclipref>clipitem-797</linkclipref>
							<mediatype>audio</mediatype>
							<trackindex>2</trackindex>
							<clipindex>157</clipindex>
							<groupindex>1</groupindex>
						</link>
						<logginginfo>
							<description></description>
							<scene></scene>
							<shottake></shottake>
							<lognote></lognote>
							<good></good>
							<originalvideofilename></originalvideofilename>
							<originalaudiofilename></originalaudiofilename>
						</logginginfo>
						<colorinfo>
							<lut></lut>
							<lut1></lut1>
							<asc_sop></asc_sop>
							<asc_sat></asc_sat>
							<lut2></lut2>
						</colorinfo>
						<labels>
							<label2>Iris</label2>
						</labels>
					</clipitem>
					<clipitem id="clipitem-634" premiereChannelType="stereo">
						<masterclipid>masterclip-205</masterclipid>
						<name>A011_10290325_C016.mp4</name>
						<enabled>TRUE</enabled>
						<duration>1686</duration>
						<rate>
							<timebase>24</timebase>
							<ntsc>FALSE</ntsc>
						</rate>
						<start>29459</start>
						<end>29573</end>
						<in>875</in>
						<out>989</out>
						<pproTicksIn>9261000000000</pproTicksIn>
						<pproTicksOut>10467576000000</pproTicksOut>
						<file id="file-205"/>
						<sourcetrack>
							<mediatype>audio</mediatype>
							<trackindex>1</trackindex>
						</sourcetrack>
						<link>
							<linkclipref>clipitem-417</linkclipref>
							<mediatype>video</mediatype>
							<trackindex>1</trackindex>
							<clipindex>463</clipindex>
						</link>
						<link>
							<linkclipref>clipitem-634</linkclipref>
							<mediatype>audio</mediatype>
							<trackindex>1</trackindex>
							<clipindex>158</clipindex>
							<groupindex>1</groupindex>
						</link>
						<link>
							<linkclipref>clipitem-798</linkclipref>
							<mediatype>audio</mediatype>
							<trackindex>2</trackindex>
							<clipindex>158</clipindex>
							<groupindex>1</groupindex>
						</link>
						<logginginfo>
							<description></description>
							<scene></scene>
							<shottake></shottake>
							<lognote></lognote>
							<good></good>
							<originalvideofilename></originalvideofilename>
							<originalaudiofilename></originalaudiofilename>
						</logginginfo>
						<colorinfo>
							<lut></lut>
							<lut1></lut1>
							<asc_sop></asc_sop>
							<asc_sat></asc_sat>
							<lut2></lut2>
						</colorinfo>
						<labels>
							<label2>Iris</label2>
						</labels>
					</clipitem>
					<clipitem id="clipitem-635" premiereChannelType="stereo">
						<masterclipid>masterclip-205</masterclipid>
						<name>A011_10290325_C016.mp4</name>
						<enabled>TRUE</enabled>
						<duration>1686</duration>
						<rate>
							<timebase>24</timebase>
							<ntsc>FALSE</ntsc>
						</rate>
						<start>29573</start>
						<end>29609</end>
						<in>989</in>
						<out>1025</out>
						<pproTicksIn>10467576000000</pproTicksIn>
						<pproTicksOut>10848600000000</pproTicksOut>
						<file id="file-205"/>
						<sourcetrack>
							<mediatype>audio</mediatype>
							<trackindex>1</trackindex>
						</sourcetrack>
						<link>
							<linkclipref>clipitem-418</linkclipref>
							<mediatype>video</mediatype>
							<trackindex>1</trackindex>
							<clipindex>464</clipindex>
						</link>
						<link>
							<linkclipref>clipitem-635</linkclipref>
							<mediatype>audio</mediatype>
							<trackindex>1</trackindex>
							<clipindex>159</clipindex>
							<groupindex>1</groupindex>
						</link>
						<link>
							<linkclipref>clipitem-799</linkclipref>
							<mediatype>audio</mediatype>
							<trackindex>2</trackindex>
							<clipindex>159</clipindex>
							<groupindex>1</groupindex>
						</link>
						<logginginfo>
							<description></description>
							<scene></scene>
							<shottake></shottake>
							<lognote></lognote>
							<good></good>
							<originalvideofilename></originalvideofilename>
							<originalaudiofilename></originalaudiofilename>
						</logginginfo>
						<colorinfo>
							<lut></lut>
							<lut1></lut1>
							<asc_sop></asc_sop>
							<asc_sat></asc_sat>
							<lut2></lut2>
						</colorinfo>
						<labels>
							<label2>Iris</label2>
						</labels>
					</clipitem>
					<clipitem id="clipitem-636" premiereChannelType="stereo">
						<masterclipid>masterclip-204</masterclipid>
						<name>A011_10290336_C021.mp4</name>
						<enabled>TRUE</enabled>
						<duration>1791</duration>
						<rate>
							<timebase>24</timebase>
							<ntsc>FALSE</ntsc>
						</rate>
						<start>29609</start>
						<end>29636</end>
						<in>1103</in>
						<out>1130</out>
						<pproTicksIn>11674152000000</pproTicksIn>
						<pproTicksOut>11959920000000</pproTicksOut>
						<file id="file-204"/>
						<sourcetrack>
							<mediatype>audio</mediatype>
							<trackindex>1</trackindex>
						</sourcetrack>
						<link>
							<linkclipref>clipitem-419</linkclipref>
							<mediatype>video</mediatype>
							<trackindex>1</trackindex>
							<clipindex>465</clipindex>
						</link>
						<link>
							<linkclipref>clipitem-636</linkclipref>
							<mediatype>audio</mediatype>
							<trackindex>1</trackindex>
							<clipindex>160</clipindex>
							<groupindex>1</groupindex>
						</link>
						<link>
							<linkclipref>clipitem-800</linkclipref>
							<mediatype>audio</mediatype>
							<trackindex>2</trackindex>
							<clipindex>160</clipindex>
							<groupindex>1</groupindex>
						</link>
						<logginginfo>
							<description></description>
							<scene></scene>
							<shottake></shottake>
							<lognote></lognote>
							<good></good>
							<originalvideofilename></originalvideofilename>
							<originalaudiofilename></originalaudiofilename>
						</logginginfo>
						<colorinfo>
							<lut></lut>
							<lut1></lut1>
							<asc_sop></asc_sop>
							<asc_sat></asc_sat>
							<lut2></lut2>
						</colorinfo>
						<labels>
							<label2>Iris</label2>
						</labels>
					</clipitem>
					<clipitem id="clipitem-637" premiereChannelType="stereo">
						<masterclipid>masterclip-206</masterclipid>
						<name>A011_10290339_C025.mp4</name>
						<enabled>TRUE</enabled>
						<duration>915</duration>
						<rate>
							<timebase>24</timebase>
							<ntsc>FALSE</ntsc>
						</rate>
						<start>29809</start>
						<end>29924</end>
						<in>413</in>
						<out>528</out>
						<pproTicksIn>4371192000000</pproTicksIn>
						<pproTicksOut>5588352000000</pproTicksOut>
						<file id="file-206"/>
						<sourcetrack>
							<mediatype>audio</mediatype>
							<trackindex>1</trackindex>
						</sourcetrack>
						<link>
							<linkclipref>clipitem-421</linkclipref>
							<mediatype>video</mediatype>
							<trackindex>1</trackindex>
							<clipindex>467</clipindex>
						</link>
						<link>
							<linkclipref>clipitem-637</linkclipref>
							<mediatype>audio</mediatype>
							<trackindex>1</trackindex>
							<clipindex>161</clipindex>
							<groupindex>1</groupindex>
						</link>
						<link>
							<linkclipref>clipitem-801</linkclipref>
							<mediatype>audio</mediatype>
							<trackindex>2</trackindex>
							<clipindex>161</clipindex>
							<groupindex>1</groupindex>
						</link>
						<logginginfo>
							<description></description>
							<scene></scene>
							<shottake></shottake>
							<lognote></lognote>
							<good></good>
							<originalvideofilename></originalvideofilename>
							<originalaudiofilename></originalaudiofilename>
						</logginginfo>
						<colorinfo>
							<lut></lut>
							<lut1></lut1>
							<asc_sop></asc_sop>
							<asc_sat></asc_sat>
							<lut2></lut2>
						</colorinfo>
						<labels>
							<label2>Iris</label2>
						</labels>
					</clipitem>
					<clipitem id="clipitem-638" premiereChannelType="stereo">
						<masterclipid>masterclip-206</masterclipid>
						<name>A011_10290339_C025.mp4</name>
						<enabled>TRUE</enabled>
						<duration>915</duration>
						<rate>
							<timebase>24</timebase>
							<ntsc>FALSE</ntsc>
						</rate>
						<start>29924</start>
						<end>30092</end>
						<in>528</in>
						<out>696</out>
						<pproTicksIn>5588352000000</pproTicksIn>
						<pproTicksOut>7366464000000</pproTicksOut>
						<file id="file-206"/>
						<sourcetrack>
							<mediatype>audio</mediatype>
							<trackindex>1</trackindex>
						</sourcetrack>
						<link>
							<linkclipref>clipitem-422</linkclipref>
							<mediatype>video</mediatype>
							<trackindex>1</trackindex>
							<clipindex>468</clipindex>
						</link>
						<link>
							<linkclipref>clipitem-638</linkclipref>
							<mediatype>audio</mediatype>
							<trackindex>1</trackindex>
							<clipindex>162</clipindex>
							<groupindex>1</groupindex>
						</link>
						<link>
							<linkclipref>clipitem-802</linkclipref>
							<mediatype>audio</mediatype>
							<trackindex>2</trackindex>
							<clipindex>162</clipindex>
							<groupindex>1</groupindex>
						</link>
						<logginginfo>
							<description></description>
							<scene></scene>
							<shottake></shottake>
							<lognote></lognote>
							<good></good>
							<originalvideofilename></originalvideofilename>
							<originalaudiofilename></originalaudiofilename>
						</logginginfo>
						<colorinfo>
							<lut></lut>
							<lut1></lut1>
							<asc_sop></asc_sop>
							<asc_sat></asc_sat>
							<lut2></lut2>
						</colorinfo>
						<labels>
							<label2>Iris</label2>
						</labels>
					</clipitem>
					<clipitem id="clipitem-639" premiereChannelType="stereo">
						<masterclipid>masterclip-201</masterclipid>
						<name>A011_10290409_C042.mp4</name>
						<enabled>TRUE</enabled>
						<duration>1398</duration>
						<rate>
							<timebase>24</timebase>
							<ntsc>FALSE</ntsc>
						</rate>
						<start>30092</start>
						<end>30135</end>
						<in>1190</in>
						<out>1233</out>
						<pproTicksIn>12594960000000</pproTicksIn>
						<pproTicksOut>13050072000000</pproTicksOut>
						<file id="file-201"/>
						<sourcetrack>
							<mediatype>audio</mediatype>
							<trackindex>1</trackindex>
						</sourcetrack>
						<link>
							<linkclipref>clipitem-423</linkclipref>
							<mediatype>video</mediatype>
							<trackindex>1</trackindex>
							<clipindex>469</clipindex>
						</link>
						<link>
							<linkclipref>clipitem-639</linkclipref>
							<mediatype>audio</mediatype>
							<trackindex>1</trackindex>
							<clipindex>163</clipindex>
							<groupindex>1</groupindex>
						</link>
						<link>
							<linkclipref>clipitem-803</linkclipref>
							<mediatype>audio</mediatype>
							<trackindex>2</trackindex>
							<clipindex>163</clipindex>
							<groupindex>1</groupindex>
						</link>
						<logginginfo>
							<description></description>
							<scene></scene>
							<shottake></shottake>
							<lognote></lognote>
							<good></good>
							<originalvideofilename></originalvideofilename>
							<originalaudiofilename></originalaudiofilename>
						</logginginfo>
						<colorinfo>
							<lut></lut>
							<lut1></lut1>
							<asc_sop></asc_sop>
							<asc_sat></asc_sat>
							<lut2></lut2>
						</colorinfo>
						<labels>
							<label2>Iris</label2>
						</labels>
					</clipitem>
					<clipitem id="clipitem-640" premiereChannelType="stereo">
						<masterclipid>masterclip-238</masterclipid>
						<name>A011_10290346_C027.mp4</name>
						<enabled>TRUE</enabled>
						<duration>1796</duration>
						<rate>
							<timebase>24</timebase>
							<ntsc>FALSE</ntsc>
						</rate>
						<start>30135</start>
						<end>30214</end>
						<in>1588</in>
						<out>1667</out>
						<pproTicksIn>16807392000000</pproTicksIn>
						<pproTicksOut>17643528000000</pproTicksOut>
						<pixelaspectratio>square</pixelaspectratio>
						<anamorphic>FALSE</anamorphic>
						<file id="file-238">
							<name>A011_10290346_C027.mp4</name>
							<pathurl>file://localhost/F%3a/After%20bengaluru%20udupi/scene%2047/A011_10290346_C027.mp4</pathurl>
							<rate>
								<timebase>24</timebase>
								<ntsc>FALSE</ntsc>
							</rate>
							<duration>1796</duration>
							<timecode>
								<rate>
									<timebase>24</timebase>
									<ntsc>FALSE</ntsc>
								</rate>
								<string>03:46:16:20</string>
								<frame>325844</frame>
								<displayformat>NDF</displayformat>
							</timecode>
							<media>
								<video>
									<samplecharacteristics>
										<rate>
											<timebase>24</timebase>
											<ntsc>FALSE</ntsc>
										</rate>
										<width>1920</width>
										<height>1080</height>
										<anamorphic>FALSE</anamorphic>
										<pixelaspectratio>square</pixelaspectratio>
										<fielddominance>none</fielddominance>
									</samplecharacteristics>
								</video>
								<audio>
									<samplecharacteristics>
										<depth>16</depth>
										<samplerate>48000</samplerate>
									</samplecharacteristics>
									<channelcount>2</channelcount>
								</audio>
							</media>
						</file>
						<sourcetrack>
							<mediatype>audio</mediatype>
							<trackindex>1</trackindex>
						</sourcetrack>
						<link>
							<linkclipref>clipitem-640</linkclipref>
							<mediatype>audio</mediatype>
							<trackindex>1</trackindex>
							<clipindex>164</clipindex>
							<groupindex>1</groupindex>
						</link>
						<link>
							<linkclipref>clipitem-804</linkclipref>
							<mediatype>audio</mediatype>
							<trackindex>2</trackindex>
							<clipindex>164</clipindex>
							<groupindex>1</groupindex>
						</link>
						<logginginfo>
							<description></description>
							<scene></scene>
							<shottake></shottake>
							<lognote></lognote>
							<good></good>
							<originalvideofilename></originalvideofilename>
							<originalaudiofilename></originalaudiofilename>
						</logginginfo>
						<colorinfo>
							<lut></lut>
							<lut1></lut1>
							<asc_sop></asc_sop>
							<asc_sat></asc_sat>
							<lut2></lut2>
						</colorinfo>
						<labels>
							<label2>Iris</label2>
						</labels>
					</clipitem>
					<enabled>FALSE</enabled>
					<locked>FALSE</locked>
					<outputchannelindex>1</outputchannelindex>
				</track>
				<track TL.SQTrackAudioKeyframeStyle="0" TL.SQTrackShy="0" TL.SQTrackExpandedHeight="15" TL.SQTrackExpanded="0" MZ.TrackTargeted="1" PannerCurrentValue="0.5" PannerIsInverted="true" PannerStartKeyframe="-91445760000000000,0.5,0,0,0,0,0,0" PannerName="Balance" currentExplodedTrackIndex="1" totalExplodedTrackCount="2" premiereTrackType="Stereo">
					<clipitem id="clipitem-641" premiereChannelType="stereo">
						<masterclipid>masterclip-3</masterclipid>
						<name>A006_06191704_C135.mp4</name>
						<enabled>TRUE</enabled>
						<duration>726</duration>
						<rate>
							<timebase>24</timebase>
							<ntsc>FALSE</ntsc>
						</rate>
						<start>595</start>
						<end>907</end>
						<in>116</in>
						<out>428</out>
						<pproTicksIn>1227744000000</pproTicksIn>
						<pproTicksOut>4529952000000</pproTicksOut>
						<file id="file-3"/>
						<sourcetrack>
							<mediatype>audio</mediatype>
							<trackindex>2</trackindex>
						</sourcetrack>
						<link>
							<linkclipref>clipitem-5</linkclipref>
							<mediatype>video</mediatype>
							<trackindex>1</trackindex>
							<clipindex>5</clipindex>
						</link>
						<link>
							<linkclipref>clipitem-477</linkclipref>
							<mediatype>audio</mediatype>
							<trackindex>1</trackindex>
							<clipindex>1</clipindex>
							<groupindex>1</groupindex>
						</link>
						<link>
							<linkclipref>clipitem-641</linkclipref>
							<mediatype>audio</mediatype>
							<trackindex>2</trackindex>
							<clipindex>1</clipindex>
							<groupindex>1</groupindex>
						</link>
						<logginginfo>
							<description></description>
							<scene></scene>
							<shottake></shottake>
							<lognote></lognote>
							<good></good>
							<originalvideofilename></originalvideofilename>
							<originalaudiofilename></originalaudiofilename>
						</logginginfo>
						<colorinfo>
							<lut></lut>
							<lut1></lut1>
							<asc_sop></asc_sop>
							<asc_sat></asc_sat>
							<lut2></lut2>
						</colorinfo>
						<labels>
							<label2>Iris</label2>
						</labels>
					</clipitem>
					<clipitem id="clipitem-642" premiereChannelType="stereo">
						<masterclipid>masterclip-224</masterclipid>
						<name>Audio 3_26.wav</name>
						<enabled>TRUE</enabled>
						<duration>156</duration>
						<rate>
							<timebase>24</timebase>
							<ntsc>FALSE</ntsc>
						</rate>
						<start>1391</start>
						<end>1519</end>
						<in>10</in>
						<out>139</out>
						<pproTicksIn>105840000000</pproTicksIn>
						<pproTicksOut>1471176000000</pproTicksOut>
						<file id="file-224"/>
						<sourcetrack>
							<mediatype>audio</mediatype>
							<trackindex>2</trackindex>
						</sourcetrack>
						<filter>
							<effect>
								<name>Audio Levels</name>
								<effectid>audiolevels</effectid>
								<effectcategory>audiolevels</effectcategory>
								<effecttype>audiolevels</effecttype>
								<mediatype>audio</mediatype>
								<pproBypass>false</pproBypass>
								<parameter authoringApp="PremierePro">
									<parameterid>level</parameterid>
									<name>Level</name>
									<valuemin>0</valuemin>
									<valuemax>3.98109</valuemax>
									<value>0.0498738</value>
								</parameter>
							</effect>
						</filter>
						<link>
							<linkclipref>clipitem-478</linkclipref>
							<mediatype>audio</mediatype>
							<trackindex>1</trackindex>
							<clipindex>2</clipindex>
							<groupindex>1</groupindex>
						</link>
						<link>
							<linkclipref>clipitem-642</linkclipref>
							<mediatype>audio</mediatype>
							<trackindex>2</trackindex>
							<clipindex>2</clipindex>
							<groupindex>1</groupindex>
						</link>
						<logginginfo>
							<description></description>
							<scene></scene>
							<shottake></shottake>
							<lognote></lognote>
							<good></good>
							<originalvideofilename></originalvideofilename>
							<originalaudiofilename></originalaudiofilename>
						</logginginfo>
						<colorinfo>
							<lut></lut>
							<lut1></lut1>
							<asc_sop></asc_sop>
							<asc_sat></asc_sat>
							<lut2></lut2>
						</colorinfo>
						<labels>
							<label2>Caribbean</label2>
						</labels>
					</clipitem>
					<clipitem id="clipitem-643" premiereChannelType="stereo">
						<masterclipid>masterclip-8</masterclipid>
						<name>A006_06191824_C179.mp4</name>
						<enabled>TRUE</enabled>
						<duration>926</duration>
						<rate>
							<timebase>24</timebase>
							<ntsc>FALSE</ntsc>
						</rate>
						<start>1687</start>
						<end>1834</end>
						<in>637</in>
						<out>784</out>
						<pproTicksIn>6742008000000</pproTicksIn>
						<pproTicksOut>8297856000000</pproTicksOut>
						<file id="file-8"/>
						<sourcetrack>
							<mediatype>audio</mediatype>
							<trackindex>2</trackindex>
						</sourcetrack>
						<link>
							<linkclipref>clipitem-479</linkclipref>
							<mediatype>audio</mediatype>
							<trackindex>1</trackindex>
							<clipindex>3</clipindex>
							<groupindex>1</groupindex>
						</link>
						<link>
							<linkclipref>clipitem-643</linkclipref>
							<mediatype>audio</mediatype>
							<trackindex>2</trackindex>
							<clipindex>3</clipindex>
							<groupindex>1</groupindex>
						</link>
						<logginginfo>
							<description></description>
							<scene></scene>
							<shottake></shottake>
							<lognote></lognote>
							<good></good>
							<originalvideofilename></originalvideofilename>
							<originalaudiofilename></originalaudiofilename>
						</logginginfo>
						<colorinfo>
							<lut></lut>
							<lut1></lut1>
							<asc_sop></asc_sop>
							<asc_sat></asc_sat>
							<lut2></lut2>
						</colorinfo>
						<labels>
							<label2>Iris</label2>
						</labels>
					</clipitem>
					<clipitem id="clipitem-644" premiereChannelType="stereo">
						<masterclipid>masterclip-225</masterclipid>
						<name>Audio 3_28.wav</name>
						<enabled>TRUE</enabled>
						<duration>189</duration>
						<rate>
							<timebase>24</timebase>
							<ntsc>FALSE</ntsc>
						</rate>
						<start>1906</start>
						<end>2048</end>
						<in>33</in>
						<out>175</out>
						<pproTicksIn>349272000000</pproTicksIn>
						<pproTicksOut>1852200000000</pproTicksOut>
						<file id="file-225"/>
						<sourcetrack>
							<mediatype>audio</mediatype>
							<trackindex>2</trackindex>
						</sourcetrack>
						<filter>
							<effect>
								<name>Audio Levels</name>
								<effectid>audiolevels</effectid>
								<effectcategory>audiolevels</effectcategory>
								<effecttype>audiolevels</effecttype>
								<mediatype>audio</mediatype>
								<pproBypass>false</pproBypass>
								<parameter authoringApp="PremierePro">
									<parameterid>level</parameterid>
									<name>Level</name>
									<valuemin>0</valuemin>
									<valuemax>3.98109</valuemax>
									<value>0.0864718</value>
								</parameter>
							</effect>
						</filter>
						<link>
							<linkclipref>clipitem-480</linkclipref>
							<mediatype>audio</mediatype>
							<trackindex>1</trackindex>
							<clipindex>4</clipindex>
							<groupindex>1</groupindex>
						</link>
						<link>
							<linkclipref>clipitem-644</linkclipref>
							<mediatype>audio</mediatype>
							<trackindex>2</trackindex>
							<clipindex>4</clipindex>
							<groupindex>1</groupindex>
						</link>
						<logginginfo>
							<description></description>
							<scene></scene>
							<shottake></shottake>
							<lognote></lognote>
							<good></good>
							<originalvideofilename></originalvideofilename>
							<originalaudiofilename></originalaudiofilename>
						</logginginfo>
						<colorinfo>
							<lut></lut>
							<lut1></lut1>
							<asc_sop></asc_sop>
							<asc_sat></asc_sat>
							<lut2></lut2>
						</colorinfo>
						<labels>
							<label2>Caribbean</label2>
						</labels>
					</clipitem>
					<clipitem id="clipitem-645" premiereChannelType="stereo">
						<masterclipid>masterclip-10</masterclipid>
						<name>A006_06191811_C170.mp4</name>
						<enabled>TRUE</enabled>
						<duration>1508</duration>
						<rate>
							<timebase>24</timebase>
							<ntsc>FALSE</ntsc>
						</rate>
						<start>2279</start>
						<end>2336</end>
						<in>874</in>
						<out>931</out>
						<pproTicksIn>9250416000000</pproTicksIn>
						<pproTicksOut>9853704000000</pproTicksOut>
						<file id="file-10"/>
						<sourcetrack>
							<mediatype>audio</mediatype>
							<trackindex>2</trackindex>
						</sourcetrack>
						<link>
							<linkclipref>clipitem-30</linkclipref>
							<mediatype>video</mediatype>
							<trackindex>1</trackindex>
							<clipindex>30</clipindex>
						</link>
						<link>
							<linkclipref>clipitem-481</linkclipref>
							<mediatype>audio</mediatype>
							<trackindex>1</trackindex>
							<clipindex>5</clipindex>
							<groupindex>1</groupindex>
						</link>
						<link>
							<linkclipref>clipitem-645</linkclipref>
							<mediatype>audio</mediatype>
							<trackindex>2</trackindex>
							<clipindex>5</clipindex>
							<groupindex>1</groupindex>
						</link>
						<logginginfo>
							<description></description>
							<scene></scene>
							<shottake></shottake>
							<lognote></lognote>
							<good></good>
							<originalvideofilename></originalvideofilename>
							<originalaudiofilename></originalaudiofilename>
						</logginginfo>
						<colorinfo>
							<lut></lut>
							<lut1></lut1>
							<asc_sop></asc_sop>
							<asc_sat></asc_sat>
							<lut2></lut2>
						</colorinfo>
						<labels>
							<label2>Iris</label2>
						</labels>
					</clipitem>
					<clipitem id="clipitem-646" premiereChannelType="stereo">
						<masterclipid>masterclip-13</masterclipid>
						<name>A006_06191753_C159.mp4</name>
						<enabled>TRUE</enabled>
						<duration>1055</duration>
						<rate>
							<timebase>24</timebase>
							<ntsc>FALSE</ntsc>
						</rate>
						<start>2731</start>
						<end>2955</end>
						<in>744</in>
						<out>968</out>
						<pproTicksIn>7874496000000</pproTicksIn>
						<pproTicksOut>10245312000000</pproTicksOut>
						<file id="file-13"/>
						<sourcetrack>
							<mediatype>audio</mediatype>
							<trackindex>2</trackindex>
						</sourcetrack>
						<link>
							<linkclipref>clipitem-482</linkclipref>
							<mediatype>audio</mediatype>
							<trackindex>1</trackindex>
							<clipindex>6</clipindex>
							<groupindex>1</groupindex>
						</link>
						<link>
							<linkclipref>clipitem-646</linkclipref>
							<mediatype>audio</mediatype>
							<trackindex>2</trackindex>
							<clipindex>6</clipindex>
							<groupindex>1</groupindex>
						</link>
						<logginginfo>
							<description></description>
							<scene></scene>
							<shottake></shottake>
							<lognote></lognote>
							<good></good>
							<originalvideofilename></originalvideofilename>
							<originalaudiofilename></originalaudiofilename>
						</logginginfo>
						<colorinfo>
							<lut></lut>
							<lut1></lut1>
							<asc_sop></asc_sop>
							<asc_sat></asc_sat>
							<lut2></lut2>
						</colorinfo>
						<labels>
							<label2>Iris</label2>
						</labels>
					</clipitem>
					<clipitem id="clipitem-647" premiereChannelType="stereo">
						<masterclipid>masterclip-14</masterclipid>
						<name>A006_06192107_C191.mp4</name>
						<enabled>TRUE</enabled>
						<duration>1308</duration>
						<rate>
							<timebase>24</timebase>
							<ntsc>FALSE</ntsc>
						</rate>
						<start>2955</start>
						<end>3075</end>
						<in>116</in>
						<out>236</out>
						<pproTicksIn>1227744000000</pproTicksIn>
						<pproTicksOut>2497824000000</pproTicksOut>
						<file id="file-14"/>
						<sourcetrack>
							<mediatype>audio</mediatype>
							<trackindex>2</trackindex>
						</sourcetrack>
						<link>
							<linkclipref>clipitem-483</linkclipref>
							<mediatype>audio</mediatype>
							<trackindex>1</trackindex>
							<clipindex>7</clipindex>
							<groupindex>1</groupindex>
						</link>
						<link>
							<linkclipref>clipitem-647</linkclipref>
							<mediatype>audio</mediatype>
							<trackindex>2</trackindex>
							<clipindex>7</clipindex>
							<groupindex>1</groupindex>
						</link>
						<logginginfo>
							<description></description>
							<scene></scene>
							<shottake></shottake>
							<lognote></lognote>
							<good></good>
							<originalvideofilename></originalvideofilename>
							<originalaudiofilename></originalaudiofilename>
						</logginginfo>
						<colorinfo>
							<lut></lut>
							<lut1></lut1>
							<asc_sop></asc_sop>
							<asc_sat></asc_sat>
							<lut2></lut2>
						</colorinfo>
						<labels>
							<label2>Iris</label2>
						</labels>
					</clipitem>
					<clipitem id="clipitem-648" premiereChannelType="stereo">
						<masterclipid>masterclip-15</masterclipid>
						<name>A006_06192251_C247.mp4</name>
						<enabled>TRUE</enabled>
						<duration>3563</duration>
						<rate>
							<timebase>24</timebase>
							<ntsc>FALSE</ntsc>
						</rate>
						<start>3075</start>
						<end>3171</end>
						<in>179</in>
						<out>275</out>
						<pproTicksIn>1894536000000</pproTicksIn>
						<pproTicksOut>2910600000000</pproTicksOut>
						<file id="file-15"/>
						<sourcetrack>
							<mediatype>audio</mediatype>
							<trackindex>2</trackindex>
						</sourcetrack>
						<link>
							<linkclipref>clipitem-38</linkclipref>
							<mediatype>video</mediatype>
							<trackindex>1</trackindex>
							<clipindex>38</clipindex>
						</link>
						<link>
							<linkclipref>clipitem-484</linkclipref>
							<mediatype>audio</mediatype>
							<trackindex>1</trackindex>
							<clipindex>8</clipindex>
							<groupindex>1</groupindex>
						</link>
						<link>
							<linkclipref>clipitem-648</linkclipref>
							<mediatype>audio</mediatype>
							<trackindex>2</trackindex>
							<clipindex>8</clipindex>
							<groupindex>1</groupindex>
						</link>
						<logginginfo>
							<description></description>
							<scene></scene>
							<shottake></shottake>
							<lognote></lognote>
							<good></good>
							<originalvideofilename></originalvideofilename>
							<originalaudiofilename></originalaudiofilename>
						</logginginfo>
						<colorinfo>
							<lut></lut>
							<lut1></lut1>
							<asc_sop></asc_sop>
							<asc_sat></asc_sat>
							<lut2></lut2>
						</colorinfo>
						<labels>
							<label2>Iris</label2>
						</labels>
					</clipitem>
					<clipitem id="clipitem-649" premiereChannelType="stereo">
						<masterclipid>masterclip-226</masterclipid>
						<name>Audio 3_29.wav</name>
						<enabled>TRUE</enabled>
						<duration>183</duration>
						<rate>
							<timebase>24</timebase>
							<ntsc>FALSE</ntsc>
						</rate>
						<start>3398</start>
						<end>3464</end>
						<in>20</in>
						<out>86</out>
						<pproTicksIn>211680000000</pproTicksIn>
						<pproTicksOut>910224000000</pproTicksOut>
						<file id="file-226"/>
						<sourcetrack>
							<mediatype>audio</mediatype>
							<trackindex>2</trackindex>
						</sourcetrack>
						<filter>
							<effect>
								<name>Audio Levels</name>
								<effectid>audiolevels</effectid>
								<effectcategory>audiolevels</effectcategory>
								<effecttype>audiolevels</effecttype>
								<mediatype>audio</mediatype>
								<pproBypass>false</pproBypass>
								<parameter authoringApp="PremierePro">
									<parameterid>level</parameterid>
									<name>Level</name>
									<valuemin>0</valuemin>
									<valuemax>3.98109</valuemax>
									<value>0.0667907</value>
								</parameter>
							</effect>
						</filter>
						<link>
							<linkclipref>clipitem-485</linkclipref>
							<mediatype>audio</mediatype>
							<trackindex>1</trackindex>
							<clipindex>9</clipindex>
							<groupindex>1</groupindex>
						</link>
						<link>
							<linkclipref>clipitem-649</linkclipref>
							<mediatype>audio</mediatype>
							<trackindex>2</trackindex>
							<clipindex>9</clipindex>
							<groupindex>1</groupindex>
						</link>
						<logginginfo>
							<description></description>
							<scene></scene>
							<shottake></shottake>
							<lognote></lognote>
							<good></good>
							<originalvideofilename></originalvideofilename>
							<originalaudiofilename></originalaudiofilename>
						</logginginfo>
						<colorinfo>
							<lut></lut>
							<lut1></lut1>
							<asc_sop></asc_sop>
							<asc_sat></asc_sat>
							<lut2></lut2>
						</colorinfo>
						<labels>
							<label2>Caribbean</label2>
						</labels>
					</clipitem>
					<clipitem id="clipitem-650" premiereChannelType="stereo">
						<masterclipid>masterclip-226</masterclipid>
						<name>Audio 3_29.wav</name>
						<enabled>TRUE</enabled>
						<duration>183</duration>
						<rate>
							<timebase>24</timebase>
							<ntsc>FALSE</ntsc>
						</rate>
						<start>3480</start>
						<end>3544</end>
						<in>92</in>
						<out>156</out>
						<pproTicksIn>973728000000</pproTicksIn>
						<pproTicksOut>1651104000000</pproTicksOut>
						<file id="file-226"/>
						<sourcetrack>
							<mediatype>audio</mediatype>
							<trackindex>2</trackindex>
						</sourcetrack>
						<filter>
							<effect>
								<name>Audio Levels</name>
								<effectid>audiolevels</effectid>
								<effectcategory>audiolevels</effectcategory>
								<effecttype>audiolevels</effecttype>
								<mediatype>audio</mediatype>
								<pproBypass>false</pproBypass>
								<parameter authoringApp="PremierePro">
									<parameterid>level</parameterid>
									<name>Level</name>
									<valuemin>0</valuemin>
									<valuemax>3.98109</valuemax>
									<value>0.351456</value>
								</parameter>
							</effect>
						</filter>
						<link>
							<linkclipref>clipitem-486</linkclipref>
							<mediatype>audio</mediatype>
							<trackindex>1</trackindex>
							<clipindex>10</clipindex>
							<groupindex>1</groupindex>
						</link>
						<link>
							<linkclipref>clipitem-650</linkclipref>
							<mediatype>audio</mediatype>
							<trackindex>2</trackindex>
							<clipindex>10</clipindex>
							<groupindex>1</groupindex>
						</link>
						<logginginfo>
							<description></description>
							<scene></scene>
							<shottake></shottake>
							<lognote></lognote>
							<good></good>
							<originalvideofilename></originalvideofilename>
							<originalaudiofilename></originalaudiofilename>
						</logginginfo>
						<colorinfo>
							<lut></lut>
							<lut1></lut1>
							<asc_sop></asc_sop>
							<asc_sat></asc_sat>
							<lut2></lut2>
						</colorinfo>
						<labels>
							<label2>Caribbean</label2>
						</labels>
					</clipitem>
					<clipitem id="clipitem-651" premiereChannelType="stereo">
						<masterclipid>masterclip-19</masterclipid>
						<name>A006_06191855_C187.mp4</name>
						<enabled>TRUE</enabled>
						<duration>1238</duration>
						<rate>
							<timebase>24</timebase>
							<ntsc>FALSE</ntsc>
						</rate>
						<start>3585</start>
						<end>3677</end>
						<in>120</in>
						<out>212</out>
						<pproTicksIn>1270080000000</pproTicksIn>
						<pproTicksOut>2243808000000</pproTicksOut>
						<file id="file-19"/>
						<sourcetrack>
							<mediatype>audio</mediatype>
							<trackindex>2</trackindex>
						</sourcetrack>
						<link>
							<linkclipref>clipitem-45</linkclipref>
							<mediatype>video</mediatype>
							<trackindex>1</trackindex>
							<clipindex>47</clipindex>
						</link>
						<link>
							<linkclipref>clipitem-487</linkclipref>
							<mediatype>audio</mediatype>
							<trackindex>1</trackindex>
							<clipindex>11</clipindex>
							<groupindex>1</groupindex>
						</link>
						<link>
							<linkclipref>clipitem-651</linkclipref>
							<mediatype>audio</mediatype>
							<trackindex>2</trackindex>
							<clipindex>11</clipindex>
							<groupindex>1</groupindex>
						</link>
						<logginginfo>
							<description></description>
							<scene></scene>
							<shottake></shottake>
							<lognote></lognote>
							<good></good>
							<originalvideofilename></originalvideofilename>
							<originalaudiofilename></originalaudiofilename>
						</logginginfo>
						<colorinfo>
							<lut></lut>
							<lut1></lut1>
							<asc_sop></asc_sop>
							<asc_sat></asc_sat>
							<lut2></lut2>
						</colorinfo>
						<labels>
							<label2>Iris</label2>
						</labels>
					</clipitem>
					<clipitem id="clipitem-652" premiereChannelType="stereo">
						<masterclipid>masterclip-20</masterclipid>
						<name>A006_06192131_C203.mp4</name>
						<enabled>TRUE</enabled>
						<duration>707</duration>
						<rate>
							<timebase>24</timebase>
							<ntsc>FALSE</ntsc>
						</rate>
						<start>3681</start>
						<end>3727</end>
						<in>57</in>
						<out>103</out>
						<pproTicksIn>603288000000</pproTicksIn>
						<pproTicksOut>1090152000000</pproTicksOut>
						<file id="file-20"/>
						<sourcetrack>
							<mediatype>audio</mediatype>
							<trackindex>2</trackindex>
						</sourcetrack>
						<link>
							<linkclipref>clipitem-46</linkclipref>
							<mediatype>video</mediatype>
							<trackindex>1</trackindex>
							<clipindex>48</clipindex>
						</link>
						<link>
							<linkclipref>clipitem-488</linkclipref>
							<mediatype>audio</mediatype>
							<trackindex>1</trackindex>
							<clipindex>12</clipindex>
							<groupindex>1</groupindex>
						</link>
						<link>
							<linkclipref>clipitem-652</linkclipref>
							<mediatype>audio</mediatype>
							<trackindex>2</trackindex>
							<clipindex>12</clipindex>
							<groupindex>1</groupindex>
						</link>
						<logginginfo>
							<description></description>
							<scene></scene>
							<shottake></shottake>
							<lognote></lognote>
							<good></good>
							<originalvideofilename></originalvideofilename>
							<originalaudiofilename></originalaudiofilename>
						</logginginfo>
						<colorinfo>
							<lut></lut>
							<lut1></lut1>
							<asc_sop></asc_sop>
							<asc_sat></asc_sat>
							<lut2></lut2>
						</colorinfo>
						<labels>
							<label2>Iris</label2>
						</labels>
					</clipitem>
					<clipitem id="clipitem-653" premiereChannelType="stereo">
						<masterclipid>masterclip-21</masterclipid>
						<name>A006_06192138_C206.mp4</name>
						<enabled>TRUE</enabled>
						<duration>3995</duration>
						<rate>
							<timebase>24</timebase>
							<ntsc>FALSE</ntsc>
						</rate>
						<start>3727</start>
						<end>3795</end>
						<in>220</in>
						<out>288</out>
						<pproTicksIn>2328480000000</pproTicksIn>
						<pproTicksOut>3048192000000</pproTicksOut>
						<file id="file-21"/>
						<sourcetrack>
							<mediatype>audio</mediatype>
							<trackindex>2</trackindex>
						</sourcetrack>
						<link>
							<linkclipref>clipitem-47</linkclipref>
							<mediatype>video</mediatype>
							<trackindex>1</trackindex>
							<clipindex>49</clipindex>
						</link>
						<link>
							<linkclipref>clipitem-489</linkclipref>
							<mediatype>audio</mediatype>
							<trackindex>1</trackindex>
							<clipindex>13</clipindex>
							<groupindex>1</groupindex>
						</link>
						<link>
							<linkclipref>clipitem-653</linkclipref>
							<mediatype>audio</mediatype>
							<trackindex>2</trackindex>
							<clipindex>13</clipindex>
							<groupindex>1</groupindex>
						</link>
						<logginginfo>
							<description></description>
							<scene></scene>
							<shottake></shottake>
							<lognote></lognote>
							<good></good>
							<originalvideofilename></originalvideofilename>
							<originalaudiofilename></originalaudiofilename>
						</logginginfo>
						<colorinfo>
							<lut></lut>
							<lut1></lut1>
							<asc_sop></asc_sop>
							<asc_sat></asc_sat>
							<lut2></lut2>
						</colorinfo>
						<labels>
							<label2>Iris</label2>
						</labels>
					</clipitem>
					<clipitem id="clipitem-654" premiereChannelType="stereo">
						<masterclipid>masterclip-22</masterclipid>
						<name>A006_06192120_C197.mp4</name>
						<enabled>TRUE</enabled>
						<duration>988</duration>
						<rate>
							<timebase>24</timebase>
							<ntsc>FALSE</ntsc>
						</rate>
						<start>3822</start>
						<end>3925</end>
						<in>149</in>
						<out>252</out>
						<pproTicksIn>1577016000000</pproTicksIn>
						<pproTicksOut>2667168000000</pproTicksOut>
						<file id="file-22"/>
						<sourcetrack>
							<mediatype>audio</mediatype>
							<trackindex>2</trackindex>
						</sourcetrack>
						<link>
							<linkclipref>clipitem-48</linkclipref>
							<mediatype>video</mediatype>
							<trackindex>1</trackindex>
							<clipindex>50</clipindex>
						</link>
						<link>
							<linkclipref>clipitem-490</linkclipref>
							<mediatype>audio</mediatype>
							<trackindex>1</trackindex>
							<clipindex>14</clipindex>
							<groupindex>1</groupindex>
						</link>
						<link>
							<linkclipref>clipitem-654</linkclipref>
							<mediatype>audio</mediatype>
							<trackindex>2</trackindex>
							<clipindex>14</clipindex>
							<groupindex>1</groupindex>
						</link>
						<logginginfo>
							<description></description>
							<scene></scene>
							<shottake></shottake>
							<lognote></lognote>
							<good></good>
							<originalvideofilename></originalvideofilename>
							<originalaudiofilename></originalaudiofilename>
						</logginginfo>
						<colorinfo>
							<lut></lut>
							<lut1></lut1>
							<asc_sop></asc_sop>
							<asc_sat></asc_sat>
							<lut2></lut2>
						</colorinfo>
						<labels>
							<label2>Iris</label2>
						</labels>
					</clipitem>
					<clipitem id="clipitem-655" premiereChannelType="stereo">
						<masterclipid>masterclip-22</masterclipid>
						<name>A006_06192120_C197.mp4</name>
						<enabled>TRUE</enabled>
						<duration>988</duration>
						<rate>
							<timebase>24</timebase>
							<ntsc>FALSE</ntsc>
						</rate>
						<start>3925</start>
						<end>4103</end>
						<in>252</in>
						<out>430</out>
						<pproTicksIn>2667168000000</pproTicksIn>
						<pproTicksOut>4551120000000</pproTicksOut>
						<file id="file-22"/>
						<sourcetrack>
							<mediatype>audio</mediatype>
							<trackindex>2</trackindex>
						</sourcetrack>
						<link>
							<linkclipref>clipitem-491</linkclipref>
							<mediatype>audio</mediatype>
							<trackindex>1</trackindex>
							<clipindex>15</clipindex>
							<groupindex>1</groupindex>
						</link>
						<link>
							<linkclipref>clipitem-655</linkclipref>
							<mediatype>audio</mediatype>
							<trackindex>2</trackindex>
							<clipindex>15</clipindex>
							<groupindex>1</groupindex>
						</link>
						<logginginfo>
							<description></description>
							<scene></scene>
							<shottake></shottake>
							<lognote></lognote>
							<good></good>
							<originalvideofilename></originalvideofilename>
							<originalaudiofilename></originalaudiofilename>
						</logginginfo>
						<colorinfo>
							<lut></lut>
							<lut1></lut1>
							<asc_sop></asc_sop>
							<asc_sat></asc_sat>
							<lut2></lut2>
						</colorinfo>
						<labels>
							<label2>Iris</label2>
						</labels>
					</clipitem>
					<clipitem id="clipitem-656" premiereChannelType="stereo">
						<masterclipid>masterclip-22</masterclipid>
						<name>A006_06192120_C197.mp4</name>
						<enabled>TRUE</enabled>
						<duration>988</duration>
						<rate>
							<timebase>24</timebase>
							<ntsc>FALSE</ntsc>
						</rate>
						<start>4103</start>
						<end>4285</end>
						<in>430</in>
						<out>612</out>
						<pproTicksIn>4551120000000</pproTicksIn>
						<pproTicksOut>6477408000000</pproTicksOut>
						<file id="file-22"/>
						<sourcetrack>
							<mediatype>audio</mediatype>
							<trackindex>2</trackindex>
						</sourcetrack>
						<link>
							<linkclipref>clipitem-50</linkclipref>
							<mediatype>video</mediatype>
							<trackindex>1</trackindex>
							<clipindex>52</clipindex>
						</link>
						<link>
							<linkclipref>clipitem-492</linkclipref>
							<mediatype>audio</mediatype>
							<trackindex>1</trackindex>
							<clipindex>16</clipindex>
							<groupindex>1</groupindex>
						</link>
						<link>
							<linkclipref>clipitem-656</linkclipref>
							<mediatype>audio</mediatype>
							<trackindex>2</trackindex>
							<clipindex>16</clipindex>
							<groupindex>1</groupindex>
						</link>
						<logginginfo>
							<description></description>
							<scene></scene>
							<shottake></shottake>
							<lognote></lognote>
							<good></good>
							<originalvideofilename></originalvideofilename>
							<originalaudiofilename></originalaudiofilename>
						</logginginfo>
						<colorinfo>
							<lut></lut>
							<lut1></lut1>
							<asc_sop></asc_sop>
							<asc_sat></asc_sat>
							<lut2></lut2>
						</colorinfo>
						<labels>
							<label2>Iris</label2>
						</labels>
					</clipitem>
					<clipitem id="clipitem-657" premiereChannelType="stereo">
						<masterclipid>masterclip-23</masterclipid>
						<name>A006_06192126_C199.mp4</name>
						<enabled>TRUE</enabled>
						<duration>922</duration>
						<rate>
							<timebase>24</timebase>
							<ntsc>FALSE</ntsc>
						</rate>
						<start>4285</start>
						<end>4351</end>
						<in>688</in>
						<out>754</out>
						<pproTicksIn>7281792000000</pproTicksIn>
						<pproTicksOut>7980336000000</pproTicksOut>
						<file id="file-23"/>
						<sourcetrack>
							<mediatype>audio</mediatype>
							<trackindex>2</trackindex>
						</sourcetrack>
						<link>
							<linkclipref>clipitem-51</linkclipref>
							<mediatype>video</mediatype>
							<trackindex>1</trackindex>
							<clipindex>53</clipindex>
						</link>
						<link>
							<linkclipref>clipitem-493</linkclipref>
							<mediatype>audio</mediatype>
							<trackindex>1</trackindex>
							<clipindex>17</clipindex>
							<groupindex>1</groupindex>
						</link>
						<link>
							<linkclipref>clipitem-657</linkclipref>
							<mediatype>audio</mediatype>
							<trackindex>2</trackindex>
							<clipindex>17</clipindex>
							<groupindex>1</groupindex>
						</link>
						<logginginfo>
							<description></description>
							<scene></scene>
							<shottake></shottake>
							<lognote></lognote>
							<good></good>
							<originalvideofilename></originalvideofilename>
							<originalaudiofilename></originalaudiofilename>
						</logginginfo>
						<colorinfo>
							<lut></lut>
							<lut1></lut1>
							<asc_sop></asc_sop>
							<asc_sat></asc_sat>
							<lut2></lut2>
						</colorinfo>
						<labels>
							<label2>Iris</label2>
						</labels>
					</clipitem>
					<clipitem id="clipitem-658" premiereChannelType="stereo">
						<masterclipid>masterclip-24</masterclipid>
						<name>A006_06192132_C204.mp4</name>
						<enabled>TRUE</enabled>
						<duration>526</duration>
						<rate>
							<timebase>24</timebase>
							<ntsc>FALSE</ntsc>
						</rate>
						<start>4351</start>
						<end>4438</end>
						<in>234</in>
						<out>321</out>
						<pproTicksIn>2476656000000</pproTicksIn>
						<pproTicksOut>3397464000000</pproTicksOut>
						<file id="file-24"/>
						<sourcetrack>
							<mediatype>audio</mediatype>
							<trackindex>2</trackindex>
						</sourcetrack>
						<link>
							<linkclipref>clipitem-52</linkclipref>
							<mediatype>video</mediatype>
							<trackindex>1</trackindex>
							<clipindex>54</clipindex>
						</link>
						<link>
							<linkclipref>clipitem-494</linkclipref>
							<mediatype>audio</mediatype>
							<trackindex>1</trackindex>
							<clipindex>18</clipindex>
							<groupindex>1</groupindex>
						</link>
						<link>
							<linkclipref>clipitem-658</linkclipref>
							<mediatype>audio</mediatype>
							<trackindex>2</trackindex>
							<clipindex>18</clipindex>
							<groupindex>1</groupindex>
						</link>
						<logginginfo>
							<description></description>
							<scene></scene>
							<shottake></shottake>
							<lognote></lognote>
							<good></good>
							<originalvideofilename></originalvideofilename>
							<originalaudiofilename></originalaudiofilename>
						</logginginfo>
						<colorinfo>
							<lut></lut>
							<lut1></lut1>
							<asc_sop></asc_sop>
							<asc_sat></asc_sat>
							<lut2></lut2>
						</colorinfo>
						<labels>
							<label2>Iris</label2>
						</labels>
					</clipitem>
					<clipitem id="clipitem-659" premiereChannelType="stereo">
						<masterclipid>masterclip-21</masterclipid>
						<name>A006_06192138_C206.mp4</name>
						<enabled>TRUE</enabled>
						<duration>3995</duration>
						<rate>
							<timebase>24</timebase>
							<ntsc>FALSE</ntsc>
						</rate>
						<start>4438</start>
						<end>4761</end>
						<in>1031</in>
						<out>1354</out>
						<pproTicksIn>10912104000000</pproTicksIn>
						<pproTicksOut>14330736000000</pproTicksOut>
						<file id="file-21"/>
						<sourcetrack>
							<mediatype>audio</mediatype>
							<trackindex>2</trackindex>
						</sourcetrack>
						<link>
							<linkclipref>clipitem-53</linkclipref>
							<mediatype>video</mediatype>
							<trackindex>1</trackindex>
							<clipindex>55</clipindex>
						</link>
						<link>
							<linkclipref>clipitem-495</linkclipref>
							<mediatype>audio</mediatype>
							<trackindex>1</trackindex>
							<clipindex>19</clipindex>
							<groupindex>1</groupindex>
						</link>
						<link>
							<linkclipref>clipitem-659</linkclipref>
							<mediatype>audio</mediatype>
							<trackindex>2</trackindex>
							<clipindex>19</clipindex>
							<groupindex>1</groupindex>
						</link>
						<logginginfo>
							<description></description>
							<scene></scene>
							<shottake></shottake>
							<lognote></lognote>
							<good></good>
							<originalvideofilename></originalvideofilename>
							<originalaudiofilename></originalaudiofilename>
						</logginginfo>
						<colorinfo>
							<lut></lut>
							<lut1></lut1>
							<asc_sop></asc_sop>
							<asc_sat></asc_sat>
							<lut2></lut2>
						</colorinfo>
						<labels>
							<label2>Iris</label2>
						</labels>
					</clipitem>
					<clipitem id="clipitem-660" premiereChannelType="stereo">
						<masterclipid>masterclip-25</masterclipid>
						<name>A006_06192211_C220.mp4</name>
						<enabled>TRUE</enabled>
						<duration>1671</duration>
						<rate>
							<timebase>24</timebase>
							<ntsc>FALSE</ntsc>
						</rate>
						<start>4761</start>
						<end>4800</end>
						<in>46</in>
						<out>85</out>
						<pproTicksIn>486864000000</pproTicksIn>
						<pproTicksOut>899640000000</pproTicksOut>
						<file id="file-25"/>
						<sourcetrack>
							<mediatype>audio</mediatype>
							<trackindex>2</trackindex>
						</sourcetrack>
						<link>
							<linkclipref>clipitem-54</linkclipref>
							<mediatype>video</mediatype>
							<trackindex>1</trackindex>
							<clipindex>56</clipindex>
						</link>
						<link>
							<linkclipref>clipitem-496</linkclipref>
							<mediatype>audio</mediatype>
							<trackindex>1</trackindex>
							<clipindex>20</clipindex>
							<groupindex>1</groupindex>
						</link>
						<link>
							<linkclipref>clipitem-660</linkclipref>
							<mediatype>audio</mediatype>
							<trackindex>2</trackindex>
							<clipindex>20</clipindex>
							<groupindex>1</groupindex>
						</link>
						<logginginfo>
							<description></description>
							<scene></scene>
							<shottake></shottake>
							<lognote></lognote>
							<good></good>
							<originalvideofilename></originalvideofilename>
							<originalaudiofilename></originalaudiofilename>
						</logginginfo>
						<colorinfo>
							<lut></lut>
							<lut1></lut1>
							<asc_sop></asc_sop>
							<asc_sat></asc_sat>
							<lut2></lut2>
						</colorinfo>
						<labels>
							<label2>Iris</label2>
						</labels>
					</clipitem>
					<clipitem id="clipitem-661" premiereChannelType="stereo">
						<masterclipid>masterclip-26</masterclipid>
						<name>A006_06192148_C207.mp4</name>
						<enabled>TRUE</enabled>
						<duration>2744</duration>
						<rate>
							<timebase>24</timebase>
							<ntsc>FALSE</ntsc>
						</rate>
						<start>4800</start>
						<end>4948</end>
						<in>358</in>
						<out>506</out>
						<pproTicksIn>3789072000000</pproTicksIn>
						<pproTicksOut>5355504000000</pproTicksOut>
						<file id="file-26"/>
						<sourcetrack>
							<mediatype>audio</mediatype>
							<trackindex>2</trackindex>
						</sourcetrack>
						<link>
							<linkclipref>clipitem-55</linkclipref>
							<mediatype>video</mediatype>
							<trackindex>1</trackindex>
							<clipindex>57</clipindex>
						</link>
						<link>
							<linkclipref>clipitem-497</linkclipref>
							<mediatype>audio</mediatype>
							<trackindex>1</trackindex>
							<clipindex>21</clipindex>
							<groupindex>1</groupindex>
						</link>
						<link>
							<linkclipref>clipitem-661</linkclipref>
							<mediatype>audio</mediatype>
							<trackindex>2</trackindex>
							<clipindex>21</clipindex>
							<groupindex>1</groupindex>
						</link>
						<logginginfo>
							<description></description>
							<scene></scene>
							<shottake></shottake>
							<lognote></lognote>
							<good></good>
							<originalvideofilename></originalvideofilename>
							<originalaudiofilename></originalaudiofilename>
						</logginginfo>
						<colorinfo>
							<lut></lut>
							<lut1></lut1>
							<asc_sop></asc_sop>
							<asc_sat></asc_sat>
							<lut2></lut2>
						</colorinfo>
						<labels>
							<label2>Iris</label2>
						</labels>
					</clipitem>
					<clipitem id="clipitem-662" premiereChannelType="stereo">
						<masterclipid>masterclip-26</masterclipid>
						<name>A006_06192148_C207.mp4</name>
						<enabled>TRUE</enabled>
						<duration>2744</duration>
						<rate>
							<timebase>24</timebase>
							<ntsc>FALSE</ntsc>
						</rate>
						<start>4948</start>
						<end>4989</end>
						<in>506</in>
						<out>547</out>
						<pproTicksIn>5355504000000</pproTicksIn>
						<pproTicksOut>5789448000000</pproTicksOut>
						<file id="file-26"/>
						<sourcetrack>
							<mediatype>audio</mediatype>
							<trackindex>2</trackindex>
						</sourcetrack>
						<link>
							<linkclipref>clipitem-56</linkclipref>
							<mediatype>video</mediatype>
							<trackindex>1</trackindex>
							<clipindex>58</clipindex>
						</link>
						<link>
							<linkclipref>clipitem-498</linkclipref>
							<mediatype>audio</mediatype>
							<trackindex>1</trackindex>
							<clipindex>22</clipindex>
							<groupindex>1</groupindex>
						</link>
						<link>
							<linkclipref>clipitem-662</linkclipref>
							<mediatype>audio</mediatype>
							<trackindex>2</trackindex>
							<clipindex>22</clipindex>
							<groupindex>1</groupindex>
						</link>
						<logginginfo>
							<description></description>
							<scene></scene>
							<shottake></shottake>
							<lognote></lognote>
							<good></good>
							<originalvideofilename></originalvideofilename>
							<originalaudiofilename></originalaudiofilename>
						</logginginfo>
						<colorinfo>
							<lut></lut>
							<lut1></lut1>
							<asc_sop></asc_sop>
							<asc_sat></asc_sat>
							<lut2></lut2>
						</colorinfo>
						<labels>
							<label2>Iris</label2>
						</labels>
					</clipitem>
					<clipitem id="clipitem-663" premiereChannelType="stereo">
						<masterclipid>masterclip-25</masterclipid>
						<name>A006_06192211_C220.mp4</name>
						<enabled>TRUE</enabled>
						<duration>1671</duration>
						<rate>
							<timebase>24</timebase>
							<ntsc>FALSE</ntsc>
						</rate>
						<start>4989</start>
						<end>5081</end>
						<in>157</in>
						<out>249</out>
						<pproTicksIn>1661688000000</pproTicksIn>
						<pproTicksOut>2635416000000</pproTicksOut>
						<file id="file-25"/>
						<sourcetrack>
							<mediatype>audio</mediatype>
							<trackindex>2</trackindex>
						</sourcetrack>
						<link>
							<linkclipref>clipitem-57</linkclipref>
							<mediatype>video</mediatype>
							<trackindex>1</trackindex>
							<clipindex>59</clipindex>
						</link>
						<link>
							<linkclipref>clipitem-499</linkclipref>
							<mediatype>audio</mediatype>
							<trackindex>1</trackindex>
							<clipindex>23</clipindex>
							<groupindex>1</groupindex>
						</link>
						<link>
							<linkclipref>clipitem-663</linkclipref>
							<mediatype>audio</mediatype>
							<trackindex>2</trackindex>
							<clipindex>23</clipindex>
							<groupindex>1</groupindex>
						</link>
						<logginginfo>
							<description></description>
							<scene></scene>
							<shottake></shottake>
							<lognote></lognote>
							<good></good>
							<originalvideofilename></originalvideofilename>
							<originalaudiofilename></originalaudiofilename>
						</logginginfo>
						<colorinfo>
							<lut></lut>
							<lut1></lut1>
							<asc_sop></asc_sop>
							<asc_sat></asc_sat>
							<lut2></lut2>
						</colorinfo>
						<labels>
							<label2>Iris</label2>
						</labels>
					</clipitem>
					<clipitem id="clipitem-664" premiereChannelType="stereo">
						<masterclipid>masterclip-27</masterclipid>
						<name>A006_06192156_C209.mp4</name>
						<enabled>TRUE</enabled>
						<duration>2522</duration>
						<rate>
							<timebase>24</timebase>
							<ntsc>FALSE</ntsc>
						</rate>
						<start>5081</start>
						<end>5157</end>
						<in>632</in>
						<out>708</out>
						<pproTicksIn>6689088000000</pproTicksIn>
						<pproTicksOut>7493472000000</pproTicksOut>
						<file id="file-27"/>
						<sourcetrack>
							<mediatype>audio</mediatype>
							<trackindex>2</trackindex>
						</sourcetrack>
						<link>
							<linkclipref>clipitem-58</linkclipref>
							<mediatype>video</mediatype>
							<trackindex>1</trackindex>
							<clipindex>60</clipindex>
						</link>
						<link>
							<linkclipref>clipitem-500</linkclipref>
							<mediatype>audio</mediatype>
							<trackindex>1</trackindex>
							<clipindex>24</clipindex>
							<groupindex>1</groupindex>
						</link>
						<link>
							<linkclipref>clipitem-664</linkclipref>
							<mediatype>audio</mediatype>
							<trackindex>2</trackindex>
							<clipindex>24</clipindex>
							<groupindex>1</groupindex>
						</link>
						<logginginfo>
							<description></description>
							<scene></scene>
							<shottake></shottake>
							<lognote></lognote>
							<good></good>
							<originalvideofilename></originalvideofilename>
							<originalaudiofilename></originalaudiofilename>
						</logginginfo>
						<colorinfo>
							<lut></lut>
							<lut1></lut1>
							<asc_sop></asc_sop>
							<asc_sat></asc_sat>
							<lut2></lut2>
						</colorinfo>
						<labels>
							<label2>Iris</label2>
						</labels>
					</clipitem>
					<clipitem id="clipitem-665" premiereChannelType="stereo">
						<masterclipid>masterclip-26</masterclipid>
						<name>A006_06192148_C207.mp4</name>
						<enabled>TRUE</enabled>
						<duration>2744</duration>
						<rate>
							<timebase>24</timebase>
							<ntsc>FALSE</ntsc>
						</rate>
						<start>5157</start>
						<end>5262</end>
						<in>819</in>
						<out>924</out>
						<pproTicksIn>8668296000000</pproTicksIn>
						<pproTicksOut>9779616000000</pproTicksOut>
						<file id="file-26"/>
						<sourcetrack>
							<mediatype>audio</mediatype>
							<trackindex>2</trackindex>
						</sourcetrack>
						<link>
							<linkclipref>clipitem-59</linkclipref>
							<mediatype>video</mediatype>
							<trackindex>1</trackindex>
							<clipindex>61</clipindex>
						</link>
						<link>
							<linkclipref>clipitem-501</linkclipref>
							<mediatype>audio</mediatype>
							<trackindex>1</trackindex>
							<clipindex>25</clipindex>
							<groupindex>1</groupindex>
						</link>
						<link>
							<linkclipref>clipitem-665</linkclipref>
							<mediatype>audio</mediatype>
							<trackindex>2</trackindex>
							<clipindex>25</clipindex>
							<groupindex>1</groupindex>
						</link>
						<logginginfo>
							<description></description>
							<scene></scene>
							<shottake></shottake>
							<lognote></lognote>
							<good></good>
							<originalvideofilename></originalvideofilename>
							<originalaudiofilename></originalaudiofilename>
						</logginginfo>
						<colorinfo>
							<lut></lut>
							<lut1></lut1>
							<asc_sop></asc_sop>
							<asc_sat></asc_sat>
							<lut2></lut2>
						</colorinfo>
						<labels>
							<label2>Iris</label2>
						</labels>
					</clipitem>
					<clipitem id="clipitem-666" premiereChannelType="stereo">
						<masterclipid>masterclip-27</masterclipid>
						<name>A006_06192156_C209.mp4</name>
						<enabled>TRUE</enabled>
						<duration>2522</duration>
						<rate>
							<timebase>24</timebase>
							<ntsc>FALSE</ntsc>
						</rate>
						<start>5262</start>
						<end>5411</end>
						<in>850</in>
						<out>999</out>
						<pproTicksIn>8996400000000</pproTicksIn>
						<pproTicksOut>10573416000000</pproTicksOut>
						<file id="file-27"/>
						<sourcetrack>
							<mediatype>audio</mediatype>
							<trackindex>2</trackindex>
						</sourcetrack>
						<link>
							<linkclipref>clipitem-60</linkclipref>
							<mediatype>video</mediatype>
							<trackindex>1</trackindex>
							<clipindex>62</clipindex>
						</link>
						<link>
							<linkclipref>clipitem-502</linkclipref>
							<mediatype>audio</mediatype>
							<trackindex>1</trackindex>
							<clipindex>26</clipindex>
							<groupindex>1</groupindex>
						</link>
						<link>
							<linkclipref>clipitem-666</linkclipref>
							<mediatype>audio</mediatype>
							<trackindex>2</trackindex>
							<clipindex>26</clipindex>
							<groupindex>1</groupindex>
						</link>
						<logginginfo>
							<description></description>
							<scene></scene>
							<shottake></shottake>
							<lognote></lognote>
							<good></good>
							<originalvideofilename></originalvideofilename>
							<originalaudiofilename></originalaudiofilename>
						</logginginfo>
						<colorinfo>
							<lut></lut>
							<lut1></lut1>
							<asc_sop></asc_sop>
							<asc_sat></asc_sat>
							<lut2></lut2>
						</colorinfo>
						<labels>
							<label2>Iris</label2>
						</labels>
					</clipitem>
					<clipitem id="clipitem-667" premiereChannelType="stereo">
						<masterclipid>masterclip-27</masterclipid>
						<name>A006_06192156_C209.mp4</name>
						<enabled>TRUE</enabled>
						<duration>2522</duration>
						<rate>
							<timebase>24</timebase>
							<ntsc>FALSE</ntsc>
						</rate>
						<start>5469</start>
						<end>5578</end>
						<in>1066</in>
						<out>1175</out>
						<pproTicksIn>11282544000000</pproTicksIn>
						<pproTicksOut>12436200000000</pproTicksOut>
						<file id="file-27"/>
						<sourcetrack>
							<mediatype>audio</mediatype>
							<trackindex>2</trackindex>
						</sourcetrack>
						<link>
							<linkclipref>clipitem-62</linkclipref>
							<mediatype>video</mediatype>
							<trackindex>1</trackindex>
							<clipindex>64</clipindex>
						</link>
						<link>
							<linkclipref>clipitem-503</linkclipref>
							<mediatype>audio</mediatype>
							<trackindex>1</trackindex>
							<clipindex>27</clipindex>
							<groupindex>1</groupindex>
						</link>
						<link>
							<linkclipref>clipitem-667</linkclipref>
							<mediatype>audio</mediatype>
							<trackindex>2</trackindex>
							<clipindex>27</clipindex>
							<groupindex>1</groupindex>
						</link>
						<logginginfo>
							<description></description>
							<scene></scene>
							<shottake></shottake>
							<lognote></lognote>
							<good></good>
							<originalvideofilename></originalvideofilename>
							<originalaudiofilename></originalaudiofilename>
						</logginginfo>
						<colorinfo>
							<lut></lut>
							<lut1></lut1>
							<asc_sop></asc_sop>
							<asc_sat></asc_sat>
							<lut2></lut2>
						</colorinfo>
						<labels>
							<label2>Iris</label2>
						</labels>
					</clipitem>
					<clipitem id="clipitem-668" premiereChannelType="stereo">
						<masterclipid>masterclip-26</masterclipid>
						<name>A006_06192148_C207.mp4</name>
						<enabled>TRUE</enabled>
						<duration>2744</duration>
						<rate>
							<timebase>24</timebase>
							<ntsc>FALSE</ntsc>
						</rate>
						<start>5578</start>
						<end>5849</end>
						<in>1196</in>
						<out>1467</out>
						<pproTicksIn>12658464000000</pproTicksIn>
						<pproTicksOut>15526728000000</pproTicksOut>
						<file id="file-26"/>
						<sourcetrack>
							<mediatype>audio</mediatype>
							<trackindex>2</trackindex>
						</sourcetrack>
						<link>
							<linkclipref>clipitem-63</linkclipref>
							<mediatype>video</mediatype>
							<trackindex>1</trackindex>
							<clipindex>65</clipindex>
						</link>
						<link>
							<linkclipref>clipitem-504</linkclipref>
							<mediatype>audio</mediatype>
							<trackindex>1</trackindex>
							<clipindex>28</clipindex>
							<groupindex>1</groupindex>
						</link>
						<link>
							<linkclipref>clipitem-668</linkclipref>
							<mediatype>audio</mediatype>
							<trackindex>2</trackindex>
							<clipindex>28</clipindex>
							<groupindex>1</groupindex>
						</link>
						<logginginfo>
							<description></description>
							<scene></scene>
							<shottake></shottake>
							<lognote></lognote>
							<good></good>
							<originalvideofilename></originalvideofilename>
							<originalaudiofilename></originalaudiofilename>
						</logginginfo>
						<colorinfo>
							<lut></lut>
							<lut1></lut1>
							<asc_sop></asc_sop>
							<asc_sat></asc_sat>
							<lut2></lut2>
						</colorinfo>
						<labels>
							<label2>Iris</label2>
						</labels>
					</clipitem>
					<clipitem id="clipitem-669" premiereChannelType="stereo">
						<masterclipid>masterclip-26</masterclipid>
						<name>A006_06192148_C207.mp4</name>
						<enabled>TRUE</enabled>
						<duration>2744</duration>
						<rate>
							<timebase>24</timebase>
							<ntsc>FALSE</ntsc>
						</rate>
						<start>5915</start>
						<end>6015</end>
						<in>1517</in>
						<out>1617</out>
						<pproTicksIn>16055928000000</pproTicksIn>
						<pproTicksOut>17114328000000</pproTicksOut>
						<file id="file-26"/>
						<sourcetrack>
							<mediatype>audio</mediatype>
							<trackindex>2</trackindex>
						</sourcetrack>
						<link>
							<linkclipref>clipitem-65</linkclipref>
							<mediatype>video</mediatype>
							<trackindex>1</trackindex>
							<clipindex>67</clipindex>
						</link>
						<link>
							<linkclipref>clipitem-505</linkclipref>
							<mediatype>audio</mediatype>
							<trackindex>1</trackindex>
							<clipindex>29</clipindex>
							<groupindex>1</groupindex>
						</link>
						<link>
							<linkclipref>clipitem-669</linkclipref>
							<mediatype>audio</mediatype>
							<trackindex>2</trackindex>
							<clipindex>29</clipindex>
							<groupindex>1</groupindex>
						</link>
						<logginginfo>
							<description></description>
							<scene></scene>
							<shottake></shottake>
							<lognote></lognote>
							<good></good>
							<originalvideofilename></originalvideofilename>
							<originalaudiofilename></originalaudiofilename>
						</logginginfo>
						<colorinfo>
							<lut></lut>
							<lut1></lut1>
							<asc_sop></asc_sop>
							<asc_sat></asc_sat>
							<lut2></lut2>
						</colorinfo>
						<labels>
							<label2>Iris</label2>
						</labels>
					</clipitem>
					<clipitem id="clipitem-670" premiereChannelType="stereo">
						<masterclipid>masterclip-28</masterclipid>
						<name>A006_06192201_C212.mp4</name>
						<enabled>TRUE</enabled>
						<duration>1523</duration>
						<rate>
							<timebase>24</timebase>
							<ntsc>FALSE</ntsc>
						</rate>
						<start>6015</start>
						<end>6116</end>
						<in>579</in>
						<out>680</out>
						<pproTicksIn>6128136000000</pproTicksIn>
						<pproTicksOut>7197120000000</pproTicksOut>
						<file id="file-28"/>
						<sourcetrack>
							<mediatype>audio</mediatype>
							<trackindex>2</trackindex>
						</sourcetrack>
						<link>
							<linkclipref>clipitem-66</linkclipref>
							<mediatype>video</mediatype>
							<trackindex>1</trackindex>
							<clipindex>68</clipindex>
						</link>
						<link>
							<linkclipref>clipitem-506</linkclipref>
							<mediatype>audio</mediatype>
							<trackindex>1</trackindex>
							<clipindex>30</clipindex>
							<groupindex>1</groupindex>
						</link>
						<link>
							<linkclipref>clipitem-670</linkclipref>
							<mediatype>audio</mediatype>
							<trackindex>2</trackindex>
							<clipindex>30</clipindex>
							<groupindex>1</groupindex>
						</link>
						<logginginfo>
							<description></description>
							<scene></scene>
							<shottake></shottake>
							<lognote></lognote>
							<good></good>
							<originalvideofilename></originalvideofilename>
							<originalaudiofilename></originalaudiofilename>
						</logginginfo>
						<colorinfo>
							<lut></lut>
							<lut1></lut1>
							<asc_sop></asc_sop>
							<asc_sat></asc_sat>
							<lut2></lut2>
						</colorinfo>
						<labels>
							<label2>Iris</label2>
						</labels>
					</clipitem>
					<clipitem id="clipitem-671" premiereChannelType="stereo">
						<masterclipid>masterclip-26</masterclipid>
						<name>A006_06192148_C207.mp4</name>
						<enabled>TRUE</enabled>
						<duration>2744</duration>
						<rate>
							<timebase>24</timebase>
							<ntsc>FALSE</ntsc>
						</rate>
						<start>6116</start>
						<end>6253</end>
						<in>1884</in>
						<out>2021</out>
						<pproTicksIn>19940256000000</pproTicksIn>
						<pproTicksOut>21390264000000</pproTicksOut>
						<file id="file-26"/>
						<sourcetrack>
							<mediatype>audio</mediatype>
							<trackindex>2</trackindex>
						</sourcetrack>
						<link>
							<linkclipref>clipitem-67</linkclipref>
							<mediatype>video</mediatype>
							<trackindex>1</trackindex>
							<clipindex>69</clipindex>
						</link>
						<link>
							<linkclipref>clipitem-507</linkclipref>
							<mediatype>audio</mediatype>
							<trackindex>1</trackindex>
							<clipindex>31</clipindex>
							<groupindex>1</groupindex>
						</link>
						<link>
							<linkclipref>clipitem-671</linkclipref>
							<mediatype>audio</mediatype>
							<trackindex>2</trackindex>
							<clipindex>31</clipindex>
							<groupindex>1</groupindex>
						</link>
						<logginginfo>
							<description></description>
							<scene></scene>
							<shottake></shottake>
							<lognote></lognote>
							<good></good>
							<originalvideofilename></originalvideofilename>
							<originalaudiofilename></originalaudiofilename>
						</logginginfo>
						<colorinfo>
							<lut></lut>
							<lut1></lut1>
							<asc_sop></asc_sop>
							<asc_sat></asc_sat>
							<lut2></lut2>
						</colorinfo>
						<labels>
							<label2>Iris</label2>
						</labels>
					</clipitem>
					<clipitem id="clipitem-672" premiereChannelType="stereo">
						<masterclipid>masterclip-28</masterclipid>
						<name>A006_06192201_C212.mp4</name>
						<enabled>TRUE</enabled>
						<duration>1523</duration>
						<rate>
							<timebase>24</timebase>
							<ntsc>FALSE</ntsc>
						</rate>
						<start>6253</start>
						<end>6537</end>
						<in>945</in>
						<out>1229</out>
						<pproTicksIn>10001880000000</pproTicksIn>
						<pproTicksOut>13007736000000</pproTicksOut>
						<file id="file-28"/>
						<sourcetrack>
							<mediatype>audio</mediatype>
							<trackindex>2</trackindex>
						</sourcetrack>
						<link>
							<linkclipref>clipitem-68</linkclipref>
							<mediatype>video</mediatype>
							<trackindex>1</trackindex>
							<clipindex>70</clipindex>
						</link>
						<link>
							<linkclipref>clipitem-508</linkclipref>
							<mediatype>audio</mediatype>
							<trackindex>1</trackindex>
							<clipindex>32</clipindex>
							<groupindex>1</groupindex>
						</link>
						<link>
							<linkclipref>clipitem-672</linkclipref>
							<mediatype>audio</mediatype>
							<trackindex>2</trackindex>
							<clipindex>32</clipindex>
							<groupindex>1</groupindex>
						</link>
						<logginginfo>
							<description></description>
							<scene></scene>
							<shottake></shottake>
							<lognote></lognote>
							<good></good>
							<originalvideofilename></originalvideofilename>
							<originalaudiofilename></originalaudiofilename>
						</logginginfo>
						<colorinfo>
							<lut></lut>
							<lut1></lut1>
							<asc_sop></asc_sop>
							<asc_sat></asc_sat>
							<lut2></lut2>
						</colorinfo>
						<labels>
							<label2>Iris</label2>
						</labels>
					</clipitem>
					<clipitem id="clipitem-673" premiereChannelType="stereo">
						<masterclipid>masterclip-29</masterclipid>
						<name>A006_06192216_C221.mp4</name>
						<enabled>TRUE</enabled>
						<duration>557</duration>
						<rate>
							<timebase>24</timebase>
							<ntsc>FALSE</ntsc>
						</rate>
						<start>6597</start>
						<end>6647</end>
						<in>287</in>
						<out>337</out>
						<pproTicksIn>3037608000000</pproTicksIn>
						<pproTicksOut>3566808000000</pproTicksOut>
						<file id="file-29"/>
						<sourcetrack>
							<mediatype>audio</mediatype>
							<trackindex>2</trackindex>
						</sourcetrack>
						<link>
							<linkclipref>clipitem-70</linkclipref>
							<mediatype>video</mediatype>
							<trackindex>1</trackindex>
							<clipindex>72</clipindex>
						</link>
						<link>
							<linkclipref>clipitem-509</linkclipref>
							<mediatype>audio</mediatype>
							<trackindex>1</trackindex>
							<clipindex>33</clipindex>
							<groupindex>1</groupindex>
						</link>
						<link>
							<linkclipref>clipitem-673</linkclipref>
							<mediatype>audio</mediatype>
							<trackindex>2</trackindex>
							<clipindex>33</clipindex>
							<groupindex>1</groupindex>
						</link>
						<logginginfo>
							<description></description>
							<scene></scene>
							<shottake></shottake>
							<lognote></lognote>
							<good></good>
							<originalvideofilename></originalvideofilename>
							<originalaudiofilename></originalaudiofilename>
						</logginginfo>
						<colorinfo>
							<lut></lut>
							<lut1></lut1>
							<asc_sop></asc_sop>
							<asc_sat></asc_sat>
							<lut2></lut2>
						</colorinfo>
						<labels>
							<label2>Iris</label2>
						</labels>
					</clipitem>
					<clipitem id="clipitem-674" premiereChannelType="stereo">
						<masterclipid>masterclip-30</masterclipid>
						<name>A002_05290123_C138.mp4</name>
						<enabled>TRUE</enabled>
						<duration>364</duration>
						<rate>
							<timebase>24</timebase>
							<ntsc>FALSE</ntsc>
						</rate>
						<start>6647</start>
						<end>6942</end>
						<in>42</in>
						<out>337</out>
						<pproTicksIn>444528000000</pproTicksIn>
						<pproTicksOut>3566808000000</pproTicksOut>
						<file id="file-30"/>
						<sourcetrack>
							<mediatype>audio</mediatype>
							<trackindex>2</trackindex>
						</sourcetrack>
						<link>
							<linkclipref>clipitem-71</linkclipref>
							<mediatype>video</mediatype>
							<trackindex>1</trackindex>
							<clipindex>73</clipindex>
						</link>
						<link>
							<linkclipref>clipitem-510</linkclipref>
							<mediatype>audio</mediatype>
							<trackindex>1</trackindex>
							<clipindex>34</clipindex>
							<groupindex>1</groupindex>
						</link>
						<link>
							<linkclipref>clipitem-674</linkclipref>
							<mediatype>audio</mediatype>
							<trackindex>2</trackindex>
							<clipindex>34</clipindex>
							<groupindex>1</groupindex>
						</link>
						<logginginfo>
							<description></description>
							<scene></scene>
							<shottake></shottake>
							<lognote></lognote>
							<good></good>
							<originalvideofilename></originalvideofilename>
							<originalaudiofilename></originalaudiofilename>
						</logginginfo>
						<colorinfo>
							<lut></lut>
							<lut1></lut1>
							<asc_sop></asc_sop>
							<asc_sat></asc_sat>
							<lut2></lut2>
						</colorinfo>
						<labels>
							<label2>Iris</label2>
						</labels>
					</clipitem>
					<clipitem id="clipitem-675" premiereChannelType="stereo">
						<masterclipid>masterclip-31</masterclipid>
						<name>A006_06192217_C223.mp4</name>
						<enabled>TRUE</enabled>
						<duration>180</duration>
						<rate>
							<timebase>24</timebase>
							<ntsc>FALSE</ntsc>
						</rate>
						<start>6942</start>
						<end>6977</end>
						<in>56</in>
						<out>91</out>
						<pproTicksIn>592704000000</pproTicksIn>
						<pproTicksOut>963144000000</pproTicksOut>
						<file id="file-31"/>
						<sourcetrack>
							<mediatype>audio</mediatype>
							<trackindex>2</trackindex>
						</sourcetrack>
						<link>
							<linkclipref>clipitem-72</linkclipref>
							<mediatype>video</mediatype>
							<trackindex>1</trackindex>
							<clipindex>74</clipindex>
						</link>
						<link>
							<linkclipref>clipitem-511</linkclipref>
							<mediatype>audio</mediatype>
							<trackindex>1</trackindex>
							<clipindex>35</clipindex>
							<groupindex>1</groupindex>
						</link>
						<link>
							<linkclipref>clipitem-675</linkclipref>
							<mediatype>audio</mediatype>
							<trackindex>2</trackindex>
							<clipindex>35</clipindex>
							<groupindex>1</groupindex>
						</link>
						<logginginfo>
							<description></description>
							<scene></scene>
							<shottake></shottake>
							<lognote></lognote>
							<good></good>
							<originalvideofilename></originalvideofilename>
							<originalaudiofilename></originalaudiofilename>
						</logginginfo>
						<colorinfo>
							<lut></lut>
							<lut1></lut1>
							<asc_sop></asc_sop>
							<asc_sat></asc_sat>
							<lut2></lut2>
						</colorinfo>
						<labels>
							<label2>Iris</label2>
						</labels>
					</clipitem>
					<clipitem id="clipitem-676" premiereChannelType="stereo">
						<masterclipid>masterclip-36</masterclipid>
						<name>A002_05290147_C148.mp4</name>
						<enabled>TRUE</enabled>
						<duration>502</duration>
						<rate>
							<timebase>24</timebase>
							<ntsc>FALSE</ntsc>
						</rate>
						<start>7301</start>
						<end>7307</end>
						<in>42</in>
						<out>48</out>
						<pproTicksIn>444528000000</pproTicksIn>
						<pproTicksOut>508032000000</pproTicksOut>
						<file id="file-36"/>
						<sourcetrack>
							<mediatype>audio</mediatype>
							<trackindex>2</trackindex>
						</sourcetrack>
						<link>
							<linkclipref>clipitem-79</linkclipref>
							<mediatype>video</mediatype>
							<trackindex>1</trackindex>
							<clipindex>81</clipindex>
						</link>
						<link>
							<linkclipref>clipitem-512</linkclipref>
							<mediatype>audio</mediatype>
							<trackindex>1</trackindex>
							<clipindex>36</clipindex>
							<groupindex>1</groupindex>
						</link>
						<link>
							<linkclipref>clipitem-676</linkclipref>
							<mediatype>audio</mediatype>
							<trackindex>2</trackindex>
							<clipindex>36</clipindex>
							<groupindex>1</groupindex>
						</link>
						<logginginfo>
							<description></description>
							<scene></scene>
							<shottake></shottake>
							<lognote></lognote>
							<good></good>
							<originalvideofilename></originalvideofilename>
							<originalaudiofilename></originalaudiofilename>
						</logginginfo>
						<colorinfo>
							<lut></lut>
							<lut1></lut1>
							<asc_sop></asc_sop>
							<asc_sat></asc_sat>
							<lut2></lut2>
						</colorinfo>
						<labels>
							<label2>Iris</label2>
						</labels>
					</clipitem>
					<clipitem id="clipitem-677" premiereChannelType="stereo">
						<masterclipid>masterclip-36</masterclipid>
						<name>A002_05290147_C148.mp4</name>
						<enabled>TRUE</enabled>
						<duration>502</duration>
						<rate>
							<timebase>24</timebase>
							<ntsc>FALSE</ntsc>
						</rate>
						<start>7307</start>
						<end>7419</end>
						<in>125</in>
						<out>237</out>
						<pproTicksIn>1323000000000</pproTicksIn>
						<pproTicksOut>2508408000000</pproTicksOut>
						<file id="file-36"/>
						<sourcetrack>
							<mediatype>audio</mediatype>
							<trackindex>2</trackindex>
						</sourcetrack>
						<link>
							<linkclipref>clipitem-80</linkclipref>
							<mediatype>video</mediatype>
							<trackindex>1</trackindex>
							<clipindex>82</clipindex>
						</link>
						<link>
							<linkclipref>clipitem-513</linkclipref>
							<mediatype>audio</mediatype>
							<trackindex>1</trackindex>
							<clipindex>37</clipindex>
							<groupindex>1</groupindex>
						</link>
						<link>
							<linkclipref>clipitem-677</linkclipref>
							<mediatype>audio</mediatype>
							<trackindex>2</trackindex>
							<clipindex>37</clipindex>
							<groupindex>1</groupindex>
						</link>
						<logginginfo>
							<description></description>
							<scene></scene>
							<shottake></shottake>
							<lognote></lognote>
							<good></good>
							<originalvideofilename></originalvideofilename>
							<originalaudiofilename></originalaudiofilename>
						</logginginfo>
						<colorinfo>
							<lut></lut>
							<lut1></lut1>
							<asc_sop></asc_sop>
							<asc_sat></asc_sat>
							<lut2></lut2>
						</colorinfo>
						<labels>
							<label2>Iris</label2>
						</labels>
					</clipitem>
					<clipitem id="clipitem-678" premiereChannelType="stereo">
						<masterclipid>masterclip-36</masterclipid>
						<name>A002_05290147_C148.mp4</name>
						<enabled>TRUE</enabled>
						<duration>502</duration>
						<rate>
							<timebase>24</timebase>
							<ntsc>FALSE</ntsc>
						</rate>
						<start>7419</start>
						<end>7545</end>
						<in>340</in>
						<out>466</out>
						<pproTicksIn>3598560000000</pproTicksIn>
						<pproTicksOut>4932144000000</pproTicksOut>
						<file id="file-36"/>
						<sourcetrack>
							<mediatype>audio</mediatype>
							<trackindex>2</trackindex>
						</sourcetrack>
						<link>
							<linkclipref>clipitem-81</linkclipref>
							<mediatype>video</mediatype>
							<trackindex>1</trackindex>
							<clipindex>83</clipindex>
						</link>
						<link>
							<linkclipref>clipitem-514</linkclipref>
							<mediatype>audio</mediatype>
							<trackindex>1</trackindex>
							<clipindex>38</clipindex>
							<groupindex>1</groupindex>
						</link>
						<link>
							<linkclipref>clipitem-678</linkclipref>
							<mediatype>audio</mediatype>
							<trackindex>2</trackindex>
							<clipindex>38</clipindex>
							<groupindex>1</groupindex>
						</link>
						<logginginfo>
							<description></description>
							<scene></scene>
							<shottake></shottake>
							<lognote></lognote>
							<good></good>
							<originalvideofilename></originalvideofilename>
							<originalaudiofilename></originalaudiofilename>
						</logginginfo>
						<colorinfo>
							<lut></lut>
							<lut1></lut1>
							<asc_sop></asc_sop>
							<asc_sat></asc_sat>
							<lut2></lut2>
						</colorinfo>
						<labels>
							<label2>Iris</label2>
						</labels>
					</clipitem>
					<clipitem id="clipitem-679" premiereChannelType="stereo">
						<masterclipid>masterclip-37</masterclipid>
						<name>A006_06192218_C226.mp4</name>
						<enabled>TRUE</enabled>
						<duration>234</duration>
						<rate>
							<timebase>24</timebase>
							<ntsc>FALSE</ntsc>
						</rate>
						<start>7545</start>
						<end>7629</end>
						<in>58</in>
						<out>142</out>
						<pproTicksIn>613872000000</pproTicksIn>
						<pproTicksOut>1502928000000</pproTicksOut>
						<file id="file-37"/>
						<sourcetrack>
							<mediatype>audio</mediatype>
							<trackindex>2</trackindex>
						</sourcetrack>
						<link>
							<linkclipref>clipitem-82</linkclipref>
							<mediatype>video</mediatype>
							<trackindex>1</trackindex>
							<clipindex>84</clipindex>
						</link>
						<link>
							<linkclipref>clipitem-515</linkclipref>
							<mediatype>audio</mediatype>
							<trackindex>1</trackindex>
							<clipindex>39</clipindex>
							<groupindex>1</groupindex>
						</link>
						<link>
							<linkclipref>clipitem-679</linkclipref>
							<mediatype>audio</mediatype>
							<trackindex>2</trackindex>
							<clipindex>39</clipindex>
							<groupindex>1</groupindex>
						</link>
						<logginginfo>
							<description></description>
							<scene></scene>
							<shottake></shottake>
							<lognote></lognote>
							<good></good>
							<originalvideofilename></originalvideofilename>
							<originalaudiofilename></originalaudiofilename>
						</logginginfo>
						<colorinfo>
							<lut></lut>
							<lut1></lut1>
							<asc_sop></asc_sop>
							<asc_sat></asc_sat>
							<lut2></lut2>
						</colorinfo>
						<labels>
							<label2>Iris</label2>
						</labels>
					</clipitem>
					<clipitem id="clipitem-680" premiereChannelType="stereo">
						<masterclipid>masterclip-38</masterclipid>
						<name>A002_05290628_C208.mp4</name>
						<enabled>TRUE</enabled>
						<duration>357</duration>
						<rate>
							<timebase>24</timebase>
							<ntsc>FALSE</ntsc>
						</rate>
						<start>7629</start>
						<end>7910</end>
						<in>45</in>
						<out>326</out>
						<pproTicksIn>476280000000</pproTicksIn>
						<pproTicksOut>3450384000000</pproTicksOut>
						<file id="file-38"/>
						<sourcetrack>
							<mediatype>audio</mediatype>
							<trackindex>2</trackindex>
						</sourcetrack>
						<link>
							<linkclipref>clipitem-83</linkclipref>
							<mediatype>video</mediatype>
							<trackindex>1</trackindex>
							<clipindex>85</clipindex>
						</link>
						<link>
							<linkclipref>clipitem-516</linkclipref>
							<mediatype>audio</mediatype>
							<trackindex>1</trackindex>
							<clipindex>40</clipindex>
							<groupindex>1</groupindex>
						</link>
						<link>
							<linkclipref>clipitem-680</linkclipref>
							<mediatype>audio</mediatype>
							<trackindex>2</trackindex>
							<clipindex>40</clipindex>
							<groupindex>1</groupindex>
						</link>
						<logginginfo>
							<description></description>
							<scene></scene>
							<shottake></shottake>
							<lognote></lognote>
							<good></good>
							<originalvideofilename></originalvideofilename>
							<originalaudiofilename></originalaudiofilename>
						</logginginfo>
						<colorinfo>
							<lut></lut>
							<lut1></lut1>
							<asc_sop></asc_sop>
							<asc_sat></asc_sat>
							<lut2></lut2>
						</colorinfo>
						<labels>
							<label2>Iris</label2>
						</labels>
					</clipitem>
					<clipitem id="clipitem-681" premiereChannelType="stereo">
						<masterclipid>masterclip-39</masterclipid>
						<name>A002_05290604_C206.mp4</name>
						<enabled>TRUE</enabled>
						<duration>286</duration>
						<rate>
							<timebase>24</timebase>
							<ntsc>FALSE</ntsc>
						</rate>
						<start>7910</start>
						<end>8115</end>
						<in>52</in>
						<out>257</out>
						<pproTicksIn>550368000000</pproTicksIn>
						<pproTicksOut>2720088000000</pproTicksOut>
						<file id="file-39"/>
						<sourcetrack>
							<mediatype>audio</mediatype>
							<trackindex>2</trackindex>
						</sourcetrack>
						<link>
							<linkclipref>clipitem-84</linkclipref>
							<mediatype>video</mediatype>
							<trackindex>1</trackindex>
							<clipindex>86</clipindex>
						</link>
						<link>
							<linkclipref>clipitem-517</linkclipref>
							<mediatype>audio</mediatype>
							<trackindex>1</trackindex>
							<clipindex>41</clipindex>
							<groupindex>1</groupindex>
						</link>
						<link>
							<linkclipref>clipitem-681</linkclipref>
							<mediatype>audio</mediatype>
							<trackindex>2</trackindex>
							<clipindex>41</clipindex>
							<groupindex>1</groupindex>
						</link>
						<logginginfo>
							<description></description>
							<scene></scene>
							<shottake></shottake>
							<lognote></lognote>
							<good></good>
							<originalvideofilename></originalvideofilename>
							<originalaudiofilename></originalaudiofilename>
						</logginginfo>
						<colorinfo>
							<lut></lut>
							<lut1></lut1>
							<asc_sop></asc_sop>
							<asc_sat></asc_sat>
							<lut2></lut2>
						</colorinfo>
						<labels>
							<label2>Iris</label2>
						</labels>
					</clipitem>
					<clipitem id="clipitem-682" premiereChannelType="stereo">
						<masterclipid>masterclip-40</masterclipid>
						<name>A002_05290643_C214.mp4</name>
						<enabled>TRUE</enabled>
						<duration>291</duration>
						<rate>
							<timebase>24</timebase>
							<ntsc>FALSE</ntsc>
						</rate>
						<start>8115</start>
						<end>8324</end>
						<in>53</in>
						<out>262</out>
						<pproTicksIn>560952000000</pproTicksIn>
						<pproTicksOut>2773008000000</pproTicksOut>
						<file id="file-40"/>
						<sourcetrack>
							<mediatype>audio</mediatype>
							<trackindex>2</trackindex>
						</sourcetrack>
						<link>
							<linkclipref>clipitem-85</linkclipref>
							<mediatype>video</mediatype>
							<trackindex>1</trackindex>
							<clipindex>87</clipindex>
						</link>
						<link>
							<linkclipref>clipitem-518</linkclipref>
							<mediatype>audio</mediatype>
							<trackindex>1</trackindex>
							<clipindex>42</clipindex>
							<groupindex>1</groupindex>
						</link>
						<link>
							<linkclipref>clipitem-682</linkclipref>
							<mediatype>audio</mediatype>
							<trackindex>2</trackindex>
							<clipindex>42</clipindex>
							<groupindex>1</groupindex>
						</link>
						<logginginfo>
							<description></description>
							<scene></scene>
							<shottake></shottake>
							<lognote></lognote>
							<good></good>
							<originalvideofilename></originalvideofilename>
							<originalaudiofilename></originalaudiofilename>
						</logginginfo>
						<colorinfo>
							<lut></lut>
							<lut1></lut1>
							<asc_sop></asc_sop>
							<asc_sat></asc_sat>
							<lut2></lut2>
						</colorinfo>
						<labels>
							<label2>Iris</label2>
						</labels>
					</clipitem>
					<clipitem id="clipitem-683" premiereChannelType="stereo">
						<masterclipid>masterclip-227</masterclipid>
						<name>A006_06192218_C227.mp4</name>
						<enabled>TRUE</enabled>
						<duration>148</duration>
						<rate>
							<timebase>24</timebase>
							<ntsc>FALSE</ntsc>
						</rate>
						<start>8355</start>
						<end>8405</end>
						<in>18</in>
						<out>68</out>
						<pproTicksIn>190512000000</pproTicksIn>
						<pproTicksOut>719712000000</pproTicksOut>
						<file id="file-227"/>
						<sourcetrack>
							<mediatype>audio</mediatype>
							<trackindex>2</trackindex>
						</sourcetrack>
						<filter>
							<effect>
								<name>Audio Levels</name>
								<effectid>audiolevels</effectid>
								<effectcategory>audiolevels</effectcategory>
								<effecttype>audiolevels</effecttype>
								<mediatype>audio</mediatype>
								<pproBypass>false</pproBypass>
								<parameter authoringApp="PremierePro">
									<parameterid>level</parameterid>
									<name>Level</name>
									<valuemin>0</valuemin>
									<valuemax>3.98109</valuemax>
									<value>3.98109</value>
								</parameter>
							</effect>
						</filter>
						<link>
							<linkclipref>clipitem-519</linkclipref>
							<mediatype>audio</mediatype>
							<trackindex>1</trackindex>
							<clipindex>43</clipindex>
							<groupindex>1</groupindex>
						</link>
						<link>
							<linkclipref>clipitem-683</linkclipref>
							<mediatype>audio</mediatype>
							<trackindex>2</trackindex>
							<clipindex>43</clipindex>
							<groupindex>1</groupindex>
						</link>
						<logginginfo>
							<description></description>
							<scene></scene>
							<shottake></shottake>
							<lognote></lognote>
							<good></good>
							<originalvideofilename></originalvideofilename>
							<originalaudiofilename></originalaudiofilename>
						</logginginfo>
						<colorinfo>
							<lut></lut>
							<lut1></lut1>
							<asc_sop></asc_sop>
							<asc_sat></asc_sat>
							<lut2></lut2>
						</colorinfo>
						<labels>
							<label2>Iris</label2>
						</labels>
					</clipitem>
					<clipitem id="clipitem-684" premiereChannelType="stereo">
						<masterclipid>masterclip-42</masterclipid>
						<name>A002_05290241_C167.mp4</name>
						<enabled>TRUE</enabled>
						<duration>749</duration>
						<rate>
							<timebase>24</timebase>
							<ntsc>FALSE</ntsc>
						</rate>
						<start>8405</start>
						<end>9012</end>
						<in>96</in>
						<out>703</out>
						<pproTicksIn>1016064000000</pproTicksIn>
						<pproTicksOut>7440552000000</pproTicksOut>
						<file id="file-42"/>
						<sourcetrack>
							<mediatype>audio</mediatype>
							<trackindex>2</trackindex>
						</sourcetrack>
						<link>
							<linkclipref>clipitem-87</linkclipref>
							<mediatype>video</mediatype>
							<trackindex>1</trackindex>
							<clipindex>89</clipindex>
						</link>
						<link>
							<linkclipref>clipitem-520</linkclipref>
							<mediatype>audio</mediatype>
							<trackindex>1</trackindex>
							<clipindex>44</clipindex>
							<groupindex>1</groupindex>
						</link>
						<link>
							<linkclipref>clipitem-684</linkclipref>
							<mediatype>audio</mediatype>
							<trackindex>2</trackindex>
							<clipindex>44</clipindex>
							<groupindex>1</groupindex>
						</link>
						<logginginfo>
							<description></description>
							<scene></scene>
							<shottake></shottake>
							<lognote></lognote>
							<good></good>
							<originalvideofilename></originalvideofilename>
							<originalaudiofilename></originalaudiofilename>
						</logginginfo>
						<colorinfo>
							<lut></lut>
							<lut1></lut1>
							<asc_sop></asc_sop>
							<asc_sat></asc_sat>
							<lut2></lut2>
						</colorinfo>
						<labels>
							<label2>Iris</label2>
						</labels>
					</clipitem>
					<clipitem id="clipitem-685" premiereChannelType="stereo">
						<masterclipid>masterclip-43</masterclipid>
						<name>A002_05290803_C231.mp4</name>
						<enabled>TRUE</enabled>
						<duration>388</duration>
						<rate>
							<timebase>24</timebase>
							<ntsc>FALSE</ntsc>
						</rate>
						<start>9012</start>
						<end>9304</end>
						<in>67</in>
						<out>359</out>
						<pproTicksIn>709128000000</pproTicksIn>
						<pproTicksOut>3799656000000</pproTicksOut>
						<file id="file-43"/>
						<sourcetrack>
							<mediatype>audio</mediatype>
							<trackindex>2</trackindex>
						</sourcetrack>
						<link>
							<linkclipref>clipitem-88</linkclipref>
							<mediatype>video</mediatype>
							<trackindex>1</trackindex>
							<clipindex>90</clipindex>
						</link>
						<link>
							<linkclipref>clipitem-521</linkclipref>
							<mediatype>audio</mediatype>
							<trackindex>1</trackindex>
							<clipindex>45</clipindex>
							<groupindex>1</groupindex>
						</link>
						<link>
							<linkclipref>clipitem-685</linkclipref>
							<mediatype>audio</mediatype>
							<trackindex>2</trackindex>
							<clipindex>45</clipindex>
							<groupindex>1</groupindex>
						</link>
						<logginginfo>
							<description></description>
							<scene></scene>
							<shottake></shottake>
							<lognote></lognote>
							<good></good>
							<originalvideofilename></originalvideofilename>
							<originalaudiofilename></originalaudiofilename>
						</logginginfo>
						<colorinfo>
							<lut></lut>
							<lut1></lut1>
							<asc_sop></asc_sop>
							<asc_sat></asc_sat>
							<lut2></lut2>
						</colorinfo>
						<labels>
							<label2>Iris</label2>
						</labels>
					</clipitem>
					<clipitem id="clipitem-686" premiereChannelType="stereo">
						<masterclipid>masterclip-44</masterclipid>
						<name>A006_06192219_C228.mp4</name>
						<enabled>TRUE</enabled>
						<duration>674</duration>
						<rate>
							<timebase>24</timebase>
							<ntsc>FALSE</ntsc>
						</rate>
						<start>9304</start>
						<end>9430</end>
						<in>344</in>
						<out>470</out>
						<pproTicksIn>3640896000000</pproTicksIn>
						<pproTicksOut>4974480000000</pproTicksOut>
						<file id="file-44"/>
						<sourcetrack>
							<mediatype>audio</mediatype>
							<trackindex>2</trackindex>
						</sourcetrack>
						<link>
							<linkclipref>clipitem-89</linkclipref>
							<mediatype>video</mediatype>
							<trackindex>1</trackindex>
							<clipindex>91</clipindex>
						</link>
						<link>
							<linkclipref>clipitem-522</linkclipref>
							<mediatype>audio</mediatype>
							<trackindex>1</trackindex>
							<clipindex>46</clipindex>
							<groupindex>1</groupindex>
						</link>
						<link>
							<linkclipref>clipitem-686</linkclipref>
							<mediatype>audio</mediatype>
							<trackindex>2</trackindex>
							<clipindex>46</clipindex>
							<groupindex>1</groupindex>
						</link>
						<logginginfo>
							<description></description>
							<scene></scene>
							<shottake></shottake>
							<lognote></lognote>
							<good></good>
							<originalvideofilename></originalvideofilename>
							<originalaudiofilename></originalaudiofilename>
						</logginginfo>
						<colorinfo>
							<lut></lut>
							<lut1></lut1>
							<asc_sop></asc_sop>
							<asc_sat></asc_sat>
							<lut2></lut2>
						</colorinfo>
						<labels>
							<label2>Iris</label2>
						</labels>
					</clipitem>
					<clipitem id="clipitem-687" premiereChannelType="stereo">
						<masterclipid>masterclip-45</masterclipid>
						<name>A002_05290216_C161.mp4</name>
						<enabled>TRUE</enabled>
						<duration>349</duration>
						<rate>
							<timebase>24</timebase>
							<ntsc>FALSE</ntsc>
						</rate>
						<start>9430</start>
						<end>9708</end>
						<in>36</in>
						<out>314</out>
						<pproTicksIn>381024000000</pproTicksIn>
						<pproTicksOut>3323376000000</pproTicksOut>
						<file id="file-45"/>
						<sourcetrack>
							<mediatype>audio</mediatype>
							<trackindex>2</trackindex>
						</sourcetrack>
						<link>
							<linkclipref>clipitem-90</linkclipref>
							<mediatype>video</mediatype>
							<trackindex>1</trackindex>
							<clipindex>92</clipindex>
						</link>
						<link>
							<linkclipref>clipitem-523</linkclipref>
							<mediatype>audio</mediatype>
							<trackindex>1</trackindex>
							<clipindex>47</clipindex>
							<groupindex>1</groupindex>
						</link>
						<link>
							<linkclipref>clipitem-687</linkclipref>
							<mediatype>audio</mediatype>
							<trackindex>2</trackindex>
							<clipindex>47</clipindex>
							<groupindex>1</groupindex>
						</link>
						<logginginfo>
							<description></description>
							<scene></scene>
							<shottake></shottake>
							<lognote></lognote>
							<good></good>
							<originalvideofilename></originalvideofilename>
							<originalaudiofilename></originalaudiofilename>
						</logginginfo>
						<colorinfo>
							<lut></lut>
							<lut1></lut1>
							<asc_sop></asc_sop>
							<asc_sat></asc_sat>
							<lut2></lut2>
						</colorinfo>
						<labels>
							<label2>Iris</label2>
						</labels>
					</clipitem>
					<clipitem id="clipitem-688" premiereChannelType="stereo">
						<masterclipid>masterclip-46</masterclipid>
						<name>A002_05290158_C153.mp4</name>
						<enabled>TRUE</enabled>
						<duration>291</duration>
						<rate>
							<timebase>24</timebase>
							<ntsc>FALSE</ntsc>
						</rate>
						<start>9708</start>
						<end>9909</end>
						<in>58</in>
						<out>259</out>
						<pproTicksIn>613872000000</pproTicksIn>
						<pproTicksOut>2741256000000</pproTicksOut>
						<file id="file-46"/>
						<sourcetrack>
							<mediatype>audio</mediatype>
							<trackindex>2</trackindex>
						</sourcetrack>
						<link>
							<linkclipref>clipitem-91</linkclipref>
							<mediatype>video</mediatype>
							<trackindex>1</trackindex>
							<clipindex>93</clipindex>
						</link>
						<link>
							<linkclipref>clipitem-524</linkclipref>
							<mediatype>audio</mediatype>
							<trackindex>1</trackindex>
							<clipindex>48</clipindex>
							<groupindex>1</groupindex>
						</link>
						<link>
							<linkclipref>clipitem-688</linkclipref>
							<mediatype>audio</mediatype>
							<trackindex>2</trackindex>
							<clipindex>48</clipindex>
							<groupindex>1</groupindex>
						</link>
						<logginginfo>
							<description></description>
							<scene></scene>
							<shottake></shottake>
							<lognote></lognote>
							<good></good>
							<originalvideofilename></originalvideofilename>
							<originalaudiofilename></originalaudiofilename>
						</logginginfo>
						<colorinfo>
							<lut></lut>
							<lut1></lut1>
							<asc_sop></asc_sop>
							<asc_sat></asc_sat>
							<lut2></lut2>
						</colorinfo>
						<labels>
							<label2>Iris</label2>
						</labels>
					</clipitem>
					<clipitem id="clipitem-689" premiereChannelType="stereo">
						<masterclipid>masterclip-47</masterclipid>
						<name>A006_06192206_C216.mp4</name>
						<enabled>TRUE</enabled>
						<duration>435</duration>
						<rate>
							<timebase>24</timebase>
							<ntsc>FALSE</ntsc>
						</rate>
						<start>9909</start>
						<end>9974</end>
						<in>133</in>
						<out>198</out>
						<pproTicksIn>1407672000000</pproTicksIn>
						<pproTicksOut>2095632000000</pproTicksOut>
						<file id="file-47"/>
						<sourcetrack>
							<mediatype>audio</mediatype>
							<trackindex>2</trackindex>
						</sourcetrack>
						<link>
							<linkclipref>clipitem-92</linkclipref>
							<mediatype>video</mediatype>
							<trackindex>1</trackindex>
							<clipindex>94</clipindex>
						</link>
						<link>
							<linkclipref>clipitem-525</linkclipref>
							<mediatype>audio</mediatype>
							<trackindex>1</trackindex>
							<clipindex>49</clipindex>
							<groupindex>1</groupindex>
						</link>
						<link>
							<linkclipref>clipitem-689</linkclipref>
							<mediatype>audio</mediatype>
							<trackindex>2</trackindex>
							<clipindex>49</clipindex>
							<groupindex>1</groupindex>
						</link>
						<logginginfo>
							<description></description>
							<scene></scene>
							<shottake></shottake>
							<lognote></lognote>
							<good></good>
							<originalvideofilename></originalvideofilename>
							<originalaudiofilename></originalaudiofilename>
						</logginginfo>
						<colorinfo>
							<lut></lut>
							<lut1></lut1>
							<asc_sop></asc_sop>
							<asc_sat></asc_sat>
							<lut2></lut2>
						</colorinfo>
						<labels>
							<label2>Iris</label2>
						</labels>
					</clipitem>
					<clipitem id="clipitem-690" premiereChannelType="stereo">
						<masterclipid>masterclip-48</masterclipid>
						<name>A002_05290539_C200.mp4</name>
						<enabled>TRUE</enabled>
						<duration>292</duration>
						<rate>
							<timebase>24</timebase>
							<ntsc>FALSE</ntsc>
						</rate>
						<start>9974</start>
						<end>10192</end>
						<in>50</in>
						<out>268</out>
						<pproTicksIn>529200000000</pproTicksIn>
						<pproTicksOut>2836512000000</pproTicksOut>
						<file id="file-48"/>
						<sourcetrack>
							<mediatype>audio</mediatype>
							<trackindex>2</trackindex>
						</sourcetrack>
						<link>
							<linkclipref>clipitem-93</linkclipref>
							<mediatype>video</mediatype>
							<trackindex>1</trackindex>
							<clipindex>95</clipindex>
						</link>
						<link>
							<linkclipref>clipitem-526</linkclipref>
							<mediatype>audio</mediatype>
							<trackindex>1</trackindex>
							<clipindex>50</clipindex>
							<groupindex>1</groupindex>
						</link>
						<link>
							<linkclipref>clipitem-690</linkclipref>
							<mediatype>audio</mediatype>
							<trackindex>2</trackindex>
							<clipindex>50</clipindex>
							<groupindex>1</groupindex>
						</link>
						<logginginfo>
							<description></description>
							<scene></scene>
							<shottake></shottake>
							<lognote></lognote>
							<good></good>
							<originalvideofilename></originalvideofilename>
							<originalaudiofilename></originalaudiofilename>
						</logginginfo>
						<colorinfo>
							<lut></lut>
							<lut1></lut1>
							<asc_sop></asc_sop>
							<asc_sat></asc_sat>
							<lut2></lut2>
						</colorinfo>
						<labels>
							<label2>Iris</label2>
						</labels>
					</clipitem>
					<clipitem id="clipitem-691" premiereChannelType="stereo">
						<masterclipid>masterclip-49</masterclipid>
						<name>A002_05290708_C223.mp4</name>
						<enabled>TRUE</enabled>
						<duration>405</duration>
						<rate>
							<timebase>24</timebase>
							<ntsc>FALSE</ntsc>
						</rate>
						<start>10192</start>
						<end>10503</end>
						<in>67</in>
						<out>378</out>
						<pproTicksIn>709128000000</pproTicksIn>
						<pproTicksOut>4000752000000</pproTicksOut>
						<file id="file-49"/>
						<sourcetrack>
							<mediatype>audio</mediatype>
							<trackindex>2</trackindex>
						</sourcetrack>
						<link>
							<linkclipref>clipitem-94</linkclipref>
							<mediatype>video</mediatype>
							<trackindex>1</trackindex>
							<clipindex>96</clipindex>
						</link>
						<link>
							<linkclipref>clipitem-527</linkclipref>
							<mediatype>audio</mediatype>
							<trackindex>1</trackindex>
							<clipindex>51</clipindex>
							<groupindex>1</groupindex>
						</link>
						<link>
							<linkclipref>clipitem-691</linkclipref>
							<mediatype>audio</mediatype>
							<trackindex>2</trackindex>
							<clipindex>51</clipindex>
							<groupindex>1</groupindex>
						</link>
						<logginginfo>
							<description></description>
							<scene></scene>
							<shottake></shottake>
							<lognote></lognote>
							<good></good>
							<originalvideofilename></originalvideofilename>
							<originalaudiofilename></originalaudiofilename>
						</logginginfo>
						<colorinfo>
							<lut></lut>
							<lut1></lut1>
							<asc_sop></asc_sop>
							<asc_sat></asc_sat>
							<lut2></lut2>
						</colorinfo>
						<labels>
							<label2>Iris</label2>
						</labels>
					</clipitem>
					<clipitem id="clipitem-692" premiereChannelType="stereo">
						<masterclipid>masterclip-50</masterclipid>
						<name>A006_06192207_C217.mp4</name>
						<enabled>TRUE</enabled>
						<duration>849</duration>
						<rate>
							<timebase>24</timebase>
							<ntsc>FALSE</ntsc>
						</rate>
						<start>10503</start>
						<end>10607</end>
						<in>621</in>
						<out>725</out>
						<pproTicksIn>6572664000000</pproTicksIn>
						<pproTicksOut>7673400000000</pproTicksOut>
						<file id="file-50"/>
						<sourcetrack>
							<mediatype>audio</mediatype>
							<trackindex>2</trackindex>
						</sourcetrack>
						<link>
							<linkclipref>clipitem-95</linkclipref>
							<mediatype>video</mediatype>
							<trackindex>1</trackindex>
							<clipindex>97</clipindex>
						</link>
						<link>
							<linkclipref>clipitem-528</linkclipref>
							<mediatype>audio</mediatype>
							<trackindex>1</trackindex>
							<clipindex>52</clipindex>
							<groupindex>1</groupindex>
						</link>
						<link>
							<linkclipref>clipitem-692</linkclipref>
							<mediatype>audio</mediatype>
							<trackindex>2</trackindex>
							<clipindex>52</clipindex>
							<groupindex>1</groupindex>
						</link>
						<logginginfo>
							<description></description>
							<scene></scene>
							<shottake></shottake>
							<lognote></lognote>
							<good></good>
							<originalvideofilename></originalvideofilename>
							<originalaudiofilename></originalaudiofilename>
						</logginginfo>
						<colorinfo>
							<lut></lut>
							<lut1></lut1>
							<asc_sop></asc_sop>
							<asc_sat></asc_sat>
							<lut2></lut2>
						</colorinfo>
						<labels>
							<label2>Iris</label2>
						</labels>
					</clipitem>
					<clipitem id="clipitem-693" premiereChannelType="stereo">
						<masterclipid>masterclip-51</masterclipid>
						<name>A002_05290306_C180.mp4</name>
						<enabled>TRUE</enabled>
						<duration>733</duration>
						<rate>
							<timebase>24</timebase>
							<ntsc>FALSE</ntsc>
						</rate>
						<start>10607</start>
						<end>11072</end>
						<in>61</in>
						<out>526</out>
						<pproTicksIn>645624000000</pproTicksIn>
						<pproTicksOut>5567184000000</pproTicksOut>
						<file id="file-51"/>
						<sourcetrack>
							<mediatype>audio</mediatype>
							<trackindex>2</trackindex>
						</sourcetrack>
						<link>
							<linkclipref>clipitem-96</linkclipref>
							<mediatype>video</mediatype>
							<trackindex>1</trackindex>
							<clipindex>98</clipindex>
						</link>
						<link>
							<linkclipref>clipitem-529</linkclipref>
							<mediatype>audio</mediatype>
							<trackindex>1</trackindex>
							<clipindex>53</clipindex>
							<groupindex>1</groupindex>
						</link>
						<link>
							<linkclipref>clipitem-693</linkclipref>
							<mediatype>audio</mediatype>
							<trackindex>2</trackindex>
							<clipindex>53</clipindex>
							<groupindex>1</groupindex>
						</link>
						<logginginfo>
							<description></description>
							<scene></scene>
							<shottake></shottake>
							<lognote></lognote>
							<good></good>
							<originalvideofilename></originalvideofilename>
							<originalaudiofilename></originalaudiofilename>
						</logginginfo>
						<colorinfo>
							<lut></lut>
							<lut1></lut1>
							<asc_sop></asc_sop>
							<asc_sat></asc_sat>
							<lut2></lut2>
						</colorinfo>
						<labels>
							<label2>Iris</label2>
						</labels>
					</clipitem>
					<clipitem id="clipitem-694" premiereChannelType="stereo">
						<masterclipid>masterclip-52</masterclipid>
						<name>A015_03071919_C154.mov</name>
						<enabled>TRUE</enabled>
						<duration>2517</duration>
						<rate>
							<timebase>24</timebase>
							<ntsc>FALSE</ntsc>
						</rate>
						<start>11343</start>
						<end>11468</end>
						<in>119</in>
						<out>244</out>
						<pproTicksIn>1259496000000</pproTicksIn>
						<pproTicksOut>2582496000000</pproTicksOut>
						<file id="file-52"/>
						<sourcetrack>
							<mediatype>audio</mediatype>
							<trackindex>2</trackindex>
						</sourcetrack>
						<link>
							<linkclipref>clipitem-97</linkclipref>
							<mediatype>video</mediatype>
							<trackindex>1</trackindex>
							<clipindex>99</clipindex>
						</link>
						<link>
							<linkclipref>clipitem-530</linkclipref>
							<mediatype>audio</mediatype>
							<trackindex>1</trackindex>
							<clipindex>54</clipindex>
							<groupindex>1</groupindex>
						</link>
						<link>
							<linkclipref>clipitem-694</linkclipref>
							<mediatype>audio</mediatype>
							<trackindex>2</trackindex>
							<clipindex>54</clipindex>
							<groupindex>1</groupindex>
						</link>
						<logginginfo>
							<description></description>
							<scene></scene>
							<shottake></shottake>
							<lognote></lognote>
							<good></good>
							<originalvideofilename></originalvideofilename>
							<originalaudiofilename></originalaudiofilename>
						</logginginfo>
						<colorinfo>
							<lut></lut>
							<lut1></lut1>
							<asc_sop></asc_sop>
							<asc_sat></asc_sat>
							<lut2></lut2>
						</colorinfo>
						<labels>
							<label2>Iris</label2>
						</labels>
					</clipitem>
					<clipitem id="clipitem-695" premiereChannelType="stereo">
						<masterclipid>masterclip-53</masterclipid>
						<name>A015_03071929_C156.mov</name>
						<enabled>TRUE</enabled>
						<duration>2423</duration>
						<rate>
							<timebase>24</timebase>
							<ntsc>FALSE</ntsc>
						</rate>
						<start>11468</start>
						<end>11682</end>
						<in>362</in>
						<out>576</out>
						<pproTicksIn>3831408000000</pproTicksIn>
						<pproTicksOut>6096384000000</pproTicksOut>
						<file id="file-53"/>
						<sourcetrack>
							<mediatype>audio</mediatype>
							<trackindex>2</trackindex>
						</sourcetrack>
						<link>
							<linkclipref>clipitem-98</linkclipref>
							<mediatype>video</mediatype>
							<trackindex>1</trackindex>
							<clipindex>100</clipindex>
						</link>
						<link>
							<linkclipref>clipitem-531</linkclipref>
							<mediatype>audio</mediatype>
							<trackindex>1</trackindex>
							<clipindex>55</clipindex>
							<groupindex>1</groupindex>
						</link>
						<link>
							<linkclipref>clipitem-695</linkclipref>
							<mediatype>audio</mediatype>
							<trackindex>2</trackindex>
							<clipindex>55</clipindex>
							<groupindex>1</groupindex>
						</link>
						<logginginfo>
							<description></description>
							<scene></scene>
							<shottake></shottake>
							<lognote></lognote>
							<good></good>
							<originalvideofilename></originalvideofilename>
							<originalaudiofilename></originalaudiofilename>
						</logginginfo>
						<colorinfo>
							<lut></lut>
							<lut1></lut1>
							<asc_sop></asc_sop>
							<asc_sat></asc_sat>
							<lut2></lut2>
						</colorinfo>
						<labels>
							<label2>Iris</label2>
						</labels>
					</clipitem>
					<clipitem id="clipitem-696" premiereChannelType="stereo">
						<masterclipid>masterclip-55</masterclipid>
						<name>A002_05280722_C096.mp4</name>
						<enabled>TRUE</enabled>
						<duration>1368</duration>
						<rate>
							<timebase>24</timebase>
							<ntsc>FALSE</ntsc>
						</rate>
						<start>11854</start>
						<end>11909</end>
						<in>324</in>
						<out>379</out>
						<pproTicksIn>3429216000000</pproTicksIn>
						<pproTicksOut>4011336000000</pproTicksOut>
						<file id="file-55"/>
						<sourcetrack>
							<mediatype>audio</mediatype>
							<trackindex>2</trackindex>
						</sourcetrack>
						<link>
							<linkclipref>clipitem-532</linkclipref>
							<mediatype>audio</mediatype>
							<trackindex>1</trackindex>
							<clipindex>56</clipindex>
							<groupindex>1</groupindex>
						</link>
						<link>
							<linkclipref>clipitem-696</linkclipref>
							<mediatype>audio</mediatype>
							<trackindex>2</trackindex>
							<clipindex>56</clipindex>
							<groupindex>1</groupindex>
						</link>
						<logginginfo>
							<description></description>
							<scene></scene>
							<shottake></shottake>
							<lognote></lognote>
							<good></good>
							<originalvideofilename></originalvideofilename>
							<originalaudiofilename></originalaudiofilename>
						</logginginfo>
						<colorinfo>
							<lut></lut>
							<lut1></lut1>
							<asc_sop></asc_sop>
							<asc_sat></asc_sat>
							<lut2></lut2>
						</colorinfo>
						<labels>
							<label2>Iris</label2>
						</labels>
					</clipitem>
					<clipitem id="clipitem-697" premiereChannelType="stereo">
						<masterclipid>masterclip-56</masterclipid>
						<name>A002_05280725_C099.mp4</name>
						<enabled>TRUE</enabled>
						<duration>1303</duration>
						<rate>
							<timebase>24</timebase>
							<ntsc>FALSE</ntsc>
						</rate>
						<start>11909</start>
						<end>11997</end>
						<in>297</in>
						<out>385</out>
						<pproTicksIn>3143448000000</pproTicksIn>
						<pproTicksOut>4074840000000</pproTicksOut>
						<file id="file-56"/>
						<sourcetrack>
							<mediatype>audio</mediatype>
							<trackindex>2</trackindex>
						</sourcetrack>
						<link>
							<linkclipref>clipitem-101</linkclipref>
							<mediatype>video</mediatype>
							<trackindex>1</trackindex>
							<clipindex>103</clipindex>
						</link>
						<link>
							<linkclipref>clipitem-533</linkclipref>
							<mediatype>audio</mediatype>
							<trackindex>1</trackindex>
							<clipindex>57</clipindex>
							<groupindex>1</groupindex>
						</link>
						<link>
							<linkclipref>clipitem-697</linkclipref>
							<mediatype>audio</mediatype>
							<trackindex>2</trackindex>
							<clipindex>57</clipindex>
							<groupindex>1</groupindex>
						</link>
						<logginginfo>
							<description></description>
							<scene></scene>
							<shottake></shottake>
							<lognote></lognote>
							<good></good>
							<originalvideofilename></originalvideofilename>
							<originalaudiofilename></originalaudiofilename>
						</logginginfo>
						<colorinfo>
							<lut></lut>
							<lut1></lut1>
							<asc_sop></asc_sop>
							<asc_sat></asc_sat>
							<lut2></lut2>
						</colorinfo>
						<labels>
							<label2>Iris</label2>
						</labels>
					</clipitem>
					<clipitem id="clipitem-698" premiereChannelType="stereo">
						<masterclipid>masterclip-55</masterclipid>
						<name>A002_05280722_C096.mp4</name>
						<enabled>TRUE</enabled>
						<duration>1368</duration>
						<rate>
							<timebase>24</timebase>
							<ntsc>FALSE</ntsc>
						</rate>
						<start>11997</start>
						<end>12054</end>
						<in>467</in>
						<out>524</out>
						<pproTicksIn>4942728000000</pproTicksIn>
						<pproTicksOut>5546016000000</pproTicksOut>
						<file id="file-55"/>
						<sourcetrack>
							<mediatype>audio</mediatype>
							<trackindex>2</trackindex>
						</sourcetrack>
						<link>
							<linkclipref>clipitem-102</linkclipref>
							<mediatype>video</mediatype>
							<trackindex>1</trackindex>
							<clipindex>104</clipindex>
						</link>
						<link>
							<linkclipref>clipitem-534</linkclipref>
							<mediatype>audio</mediatype>
							<trackindex>1</trackindex>
							<clipindex>58</clipindex>
							<groupindex>1</groupindex>
						</link>
						<link>
							<linkclipref>clipitem-698</linkclipref>
							<mediatype>audio</mediatype>
							<trackindex>2</trackindex>
							<clipindex>58</clipindex>
							<groupindex>1</groupindex>
						</link>
						<logginginfo>
							<description></description>
							<scene></scene>
							<shottake></shottake>
							<lognote></lognote>
							<good></good>
							<originalvideofilename></originalvideofilename>
							<originalaudiofilename></originalaudiofilename>
						</logginginfo>
						<colorinfo>
							<lut></lut>
							<lut1></lut1>
							<asc_sop></asc_sop>
							<asc_sat></asc_sat>
							<lut2></lut2>
						</colorinfo>
						<labels>
							<label2>Iris</label2>
						</labels>
					</clipitem>
					<clipitem id="clipitem-699" premiereChannelType="stereo">
						<masterclipid>masterclip-55</masterclipid>
						<name>A002_05280722_C096.mp4</name>
						<enabled>TRUE</enabled>
						<duration>1368</duration>
						<rate>
							<timebase>24</timebase>
							<ntsc>FALSE</ntsc>
						</rate>
						<start>12054</start>
						<end>12149</end>
						<in>524</in>
						<out>619</out>
						<pproTicksIn>5546016000000</pproTicksIn>
						<pproTicksOut>6551496000000</pproTicksOut>
						<file id="file-55"/>
						<sourcetrack>
							<mediatype>audio</mediatype>
							<trackindex>2</trackindex>
						</sourcetrack>
						<link>
							<linkclipref>clipitem-103</linkclipref>
							<mediatype>video</mediatype>
							<trackindex>1</trackindex>
							<clipindex>105</clipindex>
						</link>
						<link>
							<linkclipref>clipitem-535</linkclipref>
							<mediatype>audio</mediatype>
							<trackindex>1</trackindex>
							<clipindex>59</clipindex>
							<groupindex>1</groupindex>
						</link>
						<link>
							<linkclipref>clipitem-699</linkclipref>
							<mediatype>audio</mediatype>
							<trackindex>2</trackindex>
							<clipindex>59</clipindex>
							<groupindex>1</groupindex>
						</link>
						<logginginfo>
							<description></description>
							<scene></scene>
							<shottake></shottake>
							<lognote></lognote>
							<good></good>
							<originalvideofilename></originalvideofilename>
							<originalaudiofilename></originalaudiofilename>
						</logginginfo>
						<colorinfo>
							<lut></lut>
							<lut1></lut1>
							<asc_sop></asc_sop>
							<asc_sat></asc_sat>
							<lut2></lut2>
						</colorinfo>
						<labels>
							<label2>Iris</label2>
						</labels>
					</clipitem>
					<clipitem id="clipitem-700" premiereChannelType="stereo">
						<masterclipid>masterclip-52</masterclipid>
						<name>A015_03071919_C154.mov</name>
						<enabled>TRUE</enabled>
						<duration>2517</duration>
						<rate>
							<timebase>24</timebase>
							<ntsc>FALSE</ntsc>
						</rate>
						<start>12149</start>
						<end>12202</end>
						<in>490</in>
						<out>543</out>
						<pproTicksIn>5186160000000</pproTicksIn>
						<pproTicksOut>5747112000000</pproTicksOut>
						<file id="file-52"/>
						<sourcetrack>
							<mediatype>audio</mediatype>
							<trackindex>2</trackindex>
						</sourcetrack>
						<link>
							<linkclipref>clipitem-104</linkclipref>
							<mediatype>video</mediatype>
							<trackindex>1</trackindex>
							<clipindex>106</clipindex>
						</link>
						<link>
							<linkclipref>clipitem-536</linkclipref>
							<mediatype>audio</mediatype>
							<trackindex>1</trackindex>
							<clipindex>60</clipindex>
							<groupindex>1</groupindex>
						</link>
						<link>
							<linkclipref>clipitem-700</linkclipref>
							<mediatype>audio</mediatype>
							<trackindex>2</trackindex>
							<clipindex>60</clipindex>
							<groupindex>1</groupindex>
						</link>
						<logginginfo>
							<description></description>
							<scene></scene>
							<shottake></shottake>
							<lognote></lognote>
							<good></good>
							<originalvideofilename></originalvideofilename>
							<originalaudiofilename></originalaudiofilename>
						</logginginfo>
						<colorinfo>
							<lut></lut>
							<lut1></lut1>
							<asc_sop></asc_sop>
							<asc_sat></asc_sat>
							<lut2></lut2>
						</colorinfo>
						<labels>
							<label2>Iris</label2>
						</labels>
					</clipitem>
					<clipitem id="clipitem-701" premiereChannelType="stereo">
						<masterclipid>masterclip-57</masterclipid>
						<name>A015_03071937_C162.mp4</name>
						<enabled>TRUE</enabled>
						<duration>2480</duration>
						<rate>
							<timebase>24</timebase>
							<ntsc>FALSE</ntsc>
						</rate>
						<start>12202</start>
						<end>12323</end>
						<in>68</in>
						<out>189</out>
						<pproTicksIn>719712000000</pproTicksIn>
						<pproTicksOut>2000376000000</pproTicksOut>
						<file id="file-57"/>
						<sourcetrack>
							<mediatype>audio</mediatype>
							<trackindex>2</trackindex>
						</sourcetrack>
						<link>
							<linkclipref>clipitem-105</linkclipref>
							<mediatype>video</mediatype>
							<trackindex>1</trackindex>
							<clipindex>107</clipindex>
						</link>
						<link>
							<linkclipref>clipitem-537</linkclipref>
							<mediatype>audio</mediatype>
							<trackindex>1</trackindex>
							<clipindex>61</clipindex>
							<groupindex>1</groupindex>
						</link>
						<link>
							<linkclipref>clipitem-701</linkclipref>
							<mediatype>audio</mediatype>
							<trackindex>2</trackindex>
							<clipindex>61</clipindex>
							<groupindex>1</groupindex>
						</link>
						<logginginfo>
							<description></description>
							<scene></scene>
							<shottake></shottake>
							<lognote></lognote>
							<good></good>
							<originalvideofilename></originalvideofilename>
							<originalaudiofilename></originalaudiofilename>
						</logginginfo>
						<colorinfo>
							<lut></lut>
							<lut1></lut1>
							<asc_sop></asc_sop>
							<asc_sat></asc_sat>
							<lut2></lut2>
						</colorinfo>
						<labels>
							<label2>Iris</label2>
						</labels>
					</clipitem>
					<clipitem id="clipitem-702" premiereChannelType="stereo">
						<masterclipid>masterclip-52</masterclipid>
						<name>A015_03071919_C154.mov</name>
						<enabled>TRUE</enabled>
						<duration>2517</duration>
						<rate>
							<timebase>24</timebase>
							<ntsc>FALSE</ntsc>
						</rate>
						<start>12323</start>
						<end>12474</end>
						<in>707</in>
						<out>858</out>
						<pproTicksIn>7482888000000</pproTicksIn>
						<pproTicksOut>9081072000000</pproTicksOut>
						<file id="file-52"/>
						<sourcetrack>
							<mediatype>audio</mediatype>
							<trackindex>2</trackindex>
						</sourcetrack>
						<link>
							<linkclipref>clipitem-106</linkclipref>
							<mediatype>video</mediatype>
							<trackindex>1</trackindex>
							<clipindex>108</clipindex>
						</link>
						<link>
							<linkclipref>clipitem-538</linkclipref>
							<mediatype>audio</mediatype>
							<trackindex>1</trackindex>
							<clipindex>62</clipindex>
							<groupindex>1</groupindex>
						</link>
						<link>
							<linkclipref>clipitem-702</linkclipref>
							<mediatype>audio</mediatype>
							<trackindex>2</trackindex>
							<clipindex>62</clipindex>
							<groupindex>1</groupindex>
						</link>
						<logginginfo>
							<description></description>
							<scene></scene>
							<shottake></shottake>
							<lognote></lognote>
							<good></good>
							<originalvideofilename></originalvideofilename>
							<originalaudiofilename></originalaudiofilename>
						</logginginfo>
						<colorinfo>
							<lut></lut>
							<lut1></lut1>
							<asc_sop></asc_sop>
							<asc_sat></asc_sat>
							<lut2></lut2>
						</colorinfo>
						<labels>
							<label2>Iris</label2>
						</labels>
					</clipitem>
					<clipitem id="clipitem-703" premiereChannelType="stereo">
						<masterclipid>masterclip-58</masterclipid>
						<name>A015_03071947_C167.mov</name>
						<enabled>TRUE</enabled>
						<duration>1892</duration>
						<rate>
							<timebase>24</timebase>
							<ntsc>FALSE</ntsc>
						</rate>
						<start>12474</start>
						<end>12669</end>
						<in>418</in>
						<out>613</out>
						<pproTicksIn>4424112000000</pproTicksIn>
						<pproTicksOut>6487992000000</pproTicksOut>
						<file id="file-58"/>
						<sourcetrack>
							<mediatype>audio</mediatype>
							<trackindex>2</trackindex>
						</sourcetrack>
						<link>
							<linkclipref>clipitem-107</linkclipref>
							<mediatype>video</mediatype>
							<trackindex>1</trackindex>
							<clipindex>109</clipindex>
						</link>
						<link>
							<linkclipref>clipitem-539</linkclipref>
							<mediatype>audio</mediatype>
							<trackindex>1</trackindex>
							<clipindex>63</clipindex>
							<groupindex>1</groupindex>
						</link>
						<link>
							<linkclipref>clipitem-703</linkclipref>
							<mediatype>audio</mediatype>
							<trackindex>2</trackindex>
							<clipindex>63</clipindex>
							<groupindex>1</groupindex>
						</link>
						<logginginfo>
							<description></description>
							<scene></scene>
							<shottake></shottake>
							<lognote></lognote>
							<good></good>
							<originalvideofilename></originalvideofilename>
							<originalaudiofilename></originalaudiofilename>
						</logginginfo>
						<colorinfo>
							<lut></lut>
							<lut1></lut1>
							<asc_sop></asc_sop>
							<asc_sat></asc_sat>
							<lut2></lut2>
						</colorinfo>
						<labels>
							<label2>Iris</label2>
						</labels>
					</clipitem>
					<clipitem id="clipitem-704" premiereChannelType="stereo">
						<masterclipid>masterclip-52</masterclipid>
						<name>A015_03071919_C154.mov</name>
						<enabled>TRUE</enabled>
						<duration>2517</duration>
						<rate>
							<timebase>24</timebase>
							<ntsc>FALSE</ntsc>
						</rate>
						<start>12669</start>
						<end>12725</end>
						<in>1036</in>
						<out>1092</out>
						<pproTicksIn>10965024000000</pproTicksIn>
						<pproTicksOut>11557728000000</pproTicksOut>
						<file id="file-52"/>
						<sourcetrack>
							<mediatype>audio</mediatype>
							<trackindex>2</trackindex>
						</sourcetrack>
						<link>
							<linkclipref>clipitem-108</linkclipref>
							<mediatype>video</mediatype>
							<trackindex>1</trackindex>
							<clipindex>110</clipindex>
						</link>
						<link>
							<linkclipref>clipitem-540</linkclipref>
							<mediatype>audio</mediatype>
							<trackindex>1</trackindex>
							<clipindex>64</clipindex>
							<groupindex>1</groupindex>
						</link>
						<link>
							<linkclipref>clipitem-704</linkclipref>
							<mediatype>audio</mediatype>
							<trackindex>2</trackindex>
							<clipindex>64</clipindex>
							<groupindex>1</groupindex>
						</link>
						<logginginfo>
							<description></description>
							<scene></scene>
							<shottake></shottake>
							<lognote></lognote>
							<good></good>
							<originalvideofilename></originalvideofilename>
							<originalaudiofilename></originalaudiofilename>
						</logginginfo>
						<colorinfo>
							<lut></lut>
							<lut1></lut1>
							<asc_sop></asc_sop>
							<asc_sat></asc_sat>
							<lut2></lut2>
						</colorinfo>
						<labels>
							<label2>Iris</label2>
						</labels>
					</clipitem>
					<clipitem id="clipitem-705" premiereChannelType="stereo">
						<masterclipid>masterclip-52</masterclipid>
						<name>A015_03071919_C154.mov</name>
						<enabled>TRUE</enabled>
						<duration>2517</duration>
						<rate>
							<timebase>24</timebase>
							<ntsc>FALSE</ntsc>
						</rate>
						<start>12725</start>
						<end>12815</end>
						<in>1092</in>
						<out>1182</out>
						<pproTicksIn>11557728000000</pproTicksIn>
						<pproTicksOut>12510288000000</pproTicksOut>
						<file id="file-52"/>
						<sourcetrack>
							<mediatype>audio</mediatype>
							<trackindex>2</trackindex>
						</sourcetrack>
						<link>
							<linkclipref>clipitem-109</linkclipref>
							<mediatype>video</mediatype>
							<trackindex>1</trackindex>
							<clipindex>111</clipindex>
						</link>
						<link>
							<linkclipref>clipitem-541</linkclipref>
							<mediatype>audio</mediatype>
							<trackindex>1</trackindex>
							<clipindex>65</clipindex>
							<groupindex>1</groupindex>
						</link>
						<link>
							<linkclipref>clipitem-705</linkclipref>
							<mediatype>audio</mediatype>
							<trackindex>2</trackindex>
							<clipindex>65</clipindex>
							<groupindex>1</groupindex>
						</link>
						<logginginfo>
							<description></description>
							<scene></scene>
							<shottake></shottake>
							<lognote></lognote>
							<good></good>
							<originalvideofilename></originalvideofilename>
							<originalaudiofilename></originalaudiofilename>
						</logginginfo>
						<colorinfo>
							<lut></lut>
							<lut1></lut1>
							<asc_sop></asc_sop>
							<asc_sat></asc_sat>
							<lut2></lut2>
						</colorinfo>
						<labels>
							<label2>Iris</label2>
						</labels>
					</clipitem>
					<clipitem id="clipitem-706" premiereChannelType="stereo">
						<masterclipid>masterclip-53</masterclipid>
						<name>A015_03071929_C156.mov</name>
						<enabled>TRUE</enabled>
						<duration>2423</duration>
						<rate>
							<timebase>24</timebase>
							<ntsc>FALSE</ntsc>
						</rate>
						<start>12815</start>
						<end>12889</end>
						<in>1279</in>
						<out>1353</out>
						<pproTicksIn>13536936000000</pproTicksIn>
						<pproTicksOut>14320152000000</pproTicksOut>
						<file id="file-53"/>
						<sourcetrack>
							<mediatype>audio</mediatype>
							<trackindex>2</trackindex>
						</sourcetrack>
						<link>
							<linkclipref>clipitem-110</linkclipref>
							<mediatype>video</mediatype>
							<trackindex>1</trackindex>
							<clipindex>112</clipindex>
						</link>
						<link>
							<linkclipref>clipitem-542</linkclipref>
							<mediatype>audio</mediatype>
							<trackindex>1</trackindex>
							<clipindex>66</clipindex>
							<groupindex>1</groupindex>
						</link>
						<link>
							<linkclipref>clipitem-706</linkclipref>
							<mediatype>audio</mediatype>
							<trackindex>2</trackindex>
							<clipindex>66</clipindex>
							<groupindex>1</groupindex>
						</link>
						<logginginfo>
							<description></description>
							<scene></scene>
							<shottake></shottake>
							<lognote></lognote>
							<good></good>
							<originalvideofilename></originalvideofilename>
							<originalaudiofilename></originalaudiofilename>
						</logginginfo>
						<colorinfo>
							<lut></lut>
							<lut1></lut1>
							<asc_sop></asc_sop>
							<asc_sat></asc_sat>
							<lut2></lut2>
						</colorinfo>
						<labels>
							<label2>Iris</label2>
						</labels>
					</clipitem>
					<clipitem id="clipitem-707" premiereChannelType="stereo">
						<masterclipid>masterclip-52</masterclipid>
						<name>A015_03071919_C154.mov</name>
						<enabled>TRUE</enabled>
						<duration>2517</duration>
						<rate>
							<timebase>24</timebase>
							<ntsc>FALSE</ntsc>
						</rate>
						<start>12889</start>
						<end>12994</end>
						<in>1248</in>
						<out>1353</out>
						<pproTicksIn>13208832000000</pproTicksIn>
						<pproTicksOut>14320152000000</pproTicksOut>
						<file id="file-52"/>
						<sourcetrack>
							<mediatype>audio</mediatype>
							<trackindex>2</trackindex>
						</sourcetrack>
						<link>
							<linkclipref>clipitem-111</linkclipref>
							<mediatype>video</mediatype>
							<trackindex>1</trackindex>
							<clipindex>113</clipindex>
						</link>
						<link>
							<linkclipref>clipitem-543</linkclipref>
							<mediatype>audio</mediatype>
							<trackindex>1</trackindex>
							<clipindex>67</clipindex>
							<groupindex>1</groupindex>
						</link>
						<link>
							<linkclipref>clipitem-707</linkclipref>
							<mediatype>audio</mediatype>
							<trackindex>2</trackindex>
							<clipindex>67</clipindex>
							<groupindex>1</groupindex>
						</link>
						<logginginfo>
							<description></description>
							<scene></scene>
							<shottake></shottake>
							<lognote></lognote>
							<good></good>
							<originalvideofilename></originalvideofilename>
							<originalaudiofilename></originalaudiofilename>
						</logginginfo>
						<colorinfo>
							<lut></lut>
							<lut1></lut1>
							<asc_sop></asc_sop>
							<asc_sat></asc_sat>
							<lut2></lut2>
						</colorinfo>
						<labels>
							<label2>Iris</label2>
						</labels>
					</clipitem>
					<clipitem id="clipitem-708" premiereChannelType="stereo">
						<masterclipid>masterclip-55</masterclipid>
						<name>A002_05280722_C096.mp4</name>
						<enabled>TRUE</enabled>
						<duration>1368</duration>
						<rate>
							<timebase>24</timebase>
							<ntsc>FALSE</ntsc>
						</rate>
						<start>13162</start>
						<end>13205</end>
						<in>649</in>
						<out>692</out>
						<pproTicksIn>6869016000000</pproTicksIn>
						<pproTicksOut>7324128000000</pproTicksOut>
						<file id="file-55"/>
						<sourcetrack>
							<mediatype>audio</mediatype>
							<trackindex>2</trackindex>
						</sourcetrack>
						<link>
							<linkclipref>clipitem-112</linkclipref>
							<mediatype>video</mediatype>
							<trackindex>1</trackindex>
							<clipindex>114</clipindex>
						</link>
						<link>
							<linkclipref>clipitem-544</linkclipref>
							<mediatype>audio</mediatype>
							<trackindex>1</trackindex>
							<clipindex>68</clipindex>
							<groupindex>1</groupindex>
						</link>
						<link>
							<linkclipref>clipitem-708</linkclipref>
							<mediatype>audio</mediatype>
							<trackindex>2</trackindex>
							<clipindex>68</clipindex>
							<groupindex>1</groupindex>
						</link>
						<logginginfo>
							<description></description>
							<scene></scene>
							<shottake></shottake>
							<lognote></lognote>
							<good></good>
							<originalvideofilename></originalvideofilename>
							<originalaudiofilename></originalaudiofilename>
						</logginginfo>
						<colorinfo>
							<lut></lut>
							<lut1></lut1>
							<asc_sop></asc_sop>
							<asc_sat></asc_sat>
							<lut2></lut2>
						</colorinfo>
						<labels>
							<label2>Iris</label2>
						</labels>
					</clipitem>
					<clipitem id="clipitem-709" premiereChannelType="stereo">
						<masterclipid>masterclip-58</masterclipid>
						<name>A015_03071947_C167.mov</name>
						<enabled>TRUE</enabled>
						<duration>1892</duration>
						<rate>
							<timebase>24</timebase>
							<ntsc>FALSE</ntsc>
						</rate>
						<start>13205</start>
						<end>13220</end>
						<in>1112</in>
						<out>1127</out>
						<pproTicksIn>11769408000000</pproTicksIn>
						<pproTicksOut>11928168000000</pproTicksOut>
						<file id="file-58"/>
						<sourcetrack>
							<mediatype>audio</mediatype>
							<trackindex>2</trackindex>
						</sourcetrack>
						<link>
							<linkclipref>clipitem-113</linkclipref>
							<mediatype>video</mediatype>
							<trackindex>1</trackindex>
							<clipindex>115</clipindex>
						</link>
						<link>
							<linkclipref>clipitem-545</linkclipref>
							<mediatype>audio</mediatype>
							<trackindex>1</trackindex>
							<clipindex>69</clipindex>
							<groupindex>1</groupindex>
						</link>
						<link>
							<linkclipref>clipitem-709</linkclipref>
							<mediatype>audio</mediatype>
							<trackindex>2</trackindex>
							<clipindex>69</clipindex>
							<groupindex>1</groupindex>
						</link>
						<logginginfo>
							<description></description>
							<scene></scene>
							<shottake></shottake>
							<lognote></lognote>
							<good></good>
							<originalvideofilename></originalvideofilename>
							<originalaudiofilename></originalaudiofilename>
						</logginginfo>
						<colorinfo>
							<lut></lut>
							<lut1></lut1>
							<asc_sop></asc_sop>
							<asc_sat></asc_sat>
							<lut2></lut2>
						</colorinfo>
						<labels>
							<label2>Iris</label2>
						</labels>
					</clipitem>
					<clipitem id="clipitem-710" premiereChannelType="stereo">
						<masterclipid>masterclip-58</masterclipid>
						<name>A015_03071947_C167.mov</name>
						<enabled>TRUE</enabled>
						<duration>1892</duration>
						<rate>
							<timebase>24</timebase>
							<ntsc>FALSE</ntsc>
						</rate>
						<start>13220</start>
						<end>13273</end>
						<in>1127</in>
						<out>1180</out>
						<pproTicksIn>11928168000000</pproTicksIn>
						<pproTicksOut>12489120000000</pproTicksOut>
						<file id="file-58"/>
						<sourcetrack>
							<mediatype>audio</mediatype>
							<trackindex>2</trackindex>
						</sourcetrack>
						<link>
							<linkclipref>clipitem-114</linkclipref>
							<mediatype>video</mediatype>
							<trackindex>1</trackindex>
							<clipindex>116</clipindex>
						</link>
						<link>
							<linkclipref>clipitem-546</linkclipref>
							<mediatype>audio</mediatype>
							<trackindex>1</trackindex>
							<clipindex>70</clipindex>
							<groupindex>1</groupindex>
						</link>
						<link>
							<linkclipref>clipitem-710</linkclipref>
							<mediatype>audio</mediatype>
							<trackindex>2</trackindex>
							<clipindex>70</clipindex>
							<groupindex>1</groupindex>
						</link>
						<logginginfo>
							<description></description>
							<scene></scene>
							<shottake></shottake>
							<lognote></lognote>
							<good></good>
							<originalvideofilename></originalvideofilename>
							<originalaudiofilename></originalaudiofilename>
						</logginginfo>
						<colorinfo>
							<lut></lut>
							<lut1></lut1>
							<asc_sop></asc_sop>
							<asc_sat></asc_sat>
							<lut2></lut2>
						</colorinfo>
						<labels>
							<label2>Iris</label2>
						</labels>
					</clipitem>
					<clipitem id="clipitem-711" premiereChannelType="stereo">
						<masterclipid>masterclip-56</masterclipid>
						<name>A002_05280725_C099.mp4</name>
						<enabled>TRUE</enabled>
						<duration>1303</duration>
						<rate>
							<timebase>24</timebase>
							<ntsc>FALSE</ntsc>
						</rate>
						<start>13273</start>
						<end>13299</end>
						<in>667</in>
						<out>693</out>
						<pproTicksIn>7059528000000</pproTicksIn>
						<pproTicksOut>7334712000000</pproTicksOut>
						<file id="file-56"/>
						<sourcetrack>
							<mediatype>audio</mediatype>
							<trackindex>2</trackindex>
						</sourcetrack>
						<link>
							<linkclipref>clipitem-115</linkclipref>
							<mediatype>video</mediatype>
							<trackindex>1</trackindex>
							<clipindex>117</clipindex>
						</link>
						<link>
							<linkclipref>clipitem-547</linkclipref>
							<mediatype>audio</mediatype>
							<trackindex>1</trackindex>
							<clipindex>71</clipindex>
							<groupindex>1</groupindex>
						</link>
						<link>
							<linkclipref>clipitem-711</linkclipref>
							<mediatype>audio</mediatype>
							<trackindex>2</trackindex>
							<clipindex>71</clipindex>
							<groupindex>1</groupindex>
						</link>
						<logginginfo>
							<description></description>
							<scene></scene>
							<shottake></shottake>
							<lognote></lognote>
							<good></good>
							<originalvideofilename></originalvideofilename>
							<originalaudiofilename></originalaudiofilename>
						</logginginfo>
						<colorinfo>
							<lut></lut>
							<lut1></lut1>
							<asc_sop></asc_sop>
							<asc_sat></asc_sat>
							<lut2></lut2>
						</colorinfo>
						<labels>
							<label2>Iris</label2>
						</labels>
					</clipitem>
					<clipitem id="clipitem-712" premiereChannelType="stereo">
						<masterclipid>masterclip-58</masterclipid>
						<name>A015_03071947_C167.mov</name>
						<enabled>TRUE</enabled>
						<duration>1892</duration>
						<rate>
							<timebase>24</timebase>
							<ntsc>FALSE</ntsc>
						</rate>
						<start>13299</start>
						<end>13327</end>
						<in>1251</in>
						<out>1279</out>
						<pproTicksIn>13240584000000</pproTicksIn>
						<pproTicksOut>13536936000000</pproTicksOut>
						<file id="file-58"/>
						<sourcetrack>
							<mediatype>audio</mediatype>
							<trackindex>2</trackindex>
						</sourcetrack>
						<link>
							<linkclipref>clipitem-116</linkclipref>
							<mediatype>video</mediatype>
							<trackindex>1</trackindex>
							<clipindex>118</clipindex>
						</link>
						<link>
							<linkclipref>clipitem-548</linkclipref>
							<mediatype>audio</mediatype>
							<trackindex>1</trackindex>
							<clipindex>72</clipindex>
							<groupindex>1</groupindex>
						</link>
						<link>
							<linkclipref>clipitem-712</linkclipref>
							<mediatype>audio</mediatype>
							<trackindex>2</trackindex>
							<clipindex>72</clipindex>
							<groupindex>1</groupindex>
						</link>
						<logginginfo>
							<description></description>
							<scene></scene>
							<shottake></shottake>
							<lognote></lognote>
							<good></good>
							<originalvideofilename></originalvideofilename>
							<originalaudiofilename></originalaudiofilename>
						</logginginfo>
						<colorinfo>
							<lut></lut>
							<lut1></lut1>
							<asc_sop></asc_sop>
							<asc_sat></asc_sat>
							<lut2></lut2>
						</colorinfo>
						<labels>
							<label2>Iris</label2>
						</labels>
					</clipitem>
					<clipitem id="clipitem-713" premiereChannelType="stereo">
						<masterclipid>masterclip-56</masterclipid>
						<name>A002_05280725_C099.mp4</name>
						<enabled>TRUE</enabled>
						<duration>1303</duration>
						<rate>
							<timebase>24</timebase>
							<ntsc>FALSE</ntsc>
						</rate>
						<start>13327</start>
						<end>13362</end>
						<in>710</in>
						<out>745</out>
						<pproTicksIn>7514640000000</pproTicksIn>
						<pproTicksOut>7885080000000</pproTicksOut>
						<file id="file-56"/>
						<sourcetrack>
							<mediatype>audio</mediatype>
							<trackindex>2</trackindex>
						</sourcetrack>
						<link>
							<linkclipref>clipitem-117</linkclipref>
							<mediatype>video</mediatype>
							<trackindex>1</trackindex>
							<clipindex>119</clipindex>
						</link>
						<link>
							<linkclipref>clipitem-549</linkclipref>
							<mediatype>audio</mediatype>
							<trackindex>1</trackindex>
							<clipindex>73</clipindex>
							<groupindex>1</groupindex>
						</link>
						<link>
							<linkclipref>clipitem-713</linkclipref>
							<mediatype>audio</mediatype>
							<trackindex>2</trackindex>
							<clipindex>73</clipindex>
							<groupindex>1</groupindex>
						</link>
						<logginginfo>
							<description></description>
							<scene></scene>
							<shottake></shottake>
							<lognote></lognote>
							<good></good>
							<originalvideofilename></originalvideofilename>
							<originalaudiofilename></originalaudiofilename>
						</logginginfo>
						<colorinfo>
							<lut></lut>
							<lut1></lut1>
							<asc_sop></asc_sop>
							<asc_sat></asc_sat>
							<lut2></lut2>
						</colorinfo>
						<labels>
							<label2>Iris</label2>
						</labels>
					</clipitem>
					<clipitem id="clipitem-714" premiereChannelType="stereo">
						<masterclipid>masterclip-58</masterclipid>
						<name>A015_03071947_C167.mov</name>
						<enabled>TRUE</enabled>
						<duration>1892</duration>
						<rate>
							<timebase>24</timebase>
							<ntsc>FALSE</ntsc>
						</rate>
						<start>13362</start>
						<end>13402</end>
						<in>1346</in>
						<out>1386</out>
						<pproTicksIn>14246064000000</pproTicksIn>
						<pproTicksOut>14669424000000</pproTicksOut>
						<file id="file-58"/>
						<sourcetrack>
							<mediatype>audio</mediatype>
							<trackindex>2</trackindex>
						</sourcetrack>
						<link>
							<linkclipref>clipitem-118</linkclipref>
							<mediatype>video</mediatype>
							<trackindex>1</trackindex>
							<clipindex>120</clipindex>
						</link>
						<link>
							<linkclipref>clipitem-550</linkclipref>
							<mediatype>audio</mediatype>
							<trackindex>1</trackindex>
							<clipindex>74</clipindex>
							<groupindex>1</groupindex>
						</link>
						<link>
							<linkclipref>clipitem-714</linkclipref>
							<mediatype>audio</mediatype>
							<trackindex>2</trackindex>
							<clipindex>74</clipindex>
							<groupindex>1</groupindex>
						</link>
						<logginginfo>
							<description></description>
							<scene></scene>
							<shottake></shottake>
							<lognote></lognote>
							<good></good>
							<originalvideofilename></originalvideofilename>
							<originalaudiofilename></originalaudiofilename>
						</logginginfo>
						<colorinfo>
							<lut></lut>
							<lut1></lut1>
							<asc_sop></asc_sop>
							<asc_sat></asc_sat>
							<lut2></lut2>
						</colorinfo>
						<labels>
							<label2>Iris</label2>
						</labels>
					</clipitem>
					<clipitem id="clipitem-715" premiereChannelType="stereo">
						<masterclipid>masterclip-60</masterclipid>
						<name>A002_05280727_C101.mp4</name>
						<enabled>TRUE</enabled>
						<duration>1127</duration>
						<rate>
							<timebase>24</timebase>
							<ntsc>FALSE</ntsc>
						</rate>
						<start>13422</start>
						<end>13464</end>
						<in>665</in>
						<out>707</out>
						<pproTicksIn>7038360000000</pproTicksIn>
						<pproTicksOut>7482888000000</pproTicksOut>
						<file id="file-60"/>
						<sourcetrack>
							<mediatype>audio</mediatype>
							<trackindex>2</trackindex>
						</sourcetrack>
						<link>
							<linkclipref>clipitem-120</linkclipref>
							<mediatype>video</mediatype>
							<trackindex>1</trackindex>
							<clipindex>122</clipindex>
						</link>
						<link>
							<linkclipref>clipitem-551</linkclipref>
							<mediatype>audio</mediatype>
							<trackindex>1</trackindex>
							<clipindex>75</clipindex>
							<groupindex>1</groupindex>
						</link>
						<link>
							<linkclipref>clipitem-715</linkclipref>
							<mediatype>audio</mediatype>
							<trackindex>2</trackindex>
							<clipindex>75</clipindex>
							<groupindex>1</groupindex>
						</link>
						<logginginfo>
							<description></description>
							<scene></scene>
							<shottake></shottake>
							<lognote></lognote>
							<good></good>
							<originalvideofilename></originalvideofilename>
							<originalaudiofilename></originalaudiofilename>
						</logginginfo>
						<colorinfo>
							<lut></lut>
							<lut1></lut1>
							<asc_sop></asc_sop>
							<asc_sat></asc_sat>
							<lut2></lut2>
						</colorinfo>
						<labels>
							<label2>Iris</label2>
						</labels>
					</clipitem>
					<clipitem id="clipitem-716" premiereChannelType="stereo">
						<masterclipid>masterclip-56</masterclipid>
						<name>A002_05280725_C099.mp4</name>
						<enabled>TRUE</enabled>
						<duration>1303</duration>
						<rate>
							<timebase>24</timebase>
							<ntsc>FALSE</ntsc>
						</rate>
						<start>13488</start>
						<end>13519</end>
						<in>841</in>
						<out>872</out>
						<pproTicksIn>8901144000000</pproTicksIn>
						<pproTicksOut>9229248000000</pproTicksOut>
						<file id="file-56"/>
						<sourcetrack>
							<mediatype>audio</mediatype>
							<trackindex>2</trackindex>
						</sourcetrack>
						<link>
							<linkclipref>clipitem-121</linkclipref>
							<mediatype>video</mediatype>
							<trackindex>1</trackindex>
							<clipindex>123</clipindex>
						</link>
						<link>
							<linkclipref>clipitem-552</linkclipref>
							<mediatype>audio</mediatype>
							<trackindex>1</trackindex>
							<clipindex>76</clipindex>
							<groupindex>1</groupindex>
						</link>
						<link>
							<linkclipref>clipitem-716</linkclipref>
							<mediatype>audio</mediatype>
							<trackindex>2</trackindex>
							<clipindex>76</clipindex>
							<groupindex>1</groupindex>
						</link>
						<logginginfo>
							<description></description>
							<scene></scene>
							<shottake></shottake>
							<lognote></lognote>
							<good></good>
							<originalvideofilename></originalvideofilename>
							<originalaudiofilename></originalaudiofilename>
						</logginginfo>
						<colorinfo>
							<lut></lut>
							<lut1></lut1>
							<asc_sop></asc_sop>
							<asc_sat></asc_sat>
							<lut2></lut2>
						</colorinfo>
						<labels>
							<label2>Iris</label2>
						</labels>
					</clipitem>
					<clipitem id="clipitem-717" premiereChannelType="stereo">
						<masterclipid>masterclip-58</masterclipid>
						<name>A015_03071947_C167.mov</name>
						<enabled>TRUE</enabled>
						<duration>1892</duration>
						<rate>
							<timebase>24</timebase>
							<ntsc>FALSE</ntsc>
						</rate>
						<start>13519</start>
						<end>13557</end>
						<in>1463</in>
						<out>1501</out>
						<pproTicksIn>15484392000000</pproTicksIn>
						<pproTicksOut>15886584000000</pproTicksOut>
						<file id="file-58"/>
						<sourcetrack>
							<mediatype>audio</mediatype>
							<trackindex>2</trackindex>
						</sourcetrack>
						<link>
							<linkclipref>clipitem-122</linkclipref>
							<mediatype>video</mediatype>
							<trackindex>1</trackindex>
							<clipindex>124</clipindex>
						</link>
						<link>
							<linkclipref>clipitem-553</linkclipref>
							<mediatype>audio</mediatype>
							<trackindex>1</trackindex>
							<clipindex>77</clipindex>
							<groupindex>1</groupindex>
						</link>
						<link>
							<linkclipref>clipitem-717</linkclipref>
							<mediatype>audio</mediatype>
							<trackindex>2</trackindex>
							<clipindex>77</clipindex>
							<groupindex>1</groupindex>
						</link>
						<logginginfo>
							<description></description>
							<scene></scene>
							<shottake></shottake>
							<lognote></lognote>
							<good></good>
							<originalvideofilename></originalvideofilename>
							<originalaudiofilename></originalaudiofilename>
						</logginginfo>
						<colorinfo>
							<lut></lut>
							<lut1></lut1>
							<asc_sop></asc_sop>
							<asc_sat></asc_sat>
							<lut2></lut2>
						</colorinfo>
						<labels>
							<label2>Iris</label2>
						</labels>
					</clipitem>
					<clipitem id="clipitem-718" premiereChannelType="stereo">
						<masterclipid>masterclip-56</masterclipid>
						<name>A002_05280725_C099.mp4</name>
						<enabled>TRUE</enabled>
						<duration>1303</duration>
						<rate>
							<timebase>24</timebase>
							<ntsc>FALSE</ntsc>
						</rate>
						<start>13557</start>
						<end>13582</end>
						<in>885</in>
						<out>910</out>
						<pproTicksIn>9366840000000</pproTicksIn>
						<pproTicksOut>9631440000000</pproTicksOut>
						<file id="file-56"/>
						<sourcetrack>
							<mediatype>audio</mediatype>
							<trackindex>2</trackindex>
						</sourcetrack>
						<link>
							<linkclipref>clipitem-123</linkclipref>
							<mediatype>video</mediatype>
							<trackindex>1</trackindex>
							<clipindex>125</clipindex>
						</link>
						<link>
							<linkclipref>clipitem-554</linkclipref>
							<mediatype>audio</mediatype>
							<trackindex>1</trackindex>
							<clipindex>78</clipindex>
							<groupindex>1</groupindex>
						</link>
						<link>
							<linkclipref>clipitem-718</linkclipref>
							<mediatype>audio</mediatype>
							<trackindex>2</trackindex>
							<clipindex>78</clipindex>
							<groupindex>1</groupindex>
						</link>
						<logginginfo>
							<description></description>
							<scene></scene>
							<shottake></shottake>
							<lognote></lognote>
							<good></good>
							<originalvideofilename></originalvideofilename>
							<originalaudiofilename></originalaudiofilename>
						</logginginfo>
						<colorinfo>
							<lut></lut>
							<lut1></lut1>
							<asc_sop></asc_sop>
							<asc_sat></asc_sat>
							<lut2></lut2>
						</colorinfo>
						<labels>
							<label2>Iris</label2>
						</labels>
					</clipitem>
					<clipitem id="clipitem-719" premiereChannelType="stereo">
						<masterclipid>masterclip-55</masterclipid>
						<name>A002_05280722_C096.mp4</name>
						<enabled>TRUE</enabled>
						<duration>1368</duration>
						<rate>
							<timebase>24</timebase>
							<ntsc>FALSE</ntsc>
						</rate>
						<start>13582</start>
						<end>13631</end>
						<in>981</in>
						<out>1030</out>
						<pproTicksIn>10382904000000</pproTicksIn>
						<pproTicksOut>10901520000000</pproTicksOut>
						<file id="file-55"/>
						<sourcetrack>
							<mediatype>audio</mediatype>
							<trackindex>2</trackindex>
						</sourcetrack>
						<link>
							<linkclipref>clipitem-555</linkclipref>
							<mediatype>audio</mediatype>
							<trackindex>1</trackindex>
							<clipindex>79</clipindex>
							<groupindex>1</groupindex>
						</link>
						<link>
							<linkclipref>clipitem-719</linkclipref>
							<mediatype>audio</mediatype>
							<trackindex>2</trackindex>
							<clipindex>79</clipindex>
							<groupindex>1</groupindex>
						</link>
						<logginginfo>
							<description></description>
							<scene></scene>
							<shottake></shottake>
							<lognote></lognote>
							<good></good>
							<originalvideofilename></originalvideofilename>
							<originalaudiofilename></originalaudiofilename>
						</logginginfo>
						<colorinfo>
							<lut></lut>
							<lut1></lut1>
							<asc_sop></asc_sop>
							<asc_sat></asc_sat>
							<lut2></lut2>
						</colorinfo>
						<labels>
							<label2>Iris</label2>
						</labels>
					</clipitem>
					<clipitem id="clipitem-720" premiereChannelType="stereo">
						<masterclipid>masterclip-58</masterclipid>
						<name>A015_03071947_C167.mov</name>
						<enabled>TRUE</enabled>
						<duration>1892</duration>
						<rate>
							<timebase>24</timebase>
							<ntsc>FALSE</ntsc>
						</rate>
						<start>13631</start>
						<end>13757</end>
						<in>1559</in>
						<out>1685</out>
						<pproTicksIn>16500456000000</pproTicksIn>
						<pproTicksOut>17834040000000</pproTicksOut>
						<file id="file-58"/>
						<sourcetrack>
							<mediatype>audio</mediatype>
							<trackindex>2</trackindex>
						</sourcetrack>
						<link>
							<linkclipref>clipitem-125</linkclipref>
							<mediatype>video</mediatype>
							<trackindex>1</trackindex>
							<clipindex>127</clipindex>
						</link>
						<link>
							<linkclipref>clipitem-556</linkclipref>
							<mediatype>audio</mediatype>
							<trackindex>1</trackindex>
							<clipindex>80</clipindex>
							<groupindex>1</groupindex>
						</link>
						<link>
							<linkclipref>clipitem-720</linkclipref>
							<mediatype>audio</mediatype>
							<trackindex>2</trackindex>
							<clipindex>80</clipindex>
							<groupindex>1</groupindex>
						</link>
						<logginginfo>
							<description></description>
							<scene></scene>
							<shottake></shottake>
							<lognote></lognote>
							<good></good>
							<originalvideofilename></originalvideofilename>
							<originalaudiofilename></originalaudiofilename>
						</logginginfo>
						<colorinfo>
							<lut></lut>
							<lut1></lut1>
							<asc_sop></asc_sop>
							<asc_sat></asc_sat>
							<lut2></lut2>
						</colorinfo>
						<labels>
							<label2>Iris</label2>
						</labels>
					</clipitem>
					<clipitem id="clipitem-721" premiereChannelType="stereo">
						<masterclipid>masterclip-53</masterclipid>
						<name>A015_03071929_C156.mov</name>
						<enabled>TRUE</enabled>
						<duration>2423</duration>
						<rate>
							<timebase>24</timebase>
							<ntsc>FALSE</ntsc>
						</rate>
						<start>13757</start>
						<end>13818</end>
						<in>2198</in>
						<out>2259</out>
						<pproTicksIn>23263632000000</pproTicksIn>
						<pproTicksOut>23909256000000</pproTicksOut>
						<file id="file-53"/>
						<sourcetrack>
							<mediatype>audio</mediatype>
							<trackindex>2</trackindex>
						</sourcetrack>
						<link>
							<linkclipref>clipitem-126</linkclipref>
							<mediatype>video</mediatype>
							<trackindex>1</trackindex>
							<clipindex>128</clipindex>
						</link>
						<link>
							<linkclipref>clipitem-557</linkclipref>
							<mediatype>audio</mediatype>
							<trackindex>1</trackindex>
							<clipindex>81</clipindex>
							<groupindex>1</groupindex>
						</link>
						<link>
							<linkclipref>clipitem-721</linkclipref>
							<mediatype>audio</mediatype>
							<trackindex>2</trackindex>
							<clipindex>81</clipindex>
							<groupindex>1</groupindex>
						</link>
						<logginginfo>
							<description></description>
							<scene></scene>
							<shottake></shottake>
							<lognote></lognote>
							<good></good>
							<originalvideofilename></originalvideofilename>
							<originalaudiofilename></originalaudiofilename>
						</logginginfo>
						<colorinfo>
							<lut></lut>
							<lut1></lut1>
							<asc_sop></asc_sop>
							<asc_sat></asc_sat>
							<lut2></lut2>
						</colorinfo>
						<labels>
							<label2>Iris</label2>
						</labels>
					</clipitem>
					<clipitem id="clipitem-722" premiereChannelType="stereo">
						<masterclipid>masterclip-55</masterclipid>
						<name>A002_05280722_C096.mp4</name>
						<enabled>TRUE</enabled>
						<duration>1368</duration>
						<rate>
							<timebase>24</timebase>
							<ntsc>FALSE</ntsc>
						</rate>
						<start>13866</start>
						<end>13951</end>
						<in>1030</in>
						<out>1115</out>
						<pproTicksIn>10901520000000</pproTicksIn>
						<pproTicksOut>11801160000000</pproTicksOut>
						<file id="file-55"/>
						<sourcetrack>
							<mediatype>audio</mediatype>
							<trackindex>2</trackindex>
						</sourcetrack>
						<link>
							<linkclipref>clipitem-558</linkclipref>
							<mediatype>audio</mediatype>
							<trackindex>1</trackindex>
							<clipindex>82</clipindex>
							<groupindex>1</groupindex>
						</link>
						<link>
							<linkclipref>clipitem-722</linkclipref>
							<mediatype>audio</mediatype>
							<trackindex>2</trackindex>
							<clipindex>82</clipindex>
							<groupindex>1</groupindex>
						</link>
						<logginginfo>
							<description></description>
							<scene></scene>
							<shottake></shottake>
							<lognote></lognote>
							<good></good>
							<originalvideofilename></originalvideofilename>
							<originalaudiofilename></originalaudiofilename>
						</logginginfo>
						<colorinfo>
							<lut></lut>
							<lut1></lut1>
							<asc_sop></asc_sop>
							<asc_sat></asc_sat>
							<lut2></lut2>
						</colorinfo>
						<labels>
							<label2>Iris</label2>
						</labels>
					</clipitem>
					<clipitem id="clipitem-723" premiereChannelType="stereo">
						<masterclipid>masterclip-228</masterclipid>
						<name>Audio 3_30.wav</name>
						<enabled>TRUE</enabled>
						<duration>109</duration>
						<rate>
							<timebase>24</timebase>
							<ntsc>FALSE</ntsc>
						</rate>
						<start>13951</start>
						<end>14030</end>
						<in>10</in>
						<out>89</out>
						<pproTicksIn>105840000000</pproTicksIn>
						<pproTicksOut>941976000000</pproTicksOut>
						<file id="file-228"/>
						<sourcetrack>
							<mediatype>audio</mediatype>
							<trackindex>2</trackindex>
						</sourcetrack>
						<filter>
							<effect>
								<name>Audio Levels</name>
								<effectid>audiolevels</effectid>
								<effectcategory>audiolevels</effectcategory>
								<effecttype>audiolevels</effecttype>
								<mediatype>audio</mediatype>
								<pproBypass>false</pproBypass>
								<parameter authoringApp="PremierePro">
									<parameterid>level</parameterid>
									<name>Level</name>
									<valuemin>0</valuemin>
									<valuemax>3.98109</valuemax>
									<value>0.0356379</value>
								</parameter>
							</effect>
						</filter>
						<link>
							<linkclipref>clipitem-559</linkclipref>
							<mediatype>audio</mediatype>
							<trackindex>1</trackindex>
							<clipindex>83</clipindex>
							<groupindex>1</groupindex>
						</link>
						<link>
							<linkclipref>clipitem-723</linkclipref>
							<mediatype>audio</mediatype>
							<trackindex>2</trackindex>
							<clipindex>83</clipindex>
							<groupindex>1</groupindex>
						</link>
						<logginginfo>
							<description></description>
							<scene></scene>
							<shottake></shottake>
							<lognote></lognote>
							<good></good>
							<originalvideofilename></originalvideofilename>
							<originalaudiofilename></originalaudiofilename>
						</logginginfo>
						<colorinfo>
							<lut></lut>
							<lut1></lut1>
							<asc_sop></asc_sop>
							<asc_sat></asc_sat>
							<lut2></lut2>
						</colorinfo>
						<labels>
							<label2>Caribbean</label2>
						</labels>
					</clipitem>
					<clipitem id="clipitem-724" premiereChannelType="stereo">
						<masterclipid>masterclip-229</masterclipid>
						<name>A002_05291154_C279.mp4</name>
						<enabled>TRUE</enabled>
						<duration>482</duration>
						<rate>
							<timebase>24</timebase>
							<ntsc>FALSE</ntsc>
						</rate>
						<start>14118</start>
						<end>14450</end>
						<in>60</in>
						<out>392</out>
						<pproTicksIn>635040000000</pproTicksIn>
						<pproTicksOut>4148928000000</pproTicksOut>
						<file id="file-229"/>
						<sourcetrack>
							<mediatype>audio</mediatype>
							<trackindex>2</trackindex>
						</sourcetrack>
						<link>
							<linkclipref>clipitem-560</linkclipref>
							<mediatype>audio</mediatype>
							<trackindex>1</trackindex>
							<clipindex>84</clipindex>
							<groupindex>1</groupindex>
						</link>
						<link>
							<linkclipref>clipitem-724</linkclipref>
							<mediatype>audio</mediatype>
							<trackindex>2</trackindex>
							<clipindex>84</clipindex>
							<groupindex>1</groupindex>
						</link>
						<logginginfo>
							<description></description>
							<scene></scene>
							<shottake></shottake>
							<lognote></lognote>
							<good></good>
							<originalvideofilename></originalvideofilename>
							<originalaudiofilename></originalaudiofilename>
						</logginginfo>
						<colorinfo>
							<lut></lut>
							<lut1></lut1>
							<asc_sop></asc_sop>
							<asc_sat></asc_sat>
							<lut2></lut2>
						</colorinfo>
						<labels>
							<label2>Iris</label2>
						</labels>
					</clipitem>
					<clipitem id="clipitem-725" premiereChannelType="stereo">
						<masterclipid>masterclip-66</masterclipid>
						<name>A002_05291230_C294.mp4</name>
						<enabled>TRUE</enabled>
						<duration>780</duration>
						<rate>
							<timebase>24</timebase>
							<ntsc>FALSE</ntsc>
						</rate>
						<start>14545</start>
						<end>14730</end>
						<in>126</in>
						<out>311</out>
						<pproTicksIn>1333584000000</pproTicksIn>
						<pproTicksOut>3291624000000</pproTicksOut>
						<file id="file-66"/>
						<sourcetrack>
							<mediatype>audio</mediatype>
							<trackindex>2</trackindex>
						</sourcetrack>
						<link>
							<linkclipref>clipitem-135</linkclipref>
							<mediatype>video</mediatype>
							<trackindex>1</trackindex>
							<clipindex>137</clipindex>
						</link>
						<link>
							<linkclipref>clipitem-561</linkclipref>
							<mediatype>audio</mediatype>
							<trackindex>1</trackindex>
							<clipindex>85</clipindex>
							<groupindex>1</groupindex>
						</link>
						<link>
							<linkclipref>clipitem-725</linkclipref>
							<mediatype>audio</mediatype>
							<trackindex>2</trackindex>
							<clipindex>85</clipindex>
							<groupindex>1</groupindex>
						</link>
						<logginginfo>
							<description></description>
							<scene></scene>
							<shottake></shottake>
							<lognote></lognote>
							<good></good>
							<originalvideofilename></originalvideofilename>
							<originalaudiofilename></originalaudiofilename>
						</logginginfo>
						<colorinfo>
							<lut></lut>
							<lut1></lut1>
							<asc_sop></asc_sop>
							<asc_sat></asc_sat>
							<lut2></lut2>
						</colorinfo>
						<labels>
							<label2>Iris</label2>
						</labels>
					</clipitem>
					<clipitem id="clipitem-726" premiereChannelType="stereo">
						<masterclipid>masterclip-67</masterclipid>
						<name>A008_10150358_C135.mov</name>
						<enabled>TRUE</enabled>
						<duration>740</duration>
						<rate>
							<timebase>24</timebase>
							<ntsc>FALSE</ntsc>
						</rate>
						<start>14730</start>
						<end>14824</end>
						<in>67</in>
						<out>161</out>
						<pproTicksIn>709128000000</pproTicksIn>
						<pproTicksOut>1704024000000</pproTicksOut>
						<file id="file-67"/>
						<sourcetrack>
							<mediatype>audio</mediatype>
							<trackindex>2</trackindex>
						</sourcetrack>
						<link>
							<linkclipref>clipitem-136</linkclipref>
							<mediatype>video</mediatype>
							<trackindex>1</trackindex>
							<clipindex>138</clipindex>
						</link>
						<link>
							<linkclipref>clipitem-562</linkclipref>
							<mediatype>audio</mediatype>
							<trackindex>1</trackindex>
							<clipindex>86</clipindex>
							<groupindex>1</groupindex>
						</link>
						<link>
							<linkclipref>clipitem-726</linkclipref>
							<mediatype>audio</mediatype>
							<trackindex>2</trackindex>
							<clipindex>86</clipindex>
							<groupindex>1</groupindex>
						</link>
						<logginginfo>
							<description></description>
							<scene></scene>
							<shottake></shottake>
							<lognote></lognote>
							<good></good>
							<originalvideofilename></originalvideofilename>
							<originalaudiofilename></originalaudiofilename>
						</logginginfo>
						<colorinfo>
							<lut></lut>
							<lut1></lut1>
							<asc_sop></asc_sop>
							<asc_sat></asc_sat>
							<lut2></lut2>
						</colorinfo>
						<labels>
							<label2>Iris</label2>
						</labels>
					</clipitem>
					<clipitem id="clipitem-727" premiereChannelType="stereo">
						<masterclipid>masterclip-66</masterclipid>
						<name>A002_05291230_C294.mp4</name>
						<enabled>TRUE</enabled>
						<duration>780</duration>
						<rate>
							<timebase>24</timebase>
							<ntsc>FALSE</ntsc>
						</rate>
						<start>14824</start>
						<end>14959</end>
						<in>387</in>
						<out>522</out>
						<pproTicksIn>4096008000000</pproTicksIn>
						<pproTicksOut>5524848000000</pproTicksOut>
						<file id="file-66"/>
						<sourcetrack>
							<mediatype>audio</mediatype>
							<trackindex>2</trackindex>
						</sourcetrack>
						<link>
							<linkclipref>clipitem-137</linkclipref>
							<mediatype>video</mediatype>
							<trackindex>1</trackindex>
							<clipindex>139</clipindex>
						</link>
						<link>
							<linkclipref>clipitem-563</linkclipref>
							<mediatype>audio</mediatype>
							<trackindex>1</trackindex>
							<clipindex>87</clipindex>
							<groupindex>1</groupindex>
						</link>
						<link>
							<linkclipref>clipitem-727</linkclipref>
							<mediatype>audio</mediatype>
							<trackindex>2</trackindex>
							<clipindex>87</clipindex>
							<groupindex>1</groupindex>
						</link>
						<logginginfo>
							<description></description>
							<scene></scene>
							<shottake></shottake>
							<lognote></lognote>
							<good></good>
							<originalvideofilename></originalvideofilename>
							<originalaudiofilename></originalaudiofilename>
						</logginginfo>
						<colorinfo>
							<lut></lut>
							<lut1></lut1>
							<asc_sop></asc_sop>
							<asc_sat></asc_sat>
							<lut2></lut2>
						</colorinfo>
						<labels>
							<label2>Iris</label2>
						</labels>
					</clipitem>
					<clipitem id="clipitem-728" premiereChannelType="stereo">
						<masterclipid>masterclip-67</masterclipid>
						<name>A008_10150358_C135.mov</name>
						<enabled>TRUE</enabled>
						<duration>740</duration>
						<rate>
							<timebase>24</timebase>
							<ntsc>FALSE</ntsc>
						</rate>
						<start>15028</start>
						<end>15248</end>
						<in>309</in>
						<out>529</out>
						<pproTicksIn>3270456000000</pproTicksIn>
						<pproTicksOut>5598936000000</pproTicksOut>
						<file id="file-67"/>
						<sourcetrack>
							<mediatype>audio</mediatype>
							<trackindex>2</trackindex>
						</sourcetrack>
						<link>
							<linkclipref>clipitem-140</linkclipref>
							<mediatype>video</mediatype>
							<trackindex>1</trackindex>
							<clipindex>142</clipindex>
						</link>
						<link>
							<linkclipref>clipitem-564</linkclipref>
							<mediatype>audio</mediatype>
							<trackindex>1</trackindex>
							<clipindex>88</clipindex>
							<groupindex>1</groupindex>
						</link>
						<link>
							<linkclipref>clipitem-728</linkclipref>
							<mediatype>audio</mediatype>
							<trackindex>2</trackindex>
							<clipindex>88</clipindex>
							<groupindex>1</groupindex>
						</link>
						<logginginfo>
							<description></description>
							<scene></scene>
							<shottake></shottake>
							<lognote></lognote>
							<good></good>
							<originalvideofilename></originalvideofilename>
							<originalaudiofilename></originalaudiofilename>
						</logginginfo>
						<colorinfo>
							<lut></lut>
							<lut1></lut1>
							<asc_sop></asc_sop>
							<asc_sat></asc_sat>
							<lut2></lut2>
						</colorinfo>
						<labels>
							<label2>Iris</label2>
						</labels>
					</clipitem>
					<clipitem id="clipitem-729" premiereChannelType="stereo">
						<masterclipid>masterclip-230</masterclipid>
						<name>Audio 3_31.wav</name>
						<enabled>TRUE</enabled>
						<duration>182</duration>
						<rate>
							<timebase>24</timebase>
							<ntsc>FALSE</ntsc>
						</rate>
						<start>15265</start>
						<end>15387</end>
						<in>17</in>
						<out>140</out>
						<pproTicksIn>179928000000</pproTicksIn>
						<pproTicksOut>1481760000000</pproTicksOut>
						<file id="file-230"/>
						<sourcetrack>
							<mediatype>audio</mediatype>
							<trackindex>2</trackindex>
						</sourcetrack>
						<filter>
							<effect>
								<name>Audio Levels</name>
								<effectid>audiolevels</effectid>
								<effectcategory>audiolevels</effectcategory>
								<effecttype>audiolevels</effecttype>
								<mediatype>audio</mediatype>
								<pproBypass>false</pproBypass>
								<parameter authoringApp="PremierePro">
									<parameterid>level</parameterid>
									<name>Level</name>
									<valuemin>0</valuemin>
									<valuemax>3.98109</valuemax>
									<value>0.0667907</value>
								</parameter>
							</effect>
						</filter>
						<link>
							<linkclipref>clipitem-565</linkclipref>
							<mediatype>audio</mediatype>
							<trackindex>1</trackindex>
							<clipindex>89</clipindex>
							<groupindex>1</groupindex>
						</link>
						<link>
							<linkclipref>clipitem-729</linkclipref>
							<mediatype>audio</mediatype>
							<trackindex>2</trackindex>
							<clipindex>89</clipindex>
							<groupindex>1</groupindex>
						</link>
						<logginginfo>
							<description></description>
							<scene></scene>
							<shottake></shottake>
							<lognote></lognote>
							<good></good>
							<originalvideofilename></originalvideofilename>
							<originalaudiofilename></originalaudiofilename>
						</logginginfo>
						<colorinfo>
							<lut></lut>
							<lut1></lut1>
							<asc_sop></asc_sop>
							<asc_sat></asc_sat>
							<lut2></lut2>
						</colorinfo>
						<labels>
							<label2>Caribbean</label2>
						</labels>
					</clipitem>
					<clipitem id="clipitem-730" premiereChannelType="stereo">
						<masterclipid>masterclip-231</masterclipid>
						<name>Audio 3_32.wav</name>
						<enabled>TRUE</enabled>
						<duration>129</duration>
						<rate>
							<timebase>24</timebase>
							<ntsc>FALSE</ntsc>
						</rate>
						<start>15550</start>
						<end>15639</end>
						<in>14</in>
						<out>103</out>
						<pproTicksIn>148176000000</pproTicksIn>
						<pproTicksOut>1090152000000</pproTicksOut>
						<file id="file-231"/>
						<sourcetrack>
							<mediatype>audio</mediatype>
							<trackindex>2</trackindex>
						</sourcetrack>
						<filter>
							<effect>
								<name>Audio Levels</name>
								<effectid>audiolevels</effectid>
								<effectcategory>audiolevels</effectcategory>
								<effecttype>audiolevels</effecttype>
								<mediatype>audio</mediatype>
								<pproBypass>false</pproBypass>
								<parameter authoringApp="PremierePro">
									<parameterid>level</parameterid>
									<name>Level</name>
									<valuemin>0</valuemin>
									<valuemax>3.98109</valuemax>
									<value>0.0667907</value>
								</parameter>
							</effect>
						</filter>
						<link>
							<linkclipref>clipitem-566</linkclipref>
							<mediatype>audio</mediatype>
							<trackindex>1</trackindex>
							<clipindex>90</clipindex>
							<groupindex>1</groupindex>
						</link>
						<link>
							<linkclipref>clipitem-730</linkclipref>
							<mediatype>audio</mediatype>
							<trackindex>2</trackindex>
							<clipindex>90</clipindex>
							<groupindex>1</groupindex>
						</link>
						<logginginfo>
							<description></description>
							<scene></scene>
							<shottake></shottake>
							<lognote></lognote>
							<good></good>
							<originalvideofilename></originalvideofilename>
							<originalaudiofilename></originalaudiofilename>
						</logginginfo>
						<colorinfo>
							<lut></lut>
							<lut1></lut1>
							<asc_sop></asc_sop>
							<asc_sat></asc_sat>
							<lut2></lut2>
						</colorinfo>
						<labels>
							<label2>Caribbean</label2>
						</labels>
					</clipitem>
					<clipitem id="clipitem-731" premiereChannelType="stereo">
						<masterclipid>masterclip-232</masterclipid>
						<name>Audio 3_33.wav</name>
						<enabled>TRUE</enabled>
						<duration>79</duration>
						<rate>
							<timebase>24</timebase>
							<ntsc>FALSE</ntsc>
						</rate>
						<start>15639</start>
						<end>15679</end>
						<in>20</in>
						<out>60</out>
						<pproTicksIn>211680000000</pproTicksIn>
						<pproTicksOut>635040000000</pproTicksOut>
						<file id="file-232"/>
						<sourcetrack>
							<mediatype>audio</mediatype>
							<trackindex>2</trackindex>
						</sourcetrack>
						<filter>
							<effect>
								<name>Audio Levels</name>
								<effectid>audiolevels</effectid>
								<effectcategory>audiolevels</effectcategory>
								<effecttype>audiolevels</effecttype>
								<mediatype>audio</mediatype>
								<pproBypass>false</pproBypass>
								<parameter authoringApp="PremierePro">
									<parameterid>level</parameterid>
									<name>Level</name>
									<valuemin>0</valuemin>
									<valuemax>3.98109</valuemax>
									<value>0.0667907</value>
								</parameter>
							</effect>
						</filter>
						<link>
							<linkclipref>clipitem-567</linkclipref>
							<mediatype>audio</mediatype>
							<trackindex>1</trackindex>
							<clipindex>91</clipindex>
							<groupindex>1</groupindex>
						</link>
						<link>
							<linkclipref>clipitem-731</linkclipref>
							<mediatype>audio</mediatype>
							<trackindex>2</trackindex>
							<clipindex>91</clipindex>
							<groupindex>1</groupindex>
						</link>
						<logginginfo>
							<description></description>
							<scene></scene>
							<shottake></shottake>
							<lognote></lognote>
							<good></good>
							<originalvideofilename></originalvideofilename>
							<originalaudiofilename></originalaudiofilename>
						</logginginfo>
						<colorinfo>
							<lut></lut>
							<lut1></lut1>
							<asc_sop></asc_sop>
							<asc_sat></asc_sat>
							<lut2></lut2>
						</colorinfo>
						<labels>
							<label2>Caribbean</label2>
						</labels>
					</clipitem>
					<clipitem id="clipitem-732" premiereChannelType="stereo">
						<masterclipid>masterclip-69</masterclipid>
						<name>A003_05300849_C080.mp4</name>
						<enabled>TRUE</enabled>
						<duration>3599</duration>
						<rate>
							<timebase>24</timebase>
							<ntsc>FALSE</ntsc>
						</rate>
						<start>15679</start>
						<end>15692</end>
						<in>421</in>
						<out>434</out>
						<pproTicksIn>4455864000000</pproTicksIn>
						<pproTicksOut>4593456000000</pproTicksOut>
						<file id="file-69"/>
						<sourcetrack>
							<mediatype>audio</mediatype>
							<trackindex>2</trackindex>
						</sourcetrack>
						<link>
							<linkclipref>clipitem-568</linkclipref>
							<mediatype>audio</mediatype>
							<trackindex>1</trackindex>
							<clipindex>92</clipindex>
							<groupindex>1</groupindex>
						</link>
						<link>
							<linkclipref>clipitem-732</linkclipref>
							<mediatype>audio</mediatype>
							<trackindex>2</trackindex>
							<clipindex>92</clipindex>
							<groupindex>1</groupindex>
						</link>
						<logginginfo>
							<description></description>
							<scene></scene>
							<shottake></shottake>
							<lognote></lognote>
							<good></good>
							<originalvideofilename></originalvideofilename>
							<originalaudiofilename></originalaudiofilename>
						</logginginfo>
						<colorinfo>
							<lut></lut>
							<lut1></lut1>
							<asc_sop></asc_sop>
							<asc_sat></asc_sat>
							<lut2></lut2>
						</colorinfo>
						<labels>
							<label2>Iris</label2>
						</labels>
					</clipitem>
					<clipitem id="clipitem-733" premiereChannelType="stereo">
						<masterclipid>masterclip-69</masterclipid>
						<name>A003_05300849_C080.mp4</name>
						<enabled>TRUE</enabled>
						<duration>3599</duration>
						<rate>
							<timebase>24</timebase>
							<ntsc>FALSE</ntsc>
						</rate>
						<start>15692</start>
						<end>15783</end>
						<in>434</in>
						<out>525</out>
						<pproTicksIn>4593456000000</pproTicksIn>
						<pproTicksOut>5556600000000</pproTicksOut>
						<file id="file-69"/>
						<sourcetrack>
							<mediatype>audio</mediatype>
							<trackindex>2</trackindex>
						</sourcetrack>
						<link>
							<linkclipref>clipitem-143</linkclipref>
							<mediatype>video</mediatype>
							<trackindex>1</trackindex>
							<clipindex>145</clipindex>
						</link>
						<link>
							<linkclipref>clipitem-569</linkclipref>
							<mediatype>audio</mediatype>
							<trackindex>1</trackindex>
							<clipindex>93</clipindex>
							<groupindex>1</groupindex>
						</link>
						<link>
							<linkclipref>clipitem-733</linkclipref>
							<mediatype>audio</mediatype>
							<trackindex>2</trackindex>
							<clipindex>93</clipindex>
							<groupindex>1</groupindex>
						</link>
						<logginginfo>
							<description></description>
							<scene></scene>
							<shottake></shottake>
							<lognote></lognote>
							<good></good>
							<originalvideofilename></originalvideofilename>
							<originalaudiofilename></originalaudiofilename>
						</logginginfo>
						<colorinfo>
							<lut></lut>
							<lut1></lut1>
							<asc_sop></asc_sop>
							<asc_sat></asc_sat>
							<lut2></lut2>
						</colorinfo>
						<labels>
							<label2>Iris</label2>
						</labels>
					</clipitem>
					<clipitem id="clipitem-734" premiereChannelType="stereo">
						<masterclipid>masterclip-69</masterclipid>
						<name>A003_05300849_C080.mp4</name>
						<enabled>TRUE</enabled>
						<duration>3599</duration>
						<rate>
							<timebase>24</timebase>
							<ntsc>FALSE</ntsc>
						</rate>
						<start>16006</start>
						<end>16034</end>
						<in>786</in>
						<out>814</out>
						<pproTicksIn>8319024000000</pproTicksIn>
						<pproTicksOut>8615376000000</pproTicksOut>
						<file id="file-69"/>
						<sourcetrack>
							<mediatype>audio</mediatype>
							<trackindex>2</trackindex>
						</sourcetrack>
						<link>
							<linkclipref>clipitem-570</linkclipref>
							<mediatype>audio</mediatype>
							<trackindex>1</trackindex>
							<clipindex>94</clipindex>
							<groupindex>1</groupindex>
						</link>
						<link>
							<linkclipref>clipitem-734</linkclipref>
							<mediatype>audio</mediatype>
							<trackindex>2</trackindex>
							<clipindex>94</clipindex>
							<groupindex>1</groupindex>
						</link>
						<logginginfo>
							<description></description>
							<scene></scene>
							<shottake></shottake>
							<lognote></lognote>
							<good></good>
							<originalvideofilename></originalvideofilename>
							<originalaudiofilename></originalaudiofilename>
						</logginginfo>
						<colorinfo>
							<lut></lut>
							<lut1></lut1>
							<asc_sop></asc_sop>
							<asc_sat></asc_sat>
							<lut2></lut2>
						</colorinfo>
						<labels>
							<label2>Iris</label2>
						</labels>
					</clipitem>
					<clipitem id="clipitem-735" premiereChannelType="stereo">
						<masterclipid>masterclip-69</masterclipid>
						<name>A003_05300849_C080.mp4</name>
						<enabled>TRUE</enabled>
						<duration>3599</duration>
						<rate>
							<timebase>24</timebase>
							<ntsc>FALSE</ntsc>
						</rate>
						<start>16034</start>
						<end>16067</end>
						<in>814</in>
						<out>847</out>
						<pproTicksIn>8615376000000</pproTicksIn>
						<pproTicksOut>8964648000000</pproTicksOut>
						<file id="file-69"/>
						<sourcetrack>
							<mediatype>audio</mediatype>
							<trackindex>2</trackindex>
						</sourcetrack>
						<link>
							<linkclipref>clipitem-571</linkclipref>
							<mediatype>audio</mediatype>
							<trackindex>1</trackindex>
							<clipindex>95</clipindex>
							<groupindex>1</groupindex>
						</link>
						<link>
							<linkclipref>clipitem-735</linkclipref>
							<mediatype>audio</mediatype>
							<trackindex>2</trackindex>
							<clipindex>95</clipindex>
							<groupindex>1</groupindex>
						</link>
						<logginginfo>
							<description></description>
							<scene></scene>
							<shottake></shottake>
							<lognote></lognote>
							<good></good>
							<originalvideofilename></originalvideofilename>
							<originalaudiofilename></originalaudiofilename>
						</logginginfo>
						<colorinfo>
							<lut></lut>
							<lut1></lut1>
							<asc_sop></asc_sop>
							<asc_sat></asc_sat>
							<lut2></lut2>
						</colorinfo>
						<labels>
							<label2>Iris</label2>
						</labels>
					</clipitem>
					<clipitem id="clipitem-736" premiereChannelType="stereo">
						<masterclipid>masterclip-69</masterclipid>
						<name>A003_05300849_C080.mp4</name>
						<enabled>TRUE</enabled>
						<duration>3599</duration>
						<rate>
							<timebase>24</timebase>
							<ntsc>FALSE</ntsc>
						</rate>
						<start>16067</start>
						<end>16120</end>
						<in>847</in>
						<out>900</out>
						<pproTicksIn>8964648000000</pproTicksIn>
						<pproTicksOut>9525600000000</pproTicksOut>
						<file id="file-69"/>
						<sourcetrack>
							<mediatype>audio</mediatype>
							<trackindex>2</trackindex>
						</sourcetrack>
						<link>
							<linkclipref>clipitem-149</linkclipref>
							<mediatype>video</mediatype>
							<trackindex>1</trackindex>
							<clipindex>151</clipindex>
						</link>
						<link>
							<linkclipref>clipitem-572</linkclipref>
							<mediatype>audio</mediatype>
							<trackindex>1</trackindex>
							<clipindex>96</clipindex>
							<groupindex>1</groupindex>
						</link>
						<link>
							<linkclipref>clipitem-736</linkclipref>
							<mediatype>audio</mediatype>
							<trackindex>2</trackindex>
							<clipindex>96</clipindex>
							<groupindex>1</groupindex>
						</link>
						<logginginfo>
							<description></description>
							<scene></scene>
							<shottake></shottake>
							<lognote></lognote>
							<good></good>
							<originalvideofilename></originalvideofilename>
							<originalaudiofilename></originalaudiofilename>
						</logginginfo>
						<colorinfo>
							<lut></lut>
							<lut1></lut1>
							<asc_sop></asc_sop>
							<asc_sat></asc_sat>
							<lut2></lut2>
						</colorinfo>
						<labels>
							<label2>Iris</label2>
						</labels>
					</clipitem>
					<clipitem id="clipitem-737" premiereChannelType="stereo">
						<masterclipid>masterclip-72</masterclipid>
						<name>A003_05300925_C085.mp4</name>
						<enabled>TRUE</enabled>
						<duration>752</duration>
						<rate>
							<timebase>24</timebase>
							<ntsc>FALSE</ntsc>
						</rate>
						<start>16120</start>
						<end>16225</end>
						<in>505</in>
						<out>610</out>
						<pproTicksIn>5344920000000</pproTicksIn>
						<pproTicksOut>6456240000000</pproTicksOut>
						<file id="file-72"/>
						<sourcetrack>
							<mediatype>audio</mediatype>
							<trackindex>2</trackindex>
						</sourcetrack>
						<link>
							<linkclipref>clipitem-150</linkclipref>
							<mediatype>video</mediatype>
							<trackindex>1</trackindex>
							<clipindex>152</clipindex>
						</link>
						<link>
							<linkclipref>clipitem-573</linkclipref>
							<mediatype>audio</mediatype>
							<trackindex>1</trackindex>
							<clipindex>97</clipindex>
							<groupindex>1</groupindex>
						</link>
						<link>
							<linkclipref>clipitem-737</linkclipref>
							<mediatype>audio</mediatype>
							<trackindex>2</trackindex>
							<clipindex>97</clipindex>
							<groupindex>1</groupindex>
						</link>
						<logginginfo>
							<description></description>
							<scene></scene>
							<shottake></shottake>
							<lognote></lognote>
							<good></good>
							<originalvideofilename></originalvideofilename>
							<originalaudiofilename></originalaudiofilename>
						</logginginfo>
						<colorinfo>
							<lut></lut>
							<lut1></lut1>
							<asc_sop></asc_sop>
							<asc_sat></asc_sat>
							<lut2></lut2>
						</colorinfo>
						<labels>
							<label2>Iris</label2>
						</labels>
					</clipitem>
					<clipitem id="clipitem-738" premiereChannelType="stereo">
						<masterclipid>masterclip-69</masterclipid>
						<name>A003_05300849_C080.mp4</name>
						<enabled>TRUE</enabled>
						<duration>3599</duration>
						<rate>
							<timebase>24</timebase>
							<ntsc>FALSE</ntsc>
						</rate>
						<start>16225</start>
						<end>16259</end>
						<in>980</in>
						<out>1014</out>
						<pproTicksIn>10372320000000</pproTicksIn>
						<pproTicksOut>10732176000000</pproTicksOut>
						<file id="file-69"/>
						<sourcetrack>
							<mediatype>audio</mediatype>
							<trackindex>2</trackindex>
						</sourcetrack>
						<link>
							<linkclipref>clipitem-151</linkclipref>
							<mediatype>video</mediatype>
							<trackindex>1</trackindex>
							<clipindex>153</clipindex>
						</link>
						<link>
							<linkclipref>clipitem-574</linkclipref>
							<mediatype>audio</mediatype>
							<trackindex>1</trackindex>
							<clipindex>98</clipindex>
							<groupindex>1</groupindex>
						</link>
						<link>
							<linkclipref>clipitem-738</linkclipref>
							<mediatype>audio</mediatype>
							<trackindex>2</trackindex>
							<clipindex>98</clipindex>
							<groupindex>1</groupindex>
						</link>
						<logginginfo>
							<description></description>
							<scene></scene>
							<shottake></shottake>
							<lognote></lognote>
							<good></good>
							<originalvideofilename></originalvideofilename>
							<originalaudiofilename></originalaudiofilename>
						</logginginfo>
						<colorinfo>
							<lut></lut>
							<lut1></lut1>
							<asc_sop></asc_sop>
							<asc_sat></asc_sat>
							<lut2></lut2>
						</colorinfo>
						<labels>
							<label2>Iris</label2>
						</labels>
					</clipitem>
					<clipitem id="clipitem-739" premiereChannelType="stereo">
						<masterclipid>masterclip-69</masterclipid>
						<name>A003_05300849_C080.mp4</name>
						<enabled>TRUE</enabled>
						<duration>3599</duration>
						<rate>
							<timebase>24</timebase>
							<ntsc>FALSE</ntsc>
						</rate>
						<start>16357</start>
						<end>16414</end>
						<in>1077</in>
						<out>1134</out>
						<pproTicksIn>11398968000000</pproTicksIn>
						<pproTicksOut>12002256000000</pproTicksOut>
						<file id="file-69"/>
						<sourcetrack>
							<mediatype>audio</mediatype>
							<trackindex>2</trackindex>
						</sourcetrack>
						<link>
							<linkclipref>clipitem-156</linkclipref>
							<mediatype>video</mediatype>
							<trackindex>1</trackindex>
							<clipindex>158</clipindex>
						</link>
						<link>
							<linkclipref>clipitem-575</linkclipref>
							<mediatype>audio</mediatype>
							<trackindex>1</trackindex>
							<clipindex>99</clipindex>
							<groupindex>1</groupindex>
						</link>
						<link>
							<linkclipref>clipitem-739</linkclipref>
							<mediatype>audio</mediatype>
							<trackindex>2</trackindex>
							<clipindex>99</clipindex>
							<groupindex>1</groupindex>
						</link>
						<logginginfo>
							<description></description>
							<scene></scene>
							<shottake></shottake>
							<lognote></lognote>
							<good></good>
							<originalvideofilename></originalvideofilename>
							<originalaudiofilename></originalaudiofilename>
						</logginginfo>
						<colorinfo>
							<lut></lut>
							<lut1></lut1>
							<asc_sop></asc_sop>
							<asc_sat></asc_sat>
							<lut2></lut2>
						</colorinfo>
						<labels>
							<label2>Iris</label2>
						</labels>
					</clipitem>
					<clipitem id="clipitem-740" premiereChannelType="stereo">
						<masterclipid>masterclip-69</masterclipid>
						<name>A003_05300849_C080.mp4</name>
						<enabled>TRUE</enabled>
						<duration>3599</duration>
						<rate>
							<timebase>24</timebase>
							<ntsc>FALSE</ntsc>
						</rate>
						<start>16414</start>
						<end>16449</end>
						<in>1134</in>
						<out>1169</out>
						<pproTicksIn>12002256000000</pproTicksIn>
						<pproTicksOut>12372696000000</pproTicksOut>
						<file id="file-69"/>
						<sourcetrack>
							<mediatype>audio</mediatype>
							<trackindex>2</trackindex>
						</sourcetrack>
						<link>
							<linkclipref>clipitem-576</linkclipref>
							<mediatype>audio</mediatype>
							<trackindex>1</trackindex>
							<clipindex>100</clipindex>
							<groupindex>1</groupindex>
						</link>
						<link>
							<linkclipref>clipitem-740</linkclipref>
							<mediatype>audio</mediatype>
							<trackindex>2</trackindex>
							<clipindex>100</clipindex>
							<groupindex>1</groupindex>
						</link>
						<logginginfo>
							<description></description>
							<scene></scene>
							<shottake></shottake>
							<lognote></lognote>
							<good></good>
							<originalvideofilename></originalvideofilename>
							<originalaudiofilename></originalaudiofilename>
						</logginginfo>
						<colorinfo>
							<lut></lut>
							<lut1></lut1>
							<asc_sop></asc_sop>
							<asc_sat></asc_sat>
							<lut2></lut2>
						</colorinfo>
						<labels>
							<label2>Iris</label2>
						</labels>
					</clipitem>
					<clipitem id="clipitem-741" premiereChannelType="stereo">
						<masterclipid>masterclip-69</masterclipid>
						<name>A003_05300849_C080.mp4</name>
						<enabled>TRUE</enabled>
						<duration>3599</duration>
						<rate>
							<timebase>24</timebase>
							<ntsc>FALSE</ntsc>
						</rate>
						<start>16449</start>
						<end>16481</end>
						<in>1169</in>
						<out>1201</out>
						<pproTicksIn>12372696000000</pproTicksIn>
						<pproTicksOut>12711384000000</pproTicksOut>
						<file id="file-69"/>
						<sourcetrack>
							<mediatype>audio</mediatype>
							<trackindex>2</trackindex>
						</sourcetrack>
						<link>
							<linkclipref>clipitem-577</linkclipref>
							<mediatype>audio</mediatype>
							<trackindex>1</trackindex>
							<clipindex>101</clipindex>
							<groupindex>1</groupindex>
						</link>
						<link>
							<linkclipref>clipitem-741</linkclipref>
							<mediatype>audio</mediatype>
							<trackindex>2</trackindex>
							<clipindex>101</clipindex>
							<groupindex>1</groupindex>
						</link>
						<logginginfo>
							<description></description>
							<scene></scene>
							<shottake></shottake>
							<lognote></lognote>
							<good></good>
							<originalvideofilename></originalvideofilename>
							<originalaudiofilename></originalaudiofilename>
						</logginginfo>
						<colorinfo>
							<lut></lut>
							<lut1></lut1>
							<asc_sop></asc_sop>
							<asc_sat></asc_sat>
							<lut2></lut2>
						</colorinfo>
						<labels>
							<label2>Iris</label2>
						</labels>
					</clipitem>
					<clipitem id="clipitem-742" premiereChannelType="stereo">
						<masterclipid>masterclip-76</masterclipid>
						<name>A003_05301000_C105.mp4</name>
						<enabled>TRUE</enabled>
						<duration>1746</duration>
						<rate>
							<timebase>24</timebase>
							<ntsc>FALSE</ntsc>
						</rate>
						<start>16536</start>
						<end>16621</end>
						<in>379</in>
						<out>464</out>
						<pproTicksIn>4011336000000</pproTicksIn>
						<pproTicksOut>4910976000000</pproTicksOut>
						<file id="file-76"/>
						<sourcetrack>
							<mediatype>audio</mediatype>
							<trackindex>2</trackindex>
						</sourcetrack>
						<link>
							<linkclipref>clipitem-161</linkclipref>
							<mediatype>video</mediatype>
							<trackindex>1</trackindex>
							<clipindex>163</clipindex>
						</link>
						<link>
							<linkclipref>clipitem-578</linkclipref>
							<mediatype>audio</mediatype>
							<trackindex>1</trackindex>
							<clipindex>102</clipindex>
							<groupindex>1</groupindex>
						</link>
						<link>
							<linkclipref>clipitem-742</linkclipref>
							<mediatype>audio</mediatype>
							<trackindex>2</trackindex>
							<clipindex>102</clipindex>
							<groupindex>1</groupindex>
						</link>
						<logginginfo>
							<description></description>
							<scene></scene>
							<shottake></shottake>
							<lognote></lognote>
							<good></good>
							<originalvideofilename></originalvideofilename>
							<originalaudiofilename></originalaudiofilename>
						</logginginfo>
						<colorinfo>
							<lut></lut>
							<lut1></lut1>
							<asc_sop></asc_sop>
							<asc_sat></asc_sat>
							<lut2></lut2>
						</colorinfo>
						<labels>
							<label2>Iris</label2>
						</labels>
					</clipitem>
					<clipitem id="clipitem-743" premiereChannelType="stereo">
						<masterclipid>masterclip-69</masterclipid>
						<name>A003_05300849_C080.mp4</name>
						<enabled>TRUE</enabled>
						<duration>3599</duration>
						<rate>
							<timebase>24</timebase>
							<ntsc>FALSE</ntsc>
						</rate>
						<start>16676</start>
						<end>16747</end>
						<in>1322</in>
						<out>1393</out>
						<pproTicksIn>13992048000000</pproTicksIn>
						<pproTicksOut>14743512000000</pproTicksOut>
						<file id="file-69"/>
						<sourcetrack>
							<mediatype>audio</mediatype>
							<trackindex>2</trackindex>
						</sourcetrack>
						<link>
							<linkclipref>clipitem-163</linkclipref>
							<mediatype>video</mediatype>
							<trackindex>1</trackindex>
							<clipindex>165</clipindex>
						</link>
						<link>
							<linkclipref>clipitem-579</linkclipref>
							<mediatype>audio</mediatype>
							<trackindex>1</trackindex>
							<clipindex>103</clipindex>
							<groupindex>1</groupindex>
						</link>
						<link>
							<linkclipref>clipitem-743</linkclipref>
							<mediatype>audio</mediatype>
							<trackindex>2</trackindex>
							<clipindex>103</clipindex>
							<groupindex>1</groupindex>
						</link>
						<logginginfo>
							<description></description>
							<scene></scene>
							<shottake></shottake>
							<lognote></lognote>
							<good></good>
							<originalvideofilename></originalvideofilename>
							<originalaudiofilename></originalaudiofilename>
						</logginginfo>
						<colorinfo>
							<lut></lut>
							<lut1></lut1>
							<asc_sop></asc_sop>
							<asc_sat></asc_sat>
							<lut2></lut2>
						</colorinfo>
						<labels>
							<label2>Iris</label2>
						</labels>
					</clipitem>
					<clipitem id="clipitem-744" premiereChannelType="stereo">
						<masterclipid>masterclip-76</masterclipid>
						<name>A003_05301000_C105.mp4</name>
						<enabled>TRUE</enabled>
						<duration>1746</duration>
						<rate>
							<timebase>24</timebase>
							<ntsc>FALSE</ntsc>
						</rate>
						<start>16776</start>
						<end>16865</end>
						<in>558</in>
						<out>647</out>
						<pproTicksIn>5905872000000</pproTicksIn>
						<pproTicksOut>6847848000000</pproTicksOut>
						<file id="file-76"/>
						<sourcetrack>
							<mediatype>audio</mediatype>
							<trackindex>2</trackindex>
						</sourcetrack>
						<link>
							<linkclipref>clipitem-165</linkclipref>
							<mediatype>video</mediatype>
							<trackindex>1</trackindex>
							<clipindex>167</clipindex>
						</link>
						<link>
							<linkclipref>clipitem-580</linkclipref>
							<mediatype>audio</mediatype>
							<trackindex>1</trackindex>
							<clipindex>104</clipindex>
							<groupindex>1</groupindex>
						</link>
						<link>
							<linkclipref>clipitem-744</linkclipref>
							<mediatype>audio</mediatype>
							<trackindex>2</trackindex>
							<clipindex>104</clipindex>
							<groupindex>1</groupindex>
						</link>
						<logginginfo>
							<description></description>
							<scene></scene>
							<shottake></shottake>
							<lognote></lognote>
							<good></good>
							<originalvideofilename></originalvideofilename>
							<originalaudiofilename></originalaudiofilename>
						</logginginfo>
						<colorinfo>
							<lut></lut>
							<lut1></lut1>
							<asc_sop></asc_sop>
							<asc_sat></asc_sat>
							<lut2></lut2>
						</colorinfo>
						<labels>
							<label2>Iris</label2>
						</labels>
					</clipitem>
					<clipitem id="clipitem-745" premiereChannelType="stereo">
						<masterclipid>masterclip-76</masterclipid>
						<name>A003_05301000_C105.mp4</name>
						<enabled>TRUE</enabled>
						<duration>1746</duration>
						<rate>
							<timebase>24</timebase>
							<ntsc>FALSE</ntsc>
						</rate>
						<start>16865</start>
						<end>16918</end>
						<in>647</in>
						<out>700</out>
						<pproTicksIn>6847848000000</pproTicksIn>
						<pproTicksOut>7408800000000</pproTicksOut>
						<file id="file-76"/>
						<sourcetrack>
							<mediatype>audio</mediatype>
							<trackindex>2</trackindex>
						</sourcetrack>
						<link>
							<linkclipref>clipitem-166</linkclipref>
							<mediatype>video</mediatype>
							<trackindex>1</trackindex>
							<clipindex>168</clipindex>
						</link>
						<link>
							<linkclipref>clipitem-581</linkclipref>
							<mediatype>audio</mediatype>
							<trackindex>1</trackindex>
							<clipindex>105</clipindex>
							<groupindex>1</groupindex>
						</link>
						<link>
							<linkclipref>clipitem-745</linkclipref>
							<mediatype>audio</mediatype>
							<trackindex>2</trackindex>
							<clipindex>105</clipindex>
							<groupindex>1</groupindex>
						</link>
						<logginginfo>
							<description></description>
							<scene></scene>
							<shottake></shottake>
							<lognote></lognote>
							<good></good>
							<originalvideofilename></originalvideofilename>
							<originalaudiofilename></originalaudiofilename>
						</logginginfo>
						<colorinfo>
							<lut></lut>
							<lut1></lut1>
							<asc_sop></asc_sop>
							<asc_sat></asc_sat>
							<lut2></lut2>
						</colorinfo>
						<labels>
							<label2>Iris</label2>
						</labels>
					</clipitem>
					<clipitem id="clipitem-746" premiereChannelType="stereo">
						<masterclipid>masterclip-76</masterclipid>
						<name>A003_05301000_C105.mp4</name>
						<enabled>TRUE</enabled>
						<duration>1746</duration>
						<rate>
							<timebase>24</timebase>
							<ntsc>FALSE</ntsc>
						</rate>
						<start>16918</start>
						<end>16929</end>
						<in>700</in>
						<out>711</out>
						<pproTicksIn>7408800000000</pproTicksIn>
						<pproTicksOut>7525224000000</pproTicksOut>
						<file id="file-76"/>
						<sourcetrack>
							<mediatype>audio</mediatype>
							<trackindex>2</trackindex>
						</sourcetrack>
						<link>
							<linkclipref>clipitem-167</linkclipref>
							<mediatype>video</mediatype>
							<trackindex>1</trackindex>
							<clipindex>169</clipindex>
						</link>
						<link>
							<linkclipref>clipitem-582</linkclipref>
							<mediatype>audio</mediatype>
							<trackindex>1</trackindex>
							<clipindex>106</clipindex>
							<groupindex>1</groupindex>
						</link>
						<link>
							<linkclipref>clipitem-746</linkclipref>
							<mediatype>audio</mediatype>
							<trackindex>2</trackindex>
							<clipindex>106</clipindex>
							<groupindex>1</groupindex>
						</link>
						<logginginfo>
							<description></description>
							<scene></scene>
							<shottake></shottake>
							<lognote></lognote>
							<good></good>
							<originalvideofilename></originalvideofilename>
							<originalaudiofilename></originalaudiofilename>
						</logginginfo>
						<colorinfo>
							<lut></lut>
							<lut1></lut1>
							<asc_sop></asc_sop>
							<asc_sat></asc_sat>
							<lut2></lut2>
						</colorinfo>
						<labels>
							<label2>Iris</label2>
						</labels>
					</clipitem>
					<clipitem id="clipitem-747" premiereChannelType="stereo">
						<masterclipid>masterclip-80</masterclipid>
						<name>A008_10160005_C166.mov</name>
						<enabled>TRUE</enabled>
						<duration>8440</duration>
						<rate>
							<timebase>24</timebase>
							<ntsc>FALSE</ntsc>
						</rate>
						<start>17112</start>
						<end>17187</end>
						<in>6507</in>
						<out>6582</out>
						<pproTicksIn>68870088000000</pproTicksIn>
						<pproTicksOut>69663888000000</pproTicksOut>
						<file id="file-80"/>
						<sourcetrack>
							<mediatype>audio</mediatype>
							<trackindex>2</trackindex>
						</sourcetrack>
						<link>
							<linkclipref>clipitem-583</linkclipref>
							<mediatype>audio</mediatype>
							<trackindex>1</trackindex>
							<clipindex>107</clipindex>
							<groupindex>1</groupindex>
						</link>
						<link>
							<linkclipref>clipitem-747</linkclipref>
							<mediatype>audio</mediatype>
							<trackindex>2</trackindex>
							<clipindex>107</clipindex>
							<groupindex>1</groupindex>
						</link>
						<logginginfo>
							<description></description>
							<scene></scene>
							<shottake></shottake>
							<lognote></lognote>
							<good></good>
							<originalvideofilename></originalvideofilename>
							<originalaudiofilename></originalaudiofilename>
						</logginginfo>
						<colorinfo>
							<lut></lut>
							<lut1></lut1>
							<asc_sop></asc_sop>
							<asc_sat></asc_sat>
							<lut2></lut2>
						</colorinfo>
						<labels>
							<label2>Iris</label2>
						</labels>
					</clipitem>
					<clipitem id="clipitem-748" premiereChannelType="stereo">
						<masterclipid>masterclip-88</masterclipid>
						<name>A002_05291105_C271.mp4</name>
						<enabled>TRUE</enabled>
						<duration>833</duration>
						<rate>
							<timebase>24</timebase>
							<ntsc>FALSE</ntsc>
						</rate>
						<start>17734</start>
						<end>17814</end>
						<in>175</in>
						<out>255</out>
						<pproTicksIn>1852200000000</pproTicksIn>
						<pproTicksOut>2698920000000</pproTicksOut>
						<file id="file-88"/>
						<sourcetrack>
							<mediatype>audio</mediatype>
							<trackindex>2</trackindex>
						</sourcetrack>
						<link>
							<linkclipref>clipitem-187</linkclipref>
							<mediatype>video</mediatype>
							<trackindex>1</trackindex>
							<clipindex>195</clipindex>
						</link>
						<link>
							<linkclipref>clipitem-584</linkclipref>
							<mediatype>audio</mediatype>
							<trackindex>1</trackindex>
							<clipindex>108</clipindex>
							<groupindex>1</groupindex>
						</link>
						<link>
							<linkclipref>clipitem-748</linkclipref>
							<mediatype>audio</mediatype>
							<trackindex>2</trackindex>
							<clipindex>108</clipindex>
							<groupindex>1</groupindex>
						</link>
						<logginginfo>
							<description></description>
							<scene></scene>
							<shottake></shottake>
							<lognote></lognote>
							<good></good>
							<originalvideofilename></originalvideofilename>
							<originalaudiofilename></originalaudiofilename>
						</logginginfo>
						<colorinfo>
							<lut></lut>
							<lut1></lut1>
							<asc_sop></asc_sop>
							<asc_sat></asc_sat>
							<lut2></lut2>
						</colorinfo>
						<labels>
							<label2>Iris</label2>
						</labels>
					</clipitem>
					<clipitem id="clipitem-749" premiereChannelType="stereo">
						<masterclipid>masterclip-28</masterclipid>
						<name>A006_06192201_C212.mp4</name>
						<enabled>TRUE</enabled>
						<duration>1523</duration>
						<rate>
							<timebase>24</timebase>
							<ntsc>FALSE</ntsc>
						</rate>
						<start>17814</start>
						<end>17861</end>
						<in>1007</in>
						<out>1054</out>
						<pproTicksIn>10658088000000</pproTicksIn>
						<pproTicksOut>11155536000000</pproTicksOut>
						<file id="file-28"/>
						<sourcetrack>
							<mediatype>audio</mediatype>
							<trackindex>2</trackindex>
						</sourcetrack>
						<link>
							<linkclipref>clipitem-188</linkclipref>
							<mediatype>video</mediatype>
							<trackindex>1</trackindex>
							<clipindex>197</clipindex>
						</link>
						<link>
							<linkclipref>clipitem-585</linkclipref>
							<mediatype>audio</mediatype>
							<trackindex>1</trackindex>
							<clipindex>109</clipindex>
							<groupindex>1</groupindex>
						</link>
						<link>
							<linkclipref>clipitem-749</linkclipref>
							<mediatype>audio</mediatype>
							<trackindex>2</trackindex>
							<clipindex>109</clipindex>
							<groupindex>1</groupindex>
						</link>
						<logginginfo>
							<description></description>
							<scene></scene>
							<shottake></shottake>
							<lognote></lognote>
							<good></good>
							<originalvideofilename></originalvideofilename>
							<originalaudiofilename></originalaudiofilename>
						</logginginfo>
						<colorinfo>
							<lut></lut>
							<lut1></lut1>
							<asc_sop></asc_sop>
							<asc_sat></asc_sat>
							<lut2></lut2>
						</colorinfo>
						<labels>
							<label2>Iris</label2>
						</labels>
					</clipitem>
					<clipitem id="clipitem-750" premiereChannelType="stereo">
						<masterclipid>masterclip-233</masterclipid>
						<name>Audio 3_57.wav</name>
						<enabled>TRUE</enabled>
						<duration>297</duration>
						<rate>
							<timebase>24</timebase>
							<ntsc>FALSE</ntsc>
						</rate>
						<start>18280</start>
						<end>18497</end>
						<in>45</in>
						<out>262</out>
						<pproTicksIn>476280000000</pproTicksIn>
						<pproTicksOut>2773008000000</pproTicksOut>
						<file id="file-233"/>
						<sourcetrack>
							<mediatype>audio</mediatype>
							<trackindex>2</trackindex>
						</sourcetrack>
						<link>
							<linkclipref>clipitem-586</linkclipref>
							<mediatype>audio</mediatype>
							<trackindex>1</trackindex>
							<clipindex>110</clipindex>
							<groupindex>1</groupindex>
						</link>
						<link>
							<linkclipref>clipitem-750</linkclipref>
							<mediatype>audio</mediatype>
							<trackindex>2</trackindex>
							<clipindex>110</clipindex>
							<groupindex>1</groupindex>
						</link>
						<logginginfo>
							<description></description>
							<scene></scene>
							<shottake></shottake>
							<lognote></lognote>
							<good></good>
							<originalvideofilename></originalvideofilename>
							<originalaudiofilename></originalaudiofilename>
						</logginginfo>
						<colorinfo>
							<lut></lut>
							<lut1></lut1>
							<asc_sop></asc_sop>
							<asc_sat></asc_sat>
							<lut2></lut2>
						</colorinfo>
						<labels>
							<label2>Caribbean</label2>
						</labels>
					</clipitem>
					<clipitem id="clipitem-751" premiereChannelType="stereo">
						<masterclipid>masterclip-91</masterclipid>
						<name>A003_05301013_C111.mp4</name>
						<enabled>TRUE</enabled>
						<duration>1075</duration>
						<rate>
							<timebase>24</timebase>
							<ntsc>FALSE</ntsc>
						</rate>
						<start>18883</start>
						<end>18954</end>
						<in>250</in>
						<out>321</out>
						<pproTicksIn>2646000000000</pproTicksIn>
						<pproTicksOut>3397464000000</pproTicksOut>
						<file id="file-91"/>
						<sourcetrack>
							<mediatype>audio</mediatype>
							<trackindex>2</trackindex>
						</sourcetrack>
						<filter>
							<effect>
								<name>Audio Levels</name>
								<effectid>audiolevels</effectid>
								<effectcategory>audiolevels</effectcategory>
								<effecttype>audiolevels</effecttype>
								<mediatype>audio</mediatype>
								<pproBypass>false</pproBypass>
								<parameter authoringApp="PremierePro">
									<parameterid>level</parameterid>
									<name>Level</name>
									<valuemin>0</valuemin>
									<valuemax>3.98109</valuemax>
									<value>0.074327</value>
								</parameter>
							</effect>
						</filter>
						<link>
							<linkclipref>clipitem-197</linkclipref>
							<mediatype>video</mediatype>
							<trackindex>1</trackindex>
							<clipindex>209</clipindex>
						</link>
						<link>
							<linkclipref>clipitem-587</linkclipref>
							<mediatype>audio</mediatype>
							<trackindex>1</trackindex>
							<clipindex>111</clipindex>
							<groupindex>1</groupindex>
						</link>
						<link>
							<linkclipref>clipitem-751</linkclipref>
							<mediatype>audio</mediatype>
							<trackindex>2</trackindex>
							<clipindex>111</clipindex>
							<groupindex>1</groupindex>
						</link>
						<logginginfo>
							<description></description>
							<scene></scene>
							<shottake></shottake>
							<lognote></lognote>
							<good></good>
							<originalvideofilename></originalvideofilename>
							<originalaudiofilename></originalaudiofilename>
						</logginginfo>
						<colorinfo>
							<lut></lut>
							<lut1></lut1>
							<asc_sop></asc_sop>
							<asc_sat></asc_sat>
							<lut2></lut2>
						</colorinfo>
						<labels>
							<label2>Iris</label2>
						</labels>
					</clipitem>
					<clipitem id="clipitem-752" premiereChannelType="stereo">
						<masterclipid>masterclip-69</masterclipid>
						<name>A003_05300849_C080.mp4</name>
						<enabled>TRUE</enabled>
						<duration>3599</duration>
						<rate>
							<timebase>24</timebase>
							<ntsc>FALSE</ntsc>
						</rate>
						<start>18966</start>
						<end>19190</end>
						<in>2160</in>
						<out>2384</out>
						<pproTicksIn>22861440000000</pproTicksIn>
						<pproTicksOut>25232256000000</pproTicksOut>
						<file id="file-69"/>
						<sourcetrack>
							<mediatype>audio</mediatype>
							<trackindex>2</trackindex>
						</sourcetrack>
						<link>
							<linkclipref>clipitem-198</linkclipref>
							<mediatype>video</mediatype>
							<trackindex>1</trackindex>
							<clipindex>210</clipindex>
						</link>
						<link>
							<linkclipref>clipitem-588</linkclipref>
							<mediatype>audio</mediatype>
							<trackindex>1</trackindex>
							<clipindex>112</clipindex>
							<groupindex>1</groupindex>
						</link>
						<link>
							<linkclipref>clipitem-752</linkclipref>
							<mediatype>audio</mediatype>
							<trackindex>2</trackindex>
							<clipindex>112</clipindex>
							<groupindex>1</groupindex>
						</link>
						<logginginfo>
							<description></description>
							<scene></scene>
							<shottake></shottake>
							<lognote></lognote>
							<good></good>
							<originalvideofilename></originalvideofilename>
							<originalaudiofilename></originalaudiofilename>
						</logginginfo>
						<colorinfo>
							<lut></lut>
							<lut1></lut1>
							<asc_sop></asc_sop>
							<asc_sat></asc_sat>
							<lut2></lut2>
						</colorinfo>
						<labels>
							<label2>Iris</label2>
						</labels>
					</clipitem>
					<clipitem id="clipitem-753" premiereChannelType="stereo">
						<masterclipid>masterclip-93</masterclipid>
						<name>A003_05301049_C127.mp4</name>
						<enabled>TRUE</enabled>
						<duration>422</duration>
						<rate>
							<timebase>24</timebase>
							<ntsc>FALSE</ntsc>
						</rate>
						<start>19190</start>
						<end>19354</end>
						<in>76</in>
						<out>240</out>
						<pproTicksIn>804384000000</pproTicksIn>
						<pproTicksOut>2540160000000</pproTicksOut>
						<file id="file-93"/>
						<sourcetrack>
							<mediatype>audio</mediatype>
							<trackindex>2</trackindex>
						</sourcetrack>
						<link>
							<linkclipref>clipitem-199</linkclipref>
							<mediatype>video</mediatype>
							<trackindex>1</trackindex>
							<clipindex>211</clipindex>
						</link>
						<link>
							<linkclipref>clipitem-589</linkclipref>
							<mediatype>audio</mediatype>
							<trackindex>1</trackindex>
							<clipindex>113</clipindex>
							<groupindex>1</groupindex>
						</link>
						<link>
							<linkclipref>clipitem-753</linkclipref>
							<mediatype>audio</mediatype>
							<trackindex>2</trackindex>
							<clipindex>113</clipindex>
							<groupindex>1</groupindex>
						</link>
						<logginginfo>
							<description></description>
							<scene></scene>
							<shottake></shottake>
							<lognote></lognote>
							<good></good>
							<originalvideofilename></originalvideofilename>
							<originalaudiofilename></originalaudiofilename>
						</logginginfo>
						<colorinfo>
							<lut></lut>
							<lut1></lut1>
							<asc_sop></asc_sop>
							<asc_sat></asc_sat>
							<lut2></lut2>
						</colorinfo>
						<labels>
							<label2>Iris</label2>
						</labels>
					</clipitem>
					<clipitem id="clipitem-754" premiereChannelType="stereo">
						<masterclipid>masterclip-79</masterclipid>
						<name>A003_05301044_C122.mp4</name>
						<enabled>TRUE</enabled>
						<duration>5376</duration>
						<rate>
							<timebase>24</timebase>
							<ntsc>FALSE</ntsc>
						</rate>
						<start>19403</start>
						<end>19432</end>
						<in>2367</in>
						<out>2396</out>
						<pproTicksIn>25052328000000</pproTicksIn>
						<pproTicksOut>25359264000000</pproTicksOut>
						<file id="file-79"/>
						<sourcetrack>
							<mediatype>audio</mediatype>
							<trackindex>2</trackindex>
						</sourcetrack>
						<link>
							<linkclipref>clipitem-590</linkclipref>
							<mediatype>audio</mediatype>
							<trackindex>1</trackindex>
							<clipindex>114</clipindex>
							<groupindex>1</groupindex>
						</link>
						<link>
							<linkclipref>clipitem-754</linkclipref>
							<mediatype>audio</mediatype>
							<trackindex>2</trackindex>
							<clipindex>114</clipindex>
							<groupindex>1</groupindex>
						</link>
						<logginginfo>
							<description></description>
							<scene></scene>
							<shottake></shottake>
							<lognote></lognote>
							<good></good>
							<originalvideofilename></originalvideofilename>
							<originalaudiofilename></originalaudiofilename>
						</logginginfo>
						<colorinfo>
							<lut></lut>
							<lut1></lut1>
							<asc_sop></asc_sop>
							<asc_sat></asc_sat>
							<lut2></lut2>
						</colorinfo>
						<labels>
							<label2>Iris</label2>
						</labels>
					</clipitem>
					<clipitem id="clipitem-755" premiereChannelType="stereo">
						<masterclipid>masterclip-79</masterclipid>
						<name>A003_05301044_C122.mp4</name>
						<enabled>TRUE</enabled>
						<duration>5376</duration>
						<rate>
							<timebase>24</timebase>
							<ntsc>FALSE</ntsc>
						</rate>
						<start>19432</start>
						<end>19462</end>
						<in>2396</in>
						<out>2426</out>
						<pproTicksIn>25359264000000</pproTicksIn>
						<pproTicksOut>25676784000000</pproTicksOut>
						<file id="file-79"/>
						<sourcetrack>
							<mediatype>audio</mediatype>
							<trackindex>2</trackindex>
						</sourcetrack>
						<link>
							<linkclipref>clipitem-591</linkclipref>
							<mediatype>audio</mediatype>
							<trackindex>1</trackindex>
							<clipindex>115</clipindex>
							<groupindex>1</groupindex>
						</link>
						<link>
							<linkclipref>clipitem-755</linkclipref>
							<mediatype>audio</mediatype>
							<trackindex>2</trackindex>
							<clipindex>115</clipindex>
							<groupindex>1</groupindex>
						</link>
						<logginginfo>
							<description></description>
							<scene></scene>
							<shottake></shottake>
							<lognote></lognote>
							<good></good>
							<originalvideofilename></originalvideofilename>
							<originalaudiofilename></originalaudiofilename>
						</logginginfo>
						<colorinfo>
							<lut></lut>
							<lut1></lut1>
							<asc_sop></asc_sop>
							<asc_sat></asc_sat>
							<lut2></lut2>
						</colorinfo>
						<labels>
							<label2>Iris</label2>
						</labels>
					</clipitem>
					<clipitem id="clipitem-756" premiereChannelType="stereo">
						<masterclipid>masterclip-79</masterclipid>
						<name>A003_05301044_C122.mp4</name>
						<enabled>TRUE</enabled>
						<duration>5376</duration>
						<rate>
							<timebase>24</timebase>
							<ntsc>FALSE</ntsc>
						</rate>
						<start>19462</start>
						<end>19471</end>
						<in>2426</in>
						<out>2435</out>
						<pproTicksIn>25676784000000</pproTicksIn>
						<pproTicksOut>25772040000000</pproTicksOut>
						<file id="file-79"/>
						<sourcetrack>
							<mediatype>audio</mediatype>
							<trackindex>2</trackindex>
						</sourcetrack>
						<link>
							<linkclipref>clipitem-592</linkclipref>
							<mediatype>audio</mediatype>
							<trackindex>1</trackindex>
							<clipindex>116</clipindex>
							<groupindex>1</groupindex>
						</link>
						<link>
							<linkclipref>clipitem-756</linkclipref>
							<mediatype>audio</mediatype>
							<trackindex>2</trackindex>
							<clipindex>116</clipindex>
							<groupindex>1</groupindex>
						</link>
						<logginginfo>
							<description></description>
							<scene></scene>
							<shottake></shottake>
							<lognote></lognote>
							<good></good>
							<originalvideofilename></originalvideofilename>
							<originalaudiofilename></originalaudiofilename>
						</logginginfo>
						<colorinfo>
							<lut></lut>
							<lut1></lut1>
							<asc_sop></asc_sop>
							<asc_sat></asc_sat>
							<lut2></lut2>
						</colorinfo>
						<labels>
							<label2>Iris</label2>
						</labels>
					</clipitem>
					<clipitem id="clipitem-757" premiereChannelType="stereo">
						<masterclipid>masterclip-94</masterclipid>
						<name>A003_05301026_C116.mp4</name>
						<enabled>TRUE</enabled>
						<duration>1975</duration>
						<rate>
							<timebase>24</timebase>
							<ntsc>FALSE</ntsc>
						</rate>
						<start>19502</start>
						<end>19651</end>
						<in>1106</in>
						<out>1255</out>
						<pproTicksIn>11705904000000</pproTicksIn>
						<pproTicksOut>13282920000000</pproTicksOut>
						<file id="file-94"/>
						<sourcetrack>
							<mediatype>audio</mediatype>
							<trackindex>2</trackindex>
						</sourcetrack>
						<link>
							<linkclipref>clipitem-593</linkclipref>
							<mediatype>audio</mediatype>
							<trackindex>1</trackindex>
							<clipindex>117</clipindex>
							<groupindex>1</groupindex>
						</link>
						<link>
							<linkclipref>clipitem-757</linkclipref>
							<mediatype>audio</mediatype>
							<trackindex>2</trackindex>
							<clipindex>117</clipindex>
							<groupindex>1</groupindex>
						</link>
						<logginginfo>
							<description></description>
							<scene></scene>
							<shottake></shottake>
							<lognote></lognote>
							<good></good>
							<originalvideofilename></originalvideofilename>
							<originalaudiofilename></originalaudiofilename>
						</logginginfo>
						<colorinfo>
							<lut></lut>
							<lut1></lut1>
							<asc_sop></asc_sop>
							<asc_sat></asc_sat>
							<lut2></lut2>
						</colorinfo>
						<labels>
							<label2>Iris</label2>
						</labels>
					</clipitem>
					<clipitem id="clipitem-758" premiereChannelType="stereo">
						<masterclipid>masterclip-69</masterclipid>
						<name>A003_05300849_C080.mp4</name>
						<enabled>TRUE</enabled>
						<duration>3599</duration>
						<rate>
							<timebase>24</timebase>
							<ntsc>FALSE</ntsc>
						</rate>
						<start>19682</start>
						<end>19786</end>
						<in>2965</in>
						<out>3069</out>
						<pproTicksIn>31381560000000</pproTicksIn>
						<pproTicksOut>32482296000000</pproTicksOut>
						<file id="file-69"/>
						<sourcetrack>
							<mediatype>audio</mediatype>
							<trackindex>2</trackindex>
						</sourcetrack>
						<link>
							<linkclipref>clipitem-594</linkclipref>
							<mediatype>audio</mediatype>
							<trackindex>1</trackindex>
							<clipindex>118</clipindex>
							<groupindex>1</groupindex>
						</link>
						<link>
							<linkclipref>clipitem-758</linkclipref>
							<mediatype>audio</mediatype>
							<trackindex>2</trackindex>
							<clipindex>118</clipindex>
							<groupindex>1</groupindex>
						</link>
						<logginginfo>
							<description></description>
							<scene></scene>
							<shottake></shottake>
							<lognote></lognote>
							<good></good>
							<originalvideofilename></originalvideofilename>
							<originalaudiofilename></originalaudiofilename>
						</logginginfo>
						<colorinfo>
							<lut></lut>
							<lut1></lut1>
							<asc_sop></asc_sop>
							<asc_sat></asc_sat>
							<lut2></lut2>
						</colorinfo>
						<labels>
							<label2>Iris</label2>
						</labels>
					</clipitem>
					<clipitem id="clipitem-759" premiereChannelType="stereo">
						<masterclipid>masterclip-69</masterclipid>
						<name>A003_05300849_C080.mp4</name>
						<enabled>TRUE</enabled>
						<duration>3599</duration>
						<rate>
							<timebase>24</timebase>
							<ntsc>FALSE</ntsc>
						</rate>
						<start>19786</start>
						<end>20040</end>
						<in>3100</in>
						<out>3354</out>
						<pproTicksIn>32810400000000</pproTicksIn>
						<pproTicksOut>35498736000000</pproTicksOut>
						<file id="file-69"/>
						<sourcetrack>
							<mediatype>audio</mediatype>
							<trackindex>2</trackindex>
						</sourcetrack>
						<link>
							<linkclipref>clipitem-595</linkclipref>
							<mediatype>audio</mediatype>
							<trackindex>1</trackindex>
							<clipindex>119</clipindex>
							<groupindex>1</groupindex>
						</link>
						<link>
							<linkclipref>clipitem-759</linkclipref>
							<mediatype>audio</mediatype>
							<trackindex>2</trackindex>
							<clipindex>119</clipindex>
							<groupindex>1</groupindex>
						</link>
						<logginginfo>
							<description></description>
							<scene></scene>
							<shottake></shottake>
							<lognote></lognote>
							<good></good>
							<originalvideofilename></originalvideofilename>
							<originalaudiofilename></originalaudiofilename>
						</logginginfo>
						<colorinfo>
							<lut></lut>
							<lut1></lut1>
							<asc_sop></asc_sop>
							<asc_sat></asc_sat>
							<lut2></lut2>
						</colorinfo>
						<labels>
							<label2>Iris</label2>
						</labels>
					</clipitem>
					<clipitem id="clipitem-760" premiereChannelType="stereo">
						<masterclipid>masterclip-234</masterclipid>
						<name>Audio 3_34.wav</name>
						<enabled>TRUE</enabled>
						<duration>2052</duration>
						<rate>
							<timebase>24</timebase>
							<ntsc>FALSE</ntsc>
						</rate>
						<start>20360</start>
						<end>20466</end>
						<in>31</in>
						<out>138</out>
						<pproTicksIn>328104000000</pproTicksIn>
						<pproTicksOut>1460592000000</pproTicksOut>
						<file id="file-234"/>
						<sourcetrack>
							<mediatype>audio</mediatype>
							<trackindex>2</trackindex>
						</sourcetrack>
						<filter>
							<effect>
								<name>Audio Levels</name>
								<effectid>audiolevels</effectid>
								<effectcategory>audiolevels</effectcategory>
								<effecttype>audiolevels</effecttype>
								<mediatype>audio</mediatype>
								<pproBypass>false</pproBypass>
								<parameter authoringApp="PremierePro">
									<parameterid>level</parameterid>
									<name>Level</name>
									<valuemin>0</valuemin>
									<valuemax>3.98109</valuemax>
									<value>0.612214</value>
								</parameter>
							</effect>
						</filter>
						<link>
							<linkclipref>clipitem-596</linkclipref>
							<mediatype>audio</mediatype>
							<trackindex>1</trackindex>
							<clipindex>120</clipindex>
							<groupindex>1</groupindex>
						</link>
						<link>
							<linkclipref>clipitem-760</linkclipref>
							<mediatype>audio</mediatype>
							<trackindex>2</trackindex>
							<clipindex>120</clipindex>
							<groupindex>1</groupindex>
						</link>
						<logginginfo>
							<description></description>
							<scene></scene>
							<shottake></shottake>
							<lognote></lognote>
							<good></good>
							<originalvideofilename></originalvideofilename>
							<originalaudiofilename></originalaudiofilename>
						</logginginfo>
						<colorinfo>
							<lut></lut>
							<lut1></lut1>
							<asc_sop></asc_sop>
							<asc_sat></asc_sat>
							<lut2></lut2>
						</colorinfo>
						<labels>
							<label2>Caribbean</label2>
						</labels>
					</clipitem>
					<clipitem id="clipitem-761" premiereChannelType="stereo">
						<masterclipid>masterclip-234</masterclipid>
						<name>Audio 3_34.wav</name>
						<enabled>TRUE</enabled>
						<duration>2052</duration>
						<rate>
							<timebase>24</timebase>
							<ntsc>FALSE</ntsc>
						</rate>
						<start>20590</start>
						<end>20804</end>
						<in>274</in>
						<out>489</out>
						<pproTicksIn>2900016000000</pproTicksIn>
						<pproTicksOut>5175576000000</pproTicksOut>
						<file id="file-234"/>
						<sourcetrack>
							<mediatype>audio</mediatype>
							<trackindex>2</trackindex>
						</sourcetrack>
						<filter>
							<effect>
								<name>Audio Levels</name>
								<effectid>audiolevels</effectid>
								<effectcategory>audiolevels</effectcategory>
								<effecttype>audiolevels</effecttype>
								<mediatype>audio</mediatype>
								<pproBypass>false</pproBypass>
								<parameter authoringApp="PremierePro">
									<parameterid>level</parameterid>
									<name>Level</name>
									<valuemin>0</valuemin>
									<valuemax>3.98109</valuemax>
									<value>0.0864718</value>
								</parameter>
							</effect>
						</filter>
						<link>
							<linkclipref>clipitem-597</linkclipref>
							<mediatype>audio</mediatype>
							<trackindex>1</trackindex>
							<clipindex>121</clipindex>
							<groupindex>1</groupindex>
						</link>
						<link>
							<linkclipref>clipitem-761</linkclipref>
							<mediatype>audio</mediatype>
							<trackindex>2</trackindex>
							<clipindex>121</clipindex>
							<groupindex>1</groupindex>
						</link>
						<logginginfo>
							<description></description>
							<scene></scene>
							<shottake></shottake>
							<lognote></lognote>
							<good></good>
							<originalvideofilename></originalvideofilename>
							<originalaudiofilename></originalaudiofilename>
						</logginginfo>
						<colorinfo>
							<lut></lut>
							<lut1></lut1>
							<asc_sop></asc_sop>
							<asc_sat></asc_sat>
							<lut2></lut2>
						</colorinfo>
						<labels>
							<label2>Caribbean</label2>
						</labels>
					</clipitem>
					<clipitem id="clipitem-762" premiereChannelType="stereo">
						<masterclipid>masterclip-234</masterclipid>
						<name>Audio 3_34.wav</name>
						<enabled>TRUE</enabled>
						<duration>2052</duration>
						<rate>
							<timebase>24</timebase>
							<ntsc>FALSE</ntsc>
						</rate>
						<start>20842</start>
						<end>20889</end>
						<in>566</in>
						<out>614</out>
						<pproTicksIn>5990544000000</pproTicksIn>
						<pproTicksOut>6498576000000</pproTicksOut>
						<file id="file-234"/>
						<sourcetrack>
							<mediatype>audio</mediatype>
							<trackindex>2</trackindex>
						</sourcetrack>
						<filter>
							<effect>
								<name>Audio Levels</name>
								<effectid>audiolevels</effectid>
								<effectcategory>audiolevels</effectcategory>
								<effecttype>audiolevels</effecttype>
								<mediatype>audio</mediatype>
								<pproBypass>false</pproBypass>
								<parameter authoringApp="PremierePro">
									<parameterid>level</parameterid>
									<name>Level</name>
									<valuemin>0</valuemin>
									<valuemax>3.98109</valuemax>
									<value>0.0667907</value>
								</parameter>
							</effect>
						</filter>
						<link>
							<linkclipref>clipitem-598</linkclipref>
							<mediatype>audio</mediatype>
							<trackindex>1</trackindex>
							<clipindex>122</clipindex>
							<groupindex>1</groupindex>
						</link>
						<link>
							<linkclipref>clipitem-762</linkclipref>
							<mediatype>audio</mediatype>
							<trackindex>2</trackindex>
							<clipindex>122</clipindex>
							<groupindex>1</groupindex>
						</link>
						<logginginfo>
							<description></description>
							<scene></scene>
							<shottake></shottake>
							<lognote></lognote>
							<good></good>
							<originalvideofilename></originalvideofilename>
							<originalaudiofilename></originalaudiofilename>
						</logginginfo>
						<colorinfo>
							<lut></lut>
							<lut1></lut1>
							<asc_sop></asc_sop>
							<asc_sat></asc_sat>
							<lut2></lut2>
						</colorinfo>
						<labels>
							<label2>Caribbean</label2>
						</labels>
					</clipitem>
					<clipitem id="clipitem-763" premiereChannelType="stereo">
						<masterclipid>masterclip-234</masterclipid>
						<name>Audio 3_34.wav</name>
						<enabled>TRUE</enabled>
						<duration>2052</duration>
						<rate>
							<timebase>24</timebase>
							<ntsc>FALSE</ntsc>
						</rate>
						<start>20889</start>
						<end>20950</end>
						<in>732</in>
						<out>794</out>
						<pproTicksIn>7747488000000</pproTicksIn>
						<pproTicksOut>8403696000000</pproTicksOut>
						<file id="file-234"/>
						<sourcetrack>
							<mediatype>audio</mediatype>
							<trackindex>2</trackindex>
						</sourcetrack>
						<filter>
							<effect>
								<name>Audio Levels</name>
								<effectid>audiolevels</effectid>
								<effectcategory>audiolevels</effectcategory>
								<effecttype>audiolevels</effecttype>
								<mediatype>audio</mediatype>
								<pproBypass>false</pproBypass>
								<parameter authoringApp="PremierePro">
									<parameterid>level</parameterid>
									<name>Level</name>
									<valuemin>0</valuemin>
									<valuemax>3.98109</valuemax>
									<value>0.0498738</value>
								</parameter>
							</effect>
						</filter>
						<link>
							<linkclipref>clipitem-599</linkclipref>
							<mediatype>audio</mediatype>
							<trackindex>1</trackindex>
							<clipindex>123</clipindex>
							<groupindex>1</groupindex>
						</link>
						<link>
							<linkclipref>clipitem-763</linkclipref>
							<mediatype>audio</mediatype>
							<trackindex>2</trackindex>
							<clipindex>123</clipindex>
							<groupindex>1</groupindex>
						</link>
						<logginginfo>
							<description></description>
							<scene></scene>
							<shottake></shottake>
							<lognote></lognote>
							<good></good>
							<originalvideofilename></originalvideofilename>
							<originalaudiofilename></originalaudiofilename>
						</logginginfo>
						<colorinfo>
							<lut></lut>
							<lut1></lut1>
							<asc_sop></asc_sop>
							<asc_sat></asc_sat>
							<lut2></lut2>
						</colorinfo>
						<labels>
							<label2>Caribbean</label2>
						</labels>
					</clipitem>
					<clipitem id="clipitem-764" premiereChannelType="stereo">
						<masterclipid>masterclip-235</masterclipid>
						<name>Audio 3_62.wav</name>
						<enabled>TRUE</enabled>
						<duration>120</duration>
						<rate>
							<timebase>24</timebase>
							<ntsc>FALSE</ntsc>
						</rate>
						<start>21039</start>
						<end>21130</end>
						<in>10</in>
						<out>102</out>
						<pproTicksIn>105840000000</pproTicksIn>
						<pproTicksOut>1079568000000</pproTicksOut>
						<file id="file-235"/>
						<sourcetrack>
							<mediatype>audio</mediatype>
							<trackindex>2</trackindex>
						</sourcetrack>
						<filter>
							<effect>
								<name>Audio Levels</name>
								<effectid>audiolevels</effectid>
								<effectcategory>audiolevels</effectcategory>
								<effecttype>audiolevels</effecttype>
								<mediatype>audio</mediatype>
								<pproBypass>false</pproBypass>
								<parameter authoringApp="PremierePro">
									<parameterid>level</parameterid>
									<name>Level</name>
									<valuemin>0</valuemin>
									<valuemax>3.98109</valuemax>
									<value>0.326122</value>
								</parameter>
							</effect>
						</filter>
						<link>
							<linkclipref>clipitem-600</linkclipref>
							<mediatype>audio</mediatype>
							<trackindex>1</trackindex>
							<clipindex>124</clipindex>
							<groupindex>1</groupindex>
						</link>
						<link>
							<linkclipref>clipitem-764</linkclipref>
							<mediatype>audio</mediatype>
							<trackindex>2</trackindex>
							<clipindex>124</clipindex>
							<groupindex>1</groupindex>
						</link>
						<logginginfo>
							<description></description>
							<scene></scene>
							<shottake></shottake>
							<lognote></lognote>
							<good></good>
							<originalvideofilename></originalvideofilename>
							<originalaudiofilename></originalaudiofilename>
						</logginginfo>
						<colorinfo>
							<lut></lut>
							<lut1></lut1>
							<asc_sop></asc_sop>
							<asc_sat></asc_sat>
							<lut2></lut2>
						</colorinfo>
						<labels>
							<label2>Caribbean</label2>
						</labels>
					</clipitem>
					<clipitem id="clipitem-765" premiereChannelType="stereo">
						<masterclipid>masterclip-234</masterclipid>
						<name>Audio 3_34.wav</name>
						<enabled>TRUE</enabled>
						<duration>2052</duration>
						<rate>
							<timebase>24</timebase>
							<ntsc>FALSE</ntsc>
						</rate>
						<start>21152</start>
						<end>21233</end>
						<in>926</in>
						<out>1008</out>
						<pproTicksIn>9800784000000</pproTicksIn>
						<pproTicksOut>10668672000000</pproTicksOut>
						<file id="file-234"/>
						<sourcetrack>
							<mediatype>audio</mediatype>
							<trackindex>2</trackindex>
						</sourcetrack>
						<filter>
							<effect>
								<name>Audio Levels</name>
								<effectid>audiolevels</effectid>
								<effectcategory>audiolevels</effectcategory>
								<effecttype>audiolevels</effecttype>
								<mediatype>audio</mediatype>
								<pproBypass>false</pproBypass>
								<parameter authoringApp="PremierePro">
									<parameterid>level</parameterid>
									<name>Level</name>
									<valuemin>0</valuemin>
									<valuemax>3.98109</valuemax>
									<value>0.0667907</value>
								</parameter>
							</effect>
						</filter>
						<link>
							<linkclipref>clipitem-601</linkclipref>
							<mediatype>audio</mediatype>
							<trackindex>1</trackindex>
							<clipindex>125</clipindex>
							<groupindex>1</groupindex>
						</link>
						<link>
							<linkclipref>clipitem-765</linkclipref>
							<mediatype>audio</mediatype>
							<trackindex>2</trackindex>
							<clipindex>125</clipindex>
							<groupindex>1</groupindex>
						</link>
						<logginginfo>
							<description></description>
							<scene></scene>
							<shottake></shottake>
							<lognote></lognote>
							<good></good>
							<originalvideofilename></originalvideofilename>
							<originalaudiofilename></originalaudiofilename>
						</logginginfo>
						<colorinfo>
							<lut></lut>
							<lut1></lut1>
							<asc_sop></asc_sop>
							<asc_sat></asc_sat>
							<lut2></lut2>
						</colorinfo>
						<labels>
							<label2>Caribbean</label2>
						</labels>
					</clipitem>
					<clipitem id="clipitem-766" premiereChannelType="stereo">
						<masterclipid>masterclip-234</masterclipid>
						<name>Audio 3_34.wav</name>
						<enabled>TRUE</enabled>
						<duration>2052</duration>
						<rate>
							<timebase>24</timebase>
							<ntsc>FALSE</ntsc>
						</rate>
						<start>21245</start>
						<end>21283</end>
						<in>1224</in>
						<out>1263</out>
						<pproTicksIn>12954816000000</pproTicksIn>
						<pproTicksOut>13367592000000</pproTicksOut>
						<file id="file-234"/>
						<sourcetrack>
							<mediatype>audio</mediatype>
							<trackindex>2</trackindex>
						</sourcetrack>
						<filter>
							<effect>
								<name>Audio Levels</name>
								<effectid>audiolevels</effectid>
								<effectcategory>audiolevels</effectcategory>
								<effecttype>audiolevels</effecttype>
								<mediatype>audio</mediatype>
								<pproBypass>false</pproBypass>
								<parameter authoringApp="PremierePro">
									<parameterid>level</parameterid>
									<name>Level</name>
									<valuemin>0</valuemin>
									<valuemax>3.98109</valuemax>
									<value>0.0498738</value>
								</parameter>
							</effect>
						</filter>
						<link>
							<linkclipref>clipitem-602</linkclipref>
							<mediatype>audio</mediatype>
							<trackindex>1</trackindex>
							<clipindex>126</clipindex>
							<groupindex>1</groupindex>
						</link>
						<link>
							<linkclipref>clipitem-766</linkclipref>
							<mediatype>audio</mediatype>
							<trackindex>2</trackindex>
							<clipindex>126</clipindex>
							<groupindex>1</groupindex>
						</link>
						<logginginfo>
							<description></description>
							<scene></scene>
							<shottake></shottake>
							<lognote></lognote>
							<good></good>
							<originalvideofilename></originalvideofilename>
							<originalaudiofilename></originalaudiofilename>
						</logginginfo>
						<colorinfo>
							<lut></lut>
							<lut1></lut1>
							<asc_sop></asc_sop>
							<asc_sat></asc_sat>
							<lut2></lut2>
						</colorinfo>
						<labels>
							<label2>Caribbean</label2>
						</labels>
					</clipitem>
					<clipitem id="clipitem-767" premiereChannelType="stereo">
						<masterclipid>masterclip-234</masterclipid>
						<name>Audio 3_34.wav</name>
						<enabled>TRUE</enabled>
						<duration>2052</duration>
						<rate>
							<timebase>24</timebase>
							<ntsc>FALSE</ntsc>
						</rate>
						<start>21283</start>
						<end>21385</end>
						<in>1354</in>
						<out>1457</out>
						<pproTicksIn>14330736000000</pproTicksIn>
						<pproTicksOut>15420888000000</pproTicksOut>
						<file id="file-234"/>
						<sourcetrack>
							<mediatype>audio</mediatype>
							<trackindex>2</trackindex>
						</sourcetrack>
						<filter>
							<effect>
								<name>Audio Levels</name>
								<effectid>audiolevels</effectid>
								<effectcategory>audiolevels</effectcategory>
								<effecttype>audiolevels</effecttype>
								<mediatype>audio</mediatype>
								<pproBypass>false</pproBypass>
								<parameter authoringApp="PremierePro">
									<parameterid>level</parameterid>
									<name>Level</name>
									<valuemin>0</valuemin>
									<valuemax>3.98109</valuemax>
									<value>0.0498738</value>
								</parameter>
							</effect>
						</filter>
						<link>
							<linkclipref>clipitem-603</linkclipref>
							<mediatype>audio</mediatype>
							<trackindex>1</trackindex>
							<clipindex>127</clipindex>
							<groupindex>1</groupindex>
						</link>
						<link>
							<linkclipref>clipitem-767</linkclipref>
							<mediatype>audio</mediatype>
							<trackindex>2</trackindex>
							<clipindex>127</clipindex>
							<groupindex>1</groupindex>
						</link>
						<logginginfo>
							<description></description>
							<scene></scene>
							<shottake></shottake>
							<lognote></lognote>
							<good></good>
							<originalvideofilename></originalvideofilename>
							<originalaudiofilename></originalaudiofilename>
						</logginginfo>
						<colorinfo>
							<lut></lut>
							<lut1></lut1>
							<asc_sop></asc_sop>
							<asc_sat></asc_sat>
							<lut2></lut2>
						</colorinfo>
						<labels>
							<label2>Caribbean</label2>
						</labels>
					</clipitem>
					<clipitem id="clipitem-768" premiereChannelType="stereo">
						<masterclipid>masterclip-236</masterclipid>
						<name>A015_03071552_C128.mp4</name>
						<enabled>TRUE</enabled>
						<duration>1512</duration>
						<rate>
							<timebase>24</timebase>
							<ntsc>FALSE</ntsc>
						</rate>
						<start>21508</start>
						<end>21526</end>
						<in>833</in>
						<out>851</out>
						<pproTicksIn>8816472000000</pproTicksIn>
						<pproTicksOut>9006984000000</pproTicksOut>
						<file id="file-236"/>
						<sourcetrack>
							<mediatype>audio</mediatype>
							<trackindex>2</trackindex>
						</sourcetrack>
						<link>
							<linkclipref>clipitem-604</linkclipref>
							<mediatype>audio</mediatype>
							<trackindex>1</trackindex>
							<clipindex>128</clipindex>
							<groupindex>1</groupindex>
						</link>
						<link>
							<linkclipref>clipitem-768</linkclipref>
							<mediatype>audio</mediatype>
							<trackindex>2</trackindex>
							<clipindex>128</clipindex>
							<groupindex>1</groupindex>
						</link>
						<logginginfo>
							<description></description>
							<scene></scene>
							<shottake></shottake>
							<lognote></lognote>
							<good></good>
							<originalvideofilename></originalvideofilename>
							<originalaudiofilename></originalaudiofilename>
						</logginginfo>
						<colorinfo>
							<lut></lut>
							<lut1></lut1>
							<asc_sop></asc_sop>
							<asc_sat></asc_sat>
							<lut2></lut2>
						</colorinfo>
						<labels>
							<label2>Iris</label2>
						</labels>
					</clipitem>
					<clipitem id="clipitem-769" premiereChannelType="stereo">
						<masterclipid>masterclip-236</masterclipid>
						<name>A015_03071552_C128.mp4</name>
						<enabled>TRUE</enabled>
						<duration>1512</duration>
						<rate>
							<timebase>24</timebase>
							<ntsc>FALSE</ntsc>
						</rate>
						<start>21526</start>
						<end>21606</end>
						<in>851</in>
						<out>931</out>
						<pproTicksIn>9006984000000</pproTicksIn>
						<pproTicksOut>9853704000000</pproTicksOut>
						<file id="file-236"/>
						<sourcetrack>
							<mediatype>audio</mediatype>
							<trackindex>2</trackindex>
						</sourcetrack>
						<link>
							<linkclipref>clipitem-605</linkclipref>
							<mediatype>audio</mediatype>
							<trackindex>1</trackindex>
							<clipindex>129</clipindex>
							<groupindex>1</groupindex>
						</link>
						<link>
							<linkclipref>clipitem-769</linkclipref>
							<mediatype>audio</mediatype>
							<trackindex>2</trackindex>
							<clipindex>129</clipindex>
							<groupindex>1</groupindex>
						</link>
						<logginginfo>
							<description></description>
							<scene></scene>
							<shottake></shottake>
							<lognote></lognote>
							<good></good>
							<originalvideofilename></originalvideofilename>
							<originalaudiofilename></originalaudiofilename>
						</logginginfo>
						<colorinfo>
							<lut></lut>
							<lut1></lut1>
							<asc_sop></asc_sop>
							<asc_sat></asc_sat>
							<lut2></lut2>
						</colorinfo>
						<labels>
							<label2>Iris</label2>
						</labels>
					</clipitem>
					<clipitem id="clipitem-770" premiereChannelType="stereo">
						<masterclipid>masterclip-234</masterclipid>
						<name>Audio 3_34.wav</name>
						<enabled>TRUE</enabled>
						<duration>2052</duration>
						<rate>
							<timebase>24</timebase>
							<ntsc>FALSE</ntsc>
						</rate>
						<start>21908</start>
						<end>22009</end>
						<in>1906</in>
						<out>2008</out>
						<pproTicksIn>20173104000000</pproTicksIn>
						<pproTicksOut>21252672000000</pproTicksOut>
						<file id="file-234"/>
						<sourcetrack>
							<mediatype>audio</mediatype>
							<trackindex>2</trackindex>
						</sourcetrack>
						<filter>
							<effect>
								<name>Audio Levels</name>
								<effectid>audiolevels</effectid>
								<effectcategory>audiolevels</effectcategory>
								<effecttype>audiolevels</effecttype>
								<mediatype>audio</mediatype>
								<pproBypass>false</pproBypass>
								<parameter authoringApp="PremierePro">
									<parameterid>level</parameterid>
									<name>Level</name>
									<valuemin>0</valuemin>
									<valuemax>3.98109</valuemax>
									<value>0.0864718</value>
								</parameter>
							</effect>
						</filter>
						<link>
							<linkclipref>clipitem-606</linkclipref>
							<mediatype>audio</mediatype>
							<trackindex>1</trackindex>
							<clipindex>130</clipindex>
							<groupindex>1</groupindex>
						</link>
						<link>
							<linkclipref>clipitem-770</linkclipref>
							<mediatype>audio</mediatype>
							<trackindex>2</trackindex>
							<clipindex>130</clipindex>
							<groupindex>1</groupindex>
						</link>
						<logginginfo>
							<description></description>
							<scene></scene>
							<shottake></shottake>
							<lognote></lognote>
							<good></good>
							<originalvideofilename></originalvideofilename>
							<originalaudiofilename></originalaudiofilename>
						</logginginfo>
						<colorinfo>
							<lut></lut>
							<lut1></lut1>
							<asc_sop></asc_sop>
							<asc_sat></asc_sat>
							<lut2></lut2>
						</colorinfo>
						<labels>
							<label2>Caribbean</label2>
						</labels>
					</clipitem>
					<clipitem id="clipitem-771" premiereChannelType="stereo">
						<masterclipid>masterclip-106</masterclipid>
						<name>A005_10250841_C138.mp4</name>
						<enabled>TRUE</enabled>
						<duration>681</duration>
						<rate>
							<timebase>24</timebase>
							<ntsc>FALSE</ntsc>
						</rate>
						<start>22054</start>
						<end>22107</end>
						<in>338</in>
						<out>391</out>
						<pproTicksIn>3577392000000</pproTicksIn>
						<pproTicksOut>4138344000000</pproTicksOut>
						<file id="file-106"/>
						<sourcetrack>
							<mediatype>audio</mediatype>
							<trackindex>2</trackindex>
						</sourcetrack>
						<link>
							<linkclipref>clipitem-607</linkclipref>
							<mediatype>audio</mediatype>
							<trackindex>1</trackindex>
							<clipindex>131</clipindex>
							<groupindex>1</groupindex>
						</link>
						<link>
							<linkclipref>clipitem-771</linkclipref>
							<mediatype>audio</mediatype>
							<trackindex>2</trackindex>
							<clipindex>131</clipindex>
							<groupindex>1</groupindex>
						</link>
						<logginginfo>
							<description></description>
							<scene></scene>
							<shottake></shottake>
							<lognote></lognote>
							<good></good>
							<originalvideofilename></originalvideofilename>
							<originalaudiofilename></originalaudiofilename>
						</logginginfo>
						<colorinfo>
							<lut></lut>
							<lut1></lut1>
							<asc_sop></asc_sop>
							<asc_sat></asc_sat>
							<lut2></lut2>
						</colorinfo>
						<labels>
							<label2>Iris</label2>
						</labels>
					</clipitem>
					<clipitem id="clipitem-772" premiereChannelType="stereo">
						<masterclipid>masterclip-109</masterclipid>
						<name>A008_10280532_C038.mp4</name>
						<enabled>TRUE</enabled>
						<duration>1656</duration>
						<rate>
							<timebase>24</timebase>
							<ntsc>FALSE</ntsc>
						</rate>
						<start>22394</start>
						<end>22586</end>
						<in>218</in>
						<out>410</out>
						<pproTicksIn>2307312000000</pproTicksIn>
						<pproTicksOut>4339440000000</pproTicksOut>
						<file id="file-109"/>
						<sourcetrack>
							<mediatype>audio</mediatype>
							<trackindex>2</trackindex>
						</sourcetrack>
						<link>
							<linkclipref>clipitem-225</linkclipref>
							<mediatype>video</mediatype>
							<trackindex>1</trackindex>
							<clipindex>269</clipindex>
						</link>
						<link>
							<linkclipref>clipitem-608</linkclipref>
							<mediatype>audio</mediatype>
							<trackindex>1</trackindex>
							<clipindex>132</clipindex>
							<groupindex>1</groupindex>
						</link>
						<link>
							<linkclipref>clipitem-772</linkclipref>
							<mediatype>audio</mediatype>
							<trackindex>2</trackindex>
							<clipindex>132</clipindex>
							<groupindex>1</groupindex>
						</link>
						<logginginfo>
							<description></description>
							<scene></scene>
							<shottake></shottake>
							<lognote></lognote>
							<good></good>
							<originalvideofilename></originalvideofilename>
							<originalaudiofilename></originalaudiofilename>
						</logginginfo>
						<colorinfo>
							<lut></lut>
							<lut1></lut1>
							<asc_sop></asc_sop>
							<asc_sat></asc_sat>
							<lut2></lut2>
						</colorinfo>
						<labels>
							<label2>Iris</label2>
						</labels>
					</clipitem>
					<clipitem id="clipitem-773" premiereChannelType="stereo">
						<masterclipid>masterclip-109</masterclipid>
						<name>A008_10280532_C038.mp4</name>
						<enabled>TRUE</enabled>
						<duration>1656</duration>
						<rate>
							<timebase>24</timebase>
							<ntsc>FALSE</ntsc>
						</rate>
						<start>22586</start>
						<end>22635</end>
						<in>410</in>
						<out>459</out>
						<pproTicksIn>4339440000000</pproTicksIn>
						<pproTicksOut>4858056000000</pproTicksOut>
						<file id="file-109"/>
						<sourcetrack>
							<mediatype>audio</mediatype>
							<trackindex>2</trackindex>
						</sourcetrack>
						<link>
							<linkclipref>clipitem-226</linkclipref>
							<mediatype>video</mediatype>
							<trackindex>1</trackindex>
							<clipindex>270</clipindex>
						</link>
						<link>
							<linkclipref>clipitem-609</linkclipref>
							<mediatype>audio</mediatype>
							<trackindex>1</trackindex>
							<clipindex>133</clipindex>
							<groupindex>1</groupindex>
						</link>
						<link>
							<linkclipref>clipitem-773</linkclipref>
							<mediatype>audio</mediatype>
							<trackindex>2</trackindex>
							<clipindex>133</clipindex>
							<groupindex>1</groupindex>
						</link>
						<logginginfo>
							<description></description>
							<scene></scene>
							<shottake></shottake>
							<lognote></lognote>
							<good></good>
							<originalvideofilename></originalvideofilename>
							<originalaudiofilename></originalaudiofilename>
						</logginginfo>
						<colorinfo>
							<lut></lut>
							<lut1></lut1>
							<asc_sop></asc_sop>
							<asc_sat></asc_sat>
							<lut2></lut2>
						</colorinfo>
						<labels>
							<label2>Iris</label2>
						</labels>
					</clipitem>
					<clipitem id="clipitem-774" premiereChannelType="stereo">
						<masterclipid>masterclip-110</masterclipid>
						<name>A008_10280608_C051.mp4</name>
						<enabled>TRUE</enabled>
						<duration>1519</duration>
						<rate>
							<timebase>24</timebase>
							<ntsc>FALSE</ntsc>
						</rate>
						<start>22635</start>
						<end>22704</end>
						<in>222</in>
						<out>291</out>
						<pproTicksIn>2349648000000</pproTicksIn>
						<pproTicksOut>3079944000000</pproTicksOut>
						<file id="file-110"/>
						<sourcetrack>
							<mediatype>audio</mediatype>
							<trackindex>2</trackindex>
						</sourcetrack>
						<link>
							<linkclipref>clipitem-610</linkclipref>
							<mediatype>audio</mediatype>
							<trackindex>1</trackindex>
							<clipindex>134</clipindex>
							<groupindex>1</groupindex>
						</link>
						<link>
							<linkclipref>clipitem-774</linkclipref>
							<mediatype>audio</mediatype>
							<trackindex>2</trackindex>
							<clipindex>134</clipindex>
							<groupindex>1</groupindex>
						</link>
						<logginginfo>
							<description></description>
							<scene></scene>
							<shottake></shottake>
							<lognote></lognote>
							<good></good>
							<originalvideofilename></originalvideofilename>
							<originalaudiofilename></originalaudiofilename>
						</logginginfo>
						<colorinfo>
							<lut></lut>
							<lut1></lut1>
							<asc_sop></asc_sop>
							<asc_sat></asc_sat>
							<lut2></lut2>
						</colorinfo>
						<labels>
							<label2>Iris</label2>
						</labels>
					</clipitem>
					<clipitem id="clipitem-775" premiereChannelType="stereo">
						<masterclipid>masterclip-109</masterclipid>
						<name>A008_10280532_C038.mp4</name>
						<enabled>TRUE</enabled>
						<duration>1656</duration>
						<rate>
							<timebase>24</timebase>
							<ntsc>FALSE</ntsc>
						</rate>
						<start>22704</start>
						<end>22783</end>
						<in>509</in>
						<out>588</out>
						<pproTicksIn>5387256000000</pproTicksIn>
						<pproTicksOut>6223392000000</pproTicksOut>
						<file id="file-109"/>
						<sourcetrack>
							<mediatype>audio</mediatype>
							<trackindex>2</trackindex>
						</sourcetrack>
						<link>
							<linkclipref>clipitem-228</linkclipref>
							<mediatype>video</mediatype>
							<trackindex>1</trackindex>
							<clipindex>272</clipindex>
						</link>
						<link>
							<linkclipref>clipitem-611</linkclipref>
							<mediatype>audio</mediatype>
							<trackindex>1</trackindex>
							<clipindex>135</clipindex>
							<groupindex>1</groupindex>
						</link>
						<link>
							<linkclipref>clipitem-775</linkclipref>
							<mediatype>audio</mediatype>
							<trackindex>2</trackindex>
							<clipindex>135</clipindex>
							<groupindex>1</groupindex>
						</link>
						<logginginfo>
							<description></description>
							<scene></scene>
							<shottake></shottake>
							<lognote></lognote>
							<good></good>
							<originalvideofilename></originalvideofilename>
							<originalaudiofilename></originalaudiofilename>
						</logginginfo>
						<colorinfo>
							<lut></lut>
							<lut1></lut1>
							<asc_sop></asc_sop>
							<asc_sat></asc_sat>
							<lut2></lut2>
						</colorinfo>
						<labels>
							<label2>Iris</label2>
						</labels>
					</clipitem>
					<clipitem id="clipitem-776" premiereChannelType="stereo">
						<masterclipid>masterclip-110</masterclipid>
						<name>A008_10280608_C051.mp4</name>
						<enabled>TRUE</enabled>
						<duration>1519</duration>
						<rate>
							<timebase>24</timebase>
							<ntsc>FALSE</ntsc>
						</rate>
						<start>22787</start>
						<end>22828</end>
						<in>365</in>
						<out>406</out>
						<pproTicksIn>3863160000000</pproTicksIn>
						<pproTicksOut>4297104000000</pproTicksOut>
						<file id="file-110"/>
						<sourcetrack>
							<mediatype>audio</mediatype>
							<trackindex>2</trackindex>
						</sourcetrack>
						<link>
							<linkclipref>clipitem-229</linkclipref>
							<mediatype>video</mediatype>
							<trackindex>1</trackindex>
							<clipindex>273</clipindex>
						</link>
						<link>
							<linkclipref>clipitem-612</linkclipref>
							<mediatype>audio</mediatype>
							<trackindex>1</trackindex>
							<clipindex>136</clipindex>
							<groupindex>1</groupindex>
						</link>
						<link>
							<linkclipref>clipitem-776</linkclipref>
							<mediatype>audio</mediatype>
							<trackindex>2</trackindex>
							<clipindex>136</clipindex>
							<groupindex>1</groupindex>
						</link>
						<logginginfo>
							<description></description>
							<scene></scene>
							<shottake></shottake>
							<lognote></lognote>
							<good></good>
							<originalvideofilename></originalvideofilename>
							<originalaudiofilename></originalaudiofilename>
						</logginginfo>
						<colorinfo>
							<lut></lut>
							<lut1></lut1>
							<asc_sop></asc_sop>
							<asc_sat></asc_sat>
							<lut2></lut2>
						</colorinfo>
						<labels>
							<label2>Iris</label2>
						</labels>
					</clipitem>
					<clipitem id="clipitem-777" premiereChannelType="stereo">
						<masterclipid>masterclip-109</masterclipid>
						<name>A008_10280532_C038.mp4</name>
						<enabled>TRUE</enabled>
						<duration>1656</duration>
						<rate>
							<timebase>24</timebase>
							<ntsc>FALSE</ntsc>
						</rate>
						<start>22828</start>
						<end>22953</end>
						<in>623</in>
						<out>748</out>
						<pproTicksIn>6593832000000</pproTicksIn>
						<pproTicksOut>7916832000000</pproTicksOut>
						<file id="file-109"/>
						<sourcetrack>
							<mediatype>audio</mediatype>
							<trackindex>2</trackindex>
						</sourcetrack>
						<link>
							<linkclipref>clipitem-230</linkclipref>
							<mediatype>video</mediatype>
							<trackindex>1</trackindex>
							<clipindex>274</clipindex>
						</link>
						<link>
							<linkclipref>clipitem-613</linkclipref>
							<mediatype>audio</mediatype>
							<trackindex>1</trackindex>
							<clipindex>137</clipindex>
							<groupindex>1</groupindex>
						</link>
						<link>
							<linkclipref>clipitem-777</linkclipref>
							<mediatype>audio</mediatype>
							<trackindex>2</trackindex>
							<clipindex>137</clipindex>
							<groupindex>1</groupindex>
						</link>
						<logginginfo>
							<description></description>
							<scene></scene>
							<shottake></shottake>
							<lognote></lognote>
							<good></good>
							<originalvideofilename></originalvideofilename>
							<originalaudiofilename></originalaudiofilename>
						</logginginfo>
						<colorinfo>
							<lut></lut>
							<lut1></lut1>
							<asc_sop></asc_sop>
							<asc_sat></asc_sat>
							<lut2></lut2>
						</colorinfo>
						<labels>
							<label2>Iris</label2>
						</labels>
					</clipitem>
					<clipitem id="clipitem-778" premiereChannelType="stereo">
						<masterclipid>masterclip-110</masterclipid>
						<name>A008_10280608_C051.mp4</name>
						<enabled>TRUE</enabled>
						<duration>1519</duration>
						<rate>
							<timebase>24</timebase>
							<ntsc>FALSE</ntsc>
						</rate>
						<start>22967</start>
						<end>23000</end>
						<in>515</in>
						<out>548</out>
						<pproTicksIn>5450760000000</pproTicksIn>
						<pproTicksOut>5800032000000</pproTicksOut>
						<file id="file-110"/>
						<sourcetrack>
							<mediatype>audio</mediatype>
							<trackindex>2</trackindex>
						</sourcetrack>
						<link>
							<linkclipref>clipitem-231</linkclipref>
							<mediatype>video</mediatype>
							<trackindex>1</trackindex>
							<clipindex>275</clipindex>
						</link>
						<link>
							<linkclipref>clipitem-614</linkclipref>
							<mediatype>audio</mediatype>
							<trackindex>1</trackindex>
							<clipindex>138</clipindex>
							<groupindex>1</groupindex>
						</link>
						<link>
							<linkclipref>clipitem-778</linkclipref>
							<mediatype>audio</mediatype>
							<trackindex>2</trackindex>
							<clipindex>138</clipindex>
							<groupindex>1</groupindex>
						</link>
						<logginginfo>
							<description></description>
							<scene></scene>
							<shottake></shottake>
							<lognote></lognote>
							<good></good>
							<originalvideofilename></originalvideofilename>
							<originalaudiofilename></originalaudiofilename>
						</logginginfo>
						<colorinfo>
							<lut></lut>
							<lut1></lut1>
							<asc_sop></asc_sop>
							<asc_sat></asc_sat>
							<lut2></lut2>
						</colorinfo>
						<labels>
							<label2>Iris</label2>
						</labels>
					</clipitem>
					<clipitem id="clipitem-779" premiereChannelType="stereo">
						<masterclipid>masterclip-109</masterclipid>
						<name>A008_10280532_C038.mp4</name>
						<enabled>TRUE</enabled>
						<duration>1656</duration>
						<rate>
							<timebase>24</timebase>
							<ntsc>FALSE</ntsc>
						</rate>
						<start>23000</start>
						<end>23024</end>
						<in>782</in>
						<out>806</out>
						<pproTicksIn>8276688000000</pproTicksIn>
						<pproTicksOut>8530704000000</pproTicksOut>
						<file id="file-109"/>
						<sourcetrack>
							<mediatype>audio</mediatype>
							<trackindex>2</trackindex>
						</sourcetrack>
						<link>
							<linkclipref>clipitem-232</linkclipref>
							<mediatype>video</mediatype>
							<trackindex>1</trackindex>
							<clipindex>276</clipindex>
						</link>
						<link>
							<linkclipref>clipitem-615</linkclipref>
							<mediatype>audio</mediatype>
							<trackindex>1</trackindex>
							<clipindex>139</clipindex>
							<groupindex>1</groupindex>
						</link>
						<link>
							<linkclipref>clipitem-779</linkclipref>
							<mediatype>audio</mediatype>
							<trackindex>2</trackindex>
							<clipindex>139</clipindex>
							<groupindex>1</groupindex>
						</link>
						<logginginfo>
							<description></description>
							<scene></scene>
							<shottake></shottake>
							<lognote></lognote>
							<good></good>
							<originalvideofilename></originalvideofilename>
							<originalaudiofilename></originalaudiofilename>
						</logginginfo>
						<colorinfo>
							<lut></lut>
							<lut1></lut1>
							<asc_sop></asc_sop>
							<asc_sat></asc_sat>
							<lut2></lut2>
						</colorinfo>
						<labels>
							<label2>Iris</label2>
						</labels>
					</clipitem>
					<clipitem id="clipitem-780" premiereChannelType="stereo">
						<masterclipid>masterclip-109</masterclipid>
						<name>A008_10280532_C038.mp4</name>
						<enabled>TRUE</enabled>
						<duration>1656</duration>
						<rate>
							<timebase>24</timebase>
							<ntsc>FALSE</ntsc>
						</rate>
						<start>23024</start>
						<end>23031</end>
						<in>806</in>
						<out>813</out>
						<pproTicksIn>8530704000000</pproTicksIn>
						<pproTicksOut>8604792000000</pproTicksOut>
						<file id="file-109"/>
						<sourcetrack>
							<mediatype>audio</mediatype>
							<trackindex>2</trackindex>
						</sourcetrack>
						<link>
							<linkclipref>clipitem-233</linkclipref>
							<mediatype>video</mediatype>
							<trackindex>1</trackindex>
							<clipindex>277</clipindex>
						</link>
						<link>
							<linkclipref>clipitem-616</linkclipref>
							<mediatype>audio</mediatype>
							<trackindex>1</trackindex>
							<clipindex>140</clipindex>
							<groupindex>1</groupindex>
						</link>
						<link>
							<linkclipref>clipitem-780</linkclipref>
							<mediatype>audio</mediatype>
							<trackindex>2</trackindex>
							<clipindex>140</clipindex>
							<groupindex>1</groupindex>
						</link>
						<logginginfo>
							<description></description>
							<scene></scene>
							<shottake></shottake>
							<lognote></lognote>
							<good></good>
							<originalvideofilename></originalvideofilename>
							<originalaudiofilename></originalaudiofilename>
						</logginginfo>
						<colorinfo>
							<lut></lut>
							<lut1></lut1>
							<asc_sop></asc_sop>
							<asc_sat></asc_sat>
							<lut2></lut2>
						</colorinfo>
						<labels>
							<label2>Iris</label2>
						</labels>
					</clipitem>
					<clipitem id="clipitem-781" premiereChannelType="stereo">
						<masterclipid>masterclip-109</masterclipid>
						<name>A008_10280532_C038.mp4</name>
						<enabled>TRUE</enabled>
						<duration>1656</duration>
						<rate>
							<timebase>24</timebase>
							<ntsc>FALSE</ntsc>
						</rate>
						<start>23031</start>
						<end>23056</end>
						<in>813</in>
						<out>838</out>
						<pproTicksIn>8604792000000</pproTicksIn>
						<pproTicksOut>8869392000000</pproTicksOut>
						<file id="file-109"/>
						<sourcetrack>
							<mediatype>audio</mediatype>
							<trackindex>2</trackindex>
						</sourcetrack>
						<link>
							<linkclipref>clipitem-234</linkclipref>
							<mediatype>video</mediatype>
							<trackindex>1</trackindex>
							<clipindex>278</clipindex>
						</link>
						<link>
							<linkclipref>clipitem-617</linkclipref>
							<mediatype>audio</mediatype>
							<trackindex>1</trackindex>
							<clipindex>141</clipindex>
							<groupindex>1</groupindex>
						</link>
						<link>
							<linkclipref>clipitem-781</linkclipref>
							<mediatype>audio</mediatype>
							<trackindex>2</trackindex>
							<clipindex>141</clipindex>
							<groupindex>1</groupindex>
						</link>
						<logginginfo>
							<description></description>
							<scene></scene>
							<shottake></shottake>
							<lognote></lognote>
							<good></good>
							<originalvideofilename></originalvideofilename>
							<originalaudiofilename></originalaudiofilename>
						</logginginfo>
						<colorinfo>
							<lut></lut>
							<lut1></lut1>
							<asc_sop></asc_sop>
							<asc_sat></asc_sat>
							<lut2></lut2>
						</colorinfo>
						<labels>
							<label2>Iris</label2>
						</labels>
					</clipitem>
					<clipitem id="clipitem-782" premiereChannelType="stereo">
						<masterclipid>masterclip-109</masterclipid>
						<name>A008_10280532_C038.mp4</name>
						<enabled>TRUE</enabled>
						<duration>1656</duration>
						<rate>
							<timebase>24</timebase>
							<ntsc>FALSE</ntsc>
						</rate>
						<start>23056</start>
						<end>23073</end>
						<in>838</in>
						<out>855</out>
						<pproTicksIn>8869392000000</pproTicksIn>
						<pproTicksOut>9049320000000</pproTicksOut>
						<file id="file-109"/>
						<sourcetrack>
							<mediatype>audio</mediatype>
							<trackindex>2</trackindex>
						</sourcetrack>
						<link>
							<linkclipref>clipitem-235</linkclipref>
							<mediatype>video</mediatype>
							<trackindex>1</trackindex>
							<clipindex>279</clipindex>
						</link>
						<link>
							<linkclipref>clipitem-618</linkclipref>
							<mediatype>audio</mediatype>
							<trackindex>1</trackindex>
							<clipindex>142</clipindex>
							<groupindex>1</groupindex>
						</link>
						<link>
							<linkclipref>clipitem-782</linkclipref>
							<mediatype>audio</mediatype>
							<trackindex>2</trackindex>
							<clipindex>142</clipindex>
							<groupindex>1</groupindex>
						</link>
						<logginginfo>
							<description></description>
							<scene></scene>
							<shottake></shottake>
							<lognote></lognote>
							<good></good>
							<originalvideofilename></originalvideofilename>
							<originalaudiofilename></originalaudiofilename>
						</logginginfo>
						<colorinfo>
							<lut></lut>
							<lut1></lut1>
							<asc_sop></asc_sop>
							<asc_sat></asc_sat>
							<lut2></lut2>
						</colorinfo>
						<labels>
							<label2>Iris</label2>
						</labels>
					</clipitem>
					<clipitem id="clipitem-783" premiereChannelType="stereo">
						<masterclipid>masterclip-109</masterclipid>
						<name>A008_10280532_C038.mp4</name>
						<enabled>TRUE</enabled>
						<duration>1656</duration>
						<rate>
							<timebase>24</timebase>
							<ntsc>FALSE</ntsc>
						</rate>
						<start>23073</start>
						<end>23091</end>
						<in>855</in>
						<out>873</out>
						<pproTicksIn>9049320000000</pproTicksIn>
						<pproTicksOut>9239832000000</pproTicksOut>
						<file id="file-109"/>
						<sourcetrack>
							<mediatype>audio</mediatype>
							<trackindex>2</trackindex>
						</sourcetrack>
						<link>
							<linkclipref>clipitem-236</linkclipref>
							<mediatype>video</mediatype>
							<trackindex>1</trackindex>
							<clipindex>280</clipindex>
						</link>
						<link>
							<linkclipref>clipitem-619</linkclipref>
							<mediatype>audio</mediatype>
							<trackindex>1</trackindex>
							<clipindex>143</clipindex>
							<groupindex>1</groupindex>
						</link>
						<link>
							<linkclipref>clipitem-783</linkclipref>
							<mediatype>audio</mediatype>
							<trackindex>2</trackindex>
							<clipindex>143</clipindex>
							<groupindex>1</groupindex>
						</link>
						<logginginfo>
							<description></description>
							<scene></scene>
							<shottake></shottake>
							<lognote></lognote>
							<good></good>
							<originalvideofilename></originalvideofilename>
							<originalaudiofilename></originalaudiofilename>
						</logginginfo>
						<colorinfo>
							<lut></lut>
							<lut1></lut1>
							<asc_sop></asc_sop>
							<asc_sat></asc_sat>
							<lut2></lut2>
						</colorinfo>
						<labels>
							<label2>Iris</label2>
						</labels>
					</clipitem>
					<clipitem id="clipitem-784" premiereChannelType="stereo">
						<masterclipid>masterclip-109</masterclipid>
						<name>A008_10280532_C038.mp4</name>
						<enabled>TRUE</enabled>
						<duration>1656</duration>
						<rate>
							<timebase>24</timebase>
							<ntsc>FALSE</ntsc>
						</rate>
						<start>23091</start>
						<end>23196</end>
						<in>873</in>
						<out>978</out>
						<pproTicksIn>9239832000000</pproTicksIn>
						<pproTicksOut>10351152000000</pproTicksOut>
						<file id="file-109"/>
						<sourcetrack>
							<mediatype>audio</mediatype>
							<trackindex>2</trackindex>
						</sourcetrack>
						<link>
							<linkclipref>clipitem-237</linkclipref>
							<mediatype>video</mediatype>
							<trackindex>1</trackindex>
							<clipindex>281</clipindex>
						</link>
						<link>
							<linkclipref>clipitem-620</linkclipref>
							<mediatype>audio</mediatype>
							<trackindex>1</trackindex>
							<clipindex>144</clipindex>
							<groupindex>1</groupindex>
						</link>
						<link>
							<linkclipref>clipitem-784</linkclipref>
							<mediatype>audio</mediatype>
							<trackindex>2</trackindex>
							<clipindex>144</clipindex>
							<groupindex>1</groupindex>
						</link>
						<logginginfo>
							<description></description>
							<scene></scene>
							<shottake></shottake>
							<lognote></lognote>
							<good></good>
							<originalvideofilename></originalvideofilename>
							<originalaudiofilename></originalaudiofilename>
						</logginginfo>
						<colorinfo>
							<lut></lut>
							<lut1></lut1>
							<asc_sop></asc_sop>
							<asc_sat></asc_sat>
							<lut2></lut2>
						</colorinfo>
						<labels>
							<label2>Iris</label2>
						</labels>
					</clipitem>
					<clipitem id="clipitem-785" premiereChannelType="stereo">
						<masterclipid>masterclip-110</masterclipid>
						<name>A008_10280608_C051.mp4</name>
						<enabled>TRUE</enabled>
						<duration>1519</duration>
						<rate>
							<timebase>24</timebase>
							<ntsc>FALSE</ntsc>
						</rate>
						<start>23226</start>
						<end>23298</end>
						<in>770</in>
						<out>842</out>
						<pproTicksIn>8149680000000</pproTicksIn>
						<pproTicksOut>8911728000000</pproTicksOut>
						<file id="file-110"/>
						<sourcetrack>
							<mediatype>audio</mediatype>
							<trackindex>2</trackindex>
						</sourcetrack>
						<link>
							<linkclipref>clipitem-242</linkclipref>
							<mediatype>video</mediatype>
							<trackindex>1</trackindex>
							<clipindex>286</clipindex>
						</link>
						<link>
							<linkclipref>clipitem-621</linkclipref>
							<mediatype>audio</mediatype>
							<trackindex>1</trackindex>
							<clipindex>145</clipindex>
							<groupindex>1</groupindex>
						</link>
						<link>
							<linkclipref>clipitem-785</linkclipref>
							<mediatype>audio</mediatype>
							<trackindex>2</trackindex>
							<clipindex>145</clipindex>
							<groupindex>1</groupindex>
						</link>
						<logginginfo>
							<description></description>
							<scene></scene>
							<shottake></shottake>
							<lognote></lognote>
							<good></good>
							<originalvideofilename></originalvideofilename>
							<originalaudiofilename></originalaudiofilename>
						</logginginfo>
						<colorinfo>
							<lut></lut>
							<lut1></lut1>
							<asc_sop></asc_sop>
							<asc_sat></asc_sat>
							<lut2></lut2>
						</colorinfo>
						<labels>
							<label2>Iris</label2>
						</labels>
					</clipitem>
					<clipitem id="clipitem-786" premiereChannelType="stereo">
						<masterclipid>masterclip-109</masterclipid>
						<name>A008_10280532_C038.mp4</name>
						<enabled>TRUE</enabled>
						<duration>1656</duration>
						<rate>
							<timebase>24</timebase>
							<ntsc>FALSE</ntsc>
						</rate>
						<start>23298</start>
						<end>23389</end>
						<in>1053</in>
						<out>1144</out>
						<pproTicksIn>11144952000000</pproTicksIn>
						<pproTicksOut>12108096000000</pproTicksOut>
						<file id="file-109"/>
						<sourcetrack>
							<mediatype>audio</mediatype>
							<trackindex>2</trackindex>
						</sourcetrack>
						<link>
							<linkclipref>clipitem-243</linkclipref>
							<mediatype>video</mediatype>
							<trackindex>1</trackindex>
							<clipindex>287</clipindex>
						</link>
						<link>
							<linkclipref>clipitem-622</linkclipref>
							<mediatype>audio</mediatype>
							<trackindex>1</trackindex>
							<clipindex>146</clipindex>
							<groupindex>1</groupindex>
						</link>
						<link>
							<linkclipref>clipitem-786</linkclipref>
							<mediatype>audio</mediatype>
							<trackindex>2</trackindex>
							<clipindex>146</clipindex>
							<groupindex>1</groupindex>
						</link>
						<logginginfo>
							<description></description>
							<scene></scene>
							<shottake></shottake>
							<lognote></lognote>
							<good></good>
							<originalvideofilename></originalvideofilename>
							<originalaudiofilename></originalaudiofilename>
						</logginginfo>
						<colorinfo>
							<lut></lut>
							<lut1></lut1>
							<asc_sop></asc_sop>
							<asc_sat></asc_sat>
							<lut2></lut2>
						</colorinfo>
						<labels>
							<label2>Iris</label2>
						</labels>
					</clipitem>
					<clipitem id="clipitem-787" premiereChannelType="stereo">
						<masterclipid>masterclip-111</masterclipid>
						<name>A008_10280614_C052.mp4</name>
						<enabled>TRUE</enabled>
						<duration>782</duration>
						<rate>
							<timebase>24</timebase>
							<ntsc>FALSE</ntsc>
						</rate>
						<start>23389</start>
						<end>23483</end>
						<in>252</in>
						<out>346</out>
						<pproTicksIn>2667168000000</pproTicksIn>
						<pproTicksOut>3662064000000</pproTicksOut>
						<file id="file-111"/>
						<sourcetrack>
							<mediatype>audio</mediatype>
							<trackindex>2</trackindex>
						</sourcetrack>
						<link>
							<linkclipref>clipitem-244</linkclipref>
							<mediatype>video</mediatype>
							<trackindex>1</trackindex>
							<clipindex>288</clipindex>
						</link>
						<link>
							<linkclipref>clipitem-623</linkclipref>
							<mediatype>audio</mediatype>
							<trackindex>1</trackindex>
							<clipindex>147</clipindex>
							<groupindex>1</groupindex>
						</link>
						<link>
							<linkclipref>clipitem-787</linkclipref>
							<mediatype>audio</mediatype>
							<trackindex>2</trackindex>
							<clipindex>147</clipindex>
							<groupindex>1</groupindex>
						</link>
						<logginginfo>
							<description></description>
							<scene></scene>
							<shottake></shottake>
							<lognote></lognote>
							<good></good>
							<originalvideofilename></originalvideofilename>
							<originalaudiofilename></originalaudiofilename>
						</logginginfo>
						<colorinfo>
							<lut></lut>
							<lut1></lut1>
							<asc_sop></asc_sop>
							<asc_sat></asc_sat>
							<lut2></lut2>
						</colorinfo>
						<labels>
							<label2>Iris</label2>
						</labels>
					</clipitem>
					<clipitem id="clipitem-788" premiereChannelType="stereo">
						<masterclipid>masterclip-109</masterclipid>
						<name>A008_10280532_C038.mp4</name>
						<enabled>TRUE</enabled>
						<duration>1656</duration>
						<rate>
							<timebase>24</timebase>
							<ntsc>FALSE</ntsc>
						</rate>
						<start>23483</start>
						<end>23571</end>
						<in>1227</in>
						<out>1315</out>
						<pproTicksIn>12986568000000</pproTicksIn>
						<pproTicksOut>13917960000000</pproTicksOut>
						<file id="file-109"/>
						<sourcetrack>
							<mediatype>audio</mediatype>
							<trackindex>2</trackindex>
						</sourcetrack>
						<link>
							<linkclipref>clipitem-245</linkclipref>
							<mediatype>video</mediatype>
							<trackindex>1</trackindex>
							<clipindex>289</clipindex>
						</link>
						<link>
							<linkclipref>clipitem-624</linkclipref>
							<mediatype>audio</mediatype>
							<trackindex>1</trackindex>
							<clipindex>148</clipindex>
							<groupindex>1</groupindex>
						</link>
						<link>
							<linkclipref>clipitem-788</linkclipref>
							<mediatype>audio</mediatype>
							<trackindex>2</trackindex>
							<clipindex>148</clipindex>
							<groupindex>1</groupindex>
						</link>
						<logginginfo>
							<description></description>
							<scene></scene>
							<shottake></shottake>
							<lognote></lognote>
							<good></good>
							<originalvideofilename></originalvideofilename>
							<originalaudiofilename></originalaudiofilename>
						</logginginfo>
						<colorinfo>
							<lut></lut>
							<lut1></lut1>
							<asc_sop></asc_sop>
							<asc_sat></asc_sat>
							<lut2></lut2>
						</colorinfo>
						<labels>
							<label2>Iris</label2>
						</labels>
					</clipitem>
					<clipitem id="clipitem-789" premiereChannelType="stereo">
						<masterclipid>masterclip-110</masterclipid>
						<name>A008_10280608_C051.mp4</name>
						<enabled>TRUE</enabled>
						<duration>1519</duration>
						<rate>
							<timebase>24</timebase>
							<ntsc>FALSE</ntsc>
						</rate>
						<start>23571</start>
						<end>23627</end>
						<in>1138</in>
						<out>1194</out>
						<pproTicksIn>12044592000000</pproTicksIn>
						<pproTicksOut>12637296000000</pproTicksOut>
						<file id="file-110"/>
						<sourcetrack>
							<mediatype>audio</mediatype>
							<trackindex>2</trackindex>
						</sourcetrack>
						<link>
							<linkclipref>clipitem-246</linkclipref>
							<mediatype>video</mediatype>
							<trackindex>1</trackindex>
							<clipindex>290</clipindex>
						</link>
						<link>
							<linkclipref>clipitem-625</linkclipref>
							<mediatype>audio</mediatype>
							<trackindex>1</trackindex>
							<clipindex>149</clipindex>
							<groupindex>1</groupindex>
						</link>
						<link>
							<linkclipref>clipitem-789</linkclipref>
							<mediatype>audio</mediatype>
							<trackindex>2</trackindex>
							<clipindex>149</clipindex>
							<groupindex>1</groupindex>
						</link>
						<logginginfo>
							<description></description>
							<scene></scene>
							<shottake></shottake>
							<lognote></lognote>
							<good></good>
							<originalvideofilename></originalvideofilename>
							<originalaudiofilename></originalaudiofilename>
						</logginginfo>
						<colorinfo>
							<lut></lut>
							<lut1></lut1>
							<asc_sop></asc_sop>
							<asc_sat></asc_sat>
							<lut2></lut2>
						</colorinfo>
						<labels>
							<label2>Iris</label2>
						</labels>
					</clipitem>
					<clipitem id="clipitem-790" premiereChannelType="stereo">
						<masterclipid>masterclip-109</masterclipid>
						<name>A008_10280532_C038.mp4</name>
						<enabled>TRUE</enabled>
						<duration>1656</duration>
						<rate>
							<timebase>24</timebase>
							<ntsc>FALSE</ntsc>
						</rate>
						<start>23627</start>
						<end>23650</end>
						<in>1395</in>
						<out>1418</out>
						<pproTicksIn>14764680000000</pproTicksIn>
						<pproTicksOut>15008112000000</pproTicksOut>
						<file id="file-109"/>
						<sourcetrack>
							<mediatype>audio</mediatype>
							<trackindex>2</trackindex>
						</sourcetrack>
						<link>
							<linkclipref>clipitem-247</linkclipref>
							<mediatype>video</mediatype>
							<trackindex>1</trackindex>
							<clipindex>291</clipindex>
						</link>
						<link>
							<linkclipref>clipitem-626</linkclipref>
							<mediatype>audio</mediatype>
							<trackindex>1</trackindex>
							<clipindex>150</clipindex>
							<groupindex>1</groupindex>
						</link>
						<link>
							<linkclipref>clipitem-790</linkclipref>
							<mediatype>audio</mediatype>
							<trackindex>2</trackindex>
							<clipindex>150</clipindex>
							<groupindex>1</groupindex>
						</link>
						<logginginfo>
							<description></description>
							<scene></scene>
							<shottake></shottake>
							<lognote></lognote>
							<good></good>
							<originalvideofilename></originalvideofilename>
							<originalaudiofilename></originalaudiofilename>
						</logginginfo>
						<colorinfo>
							<lut></lut>
							<lut1></lut1>
							<asc_sop></asc_sop>
							<asc_sat></asc_sat>
							<lut2></lut2>
						</colorinfo>
						<labels>
							<label2>Iris</label2>
						</labels>
					</clipitem>
					<clipitem id="clipitem-791" premiereChannelType="stereo">
						<masterclipid>masterclip-110</masterclipid>
						<name>A008_10280608_C051.mp4</name>
						<enabled>TRUE</enabled>
						<duration>1519</duration>
						<rate>
							<timebase>24</timebase>
							<ntsc>FALSE</ntsc>
						</rate>
						<start>23650</start>
						<end>23707</end>
						<in>1227</in>
						<out>1284</out>
						<pproTicksIn>12986568000000</pproTicksIn>
						<pproTicksOut>13589856000000</pproTicksOut>
						<file id="file-110"/>
						<sourcetrack>
							<mediatype>audio</mediatype>
							<trackindex>2</trackindex>
						</sourcetrack>
						<link>
							<linkclipref>clipitem-248</linkclipref>
							<mediatype>video</mediatype>
							<trackindex>1</trackindex>
							<clipindex>292</clipindex>
						</link>
						<link>
							<linkclipref>clipitem-627</linkclipref>
							<mediatype>audio</mediatype>
							<trackindex>1</trackindex>
							<clipindex>151</clipindex>
							<groupindex>1</groupindex>
						</link>
						<link>
							<linkclipref>clipitem-791</linkclipref>
							<mediatype>audio</mediatype>
							<trackindex>2</trackindex>
							<clipindex>151</clipindex>
							<groupindex>1</groupindex>
						</link>
						<logginginfo>
							<description></description>
							<scene></scene>
							<shottake></shottake>
							<lognote></lognote>
							<good></good>
							<originalvideofilename></originalvideofilename>
							<originalaudiofilename></originalaudiofilename>
						</logginginfo>
						<colorinfo>
							<lut></lut>
							<lut1></lut1>
							<asc_sop></asc_sop>
							<asc_sat></asc_sat>
							<lut2></lut2>
						</colorinfo>
						<labels>
							<label2>Iris</label2>
						</labels>
					</clipitem>
					<clipitem id="clipitem-792" premiereChannelType="stereo">
						<masterclipid>masterclip-237</masterclipid>
						<name>Audio 4_56.wav</name>
						<enabled>TRUE</enabled>
						<duration>164</duration>
						<rate>
							<timebase>24</timebase>
							<ntsc>FALSE</ntsc>
						</rate>
						<start>28838</start>
						<end>28959</end>
						<in>44</in>
						<out>165</out>
						<pproTicksIn>465696000000</pproTicksIn>
						<pproTicksOut>1746360000000</pproTicksOut>
						<file id="file-237"/>
						<sourcetrack>
							<mediatype>audio</mediatype>
							<trackindex>2</trackindex>
						</sourcetrack>
						<link>
							<linkclipref>clipitem-628</linkclipref>
							<mediatype>audio</mediatype>
							<trackindex>1</trackindex>
							<clipindex>152</clipindex>
							<groupindex>1</groupindex>
						</link>
						<link>
							<linkclipref>clipitem-792</linkclipref>
							<mediatype>audio</mediatype>
							<trackindex>2</trackindex>
							<clipindex>152</clipindex>
							<groupindex>1</groupindex>
						</link>
						<logginginfo>
							<description></description>
							<scene></scene>
							<shottake></shottake>
							<lognote></lognote>
							<good></good>
							<originalvideofilename></originalvideofilename>
							<originalaudiofilename></originalaudiofilename>
						</logginginfo>
						<colorinfo>
							<lut></lut>
							<lut1></lut1>
							<asc_sop></asc_sop>
							<asc_sat></asc_sat>
							<lut2></lut2>
						</colorinfo>
						<labels>
							<label2>Blue</label2>
						</labels>
					</clipitem>
					<clipitem id="clipitem-793" premiereChannelType="stereo">
						<masterclipid>masterclip-201</masterclipid>
						<name>A011_10290409_C042.mp4</name>
						<enabled>TRUE</enabled>
						<duration>1398</duration>
						<rate>
							<timebase>24</timebase>
							<ntsc>FALSE</ntsc>
						</rate>
						<start>29025</start>
						<end>29139</end>
						<in>229</in>
						<out>343</out>
						<pproTicksIn>2423736000000</pproTicksIn>
						<pproTicksOut>3630312000000</pproTicksOut>
						<file id="file-201"/>
						<sourcetrack>
							<mediatype>audio</mediatype>
							<trackindex>2</trackindex>
						</sourcetrack>
						<link>
							<linkclipref>clipitem-412</linkclipref>
							<mediatype>video</mediatype>
							<trackindex>1</trackindex>
							<clipindex>458</clipindex>
						</link>
						<link>
							<linkclipref>clipitem-629</linkclipref>
							<mediatype>audio</mediatype>
							<trackindex>1</trackindex>
							<clipindex>153</clipindex>
							<groupindex>1</groupindex>
						</link>
						<link>
							<linkclipref>clipitem-793</linkclipref>
							<mediatype>audio</mediatype>
							<trackindex>2</trackindex>
							<clipindex>153</clipindex>
							<groupindex>1</groupindex>
						</link>
						<logginginfo>
							<description></description>
							<scene></scene>
							<shottake></shottake>
							<lognote></lognote>
							<good></good>
							<originalvideofilename></originalvideofilename>
							<originalaudiofilename></originalaudiofilename>
						</logginginfo>
						<colorinfo>
							<lut></lut>
							<lut1></lut1>
							<asc_sop></asc_sop>
							<asc_sat></asc_sat>
							<lut2></lut2>
						</colorinfo>
						<labels>
							<label2>Iris</label2>
						</labels>
					</clipitem>
					<clipitem id="clipitem-794" premiereChannelType="stereo">
						<masterclipid>masterclip-203</masterclipid>
						<name>A011_10290358_C033.mp4</name>
						<enabled>TRUE</enabled>
						<duration>1498</duration>
						<rate>
							<timebase>24</timebase>
							<ntsc>FALSE</ntsc>
						</rate>
						<start>29139</start>
						<end>29220</end>
						<in>373</in>
						<out>454</out>
						<pproTicksIn>3947832000000</pproTicksIn>
						<pproTicksOut>4805136000000</pproTicksOut>
						<file id="file-203"/>
						<sourcetrack>
							<mediatype>audio</mediatype>
							<trackindex>2</trackindex>
						</sourcetrack>
						<link>
							<linkclipref>clipitem-413</linkclipref>
							<mediatype>video</mediatype>
							<trackindex>1</trackindex>
							<clipindex>459</clipindex>
						</link>
						<link>
							<linkclipref>clipitem-630</linkclipref>
							<mediatype>audio</mediatype>
							<trackindex>1</trackindex>
							<clipindex>154</clipindex>
							<groupindex>1</groupindex>
						</link>
						<link>
							<linkclipref>clipitem-794</linkclipref>
							<mediatype>audio</mediatype>
							<trackindex>2</trackindex>
							<clipindex>154</clipindex>
							<groupindex>1</groupindex>
						</link>
						<logginginfo>
							<description></description>
							<scene></scene>
							<shottake></shottake>
							<lognote></lognote>
							<good></good>
							<originalvideofilename></originalvideofilename>
							<originalaudiofilename></originalaudiofilename>
						</logginginfo>
						<colorinfo>
							<lut></lut>
							<lut1></lut1>
							<asc_sop></asc_sop>
							<asc_sat></asc_sat>
							<lut2></lut2>
						</colorinfo>
						<labels>
							<label2>Iris</label2>
						</labels>
					</clipitem>
					<clipitem id="clipitem-795" premiereChannelType="stereo">
						<masterclipid>masterclip-204</masterclipid>
						<name>A011_10290336_C021.mp4</name>
						<enabled>TRUE</enabled>
						<duration>1791</duration>
						<rate>
							<timebase>24</timebase>
							<ntsc>FALSE</ntsc>
						</rate>
						<start>29220</start>
						<end>29276</end>
						<in>747</in>
						<out>803</out>
						<pproTicksIn>7906248000000</pproTicksIn>
						<pproTicksOut>8498952000000</pproTicksOut>
						<file id="file-204"/>
						<sourcetrack>
							<mediatype>audio</mediatype>
							<trackindex>2</trackindex>
						</sourcetrack>
						<link>
							<linkclipref>clipitem-414</linkclipref>
							<mediatype>video</mediatype>
							<trackindex>1</trackindex>
							<clipindex>460</clipindex>
						</link>
						<link>
							<linkclipref>clipitem-631</linkclipref>
							<mediatype>audio</mediatype>
							<trackindex>1</trackindex>
							<clipindex>155</clipindex>
							<groupindex>1</groupindex>
						</link>
						<link>
							<linkclipref>clipitem-795</linkclipref>
							<mediatype>audio</mediatype>
							<trackindex>2</trackindex>
							<clipindex>155</clipindex>
							<groupindex>1</groupindex>
						</link>
						<logginginfo>
							<description></description>
							<scene></scene>
							<shottake></shottake>
							<lognote></lognote>
							<good></good>
							<originalvideofilename></originalvideofilename>
							<originalaudiofilename></originalaudiofilename>
						</logginginfo>
						<colorinfo>
							<lut></lut>
							<lut1></lut1>
							<asc_sop></asc_sop>
							<asc_sat></asc_sat>
							<lut2></lut2>
						</colorinfo>
						<labels>
							<label2>Iris</label2>
						</labels>
					</clipitem>
					<clipitem id="clipitem-796" premiereChannelType="stereo">
						<masterclipid>masterclip-205</masterclipid>
						<name>A011_10290325_C016.mp4</name>
						<enabled>TRUE</enabled>
						<duration>1686</duration>
						<rate>
							<timebase>24</timebase>
							<ntsc>FALSE</ntsc>
						</rate>
						<start>29276</start>
						<end>29384</end>
						<in>706</in>
						<out>814</out>
						<pproTicksIn>7472304000000</pproTicksIn>
						<pproTicksOut>8615376000000</pproTicksOut>
						<file id="file-205"/>
						<sourcetrack>
							<mediatype>audio</mediatype>
							<trackindex>2</trackindex>
						</sourcetrack>
						<link>
							<linkclipref>clipitem-415</linkclipref>
							<mediatype>video</mediatype>
							<trackindex>1</trackindex>
							<clipindex>461</clipindex>
						</link>
						<link>
							<linkclipref>clipitem-632</linkclipref>
							<mediatype>audio</mediatype>
							<trackindex>1</trackindex>
							<clipindex>156</clipindex>
							<groupindex>1</groupindex>
						</link>
						<link>
							<linkclipref>clipitem-796</linkclipref>
							<mediatype>audio</mediatype>
							<trackindex>2</trackindex>
							<clipindex>156</clipindex>
							<groupindex>1</groupindex>
						</link>
						<logginginfo>
							<description></description>
							<scene></scene>
							<shottake></shottake>
							<lognote></lognote>
							<good></good>
							<originalvideofilename></originalvideofilename>
							<originalaudiofilename></originalaudiofilename>
						</logginginfo>
						<colorinfo>
							<lut></lut>
							<lut1></lut1>
							<asc_sop></asc_sop>
							<asc_sat></asc_sat>
							<lut2></lut2>
						</colorinfo>
						<labels>
							<label2>Iris</label2>
						</labels>
					</clipitem>
					<clipitem id="clipitem-797" premiereChannelType="stereo">
						<masterclipid>masterclip-204</masterclipid>
						<name>A011_10290336_C021.mp4</name>
						<enabled>TRUE</enabled>
						<duration>1791</duration>
						<rate>
							<timebase>24</timebase>
							<ntsc>FALSE</ntsc>
						</rate>
						<start>29384</start>
						<end>29459</end>
						<in>892</in>
						<out>967</out>
						<pproTicksIn>9440928000000</pproTicksIn>
						<pproTicksOut>10234728000000</pproTicksOut>
						<file id="file-204"/>
						<sourcetrack>
							<mediatype>audio</mediatype>
							<trackindex>2</trackindex>
						</sourcetrack>
						<link>
							<linkclipref>clipitem-416</linkclipref>
							<mediatype>video</mediatype>
							<trackindex>1</trackindex>
							<clipindex>462</clipindex>
						</link>
						<link>
							<linkclipref>clipitem-633</linkclipref>
							<mediatype>audio</mediatype>
							<trackindex>1</trackindex>
							<clipindex>157</clipindex>
							<groupindex>1</groupindex>
						</link>
						<link>
							<linkclipref>clipitem-797</linkclipref>
							<mediatype>audio</mediatype>
							<trackindex>2</trackindex>
							<clipindex>157</clipindex>
							<groupindex>1</groupindex>
						</link>
						<logginginfo>
							<description></description>
							<scene></scene>
							<shottake></shottake>
							<lognote></lognote>
							<good></good>
							<originalvideofilename></originalvideofilename>
							<originalaudiofilename></originalaudiofilename>
						</logginginfo>
						<colorinfo>
							<lut></lut>
							<lut1></lut1>
							<asc_sop></asc_sop>
							<asc_sat></asc_sat>
							<lut2></lut2>
						</colorinfo>
						<labels>
							<label2>Iris</label2>
						</labels>
					</clipitem>
					<clipitem id="clipitem-798" premiereChannelType="stereo">
						<masterclipid>masterclip-205</masterclipid>
						<name>A011_10290325_C016.mp4</name>
						<enabled>TRUE</enabled>
						<duration>1686</duration>
						<rate>
							<timebase>24</timebase>
							<ntsc>FALSE</ntsc>
						</rate>
						<start>29459</start>
						<end>29573</end>
						<in>875</in>
						<out>989</out>
						<pproTicksIn>9261000000000</pproTicksIn>
						<pproTicksOut>10467576000000</pproTicksOut>
						<file id="file-205"/>
						<sourcetrack>
							<mediatype>audio</mediatype>
							<trackindex>2</trackindex>
						</sourcetrack>
						<link>
							<linkclipref>clipitem-417</linkclipref>
							<mediatype>video</mediatype>
							<trackindex>1</trackindex>
							<clipindex>463</clipindex>
						</link>
						<link>
							<linkclipref>clipitem-634</linkclipref>
							<mediatype>audio</mediatype>
							<trackindex>1</trackindex>
							<clipindex>158</clipindex>
							<groupindex>1</groupindex>
						</link>
						<link>
							<linkclipref>clipitem-798</linkclipref>
							<mediatype>audio</mediatype>
							<trackindex>2</trackindex>
							<clipindex>158</clipindex>
							<groupindex>1</groupindex>
						</link>
						<logginginfo>
							<description></description>
							<scene></scene>
							<shottake></shottake>
							<lognote></lognote>
							<good></good>
							<originalvideofilename></originalvideofilename>
							<originalaudiofilename></originalaudiofilename>
						</logginginfo>
						<colorinfo>
							<lut></lut>
							<lut1></lut1>
							<asc_sop></asc_sop>
							<asc_sat></asc_sat>
							<lut2></lut2>
						</colorinfo>
						<labels>
							<label2>Iris</label2>
						</labels>
					</clipitem>
					<clipitem id="clipitem-799" premiereChannelType="stereo">
						<masterclipid>masterclip-205</masterclipid>
						<name>A011_10290325_C016.mp4</name>
						<enabled>TRUE</enabled>
						<duration>1686</duration>
						<rate>
							<timebase>24</timebase>
							<ntsc>FALSE</ntsc>
						</rate>
						<start>29573</start>
						<end>29609</end>
						<in>989</in>
						<out>1025</out>
						<pproTicksIn>10467576000000</pproTicksIn>
						<pproTicksOut>10848600000000</pproTicksOut>
						<file id="file-205"/>
						<sourcetrack>
							<mediatype>audio</mediatype>
							<trackindex>2</trackindex>
						</sourcetrack>
						<link>
							<linkclipref>clipitem-418</linkclipref>
							<mediatype>video</mediatype>
							<trackindex>1</trackindex>
							<clipindex>464</clipindex>
						</link>
						<link>
							<linkclipref>clipitem-635</linkclipref>
							<mediatype>audio</mediatype>
							<trackindex>1</trackindex>
							<clipindex>159</clipindex>
							<groupindex>1</groupindex>
						</link>
						<link>
							<linkclipref>clipitem-799</linkclipref>
							<mediatype>audio</mediatype>
							<trackindex>2</trackindex>
							<clipindex>159</clipindex>
							<groupindex>1</groupindex>
						</link>
						<logginginfo>
							<description></description>
							<scene></scene>
							<shottake></shottake>
							<lognote></lognote>
							<good></good>
							<originalvideofilename></originalvideofilename>
							<originalaudiofilename></originalaudiofilename>
						</logginginfo>
						<colorinfo>
							<lut></lut>
							<lut1></lut1>
							<asc_sop></asc_sop>
							<asc_sat></asc_sat>
							<lut2></lut2>
						</colorinfo>
						<labels>
							<label2>Iris</label2>
						</labels>
					</clipitem>
					<clipitem id="clipitem-800" premiereChannelType="stereo">
						<masterclipid>masterclip-204</masterclipid>
						<name>A011_10290336_C021.mp4</name>
						<enabled>TRUE</enabled>
						<duration>1791</duration>
						<rate>
							<timebase>24</timebase>
							<ntsc>FALSE</ntsc>
						</rate>
						<start>29609</start>
						<end>29636</end>
						<in>1103</in>
						<out>1130</out>
						<pproTicksIn>11674152000000</pproTicksIn>
						<pproTicksOut>11959920000000</pproTicksOut>
						<file id="file-204"/>
						<sourcetrack>
							<mediatype>audio</mediatype>
							<trackindex>2</trackindex>
						</sourcetrack>
						<link>
							<linkclipref>clipitem-419</linkclipref>
							<mediatype>video</mediatype>
							<trackindex>1</trackindex>
							<clipindex>465</clipindex>
						</link>
						<link>
							<linkclipref>clipitem-636</linkclipref>
							<mediatype>audio</mediatype>
							<trackindex>1</trackindex>
							<clipindex>160</clipindex>
							<groupindex>1</groupindex>
						</link>
						<link>
							<linkclipref>clipitem-800</linkclipref>
							<mediatype>audio</mediatype>
							<trackindex>2</trackindex>
							<clipindex>160</clipindex>
							<groupindex>1</groupindex>
						</link>
						<logginginfo>
							<description></description>
							<scene></scene>
							<shottake></shottake>
							<lognote></lognote>
							<good></good>
							<originalvideofilename></originalvideofilename>
							<originalaudiofilename></originalaudiofilename>
						</logginginfo>
						<colorinfo>
							<lut></lut>
							<lut1></lut1>
							<asc_sop></asc_sop>
							<asc_sat></asc_sat>
							<lut2></lut2>
						</colorinfo>
						<labels>
							<label2>Iris</label2>
						</labels>
					</clipitem>
					<clipitem id="clipitem-801" premiereChannelType="stereo">
						<masterclipid>masterclip-206</masterclipid>
						<name>A011_10290339_C025.mp4</name>
						<enabled>TRUE</enabled>
						<duration>915</duration>
						<rate>
							<timebase>24</timebase>
							<ntsc>FALSE</ntsc>
						</rate>
						<start>29809</start>
						<end>29924</end>
						<in>413</in>
						<out>528</out>
						<pproTicksIn>4371192000000</pproTicksIn>
						<pproTicksOut>5588352000000</pproTicksOut>
						<file id="file-206"/>
						<sourcetrack>
							<mediatype>audio</mediatype>
							<trackindex>2</trackindex>
						</sourcetrack>
						<link>
							<linkclipref>clipitem-421</linkclipref>
							<mediatype>video</mediatype>
							<trackindex>1</trackindex>
							<clipindex>467</clipindex>
						</link>
						<link>
							<linkclipref>clipitem-637</linkclipref>
							<mediatype>audio</mediatype>
							<trackindex>1</trackindex>
							<clipindex>161</clipindex>
							<groupindex>1</groupindex>
						</link>
						<link>
							<linkclipref>clipitem-801</linkclipref>
							<mediatype>audio</mediatype>
							<trackindex>2</trackindex>
							<clipindex>161</clipindex>
							<groupindex>1</groupindex>
						</link>
						<logginginfo>
							<description></description>
							<scene></scene>
							<shottake></shottake>
							<lognote></lognote>
							<good></good>
							<originalvideofilename></originalvideofilename>
							<originalaudiofilename></originalaudiofilename>
						</logginginfo>
						<colorinfo>
							<lut></lut>
							<lut1></lut1>
							<asc_sop></asc_sop>
							<asc_sat></asc_sat>
							<lut2></lut2>
						</colorinfo>
						<labels>
							<label2>Iris</label2>
						</labels>
					</clipitem>
					<clipitem id="clipitem-802" premiereChannelType="stereo">
						<masterclipid>masterclip-206</masterclipid>
						<name>A011_10290339_C025.mp4</name>
						<enabled>TRUE</enabled>
						<duration>915</duration>
						<rate>
							<timebase>24</timebase>
							<ntsc>FALSE</ntsc>
						</rate>
						<start>29924</start>
						<end>30092</end>
						<in>528</in>
						<out>696</out>
						<pproTicksIn>5588352000000</pproTicksIn>
						<pproTicksOut>7366464000000</pproTicksOut>
						<file id="file-206"/>
						<sourcetrack>
							<mediatype>audio</mediatype>
							<trackindex>2</trackindex>
						</sourcetrack>
						<link>
							<linkclipref>clipitem-422</linkclipref>
							<mediatype>video</mediatype>
							<trackindex>1</trackindex>
							<clipindex>468</clipindex>
						</link>
						<link>
							<linkclipref>clipitem-638</linkclipref>
							<mediatype>audio</mediatype>
							<trackindex>1</trackindex>
							<clipindex>162</clipindex>
							<groupindex>1</groupindex>
						</link>
						<link>
							<linkclipref>clipitem-802</linkclipref>
							<mediatype>audio</mediatype>
							<trackindex>2</trackindex>
							<clipindex>162</clipindex>
							<groupindex>1</groupindex>
						</link>
						<logginginfo>
							<description></description>
							<scene></scene>
							<shottake></shottake>
							<lognote></lognote>
							<good></good>
							<originalvideofilename></originalvideofilename>
							<originalaudiofilename></originalaudiofilename>
						</logginginfo>
						<colorinfo>
							<lut></lut>
							<lut1></lut1>
							<asc_sop></asc_sop>
							<asc_sat></asc_sat>
							<lut2></lut2>
						</colorinfo>
						<labels>
							<label2>Iris</label2>
						</labels>
					</clipitem>
					<clipitem id="clipitem-803" premiereChannelType="stereo">
						<masterclipid>masterclip-201</masterclipid>
						<name>A011_10290409_C042.mp4</name>
						<enabled>TRUE</enabled>
						<duration>1398</duration>
						<rate>
							<timebase>24</timebase>
							<ntsc>FALSE</ntsc>
						</rate>
						<start>30092</start>
						<end>30135</end>
						<in>1190</in>
						<out>1233</out>
						<pproTicksIn>12594960000000</pproTicksIn>
						<pproTicksOut>13050072000000</pproTicksOut>
						<file id="file-201"/>
						<sourcetrack>
							<mediatype>audio</mediatype>
							<trackindex>2</trackindex>
						</sourcetrack>
						<link>
							<linkclipref>clipitem-423</linkclipref>
							<mediatype>video</mediatype>
							<trackindex>1</trackindex>
							<clipindex>469</clipindex>
						</link>
						<link>
							<linkclipref>clipitem-639</linkclipref>
							<mediatype>audio</mediatype>
							<trackindex>1</trackindex>
							<clipindex>163</clipindex>
							<groupindex>1</groupindex>
						</link>
						<link>
							<linkclipref>clipitem-803</linkclipref>
							<mediatype>audio</mediatype>
							<trackindex>2</trackindex>
							<clipindex>163</clipindex>
							<groupindex>1</groupindex>
						</link>
						<logginginfo>
							<description></description>
							<scene></scene>
							<shottake></shottake>
							<lognote></lognote>
							<good></good>
							<originalvideofilename></originalvideofilename>
							<originalaudiofilename></originalaudiofilename>
						</logginginfo>
						<colorinfo>
							<lut></lut>
							<lut1></lut1>
							<asc_sop></asc_sop>
							<asc_sat></asc_sat>
							<lut2></lut2>
						</colorinfo>
						<labels>
							<label2>Iris</label2>
						</labels>
					</clipitem>
					<clipitem id="clipitem-804" premiereChannelType="stereo">
						<masterclipid>masterclip-238</masterclipid>
						<name>A011_10290346_C027.mp4</name>
						<enabled>TRUE</enabled>
						<duration>1796</duration>
						<rate>
							<timebase>24</timebase>
							<ntsc>FALSE</ntsc>
						</rate>
						<start>30135</start>
						<end>30214</end>
						<in>1588</in>
						<out>1667</out>
						<pproTicksIn>16807392000000</pproTicksIn>
						<pproTicksOut>17643528000000</pproTicksOut>
						<file id="file-238"/>
						<sourcetrack>
							<mediatype>audio</mediatype>
							<trackindex>2</trackindex>
						</sourcetrack>
						<link>
							<linkclipref>clipitem-640</linkclipref>
							<mediatype>audio</mediatype>
							<trackindex>1</trackindex>
							<clipindex>164</clipindex>
							<groupindex>1</groupindex>
						</link>
						<link>
							<linkclipref>clipitem-804</linkclipref>
							<mediatype>audio</mediatype>
							<trackindex>2</trackindex>
							<clipindex>164</clipindex>
							<groupindex>1</groupindex>
						</link>
						<logginginfo>
							<description></description>
							<scene></scene>
							<shottake></shottake>
							<lognote></lognote>
							<good></good>
							<originalvideofilename></originalvideofilename>
							<originalaudiofilename></originalaudiofilename>
						</logginginfo>
						<colorinfo>
							<lut></lut>
							<lut1></lut1>
							<asc_sop></asc_sop>
							<asc_sat></asc_sat>
							<lut2></lut2>
						</colorinfo>
						<labels>
							<label2>Iris</label2>
						</labels>
					</clipitem>
					<enabled>FALSE</enabled>
					<locked>FALSE</locked>
					<outputchannelindex>2</outputchannelindex>
				</track>
			</audio>
		</media>
		<timecode>
			<rate>
				<timebase>24</timebase>
				<ntsc>FALSE</ntsc>
			</rate>
			<string>00:00:00:00</string>
			<frame>0</frame>
			<displayformat>NDF</displayformat>
		</timecode>
		<labels>
			<label2>Forest</label2>
		</labels>
		<logginginfo>
			<description></description>
			<scene></scene>
			<shottake></shottake>
			<lognote></lognote>
			<good></good>
			<originalvideofilename></originalvideofilename>
			<originalaudiofilename></originalaudiofilename>
		</logginginfo>
	</sequence>
</xmeml>
